<?xml version="1.0" encoding="utf-8"?>
<!-- Generator: Adobe Illustrator 23.0.0, SVG Export Plug-In . SVG Version: 6.00 Build 0)  -->
<svg version="1.1" id="图层_1" xmlns="http://www.w3.org/2000/svg" xmlns:xlink="http://www.w3.org/1999/xlink" x="0px" y="0px"
	 viewBox="0 0 48 48" style="enable-background:new 0 0 48 48;" xml:space="preserve">
<style type="text/css">
	.st0{fill:#C6CCD7;}
	.st1{fill-rule:evenodd;clip-rule:evenodd;fill:#C6CCD7;}
</style>
<title>自适应</title>
<g id="页面-1">
	<g id="自适应">
		<g id="矩形">
			<path class="st0" d="M44,48H4c-2.2,0-4-1.8-4-4V4c0-2.2,1.8-4,4-4h40c2.2,0,4,1.8,4,4v40C48,46.2,46.2,48,44,48z M4,2
				C2.9,2,2,2.9,2,4v40c0,1.1,0.9,2,2,2h40c1.1,0,2-0.9,2-2V4c0-1.1-0.9-2-2-2H4z"/>
		</g>
		<g>
			<path class="st1" d="M3,0h42c1.7,0,3,1.3,3,3v10l0,0H0V3C0,1.3,1.3,0,3,0z"/>
		</g>
		<g id="路径-12">
			<path class="st0" d="M7,24c-0.6,0-1-0.4-1-1v-8c0-0.6,0.4-1,1-1h8c0.6,0,1,0.4,1,1s-0.4,1-1,1H8v7C8,23.6,7.6,24,7,24z"/>
		</g>
		<g id="路径-12备份-2">
			<path class="st0" d="M41,24c-0.6,0-1-0.4-1-1v-7h-7c-0.6,0-1-0.4-1-1s0.4-1,1-1h8c0.6,0,1,0.4,1,1v8C42,23.6,41.6,24,41,24z"/>
		</g>
		<g id="路径-12备份-3">
			<path class="st0" d="M41,42h-8c-0.6,0-1-0.4-1-1s0.4-1,1-1h7v-7c0-0.6,0.4-1,1-1s1,0.4,1,1v8C42,41.6,41.6,42,41,42z"/>
		</g>
		<g id="路径-12备份-6">
			<path class="st0" d="M15,42H7c-0.6,0-1-0.4-1-1v-8c0-0.6,0.4-1,1-1s1,0.4,1,1v7h7c0.6,0,1,0.4,1,1S15.6,42,15,42z"/>
		</g>
	</g>
</g>
</svg>
