<svg xmlns="http://www.w3.org/2000/svg" viewBox="0 0 117 117"><defs><style>.cls-1{fill:#edf4fe;}.cls-2{fill:#1a1d1f;}.cls-3{fill:#383fce;}.cls-4{fill:#120284;}.cls-5{fill:#fdb9a3;}.cls-6{fill:#f08e73;}.cls-7{fill:#e56757;}.cls-8{fill:#fff;}.cls-12,.cls-15,.cls-16,.cls-9{fill:none;}.cls-9{stroke:#fff;stroke-linejoin:round;stroke-width:0.49px;}.cls-12,.cls-9{stroke-linecap:round;}.cls-10{fill:#ececf6;}.cls-11{fill:#e36556;}.cls-12{stroke:#e56757;stroke-width:0.38px;}.cls-12,.cls-15{stroke-miterlimit:10;}.cls-13{fill:#f8b600;}.cls-14{fill:#9e9e9f;}.cls-15{stroke:#9e9e9f;stroke-width:1.23px;}</style></defs><g id="图层_2" data-name="图层 2"><g id="Design"><circle class="cls-1" cx="58.5" cy="58.5" r="58.5"/><path class="cls-2" d="M88.14,92.37C83.67,59.53,79.4,39.24,79.4,39.24,78.6,32.05,72.23,18.59,58,18.32c-11.8-.22-14.07,5.42-14.51,7.39C37.62,28,35.16,40.84,33.33,51.51c-2.07,12.11-4,49.89-4,49.89l50.33,7.22S90.26,108,88.14,92.37Z"/><path class="cls-3" d="M101.9,97.74c-.67.73-1.36,1.45-2.06,2.16a58.56,58.56,0,0,1-66.07,11.63c-.63-.28-1.25-.59-1.86-.9A59,59,0,0,1,14.07,96.56c.21-.2.41-.4.63-.59.38-.35.78-.7,1.2-1l.41-.34.43-.34c.29-.22.58-.45.88-.66l.45-.33.46-.33.47-.31.48-.32s0,0,0,0l1-.6.51-.3,1-.59.54-.29.49-.26.12-.06.46-.23,0,0,.55-.26c.38-.18.76-.36,1.16-.53l.59-.26.6-.25.62-.24.64-.24.06,0,.57-.2.63-.22.65-.22h0l.39-.13.18,0,.63-.19.33-.1.49-.14c.46-.13.93-.26,1.41-.37a59.72,59.72,0,0,1,7-1.31l3.69,0,28.25-.12,3.26,0s.56.07,1.54.26,2.39.49,4.09,1h0l.5.15h0l.22.07.07,0a1.52,1.52,0,0,1,.2.06l.09,0,.18.06.05,0,.22.06.26.08.18.06h0l.28.09.09,0,.29.1.21.07.08,0,.27.09.18.07.14,0,.32.12.19.07.18.07.08,0,.21.08.34.12.2.08.09,0,.39.15.34.14.35.14.33.14h0l.07,0,.28.12.35.15.36.16.36.16.36.17.36.17.73.36.37.18.73.38h0c1.16.61,2.34,1.29,3.52,2l0,0c.31.19.61.39.91.59l.13.09c.15.09.29.19.44.3l.26.17.28.2.47.34.28.2.09.07.69.52.44.35.48.39.51.42.08.07.1.08.66.59.23.2.44.4Z"/><path class="cls-4" d="M33.77,111.53c-.63-.28-1.25-.59-1.86-.9A59,59,0,0,1,14.07,96.56c.21-.2.41-.4.63-.59.38-.35.78-.7,1.2-1l.41-.34.43-.34c.29-.22.58-.45.88-.66l.45-.33.46-.33.47-.31.48-.32s0,0,0,0l1-.6.51-.3,1-.59.54-.29.49-.26.12-.06.46-.23,0,0,.55-.26c.38-.18.76-.36,1.16-.53l.59-.26.6-.25.62-.24.64-.24.06,0,.57-.2.63-.22.65-.22h0l.39-.13.18,0,.63-.19.33-.1.49-.14c.46-.13.93-.26,1.41-.37v0c0,.26,0,2.3.13,5.6.06,2.6.14,6,.23,9.88C33.61,104.91,33.69,108.12,33.77,111.53Z"/><path class="cls-5" d="M75.38,85a32.23,32.23,0,0,1-11.23,6.3h0C52.38,94.85,43,88.54,39.4,85.49l.78-.3a13.94,13.94,0,0,0,2-1c9.27-5.69,7.59-21.31,7.59-21.31H66.2a35.19,35.19,0,0,0,.07,6.61C66.82,74.94,68.83,82.19,75.38,85Z"/><path class="cls-5" d="M91.62,90.47c-47.57,14.39-64.44-2.08-64.44-2.08a49.73,49.73,0,0,1,6-1.89,59.72,59.72,0,0,1,7-1.31L75.38,85A40.08,40.08,0,0,1,81,86.26,55.31,55.31,0,0,1,91.62,90.47Z"/><path class="cls-6" d="M66.27,69.5a5.45,5.45,0,0,1-4.3,3c-7.67.64-12-6.9-11.9-7.59l.4-2H66.2A35.19,35.19,0,0,0,66.27,69.5Z"/><path class="cls-5" d="M76.6,48.48a3.43,3.43,0,1,0-6.79,0c0,2.15,1.52,4.85,3.4,4.85S76.6,50.63,76.6,48.48Z"/><path class="cls-7" d="M72.32,49.82l-.24,0s.29-2.56,2.64-2.62v.24C72.58,47.46,72.32,49.79,72.32,49.82Z"/><path class="cls-7" d="M74.64,49.46a1.59,1.59,0,0,0-1.22-.59,1.56,1.56,0,0,0-1,.58l-.19-.15a1.62,1.62,0,0,1,2.62,0Z"/><path class="cls-5" d="M38.93,48.48a3.67,3.67,0,0,1,3.4-3.89,3.67,3.67,0,0,1,3.39,3.89c0,2.15-1.52,4.85-3.39,4.85S38.93,50.63,38.93,48.48Z"/><path class="cls-7" d="M43.59,49.82l.24,0s-.29-2.56-2.65-2.62v.24C43.32,47.46,43.59,49.79,43.59,49.82Z"/><path class="cls-7" d="M41.27,49.46a1.38,1.38,0,0,1,2.26,0l.19-.15a1.63,1.63,0,0,0-2.63,0Z"/><path class="cls-5" d="M67.46,63.43C65,66.31,61.77,68.17,58,68.11s-7-1.8-9.51-4.68a.21.21,0,0,0,0-.06c-4.5-5.69-5.42-14-4.2-23.84.88-7.09,7.57-9.84,11.29-10.83a9.58,9.58,0,0,1,4.93,0c3.72,1,10.41,3.74,11.28,10.83C72.93,49.43,72,57.74,67.46,63.43Z"/><circle class="cls-2" cx="63.09" cy="47.32" r="0.98"/><circle class="cls-2" cx="52.3" cy="47.32" r="0.98"/><path class="cls-2" d="M68.32,41.57s-2.14,0-4.93.07-3.53,0-3.27-.73,3.05-.71,4.8-.46A11.88,11.88,0,0,1,68.32,41.57Z"/><path class="cls-2" d="M46.88,41.57s2.13,0,4.93.07,3.52,0,3.27-.73-3-.71-4.8-.46A11.88,11.88,0,0,0,46.88,41.57Z"/><path class="cls-7" d="M57.58,53.53a1.35,1.35,0,0,1-.89-.24.52.52,0,0,1-.15-.49c.14-.9.66-4.46.67-4.5l.28,0S57,52,56.82,52.85a.23.23,0,0,0,.07.23c.26.25,1.19.16,1.72,0l.06.28A5.44,5.44,0,0,1,57.58,53.53Z"/><path class="cls-2" d="M71.85,36l-.44,16,1.27-8S76.58,38.9,71.85,36Z"/><path class="cls-2" d="M44.28,37l.21,15.06-1.26-8S39.54,39.88,44.28,37Z"/><path class="cls-8" d="M99,95.21c1,.78,2,1.62,2.93,2.53-.67.73-1.36,1.45-2.06,2.16a58.7,58.7,0,0,1-18,12.24c-.05-1.37-.09-2.71-.14-4-.19-5.62-.36-10.73-.49-14.87-.1-2.81-.17-5.17-.23-7v0h0l.5.15.86.26.21.06.26.08.18.06.9.3c.57.2,1.15.41,1.75.64l.24.08.2.08.09,0,.39.15c.68.27,1.38.57,2.1.89l.36.16.39.18.24.11h0c.42.19.84.4,1.27.62l1.11.58,1.24.69.26.15c.42.24.84.49,1.26.76l.18.11a.57.57,0,0,0,.13.08l0,0c.57.36,1.15.74,1.73,1.15l.29.2.84.61Z"/><path class="cls-8" d="M33.18,86.5v0l-.28,5.42-.52,9.89-.47,8.8A59,59,0,0,1,14.07,96.56L14.7,96c.38-.35.78-.7,1.2-1l.41-.34.43-.34.88-.66.45-.33.46-.33.47-.31.48-.32s0,0,0,0l1-.6.51-.3,1-.59.54-.29.49-.26.12-.06.46-.23,0,0,.55-.26c.38-.18.76-.36,1.16-.53l.59-.26.6-.25.62-.24.64-.24.06,0,.57-.2.63-.22.65-.22h0l.39-.13.18,0,.63-.19.33-.1.49-.14C32.23,86.74,32.7,86.61,33.18,86.5Z"/><path class="cls-9" d="M42.7,83c2,5,8.08,8.7,15.25,8.7S71.26,88,73.24,82.92"/><path class="cls-2" d="M44.33,41s.5-4.43,2.55-6.85c0,0,6.08-3.73,21.44,0,0,0,3,1.76,3.4,6.85a16.66,16.66,0,0,0-.94-12c-3-6.6-19.62-6.42-23.12-3S39.3,36.74,44.33,41Z"/><path class="cls-10" d="M101.9,97.74c-.67.73-1.36,1.45-2.06,2.16-8.46-9.82-17.51-13.18-18.7-13.59l.38.1.86.26.21.06.44.14.9.3c.57.2,1.15.41,1.75.64l.44.16.09,0,.39.15c.68.27,1.38.57,2.1.89l.36.16.39.18.24.12c.42.19.84.4,1.27.62l1.11.58,1.24.69.26.15c.42.24.84.49,1.26.76l.18.11.16.11c.57.36,1.15.74,1.73,1.15l.29.2.84.61.94.72C100,96,100.94,96.83,101.9,97.74Z"/><path class="cls-11" d="M57.15,59.13a.17.17,0,0,1-.1-.18.16.16,0,0,1,.19-.13,2.37,2.37,0,0,0,.75,0,.16.16,0,1,1,0,.32,2.49,2.49,0,0,1-.86,0Z"/><path class="cls-12" d="M53.72,56.46a8.45,8.45,0,0,0,7.81,0"/><path class="cls-8" d="M63.93,42.86A4.91,4.91,0,0,0,62.6,43a5,5,0,0,0-3.39,3.26,2.5,2.5,0,0,0-.07.26A4.71,4.71,0,0,0,59,47.81a4.94,4.94,0,0,0,2.65,4.39l.24.12a4.88,4.88,0,0,0,1.3.39,4.77,4.77,0,0,0,.76.06,5,5,0,1,0,0-9.91Zm0,9.64a4.11,4.11,0,0,1-.78-.07A4.28,4.28,0,0,1,62,52.09L61.78,52a4.69,4.69,0,1,1,2.15.52Z"/><path class="cls-8" d="M55.76,46.55c0-.08,0-.17-.07-.26A5,5,0,1,0,51,52.77a5.84,5.84,0,0,0,.73-.05,5.15,5.15,0,0,0,1.74-.61l.09,0h0a4.94,4.94,0,0,0,2.4-4.24A4.85,4.85,0,0,0,55.76,46.55Zm-2.51,5.36A4.63,4.63,0,0,1,51,52.5a4.69,4.69,0,1,1,2.28-.59Z"/><path class="cls-8" d="M59.24,46.61a3.85,3.85,0,0,0-3.56,0l-.14-.23a4.05,4.05,0,0,1,3.82,0Z"/><path class="cls-13" d="M86.77,95.09l-8.34,3.78-15,6.77-8.34,3.78L58.54,117c1,0,1.92,0,2.87-.07.69,0,1.38-.08,2.06-.14s1.32-.12,2-.2a58.16,58.16,0,0,0,16.43-4.45,59.52,59.52,0,0,0,5.86-3c.57-.33,1.13-.66,1.68-1,.86-.54,1.7-1.1,2.53-1.67Z"/><path class="cls-8" d="M89.41,108.18c-.55.34-1.11.67-1.68,1a59.52,59.52,0,0,1-5.86,3,58.16,58.16,0,0,1-16.43,4.45c-.65.08-1.31.15-2,.2s-1.37.11-2.06.14l-3.22-7.11L64,107.2l15.27-6.92,5.47-2.47Z"/><rect class="cls-14" x="61.17" y="108.37" width="25.24" height="1.23" transform="translate(-38.38 40.13) rotate(-24.35)"/><path class="cls-14" d="M86.73,107l-21.29,9.64c-.65.08-1.31.15-2,.2l-.24-.55,23-10.4Z"/><path class="cls-14" d="M87.73,109.18a59.52,59.52,0,0,1-5.86,3,56.49,56.49,0,0,1-9.91,3.3l15.45-7Z"/><path class="cls-15" d="M79.36,100.52l-.11-.24-.33-.73a2,2,0,0,0-.49-.68A2.16,2.16,0,0,0,76,98.46l-11.31,5.12a2.15,2.15,0,0,0-1.08,2.88l.33.74.11.23A2.17,2.17,0,0,0,67,108.51l11.31-5.11A2.19,2.19,0,0,0,79.36,100.52Z"/><path class="cls-16" d="M117,58.5a58.35,58.35,0,0,1-15.1,39.24c-.67.73-1.36,1.45-2.06,2.16a59.51,59.51,0,0,1-7.9,6.61c-.83.57-1.67,1.13-2.53,1.67-.55.34-1.11.67-1.68,1a59.52,59.52,0,0,1-5.86,3,58.16,58.16,0,0,1-16.43,4.45c-.65.08-1.31.15-2,.2s-1.37.11-2.06.14c-.95,0-1.91.07-2.87.07h0a58.25,58.25,0,0,1-24.73-5.47c-.63-.28-1.25-.59-1.86-.9A59,59,0,0,1,14.07,96.56,58.5,58.5,0,1,1,117,58.5Z"/></g></g></svg>