<svg xmlns="http://www.w3.org/2000/svg" viewBox="0 0 117 117"><defs><style>.cls-1{fill:#edf4fe;}.cls-2{fill:#1a1d1f;}.cls-3{fill:#fdb9a3;}.cls-4{fill:#f08e73;}.cls-5{fill:#e56757;}.cls-6{fill:#e36556;}.cls-17,.cls-7{fill:none;}.cls-7{stroke:#e56757;stroke-linecap:round;stroke-miterlimit:10;stroke-width:0.4px;}.cls-8{fill:#f8b600;}.cls-9{fill:#ea8c00;}.cls-10{fill:#df8500;}.cls-11{fill:#c3c3f6;}.cls-12{fill:#302cb7;}.cls-13{fill:#ffb240;}.cls-14{fill:#ed9b2e;}.cls-15{fill:#120383;}.cls-16{fill:#f9e1b5;}</style></defs><g id="图层_2" data-name="图层 2"><g id="Design"><circle class="cls-1" cx="58.5" cy="58.5" r="58.5"/><path class="cls-2" d="M69.45,61.08s5.74-2,7.82-16.65c2.84-20-.91-18.19-4.2-20.64,0,0-5.14-11.93-17.71-8.89S45.52,25.22,44,25.83s-5,3.71-3.4,15.24,1.06,19.5,10.23,20S69.45,61.08,69.45,61.08Z"/><path class="cls-3" d="M78,83.42c-.78.65-1.55,1.33-2.32,2l-1,.86c-3,2.73-6,5.37-8.79,6.23h0c-7.81,2.34-14.63-.26-19.62-3.36C45.06,88.42,44,87.65,43,86.92l-1.36-1.07c-.92-.74-1.7-1.41-2.32-1.93h0l.33-.12.51-.2a13.56,13.56,0,0,0,2.12-1.07A17.2,17.2,0,0,0,45.51,80h0c4.41-4.44,5.05-10.19,5.05-13.24a16.87,16.87,0,0,0-.13-2.12H68.11S68,65.4,68,66.7a38.87,38.87,0,0,0,.18,5c.36,3.49,1.28,5.91,3.47,7.93A22,22,0,0,0,78,83.42Z"/><path class="cls-4" d="M68.18,71.72a5.85,5.85,0,0,1-4.62,3.2c-8.24.68-12.87-7.41-12.77-8.16l.42-2.14h16.9A37.31,37.31,0,0,0,68.18,71.72Z"/><path class="cls-3" d="M79.28,49.14a3.68,3.68,0,1,0-7.29,0c0,2.31,1.63,5.21,3.64,5.21S79.28,51.45,79.28,49.14Z"/><path class="cls-5" d="M74.68,50.57l-.26,0s.31-2.76,2.84-2.82V48C75,48.05,74.68,50.55,74.68,50.57Z"/><path class="cls-5" d="M77.18,50.18a1.75,1.75,0,0,0-1.31-.63,1.72,1.72,0,0,0-1.12.62L74.54,50a1.74,1.74,0,0,1,2.82,0Z"/><path class="cls-3" d="M38.82,49.14A3.94,3.94,0,0,1,42.47,45a3.94,3.94,0,0,1,3.64,4.18c0,2.31-1.63,5.21-3.64,5.21S38.82,51.45,38.82,49.14Z"/><path class="cls-5" d="M43.82,50.57l.26,0s-.31-2.76-2.84-2.82V48C43.54,48.05,43.82,50.55,43.82,50.57Z"/><path class="cls-5" d="M41.33,50.18a1.75,1.75,0,0,1,1.31-.63,1.79,1.79,0,0,1,1.12.62L44,50a1.9,1.9,0,0,0-1.31-.72,1.93,1.93,0,0,0-1.51.71Z"/><path class="cls-3" d="M69.46,65.19c-2.7,3.1-6.11,5.1-10.21,5s-7.51-1.93-10.21-5l0-.06c-4.83-6.11-5.82-15-4.51-25.6a12.45,12.45,0,0,1,.65-2.72c2.09-5.64,8-8,11.47-8.92a10.35,10.35,0,0,1,5.3,0c3.37.89,9,3.14,11.26,8.39h0A11.57,11.57,0,0,1,74,39.53C75.34,50.15,74.34,59.08,69.46,65.19Z"/><circle class="cls-2" cx="64.77" cy="47.6" r="1.05"/><circle class="cls-2" cx="53.18" cy="47.6" r="1.05"/><path class="cls-2" d="M69.45,42s-2.11.08-4.87.1-3.47,0-3.23-1.14,3-1.1,4.75-.71A9.36,9.36,0,0,1,69.45,42Z"/><path class="cls-2" d="M48.3,42s2.1.08,4.86.1,3.48,0,3.23-1.14-3-1.1-4.75-.71A9.27,9.27,0,0,0,48.3,42Z"/><path class="cls-5" d="M58.87,54.34a1.44,1.44,0,0,1-1-.26.57.57,0,0,1-.17-.53c.15-1,.72-4.87.73-4.91l.31,0s-.58,3.93-.73,4.91a.27.27,0,0,0,.07.25c.29.27,1.31.17,1.88,0l.07.3A5.26,5.26,0,0,1,58.87,54.34Z"/><path class="cls-2" d="M73.07,34.92l1,14.37,1-4.85S78.15,38,73.07,34.92Z"/><path class="cls-2" d="M45.44,33.24l-1.36,16-.64-4.85S40.35,38,45.44,33.24Z"/><path class="cls-2" d="M73.16,36.28c-.09-.14-3-4.75-5.54-4.42s-8.72,3.64-16.07,0c0,0-2.2-1.59-6.42,5,2.09-5.64,8-8.17,11.47-9.09a10.14,10.14,0,0,1,5.3,0C65.27,28.61,70.91,31,73.16,36.28Z"/><path class="cls-6" d="M58.17,60.34a.17.17,0,0,1,.1-.33,2.39,2.39,0,0,0,.8,0,.18.18,0,0,1,.2.14.19.19,0,0,1-.15.21,2.85,2.85,0,0,1-.92,0Z"/><path class="cls-7" d="M54.5,57.49a9,9,0,0,0,8.36,0"/><path class="cls-8" d="M59.2,14.23v.09l0-.09c-20.81.28-20.56,20.18-20.56,20.18l20.56-.94h0l20.56.94S80,14.51,59.2,14.23Z"/><path class="cls-9" d="M77.72,31c-4-1.57-6.29-3-18.53-3s-14.52,1.43-18.54,3c-2.36.92-3.21,3-2.71,3.95,0,0,15.92-1.43,21.25-1.43S80.44,34.9,80.44,34.9C80.93,33.91,80.08,31.87,77.72,31Z"/><path class="cls-10" d="M78.44,27.18c-4.9-3.88-12.14-4.51-14.64-4.61v-7.9c-.56-.1-1.14-.18-1.74-.25V24.3h.87c.13,0,11.58,0,16.4,6.22A23.82,23.82,0,0,0,78.44,27.18Z"/><path class="cls-10" d="M54.58,14.67v7.9c-2.51.1-9.75.73-14.65,4.61A25.71,25.71,0,0,0,39,30.51c4.83-6.25,16.28-6.22,16.4-6.22h.88V14.42C55.71,14.49,55.14,14.57,54.58,14.67Z"/><path class="cls-11" d="M58.39,90.65A32.39,32.39,0,0,1,51.76,90a32.74,32.74,0,0,1-10.53-4.11l.19-.28a32.24,32.24,0,0,0,10.42,4.06,31.59,31.59,0,0,0,23.84-4.49l.18.29A32.14,32.14,0,0,1,58.39,90.65Z"/><path class="cls-12" d="M47,77.71a11.15,11.15,0,0,1-5.71,5.34l17.53,20s18-19.83,18.31-19.68-4.52-1.78-6.54-5.7A37.11,37.11,0,0,1,47,77.71Z"/><path class="cls-13" d="M101.42,98.25a58.5,58.5,0,0,1-84.63,1.27l.14-.16a61.65,61.65,0,0,1,26.34-17.1s10.86,8.47,15.41,19.36h.72s2.39-8.87,16.39-18.4c0,0,14.36,4.57,24.64,14.09Z"/><path class="cls-14" d="M17.55,100.27c-.26-.24-.51-.5-.76-.75l.14-.16C17.1,99.59,17.3,99.9,17.55,100.27Z"/><path class="cls-14" d="M101.42,98.25c-1.21,1.31-2.49,2.57-3.82,3.76a35.5,35.5,0,0,1,2.83-4.7Z"/><path class="cls-15" d="M30.48,88.17l3.23,23.33c-1.58-.74-3.13-1.55-4.63-2.42L26.51,90.61Z"/><path class="cls-15" d="M89.58,89l-1,19.71Q86.36,110,84,111.15L85.6,86.81Z"/><path class="cls-16" d="M42.85,81.26s12.46,10.82,15.92,19.51c0,0-12.59-8.21-15.92-8.09l1.68-4.35-4.24.06-.54-4.9Z"/><path class="cls-16" d="M75.84,82.26S62.93,91,59.46,100.77c0,0,13.38-8.24,16.71-8.13L74,88.16l3.9.41.55-4.9Z"/><path class="cls-17" d="M117,58.5a58.27,58.27,0,0,1-15.58,39.75c-1.21,1.31-2.49,2.57-3.82,3.76a58.16,58.16,0,0,1-9,6.68Q86.36,110,84,111.15a58.58,58.58,0,0,1-50.3.35c-1.58-.74-3.13-1.55-4.63-2.42a59,59,0,0,1-11.53-8.81c-.26-.24-.51-.5-.76-.75A58.5,58.5,0,1,1,117,58.5Z"/></g></g></svg>