<svg xmlns="http://www.w3.org/2000/svg" viewBox="0 0 117 117"><defs><style>.cls-1{fill:#edf4fe;}.cls-2{fill:#1a1d1f;}.cls-3{fill:#fdb9a3;}.cls-4{fill:#f08e73;}.cls-5{fill:#e36556;}.cls-6{fill:#5661e1;}.cls-7{fill:#6d7df2;}.cls-8{fill:#fff;}.cls-10,.cls-9{fill:none;}.cls-9{stroke:#e56757;stroke-linecap:round;stroke-miterlimit:10;stroke-width:0.41px;}</style></defs><g id="图层_2" data-name="图层 2"><g id="Design"><circle class="cls-1" cx="58.5" cy="58.5" r="58.5"/><path class="cls-2" d="M72.67,57.44s4.22-7.79,4.92-13.57,6-16.16-2.46-21c0,0,.44-8.16-3.95-8.51s-11,1.39-17.8,0-18.07,2.51-12,11.24c0,0-7.15-.26-3,8s5.22,11.73,3,16.66.77,6,6,8.52S72.67,57.44,72.67,57.44Z"/><path class="cls-3" d="M78.29,83.05c-4.21,3.5-8.29,8-12.13,9.13h0C53.47,96,43.38,86.83,39.46,83.54c.28-.11.56-.21.84-.33a14.09,14.09,0,0,0,2.13-1.06,17.43,17.43,0,0,0,3.24-2.56c6.34-6.38,4.94-15.44,4.94-15.44H68.38a38.32,38.32,0,0,0,.08,7.14c.35,3.51,1.27,5.94,3.47,8A22.26,22.26,0,0,0,78.29,83.05Z"/><path class="cls-4" d="M68.45,71.29a5.85,5.85,0,0,1-4.64,3.21c-8.28.69-12.93-7.44-12.83-8.19l.42-2.16h17A37.74,37.74,0,0,0,68.45,71.29Z"/><path class="cls-3" d="M79.6,48.61a3.69,3.69,0,1,0-7.32,0c0,2.32,1.64,5.23,3.66,5.23S79.6,50.93,79.6,48.61Z"/><path class="cls-5" d="M75,50.05l-.26,0s.32-2.77,2.86-2.83v.25C75.27,47.51,75,50,75,50.05Z"/><path class="cls-5" d="M77.49,49.66A1.74,1.74,0,0,0,76.17,49a1.79,1.79,0,0,0-1.12.62l-.21-.15a2,2,0,0,1,1.32-.73,2,2,0,0,1,1.52.72Z"/><path class="cls-3" d="M39,48.61a4,4,0,0,1,3.66-4.2,4,4,0,0,1,3.66,4.2c0,2.32-1.64,5.23-3.66,5.23S39,50.93,39,48.61Z"/><path class="cls-5" d="M44,50.05l.26,0s-.31-2.77-2.86-2.83v.25C43.69,47.51,44,50,44,50.05Z"/><path class="cls-5" d="M41.47,49.66A1.76,1.76,0,0,1,42.79,49a1.72,1.72,0,0,1,1.12.62l.21-.15a1.74,1.74,0,0,0-2.83,0Z"/><path class="cls-3" d="M69.74,64.73c-2.71,3.11-6.14,5.12-10.26,5s-7.55-1.94-10.26-5l0-.06C44.31,58.53,43.33,49.59,44.64,39a12,12,0,0,1,.66-2.73c2.09-5.66,8-8,11.52-9a10.43,10.43,0,0,1,5.32,0c3.38.9,9,3.16,11.31,8.43h0A12,12,0,0,1,74.32,39C75.64,49.63,74.64,58.59,69.74,64.73Z"/><circle class="cls-2" cx="65.02" cy="46.95" r="1.05"/><circle class="cls-2" cx="53.38" cy="46.95" r="1.05"/><path class="cls-2" d="M69.72,41.44s-2.11.08-4.88.11-3.49,0-3.25-1.15,3-1.1,4.77-.72A9.29,9.29,0,0,1,69.72,41.44Z"/><path class="cls-2" d="M48.47,41.44s2.12.08,4.89.11,3.49,0,3.25-1.15-3-1.1-4.77-.72A9.38,9.38,0,0,0,48.47,41.44Z"/><path class="cls-5" d="M59.09,53.71a1.51,1.51,0,0,1-1-.25.59.59,0,0,1-.17-.54c.16-1,.73-4.86.73-4.9l.31,0S58.42,52,58.26,53a.28.28,0,0,0,.07.26c.29.27,1.31.17,1.88,0l.07.3A6.23,6.23,0,0,1,59.09,53.71Z"/><path class="cls-2" d="M73.36,34.32l1,14.44,1-4.87S78.47,37.42,73.36,34.32Z"/><path class="cls-2" d="M45.6,32.63,44.24,48.76l-.65-4.87S40.49,37.42,45.6,32.63Z"/><path class="cls-6" d="M104.43,94.73a58.5,58.5,0,0,1-91.83,0c.55-.48,1.12-1,1.7-1.42s1.06-.83,1.6-1.22A44,44,0,0,1,25,87c.53-.22,1.06-.43,1.61-.63A45.49,45.49,0,0,1,34,84.3q.83-.17,1.68-.3l.72-.11.79-.11h.09c.71-.09,1.43-.17,2.16-.23h0l.84-.33a14.13,14.13,0,0,0,2.13-1.07,17,17,0,0,0,3.24-2.55l.71.36c.47.23,1,.46,1.61.7a26.52,26.52,0,0,0,9.09,1.75c.52,0,1.05,0,1.6,0a34.4,34.4,0,0,0,9.09-1.59c.53-.16,1.06-.34,1.61-.53.83-.3,1.68-.64,2.55-1a21,21,0,0,0,5.56,3.43l.79.36h0l.17,0c.27,0,.82.11,1.61.26.36.07.76.14,1.2.24l.15,0c.72.16,1.54.35,2.45.6h0a54.52,54.52,0,0,1,5.28,1.71l1.61.65a55.32,55.32,0,0,1,9.08,4.78c.54.35,1.07.72,1.61,1.1Q103,93.5,104.43,94.73Z"/><path class="cls-7" d="M15.9,98.6V92.13c-.54.39-1.08.8-1.6,1.22v3.49Z"/><path class="cls-7" d="M26.6,107.54V86.37c-.55.2-1.08.41-1.61.63v19.46Z"/><path class="cls-7" d="M37.29,113V83.77H37.2l-.79.11-.72.11v28.38Z"/><path class="cls-7" d="M48,116.06V80.65c-.61-.24-1.14-.47-1.61-.7v35.79Z"/><path class="cls-7" d="M58.68,117V82.39c-.55,0-1.08,0-1.6,0V117Z"/><path class="cls-7" d="M69.38,116V80.27c-.55.19-1.08.37-1.61.53v35.47Z"/><path class="cls-7" d="M80.07,112.89V83.33c-.79-.15-1.34-.23-1.61-.26v30.44Z"/><path class="cls-7" d="M90.77,107.3V86.57l-1.61-.65v22.41Z"/><path class="cls-7" d="M101.46,98.22V92.45c-.54-.38-1.07-.75-1.61-1.1v8.54Z"/><path class="cls-2" d="M74.26,35s-6.8-5.95-9.24-3-1.82,8.68-8,6.4-6.47-3.68-8.59-.44-7.09-.61-7.09-.61L45.6,25.78l6-4.91,19.56,3.94,1.67,3.77Z"/><path class="cls-8" d="M77.49,82.7S68.06,92.86,64,92.07C62,91.66,59.43,85,59.43,85s-1.7,6.72-3.66,7.3c-4.29,1.27-15.47-9-15.47-9a13.25,13.25,0,0,0,2.13-1.07,17,17,0,0,0,3.24-2.55c3.53,1.89,12.85,5.43,26.26-.33A21,21,0,0,0,77.49,82.7Z"/><path class="cls-8" d="M65.79,41.23a5.25,5.25,0,0,0-1.43.2,5.35,5.35,0,0,0-3.64,3.5c0,.09-.06.19-.08.28a5.43,5.43,0,0,0-.17,1.35,5.31,5.31,0,0,0,2.85,4.71l.26.13a5.53,5.53,0,0,0,1.4.42,5.42,5.42,0,0,0,.81.06,5.33,5.33,0,1,0,0-10.65Zm0,10.37a4.58,4.58,0,0,1-.83-.08,5,5,0,0,1-1.22-.36L63.48,51a5,5,0,1,1,2.31.57Z"/><path class="cls-8" d="M57,45.2c0-.09,0-.18-.08-.28a5.33,5.33,0,0,0-5.07-3.69,5.32,5.32,0,0,0-5.32,5.33,5.32,5.32,0,0,0,5.32,5.32,6.53,6.53,0,0,0,.78-.05,5.27,5.27,0,0,0,1.88-.66l.09-.05h0a5.33,5.33,0,0,0,2.58-4.56A5.13,5.13,0,0,0,57,45.2ZM54.31,51a5,5,0,0,1-5.09-8.69,5,5,0,0,1,2.64-.75A5,5,0,0,1,54.31,51Z"/><path class="cls-8" d="M60.75,45.26a4.14,4.14,0,0,0-3.83,0L56.77,45a4.37,4.37,0,0,1,4.1,0Z"/><path class="cls-5" d="M58.6,59.78a.18.18,0,0,1-.11-.2.17.17,0,0,1,.21-.14,2.39,2.39,0,0,0,.8,0,.17.17,0,0,1,.2.14.18.18,0,0,1-.15.21,2.6,2.6,0,0,1-.92,0Z"/><path class="cls-9" d="M54.91,56.91a9.07,9.07,0,0,0,8.4,0"/><path class="cls-10" d="M117,58.5A58.5,58.5,0,1,1,58.5,0,58.27,58.27,0,0,1,117,58.5Z"/></g></g></svg>