<svg xmlns="http://www.w3.org/2000/svg" viewBox="0 0 117 117"><defs><style>.cls-1{fill:#edf4fe;}.cls-2{fill:#1a1d1f;}.cls-3{fill:#fdb9a3;}.cls-4{fill:#f08e73;}.cls-5{fill:#e56757;}.cls-12,.cls-6{fill:#fff;}.cls-7{fill:#2f2e59;}.cls-8{fill:#222247;}.cls-9{fill:#e7623a;}.cls-10{fill:#9e2d12;}.cls-11{fill:#ff7b5c;}.cls-12{stroke:#e9e9e9;stroke-width:0.14px;}.cls-12,.cls-14{stroke-miterlimit:10;}.cls-13,.cls-14{fill:none;}.cls-14{stroke:#1a1d1f;stroke-width:0.21px;}</style></defs><g id="图层_2" data-name="图层 2"><g id="Design"><circle class="cls-1" cx="58.5" cy="58.5" r="58.5"/><path class="cls-2" d="M72.2,21.22s7.57-.35,7.19,8.61c-.56,13-3.34,25.58-10.53,27.9S61.4,45.57,61.4,45.57Z"/><path class="cls-2" d="M73.54,22.28s.72-8.66-15-9.32S35.68,24.17,38,36s3.82,19.62,9.8,20.62,13.63-11,13.63-11Z"/><path class="cls-3" d="M77.27,79.25c-4.18,3.47-8.23,7.91-12,9.07h0C52.64,92.09,42.62,83,38.72,79.74l.85-.33a13.87,13.87,0,0,0,2.11-1.06,17.5,17.5,0,0,0,3.22-2.53c6.28-6.33,4.9-15.33,4.9-15.33H67.44a37.19,37.19,0,0,0,.07,7.09c.35,3.48,1.27,5.89,3.45,7.91A22.37,22.37,0,0,0,77.27,79.25Z"/><path class="cls-4" d="M67.51,67.58a5.86,5.86,0,0,1-4.61,3.19c-8.22.68-12.84-7.4-12.74-8.14l.43-2.14H67.44A37.22,37.22,0,0,0,67.51,67.58Z"/><path class="cls-3" d="M78.57,45.06a3.66,3.66,0,1,0-7.26,0c0,2.3,1.62,5.2,3.63,5.2S78.57,47.36,78.57,45.06Z"/><path class="cls-5" d="M74,46.49l-.26,0s.31-2.74,2.83-2.81v.26C74.27,44,74,46.46,74,46.49Z"/><path class="cls-5" d="M76.48,46.1a1.75,1.75,0,0,0-1.31-.63,1.71,1.71,0,0,0-1.11.62l-.21-.15a1.9,1.9,0,0,1,1.3-.72,1.92,1.92,0,0,1,1.51.7Z"/><path class="cls-3" d="M38.23,45.06a3.93,3.93,0,0,1,3.63-4.17,3.93,3.93,0,0,1,3.63,4.17c0,2.3-1.62,5.2-3.63,5.2S38.23,47.36,38.23,45.06Z"/><path class="cls-5" d="M43.22,46.49l.25,0s-.31-2.74-2.83-2.81v.26C42.93,44,43.21,46.46,43.22,46.49Z"/><path class="cls-5" d="M40.73,46.1a1.74,1.74,0,0,1,1.3-.63,1.79,1.79,0,0,1,1.12.62l.2-.15a1.9,1.9,0,0,0-1.3-.72,2,2,0,0,0-1.51.7Z"/><path class="cls-3" d="M68.79,61.06c-2.7,3.1-6.1,5.09-10.19,5s-7.49-1.92-10.18-5L48.37,61c-4.82-6.1-5.8-15-4.5-25.54C44.81,27.87,52,24.93,56,23.87a10.27,10.27,0,0,1,5.28,0c4,1.06,11.15,4,12.09,11.6C74.64,46.07,73.65,55,68.79,61.06Z"/><circle class="cls-2" cx="64.1" cy="44.52" r="1.02"/><circle class="cls-2" cx="52.55" cy="44.52" r="1.02"/><path class="cls-2" d="M68.77,38s-2.1.08-4.85.09-3.47,0-3.22-.95,3-.92,4.73-.6A10.14,10.14,0,0,1,68.77,38Z"/><path class="cls-2" d="M47.68,38s2.09.08,4.85.09,3.46,0,3.22-.95-3-.92-4.74-.6A10,10,0,0,0,47.68,38Z"/><path class="cls-5" d="M58.11,51.65a1.52,1.52,0,0,1-1-.26.6.6,0,0,1-.17-.54c.16-1,.73-4.91.74-5L58,46s-.58,4-.74,4.95a.26.26,0,0,0,.08.26c.29.27,1.31.17,1.89,0l.07.31A6,6,0,0,1,58.11,51.65Z"/><path class="cls-2" d="M72.38,30.88l1,14.33,1-4.83S77.45,34,72.38,30.88Z"/><path class="cls-2" d="M44.83,29.2l-1.36,16-.64-4.83S39.75,34,44.83,29.2Z"/><path class="cls-6" d="M104.35,94.83A58.5,58.5,0,0,1,13,95.28c5.27-9.45,13.52-16.93,26.87-18.64.62-.08,1.25-.15,1.89-.2h0l.7-.28a11.83,11.83,0,0,0,1.78-.89A14.3,14.3,0,0,0,47,73.13c3,1.58,10.75,4.54,22-.28a17.8,17.8,0,0,0,4.88,3l.43.19h0s.93.1,2.5.44C82.28,77.64,95.65,81.77,104.35,94.83Z"/><circle class="cls-6" cx="59.46" cy="86.85" r="0.83"/><circle class="cls-6" cx="59.46" cy="91.58" r="0.83"/><path class="cls-2" d="M74.82,35.16a88.64,88.64,0,0,0-4.47-8.11S55.93,36.7,44.51,32.93c0,0-1.68-4.48,2.93-8.39s9.36-6.64,16.2-4.4S76.71,28.66,74.82,35.16Z"/><path class="cls-2" d="M70.14,28.2s-.28,3.12,2.61,8.1a16.53,16.53,0,0,1-3.31-7.45S64,34.48,58,35.51c0,0,5.87-.84,11.27-7.92Z"/><path class="cls-7" d="M105.58,93.23a58.51,58.51,0,0,1-94.43-.37,41.29,41.29,0,0,1,25-15.5c.7-.14,1.42-.26,2.14-.37L39,76.9c.67-.09,1.34-.16,2-.22h0l.29-.11.46-.18a14.26,14.26,0,0,0,2-.81,17.15,17.15,0,0,0,3.1-2.28,22,22,0,0,0,5,1.77c4.28,1,9.77,1.4,17.5-1.91,1.31,1.22,3.87,2,6.4,3.08h0s1,.11,2.67.47l.13,0q1,.21,2.19.54h0A48.12,48.12,0,0,1,105.58,93.23Z"/><path class="cls-6" d="M84.57,110.88a54.67,54.67,0,0,1-6.49,2.75c-1.62.58-3.26,1.09-4.94,1.52l-.17,0-.73.18c-.86.21-1.73.4-2.6.56a58.61,58.61,0,0,1-24.28-.42l-.42-.1c-.5-.11-1-.24-1.5-.37l-.18-.05c-1.62-.44-3.2-.93-4.76-1.5h0a56.74,56.74,0,0,1-6.44-2.81c.49-4.09,1-8.09,1.59-11.89v0C35,90,36.51,82.25,38.25,77L39,76.9c.67-.09,1.34-.16,2-.22h0l.29-.11.46-.18a14.26,14.26,0,0,0,2-.81,17.15,17.15,0,0,0,3.1-2.28,16.73,16.73,0,0,0,2,.91,22.66,22.66,0,0,0,3,.86c4.28,1,9.77,1.4,17.5-1.91,1.31,1.22,3.87,2,6.4,3.08h0s1,.11,2.67.47l.13,0h0C80.77,83.26,82.82,95.1,84.57,110.88Z"/><path class="cls-8" d="M45.36,115.51c-.64-.14-1.28-.3-1.92-.47-1.68-.45-3.32-1-4.94-1.55h0L36,99.81l5-23.13,2.3,19Z"/><path class="cls-8" d="M80.72,99.36l-2.64,14.27q-2.51.9-5.11,1.56c-1.09.28-2.21.53-3.33.74l1.78-7.78L75.7,76.24l1.79,8.25Z"/><path class="cls-7" d="M44.94,115.41c-.5-.11-1-.24-1.5-.37l-.18-.05c-1.59-10-3.68-23.11-4.08-26.1S38.25,77,38.25,77s1.89-.26,2.73-.31c0,0,1.66,12.35,2.38,15.95s1.39,12.54,1.39,12.54Z"/><path class="cls-7" d="M43.44,115A57.31,57.31,0,0,1,30.71,110C33.18,94.76,36,83.45,38.25,77,38.19,77.34,40.36,93.85,43.44,115Z"/><path class="cls-7" d="M86.06,110.11a56.34,56.34,0,0,1-8,3.52q-2.51.9-5.11,1.56c1.92-12.69,3.54-23.75,4.52-30.7.68-4.77,1.05-7.61,1-7.75C80.76,83.24,83.59,94.7,86.06,110.11Z"/><path class="cls-7" d="M73.14,115.15c1.57-9,4-23.19,4.45-26.51.39-2.94.93-11.9.93-11.9a23.6,23.6,0,0,0-2.81-.5S73.18,97.53,73,101.75c-.11,2.37-.46,8.56-.74,13.62Z"/><circle class="cls-8" cx="40.93" cy="104.78" r="1.52"/><circle class="cls-7" cx="40.42" cy="104.78" r="0.19"/><circle class="cls-7" cx="41.51" cy="104.78" r="0.19"/><circle class="cls-8" cx="77.24" cy="106.12" r="1.52"/><circle class="cls-7" cx="76.74" cy="106.12" r="0.19"/><circle class="cls-7" cx="77.82" cy="106.12" r="0.19"/><path class="cls-8" d="M31.69,89.09l-4,19.13-.83-.52Z"/><path class="cls-8" d="M89.07,108.39c-.67.41-1.34.8-2,1.18A173.56,173.56,0,0,0,84.21,88Z"/><path class="cls-9" d="M64.09,116.74c-1.84.17-3.71.26-5.59.26a56.82,56.82,0,0,1-7.76-.52c.67-3.88,1.31-7.77,1.89-11.48.43-2.74.82-5.37,1.18-7.82s.72-4.9,1-6.94c.68-4.85,1.08-7.94,1.08-7.94h4.47l.36,3.27.61,5.63L62,97.5l1.17,10.75.68,6.3Z"/><path class="cls-10" d="M60.72,85.57c-1.62,1.33-3.78,3.07-5.91,4.67.68-4.85,1.08-7.94,1.08-7.94h4.48Z"/><path class="cls-9" d="M53.64,81.77s3.61,3,4.42,3.12,5.37-4.34,5.37-4.34l-2.74-4.88H54.81Z"/><path class="cls-11" d="M62,97.5,52.63,105c.43-2.74.83-5.37,1.19-7.81l7.51-6Z"/><path class="cls-11" d="M63.85,114.55l-3,2.4c-.78,0-1.56,0-2.35,0a57.94,57.94,0,0,1-5.92-.3l10.59-8.45Z"/><path class="cls-12" d="M74.28,76a30.12,30.12,0,0,1-9.23,8.64l-7.2-8.23-6.72,8.15a48.6,48.6,0,0,1-9.35-8.14h0l.71-.28a11.37,11.37,0,0,0,1.78-.89A14.55,14.55,0,0,0,47,73.13c3,1.58,10.76,4.54,22-.27,1.24,1.14,3.22,1.86,5.59,2.9Z"/><path class="cls-6" d="M56,55.07s3.21.77,4.65-.78C60.65,54.29,60,57.67,56,55.07Z"/><path class="cls-13" d="M117,58.5a58.22,58.22,0,0,1-11.42,34.73c-.4.54-.81,1.07-1.23,1.6a58.76,58.76,0,0,1-15.28,13.56c-.67.41-1.34.8-2,1.18-.32.19-.64.37-1,.54h0l-1.49.77a54.67,54.67,0,0,1-6.49,2.75c-1.62.58-3.26,1.09-4.94,1.52l-.17,0-.73.18c-.86.21-1.73.4-2.6.56q-2.73.52-5.55.81-1.61.15-3.24.21c-.78,0-1.56,0-2.35,0a57.94,57.94,0,0,1-5.92-.3c-.61-.06-1.23-.14-1.84-.22a53.08,53.08,0,0,1-5.38-1l-.42-.1c-.5-.11-1-.24-1.5-.37l-.18-.05c-1.62-.44-3.2-.93-4.76-1.5h0a56.74,56.74,0,0,1-6.44-2.81c-.45-.22-.9-.46-1.34-.7-1-.56-2-1.14-3-1.76l-.83-.52A58.74,58.74,0,0,1,13,95.28c-.64-.79-1.26-1.6-1.86-2.42A58.5,58.5,0,1,1,117,58.5Z"/><path class="cls-2" d="M60.18,43.73a3.73,3.73,0,0,0-3.44,0l-.14-.22a3.94,3.94,0,0,1,3.7,0Z"/><rect class="cls-14" x="46.99" y="40.67" width="9.74" height="6.78" rx="0.63"/><rect class="cls-14" x="60.19" y="40.68" width="9.74" height="6.78" rx="0.63"/><line class="cls-14" x1="43.41" y1="40.67" x2="46.99" y2="43.58"/><line class="cls-14" x1="73.59" y1="40.48" x2="70.01" y2="43.39"/></g></g></svg>