<svg xmlns="http://www.w3.org/2000/svg" xmlns:xlink="http://www.w3.org/1999/xlink" viewBox="0 0 117 117"><defs><style>.cls-1{fill:#edf4fe;}.cls-2{fill:#dfdff4;}.cls-3{fill:#1a1d1f;}.cls-4{fill:#ffa757;}.cls-5{fill:#bc8253;}.cls-6{fill:#fdb9a3;}.cls-7{fill:#f08e73;}.cls-8{fill:#e56757;}.cls-9{fill:#fff;}.cls-10{fill:#ededed;}.cls-11{fill:#ef9143;}.cls-12{fill:#e36556;}.cls-13,.cls-17{fill:none;}.cls-13{stroke:#e56757;stroke-linecap:round;stroke-miterlimit:10;stroke-width:0.39px;}.cls-14{fill:url(#未命名的渐变_9);}.cls-15{fill:url(#未命名的渐变_9-2);}.cls-16{fill:#066fc4;}</style><linearGradient id="未命名的渐变_9" x1="28.78" y1="108.98" x2="22.56" y2="84.71" gradientUnits="userSpaceOnUse"><stop offset="0" stop-color="#fff" stop-opacity="0"/><stop offset="0.22" stop-color="#fefefe" stop-opacity="0.01"/><stop offset="0.37" stop-color="#fcfcfc" stop-opacity="0.06"/><stop offset="0.5" stop-color="#f7f7f7" stop-opacity="0.13"/><stop offset="0.61" stop-color="#f1f1f1" stop-opacity="0.24"/><stop offset="0.71" stop-color="#e9e9e9" stop-opacity="0.38"/><stop offset="0.81" stop-color="#e0e0e0" stop-opacity="0.55"/><stop offset="0.91" stop-color="#d4d4d4" stop-opacity="0.75"/><stop offset="0.99" stop-color="#c7c7c7" stop-opacity="0.98"/><stop offset="1" stop-color="#c6c6c6"/></linearGradient><linearGradient id="未命名的渐变_9-2" x1="95.76" y1="110.55" x2="87.76" y2="79.34" xlink:href="#未命名的渐变_9"/></defs><g id="图层_2" data-name="图层 2"><g id="Design"><circle class="cls-1" cx="58.5" cy="58.5" r="58.5"/><path class="cls-2" d="M81.6,86.77s14.16,2.4,21.47,9.93l-1,1.25-18.53-4Z"/><path class="cls-3" d="M44.71,23.06a7.39,7.39,0,0,1,5.9-5.45c5-.92,8.49,3,14.55,1.59s12.5,1.42,12.37,8.51S81,37.77,85.66,41.25s-.13,7.65-1.16,12.31,7.57,2.93,6.57,9.09C88.24,80.2,40.24,75.3,32.66,70.24c-4.3-2.88-7.13-7.2-4.11-11.85s4.2,2,2.44-10.63c-.69-5,5.32-8.67,6.38-12.15S36.89,23.81,44.71,23.06Z"/><path class="cls-4" d="M103.35,96.05a58.48,58.48,0,0,1-89.9-.23h0c.35-.39.71-.77,1.09-1.15s.47-.48.72-.71c.51-.49,1-1,1.58-1.44l.77-.63.85-.67c.58-.44,1.18-.87,1.81-1.29l.05,0c.31-.21.63-.41.95-.61l1-.59c.66-.39,1.36-.77,2.07-1.13l1.1-.54c.56-.27,1.12-.52,1.7-.76l.12,0,1-.4.14-.06.63-.23,1.27-.45c.42-.15.86-.29,1.3-.42.89-.28,1.81-.53,2.75-.77a60.44,60.44,0,0,1,6.92-1.3L76,82.42a41,41,0,0,1,5.57,1.22h0l1,.3,1.09.34.18.06c.69.22,1.41.47,2.15.76s1.8.69,2.74,1.11c.27.11.54.24.81.36l1.06.5.71.36c.24.11.48.24.72.37l.91.49.14.07.66.37c.75.44,1.51.9,2.27,1.4l.86.58c.4.26.79.54,1.19.83s.58.43.87.66l.65.51c.25.19.5.4.75.61a.17.17,0,0,1,.06.06c.19.16.39.32.58.5q.82.7,1.65,1.5C102.9,95.6,103.13,95.82,103.35,96.05Z"/><path class="cls-5" d="M35,112.06c-.71-.3-1.41-.63-2.1-1A58.7,58.7,0,0,1,13.45,95.82h0a38.21,38.21,0,0,1,14.9-10.07,50.56,50.56,0,0,1,5.94-1.87S34.57,96.34,35,112.06Z"/><path class="cls-5" d="M103.35,96.05a58.37,58.37,0,0,1-20.81,15.79l-1.53.67.59-28.87C87.23,85.22,96.12,88.71,103.35,96.05Z"/><path class="cls-6" d="M76,82.42a31.64,31.64,0,0,1-11.11,6.22h0C53.29,92.13,44,85.89,40.44,82.88l.78-.31a13.63,13.63,0,0,0,2-1c9.17-5.63,7.5-21.08,7.5-21.08H67A35.49,35.49,0,0,0,67,67.06C67.57,72.44,69.55,79.61,76,82.42Z"/><path class="cls-6" d="M92.09,87.8a77.64,77.64,0,0,1-10.44,7.07c-22.61,12.61-39,4-47.27-2.92a37.81,37.81,0,0,1-6-6.21,50,50,0,0,1,5.94-1.87c1.07-.27,2.18-.52,3.32-.73q1.25-.24,2.55-.42l1-.15L76,82.42s.54.07,1.49.25c.6.11,1.36.27,2.26.49.56.13,1.17.29,1.82.48A53.54,53.54,0,0,1,92.09,87.8Z"/><path class="cls-7" d="M67,67.06A5.37,5.37,0,0,1,62.77,70c-7.59.64-11.86-6.82-11.77-7.51l.39-2H67A34.46,34.46,0,0,0,67,67.06Z"/><path class="cls-6" d="M77.24,46.27a3.39,3.39,0,1,0-6.71,0c0,2.12,1.5,4.8,3.35,4.8S77.24,48.39,77.24,46.27Z"/><path class="cls-8" d="M73,47.59l-.23,0S73.05,45,75.38,45v.23C73.27,45.26,73,47.56,73,47.59Z"/><path class="cls-8" d="M75.3,47.23a1.59,1.59,0,0,0-1.2-.58,1.5,1.5,0,0,0-1,.57l-.19-.14a1.59,1.59,0,0,1,2.59,0Z"/><path class="cls-6" d="M40,46.27a3.63,3.63,0,0,1,3.36-3.85,3.62,3.62,0,0,1,3.35,3.85c0,2.12-1.5,4.8-3.35,4.8S40,48.39,40,46.27Z"/><path class="cls-8" d="M44.59,47.59l.23,0S44.54,45,42.21,45v.23C44.33,45.26,44.59,47.56,44.59,47.59Z"/><path class="cls-8" d="M42.29,47.23a1.59,1.59,0,0,1,1.21-.58,1.56,1.56,0,0,1,1,.57l.18-.14a1.59,1.59,0,0,0-2.59,0Z"/><path class="cls-6" d="M68.2,61.05c-2.48,2.85-5.63,4.69-9.4,4.63s-6.92-1.78-9.41-4.63l0-.06C44.89,55.37,44,47.17,45.19,37.42c.87-7,7.49-9.74,11.16-10.72a9.43,9.43,0,0,1,4.89,0c3.67,1,10.29,3.7,11.16,10.72C73.61,47.2,72.69,55.42,68.2,61.05Z"/><circle class="cls-3" cx="63.87" cy="45.48" r="1.02"/><circle class="cls-3" cx="53.21" cy="45.48" r="1.02"/><path class="cls-3" d="M69,39.43s-2.1,0-4.87.07-3.48,0-3.24-.73,3-.69,4.76-.45A11.8,11.8,0,0,1,69,39.43Z"/><path class="cls-3" d="M47.85,39.43s2.1,0,4.87.07,3.49,0,3.24-.73-3-.69-4.76-.45A11.8,11.8,0,0,0,47.85,39.43Z"/><path class="cls-8" d="M58.78,51.9a1.45,1.45,0,0,1-.93-.24.54.54,0,0,1-.15-.51c.14-.93.68-4.62.69-4.65l.29,0s-.54,3.73-.69,4.66a.25.25,0,0,0,.07.24c.27.26,1.24.16,1.78,0l.07.29A5.73,5.73,0,0,1,58.78,51.9Z"/><path class="cls-3" d="M72.54,34l-.43,21.67,1.25-13.68S77.22,36.79,72.54,34Z"/><path class="cls-3" d="M45.27,34.91l.21,20.71L44.23,41.94S40.59,37.75,45.27,34.91Z"/><path class="cls-9" d="M102.68,95.38c.22.22.45.44.67.67a58.37,58.37,0,0,1-20.81,15.79c-.43-12.15-.77-22.85-.94-28.2h0l1,.3,1.09.34.18.06c.69.22,1.41.48,2.15.76s1.8.69,2.74,1.11c.27.11.54.24.81.36l1.06.5.71.36c.24.11.48.24.72.37l.91.49.14.07.66.37c.75.44,1.51.9,2.27,1.4l.86.58c.4.26.79.54,1.19.83s.58.43.87.66l.65.51c.25.19.5.4.75.61a.17.17,0,0,1,.06.06c.19.16.39.32.58.5Q101.85,94.59,102.68,95.38Z"/><path class="cls-9" d="M34.3,83.87l-1.44,27.22A58.7,58.7,0,0,1,13.45,95.82h0c.35-.39.71-.77,1.09-1.15s.47-.48.72-.71c.51-.49,1-1,1.58-1.44l.77-.63.85-.67c.58-.44,1.18-.87,1.81-1.29l.05,0a41.21,41.21,0,0,1,4-2.33l1.1-.54c1.13-.54,2.31-1,3.56-1.5l1.27-.45c.42-.15.86-.29,1.3-.42C32.44,84.36,33.36,84.11,34.3,83.87Z"/><path class="cls-3" d="M45.33,38.84s.49-4.39,2.52-6.78c0,0,6-3.68,21.19,0,0,0,2.93,1.75,3.37,6.78A16.47,16.47,0,0,0,71.48,27c-3-6.54-19.4-6.35-22.86-3S40.35,34.65,45.33,38.84Z"/><path class="cls-10" d="M89.88,107.88l-.53.33-1.1-14.55C88.35,94.59,89,100.17,89.88,107.88Z"/><path class="cls-10" d="M28.64,93.67l-1.09,14.47-.53-.33C27.93,100.16,28.54,94.63,28.64,93.67Z"/><path class="cls-11" d="M28.65,93.53v0Z"/><path class="cls-3" d="M47.85,32.06s7.22-3.42,7.6,1.23,3.63,7,7.62,4.89,5.73-1,4.86,2.55,3,3.61,7.54,0S71.29,29.9,70.53,29.51s-2.88-5-8.83-4.15S47.85,32.06,47.85,32.06Z"/><path class="cls-12" d="M58.3,57.78a.18.18,0,0,1-.11-.19.19.19,0,0,1,.2-.14,2.28,2.28,0,0,0,.78,0,.17.17,0,1,1,0,.33,2.42,2.42,0,0,1-.89,0Z"/><path class="cls-13" d="M54.73,55a8.8,8.8,0,0,0,8.14,0"/><path class="cls-14" d="M34.3,83.87l-1,18.09-15.72-1.62a57.52,57.52,0,0,1-4.17-4.52h0c.65-.72,1.41-1.48,1.41-1.48S23.09,86.06,34.3,83.87Z"/><path class="cls-15" d="M103.35,96.05a58.45,58.45,0,0,1-6.62,6.73L82.19,101.7,81.6,83.64A48.94,48.94,0,0,1,103.35,96.05Z"/><path class="cls-16" d="M45,80.26C45.83,98,48.09,110,49.63,116.32c-.88-.12-1.75-.28-2.61-.45-3.36-12.25-4.18-34.06-4.18-34.06Z"/><path class="cls-16" d="M69.2,116c-.88.17-1.77.31-2.66.43,7.24-14.16,6.19-36.12,6.19-36.12l1.55,1.12C74.75,98.93,72.09,109.62,69.2,116Z"/><path class="cls-17" d="M117,58.5a58.29,58.29,0,0,1-13.64,37.55h0a58.57,58.57,0,0,1-13.47,11.83l-.53.33a56.88,56.88,0,0,1-6.81,3.63l-1.53.67A57.29,57.29,0,0,1,69.2,116c-.88.17-1.77.31-2.66.43a59.22,59.22,0,0,1-8,.55,57.6,57.6,0,0,1-8.87-.68c-.88-.12-1.75-.28-2.61-.45A57.23,57.23,0,0,1,35,112.06c-.71-.3-1.41-.63-2.1-1a57.08,57.08,0,0,1-5.31-3l-.53-.33a59,59,0,0,1-13.57-12h0A58.5,58.5,0,1,1,117,58.5Z"/></g></g></svg>