<?xml version="1.0" encoding="UTF-8"?>
<svg width="14px" height="14px" viewBox="0 0 14 14" version="1.1" xmlns="http://www.w3.org/2000/svg" xmlns:xlink="http://www.w3.org/1999/xlink">
    <title>编组 6备份</title>
    <g id="页面-1" stroke="none" stroke-width="1" fill="none" fill-rule="evenodd">
        <g id="编组-6备份">
            <circle id="椭圆形" fill="#FF2121" cx="7" cy="7" r="7"></circle>
            <path d="M5.79104199,6.56865519 L7.30085578,8.07846898 C7.57880483,8.35641803 7.57880483,8.80706247 7.30085578,9.08501151 C7.02290674,9.36296056 6.5722623,9.36296056 6.29431326,9.08501151 L4.78449946,7.57519772 C4.50655042,7.29724867 4.50655042,6.84660423 4.78449946,6.56865519 C5.06244851,6.29070615 5.51309295,6.29070615 5.79104199,6.56865519 Z" id="矩形备份-55" fill="#FFFFFF"></path>
            <path d="M10.3204834,6.06538393 L7.30085578,9.08501151 C7.02290674,9.36296056 6.5722623,9.36296056 6.29431326,9.08501151 C6.01636421,8.80706247 6.01636421,8.35641803 6.29431326,8.07846898 L9.31394084,5.0588414 C9.59188989,4.78089235 10.0425343,4.78089235 10.3204834,5.0588414 C10.5984324,5.33679044 10.5984324,5.78743488 10.3204834,6.06538393 Z" id="矩形备份-56" fill="#FFFFFF"></path>
        </g>
    </g>
</svg>