<svg xmlns="http://www.w3.org/2000/svg" xmlns:xlink="http://www.w3.org/1999/xlink" viewBox="0 0 117 117"><defs><style>.cls-1{fill:#edf4fe;}.cls-2{fill:url(#未命名的渐变_6);}.cls-3{fill:#1a1d1f;}.cls-4{fill:#fff;}.cls-5{fill:#fdb9a3;}.cls-6{fill:#f08e73;}.cls-7{fill:#ed8c6e;}.cls-8{fill:#e36556;}.cls-9{fill:#120283;}.cls-10{fill:#343493;}.cls-11{fill:#e5e5e5;}.cls-12{fill:#e9e9e9;}.cls-13{fill:#dfdff4;}.cls-14,.cls-15{opacity:0;}.cls-15{fill:none;stroke:#e56757;stroke-linecap:round;stroke-miterlimit:10;stroke-width:0.41px;}</style><linearGradient id="未命名的渐变_6" x1="58.5" y1="21.72" x2="58.5" y2="100.69" gradientUnits="userSpaceOnUse"><stop offset="0" stop-color="#edf4fe" stop-opacity="0"/><stop offset="1" stop-color="#e4ebf4"/></linearGradient></defs><g id="图层_2" data-name="图层 2"><g id="Design"><circle class="cls-1" cx="58.5" cy="58.5" r="58.5"/><path class="cls-2" d="M104.89,94.37c-.33.43-.67.86-1,1.28a58.49,58.49,0,0,1-90.76-.48c-.34-.42-.67-.85-1-1.28C18,87.68,26.68,82.39,39.64,80.43c0,0,.47-.34,1.13-.85s1.64-1.34,2.67-2.32l.13-.16a0,0,0,0,1,0,0c1.7-1.63,3.83-3.18,5.3-5.09l21.83.62c.63,1.06,3.07,2.88,6.06,5.53l.07,0,.09.18a14.62,14.62,0,0,0,2.43,1.73l.14,0c.39.13,1.56.49,3.26,1.13C87.76,83.11,97.33,87.33,104.89,94.37Z"/><path class="cls-3" d="M45.12,22.55A9.93,9.93,0,0,1,51.8,14C64.06,9.94,78,18.84,77.48,23.16c0,0,5.49,0,2.68,14.16-1.38,7-2.11,20.11-9.54,21.38S54.18,53,54.18,53Z"/><path class="cls-3" d="M46,21.56s-9.09-3-4.93,19.64c.74,4,1.09,14.49,8.26,16.81s7.45-12.14,7.45-12.14Z"/><path class="cls-4" d="M103.69,95.65a58.49,58.49,0,0,1-90.76-.48c6-6.23,14.93-11.48,28.29-13.19l37.63-.17.14,0c.39.13,1.54.48,3.2,1.11C87.05,84.79,96.3,88.86,103.69,95.65Z"/><path class="cls-5" d="M78.86,81.81a34.41,34.41,0,0,1-12,6.73h0c-12.55,3.77-22.55-3-26.44-6.23l.84-.33a14.34,14.34,0,0,0,2.11-1.06c9.91-6.08,8.11-20.15,8.11-20.15H69.05a37,37,0,0,0,.07,7.07C69.71,73.65,71.85,78.77,78.86,81.81Z"/><path class="cls-6" d="M69.11,67.84A5.8,5.8,0,0,1,64.52,71c-8.21.68-12.82-7.38-12.72-8.12l.42-2.13H69A38,38,0,0,0,69.11,67.84Z"/><path class="cls-5" d="M80.16,45.36a3.66,3.66,0,1,0-7.25,0c0,2.3,1.62,5.19,3.62,5.19S80.16,47.66,80.16,45.36Z"/><path class="cls-7" d="M75.58,46.79l-.25,0S75.64,44,78.16,44v.26C75.87,44.27,75.59,46.76,75.58,46.79Z"/><path class="cls-7" d="M78.07,46.4a1.74,1.74,0,0,0-1.3-.63,1.71,1.71,0,0,0-1.12.62l-.2-.16a1.72,1.72,0,0,1,2.8,0Z"/><path class="cls-5" d="M39.89,45.36a3.92,3.92,0,0,1,3.62-4.16,3.92,3.92,0,0,1,3.63,4.16c0,2.3-1.62,5.19-3.63,5.19S39.89,47.66,39.89,45.36Z"/><path class="cls-7" d="M44.87,46.79l.25,0S44.81,44,42.29,44v.26C44.58,44.27,44.86,46.76,44.87,46.79Z"/><path class="cls-7" d="M42.38,46.4a1.74,1.74,0,0,1,1.3-.63,1.71,1.71,0,0,1,1.12.62l.2-.16a1.72,1.72,0,0,0-2.8,0Z"/><path class="cls-5" d="M70.39,61.34c-2.68,3.08-6.08,5.07-10.17,5s-7.48-1.92-10.16-5L50,61.28c-4.81-6.08-5.79-14.94-4.49-25.49.94-7.59,8.09-10.53,12.07-11.59a10.24,10.24,0,0,1,5.27,0c4,1.06,11.13,4,12.07,11.59C76.24,46.37,75.25,55.25,70.39,61.34Z"/><circle class="cls-3" cx="65.71" cy="43.89" r="1.07"/><circle class="cls-3" cx="54.18" cy="43.89" r="1.07"/><path class="cls-3" d="M70.37,38.26s-2.09.08-4.84.1-3.46,0-3.21-1.13,3-1.1,4.72-.71A9.33,9.33,0,0,1,70.37,38.26Z"/><path class="cls-3" d="M49.32,38.26s2.09.08,4.84.1,3.46,0,3.22-1.13-3-1.1-4.73-.71A9.33,9.33,0,0,0,49.32,38.26Z"/><path class="cls-8" d="M59.81,50.69a1.42,1.42,0,0,1-.94-.25.54.54,0,0,1-.16-.51c.15-1,.7-4.69.7-4.73l.3,0S59.16,49,59,50a.27.27,0,0,0,.07.25c.28.26,1.25.16,1.81,0l.06.29A5.63,5.63,0,0,1,59.81,50.69Z"/><path class="cls-3" d="M74,31.2l1,14.31,1-4.83S79,34.28,74,31.2Z"/><path class="cls-3" d="M46.47,29.53l-1.35,16-.64-4.83S41.41,34.28,46.47,29.53Z"/><path class="cls-4" d="M78.86,81.81s-5.51,9-19.24,8.84-19.84-8.47-19.84-8.47a35.28,35.28,0,0,0,3.75-3.12,24,24,0,0,0,5.36-7s.49-.56,3.84.35,7.08,1.93,12.2,1,5.44-1,5.79-.77,2.23,4.42,5.75,7.47A14.09,14.09,0,0,0,78.86,81.81Z"/><path class="cls-9" d="M65.59,116.57a57.2,57.2,0,0,1-7.09.43,59.09,59.09,0,0,1-6.55-.36c.75-4.27,1.46-8.6,2.1-12.69.42-2.74.82-5.37,1.18-7.81s.71-4.91,1-7c.68-4.85,1.07-7.94,1.07-7.94h4.48l.35,3.27.61,5.63.68,6.3,1.16,10.75.68,6.3Z"/><path d="M62.14,84.53c-1.62,1.32-3.79,3.06-5.91,4.67.68-4.85,1.08-8,1.08-8h4.47Z"/><path class="cls-10" d="M55.06,80.73s3.6,3,4.42,3.12,5.36-4.34,5.36-4.34l-2.73-4.88H56.22Z"/><path class="cls-4" d="M76.47,80.12c-4.58,2.35-10,5-10.76,5-1.35-.12-6.23-9.44-6.23-9.44s-5,9.46-6.78,9.44c-1.93,0-5.72-3.53-9.17-6a24,24,0,0,0,5.36-7s.49-.56,3.84.35,7.08,1.93,12.2,1,5.44-1,5.79-.77S73,77.07,76.47,80.12Z"/><path class="cls-11" d="M25.19,102.61l-.73,3.46a1.1,1.1,0,0,0-.14-.09Z"/><path class="cls-11" d="M91.44,106.84s0,0,0,0c-.12-.62-.21-1-.26-1.3Z"/><path class="cls-10" d="M63.42,96.45,54.05,104c.43-2.74.82-5.37,1.18-7.82l7.51-6Z"/><path class="cls-10" d="M65.26,113.5,61,116.94c-.82,0-1.64.06-2.47.06q-3,0-5.84-.29l11.92-9.51Z"/><path class="cls-12" d="M52.6,85.31c-.36,0-1.36-.38-4.91-2.91-2.17-1.54-4.26-3.16-4.28-3.17l.24-.33c4,3,8.39,6.13,9,6,.56-.28,4.4-5.9,6.7-9.37l.19-.29.16.31s1.25,2.48,2.63,4.86c2.64,4.54,3.3,4.5,3.37,4.48,1.25-.38,10.62-4.91,10.72-5l.18.37c-.39.19-9.5,4.59-10.79,5-.28.08-1,.28-3.83-4.67-1.1-1.89-2.11-3.82-2.49-4.56-1.14,1.72-5.88,8.81-6.66,9.22A.38.38,0,0,1,52.6,85.31Z"/><path class="cls-13" d="M103.69,95.65c-.52.63-1,1.25-1.6,1.86a54.62,54.62,0,0,0-19.53-14.4,75.32,75.32,0,0,1,14.27,7.23A54.41,54.41,0,0,1,103.69,95.65Z"/><path class="cls-3" d="M75.85,37.11c-18.54,2.74-24.51-8-24.51-8-1.42,8.24-6.22,10.38-6.22,10.38a38.85,38.85,0,0,1-1.61-8.24c-.14-3.61,6.82-9.87,15.19-10.78s16,5.49,16,5.49l1,10.1c-8.7,2-17.79-3.08-17.79-3.08,6.36,4.4,15,4.08,17.86,3.83Z"/><g class="cls-14"><path class="cls-8" d="M59.48,57a.2.2,0,0,1-.12-.2.19.19,0,0,1,.21-.15,2.27,2.27,0,0,0,.82,0,.2.2,0,0,1,.21.15.19.19,0,0,1-.15.21,3,3,0,0,1-.94,0Z"/></g><path class="cls-15" d="M55.72,54.1a9.24,9.24,0,0,0,8.56,0"/><path class="cls-4" d="M58,54.09s3.22.78,4.66-.77C62.65,53.32,62,56.69,58,54.09Z"/></g></g></svg>