<svg xmlns="http://www.w3.org/2000/svg" viewBox="0 0 117 117"><defs><style>.cls-1{fill:#edf4fe;}.cls-2{fill:#1a1d1f;}.cls-3{fill:#fdb9a3;}.cls-4{fill:#f08e73;}.cls-5{fill:#383fce;}.cls-6{fill:#fff;}.cls-7{fill:#e56757;}.cls-8{fill:#120284;}.cls-9{fill:#e36556;}.cls-10,.cls-11{fill:none;}.cls-10{stroke:#e56757;stroke-linecap:round;stroke-miterlimit:10;stroke-width:0.38px;}</style></defs><g id="图层_2" data-name="图层 2"><g id="Design"><circle class="cls-1" cx="58.5" cy="58.5" r="58.5"/><path class="cls-2" d="M73.86,75.37l-6.23,32-.29,1.48s-11.45,7-24.46,6h0a58.36,58.36,0,0,1-19.63-9.7,0,0,0,0,0,0,0c-.18-.19-.36-.4-.54-.6,6-1.82,10.54-5.13,5.27-11.11-10.68-12.12,1.94-21.86,8.7-30s2.38-19.93,1-28.76c-1.3-8.43,3.84-11,6.14-11.76.63-.2,1-.27,1.06-.29a3.71,3.71,0,0,0,2-1.48Z"/><path class="cls-2" d="M96.68,92.69a37,37,0,0,0-.91,10.9,58.1,58.1,0,0,1-15,9,36.48,36.48,0,0,1-13.09-5.23,68.59,68.59,0,0,1-14.7-12.52L60.1,48.16,43.8,23.68a7.15,7.15,0,0,1,0-.74,11.14,11.14,0,0,1,.64-3.23c1-1.59,3.17-3.21,7.75-3.94C62.59,14.12,77,19.11,77,34.7c0,12.81,2,21.17,4.68,26.72C87.11,72.47,101.32,71.71,96.68,92.69Z"/><path class="cls-3" d="M75.79,82.25a32.28,32.28,0,0,1-11.22,6.28h0C52.83,92,43.49,85.75,39.86,82.71l.79-.31a12,12,0,0,0,2-1c9.26-5.67,7.58-21.27,7.58-21.27H66.62a35.07,35.07,0,0,0,.07,6.6C67.24,72.17,69.25,79.41,75.79,82.25Z"/><path class="cls-4" d="M66.69,66.74a5.41,5.41,0,0,1-4.3,3c-7.65.64-12-6.88-11.87-7.58l.4-2h15.7A35.07,35.07,0,0,0,66.69,66.74Z"/><path class="cls-5" d="M107,91.27c-.38.56-.77,1.12-1.17,1.66a58.5,58.5,0,0,1-93.08,2l.11-.1.46-.45q.72-.68,1.47-1.26l.17-.14.32-.24.5-.38.51-.37c.14-.09.28-.2.43-.29a36.19,36.19,0,0,1,6.64-3.47L23.9,88c.65-.26,1.32-.51,2-.75l.89-.31.51-.17c1.2-.41,2.4-.79,3.61-1.15l.55-.17.59-.18c1.55-.47,3.1-.94,4.62-1.44l.53-.17.07,0,.42-.15,1.07-.37.53-.19.09,0,.5-.19.18.15.18.15.71.56.12.09.05,0,.18.13.19.14,0,0h0l.88.62,0,0h0l.19.13.22.14.23.15a1.64,1.64,0,0,0,.22.14l.12.08.11.06.23.15.33.2.15.08.06,0c.22.14.46.27.7.4l.42.23h0l.09,0,.14.07.28.14,0,0,.33.16,0,0,.28.13.05,0,.24.11.09,0h0l.08,0,.1,0,.07,0,.72.31.1,0,.22.08.12,0L49,88l1,.34.25.08.1,0,.06,0,.1,0,.42.12.15,0h0l.06,0,.1,0,.26.07.3.08h.09l.19,0h.06l.07,0,.22,0,.12,0h.1l.35.07H53l.13,0,.24,0,.29,0,.13,0,.18,0h.08l.28,0,.35,0h.07l.38,0,.38,0h.1l.23,0,.55,0,.52,0h1.94l.32,0h.32l.21,0h.24l.15,0h.19l.23,0h.09l.4-.05h.12l.21,0,.08,0h.12l.24,0,.14,0,.23,0,.4-.08.16,0h0l.35-.08.1,0,.25-.06.2-.06h.08l.12,0h0l.08,0,.09,0h0l.1,0,.39-.11.18,0,.11,0,.1,0,.24-.08.66-.22.12,0,.3-.1.11,0,.18-.07h0l0,0h0l.13,0h0l.11,0,.09,0,.09,0,.12,0,0,0h0l0,0,0,0,.1,0,.12,0,0,0,.19-.09h.05l.19-.09,0,0,.17-.08.14-.07c.32-.15.63-.3,1-.47s.79-.42,1.18-.64l.35-.21.07,0,.11-.07.12-.07.21-.12.1-.07.29-.18.15-.09h0l.45-.29.3-.2.08-.06.08,0,.07,0L73.5,84l.25-.18.19-.14,0,0,.14-.1.11-.09.11-.08.68-.53.09-.07.68-.56.38.16.46.17.41.15.34.12.38.13.38.12.16,0,.32.1h0l.3.09h0l0,0h.06c.39.11.77.22,1.16.31l.62.16.63.14c.5.12,1,.22,1.54.33l.55.11,1.1.2h.07l1.24.22,2.35.39.3,0,1.08.18.92.15,1.33.23,1.32.25.92.18.9.19.89.19.6.15.61.15q.75.19,1.5.42a4.26,4.26,0,0,1,.47.15l1.26.41c.4.14.81.29,1.2.45.66.27,1.31.55,2,.87l.63.32.63.34c.41.23.81.48,1.21.74h0c.2.12.39.26.58.39Z"/><path class="cls-6" d="M79,83.36c-4,3.88-12.15,10.13-23.25,9.25-10.36-.82-16.37-5.77-19.12-8.78,1.09-.36,2.16-.73,3.21-1.12,4.74,4,19.17,13.47,35.93-.46l.37.15C77.08,82.76,78,83.08,79,83.36Z"/><path class="cls-3" d="M77,45.76a3.42,3.42,0,1,0-6.77,0c0,2.14,1.52,4.84,3.39,4.84S77,47.9,77,45.76Z"/><path class="cls-7" d="M72.73,47.09l-.24,0s.29-2.56,2.64-2.62v.24C73,44.74,72.73,47.06,72.73,47.09Z"/><path class="cls-7" d="M75.05,46.73a1.59,1.59,0,0,0-1.22-.59,1.56,1.56,0,0,0-1,.58l-.19-.15a1.84,1.84,0,0,1,1.22-.67,1.79,1.79,0,0,1,1.4.66Z"/><path class="cls-3" d="M39.4,45.76a3.67,3.67,0,0,1,3.39-3.89,3.66,3.66,0,0,1,3.38,3.89c0,2.14-1.51,4.84-3.38,4.84S39.4,47.9,39.4,45.76Z"/><path class="cls-7" d="M44.05,47.09l.24,0S44,44.5,41.65,44.44v.24C43.78,44.74,44.05,47.06,44.05,47.09Z"/><path class="cls-7" d="M41.73,46.73a1.59,1.59,0,0,1,1.21-.59,1.53,1.53,0,0,1,1,.58l.19-.15A1.8,1.8,0,0,0,43,45.9a1.78,1.78,0,0,0-1.4.66Z"/><path class="cls-3" d="M67.88,60.67c-2.51,2.88-5.68,4.74-9.49,4.68s-7-1.8-9.49-4.68l0-.05c-4.49-5.68-5.41-13.95-4.19-23.8S58.39,25.5,58.39,25.5,70.9,26.94,72.12,36.82,72.41,55,67.88,60.67Z"/><circle class="cls-2" cx="62.79" cy="44.76" r="0.99"/><circle class="cls-2" cx="53.2" cy="44.76" r="0.99"/><path class="cls-2" d="M68.73,38.85s-2.12.06-4.92.07-3.51,0-3.26-.73,3.05-.7,4.8-.45A11.56,11.56,0,0,1,68.73,38.85Z"/><path class="cls-2" d="M47.34,38.85s2.12.06,4.92.07,3.51,0,3.26-.73-3.05-.7-4.8-.45A11.56,11.56,0,0,0,47.34,38.85Z"/><path class="cls-7" d="M58.05,51.14a1.38,1.38,0,0,1-.92-.25.53.53,0,0,1-.16-.5c.15-.92.69-4.59.69-4.63l.3,0s-.55,3.71-.69,4.64a.23.23,0,0,0,.06.24c.28.25,1.24.16,1.78,0l.06.29A5.47,5.47,0,0,1,58.05,51.14Z"/><path class="cls-2" d="M71.23,32.53,71.83,45l1.26-3.65S76,35.41,71.23,32.53Z"/><path class="cls-8" d="M107,91.27c-.38.56-.77,1.12-1.17,1.66-.31-.3-.6-.56-.87-.8-2.25-2-8.37-4.08-14.1-5.74-1.27-.37-2.52-.71-3.7-1-1.5-.4-2.9-.76-4.1-1l.55.11,1.1.2h.07l1.24.22,2.35.39.3,0,1.08.18.92.15,1.33.23,1.32.25.92.18.9.19.89.19.6.15.61.15q.75.19,1.5.42a4.26,4.26,0,0,1,.47.15l1.26.41c.4.14.81.29,1.2.45.66.27,1.31.55,2,.87l.63.32.63.34c.41.23.81.48,1.21.74h0c.2.12.39.26.58.39Z"/><path class="cls-2" d="M43,39.82,44.3,45a53.32,53.32,0,0,1,.64-8.55c.65-2.76,4.53-5.67,4.53-5.67s6.67.57,8.43,4.29,9.68,6.07,15.72,1.38c0,0,2.31-12.47-6.67-14.08s-21.56-1-23.16,3.48S43,39.82,43,39.82Z"/><path class="cls-9" d="M57.82,56.86a.17.17,0,0,1-.1-.18.18.18,0,0,1,.19-.14,2.16,2.16,0,0,0,.76,0,.17.17,0,0,1,.19.14.16.16,0,0,1-.13.19,2.54,2.54,0,0,1-.87,0Z"/><path class="cls-10" d="M54.34,54.15a8.55,8.55,0,0,0,7.93,0"/><path class="cls-11" d="M117,58.5a58.26,58.26,0,0,1-10,32.77c-.38.56-.77,1.12-1.17,1.66a58.93,58.93,0,0,1-10,10.66,58.53,58.53,0,0,1-52.89,11.29h0a58.36,58.36,0,0,1-19.63-9.7,0,0,0,0,0,0,0,58.89,58.89,0,0,1-10.5-10.25A58.5,58.5,0,1,1,117,58.5Z"/></g></g></svg>