<svg xmlns="http://www.w3.org/2000/svg" viewBox="0 0 117 117"><defs><style>.cls-1{fill:#edf4fe;}.cls-2{fill:#1a1d1f;}.cls-3{fill:#ea5e42;}.cls-4{fill:#fdb9a3;}.cls-5{fill:#f08e73;}.cls-6{fill:#e56757;}.cls-7{fill:#fff;}.cls-8{fill:#dd4b33;}.cls-9{fill:none;}</style></defs><g id="图层_2" data-name="图层 2"><g id="Design"><circle class="cls-1" cx="58.5" cy="58.5" r="58.5"/><path class="cls-2" d="M57.64,18.66s11.55-5.61,17.72,7.82,4.8,24.48,12.5,30,4.2,14-.18,19.58S71.15,87.65,60.61,82s-17.89,2.32-25.77-5.88-7.78-15.92-3-21.33S38.79,11.07,57.64,18.66Z"/><path class="cls-3" d="M104,95.24a58.5,58.5,0,0,1-91.1-.07A37.68,37.68,0,0,1,18,91.29l.05,0c.9-.58,1.81-1.12,2.72-1.62L22,89a50.5,50.5,0,0,1,5.51-2.39c1.09-.4,2.15-.75,3.17-1.06l.72-.21c1.84-.54,3.51-.92,4.91-1.21a42.37,42.37,0,0,1,4.4-.68l35.22-.15h0a56.59,56.59,0,0,1,5.7,1.23h0c1.25.33,2.65.74,4.16,1.23l.18.06c1,.32,2,.67,3,1.07,1.47.55,3,1.19,4.53,1.91.85.4,1.71.82,2.57,1.28q.63.33,1.26.69A47.87,47.87,0,0,1,104,95.24Z"/><path class="cls-4" d="M75.93,83.29a32.18,32.18,0,0,1-11.24,6.3h0c-11.74,3.53-21.1-2.78-24.74-5.83l.79-.31a14.5,14.5,0,0,0,2-1c9.28-5.69,7.59-21.32,7.59-21.32H66.74a35.19,35.19,0,0,0,.07,6.61C67.36,73.2,69.37,80.45,75.93,83.29Z"/><path class="cls-5" d="M66.81,67.75a5.44,5.44,0,0,1-4.3,3c-7.68.64-12-6.9-11.91-7.6l.4-2H66.74A35.19,35.19,0,0,0,66.81,67.75Z"/><path class="cls-4" d="M77.15,46.72a3.43,3.43,0,1,0-6.79,0c0,2.15,1.52,4.85,3.39,4.85S77.15,48.87,77.15,46.72Z"/><path class="cls-6" d="M72.86,48.05l-.24,0s.29-2.56,2.65-2.63v.24C73.13,45.7,72.87,48,72.86,48.05Z"/><path class="cls-6" d="M75.19,47.69a1.38,1.38,0,0,0-2.26,0l-.19-.14A1.8,1.8,0,0,1,74,46.86a1.84,1.84,0,0,1,1.41.67Z"/><path class="cls-4" d="M39.46,46.72a3.67,3.67,0,0,1,3.39-3.89,3.67,3.67,0,0,1,3.4,3.89c0,2.15-1.52,4.85-3.4,4.85S39.46,48.87,39.46,46.72Z"/><path class="cls-6" d="M44.12,48.05l.24,0s-.29-2.56-2.65-2.63v.24C43.85,45.7,44.11,48,44.12,48.05Z"/><path class="cls-6" d="M41.79,47.69a1.38,1.38,0,0,1,2.26,0l.19-.14A1.8,1.8,0,0,0,43,46.86a1.84,1.84,0,0,0-1.41.67Z"/><path class="cls-4" d="M68,61.67c-2.51,2.89-5.69,4.75-9.51,4.69s-7-1.8-9.51-4.69l0-.05c-4.5-5.69-5.42-14-4.2-23.86S58.49,26.42,58.49,26.42,71,27.86,72.25,37.76,72.55,56,68,61.67Z"/><circle class="cls-2" cx="64.73" cy="46.04" r="1.05"/><circle class="cls-2" cx="51.75" cy="46.04" r="1.05"/><path class="cls-2" d="M68.86,39.8s-2.13.06-4.93.07-3.53,0-3.28-.73,3.06-.71,4.82-.46A11.89,11.89,0,0,1,68.86,39.8Z"/><path class="cls-2" d="M47.41,39.8s2.14.06,4.94.07,3.52,0,3.27-.73-3.06-.71-4.81-.46A11.88,11.88,0,0,0,47.41,39.8Z"/><path class="cls-6" d="M58.19,52.7a1.4,1.4,0,0,1-.95-.26.55.55,0,0,1-.17-.52c.15-1,.71-4.79.72-4.82l.31,0S57.53,51,57.38,52a.25.25,0,0,0,.07.25c.28.27,1.28.16,1.85,0l.06.3A5.94,5.94,0,0,1,58.19,52.7Z"/><path class="cls-7" d="M56.58,55.28s3.14.75,4.55-.76C61.13,54.52,60.52,57.82,56.58,55.28Z"/><path class="cls-2" d="M71.36,33.47l1.26,17.77.6-8.89S76.1,36.35,71.36,33.47Z"/><path class="cls-2" d="M45.62,33.47l-1,17.28-.85-8.4S40.88,36.35,45.62,33.47Z"/><path class="cls-2" d="M44.36,42.36a23.86,23.86,0,0,0,9.5-8.89c3.5-6.09,3.61-6.79,6.75.47s8.17,15.41,15.32,8.89c0,0-1.51-10.54-3.7-14.13s-11.56-7.27-13.52-7.27S43.92,24.76,43,28.26,44.36,42.36,44.36,42.36Z"/><path class="cls-4" d="M80.66,84.28c-5,4.28-12.89,9.75-21.38,11.12C49.74,96.94,41.45,89.34,36.93,84c2.33-.44,3.78-.56,3.78-.56l35.22-.15h0C76.2,83.34,78,83.61,80.66,84.28Z"/><path class="cls-8" d="M104,95.24c-.73.9-1.48,1.78-2.26,2.63a61.49,61.49,0,0,0-20.1-13.34c1.25.33,2.65.74,4.16,1.23l.18.06c1,.32,2,.67,3,1.07,1.47.55,3,1.19,4.53,1.91.85.4,1.71.82,2.57,1.28q.63.33,1.26.69A47.87,47.87,0,0,1,104,95.24Z"/><path class="cls-2" d="M65.65,41a5.15,5.15,0,0,0-1.43.2,5.31,5.31,0,0,0-3.63,3.5,2.76,2.76,0,0,0-.08.27,5,5,0,0,0-.18,1.35A5.33,5.33,0,0,0,63.18,51c.09,0,.17.09.26.12a4.76,4.76,0,0,0,1.39.42,4.47,4.47,0,0,0,.82.07,5.32,5.32,0,0,0,0-10.63Zm0,10.34a4.68,4.68,0,0,1-.84-.07,5.13,5.13,0,0,1-1.21-.37l-.26-.12a5,5,0,1,1,2.31.56Z"/><path class="cls-2" d="M56.89,44.94c0-.1,0-.19-.08-.29a5.31,5.31,0,1,0-5.06,7,4.93,4.93,0,0,0,.78-.06,5.33,5.33,0,0,0,1.87-.65l.09-.06h0a5.31,5.31,0,0,0,2.57-4.54A5.43,5.43,0,0,0,56.89,44.94ZM54.2,50.67a5,5,0,0,1-2.45.64A5,5,0,0,1,49.12,42a5,5,0,0,1,2.63-.75,5,5,0,0,1,2.45,9.41Z"/><path class="cls-2" d="M60.61,45a4.14,4.14,0,0,0-3.81,0l-.15-.25a4.37,4.37,0,0,1,4.09,0Z"/><path class="cls-7" d="M87.55,106.41v2.87a56.77,56.77,0,0,1-7.45,3.59H71.8a.45.45,0,0,1-.44-.45v-6a.44.44,0,0,1,.44-.44H87.1A.45.45,0,0,1,87.55,106.41Z"/><circle class="cls-3" cx="74.16" cy="108.69" r="0.67"/><path class="cls-3" d="M75.64,110.85a1.48,1.48,0,0,0-3,0Z"/><rect class="cls-3" x="77.94" y="108.02" width="8.18" height="0.26"/><rect class="cls-3" x="77.94" y="109.42" width="8.18" height="0.26"/><path class="cls-3" d="M85.13,110.59l-.52.26H77.93v-.26Z"/><path class="cls-9" d="M117,58.5a58.24,58.24,0,0,1-13,36.74c-.73.9-1.48,1.78-2.26,2.63a58.55,58.55,0,0,1-14.21,11.41c-.79.46-1.6.9-2.42,1.31l-.52.26q-2.2,1.11-4.51,2A58.5,58.5,0,1,1,117,58.5Z"/></g></g></svg>