<svg xmlns="http://www.w3.org/2000/svg" viewBox="0 0 117 117"><defs><style>.cls-1{fill:#edf4fe;}.cls-2,.cls-4{fill:#dfdff4;}.cls-3,.cls-4{opacity:0;}</style></defs><g id="图层_2" data-name="图层 2"><g id="Design"><circle class="cls-1" cx="58.5" cy="58.5" r="58.5"/><path class="cls-2" d="M44.69,24.35a9.82,9.82,0,0,1,6.61-8.46c12.14-4,26,4.79,25.43,9.07,0,0,5.44,0,2.66,14C78,45.86,77.3,58.89,69.94,60.14s-16.28-5.65-16.28-5.65Z"/><path class="cls-2" d="M45.54,23.37s-9-2.94-4.88,19.45c.74,4,1.08,14.34,8.19,16.64s7.37-12,7.37-12Z"/><path class="cls-2" d="M102.74,96.79a58.51,58.51,0,0,1-89.38-1.08C19.28,89.78,28,84.85,40.83,83.2L78.09,83l.14,0c.38.12,1.52.47,3.17,1.1C86.22,86,95.41,90,102.74,96.79Z"/><path class="cls-2" d="M78.1,83a33.83,33.83,0,0,1-11.9,6.66h0c-12.42,3.73-22.32-3-26.17-6.18l.83-.32a13.49,13.49,0,0,0,2.08-1c9.82-6,8-20,8-20H68.38a37.28,37.28,0,0,0,.07,7C69,75,71.16,80,78.1,83Z"/><path class="cls-2" d="M68.45,69.19a5.77,5.77,0,0,1-4.56,3.16C55.77,73,51.2,65,51.3,64.3l.42-2.11H68.38A37.28,37.28,0,0,0,68.45,69.19Z"/><path class="cls-2" d="M79.39,46.94a3.63,3.63,0,1,0-7.19,0c0,2.27,1.61,5.13,3.59,5.13S79.39,49.21,79.39,46.94Z"/><path class="cls-2" d="M74.85,48.35l-.25,0s.31-2.71,2.8-2.78v.26C75.14,45.86,74.86,48.32,74.85,48.35Z"/><path class="cls-2" d="M77.31,48a1.45,1.45,0,0,0-2.39,0l-.2-.16a1.72,1.72,0,0,1,2.78,0Z"/><path class="cls-2" d="M39.51,46.94a3.87,3.87,0,0,1,3.59-4.12,3.88,3.88,0,0,1,3.59,4.12c0,2.27-1.61,5.13-3.59,5.13S39.51,49.21,39.51,46.94Z"/><path class="cls-2" d="M44.44,48.35l.25,0s-.31-2.71-2.8-2.78v.26C44.15,45.86,44.43,48.32,44.44,48.35Z"/><path class="cls-2" d="M42,48a1.45,1.45,0,0,1,2.39,0l.2-.16a1.72,1.72,0,0,0-2.78,0Z"/><path class="cls-2" d="M69.71,62.76c-2.66,3.05-6,5-10.06,5s-7.41-1.91-10.07-5l0-.06c-4.77-6-5.74-14.8-4.45-25.24C46,30,53.1,27,57,26a10.08,10.08,0,0,1,5.23,0c3.93,1,11,4,11.95,11.47C75.5,47.94,74.52,56.73,69.71,62.76Z"/><circle class="cls-2" cx="65.08" cy="45.48" r="1.06"/><circle class="cls-2" cx="53.66" cy="45.48" r="1.06"/><path class="cls-2" d="M69.7,39.9s-2.08.09-4.8.11-3.43,0-3.18-1.13,3-1.08,4.68-.7A9.38,9.38,0,0,1,69.7,39.9Z"/><path class="cls-2" d="M48.85,39.9s2.07.09,4.79.11,3.43,0,3.18-1.13-3-1.08-4.68-.7A9.29,9.29,0,0,0,48.85,39.9Z"/><path class="cls-2" d="M59.23,52.21A1.47,1.47,0,0,1,58.3,52a.56.56,0,0,1-.16-.51c.15-.94.7-4.64.7-4.68l.3,0s-.55,3.75-.7,4.68a.27.27,0,0,0,.07.25c.28.26,1.24.16,1.79,0l.07.29A5.05,5.05,0,0,1,59.23,52.21Z"/><path class="cls-2" d="M73.26,32.92l.95,14.16,1-4.77S78.28,36,73.26,32.92Z"/><path class="cls-2" d="M46,31.26,44.69,47.08l-.63-4.77S41,36,46,31.26Z"/><path class="cls-2" d="M78.1,83s-5.46,8.89-19,8.75S39.4,83.4,39.4,83.4a35.33,35.33,0,0,0,3.71-3.09,23.37,23.37,0,0,0,5.31-7s.49-.55,3.8.35,7,1.92,12.08,1,5.39-1,5.74-.76,2.2,4.38,5.69,7.39A13.87,13.87,0,0,0,78.1,83Z"/><path class="cls-2" d="M64.88,116.65q-1.66.18-3.36.27h0c-1,0-2,.08-3,.08-1.78,0-3.55-.08-5.29-.24-.53-.05-1.06-.1-1.59-.17.68-3.92,1.32-7.87,1.91-11.62.42-2.72.81-5.33,1.17-7.74s.71-4.86,1-6.88c.67-4.8,1.07-7.87,1.07-7.87h4.43l.35,3.24.6,5.58.67,6.23L64,108.18l.68,6.24Z"/><path class="cls-2" d="M61.54,85.72c-1.6,1.31-3.75,3-5.85,4.63.67-4.81,1.07-7.87,1.07-7.87h4.43Z"/><path class="cls-2" d="M54.53,82s3.57,3,4.37,3.09,5.32-4.3,5.32-4.3l-2.71-4.83H55.68Z"/><path class="cls-2" d="M75.73,81.35c-4.54,2.34-9.89,5-10.65,4.92-1.34-.12-6.18-9.34-6.18-9.34s-5,9.36-6.71,9.34c-1.91,0-5.66-3.5-9.08-6a23.37,23.37,0,0,0,5.31-7s.49-.55,3.8.35,7,1.92,12.08,1,5.39-1,5.74-.76S72.24,78.34,75.73,81.35Z"/><path class="cls-2" d="M25,103.64l-.51,2.42a.39.39,0,0,1-.1-.08Z"/><path class="cls-2" d="M90.48,107.49l0,0q-.12-.65-.18-.93Z"/><path class="cls-2" d="M62.81,97.53,53.53,105c.42-2.71.81-5.32,1.17-7.74l7.44-5.93Z"/><path class="cls-2" d="M64.64,114.42l-3.12,2.5h0c-1,0-2,.08-3,.08-1.78,0-3.55-.08-5.29-.24L64,108.18Z"/><path class="cls-2" d="M52.1,86.5c-.36,0-1.35-.38-4.87-2.89C45.08,82.09,43,80.49,43,80.47l.25-.32c3.91,3,8.3,6.07,8.87,5.94.55-.28,4.36-5.84,6.63-9.28l.19-.29.15.31s1.24,2.46,2.61,4.81C64.3,86.14,65,86.1,65,86.08c1.25-.37,10.53-4.86,10.62-4.91l.18.37c-.39.18-9.41,4.54-10.68,4.92-.29.09-1,.29-3.8-4.62-1.08-1.87-2.08-3.78-2.46-4.52-1.13,1.71-5.82,8.73-6.6,9.13A.35.35,0,0,1,52.1,86.5Z"/><path class="cls-2" d="M102.74,96.79c-.53.61-1.07,1.21-1.63,1.8A54.25,54.25,0,0,0,81.77,84.32,74.6,74.6,0,0,1,95.9,91.49,53.44,53.44,0,0,1,102.74,96.79Z"/><path class="cls-2" d="M75.12,38.77c-18.36,2.71-24.27-8-24.27-8C49.44,39,44.69,41.07,44.69,41.07a37.93,37.93,0,0,1-1.59-8.15c-.15-3.58,6.74-9.78,15-10.68S74,27.68,74,27.68l1,10c-8.62,2-17.62-3-17.62-3,6.3,4.36,14.86,4,17.69,3.79Z"/><g class="cls-3"><path class="cls-2" d="M58.9,58.49a.19.19,0,0,1-.11-.2.18.18,0,0,1,.21-.14,2.45,2.45,0,0,0,.81,0,.19.19,0,0,1,.21.15.18.18,0,0,1-.15.2,2.64,2.64,0,0,1-.93,0Z"/></g><path class="cls-4" d="M55.18,55.59a9.15,9.15,0,0,0,8.48,0"/></g></g></svg>