<svg xmlns="http://www.w3.org/2000/svg" viewBox="0 0 117 117"><defs><style>.cls-1{fill:#edf4fe;}.cls-2{fill:#7283f7;}.cls-3{fill:#fdb9a3;}.cls-4{fill:#f08e73;}.cls-5{fill:#abdbff;}.cls-6{fill:#68b1dd;}.cls-7{fill:#3745af;}.cls-8{fill:#ccf3ff;}.cls-9{fill:#5065dd;}.cls-10{fill:#4b60dd;}.cls-11{fill:#1a1d1f;}.cls-12{fill:#e56757;}.cls-13{fill:#e36556;}.cls-14,.cls-16{fill:none;}.cls-14{stroke:#e56757;stroke-linecap:round;stroke-miterlimit:10;stroke-width:0.41px;}.cls-15{fill:#fff;}</style></defs><g id="图层_2" data-name="图层 2"><g id="Design"><circle class="cls-1" cx="58.5" cy="58.5" r="58.5"/><path class="cls-2" d="M103.35,96.06A58.5,58.5,0,0,1,12.76,95c6-6,14.82-11.11,27.89-12.79L78.28,82l.14,0c.39.12,1.54.48,3.2,1.11C86.53,85,95.92,89.15,103.35,96.06Z"/><path class="cls-3" d="M78.29,82a34.37,34.37,0,0,1-12,6.72h0c-12.55,3.76-22.55-3-26.44-6.24l.84-.33a13.42,13.42,0,0,0,2.11-1.06C52.68,75,50.87,61,50.87,61H68.48A37,37,0,0,0,68.55,68C69.14,73.85,71.29,79,78.29,82Z"/><path class="cls-4" d="M68.55,68A5.81,5.81,0,0,1,64,71.22c-8.21.69-12.82-7.37-12.72-8.12L51.65,61H68.47A37.57,37.57,0,0,0,68.55,68Z"/><path class="cls-2" d="M78.29,82s-5.51,9-19.24,8.83-19.84-8.47-19.84-8.47A35.85,35.85,0,0,0,43,79.27a24,24,0,0,0,5.36-7s.49-.56,3.84.35,7.08,1.94,12.2,1,5.44-1,5.79-.76,2.23,4.42,5.75,7.46A15.17,15.17,0,0,0,78.29,82Z"/><path class="cls-5" d="M65,116.64a58.37,58.37,0,0,1-6.51.36,57,57,0,0,1-7.07-.43c.73-4.18,1.42-8.41,2-12.41.42-2.74.82-5.37,1.18-7.81s.71-4.91,1-6.95c.68-4.85,1.07-7.94,1.07-7.94h4.48l.35,3.27.61,5.63.68,6.3L64,107.41l.68,6.3Z"/><path class="cls-6" d="M61.57,84.73C60,86.06,57.79,87.8,55.66,89.4c.68-4.85,1.08-7.94,1.08-7.94h4.47Z"/><path class="cls-5" d="M54.49,80.93s3.6,3,4.42,3.12,5.36-4.34,5.36-4.34l-2.73-4.88H55.65Z"/><path class="cls-2" d="M75.9,80.32c-4.58,2.35-10,5-10.75,5-1.36-.13-6.24-9.44-6.24-9.44s-5,9.45-6.78,9.44c-1.93,0-5.72-3.54-9.17-6a24,24,0,0,0,5.36-7s.49-.56,3.84.35,7.08,1.94,12.2,1,5.44-1,5.79-.76S72.38,77.28,75.9,80.32Z"/><path class="cls-7" d="M24.62,102.82,24,105.74a.6.6,0,0,1-.13-.09Z"/><path class="cls-7" d="M90.91,107.21l0,0c-.14-.7-.24-1.18-.29-1.45Z"/><path class="cls-8" d="M62.85,96.66l-9.37,7.5c.43-2.74.82-5.37,1.18-7.81l7.52-6Z"/><path class="cls-8" d="M64.69,113.71,60.63,117c-.7,0-1.42,0-2.13,0a53.45,53.45,0,0,1-6.1-.33L64,107.41Z"/><path class="cls-9" d="M52,85.52c-.36,0-1.36-.39-4.91-2.92-2.17-1.54-4.26-3.16-4.28-3.17l.25-.32c3.95,3,8.38,6.12,8.95,6s4.41-5.89,6.7-9.36l.19-.3.16.32s1.25,2.48,2.63,4.85c2.64,4.54,3.3,4.5,3.37,4.48,1.25-.38,10.63-4.91,10.72-5l.18.36c-.39.19-9.5,4.59-10.79,5-.28.09-1,.29-3.83-4.67-1.1-1.88-2.11-3.82-2.48-4.56C57.74,78,53,85.07,52.22,85.47A.36.36,0,0,1,52,85.52Z"/><path class="cls-10" d="M103.35,96.06c-.53.64-1.08,1.26-1.64,1.87A54.73,54.73,0,0,0,81.83,83.25a75.32,75.32,0,0,1,14.43,7.3A54.32,54.32,0,0,1,103.35,96.06Z"/><path class="cls-11" d="M69.87,57.12s5.81-2,7.91-16.83c2.86-20.23-.92-18.37-4.25-20.85,0,0-3.66-5.57-15.51-4.39-13,1.3-12.33,5.84-13.91,6.45S39,25.25,40.67,36.9,41.74,56.6,51,57.12,69.87,57.12,69.87,57.12Z"/><path class="cls-3" d="M79.8,45.05a3.71,3.71,0,1,0-7.36,0c0,2.33,1.65,5.27,3.68,5.27S79.8,47.38,79.8,45.05Z"/><path class="cls-12" d="M75.16,46.5l-.26,0s.31-2.78,2.87-2.85v.26C75.45,44,75.16,46.47,75.16,46.5Z"/><path class="cls-12" d="M77.68,46.11a1.76,1.76,0,0,0-1.32-.64,1.71,1.71,0,0,0-1.13.63L75,45.94a1.76,1.76,0,0,1,2.85,0Z"/><path class="cls-3" d="M38.93,45.05a4,4,0,0,1,3.68-4.22,4,4,0,0,1,3.68,4.22c0,2.33-1.65,5.27-3.68,5.27S38.93,47.38,38.93,45.05Z"/><path class="cls-12" d="M44,46.5l.26,0s-.31-2.78-2.87-2.85v.26C43.69,44,44,46.47,44,46.5Z"/><path class="cls-12" d="M41.46,46.11a1.76,1.76,0,0,1,1.32-.64,1.71,1.71,0,0,1,1.13.63l.21-.16a1.76,1.76,0,0,0-2.85,0Z"/><path class="cls-3" d="M69.89,61.27c-2.73,3.13-6.18,5.15-10.32,5.08S52,64.4,49.25,61.27l0-.06C44.32,55,43.33,46,44.65,35.34a12.08,12.08,0,0,1,.66-2.74c2.1-5.7,8.07-8.09,11.58-9a10.36,10.36,0,0,1,5.36,0c3.4.91,9.1,3.17,11.37,8.48h0a11.79,11.79,0,0,1,.87,3.28C75.82,46.08,74.82,55.09,69.89,61.27Z"/><circle class="cls-11" cx="65.14" cy="43.49" r="1.06"/><circle class="cls-11" cx="53.44" cy="43.49" r="1.06"/><path class="cls-11" d="M69.87,37.84s-2.12.09-4.91.11-3.51,0-3.27-1.15,3-1.11,4.8-.72A9.36,9.36,0,0,1,69.87,37.84Z"/><path class="cls-11" d="M48.5,37.84s2.13.09,4.92.11,3.51,0,3.26-1.15-3-1.11-4.8-.72A9.47,9.47,0,0,0,48.5,37.84Z"/><path class="cls-12" d="M59.18,50.3a1.48,1.48,0,0,1-1-.26A.58.58,0,0,1,58,49.5c.16-1,.73-4.91.74-5l.31.05s-.58,4-.73,4.95a.24.24,0,0,0,.07.26c.29.28,1.32.17,1.9,0l.07.31A6.41,6.41,0,0,1,59.18,50.3Z"/><path class="cls-11" d="M73.53,30.68l1,14.52,1-4.89S78.67,33.8,73.53,30.68Z"/><path class="cls-11" d="M45.61,29,44.24,45.2l-.65-4.89S40.47,33.8,45.61,29Z"/><path class="cls-11" d="M73.62,32.06c-.09-.14-3-4.8-5.59-4.47s-8.81,3.69-16.24,0c0,0-2.23-1.61-6.48,5,2.1-5.7,8.07-8.26,11.58-9.19a10.36,10.36,0,0,1,5.36,0C65.65,24.31,71.35,26.75,73.62,32.06Z"/><path class="cls-13" d="M58.48,57.22a.17.17,0,0,1-.11-.2.18.18,0,0,1,.21-.14,2.15,2.15,0,0,0,.8,0,.19.19,0,0,1,.21.15.17.17,0,0,1-.15.2,2.65,2.65,0,0,1-.93,0Z"/><path class="cls-14" d="M54.77,54.34a9.14,9.14,0,0,0,8.45,0"/><path class="cls-15" d="M65.94,38.3A5.35,5.35,0,0,0,60.87,42a2.29,2.29,0,0,0-.08.28,5.43,5.43,0,0,0-.17,1.35,5.31,5.31,0,0,0,2.85,4.71l.26.13a5.53,5.53,0,0,0,1.4.42,5.42,5.42,0,0,0,.81.06,5.33,5.33,0,1,0,0-10.65Zm0,10.36a4.57,4.57,0,0,1-.83-.07,4.66,4.66,0,0,1-1.22-.37l-.26-.12a5,5,0,1,1,2.31.56Z"/><path class="cls-15" d="M57.16,42.27c0-.09,0-.19-.08-.28A5.33,5.33,0,0,0,52,38.3a5.32,5.32,0,0,0-5.32,5.33A5.32,5.32,0,0,0,52,49a4.93,4.93,0,0,0,.78-.06,5.07,5.07,0,0,0,1.88-.65l.09-.05h0a5.31,5.31,0,0,0,2.58-4.55A5.13,5.13,0,0,0,57.16,42.27ZM54.46,48a5,5,0,0,1-5.09-8.69A5,5,0,0,1,52,38.59,5,5,0,0,1,54.46,48Z"/><path class="cls-15" d="M60.9,42.33a4.16,4.16,0,0,0-3.83,0l-.15-.24a4.34,4.34,0,0,1,4.1,0Z"/><path class="cls-16" d="M117,58.5a58.25,58.25,0,0,1-13.65,37.56c-.53.64-1.08,1.26-1.64,1.87a58.78,58.78,0,0,1-10.8,9.28l0,0A58.13,58.13,0,0,1,65,116.64c-1.45.16-2.9.27-4.38.32-.7,0-1.42,0-2.13,0a53.45,53.45,0,0,1-6.1-.33c-.33,0-.65-.06-1-.1A58,58,0,0,1,24,105.74a.6.6,0,0,1-.13-.09A58.92,58.92,0,0,1,12.76,95,58.5,58.5,0,1,1,117,58.5Z"/></g></g></svg>