<?xml version="1.0" encoding="utf-8"?>
<!-- Generator: Adobe Illustrator 23.0.0, SVG Export Plug-In . SVG Version: 6.00 Build 0)  -->
<svg version="1.1" id="图层_1" xmlns="http://www.w3.org/2000/svg" xmlns:xlink="http://www.w3.org/1999/xlink" x="0px" y="0px"
	 viewBox="0 0 20 20" style="enable-background:new 0 0 20 20;" xml:space="preserve">
<style type="text/css">
	.st0{fill:#111111;}
</style>
<title>表格</title>
<g id="矩形">
	<path class="st0" d="M18,6H2V2h16V6z M3,5h14V3H3V5z"/>
</g>
<g>
	<path class="st0" d="M6,12H2V8h4V12z M3,11h2V9H3V11z"/>
</g>
<g id="矩形备份-14">
	<path class="st0" d="M6,17H2v-4h4V17z M3,16h2v-2H3V16z"/>
</g>
<g id="矩形备份-3">
	<path class="st0" d="M12,12H8V8h4V12z M9,11h2V9H9V11z"/>
</g>
<g id="矩形备份-16">
	<path class="st0" d="M12,17H8v-4h4V17z M9,16h2v-2H9V16z"/>
</g>
<g id="矩形备份-10">
	<path class="st0" d="M18,12h-4V8h4V12z M15,11h2V9h-2V11z"/>
</g>
<g id="矩形备份-17">
	<path class="st0" d="M18,17h-4v-4h4V17z M15,16h2v-2h-2V16z"/>
</g>
</svg>
