<?xml version="1.0" encoding="UTF-8"?>
<svg width="40px" height="40px" viewBox="0 0 40 40" version="1.1" xmlns="http://www.w3.org/2000/svg" xmlns:xlink="http://www.w3.org/1999/xlink">
    <!-- Generator: Sketch 55.2 (78181) - https://sketchapp.com -->
    <title>商务版</title>
    <desc>Created with Sketch.</desc>
    <g id="个性化" stroke="none" stroke-width="1" fill="none" fill-rule="evenodd">
        <g id="个性化设置-竖向分割线" transform="translate(-495.000000, -345.000000)" fill-rule="nonzero">
            <g id="商务版" transform="translate(495.000000, 345.000000)">
                <path d="M3.84615385,0 L36.1538462,0 C38.3076923,0 40,1.69230769 40,3.84615385 L40,36.1538462 C40,38.3076923 38.3076923,40 36.1538462,40 L3.84615385,40 C1.69230769,40 0,38.3076923 0,36.1538462 L0,3.84615385 C0,1.69230769 1.69230769,0 3.84615385,0 Z" id="矩形" fill="#319FD6"></path>
                <path d="M30,9.23076923 C30.8461538,9.23076923 31.5384615,9.92307692 31.5384615,10.7692308 L31.5384615,20.8461538 C30.6153846,20.3846154 29.6153846,20.0769231 28.5384615,20.0769231 L28.5384615,16.5384615 C28.5384615,16.0769231 28.2307692,15.7692308 27.7692308,15.7692308 L27.7692308,15.7692308 L11.4615385,15.7692308 C11,15.7692308 10.6923077,16.0769231 10.6923077,16.5384615 L10.6923077,16.5384615 L10.6923077,27.2307692 C10.6923077,27.6923077 11,28 11.4615385,28 L11.4615385,28 L21.2307692,28 C21.3846154,29.0769231 21.8461538,30 22.4615385,30.8461538 L9.23076923,30.7692308 C8.38461538,30.7692308 7.69230769,30.0769231 7.69230769,29.2307692 L7.69230769,10.7692308 C7.69230769,9.92307692 8.38461538,9.23076923 9.23076923,9.23076923 L30,9.23076923 Z" id="合并形状" fill="#FFFFFF"></path>
                <path d="M32.1538462,30 C32.1538462,30 32.0769231,29.9230769 32.0769231,29.9230769 C32.5384615,29.1538462 32.8461538,28.2307692 32.8461538,27.2307692 C32.8461538,24.5384615 30.6923077,22.3076923 28,22.3076923 C25.3076923,22.3076923 23.1538462,24.5384615 23.1538462,27.2307692 C23.1538462,29.9230769 25.3076923,32.1538462 28,32.1538462 C29,32.1538462 29.9230769,31.8461538 30.6153846,31.3846154 C30.6153846,31.3846154 30.6923077,31.4615385 30.6923077,31.4615385 L33.2307692,33.9230769 C33.3076923,34 33.6923077,34.4615385 34.3846154,33.7692308 C35.0769231,33.0769231 34.6923077,32.6923077 34.6153846,32.5384615 L32.1538462,30 Z M27.9230769,30.6153846 C26.0769231,30.6153846 24.6153846,29.0769231 24.6153846,27.2307692 C24.6153846,25.3846154 26.0769231,23.8461538 27.9230769,23.8461538 C29.7692308,23.8461538 31.2307692,25.3846154 31.2307692,27.2307692 C31.3076923,29.0769231 29.7692308,30.6153846 27.9230769,30.6153846 L27.9230769,30.6153846 Z" id="形状" fill="#FFFFFF"></path>
                <path d="M13.8461538,18.4615385 L23.0769231,18.4615385 C23.5384615,18.4615385 23.8461538,18.7692308 23.8461538,19.2307692 L23.8461538,20 C23.8461538,20.4615385 23.5384615,20.7692308 23.0769231,20.7692308 L13.8461538,20.7692308 C13.3846154,20.7692308 13.0769231,20.4615385 13.0769231,20 L13.0769231,19.2307692 C13.0769231,18.7692308 13.3846154,18.4615385 13.8461538,18.4615385 Z" id="矩形_1_" fill="#FFFFFF"></path>
                <path d="M13.8461538,23.0769231 L20.7692308,23.0769231 C21.2307692,23.0769231 21.5384615,23.3846154 21.5384615,23.8461538 L21.5384615,24.6153846 C21.5384615,25.0769231 21.2307692,25.3846154 20.7692308,25.3846154 L13.8461538,25.3846154 C13.3846154,25.3846154 13.0769231,25.0769231 13.0769231,24.6153846 L13.0769231,23.8461538 C13.0769231,23.3846154 13.3846154,23.0769231 13.8461538,23.0769231 Z" id="矩形_2_" fill="#FFFFFF"></path>
                <circle id="椭圆形" fill="#319FD6" cx="11.9230769" cy="12.6923077" r="1.15384615"></circle>
                <circle id="椭圆形_1_" fill="#319FD6" cx="16.5384615" cy="12.6923077" r="1.15384615"></circle>
            </g>
        </g>
    </g>
</svg>