<?xml version="1.0" encoding="UTF-8"?>
<svg width="16px" height="16px" viewBox="0 0 16 16" version="1.1" xmlns="http://www.w3.org/2000/svg" xmlns:xlink="http://www.w3.org/1999/xlink">
    <!-- Generator: Sketch 55.2 (78181) - https://sketchapp.com -->
    <title>changyongshuju</title>
    <desc>Created with Sketch.</desc>
    <g id="个性化" stroke="none" stroke-width="1" fill="none" fill-rule="evenodd">
        <g id="个性化设置-斑马线" transform="translate(-37.000000, -156.000000)" fill="#a1a2a2" fill-rule="nonzero">
            <g id="changyongshuju" transform="translate(37.000000, 156.000000)">
                <path d="M15.5555556,2.253521 L14.2222222,2.253521 L8.4444444,2.253521 L8.4444444,0.450704 C8.4444444,0.180282 8.2666667,0 8,0 C7.7333333,0 7.5555556,0.180282 7.5555556,0.450704 L7.5555556,2.253521 L1.7777778,2.253521 L0.4444444,2.253521 C0.1777778,2.253521 0,2.433803 0,2.704225 C0,2.974648 0.1777778,3.15493 0.4444444,3.15493 L1.7777778,3.15493 L1.7777778,11.71831 L4.6222222,11.71831 L2.7111111,15.594366 L3.5111111,16 L5.6,11.76338 L10.4,11.76338 L12.4888889,16 L13.2888889,15.594366 L11.3777778,11.71831 L14.2222222,11.71831 L14.2222222,3.15493 L15.5555556,3.15493 C15.8222222,3.15493 16,2.974648 16,2.704225 C16,2.433803 15.7777778,2.253521 15.5555556,2.253521 Z M13.3333333,10.816901 L2.6666667,10.816901 L2.6666667,3.15493 L13.3333333,3.15493 L13.3333333,10.816901 Z M5.2444444,8.428169 L6.7111111,6.940845 L8.48888885,8.743662 L11.4666667,5.723944 C11.6444444,5.543662 11.6444444,5.273239 11.4666667,5.092958 C11.2888889,4.912676 11.0222222,4.912676 10.8444444,5.092958 L8.48888885,7.48169 L6.7111111,5.678873 L4.6222222,7.797183 C4.4444444,7.977465 4.4444444,8.247887 4.6222222,8.428169 C4.8,8.608451 5.1111111,8.608451 5.2444444,8.428169 Z" id="常用数据"></path>
            </g>
        </g>
    </g>
</svg>