<?xml version="1.0" encoding="utf-8"?>
<!-- Generator: Adobe Illustrator 23.0.0, SVG Export Plug-In . SVG Version: 6.00 Build 0)  -->
<svg version="1.1" id="图层_1" xmlns="http://www.w3.org/2000/svg" xmlns:xlink="http://www.w3.org/1999/xlink" x="0px" y="0px"
	 viewBox="0 0 72 32" style="enable-background:new 0 0 72 32;" xml:space="preserve">
<style type="text/css">
	.st0{fill:#C6CCD7;}
	.st1{fill-rule:evenodd;clip-rule:evenodd;fill:#C6CCD7;}
	.st2{fill:#C7CBD0;}
</style>
<title>紧凑</title>
<g id="页面-1">
	<g id="紧凑">
		<g id="矩形备份-27">
			<path class="st0" d="M68.5,32h-65C1.6,32,0,30.4,0,28.5v-25C0,1.6,1.6,0,3.5,0h65C70.4,0,72,1.6,72,3.5v25
				C72,30.4,70.4,32,68.5,32z M3.5,1C2.1,1,1,2.1,1,3.5v25C1,29.9,2.1,31,3.5,31h65c1.4,0,2.5-1.1,2.5-2.5v-25C71,2.1,69.9,1,68.5,1
				H3.5z"/>
		</g>
		<g id="矩形备份-28">
			<path class="st0" d="M9.5,8h-2C6.7,8,6,7.3,6,6.5v-2C6,3.7,6.7,3,7.5,3h2C10.3,3,11,3.7,11,4.5v2C11,7.3,10.3,8,9.5,8z M7.5,4
				C7.2,4,7,4.2,7,4.5v2C7,6.8,7.2,7,7.5,7h2C9.8,7,10,6.8,10,6.5v-2C10,4.2,9.8,4,9.5,4H7.5z"/>
		</g>
		<g id="矩形备份-29">
			<path class="st0" d="M9.5,18h-2C6.7,18,6,17.3,6,16.5v-2C6,13.7,6.7,13,7.5,13h2c0.8,0,1.5,0.7,1.5,1.5v2C11,17.3,10.3,18,9.5,18
				z M7.5,14C7.2,14,7,14.2,7,14.5v2C7,16.8,7.2,17,7.5,17h2c0.3,0,0.5-0.2,0.5-0.5v-2c0-0.3-0.2-0.5-0.5-0.5H7.5z"/>
		</g>
		<g id="矩形备份-32">
			<path class="st0" d="M9.5,28h-2C6.7,28,6,27.3,6,26.5v-2C6,23.7,6.7,23,7.5,23h2c0.8,0,1.5,0.7,1.5,1.5v2C11,27.3,10.3,28,9.5,28
				z M7.5,24C7.2,24,7,24.2,7,24.5v2C7,26.8,7.2,27,7.5,27h2c0.3,0,0.5-0.2,0.5-0.5v-2c0-0.3-0.2-0.5-0.5-0.5H7.5z"/>
		</g>
		<g id="矩形备份-30">
			<path class="st1" d="M16.5,4h47C64.3,4,65,4.7,65,5.5l0,0C65,6.3,64.3,7,63.5,7h-47C15.7,7,15,6.3,15,5.5l0,0
				C15,4.7,15.7,4,16.5,4z"/>
		</g>
		<g id="矩形备份-31">
			<path class="st1" d="M16.5,14h47c0.8,0,1.5,0.7,1.5,1.5l0,0c0,0.8-0.7,1.5-1.5,1.5h-47c-0.8,0-1.5-0.7-1.5-1.5l0,0
				C15,14.7,15.7,14,16.5,14z"/>
		</g>
		<g id="矩形备份-33">
			<path class="st1" d="M16.5,24h47c0.8,0,1.5,0.7,1.5,1.5l0,0c0,0.8-0.7,1.5-1.5,1.5h-47c-0.8,0-1.5-0.7-1.5-1.5l0,0
				C15,24.7,15.7,24,16.5,24z"/>
		</g>
		<g id="路径-7备份">
			<rect x="0.7" y="10.1" class="st2" width="70.7" height="1"/>
		</g>
		<g id="路径-7备份-2">
			<rect x="0.7" y="20.1" class="st2" width="70.7" height="1"/>
		</g>
	</g>
</g>
</svg>
