<?xml version="1.0" encoding="UTF-8"?>
<svg width="16px" height="15px" viewBox="0 0 16 15" version="1.1" xmlns="http://www.w3.org/2000/svg" xmlns:xlink="http://www.w3.org/1999/xlink">
    <!-- Generator: Sketch 55.2 (78181) - https://sketchapp.com -->
    <title>dailirenshezhi</title>
    <desc>Created with Sketch.</desc>
    <g id="个性化" stroke="none" stroke-width="1" fill="none" fill-rule="evenodd">
        <g id="个性化设置-斑马线" transform="translate(-37.000000, -201.000000)" fill="#e14c46" fill-rule="nonzero">
            <g id="dailirenshezhi" transform="translate(37.000000, 201.000000)">
                <path d="M2.6598465,6.609499 L7.5294118,6.609499 L7.5294118,1.46438 C7.5294118,0.633245 6.8337596,0 6.0153453,0 L3.0690537,0 C2.2097187,0 1.5549872,0.672823 1.5549872,1.46438 L1.5549872,5.501319 C1.4731458,6.094987 2.0051151,6.609499 2.6598465,6.609499 Z M2.2915601,1.424802 C2.2915601,1.029024 2.6189258,0.751979 2.9872123,0.751979 L5.9335038,0.751979 C6.342711,0.751979 6.629156,1.068602 6.629156,1.424802 L6.629156,5.778364 L2.5780051,5.778364 C2.3734015,5.778364 2.2506394,5.620053 2.2506394,5.461741 L2.2506394,1.424802 L2.2915601,1.424802 Z M5.1150895,7.638522 L5.1150895,8.430079 L1.1457801,8.430079 C0.9820972,8.430079 0.8184143,8.548813 0.8184143,8.746702 L0.8184143,15 L0,15 L0,8.746702 C0,8.153034 0.4910486,7.638522 1.1457801,7.638522 L5.1150895,7.638522 Z M10.0255754,12.467018 C11.1713555,12.467018 12.112532,13.337731 12.0716113,14.44591 L11.2531969,14.44591 C11.2531969,13.812665 10.6803069,13.258575 10.0255754,13.258575 C9.370844,13.258575 8.797954,13.773087 8.797954,14.44591 L7.9795396,14.44591 C7.9795396,13.377309 8.8797954,12.467018 10.0255754,12.467018 Z M15.8363171,12.110818 C15.9590793,12.348285 16,12.585752 16,12.823219 C15.9181586,13.060686 15.7544757,13.258575 15.5498721,13.377309 L14.8542199,13.773087 C14.8951407,14.010554 14.9360614,14.248021 14.9360614,14.525066 L14.1176471,14.525066 C14.1176471,12.387863 12.3171355,10.646438 10.1074169,10.646438 C7.8976982,10.646438 6.0971867,12.387863 6.0971867,14.525066 L5.2787724,14.525066 C5.2787724,14.248021 5.3196931,14.010554 5.3606138,13.733509 L4.7058824,13.377309 C4.5012788,13.258575 4.3375959,13.060686 4.2557545,12.823219 C4.173913,12.585752 4.2148338,12.308707 4.3375959,12.110818 L5.1560102,10.725594 C5.4015345,10.25066 6.0153453,10.131926 6.4654731,10.369393 L7.202046,10.804749 C7.5294118,10.567282 7.8976982,10.369393 8.3069054,10.211082 L8.3069054,9.102902 C8.3069054,8.627968 8.7161125,8.192612 9.2480818,8.192612 L10.8849105,8.192612 C11.3759591,8.192612 11.826087,8.588391 11.826087,9.102902 L11.826087,10.211082 C12.2352941,10.369393 12.6035806,10.567282 12.9309463,10.804749 L13.7084399,10.369393 C13.9539642,10.25066 14.1994885,10.211082 14.4450128,10.290237 C14.6905371,10.369393 14.8951407,10.527704 15.0179028,10.725594 L15.8363171,12.110818 Z M5.5242967,12.941953 C5.7289003,12.348285 6.0971867,11.833773 6.5063939,11.319261 L5.9744246,11.002639 C5.9335038,11.002639 5.8925831,11.002639 5.8516624,11.002639 C5.8516624,11.042216 5.8107417,11.042216 5.769821,11.081794 L4.9514066,12.467018 C4.9514066,12.506596 4.9514066,12.546174 4.9514066,12.585752 C4.9923274,12.585752 4.9923274,12.62533 5.0332481,12.664908 L5.5242967,12.941953 Z M11.0076726,9.973615 L10.9258312,9.973615 L10.9258312,9.102902 C10.9258312,9.063325 10.8849105,8.984169 10.8030691,8.984169 L9.1662404,8.984169 C9.1253197,8.984169 9.0434783,9.023747 9.0434783,9.102902 L9.0434783,9.973615 C9.370844,9.934037 9.6982097,9.894459 10.0255754,9.894459 C10.3529412,9.894459 10.6803069,9.894459 11.0076726,9.973615 Z M15.0588235,12.704485 C15.140665,12.664908 15.1815857,12.585752 15.0997442,12.506596 L14.2813299,11.121372 C14.2404092,11.081794 14.2404092,11.042216 14.1994885,11.042216 C14.1585678,11.042216 14.1176471,11.002639 14.0767263,11.042216 L13.544757,11.358839 C13.9948849,11.833773 14.3631714,12.387863 14.5677749,12.98153 L15.0588235,12.704485 Z" id="Role-management-Copy-2"></path>
            </g>
        </g>
    </g>
</svg>