<?xml version="1.0" encoding="utf-8"?>
<!-- Generator: Adobe Illustrator 23.0.0, SVG Export Plug-In . SVG Version: 6.00 Build 0)  -->
<svg version="1.1" id="图层_1" xmlns="http://www.w3.org/2000/svg" xmlns:xlink="http://www.w3.org/1999/xlink" x="0px" y="0px"
	 viewBox="0 0 76 76" style="enable-background:new 0 0 76 76;" xml:space="preserve">
<style type="text/css">
	.st0{filter:url(#filter-2);}
	.st1{fill-rule:evenodd;clip-rule:evenodd;}
	.st2{fill-rule:evenodd;clip-rule:evenodd;fill:#38404E;}
	.st3{enable-background:new    ;}
	.st4{fill:#FFFFFF;}
</style>
<filter  filterUnits="objectBoundingBox" height="119.1%" id="filter-2" width="119.1%" x="-9.6%" y="-8.1%">
	<feOffset  dx="0" dy="1" in="SourceAlpha" result="shadowOffsetOuter1"></feOffset>
	<feGaussianBlur  in="shadowOffsetOuter1" result="shadowBlurOuter1" stdDeviation="2"></feGaussianBlur>
	<feColorMatrix  in="shadowBlurOuter1" type="matrix" values="0 0 0 0 0   0 0 0 0 0   0 0 0 0 0  0 0 0 0.15854458 0">
		</feColorMatrix>
</filter>
<title>黑色logo</title>
<g id="黑色logo" transform="translate(43.000000, 558.000000)">
	<g id="矩形">
		<g class="st0">
			<path id="path-1_1_" class="st1" d="M-36-555h62c1.7,0,3,1.3,3,3v62c0,1.7-1.3,3-3,3h-62c-1.7,0-3-1.3-3-3v-62
				C-39-553.7-37.7-555-36-555z"/>
		</g>
		<g>
			<path class="st2" d="M-36-555h62c1.7,0,3,1.3,3,3v62c0,1.7-1.3,3-3,3h-62c-1.7,0-3-1.3-3-3v-62C-39-553.7-37.7-555-36-555z"/>
		</g>
	</g>
	<g class="st3">
		<path class="st4" d="M-34.4-529.1h3.2v12.4h7.5v2.7h-10.7V-529.1z"/>
		<path class="st4" d="M-9.9-515.3c-1.1,1.2-2.8,1.8-5,1.8s-3.8-0.6-5-1.8c-1.5-1.4-2.3-3.5-2.3-6.2c0-2.8,0.8-4.8,2.3-6.2
			c1.1-1.2,2.8-1.8,5-1.8s3.8,0.6,5,1.8c1.5,1.4,2.3,3.5,2.3,6.2C-7.6-518.9-8.4-516.8-9.9-515.3z M-11.9-517.6
			c0.7-0.9,1.1-2.2,1.1-3.9c0-1.7-0.4-3-1.1-3.9c-0.7-0.9-1.7-1.4-3-1.4s-2.2,0.5-3,1.4c-0.7,0.9-1.1,2.2-1.1,3.9
			c0,1.7,0.4,3,1.1,3.9c0.7,0.9,1.7,1.4,3,1.4S-12.6-516.7-11.9-517.6z"/>
		<path class="st4" d="M4.9-524.4c-0.2-1-0.8-1.8-1.8-2.2c-0.5-0.2-1.1-0.3-1.7-0.3c-1.2,0-2.2,0.5-3,1.4c-0.8,0.9-1.2,2.3-1.2,4.1
			c0,1.9,0.4,3.2,1.3,3.9c0.8,0.8,1.8,1.2,2.9,1.2c1.1,0,1.9-0.3,2.6-0.9c0.7-0.6,1.1-1.4,1.3-2.4H1.8v-2.5h6.3v8.1H6l-0.3-1.9
			c-0.6,0.7-1.2,1.2-1.6,1.5c-0.8,0.5-1.9,0.8-3.1,0.8c-2,0-3.6-0.7-4.9-2.1c-1.3-1.4-2-3.3-2-5.7c0-2.4,0.7-4.4,2-5.9
			s3.1-2.2,5.3-2.2c1.9,0,3.5,0.5,4.6,1.5c1.2,1,1.8,2.2,2,3.6H4.9z"/>
		<path class="st4" d="M22.7-515.3c-1.1,1.2-2.8,1.8-5,1.8s-3.8-0.6-5-1.8c-1.5-1.4-2.3-3.5-2.3-6.2c0-2.8,0.8-4.8,2.3-6.2
			c1.1-1.2,2.8-1.8,5-1.8s3.8,0.6,5,1.8c1.5,1.4,2.3,3.5,2.3,6.2C25-518.9,24.3-516.8,22.7-515.3z M20.8-517.6
			c0.7-0.9,1.1-2.2,1.1-3.9c0-1.7-0.4-3-1.1-3.9c-0.7-0.9-1.7-1.4-3-1.4c-1.2,0-2.2,0.5-3,1.4c-0.7,0.9-1.1,2.2-1.1,3.9
			c0,1.7,0.4,3,1.1,3.9c0.7,0.9,1.7,1.4,3,1.4C19-516.3,20-516.7,20.8-517.6z"/>
	</g>
</g>
</svg>
