<?xml version="1.0" encoding="utf-8"?>
<!-- Generator: Adobe Illustrator 23.0.0, SVG Export Plug-In . SVG Version: 6.00 Build 0)  -->
<svg version="1.1" id="图层_1" xmlns="http://www.w3.org/2000/svg" xmlns:xlink="http://www.w3.org/1999/xlink" x="0px" y="0px"
	 viewBox="0 0 40 40" style="enable-background:new 0 0 40 40;" xml:space="preserve">
<style type="text/css">
	.st0{fill-rule:evenodd;clip-rule:evenodd;fill:#F0F4FF;fill-opacity:0;}
	.st1{fill-rule:evenodd;clip-rule:evenodd;fill:#0076FF;}
	.st2{opacity:0.8613;fill-rule:evenodd;clip-rule:evenodd;fill:url(#SVGID_1_);fill-opacity:0.5;enable-background:new    ;}
	.st3{fill-rule:evenodd;clip-rule:evenodd;fill:#FFFFFF;fill-opacity:0.9;}
</style>
<title>业务处理5</title>
<g id="制作" transform="translate(-623.000000, -423.000000)">
	<g id="业务处理5" transform="translate(623.000000, 423.000000)">
		<rect id="矩形备份-73" class="st0" width="40" height="40"/>
		<g transform="translate(2.000000, 2.000000)">
			<g id="六边形备份-3">
				<path id="路径" class="st1" d="M17.2,0.6l14.2,8.1c0.6,0.4,1,1,1,1.7v16.2c0,0.7-0.4,1.4-1,1.7l-14.2,8.1
					c-0.6,0.3-1.4,0.3-2,0L1,28.3c-0.6-0.4-1-1-1-1.7V10.4C0,9.7,0.4,9,1,8.7l14.2-8.1C15.9,0.2,16.6,0.2,17.2,0.6z"/>
				
					<linearGradient id="SVGID_1_" gradientUnits="userSpaceOnUse" x1="-903.6154" y1="540.6345" x2="-903.6154" y2="539.6345" gradientTransform="matrix(25.4578 0 0 -28.2596 23027.3262 15278.8105)">
					<stop  offset="0" style="stop-color:#00C2D1"/>
					<stop  offset="1" style="stop-color:#00D0CA"/>
				</linearGradient>
				<path class="st2" d="M24.7,1.1L35,6.9c0.6,0.4,1,1,1,1.7v12.2c0,0.7-0.4,1.4-1,1.7l-10.7,6.1c-0.6,0.3-1.4,0.3-2,0L12,22.9
					c-0.9-0.5-1.5-1.5-1.5-2.5V9.2c0-1,0.6-2,1.5-2.5l9.8-5.6C22.7,0.6,23.8,0.6,24.7,1.1z"/>
			</g>
			<path id="形状" class="st3" d="M15.8,16.5c1.6,0,3-1.3,3-2.9c0-1.6-1.3-2.9-3-2.9c-1.7,0-3,1.3-3,2.9S14.1,16.5,15.8,16.5
				L15.8,16.5z M14.3,17.8c-2.5,0-4.3,1.7-4.3,4.1v0.3c0,1.3,2,1.3,4.5,1.3h2.7c2.4,0,4.5,0,4.5-1.3v-0.3c0-2.4-1.9-4.1-4.3-4.1
				H14.3z"/>
		</g>
	</g>
</g>
</svg>
