<?xml version="1.0" encoding="UTF-8"?>
<svg width="72px" height="72px" viewBox="0 0 72 72" version="1.1" xmlns="http://www.w3.org/2000/svg" xmlns:xlink="http://www.w3.org/1999/xlink">
    <!-- Generator: Sketch 55.2 (78181) - https://sketchapp.com -->
    <title>默认领域通用</title>
    <desc>Created with Sketch.</desc>
    <defs>
        <linearGradient x1="50%" y1="100%" x2="50%" y2="0%" id="linearGradient-1">
            <stop stop-color="#FF6648" offset="0%"></stop>
            <stop stop-color="#FF8C49" offset="100%"></stop>
        </linearGradient>
    </defs>
    <g id="默认领域通用" stroke="none" stroke-width="1" fill="none" fill-rule="evenodd">
        <g id="领域-橙色" transform="translate(8.000000, 8.000000)" fill="url(#linearGradient-1)">
            <path d="M0,13.1564079 C0,5.89048383 5.88930181,0 13.1564079,0 C20.4223319,0 26.3128157,5.88930181 26.3128157,13.1564079 L26.3128157,26.3128157 L13.1564079,26.3128157 C5.89048383,26.3128157 0,20.4235139 0,13.1564079 Z M0,42.8437099 C0,35.5777859 5.88930181,29.687302 13.1564079,29.687302 L26.3128157,29.687302 L26.3128157,42.8437099 C26.3128157,50.1096339 20.4235139,56.0001177 13.1564079,56.0001177 C5.89048383,56.0001177 0,50.1108159 0,42.8437099 Z M29.687302,13.1564079 C29.687302,5.89048383 35.5766039,-2.48689958e-14 42.8437099,-2.48689958e-14 C50.1096339,-2.48689958e-14 56.0001177,5.88930181 56.0001177,13.1564079 C56.0001177,20.4223319 50.1108159,26.3128157 42.8437099,26.3128157 L29.687302,26.3128157 L29.687302,13.1564079 Z M29.687302,29.687302 L42.8437099,29.687302 C50.1096339,29.687302 56.0001177,35.5766039 56.0001177,42.8437099 C56.0001177,50.1096339 50.1108159,56.0001177 42.8437099,56.0001177 C35.5777859,56.0001177 29.687302,50.1108159 29.687302,42.8437099 L29.687302,29.687302 Z" id="形状"></path>
        </g>
    </g>
</svg>