<?xml version="1.0" encoding="utf-8"?>
<!-- Generator: Adobe Illustrator 23.0.0, SVG Export Plug-In . SVG Version: 6.00 Build 0)  -->
<svg version="1.1" id="图层_1" xmlns="http://www.w3.org/2000/svg" xmlns:xlink="http://www.w3.org/1999/xlink" x="0px" y="0px"
	 viewBox="0 0 20 20" style="enable-background:new 0 0 20 20;" xml:space="preserve">
<style type="text/css">
	.st0{fill-rule:evenodd;clip-rule:evenodd;fill:#FF8181;fill-opacity:0;}
	.st1{fill:#111111;}
</style>
<title>桌面宽度icon</title>
<rect id="矩形" x="2" y="2" class="st0" width="16" height="16"/>
<g>
	<path class="st1" d="M14.5,18h-9C3.6,18,2,16.4,2,14.5v-9C2,3.6,3.6,2,5.5,2h9C16.4,2,18,3.6,18,5.5v9C18,16.4,16.4,18,14.5,18z
		 M5.5,3C4.1,3,3,4.1,3,5.5v9C3,15.9,4.1,17,5.5,17h9c1.4,0,2.5-1.1,2.5-2.5v-9C17,4.1,15.9,3,14.5,3H5.5z"/>
</g>
<g>
	<path class="st1" d="M7.5,9h-1C5.7,9,5,8.3,5,7.5v-1C5,5.7,5.7,5,6.5,5h1C8.3,5,9,5.7,9,6.5v1C9,8.3,8.3,9,7.5,9z M6.5,6
		C6.2,6,6,6.2,6,6.5v1C6,7.8,6.2,8,6.5,8h1C7.8,8,8,7.8,8,7.5v-1C8,6.2,7.8,6,7.5,6H6.5z"/>
</g>
<g id="路径-13">
	<path class="st1" d="M5.5,12C5.2,12,5,11.8,5,11.5C5,11.3,5.2,11,5.5,11l9,0c0,0,0,0,0,0c0.3,0,0.5,0.2,0.5,0.5
		c0,0.3-0.2,0.5-0.5,0.5L5.5,12C5.5,12,5.5,12,5.5,12z"/>
</g>
<g id="路径-13备份">
	<path class="st1" d="M5.5,15C5.2,15,5,14.8,5,14.5C5,14.3,5.2,14,5.5,14l5,0c0,0,0,0,0,0c0.3,0,0.5,0.2,0.5,0.5
		c0,0.3-0.2,0.5-0.5,0.5L5.5,15C5.5,15,5.5,15,5.5,15z"/>
</g>
</svg>
