<?xml version="1.0" encoding="utf-8"?>
<!-- Generator: Adobe Illustrator 25.2.3, SVG Export Plug-In . SVG Version: 6.00 Build 0)  -->
<svg version="1.1" id="图层_1" xmlns="http://www.w3.org/2000/svg" xmlns:xlink="http://www.w3.org/1999/xlink" x="0px" y="0px"
	 viewBox="0 0 40 40" style="enable-background:new 0 0 40 40;" xml:space="preserve">
<style type="text/css">
	.st0{fill-rule:evenodd;clip-rule:evenodd;fill:#F0F4FF;fill-opacity:0;}
	.st1{fill-rule:evenodd;clip-rule:evenodd;fill:url(#矩形_1_);}
	.st2{fill:#FFFFFF;}
	.st3{opacity:0.1704;fill-rule:evenodd;clip-rule:evenodd;fill:url(#椭圆形_1_);enable-background:new    ;}
	.st4{fill-rule:evenodd;clip-rule:evenodd;fill:url(#路径_1_);}
</style>
<g id="外部链接" transform="translate(-218.000000, -40.000000)">
	<g id="编组-5" transform="translate(218.000000, 40.000000)">
		<rect id="矩形备份-48" y="0" class="st0" width="40" height="40"/>
		<g id="编组" transform="translate(2.000000, 3.000000)">
			
				<linearGradient id="矩形_1_" gradientUnits="userSpaceOnUse" x1="-270.8055" y1="415.6121" x2="-270.8055" y2="414.6702" gradientTransform="matrix(36 0 0 -18 9767 7481.0171)">
				<stop  offset="0" style="stop-color:#34688E"/>
				<stop  offset="1" style="stop-color:#7297B6"/>
			</linearGradient>
			<path id="矩形" class="st1" d="M2,0h32c1.1,0,2,0.9,2,2v14c0,1.1-0.9,2-2,2H2c-1.1,0-2-0.9-2-2V2C0,0.9,0.9,0,2,0z"/>
			<path id="形状结合" class="st2" d="M3.9,6c0.2,0.1,0.4,0.2,0.5,0.5l1,3.5l1.2-3.5C6.7,6.2,6.9,6,7.2,6c0.3,0,0.6,0.2,0.7,0.5
				l1,3.5l1.2-3.5C10.2,6.1,10.6,5.9,11,6c0.4,0.1,0.6,0.5,0.4,0.9l-1.9,5.6C9.4,12.8,9.1,13,8.8,13h0c-0.3,0-0.6-0.2-0.7-0.5L7.2,9
				L6,12.5C5.9,12.8,5.6,13,5.3,13c-0.3,0-0.6-0.2-0.7-0.5L3,6.9C3,6.6,3,6.4,3.2,6.2S3.6,6,3.9,6z M20.7,6c0.4,0.1,0.6,0.5,0.4,0.9
				l-1.9,5.6c-0.1,0.3-0.4,0.5-0.7,0.5h0c-0.3,0-0.6-0.2-0.7-0.5l-1-3.5l-1.2,3.5C15.6,12.8,15.3,13,15,13c-0.3,0-0.6-0.2-0.7-0.5
				l-1.6-5.6c-0.1-0.2,0-0.5,0.2-0.7S13.3,6,13.6,6c0.2,0.1,0.4,0.2,0.5,0.5l1,3.5l1.2-3.5C16.4,6.2,16.6,6,16.9,6
				c0.3,0,0.6,0.2,0.7,0.5l1,3.5l1.2-3.5C19.9,6.1,20.3,5.9,20.7,6z M26.1,6c0.3,0,0.6,0.2,0.7,0.5l1,3.5l1.2-3.5
				C29,6.2,29.2,6.1,29.4,6c0.2,0,0.5,0,0.7,0.2c0.2,0.2,0.2,0.4,0.1,0.7l-1.9,5.6C28.2,12.8,28,13,27.7,13h0
				c-0.3,0-0.6-0.2-0.7-0.5L26,9l-1.2,3.5c-0.1,0.3-0.4,0.5-0.7,0.5c-0.3,0-0.6-0.2-0.7-0.5l-1.6-5.6c-0.1-0.2,0-0.5,0.2-0.7
				C22.2,6,22.5,6,22.7,6c0.2,0.1,0.4,0.2,0.5,0.5l1,3.5l1.2-3.5C25.5,6.2,25.8,6,26.1,6z M31.3,11.3c0.4,0,0.7,0.3,0.7,0.7
				s-0.3,0.7-0.7,0.7c-0.4,0-0.7-0.3-0.7-0.7S30.9,11.3,31.3,11.3z"/>
			
				<linearGradient id="椭圆形_1_" gradientUnits="userSpaceOnUse" x1="-268.2408" y1="356.6898" x2="-268.2408" y2="357.6898" gradientTransform="matrix(27 0 0 -5 7260 1816.4492)">
				<stop  offset="0" style="stop-color:#34688E"/>
				<stop  offset="1" style="stop-color:#7297B6"/>
			</linearGradient>
			<ellipse id="椭圆形" class="st3" cx="17.5" cy="30.5" rx="13.5" ry="2.5"/>
			
				<linearGradient id="路径_1_" gradientUnits="userSpaceOnUse" x1="-257.6923" y1="417.3398" x2="-256.6923" y2="417.3398" gradientTransform="matrix(13 0 0 -20 3372.0032 8369.7969)">
				<stop  offset="0" style="stop-color:#00C2D1"/>
				<stop  offset="1" style="stop-color:#00D0CA"/>
			</linearGradient>
			<path id="路径" class="st4" d="M29.9,25.4l2.6,5.7c0.1,0.3,0,0.7-0.3,0.8l-2.3,1.1c-0.3,0.1-0.7,0-0.8-0.3l-2.7-5.8l-3.3,3.3
				c-0.2,0.2-0.5,0.2-0.7,0.1C22.2,30.2,22,30,22,29.7V13.6c0-0.3,0.1-0.5,0.4-0.6c0.2-0.1,0.5-0.1,0.7,0.1l11.7,10.7
				c0.2,0.2,0.3,0.4,0.2,0.7c-0.1,0.2-0.3,0.4-0.6,0.4L29.9,25.4z"/>
		</g>
	</g>
</g>
</svg>
