<?xml version="1.0" encoding="utf-8"?>
<!-- Generator: Adobe Illustrator 25.2.3, SVG Export Plug-In . SVG Version: 6.00 Build 0)  -->
<svg version="1.1" id="图层_1" xmlns="http://www.w3.org/2000/svg" xmlns:xlink="http://www.w3.org/1999/xlink" x="0px" y="0px"
	 viewBox="0 0 40 40" style="enable-background:new 0 0 40 40;" xml:space="preserve">
<style type="text/css">
	.st0{fill-rule:evenodd;clip-rule:evenodd;fill:#F0F4FF;fill-opacity:0;}
	.st1{opacity:0.453;fill-rule:evenodd;clip-rule:evenodd;fill:#0076FF;enable-background:new    ;}
	.st2{fill-rule:evenodd;clip-rule:evenodd;fill:#0076FF;}
	.st3{opacity:0.9538;fill-rule:evenodd;clip-rule:evenodd;fill:url(#矩形_1_);enable-background:new    ;}
	.st4{fill:#FFFFFF;}
</style>
<g id="外部链接" transform="translate(-394.000000, -80.000000)">
	<g id="编组-4" transform="translate(394.000000, 80.000000)">
		<rect id="矩形备份-50" y="0" class="st0" width="40" height="40"/>
		<g id="编组-2" transform="translate(1.000000, 1.000000)">
			<circle id="椭圆形" class="st1" cx="18" cy="18.5" r="18.5"/>
			<g id="编组" transform="translate(4.000000, 0.000000)">
				<path id="形状" class="st2" d="M13.6,14.7c0,0,0-0.1-0.1-0.1C13.6,14.6,13.6,14.6,13.6,14.7z M21.8,23.3h-0.2
					C21.6,23.3,21.6,23.4,21.8,23.3z M27.4,5.7c-0.7,0-1.2,0-1.8,0.4c-0.2,0.2-0.4,0.4-0.7,0.4c-0.3,0.1-0.5,0-0.8,0.1
					c-1,0.3-0.8,2.3-2,2c-0.6-0.1-1-0.8-1.3-1.3C20.5,7,20,6.7,20.3,6.2c-0.1,0-0.3,0-0.4,0c0.2-0.4,0.9-0.4,1-0.6
					C21.1,5,20.1,5,19.8,4.9c0.4-0.4,0.5,0.1,0.9,0c0.3-0.1-0.2-0.5-0.4-0.6c-0.1,0-1.3,0.3-0.6-0.3l-2.6-1.6
					C17,3,18.2,3.3,18.6,3.5c-0.1,0.2-0.5,0.6-0.8,0.5s-0.2-0.6-0.6-0.5c-0.3,0.7,0.6,0.5,0.7,0.9c0.3,0.6-0.2,0.4-0.4,0.4
					c0,0-0.4-0.3-0.4-0.1c0,0.3,0.5,0.2,0.6,0.5c-0.6,0-1-0.2-1.5-0.5c-0.6-0.4-0.9-0.3-1.6-0.3c0.2-0.1,0.5-0.1,0.7-0.3
					c0.1-0.1,0.5-0.4,0.5-0.6c0.1-0.4,0-0.3-0.4-0.6c-0.3-0.2-0.7-0.6-1.1-0.7c-1.4-0.3-0.4,1.2-1.5,1.4l0,0h-0.1
					c-0.3,0-0.7-0.1-0.9,0.1c-0.1,0.1-0.1,0.4-0.3,0.6s-0.6,0.3-0.8,0.4c-0.3,0.2-0.8,0.6-1,0.9c-0.6,1,1.3,1.4,2,1.7
					c0.3,0.1,1.2,0.3,1.4,0.6s-0.2,0.6,0.3,0.8c0.1,0.1,0.5,0.1,0.6-0.1c0.2-0.2-0.1-0.3-0.1-0.6c-0.1-0.5,0.1-0.3,0.3-0.5
					c0.5-0.4,0.4-0.4,0.2-1c0.1-0.3-0.2-1.1,0.1-1.4c0.4-0.3,1.2,0.1,1.5,0.2c0.4,0,0.6,0.5,0.8,0.7c0.1,0.1,0.4,0.4,0.6,0.4
					c0.4,0,0.2-0.3,0.4-0.5c0.5-0.4,0.7,0.1,0.9,0.6c0.2,0.5,0.4,0.7,0.8,1c0.2,0.1,0.9,0.7,0.9,1c0,0.2-0.9,0.5-1.1,0.6
					c-0.8,0.3-2.4-0.4-2.6,0.9C17,9.9,18,9.1,18.2,9.5c0.1,0.2-0.1,0.4,0,0.6c0.2,0.5,0.5,0.3,0.9,0.2H19c0.5-0.3,0.5-0.3,0.7-0.7
					C19.8,9.5,19.9,9.1,20,9c0.4-0.3,0.4-0.1,0.7,0.2c0.1,0.1,0.6,0.9,0.4,0.9c-0.7-0.1-1.4-0.1-1.9,0.2c-0.3,0.2-0.6,0.5-1,0.6
					c-0.1,0-0.8,0.1-0.7,0c0.1-0.2,0.5-0.3,0.7-0.5c-0.5-0.2-0.8,0.2-1.2,0.4c-0.4,0.2-0.5,0.5-0.8,0.8c-0.1,0.1-0.4,0.1-0.5,0.3
					s-0.1,0.4-0.3,0.6c-0.1,0.1-0.3,0-0.4,0.2c-0.1,0.2,0.1,0.4,0.1,0.6c-0.1,0.3-0.6,0.5-0.8,0.7l0.1-0.1c-0.2,0.2-0.5,0.4-0.6,0.6
					c0.1,0.3,0.3,1.2,0.3,1.3c-0.2,0.6-0.6-0.3-0.8-0.6c-0.6-0.9-1.7-0.3-2.5-0.2c-1,0.1-2,1.4-1.4,2.4c0.3,0.5,0.8,0.7,1.4,0.6
					c0.5-0.1,0.7-0.8,1.2-0.8c0.9,0,0,0.9-0.1,1.2c-0.1,0.3,0.1,0.3,0.4,0.4c0.2,0.1,0.6-0.1,0.8,0c0.1,0.1,0.1,0.5,0.3,0.4
					c-0.3,0.3-0.3,0.9,0.1,1.2c0.4,0.3,0.8,0,1.3,0.1c0.8,0.2,0.4-0.1,1.1-0.4c0.5-0.3,0.5,0.1,0.8,0.1c0.2,0,0.4-0.3,0.7-0.2
					c0.3,0.1,0.4,0.3,0.8,0.3c0.1,0,0.3-0.1,0.4,0c0.6,0.1,1.1,0.5,1.6,0.8c0.4,0.3,0.7,0.2,1.2,0.4c0.4,0.1,1,0.6,1,1
					c0,0.1-0.3,0.5-0.4,0.7c0.1,0.1,0.7-0.1,0.9-0.1c-0.1,0.1-0.5,0.4-0.5,0.2c0,0.1,0.3,0.2,0.4,0.3c0.2-0.7,0.6-0.2,1-0.1
					s0.8,0.2,1.2,0.2c0.3,0.1,1.1,0.3,1.3,0.6c0.3,0.3,0.1,0.9-0.1,1.2c-0.3,0.4-0.7,0.6-0.9,1.1c-0.1,0.4,0,0.8-0.1,1.2
					c-0.1,0.6-0.2,0.4-0.6,0.8c-0.3,0.3,0,0.2-0.5,0.4c-0.5,0.2-0.9,0.1-1.2,0.6v-0.1c-0.4,0.2-0.4,0.5-0.5,0.7
					c-0.2,0.3-0.4,0.5-0.6,0.8c-0.1,0.1-1,1.3-1,1.2c-0.1-0.1-0.8,0.1-0.8-0.1c0,0.1,0,0.1,0.2,0.2c-0.2,1-0.6,1.1-1.5,1.1
					c0.1,0.5-0.4,0.4-0.5,0.6c-0.1,0.1-0.2,0.6-0.3,0.7c-0.1,0.1-0.4,0.6-0.4,0.7c0,0.1,0.1,0.2,0.3,0.3c-0.7,0.1-1.4,0.2-2.1,0.3
					c0.1-0.2,0.2-0.3-0.3-0.3c0.1-0.3,0.4-0.5,0.5-0.8c0.1-0.1,0-0.2,0.1-0.3c0.1-0.5,0.1-0.3,0-0.7c-0.2-0.9,0.1-1.1,0.3-1.9
					c0.3-0.8,0.2-1.8,0.4-2.7c0.1-0.4,0.2-1.3,0-1.7c-0.2-0.4-0.9-0.8-1.2-1.1c-0.5-0.4-0.7-0.9-1.1-1.4c-0.2-0.3-0.4-0.5-0.5-0.8
					c-0.3-0.6,0-0.2,0-0.6c0-0.3,0-0.7,0.1-1c0.1-0.4,0.5-0.7,0.7-1.1c0.1-0.4,0-0.8-0.4-0.9c-0.2-0.1-0.4,0.1-0.7,0.1
					s-0.6-0.3-0.9-0.4c-0.3-0.2-0.4-0.6-0.8-0.9c-0.3-0.2-0.5-0.1-0.8-0.2s-0.5-0.5-0.8-0.6c-0.4-0.2-0.6,0.1-1,0
					c-0.4,0-0.9-0.4-1.2-0.6C7.3,18,6.9,17.6,6.6,17c-0.2-0.6-0.6-0.8-1-1.3c-0.4-0.5-0.5-0.9-1.2-1c-0.1,0,0.1,0.5,0.2,0.6
					c0.2,0.4,0.5,0.8,0.8,1.1c0.4,0.6,0.2,0.7-0.2,0.1c-0.5-0.6-1-1.2-1.4-1.9c-0.1-0.2-0.1-0.4-0.4-0.6c-0.2-0.2-0.5-0.3-0.8-0.6
					c-0.9-0.8-1-1.8-0.9-2.9c0-0.3,0.2-0.6,0.1-1c0-0.3-0.2-0.5-0.4-0.7c0,0-0.1-0.3-0.1-0.3C1.1,8.1,0.9,7.8,0.6,7.6
					C0.4,7.4-0.1,7.1-0.5,6.8C1.5,4.4,4,2.5,7,1.4c0,0.1,0.1,0.3,0.2,0.4c0.3,0.3,0.5,0.3,0.9,0.4c0,0.5-0.7,0.5-1.1,0.5
					C6.4,2.6,5.9,2.4,5.5,2.9C5.7,3,6.4,3.6,6.3,3c0.5,0,1,0,1.5,0c0.2,0,0.8,0.2,1,0.1c0.1,0,0.1-0.4,0.2-0.5
					c-0.1,0-0.3-0.1-0.4-0.1c0.3-0.4,0.6-0.1,1,0.1C9.2,3,9.5,3.6,9.9,3.1c0.4-0.4-0.1-0.7-0.5-1c0.5-0.6,0.8-0.6,1.2,0
					c0.1-0.4,0.4-0.2,0.7-0.2V1.8c-0.1,0-0.3-0.1-0.5-0.1c0.4-0.5,0.1-0.7,0.6-0.8c0.4-0.1,1.5,0,1.7-0.4c-0.8,0.1-1.7,0.2-2.4,0.5
					c-0.3,0.1-0.7,0.6-1,0.3s0.2-0.8,0.5-1h-0.1C11.4,0.1,12.7,0,14,0c0.9,0,1.7,0.1,2.5,0.2c-0.3,0.1-0.1,0.2-0.3,0.4
					c-0.4,0.3-1.1,0.5-1.6,0.7c0.6,0,2,0.6,2.3-0.3l-0.6-0.1c0.4-0.2,0.8-0.4,1.2-0.6C21.4,1.1,24.8,3,27.4,5.7L27.4,5.7z
					 M30.7,12.9c0-0.1,0.1-0.1,0.1-0.2c0.1-0.1,0.1-0.2,0.1-0.3c0.1-0.1,0.2-0.1,0.3-0.2l0.1-0.1c0.3,0.9,0.6,1.7,0.7,2.6l0,0
					c0,0-0.3,0.1-0.4,0.1c-0.2,0-0.4-0.1-0.5-0.3c-0.1-0.1-0.3-0.3-0.4-0.5s0-0.4,0-0.6C30.7,13.2,30.7,13,30.7,12.9L30.7,12.9z
					 M31,22.2c-0.4-0.3-0.8-0.7-1-1.1c-0.3-0.4-0.1-0.9-0.1-1.3s-0.2-1,0-1.3c0.1-0.2,0.3-0.2,0.3-0.4c0.2-0.3,0.1-0.5,0.3-0.7
					c0.2-0.3,0.5-0.3,0.7-0.6c0.3-0.2,0.3-0.4,0.4-0.7c0.1-0.2,0.4-0.6,0.6-0.7c0.1,0.9,0.2,1.8,0.2,2.7c0,1.6-0.2,3.2-0.6,4.7
					C31.5,22.7,31.2,22.4,31,22.2L31,22.2z"/>
			</g>
			<g id="编组-3" transform="translate(8.000000, 18.000000)">
				
					<linearGradient id="矩形_1_" gradientUnits="userSpaceOnUse" x1="-553.6451" y1="54.4667" x2="-553.6451" y2="53.4667" gradientTransform="matrix(31 0 0 15 17178 -801.9998)">
					<stop  offset="0" style="stop-color:#FF8E00"/>
					<stop  offset="1" style="stop-color:#FFB500"/>
				</linearGradient>
				<path id="矩形" class="st3" d="M1.2,0h27.6c0.9,0,1.7,0.8,1.7,1.7v11.6c0,0.9-0.8,1.7-1.7,1.7H1.2c-0.9,0-1.7-0.8-1.7-1.7V1.7
					C-0.5,0.8,0.3,0,1.2,0z"/>
				<path id="形状结合" class="st4" d="M2.8,5C3,5.1,3.2,5.2,3.2,5.4l0.9,2.9l1-2.9C5.2,5.2,5.5,5,5.7,5C6,5,6.2,5.2,6.3,5.4
					l0.9,2.9l1-2.9C8.3,5.1,8.6,4.9,8.9,5s0.5,0.4,0.4,0.7l-1.6,4.7c-0.1,0.2-0.3,0.4-0.6,0.4l0,0c-0.3,0-0.5-0.2-0.6-0.4L5.7,7.5
					l-1,2.9c-0.1,0.2-0.3,0.4-0.6,0.4c-0.3,0-0.5-0.2-0.6-0.4L2.1,5.7C2,5.5,2.1,5.3,2.2,5.1C2.4,5,2.6,5,2.8,5z M17.3,5
					c0.3,0.1,0.5,0.4,0.4,0.7l-1.6,4.7c-0.1,0.2-0.3,0.4-0.6,0.4l0,0c-0.3,0-0.5-0.2-0.6-0.4L14,7.5l-1,2.9
					c-0.1,0.2-0.3,0.4-0.6,0.4s-0.5-0.2-0.6-0.4l-1.3-4.7c-0.1-0.2,0-0.4,0.1-0.6C10.8,5,11,5,11.2,5s0.4,0.2,0.4,0.4l0.9,2.9l1-2.9
					C13.6,5.2,13.8,5,14.1,5s0.5,0.2,0.6,0.4l0.8,2.9l1-2.9C16.6,5.1,17,4.9,17.3,5z M25.4,5.2c0.1,0.2,0.2,0.4,0.1,0.6l-1.6,4.7
					c-0.1,0.2-0.3,0.4-0.6,0.4l0,0c-0.3,0-0.5-0.2-0.6-0.4l-0.9-2.9l-1,2.9c-0.1,0.2-0.3,0.4-0.6,0.4c-0.3,0-0.5-0.2-0.6-0.4
					l-1.4-4.7c-0.1-0.2,0-0.4,0.1-0.6C18.6,5,18.8,5,19,5s0.4,0.2,0.4,0.4l0.9,2.9l1-2.9C21.4,5.2,21.7,5,21.9,5
					c0.3,0,0.5,0.2,0.6,0.4l0.9,2.9l1-2.9c0.1-0.2,0.2-0.3,0.4-0.4S25.3,5,25.4,5.2z M26.5,9.4c0.3,0,0.6,0.3,0.6,0.6
					s-0.3,0.6-0.6,0.6s-0.6-0.3-0.6-0.6S26.1,9.4,26.5,9.4z"/>
			</g>
		</g>
	</g>
</g>
</svg>
