<?xml version="1.0" encoding="utf-8"?>
<!-- Generator: Adobe Illustrator 25.2.3, SVG Export Plug-In . SVG Version: 6.00 Build 0)  -->
<svg version="1.1" id="图层_1" xmlns="http://www.w3.org/2000/svg" xmlns:xlink="http://www.w3.org/1999/xlink" x="0px" y="0px"
	 viewBox="0 0 40 40" style="enable-background:new 0 0 40 40;" xml:space="preserve">
<style type="text/css">
	.st0{fill-rule:evenodd;clip-rule:evenodd;fill:#F0F4FF;fill-opacity:0;}
	.st1{fill:url(#path-5_2_);}
	.st2{fill-rule:evenodd;clip-rule:evenodd;fill:url(#path-5_3_);}
	.st3{opacity:0.4906;fill:url(#形状结合_3_);enable-background:new    ;}
	.st4{fill-rule:evenodd;clip-rule:evenodd;fill:url(#矩形备份-17_1_);}
	.st5{opacity:0.3527;}
	.st6{fill:url(#path-10_2_);}
	.st7{opacity:0.6509;}
	.st8{fill:url(#path-10_3_);}
	.st9{fill-rule:evenodd;clip-rule:evenodd;fill:url(#矩形备份-14_1_);}
	.st10{opacity:0.6509;fill:url(#形状结合_4_);enable-background:new    ;}
	.st11{fill-rule:evenodd;clip-rule:evenodd;fill:url(#矩形备份-18_2_);}
	.st12{fill-rule:evenodd;clip-rule:evenodd;fill:url(#矩形备份-18_3_);}
	.st13{fill:#9097FF;}
</style>
<g id="外部链接_1_" transform="translate(-308.000000, -40.000000)">
	<g id="编组-6" transform="translate(308.000000, 40.000000)">
		<rect id="矩形备份-49" y="0" class="st0" width="40" height="40"/>
		<g id="外部链接" transform="translate(2.000000, 2.000000)">
			<g id="编组-23" transform="translate(0.000000, -0.000000)">
				<g transform="translate(0.000000, -0.000000)">
					<g id="编组-21" transform="translate(0.000000, -0.000000)">
						<g id="编组-3备份-2" transform="translate(0.000000, -0.000000)">
							<g id="矩形备份-11" transform="translate(0.000000, 13.889392)">
								<g id="path-5-link" transform="translate(0.000000, -0.000000)">
									
										<linearGradient id="path-5_2_" gradientUnits="userSpaceOnUse" x1="-270.2109" y1="405.1679" x2="-270.2401" y2="404.7263" gradientTransform="matrix(33.4664 0 0 -20.5473 9060.1289 8331.6035)">
										<stop  offset="0" style="stop-color:#C9CED6"/>
										<stop  offset="1" style="stop-color:#AEB4BF"/>
									</linearGradient>
									<path id="path-5" class="st1" d="M1.9,0h28.1c1,0,1.8,0.7,1.9,1.7l1.6,16.8c0.1,1-0.7,1.9-1.7,2c-0.1,0-0.1,0-0.2,0H3.5
										c-1,0-1.8-0.7-1.9-1.7L0,2.1c-0.1-1,0.7-1.9,1.7-2C1.7,0,1.8,0,1.9,0z"/>
								</g>
								<g id="path-5-link_1_" transform="translate(0.000000, -0.000000)">
									
										<linearGradient id="path-5_3_" gradientUnits="userSpaceOnUse" x1="-270.1407" y1="404.8898" x2="-270.4687" y2="405.2668" gradientTransform="matrix(33.4664 0 0 -20.5473 9060.1289 8331.6035)">
										<stop  offset="0" style="stop-color:#F99432"/>
										<stop  offset="1" style="stop-color:#FFB940"/>
									</linearGradient>
									<path id="path-5_1_" class="st2" d="M1.9,0h28.1c1,0,1.8,0.7,1.9,1.7l1.6,16.8c0.1,1-0.7,1.9-1.7,2c-0.1,0-0.1,0-0.2,0H3.5
										c-1,0-1.8-0.7-1.9-1.7L0,2.1c-0.1-1,0.7-1.9,1.7-2C1.7,0,1.8,0,1.9,0z"/>
								</g>
							</g>
							
								<linearGradient id="形状结合_3_" gradientUnits="userSpaceOnUse" x1="-261.7297" y1="410.1133" x2="-261.8938" y2="408.9796" gradientTransform="matrix(16.5958 0 0 -13.9119 4355.77 5719.6211)">
								<stop  offset="0" style="stop-color:#939CAB;stop-opacity:0"/>
								<stop  offset="1" style="stop-color:#8790A1"/>
							</linearGradient>
							<path id="形状结合" class="st3" d="M12.7,14.8l6.5,13.9L5.6,28.4l-3-13.6c0,0,0.1,0,0.1,0c0,0,0.1,0,0.1,0H12.7z"/>
							
								<linearGradient id="矩形备份-17_1_" gradientUnits="userSpaceOnUse" x1="-266.9457" y1="412.2932" x2="-266.9457" y2="411.2961" gradientTransform="matrix(13.6914 -3.6686 -4.4674 -16.6727 5505.0244 5900.665)">
								<stop  offset="0" style="stop-color:#EDEDED"/>
								<stop  offset="0.2765" style="stop-color:#FCF9F9"/>
								<stop  offset="1" style="stop-color:#FFF5E5"/>
							</linearGradient>
							<path id="矩形备份-17" class="st4" d="M3.3,7.3l10.1-2.7c1-0.3,2,0.3,2.3,1.3c0,0,0,0,0,0l3.5,13c0.3,1-0.3,2-1.3,2.3
								L7.7,23.9c-1,0.3-2-0.3-2.3-1.3c0,0,0,0,0,0l-3.5-13C1.7,8.6,2.3,7.5,3.3,7.3z"/>
							<g id="形状结合_1_" transform="translate(3.096014, 4.490668)" class="st5">
								<g id="path-10-link" transform="translate(0.000000, 0.000000)">
									
										<linearGradient id="path-10_2_" gradientUnits="userSpaceOnUse" x1="-264.2239" y1="413.192" x2="-264.3153" y2="412.6534" gradientTransform="matrix(16.0461 0 0 -18.9114 4249.5288 7814.0986)">
										<stop  offset="0" style="stop-color:#FFFFFF"/>
										<stop  offset="1" style="stop-color:#AEB4BF"/>
									</linearGradient>
									<path id="path-10" class="st6" d="M12.5,1.4C12.5,1.4,12.5,1.4,12.5,1.4l3.5,13c0.3,1-0.3,2-1.3,2.3l-6.4,1.7
										c-2.1,0.2-4,0.3-5.5,0.5c-0.2-0.2-0.4-0.5-0.4-0.8l0,0L0,9.4c0.3-0.7,1-1.1,1.7-1.1l0,0h5.1l2.2-8l1.1-0.3
										C11.2-0.2,12.2,0.4,12.5,1.4z"/>
								</g>
								<g id="path-10-link_1_" transform="translate(0.000000, 0.000000)" class="st7">
									
										<linearGradient id="path-10_3_" gradientUnits="userSpaceOnUse" x1="-264.3951" y1="413.1919" x2="-264.3082" y2="412.2955" gradientTransform="matrix(16.0461 0 0 -18.9114 4249.5288 7814.0986)">
										<stop  offset="0" style="stop-color:#939CAB;stop-opacity:0"/>
										<stop  offset="1" style="stop-color:#CED183"/>
									</linearGradient>
									<path id="path-10_1_" class="st8" d="M12.5,1.4C12.5,1.4,12.5,1.4,12.5,1.4l3.5,13c0.3,1-0.3,2-1.3,2.3l-6.4,1.7
										c-2.1,0.2-4,0.3-5.5,0.5c-0.2-0.2-0.4-0.5-0.4-0.8l0,0L0,9.4c0.3-0.7,1-1.1,1.7-1.1l0,0h5.1l2.2-8l1.1-0.3
										C11.2-0.2,12.2,0.4,12.5,1.4z"/>
								</g>
							</g>
							
								<linearGradient id="矩形备份-14_1_" gradientUnits="userSpaceOnUse" x1="-259.7406" y1="425.9063" x2="-259.7406" y2="424.9132" gradientTransform="matrix(19.1208 5.1234 6.2955 -23.4952 2309.2468 11340.251)">
								<stop  offset="0" style="stop-color:#EBEBEB"/>
								<stop  offset="0.2765" style="stop-color:#FFFFFF"/>
								<stop  offset="1" style="stop-color:#FFF5E5"/>
							</linearGradient>
							<path id="矩形备份-14" class="st9" d="M16.4,0.5l15.5,4.2c1,0.3,1.6,1.3,1.3,2.3l-5.3,19.9c-0.3,1-1.3,1.6-2.3,1.3
								c0,0,0,0,0,0L10.1,24c-1-0.3-1.6-1.3-1.3-2.3l5.3-19.9C14.4,0.8,15.4,0.2,16.4,0.5C16.4,0.5,16.4,0.5,16.4,0.5z"/>
							
								<linearGradient id="形状结合_4_" gradientUnits="userSpaceOnUse" x1="-265.9042" y1="412.4743" x2="-265.7834" y2="412.0334" gradientTransform="matrix(21.8647 0 0 -15.333 5831.9849 6340.0508)">
								<stop  offset="0" style="stop-color:#939CAB;stop-opacity:0"/>
								<stop  offset="1" style="stop-color:#CED183"/>
							</linearGradient>
							<path id="形状结合_2_" class="st10" d="M19.5,11.5l3.7,5.2l7.5,0l-2.7,10.2h-7.3l-10.4-2.8c-1-0.3-1.6-1.3-1.3-2.3
								l2.7-10.2H19.5z"/>
							
								<linearGradient id="矩形备份-18_2_" gradientUnits="userSpaceOnUse" x1="-270.3255" y1="419.6292" x2="-270.3255" y2="418.6414" gradientTransform="matrix(33.8858 0 0 -20.8328 9179.2637 8755.9258)">
								<stop  offset="0" style="stop-color:#FFDE89"/>
								<stop  offset="1.212167e-02" style="stop-color:#FFD977"/>
								<stop  offset="1" style="stop-color:#FFB940"/>
							</linearGradient>
							<path id="矩形备份-18" class="st11" d="M6.2,13.6h13.3l0,0l3.1,4.5h11.5c1,0,1.9,0.8,1.9,1.9c0,0.1,0,0.2,0,0.3l-2.1,13
								c-0.1,0.7-0.7,1.2-1.4,1.2H3.3c-0.6,0-1.2-0.5-1.2-1.2c0,0,0-0.1,0-0.1l2.2-17.9C4.5,14.3,5.3,13.6,6.2,13.6z"/>
							
								<linearGradient id="矩形备份-18_3_" gradientUnits="userSpaceOnUse" x1="-270.325" y1="418.6414" x2="-270.325" y2="419.6251" gradientTransform="matrix(33.8837 0 0 -20.8328 9178.668 8755.9258)">
								<stop  offset="0" style="stop-color:#FFE8D1"/>
								<stop  offset="1" style="stop-color:#FFF8EC"/>
							</linearGradient>
							<path id="矩形备份-18_1_" class="st12" d="M19.6,13.6l3.1,4.5h11.5c1,0,1.9,0.8,1.9,1.9c0,0.1,0,0.2,0,0.3l-2.1,13
								c-0.1,0.7-0.7,1.2-1.4,1.2H3.3c-0.6,0-1.2-0.5-1.2-1.2c0,0,0-0.1,0-0.1l2.2-17.9c0.1-0.9,0.9-1.6,1.9-1.6H19.6z M19.5,13.7
								H6.2c-0.9,0-1.6,0.6-1.7,1.5l0,0L2.2,33.1c0,0,0,0.1,0,0.1c0,0.6,0.5,1.1,1,1.1l0,0h29.2c0.6,0,1.2-0.5,1.3-1.1l0,0l2.1-13
								c0-0.1,0-0.2,0-0.3c0-1-0.8-1.8-1.7-1.8l0,0H22.6L19.5,13.7z"/>
						</g>
					</g>
				</g>
			</g>
			<path id="形状" class="st13" d="M18,9.7L18,9.7c-0.2-0.1-0.3-0.2-0.3-0.3l-0.1-1.6L16.5,9c-0.1,0.1-0.3,0.1-0.4,0.1
				c-0.2-0.1-0.3-0.2-0.3-0.3l-0.2-2.6c0-0.1,0.1-0.2,0.2-0.3c0.1,0,0.3,0,0.4,0c0.1,0.1,0.2,0.2,0.2,0.3l0.1,1.6l1.1-1.2
				c0.1-0.1,0.2-0.1,0.4-0.1c0.2,0.1,0.3,0.2,0.3,0.3l0.1,1.6l1.1-1.2c0.1-0.1,0.3-0.1,0.5,0c0.2,0.1,0.2,0.3,0.1,0.4l-1.7,2
				C18.3,9.7,18.1,9.7,18,9.7z M23.1,11.2L23.1,11.2c-0.2-0.1-0.3-0.2-0.3-0.3l-0.1-1.6l-1.1,1.2c-0.1,0.1-0.3,0.1-0.4,0.1
				c-0.2-0.1-0.3-0.2-0.3-0.3l-0.2-2.6c0-0.1,0.1-0.2,0.2-0.2c0.1,0,0.3,0,0.4,0c0.1,0.1,0.2,0.2,0.2,0.3l0.1,1.6l1.1-1.2
				c0.1-0.1,0.3-0.1,0.4-0.1c0.2,0.1,0.3,0.2,0.3,0.3l0.1,1.6l1.1-1.2c0.1-0.1,0.3-0.1,0.5,0s0.2,0.3,0.1,0.4l-1.7,2
				C23.4,11.3,23.2,11.3,23.1,11.2L23.1,11.2z M27.9,12.7L27.9,12.7c-0.2-0.1-0.3-0.2-0.3-0.3l-0.1-1.6l-1.1,1.2
				c-0.1,0.1-0.3,0.1-0.4,0.1c-0.2-0.1-0.3-0.2-0.3-0.3l-0.2-2.6c0-0.1,0.1-0.2,0.2-0.2c0.1,0,0.3,0,0.4,0c0.1,0.1,0.2,0.2,0.2,0.3
				l0.1,1.6l1.1-1.2c0.1-0.1,0.3-0.1,0.4-0.1c0.2,0.1,0.3,0.2,0.3,0.3l0.1,1.6l1.1-1.2c0.1-0.1,0.2-0.1,0.3-0.1
				c0.1,0,0.3,0.1,0.3,0.2c0.1,0.1,0.1,0.2,0,0.3l-1.7,2C28.2,12.7,28,12.8,27.9,12.7L27.9,12.7z"/>
		</g>
	</g>
</g>
</svg>
