<?xml version="1.0" encoding="utf-8"?>
<!-- Generator: Adobe Illustrator 25.2.3, SVG Export Plug-In . SVG Version: 6.00 Build 0)  -->
<svg version="1.1" id="图层_1" xmlns="http://www.w3.org/2000/svg" xmlns:xlink="http://www.w3.org/1999/xlink" x="0px" y="0px"
	 viewBox="0 0 40 40" style="enable-background:new 0 0 40 40;" xml:space="preserve">
<style type="text/css">
	.st0{fill-rule:evenodd;clip-rule:evenodd;fill:#F0F4FF;fill-opacity:0;}
	.st1{fill-rule:evenodd;clip-rule:evenodd;fill:#0076FF;}
</style>
<g id="外部链接" transform="translate(-38.000000, -40.000000)">
	<g id="编组-2" transform="translate(38.000000, 40.000000)">
		<rect id="矩形备份-46" y="0" class="st0" width="40" height="40"/>
		<path id="形状备份-3" class="st1" d="M37,20.8c0,0.6,0,1.3-0.1,2H15c0,3.8,3.3,6.7,7,6.7c2.5,0,4.9-1.3,6.1-3.5h8
			c-2.2,6.2-7.9,10.4-14.4,10.4c-2.3,0-4.6-0.5-6.7-1.6C12.8,35.8,9.9,37,7.5,37C4.2,37,3,35,3,31.9c0-1.8,0.4-3.5,0.9-5.3
			c0.2-1.1,1.5-3.4,2.1-4.5c2.3-4.2,5.3-8.5,9-11.7c-2.9,1.3-6.1,4.5-8.1,6.8c1.5-7,7.7-12,14.8-12h0.9C24.9,4.2,28.3,3,30.9,3
			c3,0,5.7,1.2,5.7,4.7c0,1.8-0.7,3.8-1.5,5.6C36.4,15.6,37,18.2,37,20.8L37,20.8z M35.7,8.5c0-2.2-1.5-3.5-3.6-3.5
			c-1.6,0-3.4,0.6-4.9,1.3c3.2,1.3,5.7,3.5,7.4,6.3C35.2,11.4,35.7,9.8,35.7,8.5L35.7,8.5z M5.4,32.3c0,2.3,1.3,3.5,3.5,3.5
			c1.7,0,3.6-0.7,5-1.6c-3.2-1.9-5.5-4.8-6.6-8.2C6.4,27.7,5.4,30.2,5.4,32.3z M15,18.5h13.8c-0.1-3.7-3.4-6.4-6.9-6.4
			C18.3,12.2,15.1,14.9,15,18.5z"/>
	</g>
</g>
</svg>
