<?xml version="1.0" encoding="utf-8"?>
<!-- Generator: Adobe Illustrator 23.0.0, SVG Export Plug-In . SVG Version: 6.00 Build 0)  -->
<svg version="1.1" id="图层_1" xmlns="http://www.w3.org/2000/svg" xmlns:xlink="http://www.w3.org/1999/xlink" x="0px" y="0px"
	 viewBox="0 0 48 48" style="enable-background:new 0 0 48 48;" xml:space="preserve">
<style type="text/css">
	.st0{fill:#C6CCD7;}
	.st1{fill-rule:evenodd;clip-rule:evenodd;fill:#C6CCD7;}
</style>
<title>固定宽度</title>
<g id="页面-1">
	<g id="固定宽度">
		<g id="矩形备份-38">
			<path class="st0" d="M44,48H4c-2.2,0-4-1.8-4-4V4c0-2.2,1.8-4,4-4h40c2.2,0,4,1.8,4,4v40C48,46.2,46.2,48,44,48z M4,2
				C2.9,2,2,2.9,2,4v40c0,1.1,0.9,2,2,2h40c1.1,0,2-0.9,2-2V4c0-1.1-0.9-2-2-2H4z"/>
		</g>
		<g id="矩形">
			<path class="st1" d="M3,0h42c1.7,0,3,1.3,3,3v10l0,0H0V3C0,1.3,1.3,0,3,0z"/>
		</g>
		<g id="路径-12备份">
			<path class="st0" d="M11,36.7c-0.3,0-0.5-0.1-0.7-0.3l-5.7-5.7c-0.4-0.4-0.4-1,0-1.4l5.7-5.7c0.4-0.4,1-0.4,1.4,0s0.4,1,0,1.4
				L6.8,30l4.9,5c0.4,0.4,0.4,1,0,1.4C11.5,36.6,11.3,36.7,11,36.7z"/>
		</g>
		<g id="路径-12备份-5">
			<path class="st0" d="M37,36.7c-0.3,0-0.5-0.1-0.7-0.3c-0.4-0.4-0.4-1,0-1.4l5-5l-5-4.9c-0.4-0.4-0.4-1,0-1.4s1-0.4,1.4,0l5.7,5.7
				c0.2,0.2,0.3,0.4,0.3,0.7s-0.1,0.5-0.3,0.7l-5.7,5.7C37.5,36.6,37.3,36.7,37,36.7z"/>
		</g>
		<g id="路径-14">
			<path class="st0" d="M37,31H11c-0.6,0-1-0.4-1-1s0.4-1,1-1h26c0.6,0,1,0.4,1,1S37.6,31,37,31z"/>
		</g>
	</g>
</g>
</svg>
