<?xml version="1.0" encoding="UTF-8"?>
<svg width="72px" height="72px" viewBox="0 0 72 72" version="1.1" xmlns="http://www.w3.org/2000/svg" xmlns:xlink="http://www.w3.org/1999/xlink">
    <!-- Generator: Sketch 55.2 (78181) - https://sketchapp.com -->
    <title>共享服务</title>
    <desc>Created with Sketch.</desc>
    <defs>
        <linearGradient x1="50%" y1="-2.51534904e-15%" x2="50%" y2="99.1040797%" id="linearGradient-1">
            <stop stop-color="#8ED8A9" offset="0%"></stop>
            <stop stop-color="#38BD6A" offset="100%"></stop>
        </linearGradient>
    </defs>
    <g id="共享服务" stroke="none" stroke-width="1" fill="none" fill-rule="evenodd">
        <path d="M17,19.125 L44.875,19.125 C49.293278,19.125 52.875,22.706722 52.875,27.125 L52.875,55 C52.875,59.418278 49.293278,63 44.875,63 L17,63 C12.581722,63 9,59.418278 9,55 L9,27.125 C9,22.706722 12.581722,19.125 17,19.125 Z M34.6977066,53.3929472 C37.1523501,53.3929472 39.1489329,51.3965735 39.1489329,48.9416791 C39.1489329,46.4866593 37.1547337,44.4915401 34.6987102,44.4915401 C33.459178,44.4915401 32.4234188,44.830674 31.6156864,45.650826 L27.8557329,42.7325183 C28.1706967,42.1217428 28.1938631,41.6119548 28.1938631,40.8788234 C28.1938631,40.4412947 28.1115678,40.0273925 27.9936863,39.6290879 L31.7680248,37.3962405 C32.5572324,38.1061635 33.5035456,38.3776379 34.6454775,38.3776379 C37.1002883,38.3776379 39.0966619,36.3811806 39.0966619,33.9261607 C39.0966619,31.4712663 37.1003301,29.4748508 34.6454775,29.4748508 C32.1905413,29.4748508 30.1939167,31.4712663 30.1939167,33.9261607 C30.1939167,34.4325616 30.2974968,34.7395384 30.4531806,35.1936684 L26.7756897,37.451564 C25.9708845,36.6590529 24.9567027,36.3399074 23.7413824,36.3399074 C21.286488,36.3399074 19.2901561,38.3362811 19.2901561,40.7912591 C19.2901561,43.2461535 21.286488,45.2426945 23.7413824,45.2426945 C24.6338774,45.2426945 25.376752,45.1458469 26.0745064,44.691926 L30.426376,47.9290864 C30.3205378,48.3097025 30.246104,48.7013583 30.246104,49.1142569 C30.246104,51.5692349 32.2425195,53.3929472 34.6977066,53.3929472 Z" id="形状结合" fill="url(#linearGradient-1)"></path>
        <path d="M55.8161934,52.875 L55.8161934,18.75 C55.8161934,17.0931458 54.4730476,15.75 52.8161934,15.75 L18.6911934,15.75 L18.6911934,14 C18.6911934,11.2385763 20.9297696,9 23.6911934,9 L57.5661934,9 C60.3276171,9 62.5661934,11.2385763 62.5661934,14 L62.5661934,47.875 C62.5661934,50.6364237 60.3276171,52.875 57.5661934,52.875 L55.8161934,52.875 Z" id="形状结合" fill="url(#linearGradient-1)"></path>
    </g>
</svg>