<?xml version="1.0" encoding="UTF-8"?>
<svg width="72px" height="72px" viewBox="0 0 72 72" version="1.1" xmlns="http://www.w3.org/2000/svg" xmlns:xlink="http://www.w3.org/1999/xlink">
    <!-- Generator: Sketch 55.2 (78181) - https://sketchapp.com -->
    <title>管理会计</title>
    <desc>Created with Sketch.</desc>
    <defs>
        <linearGradient x1="50%" y1="100%" x2="50%" y2="-2.48949813e-15%" id="linearGradient-1">
            <stop stop-color="#00DFE1" offset="0%"></stop>
            <stop stop-color="#01C2CC" offset="100%"></stop>
        </linearGradient>
    </defs>
    <g id="管理会计" stroke="none" stroke-width="1" fill="none" fill-rule="evenodd">
        <g id="编组-2" transform="translate(7.000000, 10.000000)">
            <g id="编组" fill="url(#linearGradient-1)">
                <g id="委贷资金池归集明细查询">
                    <g id="会计应付管理" transform="translate(29.000000, 25.250000) scale(1, -1) translate(-29.000000, -25.250000) translate(0.000000, 0.250000)">
                        <path d="M50,-2.57299624e-15 C54.418278,-2.30245474e-15 58,3.581722 58,8 L58,42 C58,46.418278 54.418278,50 50,50 L8,50 C3.581722,50 0,46.418278 0,42 L-7.10542736e-15,8 C-7.10542736e-15,3.581722 3.581722,2.29997882e-15 8,2.57052032e-15 L50,-2.57299624e-15 Z M12.8562133,14.4611328 C11.9918773,15.5067187 12.0587133,17.2591797 13.0125414,18.1767578 C15.1932055,20.2815234 18.9190258,23.3696056 21.3409789,23.3696056 C24.9603148,23.3718359 37.3453539,23.2676172 38.0771508,22.3375781 C38.788557,21.4335937 38.1813695,18.6412109 34.7092992,18.3319531 C32.2023852,18.1087891 29.1166039,18.1427734 27.4434398,18.0521484 C27.1387133,18.0340234 27.0526195,17.5310547 27.3256273,17.3622656 C28.6430883,16.5511719 31.2519555,15.2586328 34.366057,15.3911719 C36.9624633,15.5033203 39.4263305,16.8434375 41.3736352,18.9651953 C42.9844945,20.7165234 45.4291039,23.1645312 46.5290648,23.1645312 C47.337893,23.1645312 47.8680492,22.9912109 48.2022289,22.8099609 C48.4944945,22.6502344 48.594182,22.199375 48.3982055,21.8867187 C47.1373852,19.86125 42.1450805,12.303125 36.6543383,10.2957812 C32.0891039,8.62488281 27.0265648,9.19355469 24.5355102,9.64554687 C23.4944555,9.83472656 22.4443383,9.53339844 21.5788695,8.79820312 L20.5684008,7.93726562 C19.7776977,7.264375 18.7128539,7.37992187 18.0263695,8.20800781 L12.8562133,14.4588672 L12.8562133,14.4611328 Z M37.550393,34.1210938 C37.550393,30.883172 35.8229823,27.8912088 33.0188598,26.2722479 C30.2147373,24.653287 26.7599158,24.653287 23.9557933,26.2722479 C21.1516708,27.8912088 19.4242602,30.883172 19.4242602,34.1210938 C19.4242602,39.1261743 23.4816796,43.1835938 28.4867602,43.1835938 C33.4918407,43.1835938 37.5492602,39.1261743 37.5492602,34.1210938 L37.550393,34.1210938 Z M30.4771117,35.2890234 L31.5783121,37.4687372 C31.5898943,37.491663 31.6004119,37.5151114 31.6098313,37.5390074 C31.778846,37.9677813 31.5682697,38.4523848 31.1394958,38.6213995 C30.6618987,38.8096595 30.120456,38.5916489 29.9065705,38.1249651 L28.4946898,35.0443359 L27.0884916,38.1734814 C26.8928329,38.6088713 26.3849615,38.8079102 25.945575,38.6213995 C25.9393863,38.6187726 25.9332295,38.6160713 25.9271058,38.6132963 C25.5052232,38.4221158 25.3182022,37.9251301 25.5093827,37.5032475 L26.512268,35.2901563 L26.1724242,35.2901563 C25.7970432,35.2901563 25.4927367,34.9858498 25.4927367,34.6104688 C25.4927367,34.2350877 25.7970432,33.9307813 26.1724242,33.9307813 L27.5544555,33.9307813 L27.5567211,32.5600781 L26.1724242,32.5600781 C25.7970432,32.5600781 25.4927367,32.2557717 25.4927367,31.8803906 C25.4927367,31.5050096 25.7970432,31.2007031 26.1724242,31.2007031 L27.5544555,31.2007031 L27.5544555,30.2230859 C27.5544555,29.7044345 27.9749056,29.2839844 28.493557,29.2839844 C29.0122085,29.2839844 29.4326586,29.7044345 29.4326586,30.2230859 L29.4326586,31.2007031 L30.8033617,31.2007031 C31.1787428,31.2007031 31.4830492,31.5050096 31.4830492,31.8803906 C31.4830492,32.2557717 31.1787428,32.5600781 30.8033617,32.5600781 L29.4326586,32.5600781 L29.4326586,33.9307813 L30.8039281,33.9307813 C31.1789963,33.9307813 31.4830492,34.2348341 31.4830492,34.6099023 C31.4830492,34.9849706 31.1789963,35.2890234 30.8039281,35.2890234 L30.4771117,35.2890234 Z M36.5467211,42.8267578 C40.4062133,41.6576953 43.5509008,37.2759766 43.1736742,33.2624219 C42.7309599,28.6109959 38.8244024,25.0585938 34.1519555,25.0585938 C33.5708227,25.0585938 33.0032836,25.1175 32.4527367,25.2228516 C36.644143,26.0192188 39.816018,29.6974609 39.816018,34.1210938 C39.816018,38.4371094 36.794807,42.04625 32.7517992,42.9570313 C32.6894945,42.970625 32.6883617,43.0601172 32.7517992,43.0703125 C34.0186977,43.2815162 35.3172149,43.1981786 36.5467211,42.8267578 Z" id="形状结合"></path>
                    </g>
                </g>
            </g>
            <g id="资金支付通道" transform="translate(12.250000, 6.500000)" fill="#000000" fill-rule="nonzero" opacity="0">
                <rect id="矩形" x="0" y="0" width="36.25" height="36.25"></rect>
            </g>
        </g>
    </g>
</svg>