<?xml version="1.0" encoding="UTF-8"?>
<svg width="40px" height="40px" viewBox="0 0 40 40" version="1.1" xmlns="http://www.w3.org/2000/svg" xmlns:xlink="http://www.w3.org/1999/xlink">
    <!-- Generator: Sketch 55.2 (78181) - https://sketchapp.com -->
    <title>工业风</title>
    <desc>Created with Sketch.</desc>
    <defs>
        <linearGradient x1="50.0021116%" y1="0.00467881752%" x2="50.0021116%" y2="100.275506%" id="linearGradient-1">
            <stop stop-color="#F9F9F9" offset="0%"></stop>
            <stop stop-color="#EDEDED" offset="100%"></stop>
        </linearGradient>
    </defs>
    <g id="个性化" stroke="none" stroke-width="1" fill="none" fill-rule="evenodd">
        <g id="个性化设置-竖向分割线" transform="translate(-566.000000, -345.000000)" fill-rule="nonzero">
            <g id="工业风" transform="translate(566.000000, 345.000000)">
                <path d="M32.8487812,39.4202899 L6.57150864,39.4202899 C2.94403587,39.4202899 0,36.480635 0,32.8487812 L0,6.57150864 C0,2.94403587 2.93965487,0 6.57150864,0 L32.8487812,0 C36.476254,0 39.4202899,2.93965487 39.4202899,6.57150864 L39.4202899,32.8487812 C39.4202899,36.480635 36.480635,39.4202899 32.8487812,39.4202899 Z" id="路径" fill="url(#linearGradient-1)"></path>
                <g id="编组" transform="translate(9.061785, 8.726163)">
                    <path d="M22.5913043,2.15800636 C22.5913043,0.967833157 21.6304348,0.00435960881 20.4434783,0.00435960881 C19.2565217,0.00435960881 18.2956522,0.967833157 18.2956522,2.15800636 C18.2956522,2.2277601 18.3,2.29315424 18.3043478,2.36290798 L18.3043478,9.93990809 L22.5782609,9.93990809 L22.5782609,2.35854837 C22.5869565,2.29315424 22.5913043,2.2277601 22.5913043,2.15800636 Z" id="路径" fill="#90A6B4"></path>
                    <path d="M20.4434783,0.00435960881 L2.17391304,0.00435960881 C0.986956522,0.00435960881 0.0260869565,0.967833157 0.0260869565,2.15800636 C0.0260869565,2.2277601 0.0304347826,2.29315424 0.0347826087,2.36290798 L0.0347826087,20.8563686 L18.2913043,20.8563686 L18.2913043,2.18852362 L18.2913043,2.18852362 C18.2913043,2.17980441 18.2913043,2.16672558 18.2913043,2.15800636 C18.2956522,0.967833157 19.2565217,0.00435960881 20.4434783,0.00435960881 Z" id="路径" fill="#555E60"></path>
                    <path d="M0.230434783,20.6601862 L0.230434783,2.35854837 C0.22173913,2.28007541 0.22173913,2.21904089 0.22173913,2.15364675 C0.22173913,1.07246377 1.1,0.196182397 2.17391304,0.196182397 L19.1521739,0.196182397 C18.5608696,0.58854719 18.1565217,1.24248851 18.1043478,1.99234123 L18.1,1.99234123 L18.1,2.18852362 L18.1,20.6601862 L0.230434783,20.6601862 L0.230434783,20.6601862 Z" id="路径" fill="#EDF5F7"></path>
                    <path d="M2.17391304,4.87404265 L2.17391304,5.07022505 L2.17391304,6.43478261 L2.17391304,6.63096501 L2.17391304,7.99552256 L2.17391304,8.19170496 L2.17391304,9.55626252 L2.17391304,9.75244492 L2.17391304,11.1170025 L2.17391304,11.3131849 L2.17391304,12.6777424 L2.17391304,12.8739248 L2.17391304,14.2384824 L2.17391304,14.4346648 L2.17391304,15.7992223 L2.17391304,15.9954047 L2.17391304,17.3599623 L2.17391304,17.5561447 L2.17391304,18.7245199 L2.17391304,18.9207023 L15.7782609,18.9207023 L15.7782609,18.7245199 L15.7782609,17.5561447 L15.7782609,17.3599623 L15.7782609,15.9954047 L15.7782609,15.7992223 L15.7782609,14.4346648 L15.7782609,14.2384824 L15.7782609,12.8739248 L15.7782609,12.6777424 L15.7782609,11.3131849 L15.7782609,11.1170025 L15.7782609,9.75244492 L15.7782609,9.55626252 L15.7782609,8.19170496 L15.7782609,7.99552256 L15.7782609,6.63096501 L15.7782609,6.43478261 L15.7782609,5.07022505 L15.7782609,4.87404265 L2.17391304,4.87404265 Z M2.36956522,5.07022505 L8.97826087,5.07022505 L8.97826087,6.43478261 L2.36956522,6.43478261 L2.36956522,5.07022505 Z M2.36956522,6.63096501 L8.97826087,6.63096501 L8.97826087,7.99552256 L2.36956522,7.99552256 L2.36956522,6.63096501 Z M2.36956522,8.18734535 L8.97826087,8.18734535 L8.97826087,9.55190291 L2.36956522,9.55190291 L2.36956522,8.18734535 Z M2.36956522,9.74808531 L8.97826087,9.74808531 L8.97826087,11.1126429 L2.36956522,11.1126429 L2.36956522,9.74808531 Z M2.36956522,11.3044657 L8.97826087,11.3044657 L8.97826087,12.6690232 L2.36956522,12.6690232 L2.36956522,11.3044657 Z M2.36956522,12.8652056 L8.97826087,12.8652056 L8.97826087,14.2297632 L2.36956522,14.2297632 L2.36956522,12.8652056 Z M2.36956522,14.421586 L8.97826087,14.421586 L8.97826087,15.7861435 L2.36956522,15.7861435 L2.36956522,14.421586 Z M2.36956522,15.9823259 L8.97826087,15.9823259 L8.97826087,17.3468835 L2.36956522,17.3468835 L2.36956522,15.9823259 Z M2.36956522,18.711441 L2.36956522,17.5430659 L8.97826087,17.5430659 L8.97826087,18.711441 L2.36956522,18.711441 Z M15.5869565,18.711441 L9.17391304,18.711441 L9.17391304,17.5430659 L15.5869565,17.5430659 L15.5869565,18.711441 Z M15.5869565,17.3468835 L9.17391304,17.3468835 L9.17391304,15.9823259 L15.5869565,15.9823259 L15.5869565,17.3468835 Z M15.5869565,15.7861435 L9.17391304,15.7861435 L9.17391304,14.421586 L15.5869565,14.421586 L15.5869565,15.7861435 Z M15.5869565,14.2297632 L9.17391304,14.2297632 L9.17391304,12.8652056 L15.5869565,12.8652056 L15.5869565,14.2297632 Z M15.5869565,12.6690232 L9.17391304,12.6690232 L9.17391304,11.3044657 L15.5869565,11.3044657 L15.5869565,12.6690232 Z M15.5869565,11.1126429 L9.17391304,11.1126429 L9.17391304,9.74808531 L15.5869565,9.74808531 L15.5869565,11.1126429 Z M15.5869565,9.55190291 L9.17391304,9.55190291 L9.17391304,8.18734535 L15.5869565,8.18734535 L15.5869565,9.55190291 Z M15.5869565,7.99116296 L9.17391304,7.99116296 L9.17391304,6.6266054 L15.5869565,6.6266054 L15.5869565,7.99116296 Z M15.5869565,6.43478261 L9.17391304,6.43478261 L9.17391304,5.07022505 L15.5869565,5.07022505 L15.5869565,6.43478261 Z" id="形状" fill="#90A6B4"></path>
                    <rect id="矩形" fill="#90A6B4" x="2.17391304" y="3.31766231" width="3.5" height="1"></rect>
                    <ellipse id="椭圆形" fill="#555E60" cx="17.1391304" cy="15.9823259" rx="5.44347826" ry="5.45823023"></ellipse>
                    <rect id="矩形" fill="#90A6B4" x="7.23043478" y="3.31766231" width="3.5" height="1"></rect>
                    <rect id="矩形" fill="#90A6B4" x="12.2826087" y="3.31766231" width="3.5" height="1"></rect>
                    <ellipse id="椭圆形" fill="#90A6B4" cx="17.1391304" cy="15.9823259" rx="5.05217391" ry="5.06586544"></ellipse>
                    <ellipse id="椭圆形" fill="#EDF5F7" cx="17.1391304" cy="15.9823259" rx="4.85652174" ry="4.86968304"></ellipse>
                    <path d="M17.0478261,12.8521268 L17.4782609,12.8521268 L17.4782609,13.4232355 C17.8956522,13.4493932 18.2217391,13.5714622 18.4695652,13.7720042 C18.7521739,13.9943443 18.926087,14.364911 18.9956522,14.8662661 L18.2608696,14.8662661 C18.2173913,14.565453 18.1086957,14.3518322 17.9347826,14.2254036 C17.8173913,14.1338518 17.6652174,14.0771769 17.4782609,14.0597384 L17.4782609,15.6509956 C17.9913043,15.847178 18.2913043,15.9648875 18.3608696,15.9910451 C18.8391304,16.2613409 19.0826087,16.6449864 19.0826087,17.1463415 C19.0826087,17.6389773 18.8956522,18.009544 18.5347826,18.2580417 C18.2565217,18.4411453 17.9086957,18.5414163 17.4782609,18.5719335 L17.4782609,19.1866384 L17.0478261,19.1866384 L17.0478261,18.5719335 C16.573913,18.5457759 16.2130435,18.4062684 15.9652174,18.1621303 C15.673913,17.8831154 15.5130435,17.4645929 15.473913,16.8934842 L16.2217391,16.8934842 C16.2478261,17.2684105 16.3391304,17.5387063 16.5043478,17.7000118 C16.6304348,17.8264404 16.8086957,17.9005538 17.0478261,17.931071 L17.0478261,16.2308236 L16.2652174,15.9387298 C15.7782609,15.6815129 15.5347826,15.2978673 15.5347826,14.7834335 C15.5347826,14.3300342 15.7086957,13.9812655 16.0565217,13.741487 C16.3217391,13.5453046 16.6478261,13.440674 17.0478261,13.4232355 L17.0478261,12.8521268 L17.0478261,12.8521268 Z M17.0478261,14.0510192 C16.8521739,14.064098 16.6956522,14.1207729 16.573913,14.2036055 C16.3782609,14.3300342 16.2913043,14.521857 16.2913043,14.7877931 C16.2913043,15.0711677 16.5347826,15.3022269 17.0217391,15.4853305 C17.0304348,15.4853305 17.0347826,15.4940497 17.0478261,15.4940497 L17.0478261,14.0510192 Z M17.4782609,17.9354307 C17.7,17.909273 17.8826087,17.8438789 18.0347826,17.7479675 C18.2304348,17.60846 18.3347826,17.4209968 18.3347826,17.1768587 C18.3347826,16.8586073 18.0913043,16.60575 17.6043478,16.4400848 C17.5608696,16.427006 17.5217391,16.405208 17.4782609,16.3921291 L17.4782609,17.9354307 Z" id="形状" fill="#DC544F"></path>
                </g>
            </g>
        </g>
    </g>
</svg>