<?xml version="1.0" encoding="UTF-8"?>
<svg width="15px" height="16px" viewBox="0 0 15 16" version="1.1" xmlns="http://www.w3.org/2000/svg" xmlns:xlink="http://www.w3.org/1999/xlink">
    <!-- Generator: Sketch 55.2 (78181) - https://sketchapp.com -->
    <title>jituancaiwuhebing</title>
    <desc>Created with Sketch.</desc>
    <g id="个性化" stroke="none" stroke-width="1" fill="none" fill-rule="evenodd">
        <g id="个性化设置-斑马线" transform="translate(-38.000000, -288.000000)" fill="#333333" fill-rule="nonzero">
            <g id="jituancaiwuhebing" transform="translate(38.000000, 288.000000)">
                <path d="M13.75,10.526316 L13.3333333,10.526316 L13.3333333,8 L7.9166667,8 L7.9166667,5.473684 L10.8333333,5.473684 L10.8333333,1.263158 C10.8333333,0.547368 10.2916667,0 9.5833333,0 L5.4166667,0 C4.7083333,0 4.1666667,0.547368 4.1666667,1.263158 L4.1666667,4.210526 C4.1666667,4.926316 4.7083333,5.473684 5.4166667,5.473684 L7.0833333,5.473684 L7.0833333,8 L1.6666667,8 L1.6666667,10.526316 L1.25,10.526316 C0.5416667,10.526316 0,11.073684 0,11.789474 L0,14.736842 C0,15.452632 0.5416667,16 1.25,16 L5.8333333,16 L5.8333333,11.789474 C5.8333333,11.073684 5.2916667,10.526316 4.5833333,10.526316 L2.5,10.526316 L2.5,8.842105 L12.5,8.842105 L12.5,10.526316 L10.4166667,10.526316 C9.7083333,10.526316 9.1666667,11.073684 9.1666667,11.789474 L9.1666667,14.736842 C9.1666667,15.452632 9.7083333,16 10.4166667,16 L15,16 L15,11.789474 C15,11.115789 14.4583333,10.526316 13.75,10.526316 Z M4.5833333,11.368421 C4.8333333,11.368421 5,11.536842 5,11.789474 L5,15.157895 L1.25,15.157895 C1,15.157895 0.8333333,14.989474 0.8333333,14.736842 L0.8333333,11.789474 C0.8333333,11.536842 1,11.368421 1.25,11.368421 L4.5833333,11.368421 Z M5.4166667,4.631579 C5.1666667,4.631579 5,4.463158 5,4.210526 L5,1.263158 C5,1.010526 5.1666667,0.842105 5.4166667,0.842105 L9.5833333,0.842105 C9.8333333,0.842105 10,1.010526 10,1.263158 L10,4.631579 L5.4166667,4.631579 Z M14.1666667,15.157895 L10.4166667,15.157895 C10.1666667,15.157895 10,14.989474 10,14.736842 L10,11.789474 C10,11.536842 10.1666667,11.368421 10.4166667,11.368421 L13.75,11.368421 C14,11.368421 14.1666667,11.536842 14.1666667,11.789474 L14.1666667,15.157895 Z" id="集团财务合并"></path>
            </g>
        </g>
    </g>
</svg>