<?xml version="1.0" encoding="utf-8"?>
<!-- Generator: Adobe Illustrator 23.0.0, SVG Export Plug-In . SVG Version: 6.00 Build 0)  -->
<svg version="1.1" id="图层_1" xmlns="http://www.w3.org/2000/svg" xmlns:xlink="http://www.w3.org/1999/xlink" x="0px" y="0px"
	 viewBox="0 0 48 48" style="enable-background:new 0 0 48 48;" xml:space="preserve">
<style type="text/css">
	.st0{fill:#C6CCD7;}
	.st1{enable-background:new    ;}
	.st2{fill-rule:evenodd;clip-rule:evenodd;fill:#C6CCD7;}
</style>
<title>大</title>
<g id="页面-1">
	<g id="大">
		<g id="矩形">
			<path class="st0" d="M44,48H4c-2.2,0-4-1.8-4-4V4c0-2.2,1.8-4,4-4h40c2.2,0,4,1.8,4,4v40C48,46.2,46.2,48,44,48z M4,2
				C2.9,2,2,2.9,2,4v40c0,1.1,0.9,2,2,2h40c1.1,0,2-0.9,2-2V4c0-1.1-0.9-2-2-2H4z"/>
		</g>
		<g class="st1">
			<path class="st0" d="M10.3,19.3L16.5,35h-2l-1.7-4.4H5.6L3.9,35H2l6.2-15.7H10.3z M12.3,29.1l-3-7.9H9.2l-3,7.9H12.3z"/>
			<path class="st0" d="M26.4,24.6c0.7,0.7,1,1.8,1,3.1V35h-1.7v-1.9c-0.4,0.6-1,1.1-1.7,1.5c-0.8,0.5-1.8,0.7-2.8,0.7
				c-1.1,0-2-0.3-2.7-0.9c-0.7-0.6-1.1-1.4-1.1-2.3c0-1.3,0.5-2.3,1.6-2.9c0.9-0.6,2.2-0.9,4-1l2.7,0v-0.6c0-1.9-1-2.9-3-2.9
				c-0.8,0-1.5,0.2-2,0.5c-0.6,0.4-1,0.9-1.1,1.6l-1.7-0.1c0.2-1.2,0.8-2.1,1.8-2.7c0.8-0.5,1.9-0.8,3.3-0.8
				C24.4,23.3,25.6,23.7,26.4,24.6z M23,29.6c-2.6,0-3.8,0.9-3.8,2.5c0,0.5,0.2,0.9,0.6,1.3c0.4,0.3,1,0.5,1.7,0.5
				c1.1,0,2-0.4,2.9-1.1c0.8-0.7,1.2-1.5,1.2-2.4v-1L23,29.6z"/>
			<path class="st0" d="M37.4,19.3c1.5,0,2.6,0.4,3.5,1.1c0.8,0.7,1.3,1.7,1.3,2.9c0,0.9-0.2,1.7-0.7,2.3c-0.5,0.6-1.1,1-1.9,1.3
				c1,0.2,1.8,0.6,2.4,1.3c0.6,0.7,0.9,1.5,0.9,2.6c0,1.5-0.6,2.7-1.6,3.4c-0.9,0.6-2.2,0.9-3.8,0.9h-7V19.3H37.4z M32.1,26.2h4.8
				c1.1,0,1.9-0.2,2.5-0.7c0.6-0.5,0.9-1.1,0.9-2c0-0.9-0.3-1.5-0.9-2c-0.6-0.4-1.4-0.6-2.5-0.6h-4.8V26.2z M32.1,33.5h5
				c1.1,0,2-0.2,2.6-0.6c0.8-0.5,1.2-1.3,1.2-2.3c0-1-0.4-1.8-1-2.2c-0.6-0.5-1.6-0.7-2.8-0.7h-5V33.5z"/>
		</g>
		<g id="矩形备份-13">
			<path class="st2" d="M3,0h42c1.7,0,3,1.3,3,3v7l0,0H0V3C0,1.3,1.3,0,3,0z"/>
		</g>
	</g>
</g>
</svg>
