<?xml version="1.0" encoding="utf-8"?>
<!-- Generator: Adobe Illustrator 23.0.0, SVG Export Plug-In . SVG Version: 6.00 Build 0)  -->
<svg version="1.1" id="图层_1" xmlns="http://www.w3.org/2000/svg" xmlns:xlink="http://www.w3.org/1999/xlink" x="0px" y="0px"
	 viewBox="0 0 76 76" style="enable-background:new 0 0 76 76;" xml:space="preserve">
<style type="text/css">
	.st0{filter:url(#filter-2);}
	.st1{fill-rule:evenodd;clip-rule:evenodd;}
	.st2{fill-rule:evenodd;clip-rule:evenodd;fill:#FFFFFF;}
	.st3{fill:#111111;}
	.st4{font-family:'Helvetica-Bold';}
	.st5{font-size:21px;}
</style>
<filter  filterUnits="objectBoundingBox" height="119.1%" id="filter-2" width="119.1%" x="-9.6%" y="-8.1%">
	<feOffset  dx="0" dy="1" in="SourceAlpha" result="shadowOffsetOuter1"></feOffset>
	<feGaussianBlur  in="shadowOffsetOuter1" result="shadowBlurOuter1" stdDeviation="2"></feGaussianBlur>
	<feColorMatrix  in="shadowBlurOuter1" type="matrix" values="0 0 0 0 0   0 0 0 0 0   0 0 0 0 0  0 0 0 0.162204983 0">
		</feColorMatrix>
</filter>
<title>白底logo</title>
<g id="图标" transform="translate(-211.000000, -555.000000)">
	<g id="白底logo" transform="translate(215.000000, 558.000000)">
		<g id="矩形备份-15">
			<g class="st0">
				<path id="path-1_1_" class="st1" d="M3,0h62c1.7,0,3,1.3,3,3v62c0,1.7-1.3,3-3,3H3c-1.7,0-3-1.3-3-3V3C0,1.3,1.3,0,3,0z"/>
			</g>
			<g>
				<path class="st2" d="M3,0h62c1.7,0,3,1.3,3,3v62c0,1.7-1.3,3-3,3H3c-1.7,0-3-1.3-3-3V3C0,1.3,1.3,0,3,0z"/>
			</g>
		</g>
		<text transform="matrix(1 0 0 1 3 42)" class="st3 st4 st5">LOGO</text>
	</g>
</g>
</svg>
