<?xml version="1.0" encoding="UTF-8"?>
<svg width="20px" height="20px" viewBox="0 0 20 20" version="1.1" xmlns="http://www.w3.org/2000/svg" xmlns:xlink="http://www.w3.org/1999/xlink">
    <title>背景图icon</title>
    <g id="页面-1" stroke="none" stroke-width="1" fill="none" fill-rule="evenodd">
        <g id="企业风格设置-全局" transform="translate(-40.000000, -116.000000)">
            <g id="背景图icon" transform="translate(40.000000, 116.000000)">
                <rect id="矩形备份-5" fill="#D8D8D8" opacity="0" x="0" y="0" width="20" height="20"></rect>
                <rect id="矩形" stroke="#111111" x="2.5" y="2.5" width="15" height="15" rx="3"></rect>
                <path d="M2.79497204,15.9903638 L5.75175511,12.5762428 C6.11331508,12.1587589 6.74485494,12.1134236 7.16233887,12.4749835 C7.18920659,12.4982522 7.21481464,12.5229367 7.239054,12.5489321 L8.16034307,13.5369623 C8.53698636,13.9408909 9.16976486,13.96301 9.57369342,13.5863667 C9.63418655,13.5299599 9.68744789,13.4662658 9.73225709,13.396744 L12.3057918,9.40388438 C12.6049947,8.9396688 13.2238676,8.80589954 13.6880832,9.10510238 C13.8265844,9.19437116 13.9408803,9.31648166 14.0208076,9.46057581 L17.4022059,15.55661 L17.4022059,15.55661 C17.38897,15.8281231 17.2468776,16.1392584 16.9759286,16.4900157 C16.569505,17.0161517 16.4123503,17.2476888 15.3298892,17.4542818 C14.2474282,17.6608747 10.5186518,17.5469638 8.42235711,17.5275319 C6.32606241,17.5081 5.22641215,17.6169988 4.19700327,17.3510838 C3.51073069,17.1738072 3.04338695,16.7202338 2.79497204,15.9903638 Z" id="路径-10" stroke="#111111"></path>
                <circle id="椭圆形" stroke="#111111" cx="8" cy="7" r="1.5"></circle>
            </g>
        </g>
    </g>
</svg>