<?xml version="1.0" encoding="utf-8"?>
<!-- Generator: Adobe Illustrator 23.0.0, SVG Export Plug-In . SVG Version: 6.00 Build 0)  -->
<svg version="1.1" id="图层_1" xmlns="http://www.w3.org/2000/svg" xmlns:xlink="http://www.w3.org/1999/xlink" x="0px" y="0px"
	 viewBox="0 0 72 32" style="enable-background:new 0 0 72 32;" xml:space="preserve">
<style type="text/css">
	.st0{fill:#C6CCD7;}
	.st1{fill-rule:evenodd;clip-rule:evenodd;fill:#C6CCD7;}
</style>
<title>宽松</title>
<g id="页面-1">
	<g id="宽松">
		<g id="矩形备份-34">
			<path class="st0" d="M68.5,32h-65C1.6,32,0,30.4,0,28.5v-25C0,1.6,1.6,0,3.5,0h65C70.4,0,72,1.6,72,3.5v25
				C72,30.4,70.4,32,68.5,32z M3.5,1C2.1,1,1,2.1,1,3.5v25C1,29.9,2.1,31,3.5,31h65c1.4,0,2.5-1.1,2.5-2.5v-25C71,2.1,69.9,1,68.5,1
				H3.5z"/>
		</g>
		<g id="矩形备份-35">
			<path class="st0" d="M9.5,19h-2C6.7,19,6,18.3,6,17.5v-2C6,14.7,6.7,14,7.5,14h2c0.8,0,1.5,0.7,1.5,1.5v2C11,18.3,10.3,19,9.5,19
				z M7.5,15C7.2,15,7,15.2,7,15.5v2C7,17.8,7.2,18,7.5,18h2c0.3,0,0.5-0.2,0.5-0.5v-2c0-0.3-0.2-0.5-0.5-0.5H7.5z"/>
		</g>
		<g id="矩形备份-37">
			<path class="st1" d="M16.5,15h47c0.8,0,1.5,0.7,1.5,1.5l0,0c0,0.8-0.7,1.5-1.5,1.5h-47c-0.8,0-1.5-0.7-1.5-1.5l0,0
				C15,15.7,15.7,15,16.5,15z"/>
		</g>
	</g>
</g>
</svg>
