<?xml version="1.0" encoding="utf-8"?>
<!-- Generator: Adobe Illustrator 23.0.0, SVG Export Plug-In . SVG Version: 6.00 Build 0)  -->
<svg version="1.1" id="图层_1" xmlns="http://www.w3.org/2000/svg" xmlns:xlink="http://www.w3.org/1999/xlink" x="0px" y="0px"
	 viewBox="0 0 49 48" style="enable-background:new 0 0 49 48;" xml:space="preserve">
<style type="text/css">
	.st0{fill:#C6CCD7;}
	.st1{filter:url(#Adobe_OpacityMaskFilter);}
	.st2{fill-rule:evenodd;clip-rule:evenodd;fill:#FFFFFF;}
	.st3{mask:url(#mask-2_1_);enable-background:new    ;}
	.st4{filter:url(#Adobe_OpacityMaskFilter_1_);}
	.st5{mask:url(#mask-2_2_);enable-background:new    ;}
	.st6{fill-rule:evenodd;clip-rule:evenodd;fill:#C6CCD7;}
</style>
<title>中</title>
<g id="页面-1">
	<g id="中" transform="translate(0.500000, 0.000000)">
		<g>
			<g>
				<path class="st0" d="M44,48H4c-2.2,0-4-1.8-4-4V4c0-2.2,1.8-4,4-4h40c2.2,0,4,1.8,4,4v40C48,46.2,46.2,48,44,48z M4,2
					C2.9,2,2,2.9,2,4v40c0,1.1,0.9,2,2,2h40c1.1,0,2-0.9,2-2V4c0-1.1-0.9-2-2-2H4z"/>
			</g>
			<defs>
				<filter id="Adobe_OpacityMaskFilter" filterUnits="userSpaceOnUse" x="2" y="16.3" width="44.7" height="8.9">
					<feColorMatrix  type="matrix" values="1 0 0 0 0  0 1 0 0 0  0 0 1 0 0  0 0 0 1 0"/>
				</filter>
			</defs>
			<mask maskUnits="userSpaceOnUse" x="2" y="16.3" width="44.7" height="8.9" id="mask-2_1_">
				<g class="st1">
					<path id="path-1_1_" class="st2" d="M3,0h42c1.7,0,3,1.3,3,3v42c0,1.7-1.3,3-3,3H3c-1.7,0-3-1.3-3-3V3C0,1.3,1.3,0,3,0z"/>
				</g>
			</mask>
			<g class="st3">
				<path class="st0" d="M6.5,16.4L9.9,25H8.8l-0.9-2.4H4L3.1,25H2l3.4-8.6H6.5z M7.6,21.8L6,17.5h0l-1.6,4.3H7.6z"/>
				<path class="st0" d="M15.3,19.3c0.4,0.4,0.6,1,0.6,1.7v4h-0.9v-1c-0.2,0.3-0.6,0.6-0.9,0.8c-0.5,0.3-1,0.4-1.5,0.4
					c-0.6,0-1.1-0.2-1.5-0.5c-0.4-0.3-0.6-0.7-0.6-1.2c0-0.7,0.3-1.2,0.9-1.6c0.5-0.3,1.2-0.5,2.2-0.5l1.5,0V21c0-1-0.5-1.6-1.6-1.6
					c-0.5,0-0.8,0.1-1.1,0.3c-0.3,0.2-0.5,0.5-0.6,0.9l-0.9-0.1c0.1-0.6,0.5-1.1,1-1.5c0.5-0.3,1-0.4,1.8-0.4
					C14.2,18.6,14.9,18.9,15.3,19.3z M13.5,22c-1.4,0-2.1,0.5-2.1,1.4c0,0.3,0.1,0.5,0.3,0.7c0.2,0.2,0.6,0.3,0.9,0.3
					c0.6,0,1.1-0.2,1.6-0.6c0.4-0.4,0.7-0.8,0.7-1.3V22L13.5,22z"/>
				<path class="st0" d="M21.3,16.4c0.8,0,1.4,0.2,1.9,0.6c0.5,0.4,0.7,0.9,0.7,1.6c0,0.5-0.1,0.9-0.4,1.2c-0.3,0.3-0.6,0.5-1,0.7
					c0.6,0.1,1,0.3,1.3,0.7c0.3,0.4,0.5,0.8,0.5,1.4c0,0.8-0.3,1.5-0.9,1.9c-0.5,0.3-1.2,0.5-2.1,0.5h-3.8v-8.6H21.3z M18.4,20.2H21
					c0.6,0,1.1-0.1,1.4-0.4c0.3-0.3,0.5-0.6,0.5-1.1c0-0.5-0.2-0.8-0.5-1.1c-0.3-0.2-0.8-0.3-1.4-0.3h-2.6V20.2z M18.4,24.2h2.7
					c0.6,0,1.1-0.1,1.4-0.3c0.4-0.3,0.6-0.7,0.6-1.2s-0.2-1-0.6-1.2c-0.3-0.3-0.9-0.4-1.5-0.4h-2.7V24.2z"/>
				<path class="st0" d="M26.4,16.3v3.7c0.5-0.9,1.2-1.3,2.1-1.3c0.9,0,1.6,0.3,2.1,1c0.5,0.6,0.7,1.3,0.7,2.3
					c0,0.9-0.2,1.7-0.7,2.3c-0.5,0.6-1.2,1-2.1,1c-1,0-1.6-0.4-2.1-1.2v1h-0.9v-8.7H26.4z M26.9,20.1c-0.4,0.4-0.5,1-0.5,1.8V22
					c0,0.7,0.2,1.3,0.5,1.7c0.3,0.5,0.8,0.7,1.5,0.7c0.7,0,1.2-0.3,1.5-0.7c0.3-0.4,0.4-1,0.4-1.8c0-0.7-0.2-1.3-0.5-1.7
					c-0.3-0.5-0.9-0.7-1.5-0.7C27.7,19.4,27.2,19.6,26.9,20.1z"/>
				<path class="st0" d="M38.7,17c0.6,0.5,1,1.2,1.2,2h-0.9c-0.1-0.6-0.4-1.1-0.9-1.4c-0.5-0.3-1-0.5-1.7-0.5c-1,0-1.8,0.3-2.3,1
					c-0.5,0.6-0.8,1.5-0.8,2.6s0.2,1.9,0.7,2.5c0.5,0.7,1.3,1,2.3,1c0.7,0,1.3-0.2,1.7-0.5c0.5-0.4,0.9-0.9,1-1.7H40
					c-0.2,1-0.6,1.8-1.3,2.3c-0.7,0.5-1.5,0.8-2.4,0.8c-1.3,0-2.4-0.4-3.1-1.3c-0.6-0.8-1-1.8-1-3.1c0-1.3,0.3-2.3,1-3.1
					c0.7-0.9,1.8-1.4,3.1-1.4C37.3,16.3,38.1,16.5,38.7,17z"/>
				<path class="st0" d="M45.7,19.2c0.5,0.4,0.8,0.9,0.9,1.7h-0.9c-0.1-0.5-0.3-0.8-0.6-1.1c-0.3-0.2-0.7-0.3-1.2-0.3
					c-0.6,0-1.1,0.2-1.4,0.7c-0.3,0.4-0.5,1-0.5,1.8c0,0.8,0.2,1.4,0.5,1.8c0.3,0.4,0.8,0.7,1.4,0.7c1.1,0,1.7-0.5,1.8-1.6h1
					c-0.1,0.8-0.4,1.4-0.9,1.8c-0.5,0.4-1.1,0.6-1.8,0.6c-0.9,0-1.7-0.3-2.2-0.9c-0.5-0.6-0.7-1.4-0.7-2.3s0.2-1.7,0.7-2.3
					c0.5-0.7,1.3-1,2.2-1C44.7,18.6,45.3,18.8,45.7,19.2z"/>
			</g>
			<defs>
				<filter id="Adobe_OpacityMaskFilter_1_" filterUnits="userSpaceOnUse" x="2" y="31.3" width="44.7" height="8.9">
					<feColorMatrix  type="matrix" values="1 0 0 0 0  0 1 0 0 0  0 0 1 0 0  0 0 0 1 0"/>
				</filter>
			</defs>
			<mask maskUnits="userSpaceOnUse" x="2" y="31.3" width="44.7" height="8.9" id="mask-2_2_">
				<g class="st4">
					<path id="path-1_2_" class="st2" d="M3,0h42c1.7,0,3,1.3,3,3v42c0,1.7-1.3,3-3,3H3c-1.7,0-3-1.3-3-3V3C0,1.3,1.3,0,3,0z"/>
				</g>
			</mask>
			<g class="st5">
				<path class="st0" d="M6.5,31.4L9.9,40H8.8l-0.9-2.4H4L3.1,40H2l3.4-8.6H6.5z M7.6,36.8L6,32.5h0l-1.6,4.3H7.6z"/>
				<path class="st0" d="M15.3,34.3c0.4,0.4,0.6,1,0.6,1.7v4h-0.9v-1c-0.2,0.3-0.6,0.6-0.9,0.8c-0.5,0.3-1,0.4-1.5,0.4
					c-0.6,0-1.1-0.2-1.5-0.5c-0.4-0.3-0.6-0.7-0.6-1.2c0-0.7,0.3-1.2,0.9-1.6c0.5-0.3,1.2-0.5,2.2-0.5l1.5,0V36c0-1-0.5-1.6-1.6-1.6
					c-0.5,0-0.8,0.1-1.1,0.3c-0.3,0.2-0.5,0.5-0.6,0.9l-0.9-0.1c0.1-0.6,0.5-1.1,1-1.5c0.5-0.3,1-0.4,1.8-0.4
					C14.2,33.6,14.9,33.9,15.3,34.3z M13.5,37c-1.4,0-2.1,0.5-2.1,1.4c0,0.3,0.1,0.5,0.3,0.7c0.2,0.2,0.6,0.3,0.9,0.3
					c0.6,0,1.1-0.2,1.6-0.6c0.4-0.4,0.7-0.8,0.7-1.3V37L13.5,37z"/>
				<path class="st0" d="M21.3,31.4c0.8,0,1.4,0.2,1.9,0.6c0.5,0.4,0.7,0.9,0.7,1.6c0,0.5-0.1,0.9-0.4,1.2c-0.3,0.3-0.6,0.5-1,0.7
					c0.6,0.1,1,0.3,1.3,0.7c0.3,0.4,0.5,0.8,0.5,1.4c0,0.8-0.3,1.5-0.9,1.9c-0.5,0.3-1.2,0.5-2.1,0.5h-3.8v-8.6H21.3z M18.4,35.2H21
					c0.6,0,1.1-0.1,1.4-0.4c0.3-0.3,0.5-0.6,0.5-1.1c0-0.5-0.2-0.8-0.5-1.1c-0.3-0.2-0.8-0.3-1.4-0.3h-2.6V35.2z M18.4,39.2h2.7
					c0.6,0,1.1-0.1,1.4-0.3c0.4-0.3,0.6-0.7,0.6-1.2s-0.2-1-0.6-1.2c-0.3-0.3-0.9-0.4-1.5-0.4h-2.7V39.2z"/>
				<path class="st0" d="M26.4,31.3v3.7c0.5-0.9,1.2-1.3,2.1-1.3c0.9,0,1.6,0.3,2.1,1c0.5,0.6,0.7,1.3,0.7,2.3
					c0,0.9-0.2,1.7-0.7,2.3c-0.5,0.6-1.2,1-2.1,1c-1,0-1.6-0.4-2.1-1.2v1h-0.9v-8.7H26.4z M26.9,35.1c-0.4,0.4-0.5,1-0.5,1.8V37
					c0,0.7,0.2,1.3,0.5,1.7c0.3,0.5,0.8,0.7,1.5,0.7c0.7,0,1.2-0.3,1.5-0.7c0.3-0.4,0.4-1,0.4-1.8c0-0.7-0.2-1.3-0.5-1.7
					c-0.3-0.5-0.9-0.7-1.5-0.7C27.7,34.4,27.2,34.6,26.9,35.1z"/>
				<path class="st0" d="M38.7,32c0.6,0.5,1,1.2,1.2,2h-0.9c-0.1-0.6-0.4-1.1-0.9-1.4c-0.5-0.3-1-0.5-1.7-0.5c-1,0-1.8,0.3-2.3,1
					c-0.5,0.6-0.8,1.5-0.8,2.6s0.2,1.9,0.7,2.5c0.5,0.7,1.3,1,2.3,1c0.7,0,1.3-0.2,1.7-0.5c0.5-0.4,0.9-0.9,1-1.7H40
					c-0.2,1-0.6,1.8-1.3,2.3c-0.7,0.5-1.5,0.8-2.4,0.8c-1.3,0-2.4-0.4-3.1-1.3c-0.6-0.8-1-1.8-1-3.1c0-1.3,0.3-2.3,1-3.1
					c0.7-0.9,1.8-1.4,3.1-1.4C37.3,31.3,38.1,31.5,38.7,32z"/>
				<path class="st0" d="M45.7,34.2c0.5,0.4,0.8,0.9,0.9,1.7h-0.9c-0.1-0.5-0.3-0.8-0.6-1.1c-0.3-0.2-0.7-0.3-1.2-0.3
					c-0.6,0-1.1,0.2-1.4,0.7c-0.3,0.4-0.5,1-0.5,1.8c0,0.8,0.2,1.4,0.5,1.8c0.3,0.4,0.8,0.7,1.4,0.7c1.1,0,1.7-0.5,1.8-1.6h1
					c-0.1,0.8-0.4,1.4-0.9,1.8c-0.5,0.4-1.1,0.6-1.8,0.6c-0.9,0-1.7-0.3-2.2-0.9c-0.5-0.6-0.7-1.4-0.7-2.3s0.2-1.7,0.7-2.3
					c0.5-0.7,1.3-1,2.2-1C44.7,33.6,45.3,33.8,45.7,34.2z"/>
			</g>
		</g>
		<g id="矩形备份-15">
			<path class="st6" d="M3,0h42c1.7,0,3,1.3,3,3v7l0,0H0V3C0,1.3,1.3,0,3,0z"/>
		</g>
	</g>
</g>
</svg>
