<?xml version="1.0" encoding="UTF-8"?>
<svg width="16px" height="16px" viewBox="0 0 16 16" version="1.1" xmlns="http://www.w3.org/2000/svg" xmlns:xlink="http://www.w3.org/1999/xlink">
    <!-- Generator: Sketch 55.2 (78181) - https://sketchapp.com -->
    <title>morenshezhi</title>
    <desc>Created with Sketch.</desc>
    <g id="个性化" stroke="none" stroke-width="1" fill="none" fill-rule="evenodd">
        <g id="个性化设置-斑马线" transform="translate(-37.000000, -112.000000)" fill="#a1a2a2" fill-rule="nonzero">
            <g id="morenshezhi" transform="translate(37.000000, 112.000000)">
                <path d="M5.8108001,6.843658 L5.8108001,9.297935 L7.9226581,10.525074 L10.0345161,9.297935 L10.0345161,6.843658 L7.9226581,5.616519 L5.8108001,6.843658 Z M15.2437659,9.864307 C15.9477185,10.241888 16.1823694,11.091445 15.8538582,11.79941 L15.1499055,13.026549 C14.9621848,13.356932 14.6806037,13.59292 14.3051623,13.687316 C13.9297209,13.781711 13.5542795,13.734513 13.2257682,13.545723 L11.6770724,12.648968 C11.2077706,13.026549 10.6915386,13.309735 10.1283765,13.545723 L10.1283765,14.584071 C10.1283765,15.386431 9.5182842,16 8.7204711,16 L7.3125658,16 C6.5147528,16 5.9046605,15.386431 5.9046605,14.584071 L5.9046605,13.545723 C5.3414983,13.356932 4.8252664,13.026549 4.3559646,12.648968 L2.8072687,13.545723 C2.4787575,13.734513 2.1033161,13.781711 1.7278746,13.687316 C1.3524332,13.59292 1.0708521,13.356932 0.8831314,13.026549 L0.1791788,11.79941 C-0.1962627,11.138643 0.0383882,10.241888 0.6954107,9.864307 L2.1971764,8.967552 C2.1502462,8.684366 2.1033161,8.353982 2.1033161,8.070796 C2.1033161,7.787611 2.1502462,7.457227 2.1971764,7.174041 L0.7892711,6.371681 C0.1322486,5.9941 -0.1024023,5.097345 0.2730391,4.436578 L0.9769918,3.20944 C1.1647125,2.879056 1.4462936,2.643068 1.821735,2.548673 C2.1971764,2.454277 2.5726178,2.501475 2.9011291,2.690265 L4.3090344,3.492625 C4.7783362,3.115044 5.2945682,2.831858 5.8577303,2.59587 L5.8577303,1.415929 C5.8577303,0.613569 6.4678226,0 7.2656356,0 L8.673541,0 C9.471354,0 10.0814463,0.613569 10.0814463,1.415929 L10.0814463,2.59587 C10.6446084,2.784661 11.1608404,3.115044 11.6301422,3.492625 L13.0380475,2.690265 C13.3665588,2.501475 13.7420002,2.454277 14.1174416,2.548673 C14.492883,2.643068 14.7744641,2.879056 14.9621848,3.20944 L15.6661375,4.436578 C16.0415789,5.097345 15.806928,5.9941 15.1499055,6.371681 L13.7420002,7.174041 C13.7889304,7.457227 13.8358605,7.787611 13.8358605,8.070796 C13.8358605,8.353982 13.7889304,8.684366 13.7420002,8.967552 L15.2437659,9.864307 Z M9.0959126,8.731563 L7.9226581,9.39233 L6.7494037,8.731563 L6.7494037,7.362832 L7.9226581,6.702065 L9.0959126,7.362832 L9.0959126,8.731563 Z M14.9621848,11.327434 C15.009115,11.185841 15.0560452,11.091445 15.009115,10.949853 C14.9621848,10.80826 14.8683245,10.713864 14.7744641,10.666667 L12.6626061,9.439528 L12.7564664,9.109145 C12.8033966,8.778761 12.8503268,8.40118 12.8503268,8.070796 C12.8503268,7.740413 12.8503268,7.362832 12.7564664,7.032448 L12.6626061,6.702065 L14.6336736,5.569322 C14.7744641,5.522124 14.8213943,5.427729 14.8683245,5.286136 C14.9152546,5.144543 14.8683245,5.00295 14.8213943,4.908555 L14.1174416,3.681416 C13.9766511,3.445428 13.69507,3.351032 13.4604191,3.492625 L11.4893516,4.625369 L11.2547008,4.389381 C10.6915386,3.917404 10.0814463,3.587021 9.4244238,3.351032 L9.0959126,3.256637 L9.0959126,1.415929 C9.0959126,1.132743 8.9081919,0.943953 8.6266108,0.943953 L7.2187055,0.943953 C6.9371244,0.943953 6.7494037,1.132743 6.7494037,1.415929 L6.7494037,3.256637 L6.4208924,3.351032 C5.7169398,3.539823 5.1068474,3.917404 4.5906155,4.389381 L4.3559646,4.625369 L2.3848971,3.492625 C2.1502462,3.39823 1.8686652,3.445428 1.7278746,3.681416 L1.023922,4.908555 C0.9769918,5.050147 0.9300616,5.144543 0.9769918,5.286136 C1.023922,5.427729 1.1177823,5.522124 1.2116427,5.569322 L3.1827101,6.702065 L3.0888498,7.032448 C3.0419196,7.362832 2.9949894,7.740413 2.9949894,8.070796 C2.9949894,8.40118 2.9949894,8.778761 3.0888498,9.109145 L3.1827101,9.439528 L1.0708521,10.666667 C0.9300616,10.713864 0.8831314,10.80826 0.8362013,10.949853 C0.7892711,11.091445 0.8362013,11.233038 0.8831314,11.327434 L1.5870841,12.554572 C1.6340143,12.696165 1.7278746,12.743363 1.8686652,12.79056 C2.0094557,12.837758 2.1502462,12.79056 2.2441066,12.743363 L4.3559646,11.516224 L4.5906155,11.752212 C5.1537776,12.224189 5.7638699,12.554572 6.4208924,12.79056 L6.7494037,12.884956 L6.7494037,14.584071 C6.7494037,14.867257 6.9371244,15.056047 7.2187055,15.056047 L8.6266108,15.056047 C8.9081919,15.056047 9.0959126,14.867257 9.0959126,14.584071 L9.0959126,12.884956 L9.4244238,12.79056 C10.1283765,12.60177 10.7384688,12.224189 11.2547008,11.752212 L11.4893516,11.516224 L13.6012097,12.743363 C13.7420002,12.79056 13.8358605,12.837758 13.9766511,12.79056 C14.1174416,12.743363 14.211302,12.648968 14.2582321,12.554572 L14.9621848,11.327434 Z" id="默认设置"></path>
            </g>
        </g>
    </g>
</svg>