<?xml version="1.0" encoding="UTF-8"?>
<svg width="72px" height="72px" viewBox="0 0 72 72" version="1.1" xmlns="http://www.w3.org/2000/svg" xmlns:xlink="http://www.w3.org/1999/xlink">
    <!-- Generator: Sketch 55.2 (78181) - https://sketchapp.com -->
    <title>日常操作</title>
    <desc>Created with Sketch.</desc>
    <g id="日常操作" stroke="none" stroke-width="1" fill="none" fill-rule="evenodd">
        <g id="编组-2" transform="translate(12.000000, 12.000000)" stroke="#60759C">
            <rect id="Rectangle-5" stroke-width="5" x="0" y="0" width="20" height="20" rx="5"></rect>
            <rect id="Rectangle-5" stroke-width="5" x="28" y="0" width="20" height="20" rx="5"></rect>
            <rect id="Rectangle-5" stroke-width="5" x="0" y="28" width="20" height="20" rx="5"></rect>
            <path d="M38,28.5 L38,38 L28.5,38 C28.2238576,38 28,38.2238576 28,38.5 C28,38.7761424 28.2238576,39 28.5,39 L38,39 L38,48.5 C38,48.7761424 38.2238576,49 38.5,49 C38.7761424,49 39,48.7761424 39,48.5 L39,39 L48.5,39 C48.7761424,39 49,38.7761424 49,38.5 C49,38.2238576 48.7761424,38 48.5,38 L39,38 L39,28.5 C39,28.2238576 38.7761424,28 38.5,28 C38.2238576,28 38,28.2238576 38,28.5 Z" id="形状结合" stroke-width="4" fill="#D8D8D8"></path>
        </g>
    </g>
</svg>