<?xml version="1.0" encoding="utf-8"?>
<!-- Generator: Adobe Illustrator 23.0.0, SVG Export Plug-In . SVG Version: 6.00 Build 0)  -->
<svg version="1.1" id="图层_1" xmlns="http://www.w3.org/2000/svg" xmlns:xlink="http://www.w3.org/1999/xlink" x="0px" y="0px"
	 viewBox="0 0 17 15" style="enable-background:new 0 0 17 15;" xml:space="preserve">
<style type="text/css">
	.st0{fill-rule:evenodd;clip-rule:evenodd;fill:#FF2121;}
	.st1{fill-rule:evenodd;clip-rule:evenodd;fill:#FFFFFF;}
</style>
<title>编组 2</title>
<g id="状态说明" transform="translate(-810.000000, -210.000000)">
	<g id="编组-2" transform="translate(810.000000, 210.000000)">
		<path id="三角形" class="st0" d="M16.7,3v12l0,0L0,0h13.7C15.4,0,16.7,1.3,16.7,3z"/>
		<path id="矩形" class="st1" d="M9.9,4.5L11.4,6c0.3,0.3,0.3,0.7,0,1c-0.3,0.3-0.7,0.3-1,0L8.9,5.5c-0.3-0.3-0.3-0.7,0-1
			C9.2,4.2,9.6,4.2,9.9,4.5z"/>
		<path id="矩形备份-5" class="st1" d="M14.4,4l-3,3c-0.3,0.3-0.7,0.3-1,0c-0.3-0.3-0.3-0.7,0-1l3-3c0.3-0.3,0.7-0.3,1,0
			C14.7,3.3,14.7,3.7,14.4,4z"/>
	</g>
</g>
</svg>
