<?xml version="1.0" encoding="UTF-8"?>
<svg width="33px" height="36px" viewBox="0 0 33 36" version="1.1" xmlns="http://www.w3.org/2000/svg" xmlns:xlink="http://www.w3.org/1999/xlink">
    <!-- Generator: Sketch 55.2 (78181) - https://sketchapp.com -->
    <title>简约风</title>
    <desc>Created with Sketch.</desc>
    <g id="个性化" stroke="none" stroke-width="1" fill="none" fill-rule="evenodd">
        <g id="个性化设置-竖向分割线" transform="translate(-642.000000, -347.000000)" fill-rule="nonzero">
            <g id="简约风" transform="translate(642.000000, 347.000000)">
                <path d="M14.7856917,28.1976545 L7.36996138,28.1976545 C6.31057132,28.1976545 5.38360503,27.3982467 5.38360503,26.3323696 L5.38360503,8.6121623 C5.38360503,7.54628516 6.0457238,6.61364268 6.97269009,6.61364268 L17.8314381,6.61364268 C18.3611331,6.61364268 18.8908282,6.74687732 19.2880994,7.14658123 L23.1283883,10.210978 L23.1283883,28.1976545 L14.7856917,28.1976545 Z" id="路径" fill="#D6E9FF"></path>
                <path d="M26.5211923,29.0350795 C26.8157033,29.0139142 27.1121635,29.0990639 27.3487617,29.2755667 L32.5030546,33.7965684 C32.7412501,34.0380553 32.8899733,34.3401835 32.9113831,34.6417562 C32.9304976,34.910998 32.8452055,35.1782716 32.6311238,35.3936642 C32.3871859,35.7552816 32.168347,35.8719698 31.8352503,35.8719698 C31.6008052,35.8719698 31.2538543,35.7539032 31.013149,35.6360862 L25.8714109,30.9934501 C25.6326812,30.7518096 25.4836045,30.4492939 25.4621673,30.1473352 C25.4430528,29.8780935 25.5283449,29.6108199 25.7424266,29.3954272 C25.9654388,29.1710494 26.2424051,29.0551148 26.5211923,29.0350795 Z" id="路径" fill="#334764"></path>
                <path d="M22.5429498,32.7543049 C22.1691602,32.7543049 21.8184691,32.7575856 21.4684216,32.6401887 C19.7232308,32.3114379 18.309733,31.3616495 17.4033087,30.0620856 C16.5079051,28.7783222 16.1084288,27.1539571 16.4188061,25.4676567 C16.7328947,23.7611927 17.6770013,22.3394796 18.9683897,21.4276928 C20.24434,20.5268062 21.858819,20.1248838 23.5348562,20.4371616 C25.2309345,20.7531735 26.6439948,21.7030612 27.5502324,23.0023574 C28.4456361,24.2861208 28.8451123,25.9104859 28.534735,27.5967863 C28.286752,29.0934349 27.521254,30.3686432 26.4636318,31.2775607 C25.3820541,32.2070654 23.9947335,32.7543049 22.5429498,32.7543049 Z M26.7477071,27.2005275 C26.9641955,26.0388529 26.6797632,24.913016 26.0532736,24.0200543 C25.4146783,23.1098379 24.4197871,22.4419601 23.2388179,22.2287426 L22.5429825,22.2287426 C21.5286709,22.2287426 20.586515,22.5922982 19.8432285,23.2111986 C19.1011405,23.829101 18.5572439,24.7018851 18.3382578,25.7306808 C18.1217694,26.8923555 18.4062016,28.0181924 19.0326913,28.9111541 C19.6650384,29.8124647 20.6467419,30.476152 21.812532,30.6960761 C22.9671365,30.9138901 24.0861214,30.6277162 24.9736484,29.9973903 C25.8694735,29.361171 26.5291215,28.3734561 26.7477071,27.2005275 L26.7477071,27.2005275 Z" id="形状" fill="#334764"></path>
                <path d="M0.00720053656,4.08218451 C0.00720053656,2.93883718 0.413996839,1.92102272 1.07471703,1.18748777 C1.73563515,0.453733071 2.6508463,0.00520447296 3.66209621,0.00520447296 L20.612337,0.00520447296 C20.8341973,0.00520447296 21.1755262,0.108907067 21.2807294,0.222182096 L29.2270299,6.88464799 C29.4573344,7.11807274 29.6966067,7.46263193 29.6966067,7.81275446 L29.6966067,19.4041682 C29.6966067,19.7479136 29.5868402,20.0369 29.3867417,20.2382238 C29.1866433,20.4395476 28.8994156,20.5499861 28.5577623,20.5499861 C28.216109,20.5499861 27.9288814,20.4395476 27.7287829,20.2382238 C27.5286844,20.0369 27.418918,19.7479136 27.4189181,19.4041682 L27.4189181,8.25707021 L20.1486095,2.29684029 L3.52967245,2.29684029 C3.13791015,2.29684029 2.78264394,2.49169606 2.52932413,2.83152406 C2.29806446,3.14175841 2.15246537,3.57535758 2.15246537,4.08218451 L2.15246537,30.4626434 C2.15246537,30.9639934 2.3574992,31.3966722 2.66956934,31.7106533 C3.0059547,32.0490985 3.46684507,32.2479876 3.92694372,32.2479876 L15.3153867,32.2479876 C15.65704,32.2479876 15.9442677,32.3584262 16.1443661,32.5597499 C16.3444646,32.7610737 16.454231,33.0500601 16.454231,33.3938055 C16.454231,33.7157583 16.3578062,33.964282 16.189572,34.1335463 C16.0051729,34.3190745 15.7402943,34.4063888 15.4478105,34.4063888 L4.05936749,34.4063888 C2.91969553,34.4063888 1.9061231,33.9613642 1.17781985,33.2286013 C0.449516607,32.4958383 0.00720053656,31.4760594 0.00720053656,30.3294088 L0.00720053656,4.08218451 Z" id="路径" fill="#334764"></path>
                <path d="M7.10511385,9.73133328 L19.5529469,9.73133328 C19.8946002,9.73133328 20.1818279,9.84177185 20.3819263,10.0430956 C20.5820248,10.2444194 20.6917912,10.5334058 20.6917912,10.8771512 C20.6917912,11.2167803 20.5847569,11.5027922 20.4040794,11.7047743 C20.2227784,11.9074534 19.9683222,12.0229691 19.6853707,12.0229691 L7.10511385,12.0229691 C6.76346057,12.0229691 6.47623294,11.9125305 6.27613447,11.7112068 C6.07603599,11.509883 5.96626957,11.2208966 5.96626957,10.8771512 C5.96626957,10.5334058 6.07603599,10.2444194 6.27613446,10.0430956 C6.47623293,9.84177184 6.76346056,9.73133328 7.10511385,9.73133328 Z M7.10511385,15.3271882 L16.3747768,15.3271882 C16.7164301,15.3271882 17.0036577,15.4376268 17.2037562,15.6389505 C17.4038547,15.8402743 17.5136211,16.1292607 17.5136211,16.4730061 C17.5136211,16.8167515 17.4038547,17.1057379 17.2037562,17.3070617 C17.0036577,17.5083855 16.7164301,17.618824 16.3747768,17.618824 L7.10511385,17.618824 C6.76346056,17.618824 6.47623293,17.5083855 6.27613446,17.3070617 C6.07603599,17.1057379 5.96626957,16.8167515 5.96626957,16.4730061 C5.96626957,16.1292607 6.07603599,15.8402743 6.27613446,15.6389505 C6.47623293,15.4376268 6.76346056,15.3271882 7.10511385,15.3271882 Z" id="形状" fill="#334764"></path>
                <path d="M7.10511385,20.9230431 L13.4614541,20.9230431 C13.8031074,20.9230431 14.0903351,21.0334817 14.2904336,21.2348055 C14.490532,21.4361292 14.6002985,21.7251157 14.6002985,22.068861 C14.6002985,22.4126064 14.490532,22.7015928 14.2904336,22.9029166 C14.0903351,23.1042404 13.8031074,23.2146789 13.4614541,23.2146789 L7.10511385,23.2146789 C6.76346056,23.2146789 6.47623293,23.1042404 6.27613446,22.9029166 C6.07603599,22.7015929 5.96626957,22.4126064 5.96626957,22.068861 C5.96626957,21.7251156 6.07603599,21.4361292 6.27613446,21.2348054 C6.47623293,21.0334817 6.76346056,20.9230431 7.10511385,20.9230431 Z" id="路径" fill="#334764"></path>
            </g>
        </g>
    </g>
</svg>