<?xml version="1.0" encoding="utf-8"?>
<!-- Generator: Adobe Illustrator 23.0.0, SVG Export Plug-In . SVG Version: 6.00 Build 0)  -->
<svg version="1.1" id="图层_1" xmlns="http://www.w3.org/2000/svg" xmlns:xlink="http://www.w3.org/1999/xlink" x="0px" y="0px"
	 viewBox="0 0 48 48" style="enable-background:new 0 0 48 48;" xml:space="preserve">
<style type="text/css">
	.st0{fill:#C6CCD7;}
	.st1{filter:url(#Adobe_OpacityMaskFilter);}
	.st2{fill-rule:evenodd;clip-rule:evenodd;fill:#FFFFFF;}
	.st3{mask:url(#mask-2_1_);enable-background:new    ;}
	.st4{filter:url(#Adobe_OpacityMaskFilter_1_);}
	.st5{mask:url(#mask-2_2_);enable-background:new    ;}
	.st6{filter:url(#Adobe_OpacityMaskFilter_2_);}
	.st7{mask:url(#mask-2_3_);enable-background:new    ;}
	.st8{fill-rule:evenodd;clip-rule:evenodd;fill:#C6CCD7;}
</style>
<title>小</title>
<g id="页面-1">
	<g id="小">
		<g>
			<g>
				<path class="st0" d="M44,48H4c-2.2,0-4-1.8-4-4V4c0-2.2,1.8-4,4-4h40c2.2,0,4,1.8,4,4v40C48,46.2,46.2,48,44,48z M4,2
					C2.9,2,2,2.9,2,4v40c0,1.1,0.9,2,2,2h40c1.1,0,2-0.9,2-2V4c0-1.1-0.9-2-2-2H4z"/>
			</g>
			<defs>
				<filter id="Adobe_OpacityMaskFilter" filterUnits="userSpaceOnUse" x="3" y="13.9" width="43.4" height="5.2">
					<feColorMatrix  type="matrix" values="1 0 0 0 0  0 1 0 0 0  0 0 1 0 0  0 0 0 1 0"/>
				</filter>
			</defs>
			<mask maskUnits="userSpaceOnUse" x="3" y="13.9" width="43.4" height="5.2" id="mask-2_1_">
				<g class="st1">
					<path id="path-1_1_" class="st2" d="M3,0h42c1.7,0,3,1.3,3,3v42c0,1.7-1.3,3-3,3H3c-1.7,0-3-1.3-3-3V3C0,1.3,1.3,0,3,0z"/>
				</g>
			</mask>
			<g class="st3">
				<path class="st0" d="M5.6,14l2,5H7l-0.5-1.4H4.1L3.6,19H3l2-5H5.6z M6.3,17.1l-0.9-2.5h0l-1,2.5H6.3z"/>
				<path class="st0" d="M10.8,15.7c0.2,0.2,0.3,0.6,0.3,1V19h-0.5v-0.6c-0.1,0.2-0.3,0.4-0.6,0.5c-0.3,0.1-0.6,0.2-0.9,0.2
					c-0.4,0-0.7-0.1-0.9-0.3c-0.2-0.2-0.3-0.4-0.3-0.7c0-0.4,0.2-0.7,0.5-0.9c0.3-0.2,0.7-0.3,1.3-0.3l0.9,0v-0.2
					c0-0.6-0.3-0.9-0.9-0.9c-0.3,0-0.5,0-0.7,0.2c-0.2,0.1-0.3,0.3-0.4,0.5l-0.6,0c0.1-0.4,0.3-0.7,0.6-0.8c0.3-0.2,0.6-0.3,1-0.3
					C10.1,15.3,10.5,15.4,10.8,15.7z M9.7,17.3c-0.8,0-1.2,0.3-1.2,0.8c0,0.2,0.1,0.3,0.2,0.4c0.1,0.1,0.3,0.2,0.5,0.2
					c0.3,0,0.6-0.1,0.9-0.3c0.3-0.2,0.4-0.5,0.4-0.7v-0.3L9.7,17.3z"/>
				<path class="st0" d="M14.2,14c0.5,0,0.8,0.1,1.1,0.3c0.3,0.2,0.4,0.5,0.4,0.9c0,0.3-0.1,0.5-0.2,0.7c-0.2,0.2-0.4,0.3-0.6,0.4
					c0.3,0.1,0.6,0.2,0.8,0.4s0.3,0.5,0.3,0.8c0,0.5-0.2,0.9-0.5,1.1c-0.3,0.2-0.7,0.3-1.2,0.3H12v-5H14.2z M12.6,16.2h1.5
					c0.4,0,0.6-0.1,0.8-0.2c0.2-0.1,0.3-0.4,0.3-0.7c0-0.3-0.1-0.5-0.3-0.6c-0.2-0.1-0.4-0.2-0.8-0.2h-1.5V16.2z M12.6,18.5h1.6
					c0.4,0,0.6-0.1,0.8-0.2c0.2-0.2,0.4-0.4,0.4-0.7s-0.1-0.6-0.3-0.7c-0.2-0.2-0.5-0.2-0.9-0.2h-1.6V18.5z"/>
				<path class="st0" d="M17.2,13.9V16c0.3-0.5,0.7-0.8,1.2-0.8c0.5,0,0.9,0.2,1.2,0.6c0.3,0.4,0.4,0.8,0.4,1.3c0,0.5-0.1,1-0.4,1.3
					c-0.3,0.4-0.7,0.6-1.2,0.6c-0.6,0-1-0.2-1.2-0.7V19h-0.5v-5.1H17.2z M17.5,16.1c-0.2,0.3-0.3,0.6-0.3,1v0.1c0,0.4,0.1,0.7,0.3,1
					c0.2,0.3,0.5,0.4,0.8,0.4c0.4,0,0.7-0.1,0.9-0.4c0.2-0.3,0.3-0.6,0.3-1c0-0.4-0.1-0.8-0.3-1c-0.2-0.3-0.5-0.4-0.9-0.4
					C18,15.7,17.7,15.9,17.5,16.1z"/>
				<path class="st0" d="M24.4,14.3c0.4,0.3,0.6,0.7,0.7,1.2h-0.6c-0.1-0.4-0.3-0.6-0.5-0.8c-0.3-0.2-0.6-0.3-1-0.3
					c-0.6,0-1,0.2-1.3,0.6c-0.3,0.4-0.4,0.9-0.4,1.5s0.1,1.1,0.4,1.5c0.3,0.4,0.7,0.6,1.3,0.6c0.4,0,0.7-0.1,1-0.3
					c0.3-0.2,0.5-0.6,0.6-1h0.6c-0.1,0.6-0.4,1-0.8,1.4c-0.4,0.3-0.8,0.5-1.4,0.5c-0.8,0-1.4-0.3-1.8-0.8c-0.4-0.5-0.6-1.1-0.6-1.8
					s0.2-1.4,0.6-1.8c0.4-0.5,1-0.8,1.8-0.8C23.6,13.9,24,14,24.4,14.3z"/>
				<path class="st0" d="M28.5,15.6c0.3,0.2,0.4,0.5,0.5,1h-0.6c0-0.3-0.2-0.5-0.3-0.6c-0.2-0.1-0.4-0.2-0.7-0.2
					c-0.4,0-0.6,0.1-0.8,0.4c-0.2,0.3-0.3,0.6-0.3,1.1s0.1,0.8,0.3,1c0.2,0.3,0.5,0.4,0.8,0.4c0.6,0,1-0.3,1.1-0.9h0.6
					c-0.1,0.5-0.3,0.8-0.5,1.1c-0.3,0.2-0.6,0.3-1.1,0.3c-0.5,0-1-0.2-1.3-0.5c-0.3-0.3-0.4-0.8-0.4-1.3s0.1-1,0.4-1.4
					c0.3-0.4,0.7-0.6,1.3-0.6C27.9,15.3,28.2,15.4,28.5,15.6z"/>
				<path class="st0" d="M31.6,14c0.8,0,1.4,0.2,1.8,0.7c0.4,0.4,0.6,1,0.6,1.8c0,0.8-0.2,1.4-0.6,1.8c-0.4,0.5-1,0.7-1.8,0.7h-1.7
					v-5H31.6z M30.4,18.5h1.1c0.7,0,1.1-0.2,1.5-0.5c0.3-0.3,0.5-0.8,0.5-1.5c0-0.7-0.1-1.2-0.4-1.5c-0.3-0.3-0.8-0.5-1.4-0.5h-1.1
					V18.5z"/>
				<path class="st0" d="M37.9,13.9V19h-0.5v-0.6c-0.3,0.5-0.7,0.7-1.2,0.7c-0.5,0-0.9-0.2-1.2-0.6c-0.3-0.3-0.4-0.8-0.4-1.3
					c0-0.5,0.1-1,0.4-1.3c0.3-0.4,0.7-0.6,1.2-0.6s0.9,0.3,1.2,0.8v-2.1H37.9z M35.4,16.2c-0.2,0.2-0.3,0.6-0.3,1
					c0,0.4,0.1,0.8,0.3,1c0.2,0.3,0.5,0.4,0.9,0.4c0.4,0,0.6-0.1,0.8-0.4c0.2-0.3,0.3-0.6,0.3-1v-0.1c0-0.4-0.1-0.8-0.3-1
					c-0.2-0.3-0.5-0.4-0.8-0.4C35.9,15.7,35.6,15.9,35.4,16.2z"/>
				<path class="st0" d="M42.4,14v0.5h-3v1.7h2.8v0.5h-2.8v1.8h3.1V19h-3.7v-5H42.4z"/>
				<path class="st0" d="M46,15.9c0.3,0.4,0.4,0.8,0.4,1.5h-2.9c0,0.4,0.1,0.7,0.3,0.9c0.2,0.2,0.5,0.3,0.8,0.3
					c0.3,0,0.5-0.1,0.7-0.2c0.2-0.1,0.3-0.3,0.4-0.6h0.6c-0.1,0.4-0.2,0.6-0.5,0.9c-0.3,0.3-0.7,0.4-1.2,0.4c-0.5,0-0.9-0.2-1.2-0.5
					c-0.3-0.4-0.5-0.8-0.5-1.4c0-0.5,0.1-1,0.5-1.3c0.3-0.4,0.7-0.6,1.2-0.6C45.3,15.3,45.7,15.5,46,15.9z M43.9,16.1
					c-0.2,0.2-0.3,0.5-0.3,0.8h2.3c-0.1-0.8-0.5-1.2-1.1-1.2C44.4,15.8,44.1,15.9,43.9,16.1z"/>
			</g>
			<defs>
				<filter id="Adobe_OpacityMaskFilter_1_" filterUnits="userSpaceOnUse" x="3" y="35.9" width="43.4" height="5.2">
					<feColorMatrix  type="matrix" values="1 0 0 0 0  0 1 0 0 0  0 0 1 0 0  0 0 0 1 0"/>
				</filter>
			</defs>
			<mask maskUnits="userSpaceOnUse" x="3" y="35.9" width="43.4" height="5.2" id="mask-2_2_">
				<g class="st4">
					<path id="path-1_2_" class="st2" d="M3,0h42c1.7,0,3,1.3,3,3v42c0,1.7-1.3,3-3,3H3c-1.7,0-3-1.3-3-3V3C0,1.3,1.3,0,3,0z"/>
				</g>
			</mask>
			<g class="st5">
				<path class="st0" d="M5.6,36l2,5H7l-0.5-1.4H4.1L3.6,41H3l2-5H5.6z M6.3,39.1l-0.9-2.5h0l-1,2.5H6.3z"/>
				<path class="st0" d="M10.8,37.7c0.2,0.2,0.3,0.6,0.3,1V41h-0.5v-0.6c-0.1,0.2-0.3,0.4-0.6,0.5c-0.3,0.1-0.6,0.2-0.9,0.2
					c-0.4,0-0.7-0.1-0.9-0.3c-0.2-0.2-0.3-0.4-0.3-0.7c0-0.4,0.2-0.7,0.5-0.9c0.3-0.2,0.7-0.3,1.3-0.3l0.9,0v-0.2
					c0-0.6-0.3-0.9-0.9-0.9c-0.3,0-0.5,0-0.7,0.2c-0.2,0.1-0.3,0.3-0.4,0.5l-0.6,0c0.1-0.4,0.3-0.7,0.6-0.8c0.3-0.2,0.6-0.3,1-0.3
					C10.1,37.3,10.5,37.4,10.8,37.7z M9.7,39.3c-0.8,0-1.2,0.3-1.2,0.8c0,0.2,0.1,0.3,0.2,0.4c0.1,0.1,0.3,0.2,0.5,0.2
					c0.3,0,0.6-0.1,0.9-0.3c0.3-0.2,0.4-0.5,0.4-0.7v-0.3L9.7,39.3z"/>
				<path class="st0" d="M14.2,36c0.5,0,0.8,0.1,1.1,0.3c0.3,0.2,0.4,0.5,0.4,0.9c0,0.3-0.1,0.5-0.2,0.7c-0.2,0.2-0.4,0.3-0.6,0.4
					c0.3,0.1,0.6,0.2,0.8,0.4s0.3,0.5,0.3,0.8c0,0.5-0.2,0.9-0.5,1.1c-0.3,0.2-0.7,0.3-1.2,0.3H12v-5H14.2z M12.6,38.2h1.5
					c0.4,0,0.6-0.1,0.8-0.2c0.2-0.1,0.3-0.4,0.3-0.7c0-0.3-0.1-0.5-0.3-0.6c-0.2-0.1-0.4-0.2-0.8-0.2h-1.5V38.2z M12.6,40.5h1.6
					c0.4,0,0.6-0.1,0.8-0.2c0.2-0.2,0.4-0.4,0.4-0.7s-0.1-0.6-0.3-0.7c-0.2-0.2-0.5-0.2-0.9-0.2h-1.6V40.5z"/>
				<path class="st0" d="M17.2,35.9V38c0.3-0.5,0.7-0.8,1.2-0.8c0.5,0,0.9,0.2,1.2,0.6c0.3,0.4,0.4,0.8,0.4,1.3c0,0.5-0.1,1-0.4,1.3
					c-0.3,0.4-0.7,0.6-1.2,0.6c-0.6,0-1-0.2-1.2-0.7V41h-0.5v-5.1H17.2z M17.5,38.1c-0.2,0.3-0.3,0.6-0.3,1v0.1c0,0.4,0.1,0.7,0.3,1
					c0.2,0.3,0.5,0.4,0.8,0.4c0.4,0,0.7-0.1,0.9-0.4c0.2-0.3,0.3-0.6,0.3-1c0-0.4-0.1-0.8-0.3-1c-0.2-0.3-0.5-0.4-0.9-0.4
					C18,37.7,17.7,37.9,17.5,38.1z"/>
				<path class="st0" d="M24.4,36.3c0.4,0.3,0.6,0.7,0.7,1.2h-0.6c-0.1-0.4-0.3-0.6-0.5-0.8c-0.3-0.2-0.6-0.3-1-0.3
					c-0.6,0-1,0.2-1.3,0.6c-0.3,0.4-0.4,0.9-0.4,1.5s0.1,1.1,0.4,1.5c0.3,0.4,0.7,0.6,1.3,0.6c0.4,0,0.7-0.1,1-0.3
					c0.3-0.2,0.5-0.6,0.6-1h0.6c-0.1,0.6-0.4,1-0.8,1.4c-0.4,0.3-0.8,0.5-1.4,0.5c-0.8,0-1.4-0.3-1.8-0.8c-0.4-0.5-0.6-1.1-0.6-1.8
					s0.2-1.4,0.6-1.8c0.4-0.5,1-0.8,1.8-0.8C23.6,35.9,24,36,24.4,36.3z"/>
				<path class="st0" d="M28.5,37.6c0.3,0.2,0.4,0.5,0.5,1h-0.6c0-0.3-0.2-0.5-0.3-0.6c-0.2-0.1-0.4-0.2-0.7-0.2
					c-0.4,0-0.6,0.1-0.8,0.4c-0.2,0.3-0.3,0.6-0.3,1.1s0.1,0.8,0.3,1c0.2,0.3,0.5,0.4,0.8,0.4c0.6,0,1-0.3,1.1-0.9h0.6
					c-0.1,0.5-0.3,0.8-0.5,1.1c-0.3,0.2-0.6,0.3-1.1,0.3c-0.5,0-1-0.2-1.3-0.5c-0.3-0.3-0.4-0.8-0.4-1.3s0.1-1,0.4-1.4
					c0.3-0.4,0.7-0.6,1.3-0.6C27.9,37.3,28.2,37.4,28.5,37.6z"/>
				<path class="st0" d="M31.6,36c0.8,0,1.4,0.2,1.8,0.7c0.4,0.4,0.6,1,0.6,1.8c0,0.8-0.2,1.4-0.6,1.8c-0.4,0.5-1,0.7-1.8,0.7h-1.7
					v-5H31.6z M30.4,40.5h1.1c0.7,0,1.1-0.2,1.5-0.5c0.3-0.3,0.5-0.8,0.5-1.5c0-0.7-0.1-1.2-0.4-1.5c-0.3-0.3-0.8-0.5-1.4-0.5h-1.1
					V40.5z"/>
				<path class="st0" d="M37.9,35.9V41h-0.5v-0.6c-0.3,0.5-0.7,0.7-1.2,0.7c-0.5,0-0.9-0.2-1.2-0.6c-0.3-0.3-0.4-0.8-0.4-1.3
					c0-0.5,0.1-1,0.4-1.3c0.3-0.4,0.7-0.6,1.2-0.6s0.9,0.3,1.2,0.8v-2.1H37.9z M35.4,38.2c-0.2,0.2-0.3,0.6-0.3,1
					c0,0.4,0.1,0.8,0.3,1c0.2,0.3,0.5,0.4,0.9,0.4c0.4,0,0.6-0.1,0.8-0.4c0.2-0.3,0.3-0.6,0.3-1v-0.1c0-0.4-0.1-0.8-0.3-1
					c-0.2-0.3-0.5-0.4-0.8-0.4C35.9,37.7,35.6,37.9,35.4,38.2z"/>
				<path class="st0" d="M42.4,36v0.5h-3v1.7h2.8v0.5h-2.8v1.8h3.1V41h-3.7v-5H42.4z"/>
				<path class="st0" d="M46,37.9c0.3,0.4,0.4,0.8,0.4,1.5h-2.9c0,0.4,0.1,0.7,0.3,0.9c0.2,0.2,0.5,0.3,0.8,0.3
					c0.3,0,0.5-0.1,0.7-0.2c0.2-0.1,0.3-0.3,0.4-0.6h0.6c-0.1,0.4-0.2,0.6-0.5,0.9c-0.3,0.3-0.7,0.4-1.2,0.4c-0.5,0-0.9-0.2-1.2-0.5
					c-0.3-0.4-0.5-0.8-0.5-1.4c0-0.5,0.1-1,0.5-1.3c0.3-0.4,0.7-0.6,1.2-0.6C45.3,37.3,45.7,37.5,46,37.9z M43.9,38.1
					c-0.2,0.2-0.3,0.5-0.3,0.8h2.3c-0.1-0.8-0.5-1.2-1.1-1.2C44.4,37.8,44.1,37.9,43.9,38.1z"/>
			</g>
			<defs>
				<filter id="Adobe_OpacityMaskFilter_2_" filterUnits="userSpaceOnUse" x="3" y="24.9" width="43.4" height="5.2">
					<feColorMatrix  type="matrix" values="1 0 0 0 0  0 1 0 0 0  0 0 1 0 0  0 0 0 1 0"/>
				</filter>
			</defs>
			<mask maskUnits="userSpaceOnUse" x="3" y="24.9" width="43.4" height="5.2" id="mask-2_3_">
				<g class="st6">
					<path id="path-1_3_" class="st2" d="M3,0h42c1.7,0,3,1.3,3,3v42c0,1.7-1.3,3-3,3H3c-1.7,0-3-1.3-3-3V3C0,1.3,1.3,0,3,0z"/>
				</g>
			</mask>
			<g class="st7">
				<path class="st0" d="M5.6,25l2,5H7l-0.5-1.4H4.1L3.6,30H3l2-5H5.6z M6.3,28.1l-0.9-2.5h0l-1,2.5H6.3z"/>
				<path class="st0" d="M10.8,26.7c0.2,0.2,0.3,0.6,0.3,1V30h-0.5v-0.6c-0.1,0.2-0.3,0.4-0.6,0.5c-0.3,0.1-0.6,0.2-0.9,0.2
					c-0.4,0-0.7-0.1-0.9-0.3c-0.2-0.2-0.3-0.4-0.3-0.7c0-0.4,0.2-0.7,0.5-0.9c0.3-0.2,0.7-0.3,1.3-0.3l0.9,0v-0.2
					c0-0.6-0.3-0.9-0.9-0.9c-0.3,0-0.5,0-0.7,0.2c-0.2,0.1-0.3,0.3-0.4,0.5l-0.6,0c0.1-0.4,0.3-0.7,0.6-0.8c0.3-0.2,0.6-0.3,1-0.3
					C10.1,26.3,10.5,26.4,10.8,26.7z M9.7,28.3c-0.8,0-1.2,0.3-1.2,0.8c0,0.2,0.1,0.3,0.2,0.4c0.1,0.1,0.3,0.2,0.5,0.2
					c0.3,0,0.6-0.1,0.9-0.3c0.3-0.2,0.4-0.5,0.4-0.7v-0.3L9.7,28.3z"/>
				<path class="st0" d="M14.2,25c0.5,0,0.8,0.1,1.1,0.3c0.3,0.2,0.4,0.5,0.4,0.9c0,0.3-0.1,0.5-0.2,0.7c-0.2,0.2-0.4,0.3-0.6,0.4
					c0.3,0.1,0.6,0.2,0.8,0.4s0.3,0.5,0.3,0.8c0,0.5-0.2,0.9-0.5,1.1c-0.3,0.2-0.7,0.3-1.2,0.3H12v-5H14.2z M12.6,27.2h1.5
					c0.4,0,0.6-0.1,0.8-0.2c0.2-0.1,0.3-0.4,0.3-0.7c0-0.3-0.1-0.5-0.3-0.6c-0.2-0.1-0.4-0.2-0.8-0.2h-1.5V27.2z M12.6,29.5h1.6
					c0.4,0,0.6-0.1,0.8-0.2c0.2-0.2,0.4-0.4,0.4-0.7s-0.1-0.6-0.3-0.7c-0.2-0.2-0.5-0.2-0.9-0.2h-1.6V29.5z"/>
				<path class="st0" d="M17.2,24.9V27c0.3-0.5,0.7-0.8,1.2-0.8c0.5,0,0.9,0.2,1.2,0.6c0.3,0.4,0.4,0.8,0.4,1.3c0,0.5-0.1,1-0.4,1.3
					c-0.3,0.4-0.7,0.6-1.2,0.6c-0.6,0-1-0.2-1.2-0.7V30h-0.5v-5.1H17.2z M17.5,27.1c-0.2,0.3-0.3,0.6-0.3,1v0.1c0,0.4,0.1,0.7,0.3,1
					c0.2,0.3,0.5,0.4,0.8,0.4c0.4,0,0.7-0.1,0.9-0.4c0.2-0.3,0.3-0.6,0.3-1c0-0.4-0.1-0.8-0.3-1c-0.2-0.3-0.5-0.4-0.9-0.4
					C18,26.7,17.7,26.9,17.5,27.1z"/>
				<path class="st0" d="M24.4,25.3c0.4,0.3,0.6,0.7,0.7,1.2h-0.6c-0.1-0.4-0.3-0.6-0.5-0.8c-0.3-0.2-0.6-0.3-1-0.3
					c-0.6,0-1,0.2-1.3,0.6c-0.3,0.4-0.4,0.9-0.4,1.5s0.1,1.1,0.4,1.5c0.3,0.4,0.7,0.6,1.3,0.6c0.4,0,0.7-0.1,1-0.3
					c0.3-0.2,0.5-0.6,0.6-1h0.6c-0.1,0.6-0.4,1-0.8,1.4c-0.4,0.3-0.8,0.5-1.4,0.5c-0.8,0-1.4-0.3-1.8-0.8c-0.4-0.5-0.6-1.1-0.6-1.8
					s0.2-1.4,0.6-1.8c0.4-0.5,1-0.8,1.8-0.8C23.6,24.9,24,25,24.4,25.3z"/>
				<path class="st0" d="M28.5,26.6c0.3,0.2,0.4,0.5,0.5,1h-0.6c0-0.3-0.2-0.5-0.3-0.6c-0.2-0.1-0.4-0.2-0.7-0.2
					c-0.4,0-0.6,0.1-0.8,0.4c-0.2,0.3-0.3,0.6-0.3,1.1s0.1,0.8,0.3,1c0.2,0.3,0.5,0.4,0.8,0.4c0.6,0,1-0.3,1.1-0.9h0.6
					c-0.1,0.5-0.3,0.8-0.5,1.1c-0.3,0.2-0.6,0.3-1.1,0.3c-0.5,0-1-0.2-1.3-0.5c-0.3-0.3-0.4-0.8-0.4-1.3s0.1-1,0.4-1.4
					c0.3-0.4,0.7-0.6,1.3-0.6C27.9,26.3,28.2,26.4,28.5,26.6z"/>
				<path class="st0" d="M31.6,25c0.8,0,1.4,0.2,1.8,0.7c0.4,0.4,0.6,1,0.6,1.8c0,0.8-0.2,1.4-0.6,1.8c-0.4,0.5-1,0.7-1.8,0.7h-1.7
					v-5H31.6z M30.4,29.5h1.1c0.7,0,1.1-0.2,1.5-0.5c0.3-0.3,0.5-0.8,0.5-1.5c0-0.7-0.1-1.2-0.4-1.5c-0.3-0.3-0.8-0.5-1.4-0.5h-1.1
					V29.5z"/>
				<path class="st0" d="M37.9,24.9V30h-0.5v-0.6c-0.3,0.5-0.7,0.7-1.2,0.7c-0.5,0-0.9-0.2-1.2-0.6c-0.3-0.3-0.4-0.8-0.4-1.3
					c0-0.5,0.1-1,0.4-1.3c0.3-0.4,0.7-0.6,1.2-0.6s0.9,0.3,1.2,0.8v-2.1H37.9z M35.4,27.2c-0.2,0.2-0.3,0.6-0.3,1
					c0,0.4,0.1,0.8,0.3,1c0.2,0.3,0.5,0.4,0.9,0.4c0.4,0,0.6-0.1,0.8-0.4c0.2-0.3,0.3-0.6,0.3-1v-0.1c0-0.4-0.1-0.8-0.3-1
					c-0.2-0.3-0.5-0.4-0.8-0.4C35.9,26.7,35.6,26.9,35.4,27.2z"/>
				<path class="st0" d="M42.4,25v0.5h-3v1.7h2.8v0.5h-2.8v1.8h3.1V30h-3.7v-5H42.4z"/>
				<path class="st0" d="M46,26.9c0.3,0.4,0.4,0.8,0.4,1.5h-2.9c0,0.4,0.1,0.7,0.3,0.9c0.2,0.2,0.5,0.3,0.8,0.3
					c0.3,0,0.5-0.1,0.7-0.2c0.2-0.1,0.3-0.3,0.4-0.6h0.6c-0.1,0.4-0.2,0.6-0.5,0.9c-0.3,0.3-0.7,0.4-1.2,0.4c-0.5,0-0.9-0.2-1.2-0.5
					c-0.3-0.4-0.5-0.8-0.5-1.4c0-0.5,0.1-1,0.5-1.3c0.3-0.4,0.7-0.6,1.2-0.6C45.3,26.3,45.7,26.5,46,26.9z M43.9,27.1
					c-0.2,0.2-0.3,0.5-0.3,0.8h2.3c-0.1-0.8-0.5-1.2-1.1-1.2C44.4,26.8,44.1,26.9,43.9,27.1z"/>
			</g>
		</g>
		<g id="矩形备份-15">
			<path class="st8" d="M3,0h42c1.7,0,3,1.3,3,3v7l0,0H0V3C0,1.3,1.3,0,3,0z"/>
		</g>
	</g>
</g>
</svg>
