<?xml version="1.0" encoding="utf-8"?>
<!-- Generator: Adobe Illustrator 23.0.0, SVG Export Plug-In . SVG Version: 6.00 Build 0)  -->
<svg version="1.1" id="图层_1" xmlns="http://www.w3.org/2000/svg" xmlns:xlink="http://www.w3.org/1999/xlink" x="0px" y="0px"
	 viewBox="0 0 72 32" style="enable-background:new 0 0 72 32;" xml:space="preserve">
<style type="text/css">
	.st0{fill:#C6CCD7;}
	.st1{fill-rule:evenodd;clip-rule:evenodd;fill:#C6CCD7;}
	.st2{fill:#C7CBD0;}
</style>
<title>标准</title>
<g id="页面-1">
	<g id="标准">
		<g id="矩形">
			<path class="st0" d="M68.5,32h-65C1.6,32,0,30.4,0,28.5v-25C0,1.6,1.6,0,3.5,0h65C70.4,0,72,1.6,72,3.5v25
				C72,30.4,70.4,32,68.5,32z M3.5,1C2.1,1,1,2.1,1,3.5v25C1,29.9,2.1,31,3.5,31h65c1.4,0,2.5-1.1,2.5-2.5v-25C71,2.1,69.9,1,68.5,1
				H3.5z"/>
		</g>
		<g>
			<path class="st0" d="M9.5,11h-2C6.7,11,6,10.3,6,9.5v-2C6,6.7,6.7,6,7.5,6h2C10.3,6,11,6.7,11,7.5v2C11,10.3,10.3,11,9.5,11z
				 M7.5,7C7.2,7,7,7.2,7,7.5v2C7,9.8,7.2,10,7.5,10h2C9.8,10,10,9.8,10,9.5v-2C10,7.2,9.8,7,9.5,7H7.5z"/>
		</g>
		<g id="矩形备份-25">
			<path class="st0" d="M9.5,26h-2C6.7,26,6,25.3,6,24.5v-2C6,21.7,6.7,21,7.5,21h2c0.8,0,1.5,0.7,1.5,1.5v2C11,25.3,10.3,26,9.5,26
				z M7.5,22C7.2,22,7,22.2,7,22.5v2C7,24.8,7.2,25,7.5,25h2c0.3,0,0.5-0.2,0.5-0.5v-2c0-0.3-0.2-0.5-0.5-0.5H7.5z"/>
		</g>
		<g>
			<path class="st1" d="M16.5,7h47C64.3,7,65,7.7,65,8.5l0,0c0,0.8-0.7,1.5-1.5,1.5h-47C15.7,10,15,9.3,15,8.5l0,0
				C15,7.7,15.7,7,16.5,7z"/>
		</g>
		<g id="矩形备份-26">
			<path class="st1" d="M16.5,22h47c0.8,0,1.5,0.7,1.5,1.5l0,0c0,0.8-0.7,1.5-1.5,1.5h-47c-0.8,0-1.5-0.7-1.5-1.5l0,0
				C15,22.7,15.7,22,16.5,22z"/>
		</g>
		<g id="路径-7">
			<rect x="0.7" y="16.1" class="st2" width="70.7" height="1"/>
		</g>
	</g>
</g>
</svg>
