<?xml version="1.0" encoding="utf-8"?>
<!-- Generator: Adobe Illustrator 23.0.0, SVG Export Plug-In . SVG Version: 6.00 Build 0)  -->
<svg version="1.1" id="图层_1" xmlns="http://www.w3.org/2000/svg" xmlns:xlink="http://www.w3.org/1999/xlink" x="0px" y="0px"
	 viewBox="0 0 48 48" style="enable-background:new 0 0 48 48;" xml:space="preserve">
<style type="text/css">
	.st0{fill:#C6CCD7;}
	.st1{fill-rule:evenodd;clip-rule:evenodd;fill:#C6CCD7;}
</style>
<title>卡片紧凑</title>
<g id="页面-1">
	<g id="卡片紧凑" transform="translate(-0.000000, 0.000000)">
		<g id="矩形备份-9">
			<path class="st0" d="M44,48H4c-2.2,0-4-1.8-4-4V4c0-2.2,1.8-4,4-4h40c2.2,0,4,1.8,4,4v40C48,46.2,46.2,48,44,48z M4,2
				C2.9,2,2,2.9,2,4v40c0,1.1,0.9,2,2,2h40c1.1,0,2-0.9,2-2V4c0-1.1-0.9-2-2-2H4z"/>
		</g>
		<g id="矩形">
			<rect x="5" y="17" class="st1" width="11.6" height="11.6"/>
		</g>
		<g id="矩形备份-61">
			<rect x="18.4" y="17" class="st1" width="11.6" height="11.6"/>
		</g>
		<g id="矩形备份-67">
			<rect x="18.4" y="30.4" class="st1" width="25" height="11.6"/>
		</g>
		<g id="矩形备份-68">
			<rect x="5" y="30.4" class="st1" width="11.6" height="11.6"/>
		</g>
		<g id="矩形备份-66">
			<rect x="31.8" y="17" class="st1" width="11.6" height="11.6"/>
		</g>
		<g id="矩形备份-18">
			<path class="st1" d="M3,0h42c1.7,0,3,1.3,3,3v10l0,0H0V3C0,1.3,1.3,0,3,0z"/>
		</g>
	</g>
</g>
</svg>
