<?xml version="1.0" encoding="utf-8"?>
<!-- Generator: Adobe Illustrator 23.0.0, SVG Export Plug-In . SVG Version: 6.00 Build 0)  -->
<svg version="1.1" id="图层_1" xmlns="http://www.w3.org/2000/svg" xmlns:xlink="http://www.w3.org/1999/xlink" x="0px" y="0px"
	 viewBox="0 0 20 20" style="enable-background:new 0 0 20 20;" xml:space="preserve">
<style type="text/css">
	.st0{fill:#111111;}
</style>
<title>图标风格icon</title>
<g id="zhuti备份" transform="translate(2.000000, 2.000000)">
	<g id="形状">
		<path class="st0" d="M8,16.5c-4.6,0-8.5-3.9-8.5-8.5c0-4.8,3.8-8.5,8.8-8.5c5.1,0,8.2,3.9,8.2,7.6c0,1.4-0.5,2.6-1.3,3.5
			c-0.9,0.9-2.4,1.5-3.9,1.4c-2.2,0-2.2,0.5-2.2,0.7c0,0.3,0.1,0.3,0.3,0.5c0.3,0.2,0.6,0.6,0.6,1.4C10,15.7,9.1,16.5,8,16.5z
			 M8.3,0.5C3.8,0.5,0.5,3.7,0.5,8c0,4,3.5,7.5,7.5,7.5c0.6,0,1-0.4,1-0.9c0-0.4-0.1-0.4-0.3-0.6c-0.2-0.2-0.6-0.5-0.6-1.2
			c0-1.7,2.3-1.7,3.2-1.7c1.2,0,2.4-0.4,3.2-1.2c0.7-0.7,1-1.6,1-2.7C15.5,4.4,13.2,0.5,8.3,0.5z M12.9,8.5c-1,0-1.8-0.8-1.8-1.8
			c0-1,0.8-1.8,1.8-1.8s1.8,0.8,1.8,1.8c0,0.4-0.1,0.9-0.5,1.2C13.9,8.3,13.4,8.5,12.9,8.5z M12.9,5.9c-0.4,0-0.8,0.4-0.8,0.8
			c0,0.4,0.4,0.8,0.8,0.8c0.2,0,0.5-0.1,0.6-0.3c0.1-0.1,0.2-0.3,0.2-0.5C13.7,6.2,13.3,5.9,12.9,5.9z M3.1,8.5
			c-1,0-1.8-0.8-1.8-1.8c0-1,0.8-1.8,1.8-1.8s1.8,0.8,1.8,1.8C4.9,7.7,4.1,8.5,3.1,8.5z M3.1,5.9c-0.4,0-0.8,0.4-0.8,0.8
			c0,0.4,0.4,0.8,0.8,0.8s0.8-0.4,0.8-0.8C3.9,6.2,3.6,5.9,3.1,5.9z M10.2,4.9c-1,0-1.8-0.8-1.8-1.8c0-1,0.8-1.8,1.8-1.8
			c1,0,1.8,0.8,1.8,1.8C12,4.1,11.2,4.9,10.2,4.9z M10.2,2.3c-0.4,0-0.8,0.4-0.8,0.8c0,0.4,0.4,0.8,0.8,0.8c0.4,0,0.8-0.4,0.8-0.8
			C11,2.7,10.7,2.3,10.2,2.3z M5.8,4.9c-1,0-1.8-0.8-1.8-1.8c0-1,0.8-1.8,1.8-1.8c1,0,1.8,0.8,1.8,1.8C7.6,4.1,6.8,4.9,5.8,4.9z
			 M5.8,2.3c-0.4,0-0.8,0.4-0.8,0.8c0,0.4,0.4,0.8,0.8,0.8c0.5,0,0.8-0.4,0.8-0.8C6.6,2.7,6.2,2.3,5.8,2.3z"/>
	</g>
</g>
</svg>
