<?xml version="1.0" encoding="UTF-8"?>
<svg width="72px" height="72px" viewBox="0 0 72 72" version="1.1" xmlns="http://www.w3.org/2000/svg" xmlns:xlink="http://www.w3.org/1999/xlink">
    <!-- Generator: Sketch 55.2 (78181) - https://sketchapp.com -->
    <title>应用管理平台</title>
    <desc>Created with Sketch.</desc>
    <defs>
        <linearGradient x1="50%" y1="100%" x2="50%" y2="0%" id="linearGradient-1">
            <stop stop-color="#008CF9" offset="0%"></stop>
            <stop stop-color="#00C6FF" offset="100%"></stop>
        </linearGradient>
    </defs>
    <g id="应用管理平台" stroke="none" stroke-width="1" fill="none" fill-rule="evenodd">
        <path d="M15,38.752539 L25.4926783,38.752539 C29.3586716,38.752539 32.4926783,41.8865458 32.4926783,45.752539 L32.4926783,56.1085262 C32.4926783,59.9745194 29.3586716,63.1085262 25.4926783,63.1085262 L15,63.1085262 C11.1340068,63.1085262 8,59.9745194 8,56.1085262 L8,45.752539 C8,41.8865458 11.1340068,38.752539 15,38.752539 Z M45.6158479,38.752539 L56.1085262,38.752539 C59.9745194,38.752539 63.1085262,41.8865458 63.1085262,45.752539 L63.1085262,56.1085262 C63.1085262,59.9745194 59.9745194,63.1085262 56.1085262,63.1085262 L45.6158479,63.1085262 C41.7498546,63.1085262 38.6158479,59.9745194 38.6158479,56.1085262 L38.6158479,45.752539 C38.6158479,41.8865458 41.7498546,38.752539 45.6158479,38.752539 Z M15,8.30755512 L25.4926783,8.30755512 C29.3586716,8.30755512 32.4926783,11.4415619 32.4926783,15.3075551 L32.4926783,25.6635423 C32.4926783,29.5295355 29.3586716,32.6635423 25.4926783,32.6635423 L15,32.6635423 C11.1340068,32.6635423 8,29.5295355 8,25.6635423 L8,15.3075551 C8,11.4415619 11.1340068,8.30755512 15,8.30755512 Z M50.6892161,27.7662938 C53.1143846,27.7786476 55.307286,26.3342498 56.2418697,24.1088492 C57.1764535,21.8834486 56.6678864,19.3171645 54.954125,17.6107516 C53.2403636,15.9043387 50.6603399,15.3952757 48.4212374,16.3217513 C46.182135,17.2482268 44.7267827,19.4270111 44.7360898,21.8386591 C44.7403685,25.1076088 47.4019287,27.7577564 50.6892161,27.7662938 Z M36.7728898,21.8386591 C36.7724422,20.8557049 36.8656542,19.8749196 37.0512777,18.9094526 C38.7470538,18.7199941 40.2425585,17.7180447 41.0560539,16.2263562 C41.9238515,14.666602 41.9983867,12.7905265 41.2570368,11.1675535 C42.7359078,9.73613979 44.5194297,8.65360529 46.4757167,8 C47.4103936,9.4548353 49.0266147,10.3352342 50.7626995,10.3352342 C52.4987842,10.3352342 54.1150054,9.4548353 55.0496823,8 C57.000655,8.66913071 58.7759851,9.7646332 60.2451079,11.2059401 C59.5260371,12.824405 59.6177473,14.6854911 60.4924997,16.2262902 C61.2936219,17.6544826 62.7274152,18.6211718 64.3581491,18.8325803 C64.7747274,20.9434353 64.7378437,23.1180207 64.2499173,25.2137049 C62.6569693,25.4847498 61.2774457,26.4682764 60.5079803,27.8815061 C59.7167918,29.291922 59.5758927,30.9731789 60.1213955,32.4943704 C58.5939267,33.9516213 56.7503216,35.0405801 54.7327272,35.6772851 C53.7720998,34.4447697 52.292167,33.7234479 50.7240476,33.7234479 C49.1559283,33.7234479 47.6759955,34.4447697 46.7153681,35.6772851 C44.7304985,35.0466208 42.9165613,33.9737781 41.4117439,32.5404872 C41.9906706,30.9984363 41.8606778,29.28152 41.0560871,27.8430534 C40.2693855,26.388744 38.834481,25.3927711 37.1904377,25.159891 C36.9290476,24.0714181 36.7890322,22.9576233 36.7728898,21.8386591 Z" id="形状结合" fill="url(#linearGradient-1)"></path>
    </g>
</svg>