<?xml version="1.0" encoding="UTF-8"?>
<svg width="40px" height="37px" viewBox="0 0 40 37" version="1.1" xmlns="http://www.w3.org/2000/svg" xmlns:xlink="http://www.w3.org/1999/xlink">
    <!-- Generator: Sketch 55.2 (78181) - https://sketchapp.com -->
    <title>青春</title>
    <desc>Created with Sketch.</desc>
    <g id="个性化" stroke="none" stroke-width="1" fill="none" fill-rule="evenodd">
        <g id="个性化设置-竖向分割线" transform="translate(-422.000000, -347.000000)" fill-rule="nonzero">
            <g id="青春" transform="translate(422.000000, 347.000000)">
                <path d="M2.85692858,-2.84217094e-14 L37.1400716,-2.84217094e-14 C39.0446907,-2.84217094e-14 39.9970002,0.942111675 39.9970002,2.82633502 L39.9970002,28.2633503 C39.9970002,30.1475737 39.0446907,31.0896854 37.1400716,31.0896854 L2.85692858,31.0896854 C0.952309526,31.0896854 -2.84217094e-14,30.1475737 -2.84217094e-14,28.2633503 L-2.84217094e-14,2.82633502 C-2.84217094e-14,0.942111675 0.952309526,-2.84217094e-14 2.85692858,-2.84217094e-14 Z" id="Path" fill="#EA5241"></path>
                <path d="M39.9970002,25.4370153 L39.9970002,28.2633503 C39.9970002,29.8242921 38.7179097,31.0896854 37.1400716,31.0896854 L24.0267694,31.0896854 L27.9121923,35.3291879 L26.8551288,36.2760102 L22.1126272,31.0896854 L17.8272344,31.0896854 L13.1418715,36.3042735 L12.0848079,35.3291879 L15.9702308,31.0896854 L2.85692858,31.0896854 C1.2790905,31.0896854 0,29.8242921 0,28.2633503 L0,25.4370153 L39.9970002,25.4370153 Z" id="Path" fill="#F4A096"></path>
                <path d="M11.904012,8.98309229 L11.904012,8.98309229 C12.955983,8.98309229 13.8087739,9.83260333 13.8087739,10.8805282 L13.8087739,21.3164257 C13.8087739,22.3643506 12.955983,23.2138616 11.904012,23.2138616 L11.904012,23.2138616 C10.852041,23.2138616 9.9992501,22.3643506 9.9992501,21.3164257 L9.9992501,10.8805282 C9.9992501,9.83260333 10.852041,8.98309229 11.904012,8.98309229 Z M19.047619,13.7266821 L19.047619,13.7266821 C20.09959,13.7266821 20.952381,14.5761931 20.952381,15.624118 L20.952381,21.3164257 C20.952381,22.3643506 20.09959,23.2138616 19.047619,23.2138616 L19.047619,23.2138616 C17.9956481,23.2138616 17.1428571,22.3643506 17.1428571,21.3164257 L17.1428571,15.624118 C17.1428571,14.5761931 17.9956481,13.7266821 19.047619,13.7266821 Z M26.6666667,16.5728359 L26.6666667,16.5728359 C27.7186376,16.5728359 28.5714286,17.4223469 28.5714286,18.4702718 L28.5714286,21.3164257 C28.5714286,22.3643506 27.7186376,23.2138616 26.6666667,23.2138616 L26.6666667,23.2138616 C25.6146957,23.2138616 24.7619048,22.3643506 24.7619048,21.3164257 L24.7619048,18.4702718 C24.7619048,17.4223469 25.6146957,16.5728359 26.6666667,16.5728359 Z M18.9557211,4.71386152 L18.9557211,9.71457883 C18.9557211,9.97656008 19.168919,10.1889378 19.4319116,10.1889378 L27.526507,10.1889378 L27.526507,8.62400357 C27.526507,8.46681483 27.6544256,8.33938818 27.8122212,8.33938818 C27.8740026,8.33938818 27.9341194,8.35933687 27.9835591,8.39624356 L31.1083536,10.7288973 C31.2346276,10.8231607 31.2602824,11.0015478 31.165655,11.1273363 C31.1471293,11.1519626 31.1247169,11.173433 31.0992906,11.1909114 L27.9887808,13.3291134 C27.8589063,13.4183906 27.6809693,13.385885 27.5913474,13.2565101 C27.5584239,13.208983 27.5407915,13.1526041 27.5407915,13.0948594 L27.5407915,11.6021053 L17.817747,11.6021053 C17.5547543,11.6021053 17.3415565,11.3897276 17.3415565,11.1277463 L17.3415565,6.12702905 C17.3415565,5.86504783 17.1283588,5.65267008 16.865366,5.65267008 L10.4754406,5.65267008 C10.2124478,5.65267008 9.9992501,5.44029233 9.9992501,5.1783111 L9.9992501,4.71386152 C9.9992501,4.4518803 10.2124478,4.23950255 10.4754406,4.23950255 L18.4795307,4.23950255 C18.7425234,4.23950255 18.9557211,4.4518803 18.9557211,4.71386152 Z" id="Shape" fill="#FFFFFF"></path>
                <path d="M18.5700358,28.2633503 C18.5700358,28.7682321 18.842289,29.2347659 19.284261,29.4872092 C19.726233,29.7396526 20.2707673,29.7396526 20.7127392,29.4872092 C21.1547111,29.2347659 21.4269644,28.7682321 21.4269644,28.2633503 C21.4269644,27.7584685 21.1547111,27.2919348 20.7127392,27.0394915 C20.2707673,26.7870481 19.726233,26.7870481 19.284261,27.0394915 C18.842289,27.2919348 18.5700358,27.7584685 18.5700358,28.2633503 Z" id="Path" fill="#FFFFFF"></path>
            </g>
        </g>
    </g>
</svg>