<?xml version="1.0" encoding="UTF-8"?>
<svg width="16px" height="16px" viewBox="0 0 16 16" version="1.1" xmlns="http://www.w3.org/2000/svg" xmlns:xlink="http://www.w3.org/1999/xlink">
    <!-- Generator: Sketch 55.2 (78181) - https://sketchapp.com -->
    <title>zhutishezhi </title>
    <desc>Created with Sketch.</desc>
    <g id="个性化" stroke="none" stroke-width="1" fill="none" fill-rule="evenodd">
        <g id="个性化设置-斑马线" transform="translate(-36.000000, -244.000000)" fill="#E14C46" fill-rule="nonzero">
            <path d="M44.8888889,252 L44.4444444,252 L44.4444444,244.444444 C44.4444444,244.177778 44.2666667,244 44,244 C43.7333333,244 43.5555556,244.177778 43.5555556,244.444444 L43.5555556,252 L43.1111111,252 C42.3555556,252 41.7777778,252.577778 41.7777778,253.333333 L41.7777778,255.111111 C41.7777778,255.866667 42.3555556,256.444444 43.1111111,256.444444 L43.5555556,256.444444 L43.5555556,260 L44.4444444,260 L44.4444444,256.444444 L46.2222222,256.444444 L46.2222222,253.333333 C46.2222222,252.577778 45.6,252 44.8888889,252 Z M45.3333333,255.555556 L44.4444444,255.555556 L43.5555556,255.555556 L43.1111111,255.555556 C42.8444444,255.555556 42.6666667,255.377778 42.6666667,255.111111 L42.6666667,253.333333 C42.6666667,253.066667 42.8444444,252.888889 43.1111111,252.888889 L44.8888889,252.888889 C45.1555556,252.888889 45.3333333,253.066667 45.3333333,253.333333 L45.3333333,255.555556 Z M39.1111111,248 C39.8222222,248 40.4444444,248.577778 40.4444444,249.333333 L40.4444444,252.444444 L38.6666667,252.444444 L38.6666667,260 L37.7777778,260 L37.7777778,252.444444 L37.3333333,252.444444 C36.5777778,252.444444 36,251.866667 36,251.111111 L36,249.333333 C36,248.577778 36.5777778,248 37.3333333,248 L37.7777778,248 L37.7777778,244.444444 C37.7777778,244.177778 37.9555556,244 38.2222222,244 C38.4888889,244 38.6666667,244.177778 38.6666667,244.444444 L38.6666667,248 L39.1111111,248 Z M39.5555556,251.555556 L39.5555556,249.333333 C39.5555556,249.066667 39.3777778,248.888889 39.1111111,248.888889 L37.3333333,248.888889 C37.0666667,248.888889 36.8888889,249.066667 36.8888889,249.333333 L36.8888889,251.111111 C36.8888889,251.377778 37.0666667,251.555556 37.3333333,251.555556 L39.5555556,251.555556 Z M50.6666667,246.222222 C51.3777778,246.222222 52,246.8 52,247.555556 L52,250.666667 L50.2222222,250.666667 L50.2222222,260 L49.3333333,260 L49.3333333,250.666667 L48.8888889,250.666667 C48.1333333,250.666667 47.5555556,250.088889 47.5555556,249.333333 L47.5555556,247.555556 C47.5555556,246.8 48.1333333,246.222222 48.8888889,246.222222 L49.3333333,246.222222 L49.3333333,244.444444 C49.3333333,244.177778 49.5111111,244 49.7777778,244 C50.0444444,244 50.2222222,244.177778 50.2222222,244.444444 L50.2222222,246.222222 L50.6666667,246.222222 Z M51.1111111,249.777778 L51.1111111,247.555556 C51.1111111,247.288889 50.9333333,247.111111 50.6666667,247.111111 L48.8888889,247.111111 C48.6222222,247.111111 48.4444444,247.288889 48.4444444,247.555556 L48.4444444,249.333333 C48.4444444,249.6 48.6222222,249.777778 48.8888889,249.777778 L51.1111111,249.777778 Z" id="zhutishezhi-"></path>
        </g>
    </g>
</svg>