<?xml version="1.0" encoding="UTF-8"?>
<svg width="16px" height="12px" viewBox="0 0 16 12" version="1.1" xmlns="http://www.w3.org/2000/svg" xmlns:xlink="http://www.w3.org/1999/xlink">
    <!-- Generator: Sketch 55.2 (78181) - https://sketchapp.com -->
    <title>pifu备份</title>
    <desc>Created with Sketch.</desc>
    <g id="个性化" stroke="none" stroke-width="1" fill="none" fill-rule="evenodd">
        <g id="个性化设置-斑马线" transform="translate(-342.000000, -119.000000)" fill="#60626B" fill-rule="nonzero">
            <g id="pifu备份" transform="translate(342.000000, 119.000000)">
                <path d="M4.76847412,11.9928022 C4.32667035,11.9928022 3.96825926,11.6537452 3.96825926,11.2364535 L3.96825926,5.46685387 L3.29427404,6.12460045 C3.14928738,6.26609384 2.93903136,6.34696433 2.71686211,6.34696433 C2.50267727,6.34696433 2.30674249,6.27460023 2.16302319,6.14388957 L0.258679127,4.40463507 C0.104947634,4.26529822 0.0187667524,4.07648062 0.0154588987,3.87364548 C0.0116694893,3.6717688 0.0908798752,3.48091446 0.239161684,3.33522778 L3.23229984,0.406757912 C3.64026494,0.00719784767 3.80007978,0.00719784767 3.88562698,0.00719784767 L5.77032689,0.00719784767 C6.25509436,0.00719784767 6.35939858,0.0373894939 6.46446322,0.140903705 L6.57447058,0.247892359 L6.56889418,0.399090206 C6.56889418,0.742340477 6.70627665,1.0394646 6.96595992,1.25679653 C7.22336195,1.47221152 7.59115155,1.59082157 8.00063747,1.59082157 C8.84343582,1.59082157 9.4317471,1.10140541 9.4317471,0.400168482 L9.4317471,0.260831631 L9.5352909,0.142221597 L9.53579785,0.140783897 C9.64212986,0.0372696855 9.74542018,0.00719784767 10.2303144,0.00719784767 L12.1155212,0.00719784767 C12.2011952,0.00719784767 12.3617704,0.00719784767 12.7689751,0.406997543 L15.7621133,3.33510799 C15.9096347,3.48007582 15.9898589,3.67140938 15.9860679,3.87352569 C15.9817478,4.07672026 15.8955669,4.26517843 15.7425958,4.40523413 L13.8383785,6.14353014 C13.6893362,6.27987178 13.4925143,6.35523109 13.282892,6.35523109 C13.0662992,6.35523109 12.8569303,6.27160502 12.7078881,6.1253193 L12.03479,5.46685387 L12.0332692,11.2362139 C12.0332692,11.6535056 11.6735907,11.9925626 11.2330543,11.9925626 L4.76847412,11.9925625 L4.76847412,11.9928022 L4.76847412,11.9928022 L4.76847412,11.9928022 Z" id="pifu"></path>
            </g>
        </g>
    </g>
</svg>