<?xml version="1.0" encoding="utf-8"?>
<!-- Generator: Adobe Illustrator 23.0.0, SVG Export Plug-In . SVG Version: 6.00 Build 0)  -->
<svg version="1.1" id="图层_1" xmlns="http://www.w3.org/2000/svg" xmlns:xlink="http://www.w3.org/1999/xlink" x="0px" y="0px"
	 viewBox="0 0 20 20" style="enable-background:new 0 0 20 20;" xml:space="preserve">
<style type="text/css">
	.st0{fill-rule:evenodd;clip-rule:evenodd;fill:#111111;}
</style>
<title>文字</title>
<g id="编组" transform="translate(2.000000, 3.000000)">
	<polygon id="Fill-1" class="st0" points="9.8,0 0,0 0,3.3 2.2,3.3 2.2,2 4.9,2 4.9,12 3.3,12 3.3,14 8.7,14 8.7,12 7.1,12 7.1,2 
		9.8,2 9.8,3.3 12,3.3 12,0 	"/>
	<polygon id="Fill-2" class="st0" points="9,7 9,8.9 10.3,8.9 10.3,8.1 11.9,8.1 11.9,12.9 10.9,12.9 10.9,14 14.1,14 14.1,12.9 
		13.1,12.9 13.1,8.1 14.7,8.1 14.7,8.9 16,8.9 16,7 	"/>
</g>
</svg>
