<?xml version="1.0" standalone="no"?>
<!DOCTYPE svg PUBLIC "-//W3C//DTD SVG 1.1//EN" "http://www.w3.org/Graphics/SVG/1.1/DTD/svg11.dtd" >
<!--
2013-9-30: Created.
-->
<svg>
<metadata>
Created by iconfont
</metadata>
<defs>

<font id="hrfont" horiz-adv-x="1024" >
  <font-face
    font-family="hrfont"
    font-weight="500"
    font-stretch="normal"
    units-per-em="1024"
    ascent="896"
    descent="-128"
  />
    <missing-glyph />
    
    <glyph glyph-name="check-mark" unicode="&#58885;" d="M812.426 597.753l-361.317-361.282-202.45 202.45-65.067-65.066 202.448-202.469-0.169-0.202 65.065-65.066 426.568 426.588z"  horiz-adv-x="1024" />

    
    <glyph glyph-name="plus02" unicode="&#58894;" d="M855.026 430.077h-296.949v296.948h-92.156v-296.948h-296.948v-92.155h296.948v-296.948h92.156v296.948h296.949z"  horiz-adv-x="1024" />

    
    <glyph glyph-name="dustbin" unicode="&#58897;" d="M837.786 668.347h-284.83v26.757c0 22.62-18.34 40.962-40.958 40.962s-40.956-18.341-40.956-40.962v-26.757h-284.827c-22.62 0-40.959-18.337-40.959-40.956 0-22.62 18.338-40.958 40.959-40.958h34.666l25.75-468.121c2.341-42.44 37.44-75.677 79.936-75.677h370.887c42.536 0 77.618 33.257 79.876 75.637l25.809 468.163h34.648c22.619 0 40.957 18.338 40.957 40.958-0.002 22.617-18.34 40.954-40.958 40.954zM449.941 194.709c0-22.62-18.34-40.956-40.958-40.956s-40.956 18.336-40.956 40.956v287.987c0 22.62 18.338 40.958 40.956 40.958s40.958-18.338 40.958-40.958v-287.987zM655.954 194.709c0-22.62-18.341-40.956-40.957-40.956-22.62 0-40.959 18.336-40.959 40.956v287.987c0 22.62 18.339 40.958 40.959 40.958 22.618 0 40.957-18.338 40.957-40.958v-287.987z"  horiz-adv-x="1024" />

    
    <glyph glyph-name="right" unicode="&#58906;" d="M372.963 743.984l-67.423-67.455 292.517-292.511-292.551-292.567 67.45-67.432 360 359.983z"  horiz-adv-x="1024" />

    
    <glyph glyph-name="refresh" unicode="&#58910;" d="M872.977 437.651c-0.137 3.12-0.639 6.17-1.458 9.11-29.839 171.408-179.701 302.139-359.54 302.139-201.199 0-364.899-163.69-364.899-364.9 0-201.219 163.699-364.922 364.92-364.922 100.879 0 198.2 42.342 266.997 116.172 15.42 16.55 14.521 42.469-2.037 57.899-16.498 15.401-42.46 14.491-57.88-2.039-54.162-58.108-127.701-90.109-207.078-90.109-156.042 0-283 126.95-283 283 0 156.039 126.941 282.978 282.979 282.978 118.897 0 220.924-73.689 262.741-177.789l-90.099 18.31c-20.081 4.101-39.964-7.218-46.759-26.439-6.822-19.23 1.537-40.547 19.618-49.997l159.501-83.363c12.697-6.63 27.96-6.158 40.199 1.269 12.261 7.423 19.741 20.701 19.741 35.032-0.001 18.219-1.345 36.138-3.944 53.649z"  horiz-adv-x="1024" />

    
    <glyph glyph-name="bubble" unicode="&#58928;" d="M529.869 741.178c-224.658 0-406.792-153.495-406.792-342.791 0-82.814 34.837-158.758 92.85-218.026l-48.62-124.765 161.942 44.799c59.238-28.409 127.595-44.799 200.619-44.799 224.643 0 406.779 153.453 406.779 342.787-0 189.299-182.132 342.794-406.778 342.794zM296.432 328.23c-38.735 0-70.137 31.422-70.137 70.157 0 38.695 31.402 70.118 70.137 70.118 38.716 0 70.137-31.422 70.137-70.118 0-38.735-31.422-70.157-70.137-70.157zM529.869 328.23c-38.736 0-70.138 31.422-70.138 70.157 0 38.695 31.402 70.118 70.138 70.118 38.714 0 70.117-31.422 70.117-70.118-0.001-38.735-31.403-70.157-70.117-70.157zM763.283 328.23c-38.694 0-70.117 31.422-70.117 70.157 0 38.695 31.422 70.118 70.117 70.118 38.736 0 70.161-31.422 70.161-70.118-0.002-38.735-31.425-70.157-70.161-70.157z"  horiz-adv-x="1024" />

    
    <glyph glyph-name="exclamation" unicode="&#58939;" d="M526.798 788.465c-214.532 0-388.451-173.917-388.451-388.489 0-214.535 173.919-388.453 388.451-388.453 214.575 0 388.493 173.918 388.493 388.453-0.001 214.572-173.919 388.489-388.493 388.489zM491.339 695.619h70.958c31.744 0 56.939-26.716 55.075-58.402l-14.399-244.733c-1.714-29.159-25.864-51.911-55.075-51.911h-42.166c-29.212 0-53.356 22.751-55.067 51.911l-14.399 244.733c-1.864 31.685 23.33 58.402 55.073 58.402zM526.819 104.37c-50.069 0-90.655 40.573-90.655 90.641 0 50.070 40.585 90.645 90.655 90.645 50.067 0 90.655-40.575 90.655-90.645-0-50.066-40.587-90.641-90.655-90.641z"  horiz-adv-x="1024" />

    
    <glyph glyph-name="complete" unicode="&#58954;" d="M529.296 789.075c-213.488 0-386.559-173.070-386.559-386.598 0-213.487 173.071-386.557 386.559-386.557 213.527 0 386.597 173.070 386.597 386.557 0 213.528-173.070 386.598-386.597 386.598zM801.428 519.505l-338.976-339.006c-11.5-11.479-30.145-11.479-41.625 0.040l-184.060 184.311c-11.479 11.519-11.47 30.134 0.009 41.614l43.039 43.006c11.489 11.52 30.114 11.52 41.603 0l99.56-99.529c11.49-11.48 30.114-11.48 41.604 0l254.215 254.186c11.49 11.479 30.115 11.479 41.603 0l43.030-43.010c11.489-11.479 11.489-30.133 0-41.613z"  horiz-adv-x="1024" />

    
    <glyph glyph-name="information" unicode="&#58957;" d="M898.455 487.146l-280.2-214.56c-24.521-19.839-55.64-30.721-87.881-30.721s-63.64 11.12-88.679 31.32l-279.438 213.92c-0.041-0.56-0.32-288.68-0.32-288.68 0-36.079 29.36-65.359 65.401-65.359h606.117c36.041 0 65.361 29.28 65.361 65.359 0-0.001-0.32 288.159-0.36 288.72zM184.777 559.627l306.52-234.64c10.958-9.121 24.799-14.081 39.078-14.081 14.24 0 28.12 4.96 38.279 13.441l308.079 235.879c19.76 16.401 27.163 43.681 18.4 67.759-8.679 24.159-31.758 40.36-57.44 40.36l-614.596-0c-25.68 0-48.799-16.201-57.519-40.32-8.721-24.159-1.32-51.399 19.199-68.399z"  horiz-adv-x="1024" />

    
    <glyph glyph-name="recovery" unicode="&#58969;" d="M881.546 428.805c-22.062 104.517-100.817 193.751-194.134 233.071-69.358 29.158-152.093 31.319-236.971 13.12l-33.857 99.154-274.43-314.026 409.165-80.677-39.136 114.636c36.155 2.899 68.915-3.838 97.493-20.437 68.678-39.919 95.777-125.116 92.177-191.833-3.521-64.516-36.759-128.353-88.979-170.713-42.478-34.518-117.953-71.838-236.25-53.598-7.559 1.119-14.74-3.399-16.961-10.639-2.237-7.28 1.221-15.081 8.099-18.32 49.521-23.399 103.538-34.798 157.654-34.798 89.838 0 181.956 29.079 249.711 91.395 96.457 88.676 134.855 208.994 106.419 343.666z"  horiz-adv-x="1024" />

    
    <glyph glyph-name="preview" unicode="&#58999;" d="M558.876 460.69c-32.398 0-62.977-12.68-85.875-35.68-22.959-22.92-35.62-53.437-35.62-85.878 0-32.437 12.661-62.955 35.62-85.913 22.897-22.961 53.477-35.601 85.875-35.601 32.479 0 63.038 12.64 85.976 35.601 22.961 22.959 35.56 53.476 35.56 85.913 0 32.441-12.599 62.958-35.56 85.878-22.938 23-53.496 35.68-85.976 35.68zM757.908 781.765h-333.605c-2.839 0-5.561-1.080-7.6-3.16l-209.111-209.12c-2.020-2.041-3.141-4.76-3.141-7.641v-513.937c0-34 27.659-61.68 61.637-61.68h491.819c33.98 0 61.637 27.68 61.637 61.68l0 672.17c0.001 33.959-27.656 61.688-61.637 61.688zM244.191 561.844l176.892 176.954v-126.036c0-28.119-22.838-50.919-50.937-50.919h-125.955zM685.233 212.82c-33.759-33.76-78.598-52.278-126.357-52.278-42.218 0-82.097 14.519-114.156 41.317l-12.938-12.998c5.6-14.64 2.62-31.879-9.159-43.678l-54.358-54.358c-15.939-15.921-41.759-15.921-57.718 0-15.921 15.918-15.899 41.718 0 57.677l54.396 54.316c11.782 11.88 29.059 14.881 43.699 9.16l12.981 13.001c-26.779 31.998-41.378 71.955-41.378 114.153 0 47.72 18.619 92.598 52.356 126.316 33.721 33.721 78.578 52.319 126.275 52.319 47.759 0 92.597-18.56 126.357-52.319 33.719-33.718 52.297-78.596 52.317-126.316-0.001-47.718-18.599-92.595-52.318-126.312z"  horiz-adv-x="1024" />

    
    <glyph glyph-name="close04" unicode="&#59001;" d="M511.98 771.709c-214.111 0-387.689-173.577-387.689-387.73 0-214.112 173.577-387.691 387.689-387.691 214.151 0 387.73 173.578 387.73 387.691 0 214.152-173.578 387.73-387.73 387.73zM726.792 254.078c11.536-11.534 11.536-30.221 0-41.736l-43.116-43.134c-11.532-11.552-30.221-11.552-41.754-0.021l-129.922 129.942-129.946-129.922c-11.512-11.514-30.2-11.514-41.715 0l-43.153 43.134c-11.534 11.512-11.534 30.202 0 41.733l129.941 129.922-129.921 129.946c-11.534 11.534-11.534 30.204 0 41.715l43.116 43.175c11.533 11.512 30.219 11.512 41.755 0l129.922-129.963 129.945 129.923c11.509 11.534 30.201 11.534 41.715 0.020l43.153-43.134c11.533-11.533 11.533-30.203 0-41.736l-129.944-129.945 129.923-129.921z"  horiz-adv-x="1024" />

    
    <glyph glyph-name="drop-down02" unicode="&#58937;" d="M804.528 590.483l-292.508-292.518-292.567 292.548-67.439-67.446 359.986-360.005 359.985 359.995z"  horiz-adv-x="1024" />

    
    <glyph glyph-name="icon-test" unicode="&#58927;" d="M861.9 468.6c79.6 89.3 80.7 222.4 0.1 303.1-40.7 40.7-96.1 61.8-155.7 59.9-59-2-115-26.7-157.7-69.4L180.3 394C129.8 343.5 102 276.1 102 204.3s27.8-139.2 78.3-189.7 117.9-78.3 189.7-78.3 139.3 27.8 189.8 78.3l170 170c10.9 10.9 10.9 28.6 0 39.6s-28.6 10.9-39.6 0l-170-170c-39.9-39.9-93.3-61.9-150.2-61.9s-110.2 22-150.2 61.9C179.9 94 158 147.4 158 204.3s22 110.3 61.9 150.2l368.3 368.2c32.6 32.6 75.3 51.5 120 53 43.7 1.5 84.6-14 114.2-43.6 61-61 57.7-163.6-6.4-230.9L453.5 135.5c-21-21-49.1-32.6-79.1-32.6-30 0-58.1 11.6-79.2 32.6-21 21-32.6 49.1-32.6 79.2 0 30 11.6 58.1 32.6 79.1l186 186c10.9 10.9 10.9 28.6 0 39.6-10.9 10.9-28.6 10.9-39.6 0l-186-186c-31.6-31.6-49-73.8-49-118.7 0-45 17.4-87.1 49-118.7 31.6-31.6 73.8-49 118.7-49 45 0 87.1 17.4 118.8 49.1l358.1 361.3c0.4 0.4 0.9 0.6 1.3 1 0.9 0.9 1.7 2 2.6 2.9l4 4.1c1.1 0.9 2 2.1 2.8 3.2z"  horiz-adv-x="1024" />

    
    <glyph glyph-name="edit2" unicode="&#59177;" d="M790.257 515.843c-0.001-0-0.003-0-0.005-0-14.129 0-25.583 11.454-25.583 25.583 0 7.081 2.877 13.49 7.525 18.122 11.39 11.339 17.683 25.901 17.694 40.933 0 15.247-6.283 29.942-17.693 41.321-10.521 10.575-25.085 17.119-41.178 17.119-16.092 0-30.656-6.544-41.175-17.117-4.642-4.646-11.053-7.518-18.135-7.518-14.157 0-25.633 11.476-25.633 25.633 0 7.075 2.866 13.48 7.5 18.118 21.018 21.1 48.443 32.746 77.239 32.746 28.96 0 56.497-11.615 77.546-32.684s32.684-48.566 32.684-77.526c0-28.786-11.655-56.2-32.746-77.219-4.624-4.633-11.013-7.502-18.072-7.511zM221.535 57.269c-0-0-0.001-0-0.001-0-21.301 0-38.568 17.268-38.568 38.568 0 4.186 0.667 8.216 1.9 11.99l44.375 138.825c1.695 9.037 6.371 16.771 12.948 22.324l337.022 337.255c14.572 14.5 40.124 14.418 54.542 0l97.766-97.828c6.979-6.979 11.296-16.621 11.296-27.271s-4.317-20.292-11.296-27.271l-337.895-337.854c-5.68-6.425-13.432-10.904-22.203-12.386l-138.149-44.52c-3.547-1.159-7.629-1.829-11.868-1.832zM278.646 233.278l-0.082-0.266-37.596-117.741 116.902 37.351 328.562 328.481-79.951 80.002zM360.971 153.583l-0.184-0.061zM815.471 57.269h-341.436c-14.129 0-25.583 11.454-25.583 25.583 0 14.129 11.454 25.583 25.583 25.583h341.436c14.129-0 25.583-11.454 25.583-25.583 0-14.129-11.454-25.583-25.583-25.583z"  horiz-adv-x="1024" />

    
    <glyph glyph-name="Arrow1" unicode="&#59220;" d="M384.6704546203613 697.2102271728515l-58.67897772216797-58.678976898193355L580.4588065185546 384 325.9914768981934 129.5965910339355l58.67897772216797-58.806818206787106 313.21022717285155 313.21022717285155z m0 0"  horiz-adv-x="1024" />

    
    <glyph glyph-name="hengxiangpingfen" unicode="&#59041;" d="M796.444 725.333H568.89v-682.666h227.555V725.333z m-56.888-625.777H625.778V668.444h113.778v-568.888zM455.11 725.333H227.556v-682.666H455.11V725.333z m-56.889-625.777H284.444V668.444h113.778v-568.888z m512 739.555h56.89V-71.11h-56.89z m-853.333 0h56.889V-71.11h-56.89z"  horiz-adv-x="1024" />

    
    <glyph glyph-name="zongxiangpingfen" unicode="&#59042;" d="M170.667 668.444V440.89h682.666V668.444H170.667z m625.777-56.888v-113.778H227.556V611.556h568.888zM170.667 327.11v-227.555h682.666V327.11H170.667z m625.777-56.889v-113.778H227.556V270.222h568.888zM56.89 839.112H967.11v-56.89H56.89z m0-853.334H967.11v-56.89H56.89z"  horiz-adv-x="1024" />

    
    <glyph glyph-name="fire" unicode="&#59240;" d="M801.29199253 347.34960963000003c-22.71972691 95.449219-96.24023463 92.15332031-123.96972691 190.72265565-32.82714844-47.9882815-14.06249965-113.29101597-11.33789037-147.39257786 7.47070304-94.13085938-83.40820304-125.72753898-121.289063-66.35742171C498.20117196 397.183594 600.15429679 459.49804679 600.15429679 542.203125a149.41406232 149.41406232 0 0 1-10.10742154 55.76660156C565.17382847 661.38281275 503.0351565 685.8164063300001 506.63867222 779.5078125c-82.66113281-59.32617188-21.31347648-130.73730434-26.32324262-186.32812508-5.05371077-56.64550799-93.38378915-50.49316381-101.33789079 49.70214817-22.6757815-20.03906225-45.17578143-45.74707006-50.75683543-74.97070278-7.25097682-37.8808592 4.79003915-72.7734375 32.38769524-97.51464809-34.2773435-0.96679722-69.609375 21.79687508-68.55468777 67.58789053A311.35253923 311.35253923 0 0 1 186.1015625 346.20703160000005 309.81445338 309.81445338 0 0 1 182.410156 300.72363315999996a312.27539028 312.27539028 0 0 1 624.46289053 0c0 15.51269549-2.06542987 31.94824202-5.581054 46.62597647"  horiz-adv-x="1024" />

    
    <glyph glyph-name="left1" unicode="&#59244;" d="M314.6077688 423.65889443l352.52350445 207.10755857c22.03271881 13.2196313 48.47198197 4.40654378 61.69161325-13.21963128 4.40654378-8.81308752 4.40654378-17.62617505 4.40654377-26.43926258v-418.62166204c0-26.43926258-17.62617505-44.06543819-44.0654382-44.06543763-8.81308752 0-17.62617505 0-22.03271882 4.40654376l-352.52350445 207.10755858C292.57504942 357.56073742 283.76196189 384 296.98159318 406.03271881c4.40654378 8.81308752 8.81308752 13.2196313 17.62617562 17.62617562z"  horiz-adv-x="1024" />

    
    <glyph glyph-name="right11" unicode="&#59245;" d="M709.3922312 344.34110556999997l-352.52350444-207.10755857c-22.03271881-13.2196313-48.47198197-4.40654378-61.69161326 13.21963128-4.40654378 8.81308752-4.40654378 17.62617505-4.40654377 26.43926258l0 418.62166204c0 26.43926258 17.62617504 44.06543819 44.0654382 44.06543764 8.81308752 0 17.62617504 0 22.03271882-4.40654377l352.52350445-207.10755857C731.42495058 410.43926258 740.23803811 384 727.01840682 361.96728119c-4.40654378-8.81308752-8.81308752-13.2196313-17.62617562-17.62617562z"  horiz-adv-x="1024" />

    
    <glyph glyph-name="up" unicode="&#59257;" d="M539.64799995 163.32799999999997L831.99999995 455.68l292.352-292.352 67.584 67.584L831.99999995 590.336 472.06399995 230.39999999999998l67.584-67.072z"  horiz-adv-x="1664" />

    
    <glyph glyph-name="Dustbin_bold" unicode="&#59278;" d="M754.11798594 3.2063340800000333H269.67364737V510.71945068H200.46731328v-576.71945068h622.85700674V510.71945068h-69.20633408v-507.5131166zM851.46822881 718.33845293H661.84287383V762.63050625C661.84287383 807.15324785 619.16563408 833.68234307 574.64289248 833.68234307h-138.41266816A67.82220703 67.82220703 0 0 1 361.94875947 762.63050625V718.33845293H159.40488799A67.82220703 67.82220703 0 0 1 85.12342315 647.28661612v-69.20633409a34.6031666 34.6031666 0 0 1 69.20633408 0v69.20633409C154.32975723 653.74587393 153.17631846 649.13211885 159.40488799 649.13211885h692.06334082c6.45925781 0 17.99364727 4.38306768 17.99364726-1.84550273v-69.20633409a34.6031666 34.6031666 0 0 1 69.2063341 0v69.20633409C938.66821017 691.80935771 895.99097041 718.33845293 851.46822881 718.33845293zM431.15509356 762.63050625c0 6.45925781-1.15343877 1.84550185 5.07513076 1.84550273h138.41266816c6.45925781 0 17.99364727 4.38306768 17.99364726-1.84550273V718.33845293h-161.48144618V762.63050625zM454.22387158 185.91105644000004v138.41266729a34.6031666 34.6031666 0 0 1-69.20633408 0v-138.41266728a34.6031666 34.6031666 0 0 1 69.20633408-1e-8zM638.7740958 185.91105644000004v138.41266729a34.6031666 34.6031666 0 0 1-69.20633408 0v-138.41266728a34.6031666 34.6031666 0 0 1 69.20633408-1e-8z"  horiz-adv-x="1024" />

    
    <glyph glyph-name="Search_bold" unicode="&#59267;" d="M1049.21821701 44.68190748999996l-242.19706817 198.1172018a347.79498983 347.79498983 0 1 1-45.04865423-57.15850787l240.01729405-197.14841392z m-534.5289291 108.5042861a276.8312493 276.8312493 0 1 0 275.62026308 276.83124932 276.58905175 276.58905175 0 0 0-275.62026308-276.83124931z"  horiz-adv-x="1144" />

    
    <glyph glyph-name="Rectangle" unicode="&#59276;" d="M720.568573 13.211425780000013h-417.137146c-92.69714356 0-162.22000122 69.52285766-162.22000122 162.22000122v417.137146C141.21142578 685.26571656 210.73428344 754.78857422 303.431427 754.78857422h417.137146c92.69714356 0 162.22000122-69.52285766 162.22000122-162.22000122v-417.137146c0-92.69714356-69.52285766-162.22000122-162.22000122-162.22000122z m-417.137146 695.22857666C238.54342651 708.44000244 187.55999756 657.45657349 187.55999756 592.568573v-417.137146C187.55999756 110.54342651000002 238.54342651 59.559997560000056 303.431427 59.559997560000056h417.137146c64.88800049 0 115.87142945 50.98342896 115.87142944 115.87142944v417.137146C836.44000244 657.45657349 785.45657349 708.44000244 720.568573 708.44000244h-417.137146z"  horiz-adv-x="1024" />

    
    <glyph glyph-name="yinzhang-shenpitongguo" unicode="&#59280;" d="M1.541206 456.650687l-1.541206 5.927717c77.415979 20.747008 135.448324 48.133059 191.524523 74.689229 53.349449 25.31135 104.209258 49.259325 168.880646 66.627534 64.849219 17.36821 120.747587 22.16966 179.906198 27.267497 61.648253 5.275668 125.371206 10.788444 202.609353 31.416898 77.415979 20.747008 135.507601 47.955227 191.643078 74.215011 53.645835 25.133518 104.327812 48.844385 168.939922 66.212595 64.789942 17.36821 120.451201 23.058818 179.372704 29.105088 61.529698 6.28338 125.134097 12.803868 202.609354 33.550876l1.541206-5.927717c-77.949473-20.865562-141.790981-27.386051-203.557788-33.728707-58.506563-5.927717-113.812159-11.855433-177.831498-28.808703-64.315725-17.249655-114.879148-40.901244-168.406428-65.975485-56.25403-26.378339-114.464207-53.349449-192.176572-74.452121-77.949473-20.865562-142.265198-26.378339-204.091282-31.713283-58.743671-5.038559-114.286376-9.780732-178.424269-26.911834-64.315725-17.249655-114.81987-41.138353-168.347152-66.390425-56.491139-26.674725-114.701316-54.17933-192.650789-75.10417zM13.870857 411.540764l-1.541206 5.927717c77.415979 20.747008 135.389047 48.251613 191.465245 74.807783 53.349449 25.429904 104.209258 49.437156 168.821369 66.805366 64.849219 17.36821 120.747587 22.16966 179.906198 27.267496 61.648253 5.275668 125.371206 10.788444 202.609353 31.416898 77.415979 20.747008 135.507601 47.955227 191.643078 74.215012 53.645835 25.133518 104.327812 48.844385 168.939923 66.212594 64.789942 17.36821 120.510478 22.940263 179.431981 28.808703 61.588975 5.927717 125.193374 12.507482 202.66863 33.25449l1.541206-5.927717c-77.949473-20.865562-141.850258-27.267496-203.617065-33.432321-58.56584-5.927717-113.871436-11.381216-177.831497-28.512317-64.315725-17.249655-114.879148-40.901244-168.406429-65.975486-56.25403-26.378339-114.464207-53.349449-192.176571-74.45212-77.949473-20.865562-142.265198-26.378339-204.091283-31.713284-58.743671-5.038559-114.286376-9.780732-178.424269-26.911833-64.315725-17.249655-114.81987-41.19763-168.287874-66.50898-56.787525-26.615447-114.997702-54.238607-192.650789-75.282001zM25.72629 366.727227l-1.541206 5.927716c77.415979 20.747008 135.389047 48.31089 191.405968 74.985615 53.349449 25.489181 104.14998 49.555711 168.821369 66.92392 64.849219 17.36821 120.747587 22.16966 179.906198 27.267497 61.648253 5.275668 125.371206 10.788444 202.609353 31.416898 77.415979 20.747008 135.507601 47.955227 191.643078 74.215011 53.705112 24.89641 104.505643 48.607276 169.354863 66.390426 64.612111 17.249655 120.214092 22.643877 179.076318 28.393763 61.588975 5.927717 125.311929 12.151819 202.727907 32.898827l1.541207-5.927717c-77.949473-20.865562-141.850258-27.089665-203.73562-33.076658-58.743671-5.927717-114.227099-11.08483-178.542823-28.334486-64.137894-17.249655-114.582762-40.841967-167.991488-65.856931-56.25403-26.378339-114.464207-53.349449-192.176572-74.45212-77.949473-20.865562-142.265198-26.378339-204.091282-31.713284-58.743671-5.038559-114.286376-9.84001-178.42427-26.971111-64.315725-17.249655-114.81987-41.494016-168.228597-66.686811-56.016922-26.852556-114.523485-54.297884-192.354403-75.400555zM37.581723 321.735858l-1.541206 5.927716c77.415979 20.747008 135.32977 48.429445 191.405969 75.163447 53.349449 25.548459 104.14998 49.733542 168.762091 67.101751 64.849219 17.36821 120.747587 22.16966 179.906198 27.267497 61.648253 5.275668 125.371206 10.788444 202.609353 31.416898 77.415979 20.747008 135.507601 47.955227 191.643078 74.215011 53.645835 25.133518 104.327812 48.844385 168.939923 66.212595 64.849219 17.36821 120.569755 22.643877 179.609812 28.215931 61.648253 5.927717 125.371206 11.855433 202.846462 32.602441l1.541206-5.927717c-77.949473-20.865562-141.909535-26.911833-203.794896-32.780272-58.625117-5.512776-114.049267-10.788444-178.187161-27.919546-64.315725-17.249655-114.879148-40.901244-168.465705-65.975485-56.25403-26.378339-114.464207-53.349449-192.176572-74.452121-77.949473-20.865562-142.265198-26.378339-204.091282-31.713283-58.743671-5.038559-114.286376-9.780732-178.42427-26.911834-64.315725-17.249655-114.760593-41.494016-168.169319-66.805366-56.076199-26.97111-114.345653-54.712824-192.413681-75.637663zM49.437156 276.744489l-1.541206 5.927716c77.415979 20.747008 135.32977 48.488722 191.346692 75.282001 53.349449 25.607736 104.090703 49.852097 168.702814 67.220306 64.849219 17.36821 120.747587 22.16966 179.906198 27.267497 61.648253 5.275668 125.371206 10.788444 202.609353 31.416897 77.415979 20.747008 135.507601 47.955227 191.643078 74.215012 53.645835 25.133518 104.327812 48.844385 168.939923 66.212594 64.849219 17.36821 120.629033 22.466046 179.669089 27.919546 61.648253 5.927717 125.430483 11.559047 202.905739 32.306055l1.541207-5.927717c-77.949473-20.865562-141.968812-26.734002-203.913451-32.424609-58.684394-5.394222-114.108544-10.492058-178.246438-27.62316-64.315725-17.249655-114.879148-40.901244-168.406428-65.975485-56.25403-26.378339-114.464207-53.349449-192.176572-74.452121-77.949473-20.865562-142.265198-26.378339-204.091282-31.713283-58.743671-5.038559-114.286376-9.780732-178.42427-26.911834-64.315725-17.249655-114.760593-41.494016-168.169319-66.983197-55.957645-26.97111-114.049267-54.831378-192.295127-75.756218zM61.766807 231.812397l-1.541206 5.927717c77.415979 20.747008 135.32977 48.547999 191.287414 75.459832 53.349449 25.72629 104.031426 49.970651 168.702814 67.33886 64.849219 17.36821 120.747587 22.16966 179.906199 27.267497 61.648253 5.275668 125.371206 10.788444 202.609353 31.416898 77.415979 20.747008 135.507601 47.955227 191.643077 74.215011 53.645835 25.133518 104.327812 48.844385 168.939923 66.212595 64.849219 17.36821 120.68831 22.347492 179.787644 27.623159 61.70753 5.512776 125.549037 11.203384 202.965016 31.950392l1.541206-5.927716c-77.949473-20.865562-142.265198-26.615447-203.972727-32.128224-58.684394-5.216391-114.167822-10.195673-178.305716-27.326774-64.315725-17.249655-114.879148-40.901244-168.465705-65.975485-56.25403-26.378339-114.464207-53.349449-192.176572-74.452121-77.949473-20.865562-142.265198-26.378339-204.091282-31.713283-58.743671-5.038559-114.286376-9.780732-178.424269-26.971111-64.315725-17.249655-114.760593-41.494016-168.110043-67.101752-56.431862-27.030388-114.345653-54.949933-192.295126-75.815495zM73.859349 186.821028l-1.541207 5.927717c77.415979 20.747008 135.270493 48.666553 191.228138 75.637663 53.349449 25.785567 104.031426 50.148482 168.643537 67.516692 64.849219 17.36821 120.747587 22.16966 179.906198 27.267497 61.648253 5.275668 125.371206 10.788444 202.609353 31.416898 77.415979 20.747008 135.507601 47.955227 191.643078 74.215011 53.764389 25.192796 104.564921 48.962939 169.41414 66.331149 64.671388 17.249655 120.391924 22.110383 179.431981 27.208219 61.766807 5.334945 125.608315 10.906999 203.08357 31.654007l1.541207-5.927717c-77.949473-20.865562-142.265198-26.437616-204.091283-31.831838-58.862226-5.097836-114.523485-9.958564-178.839209-27.148942-64.137894-17.249655-114.582762-40.841967-167.991488-65.856931-56.25403-26.378339-114.464207-53.349449-192.176572-74.452121-77.949473-20.865562-142.265198-26.378339-204.091282-31.713283-58.743671-5.038559-114.286376-9.84001-178.42427-26.971111-64.315725-17.249655-114.701316-41.494016-168.050765-67.220306-56.25403-27.148942-114.345653-55.187041-192.295126-76.052604zM85.892613 141.829659l-1.541206 5.927717c77.415979 20.747008 135.270493 48.72583 191.16886 75.756218 53.349449 25.844844 103.972149 50.267037 168.643537 67.635246 64.849219 17.36821 120.747587 22.16966 179.906199 27.267496 61.648253 5.275668 125.371206 10.788444 202.609353 31.416898 77.415979 20.747008 135.507601 47.955227 191.643077 74.215012 53.645835 25.133518 104.327812 48.844385 168.939923 66.212594 64.849219 17.36821 120.747587 22.051106 179.965476 27.030388 61.826084 5.216391 125.726869 10.610613 203.142847 31.357621l1.541206-5.927717c-77.949473-20.865562-142.265198-26.259784-204.150559-31.535452-58.802949-4.920005-114.345653-9.602901-178.424269-26.734002-64.315725-17.249655-114.879148-40.901244-168.465706-65.975486-56.25403-26.319062-114.464207-53.349449-192.176572-74.45212-77.949473-20.865562-142.265198-26.378339-204.091282-31.713284-58.743671-5.038559-114.286376-9.84001-178.424269-26.97111-64.315725-17.249655-114.701316-41.494016-167.991488-67.398138-56.25403-27.089665-114.345653-55.364873-192.295127-76.111881zM97.925878 96.83829l-1.541206 5.927717c77.415979 20.747008 135.211215 48.785108 191.16886 75.934049 53.349449 25.904121 103.912872 50.444868 168.58426 67.813078 64.849219 17.36821 120.747587 22.16966 179.906198 27.267496 61.648253 5.275668 125.371206 10.788444 202.609353 31.416898 77.415979 20.747008 135.507601 47.955227 191.643078 74.215012 53.645835 25.133518 104.327812 48.844385 168.939922 66.212594 64.849219 17.36821 120.806864 21.932551 180.024753 26.793279 61.826084 5.038559 125.786146 10.25495 203.202125 31.001958l1.541206-5.927716c-77.949473-20.865562-142.265198-26.14123-204.269113-31.17979-58.802949-4.80145-114.40493-9.306515-178.542824-26.437616-64.315725-17.249655-114.879148-40.901244-168.465706-65.975485-56.25403-26.378339-114.464207-53.349449-192.176571-74.452121-77.949473-20.865562-142.265198-26.378339-204.091283-31.713283-58.743671-5.038559-114.286376-9.780732-178.424269-26.971111-64.315725-17.249655-114.701316-41.494016-167.991488-67.516692-56.076199-27.326773-114.108544-55.483427-192.117295-76.408267zM110.01842 51.906199l-1.541206 5.927716c77.415979 20.747008 135.211215 48.903662 191.109582 76.052604 53.349449 26.022676 103.912872 50.563423 168.524983 67.931632 64.849219 17.36821 120.747587 22.16966 179.906199 27.267496 61.648253 5.275668 125.371206 10.788444 202.609353 31.416898 77.415979 20.747008 135.507601 47.955227 191.643077 74.215012 53.645835 25.133518 104.327812 48.844385 168.939923 66.212594 64.849219 17.36821 120.806864 21.813997 180.143307 26.496894 61.885361 4.920005 125.845423 9.958564 203.320679 30.705571l1.541206-5.927716c-77.949473-20.865562-142.265198-25.963399-204.387668-30.883404-58.862226-4.682896-114.464207-9.069406-178.6021-26.200507-64.315725-17.249655-114.879148-40.901244-168.406429-65.975486-56.25403-26.378339-114.464207-53.349449-192.176572-74.45212-77.949473-20.865562-142.265198-26.378339-204.091282-31.713284-58.743671-5.038559-114.286376-9.780732-178.424269-26.911833-64.315725-17.249655-114.642039-41.494016-167.932211-67.694523-56.194753-27.326773-114.227099-55.601982-192.176572-76.467544zM122.051685 6.91483l-1.541207 5.927716c77.415979 20.747008 135.211215 48.962939 191.050306 76.230436 53.349449 26.081953 103.853595 50.741254 168.524983 68.109463 64.849219 17.36821 120.747587 22.16966 179.906198 27.267496 61.648253 5.275668 125.371206 10.788444 202.609353 31.416898 77.415979 20.747008 135.507601 47.955227 191.643078 74.215012 53.764389 25.192796 104.564921 48.962939 169.41414 66.331149 64.671388 17.308932 120.569755 21.576888 179.787644 26.081953 61.885361 4.742173 125.963978 9.602901 203.379956 30.349909l1.541206-5.927717c-77.949473-20.865562-142.265198-25.785567-204.446945-30.52774-59.277166-4.505065-114.81987-8.773021-179.135595-26.022676-64.137894-17.249655-114.582762-40.841967-167.991488-65.856931-56.25403-26.378339-114.464207-53.349449-192.176572-74.452121-77.949473-20.865562-142.265198-26.378339-204.091282-31.713284-58.743671-5.038559-114.286376-9.84001-178.42427-26.97111-64.315725-17.249655-114.642039-41.790402-167.872934-67.813078-56.194753-27.682436-114.227099-55.779813-192.176571-76.645375zM134.084949-38.076539l-1.541206 5.927716c77.415979 20.747008 135.151938 49.022216 190.991028 76.408267 53.349449 26.14123 103.853595 50.859808 168.465706 68.228018 64.849219 17.36821 120.747587 22.16966 179.906199 27.267496 61.648253 5.275668 125.371206 10.788444 202.609353 31.416898 77.415979 20.747008 135.507601 47.955227 191.643077 74.215012 53.645835 25.133518 104.327812 48.844385 168.939923 66.212594 64.849219 17.36821 120.925418 21.517611 180.321138 25.904122 61.944638 4.564342 126.023255 9.306515 203.439234 30.053523l1.541206-5.927717c-77.949473-20.865562-142.265198-25.667013-204.565499-30.231354-58.921503-4.327233-114.642039-8.476635-178.720656-25.607736-64.315725-17.249655-114.879148-40.901244-168.465705-65.975486-56.25403-26.378339-114.464207-53.349449-192.176572-74.45212-77.949473-20.865562-142.265198-26.378339-204.091282-31.713284-58.743671-5.038559-114.286376-9.84001-178.42427-26.97111-64.315725-17.249655-114.582762-41.849679-167.872933-67.931632-56.016922-27.504605-113.98999-55.898367-191.998741-76.823207zM146.118214-83.067908l-1.541206 5.927716c77.415979 20.747008 135.151938 49.140771 190.991028 76.586099 53.349449 26.259784 103.794317 51.03764 168.465706 68.405849 64.849219 17.36821 120.747587 22.16966 179.906198 27.267496 61.648253 5.275668 125.371206 10.788444 202.609353 31.416898 77.415979 20.747008 135.507601 47.955227 191.643078 74.215012 53.645835 25.133518 104.327812 48.844385 168.939922 66.212594 64.849219 17.36821 120.984696 21.399057 180.380416 25.607736 62.003916 4.445787 126.082532 9.010129 203.498511 29.638583l1.541206-5.927717c-77.949473-20.865562-142.265198-25.489181-204.624777-29.638583-58.98078-4.208679-114.701316-8.180249-178.839209-25.311349-64.315725-17.249655-114.879148-40.901244-168.465706-65.975486-56.25403-26.378339-114.464207-53.349449-192.176571-74.45212-77.949473-20.865562-142.265198-26.378339-204.091283-31.713284-58.743671-5.038559-114.286376-9.780732-178.424269-26.911833-64.315725-17.249655-114.582762-41.968233-167.813657-68.109464-56.016922-27.800991-113.98999-56.313308-191.99874-77.238147zM158.210756-127.881446l-1.541207 5.927717c77.415979 20.747008 135.092661 49.200048 190.931752 76.704653 53.349449 26.319062 103.73504 51.156194 168.406428 68.524403 64.849219 17.36821 120.747587 22.16966 179.906199 27.267497 61.648253 5.275668 125.371206 10.788444 202.609353 31.416898 77.415979 20.747008 135.507601 47.955227 191.643077 74.215011 53.645835 25.133518 104.327812 48.844385 168.939923 66.212595 64.849219 17.36821 120.984696 21.221225 180.439693 25.311349 62.063193 4.267956 126.201086 8.654466 203.617065 29.638583l1.541206-5.927716c-77.949473-20.865562-142.265198-25.31135-204.743331-29.638583-59.277166-4.030847-114.760593-7.883863-178.898487-25.014964-64.315725-17.249655-114.879148-40.901244-168.465705-65.975486-56.25403-26.378339-114.464207-53.349449-192.176572-74.45212-77.949473-20.865562-142.265198-26.378339-204.091282-31.713284-58.743671-5.038559-114.286376-9.780732-178.42427-26.911833-64.315725-17.249655-114.582762-42.027511-167.754379-68.228018-56.016922-28.038099-113.98999-56.609693-191.939463-77.356702zM514.051583 547.878246l-27.089665 13.455916-46.769684-1.896869 4.682896 9.365792H483.227456c-3.260244 3.853016-6.342657 8.120972-9.958563 12.9817l-13.040977 17.783149 4.682896 9.365793 26.022676-39.597147 27.148942-13.515194zM536.69546 649.420031c19.680019-14.64146 21.221225-34.380756 10.314227-48.962939s-30.824126-16.953269-48.133059-4.090125-21.636166 33.610153-10.254949 48.903662 31.120512 16.775438 48.073781 4.149402z m-32.068947-45.050646c12.211096-9.069406 28.097377-10.610613 36.751843 1.007712s2.845304 26.319062-10.136395 35.981239c-11.381216 8.476635-27.623159 11.381216-36.81112-0.948434s-2.371087-26.734002 10.195672-36.040517zM571.906097 633.415196l-47.421733 53.349449 7.5282 6.639043 40.960522-11.855433a201.068147 201.068147 0 0 0 24.896409-8.832298c-6.935428 6.579765-12.863145 12.922422-20.213513 21.221225l-19.739297 22.347492 6.461212 5.927717 47.421732-53.34945-6.935428-5.927716-40.901245 11.855433a225.25323 225.25323 0 0 0-25.72629 9.010129c6.342657-6.401934 12.151819-12.626036 20.035682-21.517611l20.154237-22.821709zM635.688327 683.800787l-15.649172 25.904122-40.486304 23.710866 8.950852 5.394222 18.790862-11.855433c5.157113-3.200967 9.187961-5.927717 13.693025-8.891575-0.711326 5.038559-1.007712 10.25495-1.481929 16.301221l-1.007712 22.16966 8.950852 5.394222 0.711326-47.421733 15.708449-25.963399zM708.954904 757.36375c8.832298-22.880986-0.41494-40.427027-17.368209-46.947515s-35.151359 2.133978-42.916669 22.228937c-8.120972 21.102671-0.355663 40.012087 17.427487 46.828961s35.388468-2.371087 42.857391-22.110383z m-51.215471-20.984117c5.453499-14.22652 17.78315-23.710866 31.594729-18.790861s16.479052 20.747008 10.66989 35.566299c-5.097836 13.218808-17.308932 24.362915-31.654006 18.850139s-16.182666-21.043394-10.551336-35.625577zM727.982874 796.842342l6.816875-41.494016c2.608195-15.767726 10.66989-21.280503 20.035682-19.739296 10.432781 1.719038 16.004835 9.662178 13.396639 25.252073l-6.816874 41.494016 9.187961 1.481929 6.757597-41.019799c3.55663-21.576888-6.342657-32.306055-21.576889-34.854973s-26.615447 4.090124-30.172077 25.904121l-6.816874 41.494016zM790.40173 738.572888a6.224102 6.224102 0 0 0 5.927717 6.935429 6.69832 6.69832 0 1 0-5.927717-6.935429zM862.601318 732.645172a45.584141 45.584141 0 0 0-19.02797-1.837592c-20.035682 1.600483-34.08437 15.47134-32.187501 38.767266a35.5663 35.5663 0 0 0 40.130641 34.321479 38.293049 38.293049 0 0 0 16.597607-4.505064l-2.845304-7.291092a33.491599 33.491599 0 0 1-14.107966 4.090125c-16.656884 1.363375-28.571594-8.417358-30.1128-27.030388-1.422652-17.36821 7.706032-29.638583 24.955687-30.764849a36.692566 36.692566 0 0 1 15.174954 1.719038zM936.81633 748.294344c-6.520488-23.710866-24.362915-32.246778-41.908956-27.386051s-27.030388 22.5846-21.280503 43.390885c5.927717 21.813997 23.710866 32.365333 41.849679 27.326774s26.97111-22.940263 21.33978-43.331608z m-53.349449 13.574471c-4.030847-14.700737 0-30.053523 14.226519-33.906539s25.607736 6.876151 29.638583 22.466046c3.734461 13.693025 0.533494 29.638583-14.226519 33.965816s-25.785567-7.409646-29.934969-22.525323zM1002.258321 709.645631c4.267956 9.010129 9.365792 19.798573 13.633748 27.62316-5.927717-5.927717-12.922422-12.626036-20.747008-19.561465l-27.445328-24.48147-5.927716 3.319522 5.927716 35.566299c1.778315 10.432781 3.615907 19.917128 5.927717 28.275208-4.38651-7.706032-10.492058-17.78315-16.123389-27.089664l-16.123389-26.022676-7.706032 4.149401 38.174495 60.403432 10.314227-5.572053-5.631331-36.099794c-1.541206-9.128684-3.14169-17.190378-5.038559-24.540747 4.979282 5.453499 10.906999 11.144107 17.78315 17.78315l27.504605 24.362915 10.314227-5.572054-29.638583-64.849219-7.883863 4.267956zM808.540543-36.713165a443.215369 443.215369 0 1 0 115.23481 15.530618 445.29007 445.29007 0 0 0-115.23481-15.530618z m0.592772 878.843262a436.042832 436.042832 0 1 1 421.282818-323.238385A434.857289 434.857289 0 0 1 809.133315 842.07082zM523.654484 456.947073h-0.652049a3.260244 3.260244 0 0 0-2.548918 3.853016c23.058818 110.8483 106.698899 200.831038 212.805025 229.284078s223.59347-7.706032 298.934748-92.175993a3.2721 3.2721 0 1 0-4.860728-4.386511c-73.740794 82.632369-188.501388 118.020837-292.354982 90.219847s-185.537529-115.886859-208.122129-224.304796a3.260244 3.260244 0 0 0-3.200967-2.489641zM555.841985 465.660817h-0.889158a3.260244 3.260244 0 0 0-2.311809 4.030847c25.252073 92.590933 99.111421 167.872934 188.086447 191.702354s190.576088-4.38651 258.744829-71.962479a3.289883 3.289883 0 0 0-4.623619-4.682896c-66.568257 65.975486-165.679679 93.598645-252.461449 70.302719s-158.803527-96.681058-183.759215-187.078736a3.260244 3.260244 0 0 0-2.786026-2.311809zM813.638379 140.881225a279.254729 279.254729 0 0 0-194.31055 80.320559 3.289883 3.289883 0 0 0 4.623619 4.682896c66.568257-65.975486 165.679679-93.539368 252.46145-70.302718s158.803527 96.681058 183.759214 187.078735a3.283955 3.283955 0 1 0 6.342657-1.719038c-25.252073-92.590933-99.111421-167.872934-188.086447-191.702354a248.964097 248.964097 0 0 0-64.789943-8.35808zM812.393559 110.946256a304.506801 304.506801 0 0 0-225.608894 101.778894 3.2721 3.2721 0 0 0 4.860728 4.38651c73.740794-82.632369 188.501388-118.020837 292.354982-90.219847s185.537529 115.886859 208.12213 224.304796a3.260244 3.260244 0 0 0 3.853015 2.548918 3.260244 3.260244 0 0 0 2.548919-3.853015c-23.058818-110.8483-106.698899-200.831038-212.805026-229.284078a283.463407 283.463407 0 0 0-73.325854-9.662178zM808.18488-81.289593a488.621679 488.621679 0 1 0 126.853135 16.834715 489.807222 489.807222 0 0 0-126.853135-16.834715z m1.600483 961.534908a476.766245 476.766245 0 0 1-123.474336-16.360498 474.217327 474.217327 0 1 1 580.560563-335.153096 474.632267 474.632267 0 0 1-456.849118 351.513594zM572.498868 418.772578l8.476635-31.654006-13.633748-3.675185-5.038559 18.790862-138.293628-37.048229 4.80145-18.850138-13.218808-3.55663-8.476635 31.654006 78.838631 21.161948a180.024753 180.024753 0 0 1-14.819291 16.834716l12.388927 7.409645a177.475835 177.475835 0 0 0 16.834715-18.850138l-3.615907-2.489641z m-65.204882-59.277166l63.248736 16.95327 25.014964-93.302259-13.39664-3.615907-2.904581 10.788444-49.852096-13.337363 10.314227-38.411603-13.633749-3.675184-10.314226 38.411603-50.444869-13.515194 3.082413-11.855433-12.803868-3.438075-25.192795 94.072862 63.248736 16.953269-5.334945 19.798574 13.633748 3.675184z m-60.699818-29.164365l5.927717-22.999541 50.444868 13.515194-5.927717 22.999541z m66.212594-45.347032l-6.461211 24.244361-50.444868-13.515194 6.461211-24.244361z m-2.133978 62.478133l5.927717-22.999541 49.852096 13.337363-5.927716 22.99954z m65.619823-45.524864l-6.461211 24.244361-49.852097-13.337362 6.461211-24.244361zM687.140907 366.253009c-7.765309-4.682896-15.649172-9.780732-23.177372-14.345074l15.412063-57.439574c2.193255-8.180249 0.889157-12.211096-3.378798-15.47134s-12.329651-5.927717-25.904122-9.721455a66.983197 66.983197 0 0 1-7.5282 11.262661c9.899287 2.252532 18.494476 4.742173 20.865563 5.394223a3.438076 3.438076 0 0 1 2.963858 4.860727l-14.404351 53.823667-24.303638-15.115678-7.409646 11.855434c7.824586 4.445787 17.78315 10.314227 28.215931 16.360497l-11.855433 44.813538-28.0381-7.5282-3.319521 12.388927 28.0381 7.528201-10.906999 40.664135 12.981699 3.497353 10.906999-40.664136 22.99954 5.927717 3.319522-12.388928-22.999541-5.927716 10.966276-41.019799 21.873274 12.922422z m60.284878-32.128224a53.349449 53.349449 0 0 1 5.394222-11.203384c-31.239066-25.963399-35.5663-30.1128-38.055941-34.202925a46.769684 46.769684 0 0 1-9.543623 10.077119 16.834715 16.834715 0 0 1 3.14169 16.30122l-40.189919 149.793398 13.040977 3.497353 16.656883-62.241024 29.994246 8.061695 3.378799-12.626037-29.757138-7.824586 21.161949-79.075739z m53.942221-6.757597c4.623619 1.24482 3.912293 7.053983-1.363375 29.045812a34.380756 34.380756 0 0 1 13.81158-2.72675c5.572054-25.548459 4.979282-35.5663-8.239526-38.885821l-22.406769-5.927716c-13.81158-3.675184-19.324356 0-23.710866 17.190378l-40.841968 152.342316 13.39664 3.615907 18.61303-69.472838a234.500468 234.500468 0 0 1 23.710866 33.610153l12.388928-5.927717a317.903441 317.903441 0 0 0-32.483887-41.494016l18.553753-69.23573c2.015424-7.587477 3.438076-8.773021 8.595189-7.350368zM845.470217 462.104187a293.421971 293.421971 0 0 1-42.975945 25.192795l7.231814 9.899287a270.778094 270.778094 0 0 0 43.272331-23.710867z m28.690149-94.843466c4.742173-0.889157 10.25495-3.912293 18.909415-6.520488 15.589895-4.623619 32.83955-1.719038 55.068488 4.267956 23.710866 6.401934 52.993786 15.945558 72.673805 23.355203a52.223183 52.223183 0 0 1 0-13.989411c-13.337362-4.623619-48.31089-15.115677-69.709947-20.806285-24.600024-6.579765-41.849679-8.654466-58.210177-3.793739-9.306515 2.667472-17.78315 7.646754-22.525323 6.401934-6.994706-1.896869-13.752302-15.88628-20.509899-32.306055l-11.321939 8.535912c7.350369 14.22652 15.115677 26.14123 22.762432 31.831838l-15.589895 58.269454-28.45304-7.646755-3.319521 12.388928 41.494016 11.025553z m16.123389 134.322058c9.899287-1.007712 21.636166-2.371087 32.602441-3.912293a148.192915 148.192915 0 0 1 25.252073 25.844844l-86.070445-23.058817-2.904581 10.788444L958.037555 537.74185l2.371087 1.481929 9.899287-4.030847a185.241143 185.241143 0 0 0-33.847262-40.189918 161.293168 161.293168 0 0 0 17.78315-3.793739l26.022676 6.994706 23.710866-89.271412c1.896869-6.994706 1.304098-10.551336-2.963858-13.870857a91.879607 91.879607 0 0 0-26.615448-9.484347 54.120052 54.120052 0 0 1-6.579765 10.25495c9.899287 2.252532 18.494476 4.742173 20.865562 5.394222s3.319521 1.956146 2.667473 4.38651l-5.334945 20.035683-36.81112-9.84001 8.891574-33.25449-11.855433-3.200967-8.891575 33.25449-35.566299-9.484347 9.128683-34.025093-12.626036-3.378798-27.682436 103.3201 58.625117 15.708449c-14.285797 2.845304-31.298344 5.572054-45.584141 6.876151z m-4.090125-39.95281l4.979282-18.61303 35.5663 9.484347-4.979282 18.61303z m48.370168-38.767266l-5.216391 19.44291-35.5663-9.484346 5.216391-19.442911z m-0.889158 51.45258l4.979282-18.61303 36.81112 9.840009-4.979282 18.61303z m49.733542-38.352327l-5.21639 19.383634-36.81112-9.84001 5.21639-19.44291zM1043.574506 519.247374a206.936586 206.936586 0 0 1-38.945098 26.022676l8.417357 9.365793a203.202125 203.202125 0 0 0 39.241484-24.89641z m30.824126-94.30997c4.623619-1.126266 9.899287-4.030847 18.375921-6.876152 15.174954-4.505065 32.187501-1.659761 54.59427 4.327233 23.710866 6.401934 52.638123 15.827003 71.488262 22.999541a51.926797 51.926797 0 0 1 0-15.293509c-13.989411-4.623619-49.496434-15.412063-68.346572-20.450622-24.837133-6.639043-41.849679-8.832298-57.795237-3.675185-9.484347 3.260244-17.78315 8.298803-22.110383 7.172538-7.231814-1.956146-13.930134-16.182666-20.984116-33.076659L1037.350403 389.845321c7.646754 14.700737 15.767726 26.734002 23.710867 32.365333l-14.345074 53.349449-28.215931-7.587477-3.319522 12.388928 41.494016 11.025553z m67.220306 117.54662l-77.475256-20.747009-3.378798 12.626037 77.475256 20.747008-9.543624 35.566299 13.633748 3.675185 9.543624-35.5663 28.215931 7.587477 3.378798-12.626036-28.215931-7.587477 21.813997-81.446826c2.548918-9.602901 0.770603-14.167243-5.21639-18.138813s-17.78315-7.350369-36.574012-12.388928a53.349449 53.349449 0 0 1-8.417357 11.855434c14.937846 3.55663 28.749425 7.291091 32.661718 8.535911s4.860728 2.608195 3.912293 5.927717z m-52.045352-32.42461a302.906318 302.906318 0 0 0 38.945098-31.59473l-9.247237-9.543623a304.091861 304.091861 0 0 1-38.589435 32.780272z"  horiz-adv-x="1648" />

    
    <glyph glyph-name="yinzhang-shenpijujue" unicode="&#59281;" d="M1.544194 457.829277l-1.544157 5.939064c77.564176 20.786724 135.707613 48.2252 191.891159 74.832207 53.451576 25.359803 104.408746 49.353622 169.203935 66.75508 64.973361 17.401458 120.978735 22.2121 180.250594 27.319695 61.766266 5.285767 125.611205 10.809097 202.997209 31.477039 77.564176 20.786724 135.767004 48.047028 192.00994 74.357082 53.74853 25.181632 104.527527 48.937888 169.263325 66.339345 64.91397 17.401458 120.681781 23.102959 179.716078 29.160805 61.647485 6.295408 125.373642 12.828378 202.997209 33.615102l1.544157-5.939064c-78.098692-20.905505-142.062412-27.438476-203.888069-33.793274-58.677953-5.939064-114.08942-11.878128-178.171921-28.863852s-115.039671-40.979542-168.610028-66.101782c-56.361718-26.428835-114.683327-53.451576-192.544456-74.594645-78.098692-20.905505-142.537537-26.428835-204.481975-31.773992-58.915515-5.048204-114.564545-9.858846-178.884609-27.022742S248.312305 558.377631 194.801338 533.077219C138.023885 506.35143 79.642886 478.794173 1.544194 457.829277zM13.659884 412.633l-1.544156 5.939064c77.564176 20.786724 135.648223 48.343981 191.831768 74.950988 53.451576 25.478585 104.408746 49.531794 169.144544 66.933252 64.973361 17.401458 120.978735 22.2121 180.250594 27.319694 61.766266 5.285767 125.611205 10.809097 202.997209 31.47704 77.564176 20.786724 135.767004 48.047028 192.009941 74.357082 53.74853 25.181632 104.527527 48.937888 169.263325 66.339345 64.91397 17.401458 120.741172 22.984178 179.775468 28.863851 61.706875 5.939064 125.433033 12.531425 203.0566 33.31815l1.544157-5.939064c-78.098692-20.905505-142.121803-27.319695-204.00685-33.496322-58.677953-5.939064-114.08942-11.403003-178.171922-28.566898-64.438845-17.282676-115.099061-40.979542-168.728809-66.101782-56.361718-26.428835-114.683327-53.451576-192.544456-74.594645-78.098692-20.905505-142.537537-26.428835-204.481975-31.773993-58.856125-5.048204-114.505155-9.799456-178.765828-26.96335-64.438845-17.282676-115.039671-41.276495-168.610028-66.636299-56.59928-26.666398-114.920889-54.342436-193.019582-75.426113zM25.716184 367.733676l-1.544156 5.939064c77.564176 20.786724 135.648223 48.403372 191.772378 75.12916 53.451576 25.537975 104.349355 49.650575 169.144544 67.052033 64.973361 17.401458 120.978735 22.2121 180.250593 27.319694 61.766266 5.285767 125.611205 10.809097 202.997209 31.47704 77.564176 20.786724 135.767004 48.047028 192.009941 74.357082 53.867311 25.241022 104.76509 49.056669 169.73845 66.458126 64.735798 17.282676 120.444219 22.687225 179.419125 28.448117 61.706875 5.939064 125.551814 12.175081 203.11599 32.961806l1.544157-5.939064c-78.098692-20.905505-142.121803-27.141523-204.125631-33.139978-58.856125-5.939064-114.445764-11.10605-178.884609-28.388726-64.260673-17.282676-114.802108-40.920151-168.313075-65.983001-56.361718-26.428835-114.683327-53.451576-192.544456-74.594645-78.098692-20.905505-142.537537-26.428835-204.481975-31.773992-58.856125-5.048204-114.505155-9.858846-178.765828-27.022742-64.438845-17.282676-115.039671-41.573448-168.550638-66.81447-56.361718-26.844569-114.683327-54.342436-192.782019-75.485504zM37.772484 322.65618l-1.544156 5.939064c77.564176 20.786724 135.588832 48.522153 191.772378 75.307332 53.451576 25.597366 104.349355 49.828747 169.085153 67.230205 64.973361 17.401458 120.978735 22.2121 180.250594 27.319694 61.766266 5.285767 125.611205 10.809097 202.997209 31.47704 77.564176 20.786724 135.767004 48.047028 192.00994 74.357081 53.74853 25.181632 104.527527 48.937888 169.263325 66.339346 64.973361 17.401458 120.800563 22.687225 179.953641 28.269945 61.766266 5.939064 125.611205 11.878128 203.234772 32.664852l1.544156-5.939064c-78.098692-20.905505-142.181193-26.963351-204.185022-32.843024-58.796734-5.58272-114.386373-10.809097-178.765827-28.032383s-114.98028-40.979542-168.550638-66.042392c-56.361718-26.428835-114.683327-53.451576-192.544456-74.594644-78.098692-20.905505-142.537537-26.428835-204.481975-31.773993-58.915515-5.048204-114.623936-9.858846-178.944-27.082132s-114.861499-41.573448-168.313075-66.873861C174.192786 371.415895 115.871177 343.621076 37.772484 322.65618zM49.888175 277.578683l-1.544157 5.939065c77.564176 20.786724 135.588832 48.581544 191.712988 75.426113 53.451576 25.656757 104.289965 49.947529 169.025762 67.348986 64.973361 17.401458 120.978735 22.2121 180.250594 27.319695 61.766266 5.285767 125.611205 10.809097 202.997209 31.477039 77.564176 20.786724 135.767004 48.047028 192.009941 74.357082 53.74853 25.181632 104.527527 48.937888 169.263325 66.339345 64.973361 17.401458 120.859953 22.509053 180.013031 27.972992 61.766266 5.939064 125.670595 11.581175 203.294162 32.367899l1.544157-5.939064c-78.098692-20.905505-142.240584-26.785179-204.303803-32.48668-58.796734-5.404548-114.326983-10.512143-178.587656-27.676039-64.438845-17.282676-115.099061-40.979542-168.728809-66.101783-56.361718-26.428835-114.683327-53.451576-192.544457-74.594644-78.098692-20.905505-142.537537-26.428835-204.481975-31.773993-58.856125-5.048204-114.505155-9.799456-178.765827-26.96335-64.438845-17.282676-114.98028-41.573448-168.491247-67.111424-56.302327-27.022741-114.564545-54.936342-192.663238-75.901239zM61.944475 232.560578l-1.544157 5.939064c77.564176 20.786724 135.588832 48.640935 191.653597 75.604285 53.451576 25.775538 104.230574 50.06631 169.025763 67.467768 64.973361 17.401458 120.978735 22.2121 180.250593 27.319694 61.766266 5.285767 125.611205 10.809097 202.997209 31.47704 77.207833 20.786724 135.588832 47.987637 191.772378 74.297691 53.74853 25.181632 104.527527 48.937888 169.263326 66.339345 64.973361 17.401458 120.919344 22.390271 180.131812 27.676039 61.825657 5.52333 125.789376 11.224831 203.353553 32.011555l1.544157-5.939064c-78.098692-20.905505-142.537537-26.666398-204.363194-32.189727-58.796734-5.226376-114.386373-10.21519-178.647047-27.379085-64.438845-17.282676-115.099061-40.979542-168.7882-66.101783-56.361718-26.428835-114.683327-53.451576-192.544456-74.594644-78.098692-20.905505-142.537537-26.428835-204.481975-31.773993-58.856125-5.048204-114.505155-9.799456-178.765828-26.963351-64.438845-17.282676-114.98028-41.573448-168.431856-67.230205-56.064765-27.082132-114.326983-55.055124-192.425675-75.960629zM74.000775 187.483082l-1.544157 5.939064c77.564176 20.786724 135.529441 48.759716 191.594206 75.782457 53.451576 25.834929 104.230574 50.244482 168.966373 67.64594 64.973361 17.401458 120.978735 22.2121 180.250593 27.319694 61.766266 5.285767 125.611205 10.809097 202.997209 31.47704 77.564176 20.786724 135.767004 48.047028 192.009941 74.357081 53.867311 25.241022 104.76509 49.056669 169.73845 66.458127 64.795189 17.282676 120.622391 22.152709 179.775469 27.260304 61.885047 5.345158 125.848767 10.927878 203.472334 31.714602l1.544156-5.939064c-78.098692-20.905505-142.537537-26.488226-204.481975-31.892774-58.974906-5.107595-114.742717-9.977628-179.181562-27.200913-64.260673-17.282676-114.802108-40.920151-168.313075-65.983002-56.361718-26.428835-114.683327-53.451576-192.544456-74.594644-78.098692-20.905505-142.537537-26.428835-204.481975-31.773993-58.856125-5.048204-114.505155-9.858846-178.765828-27.022741-64.438845-17.282676-114.920889-41.573448-168.372465-67.348986-56.302327-27.200913-114.564545-55.292686-192.663238-76.198192zM86.116466 142.405586l-1.544157 5.939064c77.564176 20.786724 135.529441 48.819106 191.594206 75.901238 53.451576 25.894319 104.171183 50.363263 168.906982 67.764721 64.973361 17.401458 120.978735 22.2121 180.250593 27.319695 61.766266 5.285767 125.611205 10.809097 202.997209 31.477039 77.564176 20.786724 135.767004 48.047028 192.009941 74.357082 53.74853 25.181632 104.527527 48.937888 169.263325 66.339345 64.973361 17.401458 120.978735 22.093318 180.309984 27.082132 61.944438 5.226376 125.967548 10.630925 203.531725 31.417649l1.544157-5.939064c-78.098692-20.905505-142.537537-26.310054-204.541366-31.595821-58.915515-4.929423-114.564545-9.621284-178.765828-26.785178-64.438845-17.282676-115.099061-40.979542-168.7882-66.101783-56.361718-26.428835-114.683327-53.451576-192.544456-74.594645-78.098692-20.905505-142.537537-26.428835-204.481975-31.773992-58.856125-5.048204-114.505155-9.858846-178.765828-27.022742-64.438845-17.282676-114.920889-41.573448-168.313075-67.527158-56.361718-27.141523-114.564545-55.470858-192.663237-76.257582zM98.172766 97.32809l-1.544157 5.939064c77.564176 20.786724 135.470051 48.878497 191.534815 76.07941 53.451576 25.95371 104.111793 50.541435 168.906982 67.942893 64.973361 17.401458 120.978735 22.2121 180.250594 27.319694 61.825657 5.285767 125.729986 10.809097 203.234771 31.536431s135.588832 47.987637 191.772378 74.297691c53.74853 25.181632 104.527527 48.937888 169.263325 66.339345 64.973361 17.401458 121.038125 21.974537 180.369375 26.84457 61.944438 5.048204 126.026939 10.274581 203.591116 31.061304l1.544156-5.939064c-78.098692-20.905505-142.537537-26.191272-204.660147-31.239476-58.915515-4.810642-114.623936-9.324331-178.884609-26.488226-64.438845-17.282676-115.099061-40.979542-168.7882-66.101783-56.361718-26.428835-114.683327-53.451576-192.544456-74.594644-78.098692-20.905505-142.537537-26.428835-204.481975-31.773993-58.856125-5.048204-114.505155-9.799456-178.765828-26.963351-64.438845-17.282676-114.920889-41.573448-168.313075-67.645939-56.183546-27.438476-114.386373-55.64903-192.485065-76.613926zM110.229066 52.309984l-1.544157 5.939064c77.564176 20.786724 135.470051 48.997278 191.475425 76.198192 53.451576 26.072491 104.111793 50.660216 168.847591 68.061674h0.534515c64.795189 17.282676 120.622391 22.093318 179.775469 27.200913 61.766266 5.285767 125.611205 10.809097 202.997209 31.47704 77.564176 20.786724 135.767004 48.047028 192.00994 74.357082 53.74853 25.181632 104.527527 48.937888 169.263326 66.339345h0.475125c64.795189 17.282676 120.741172 21.736974 180.013031 26.428835 62.003829 4.929423 126.08633 9.977628 203.709897 30.764352l1.544156-5.939064c-78.098692-20.905505-142.537537-26.013101-204.778928-30.942524-58.974906-4.691861-114.683327-9.086768-178.944-26.250663-64.438845-17.282676-115.099061-40.979542-168.728809-66.101783-56.361718-26.428835-114.683327-53.451576-192.544456-74.594644-78.098692-20.905505-142.537537-26.428835-204.481975-31.773993-58.856125-5.048204-114.505155-9.799456-178.765828-27.022741-64.438845-17.282676-114.861499-41.573448-168.253684-67.824112-56.302327-27.082132-114.445764-55.411468-192.603847-76.316973zM122.344756 7.232488l-1.544156 5.939064c77.564176 20.786724 135.470051 49.056669 191.416034 76.376364 53.451576 26.131882 104.052402 50.838388 168.847591 68.239846 64.973361 17.401458 120.978735 22.2121 180.250593 27.319694 61.766266 5.285767 125.611205 10.809097 202.997209 31.47704 77.564176 20.786724 135.767004 48.047028 192.009941 74.357082 53.867311 25.241022 104.76509 49.056669 169.73845 66.458126 64.795189 17.342067 120.800563 21.618193 180.131813 26.131882 62.003829 4.751251 126.205111 9.621284 203.769287 30.408008l1.544157-5.939064c-78.098692-20.905505-142.537537-25.834929-204.838319-30.58618-59.39064-4.513689-115.039671-8.789815-179.478516-26.072491-64.260673-17.282676-114.802108-40.920151-168.313075-65.983002-56.361718-26.428835-114.683327-53.451576-192.544456-74.594644-78.098692-20.905505-142.537537-26.428835-204.481975-31.773993-58.856125-5.048204-114.505155-9.858846-178.765828-27.022741-64.438845-17.282676-114.861499-41.870402-168.194293-67.942893-56.302327-27.735429-114.445764-55.886593-192.544457-76.792098zM134.401056-37.845008l-1.544156 5.939064c77.564176 20.786724 135.41066 49.11606 191.356643 76.554536 53.451576 26.191272 104.052402 50.957169 168.7882 68.358627 64.973361 17.401458 120.978735 22.2121 180.250594 27.319694 61.766266 5.285767 125.611205 10.809097 202.997209 31.47704 77.564176 20.786724 135.707613 48.047028 191.95055 74.357082 53.74853 25.181632 104.527527 48.937888 169.263325 66.339345 64.973361 17.401458 121.156906 21.558802 180.666328 25.95371 62.063219 4.573079 126.264502 9.324331 203.828678 30.111055l1.544157-5.939064c-78.098692-20.905505-142.537537-25.716147-204.9571-30.289227-59.034297-4.335517-114.861499-8.492862-179.062781-25.656757-64.438845-17.282676-115.099061-40.979542-168.7882-66.101782-56.361718-26.428835-114.683327-53.451576-192.544456-74.594645-78.098692-20.905505-142.537537-26.428835-204.481975-31.773993-58.856125-5.048204-114.505155-9.858846-178.765828-27.022741-64.438845-17.282676-114.802108-41.929792-168.194294-68.061674-56.064765-27.557257-114.208202-56.005374-192.306894-76.97027zM146.457356-82.922504l-1.544156 5.939064c77.564176 20.786724 135.41066 49.234841 191.356643 76.732708 53.451576 26.310054 103.993011 51.135341 168.7882 68.536799h0.475125c64.795189 17.282676 120.622391 22.093318 179.775469 27.200913 61.766266 5.285767 125.611205 10.809097 202.997209 31.477039 77.564176 20.786724 135.767004 48.047028 192.009941 74.357082 53.74853 25.181632 104.527527 48.937888 169.263325 66.339346h0.475125c64.795189 17.282676 120.859953 21.32124 180.250594 25.537975 62.12261 4.454298 126.323892 9.027377 203.888068 29.69532l1.544157-5.939064c-78.098692-20.905505-142.537537-25.537975-205.016491-29.69532-59.093687-4.216735-114.920889-8.195908-179.181562-25.359804-64.438845-17.282676-115.099061-40.979542-168.7882-66.101782-56.361718-26.428835-114.683327-53.451576-192.544456-74.594645-78.098692-20.905505-142.537537-26.428835-204.481975-31.773992-58.856125-5.048204-114.505155-9.799456-178.765828-27.022742-64.438845-17.282676-114.802108-42.048573-168.134903-68.239846-56.124155-27.557257-114.208202-56.124155-192.366285-77.089051zM158.513656-127.821828l-1.544156 5.939064c77.564176 20.786724 135.35127 49.294232 191.297253 76.851489 53.451576 26.369444 103.933621 51.254123 168.728809 68.65558 64.973361 17.401458 120.978735 22.2121 180.250594 27.319695 61.766266 5.285767 125.611205 10.809097 202.997209 31.477039 77.564176 20.786724 135.767004 48.047028 192.00994 74.357082 53.74853 25.181632 104.527527 48.937888 169.263325 66.339345 64.973361 17.401458 121.275688 21.261849 180.78511 25.359804 62.182001 4.276126 126.442673 8.671034 204.00685 29.69532l1.544156-5.939064c-78.098692-20.905505-142.537537-25.359803-205.135272-29.69532-59.39064-4.038564-114.98028-7.898955-179.240952-25.062851-64.438845-17.282676-115.099061-40.979542-168.72881-66.101782-56.361718-26.428835-114.683327-53.451576-192.544456-74.594645-78.098692-20.905505-142.537537-26.428835-204.481975-31.773992-58.856125-5.048204-114.505155-9.799456-178.765828-26.963351-64.438845-17.282676-114.802108-42.107964-168.075512-68.358627-56.124155-28.091773-114.208202-56.718062-192.366285-77.504786zM515.095062 549.231473l-27.141523 13.481675-46.859215-1.9005 4.69186 9.383721H484.211929c-3.266485 3.860392-6.354799 8.136518-9.977628 13.00655l-13.065941 17.817192 4.691861 9.383721 26.072491-39.672947 27.200913-13.541066zM537.782286 650.96764c19.717693-14.669488 21.261849-34.446571 10.333972-49.056669s-30.883133-16.985723-48.2252-4.097954-21.677584 33.674493-10.274581 48.997278 31.180086 16.807551 48.165809 4.157345z m-32.130336-45.136887c12.234472-9.086768 28.151164-10.630925 36.822197 1.009641s2.850751 26.369444-10.1558 36.050119c-11.403003 8.492862-27.676038 11.403003-36.881587-0.95025s-2.138063-26.785179 10.21519-36.10951zM573.060327 634.932167l-47.512513 53.451576 7.542612 6.651752 41.038932-11.878128a202.522084 202.522084 0 0 0 24.944069-8.908596c-6.948705 6.592361-12.887769 12.94716-20.252208 21.261849l-19.777084 22.390272 6.47358 5.939064 47.512513-53.451577-6.948705-5.939064-40.979542 11.878128a226.872246 226.872246 0 0 0-25.775538 9.027378c6.354799-6.414189 12.175081-12.650206 20.074036-21.558803l20.192818-22.865396zM636.964656 685.414211l-15.679129 25.95371-40.563808 23.756256 8.967987 5.404549 18.826833-11.878128c5.166986-3.207095 9.205549-5.939064 13.719238-8.908597-0.712688 5.048204-1.009641 10.274581-1.425375 16.332427l-1.425376 22.152708 8.967987 5.404549 0.712688-47.512513 15.738519-26.0131zM710.371487 759.117996c8.849205-22.924787-0.415734-40.504417-17.401457-47.037387s-35.21865 2.078672-42.998824 22.27149c-8.136518 21.143068-0.356344 40.088682 17.460848 46.918606s35.27804-2.375626 42.939433-22.152709z m-51.313513-21.024287c5.463939-14.253754 18.114145-23.756256 31.655211-18.826833s16.510598 20.786724 10.690316 35.634385c-5.107595 13.244113-17.342067 24.409553-31.714602 18.886223s-16.035473-21.083677-10.630925-35.693775zM729.435883 798.672163l6.829924-41.573449c2.613188-15.79791 10.690315-21.32124 20.074036-19.777083 10.452753 1.722329 16.035473 9.680674 13.422285 25.300413l-6.829924 41.573448 9.205549 1.484766 6.770533-41.098323c3.563438-21.618193-6.354799-32.367899-21.618193-34.921697s-26.666398 4.097954-30.229836 25.95371l-6.829923 41.573449zM791.855446 740.291163a6.236017 6.236017 0 0 0 5.939064 6.948705 6.711142 6.711142 0 1 0-5.939064-6.948705zM864.312027 734.352099a45.612012 45.612012 0 0 0-19.064395-1.84111c-20.074036 1.603547-34.149618 15.500957-32.249118 38.841479a35.634384 35.634384 0 0 0 40.207464 34.387181 38.366354 38.366354 0 0 0 16.629379-4.513689l-2.79136-7.305049a33.615102 33.615102 0 0 1-14.134973 4.157345c-16.68877 1.365985-28.626289-8.433471-30.170445-27.082132-1.425375-17.401458 7.720783-29.69532 25.00346-30.823742a36.881588 36.881588 0 0 1 15.204004 1.722328zM938.7285 750.031228c-6.53297-23.756256-24.409553-32.308508-41.989183-27.438476s-27.082132 22.627834-21.32124 43.473949c5.939064 21.855756 23.756256 32.42729 41.929792 27.379085s26.90396-22.984178 21.380631-43.414558zM884.97997 763.631685c-4.038564-14.728879 0-30.111055 14.313145-33.912056s25.656757 6.889314 29.69532 22.509053c3.74161 13.719238 0.534516 29.69532-14.253754 34.030837s-25.656757-7.483221-29.814101-22.627834zM1004.058204 711.308531c4.276126 9.027377 9.383721 19.836474 13.659848 27.676038-5.939064-5.939064-12.94716-12.650206-20.786725-19.598911l-27.497866-24.528335-5.939064 3.325876 5.939064 35.634384c1.781719 10.452753 3.622829 19.955255 5.939064 28.329336-4.394907-7.720783-10.512143-17.817192-16.154254-27.141523l-16.154254-26.072491-7.720784 4.157345 38.247573 60.519062 10.333971-5.58272-5.642111-36.1689c-1.544157-9.146159-3.147704-17.223286-5.048204-24.587725 4.988814 5.463939 10.927878 11.16544 17.817192 17.817192l27.557257 24.409553 10.333972-5.58272-29.695321-64.97336-7.898955 4.276126zM810.088373-36.479023a443.529303 443.529303 0 1 0 429.037986 558.27202 444.063818 444.063818 0 0 0-429.037986-558.27202z m0.593906 880.525635a436.877551 436.877551 0 1 1 422.089282-323.857162A437.649629 437.649629 0 0 1 810.74167 843.987221zM527.745268 460.739419l-6.414189 1.306594c23.102959 111.060498 106.903153 201.21549 213.212399 229.722997s224.021496-7.720783 299.507-92.352446l-4.870033-4.394907c-73.881957 82.790553-188.862237 118.246765-292.914638 90.392554S550.313711 569.424291 527.745268 460.739419zM560.113167 469.23228l-6.354799 1.722329c25.300413 92.76818 99.301151 168.194294 188.446503 192.069331s190.940909-4.394907 259.240145-72.100238l-4.63247-4.69186c-66.695689 66.101783-165.99684 93.777821-252.944737 70.437299S584.819673 559.803007 560.113167 469.23228zM815.195968 141.455336a279.789307 279.789307 0 0 0-194.68252 80.474317l4.63247 4.691861c66.695689-66.101783 165.99684-93.718431 252.944738-70.4373s159.107526 96.866135 184.110985 187.436862l6.354799-1.722329c-25.300413-92.76818-99.301151-168.194294-188.446502-192.069331a249.44069 249.44069 0 0 0-64.91397-8.37408zM814.008155 111.463062a305.08972 305.08972 0 0 0-226.040778 101.97373l4.870033 4.394907c73.881957-82.790553 188.921627-118.246765 292.914639-90.392555s185.892705 116.108702 208.520538 224.734184l6.414189-1.306594c-23.102959-111.060498-106.903153-201.21549-213.212399-229.722997a283.946652 283.946652 0 0 0-73.466222-9.680675zM810.919842-81.022003a488.488018 488.488018 0 1 0 126.20511 16.68877 488.903752 488.903752 0 0 0-126.20511-16.68877z m0.653297 963.256797a477.678921 477.678921 0 0 1-123.710704-16.391817 472.155591 472.155591 0 1 1 123.710704 16.391817zM573.594842 419.878658L582.087704 388.164056l-13.659847-3.68222-5.048205 18.826833-138.558364-37.11915 5.048205-18.826833-13.244113-3.563438-8.492862 31.714602 79.048943 21.202458a181.675969 181.675969 0 0 1-14.847661 16.866942l12.412644 7.42383a178.528265 178.528265 0 0 0 16.866942-18.886224l-3.622829-2.494406z m-65.329704-59.39064l63.429204 16.510598 25.06285-93.480868-13.422285-3.62283-2.910141 10.809097-49.947529-13.362894 10.333972-38.485135-13.659847-3.68222-10.333972 38.485135-50.541435-13.541066 3.088313-11.878128-12.828378-3.444657-25.241022 94.252946 63.369813 16.985724-5.345157 19.836473 13.659847 3.68222zM447.27095 331.445994l5.939064-23.043568 50.541435 13.541066-5.939064 23.043568z m66.339346-45.43384l-6.47358 24.290772-50.541435-13.541066 6.47358-24.290772z m-2.138063 62.597735l5.939064-23.043568 49.947528 13.362894-5.939064 23.043569z m65.745438-45.612011l-6.711142 24.1126-49.947529-13.362894 6.47358-24.290772zM688.515732 367.258551c-7.780174-4.691861-15.679129-9.799456-23.221741-14.372535l15.441567-57.549531c2.197454-8.195908 0.89086-12.234472-3.385267-15.500957s-12.353253-5.939064-25.95371-9.740065a67.348986 67.348986 0 0 1-7.542611 11.284221c9.918237 2.256844 18.52988 4.751251 20.905505 5.404549a3.444657 3.444657 0 0 1 2.969532 4.870032l-14.431925 53.926702-24.350163-15.144614-7.42383 11.878129c7.839565 4.454298 17.817192 10.333971 28.269945 16.391816l-11.878128 44.899324-28.091773-7.542611-3.68222 12.412644 28.091773 7.542611-10.927878 40.682589 13.006551 3.504048 10.927878-40.682589 23.043568 5.939064 3.325876-12.412644-23.043569-5.939064 11.04666-41.098323 21.915146 12.94716z m60.400281-32.189728a53.451576 53.451576 0 0 1 5.345158-11.224831c-31.298868-26.013101-35.634384-30.170445-38.128792-34.268399a46.918606 46.918606 0 0 1-9.561893 10.096409 16.866942 16.866942 0 0 1 3.147704 16.332426l-40.207463 150.080148 13.00655 3.504048 16.68877-62.360172 30.111055 8.077127 3.385266-12.650207-30.111055-8.077127 21.202459-79.227114z m54.045483-6.770533c4.63247 1.247203 3.919782 7.067486-1.365985 29.101414a34.505962 34.505962 0 0 1 13.838019-2.731969c5.58272-25.597366 4.988814-35.634384-8.255299-38.96026l-22.449662-5.939064c-13.838019-3.68222-19.361349 0-23.756256 17.223285L720.052162 479.625642l13.422284 3.622829 18.648662-69.60583a234.414858 234.414858 0 0 1 23.756256 33.674493l12.412644-5.939064a318.808958 318.808958 0 0 0-32.546071-41.573449l18.58927-69.368268c2.019282-7.602002 3.444657-8.789815 8.611643-7.364439zM890.325128 422.432456l-24.468944-15.382176 15.500957-57.965265c2.197454-8.195908 1.128422-11.878128-3.147704-15.441567s-12.353253-5.939064-26.191272-9.799456a54.223655 54.223655 0 0 1-7.36444 11.343613c9.740065 2.197454 18.52988 4.751251 20.905506 5.404548a3.266485 3.266485 0 0 1 2.79136 4.810642l-14.431926 53.926701c-8.849205-5.58272-17.104504-10.809097-24.528334-15.144613l-7.483221 11.878128c7.898955 4.276126 17.817192 10.096409 28.448117 16.629379l-11.878128 44.542981-28.507508-7.661393-3.325876 12.412644 28.507508 7.661393-10.927878 40.682588 13.065941 3.504048 10.927878-40.682589 24.468944 6.532971 3.325875-12.412644-24.468943-6.53297 10.987268-40.920152 23.043569 14.313145z m128.93708-33.615103l3.504048-13.065941-105.299606-28.448117-43.949073 164.036949 100.964088 27.022742 3.504048-13.006551L890.919034 502.015914l8.789815-32.902415 76.435754 20.489771 17.817192-65.983002-76.435754-20.489771 10.452753-39.079041z m-116.168092 68.180455l10.987268-41.098323 63.96372 17.163895-11.046659 41.098323zM1093.500509 472.02364a74.297691 74.297691 0 0 1 3.088313-11.403003c-52.323154-26.072491-58.856125-29.69532-62.241391-33.258758a113.792467 113.792467 0 0 1-7.42383 10.868487c3.979173 1.959891 7.483221 8.255299 11.878128 17.460848a352.483451 352.483451 0 0 1 14.550707 34.862306c-26.072491-11.046659-30.348617-13.481675-33.021196-15.500957a80.830662 80.830662 0 0 1-7.720784 11.284222c3.385267 1.781719 5.939064 7.780174 8.611643 16.035473a313.345019 313.345019 0 0 1 13.89741 66.042392l14.016191-2.494407a365.905736 365.905736 0 0 0-18.351708-71.981456l27.438476 10.809096a225.684434 225.684434 0 0 1 7.305049 24.944069l12.768988-3.444657a457.783056 457.783056 0 0 0-29.220195-75.544895z m-56.242937-72.456581c16.68877 8.31469 42.464308 21.915146 67.527158 35.27804l4.454298-11.046659c-23.756256-13.00655-47.987637-26.191272-66.101782-36.406462z m159.048135 31.417649c11.046659 2.969532 11.878128 8.077127 6.948705 30.229836a38.722698 38.722698 0 0 1 13.362894-1.78172c4.929423-26.428835 2.910141-34.921697-16.74816-40.148072l-49.11606-13.184723c-21.083677-5.642111-28.685679-2.969532-33.555712 15.322786l-24.765897 92.174274c-1.247203-2.494407-2.316235-4.929423-3.444657-7.186268a86.650944 86.650944 0 0 1-12.412644 5.463939A184.823673 184.823673 0 0 1 1098.489323 586.528795h13.125331a238.869156 238.869156 0 0 0-3.088313-21.440021l38.485135 10.333971 2.197453 1.484766 9.977628-3.563438a225.684434 225.684434 0 0 0-10.809097-35.634384l32.902415 8.789814 16.569989-61.766266-78.633208-21.083677 10.393362-38.722698c2.375626-8.849205 5.285767-10.1558 18.52988-6.651751z m-90.570726 120.62239a220.69562 220.69562 0 0 0-9.027378-28.032382l39.079042 10.452753h-0.712688a151.505524 151.505524 0 0 1 8.136518 27.319694z m10.333971-76.316973l27.260304 7.305049-10.274581 38.306963-27.260304-7.305048z m55.708421 56.005374l-27.082132-7.245658 10.274581-38.306963 27.082132 7.245658z"  horiz-adv-x="1648" />

    
    <glyph glyph-name="zuo" unicode="&#59282;" d="M308.31347656 384c0 5.93261719 1.97753906 11.86523438 5.93261719 15.8203125L676.13574219 761.70996094c7.91015625 7.91015625 19.77539063 7.91015625 27.68554687 0l13.84277344-13.84277344c7.91015625-7.91015625 7.91015625-19.77539063 0-27.68554687l-336.18164063-336.18164063 336.18164063-336.18164062c7.91015625-7.91015625 7.91015625-19.77539063 0-27.68554688l-13.84277344-13.84277344c-7.91015625-7.91015625-19.77539063-7.91015625-27.68554687 0L314.24609375 368.1796875c-5.93261719 3.95507813-7.91015625 9.88769531-5.93261719 15.8203125z"  horiz-adv-x="1024" />

    
    <glyph glyph-name="shang" unicode="&#59283;" d="M512 587.68652344c5.9326172 0 11.86523438-1.97753906 15.82031249-5.93261719L889.70996094 219.86425781000003c7.91015625-7.91015625 7.91015625-19.77539063 0-27.68554687l-13.84277344-13.84277344c-7.91015625-7.91015625-19.77539063-7.91015625-27.68554687 0l-336.18164063 336.18164063-336.18164062-336.18164063c-7.91015625-7.91015625-19.77539063-7.91015625-27.68554688 0l-13.84277344 13.84277344c-7.91015625 7.91015625-7.91015625 19.77539063 0 27.68554687L496.17968751 581.75390625c3.95507813 5.93261719 9.88769531 7.91015625 15.82031249 5.93261719z"  horiz-adv-x="1024" />

    
    <glyph glyph-name="you" unicode="&#59284;" d="M715.68652344 384c0-5.9326172-1.97753906-11.86523438-5.93261719-15.82031249L347.86425781 6.290039060000026c-7.91015625-7.91015625-19.77539063-7.91015625-27.68554687 0l-13.84277344 13.84277344c-7.91015625 7.91015625-7.91015625 19.77539063 0 27.68554687l336.18164063 336.18164063-336.18164063 336.18164062c-7.91015625 7.91015625-7.91015625 19.77539063 0 27.68554688l13.84277344 13.84277344c7.91015625 7.91015625 19.77539063 7.91015625 27.68554687 0L709.75390625 399.82031249c5.93261719-3.95507813 7.91015625-9.88769531 5.93261719-15.82031249z"  horiz-adv-x="1024" />

    
    <glyph glyph-name="fanhui" unicode="&#60310;" d="M9.64680994 384c0 5.93261719 1.97753906 11.86523438 5.93261719 15.8203125L377.46907557 761.70996094c7.91015625 7.91015625 19.77539063 7.91015625 27.68554687 0l13.84277344-13.84277344c7.91015625-7.91015625 7.91015625-19.77539063 0-27.68554687l-336.18164063-336.18164063 336.18164063-336.18164062c7.91015625-7.91015625 7.91015625-19.77539063 0-27.68554688l-13.84277344-13.84277344c-7.91015625-7.91015625-19.77539063-7.91015625-27.68554687 0L15.57942713 368.1796875c-5.93261719 3.95507813-7.91015625 9.88769531-5.93261719 15.8203125z"  horiz-adv-x="1024" />

    
    <glyph glyph-name="left" unicode="&#60312;" d="M1078.17447915 342.88378415l-860.47964858 0 0 83.27222405L1078.17447915 426.1560082zM550.78372681 779.5078125a41.63611241 41.63611241 0 0 0 29.422852-71.05896443l-323.9289515-323.92895151L580.2065788 60.59094429000004A41.63611241 41.63611241 0 1 0 521.36087402 1.7452394700000013l-382.77465633 382.77465709 382.77465632 382.77465633a41.63611241 41.63611241 0 0 0 29.42285278 12.21325961z"  horiz-adv-x="1217" />

    
    <glyph glyph-name="bumengongzuojiaojie" unicode="&#59090;" d="M727.569458 165.620958a32.66247 32.66247 0 0 1 32.719348 32.634031 32.66247 32.66247 0 0 1-32.719348 32.619811H287.50062c-29.150223 0-43.753774-35.150904-23.078445-55.641378l114.780782-114.425291c12.797659-12.76922 33.472988-12.76922 46.284868 0 12.797659 12.76922 12.797659 33.373451 0 46.15689l-58.96877 58.655937H727.569458zM287.50062 377.166263a32.66247 32.66247 0 0 1-32.705129-32.619811 32.66247 32.66247 0 0 1 32.705129-32.63403H727.569458c29.164443 0 43.753774 35.150904 23.078445 55.641377l-114.766563 114.425292a32.747788 32.747788 0 0 1-46.284867 0c-12.811879-12.76922-12.811879-33.373451 0-46.142671l58.968769-58.798133H287.50062v0.127976zM128.852306 669.379479H890.668513c51.489248 0 93.223837-41.606612 93.223837-92.939444v-611.344175c0-51.332833-41.734588-92.939444-93.223837-92.939444H128.852306C77.377278-127.843584 35.642689-86.251192 35.642689-34.90414V576.440035a93.223837 93.223837 0 0 0 93.209617 92.925225z m380.972092 29.448836L661.490878 871.795787a71.126545 71.126545 0 0 0 113.884946-9.484487 70.899031 70.899031 0 0 0-42.744181-105.836641l-222.821465-57.646344z m0 0l-222.821465 57.660564a70.899031 70.899031 0 0 0-42.744181 105.836641 71.126545 71.126545 0 0 0 113.899166 9.470267l151.66648-172.967472z"  horiz-adv-x="1024" />

    
    <glyph glyph-name="lizhijiaojiedan" unicode="&#59091;" d="M866.069943 177.722514c-87.1424 0-157.7984-68.432457-157.7984-152.810057C708.271543-59.567543 778.869029-128 866.069943-128 953.285486-128 1024-59.626057 1024 24.912457 1024 109.290057 953.226971 177.737143 866.069943 177.737143z m104.228571-112.874057l-114.176-108.704914c-12.917029-12.346514-19.690057-10.357029-25.424457-4.725029l-67.935086 65.711543c-5.749029 5.558857-5.412571 14.9504 0.804572 20.874972 6.085486 6.026971 15.754971 6.363429 21.562514 0.731428l55.515429-53.76 107.637028 101.668572a16.149943 16.149943 0 0 0 22.293943-0.234058 14.848 14.848 0 0 0-0.292571-21.562514zM342.191543 792.4736h241.956571c25.468343 0 46.972343 23.1424 46.972343 51.8144C631.120457 872.901486 609.674971 896 582.773029 896H342.191543c-26.799543 0-48.245029-23.098514-48.245029-51.712 0-28.613486 21.504-51.829029 48.245029-51.829029zM847.930514 225.28c28.101486 0 54.842514-5.573486 79.140572-15.813486V721.685943c0 70.261029-39.087543 118.901029-121.007543 118.901028H697.051429c1.024-5.632 1.696914-11.381029 1.696914-17.232457 0.058514-43.52-32.592457-86.308571-71.328914-86.308571H292.527543c-40.8576 0-73.508571 42.788571-73.508572 86.308571a102.4 102.4 0 0 0 1.755429 17.232457H110.431086C21.796571 840.586971 0 791.946971 0 721.685943v-695.456914c0-75.439543 31.173486-117.701486 117.130971-117.701486h577.536a188.869486 188.869486 0 0 0-46.299428 123.728457c0 106.613029 89.307429 193.024 199.562971 193.024zM232.725943 576.453486h472.751543c17.466514 0 32.197486-15.696457 33.499428-33.909029 0-16.954514-18.314971-35.108571-35.766857-35.108571H229.141943c-17.5104 0-28.554971 18.154057-28.554972 35.108571 0 16.969143 14.730971 33.909029 32.138972 33.909029z m212.8896-458.927543H229.141943c-17.5104 0-28.554971 18.212571-28.554972 35.167086 0 16.954514 14.730971 33.850514 32.138972 33.850514h215.157028c17.525029 0 32.256-15.594057 33.572572-33.850514 0-16.969143-18.373486-35.167086-35.84-35.167086zM227.152457 309.482057c-17.408 0-34.874514 20.757943-34.874514 37.712457 0 16.896 14.7456 31.290514 32.256 31.290515h472.693028c17.466514 0 32.197486-13.151086 33.572572-31.305143 0-16.939886-12.068571-37.697829-29.535086-37.697829h-474.112z"  horiz-adv-x="1024" />

    
    <glyph glyph-name="lizhishenqing" unicode="&#59092;" d="M841.528889 640h-89.543111V768c0 70.4-57.571556 128-127.928889 128h-255.857778c-70.371556 0-127.928889-57.6-127.928889-128v-128H167.765333C118.727111 640 78.222222 599.466667 78.222222 550.4v-548.266667C78.222222-42.666667 112.341333-78.933333 157.112889-85.333333v-21.333334c0-12.8 8.533333-21.333333 21.333333-21.333333h85.276445c12.8 0 21.319111 8.533333 21.319111 21.333333V-85.333333h426.424889v-21.333334c0-12.8 8.533333-21.333333 21.333333-21.333333h85.276444c12.8 0 21.333333 8.533333 21.333334 21.333333V-85.333333h4.252444c49.038222 0 89.557333 40.533333 89.557334 89.6V550.4c-2.133333 49.066667-42.652444 89.6-91.690667 89.6zM342.613333 64h-32v426.666667h32v-426.666667z m170.567111 0h-31.985777v426.666667h31.985777v-426.666667z m170.567112 0h-31.971556v426.666667h31.971556v-426.666667z m6.4 576H306.360889V768c0 36.266667 27.719111 64 63.971555 64h255.857778c36.238222 0 63.957333-27.733333 63.957334-64v-128z"  horiz-adv-x="1024" />

    
    <glyph glyph-name="lizhiicon_a" unicode="&#59093;" d="M789.333333 665.344a17.429333 17.429333 0 0 1-17.322666 17.344H251.968a17.429333 17.429333 0 0 1-17.28-17.344v-562.688c0-9.493333 7.808-17.301333 17.28-17.301333h537.386667V665.365333zM251.968 42.709333a60.074667 60.074667 0 0 0-59.946667 59.946667V665.365333A60.096 60.096 0 0 0 251.946667 725.333333h520.042666A60.096 60.096 0 0 0 832 665.344v-622.656H251.968z m196.053333 416.469334l128 51.2 128-51.2V682.688h-42.666666v-160.490667l-85.333334 34.133334-85.333333-34.133334V682.666667h-42.666667v-223.509334zM320 298.666667h234.666667a21.333333 21.333333 0 0 1 0 42.666666H320a21.333333 21.333333 0 0 1 0-42.666666z m0-106.666667h234.666667a21.333333 21.333333 0 0 1 0 42.666667H320a21.333333 21.333333 0 0 1 0-42.666667z"  horiz-adv-x="1024" />

    
    <glyph glyph-name="lizhiicon_b" unicode="&#59094;" d="M789.333333 192c0 11.690667-9.642667 21.333333-21.333333 21.333333H256c-11.690667 0-21.333333-9.642667-21.333333-21.333333v-85.333333h554.666666v85.333333z m-400.384 64l24.362667 91.498667A191.68 191.68 0 0 0 320 511.978667a192 192 0 0 0 192 192 192 192 0 0 0 192-192 191.765333 191.765333 0 0 0-88.149333-161.386667L642.133333 256H768c35.264 0 64-28.736 64-64v-128H192v128c0 35.264 28.757333 64 64 64h132.949333z m176.768 115.648l15.296 8A149.226667 149.226667 0 0 1 661.333333 512a149.333333 149.333333 0 1 1-298.666666 0 149.162667 149.162667 0 0 1 84.842666-134.506667l15.914667-7.658666L433.066667 256h164.757333l-32.128 115.648z"  horiz-adv-x="1024" />

    
    <glyph glyph-name="lizhiicon_c" unicode="&#59095;" d="M554.026667 55.381333l298.048 111.402667v410.24l-295.68-117.952a64.234667 64.234667 0 0 0-2.346667-0.853333v-402.837334z m-42.666667 0V458.197333a64.170667 64.170667 0 0 0-2.346667 0.896L213.333333 577.002667v-410.218667l298.026667-111.402667z m33.344-49.045333a21.205333 21.205333 0 0 0-9.493333-3.541333l-2.517334-0.938667-2.496 0.938667a21.205333 21.205333 0 0 0-9.493333 3.541333L170.645333 137.173333V589.909333c0 28.032 18.24 52.778667 45.013334 61.098667l298.048 92.8c12.373333 3.84 25.642667 3.84 38.016-0.021333l298.026666-92.778667a64 64 0 0 0 45.013334-61.098667V137.173333l-350.058667-130.837333zM237.738667 613.205333L524.8 498.730667c5.077333-2.026667 10.730667-2.026667 15.786667 0l287.082666 114.474666-288.64 89.834667a21.418667 21.418667 0 0 1-12.650666 0l-288.64-89.834667z"  horiz-adv-x="1024" />

    
    <glyph glyph-name="lizhiicon_d" unicode="&#59096;" d="M332.501333 682.666667H170.666667a21.333333 21.333333 0 0 1-21.333334-21.333334v-554.666666a21.333333 21.333333 0 0 1 21.333334-21.333334h704V554.666667a21.333333 21.333333 0 0 1-21.333334 21.333333H439.168l-106.666667 106.666667z m124.330667-64H853.333333a64 64 0 0 0 64-64v-512H170.666667a64 64 0 0 0-64 64V661.333333a64 64 0 0 0 64 64h179.498666l106.666667-106.666666zM149.333333 384h725.333334v42.666667H149.333333v-42.666667z"  horiz-adv-x="1024" />

    
    <glyph glyph-name="lizhiicon_e" unicode="&#59097;" d="M426.666667 682.666667a21.333333 21.333333 0 0 1-21.333334 21.333333h-192a21.333333 21.333333 0 0 1-21.333333-21.333333v-192a21.333333 21.333333 0 0 1 21.333333-21.333334h213.333334V682.666667zM213.333333 426.666667a64 64 0 0 0-64 64v192a64 64 0 0 0 64 64h192a64 64 0 0 0 64-64v-256H213.333333z m405.333334 0a64 64 0 0 0-64 64v192a64 64 0 0 0 64 64h192a64 64 0 0 0 64-64v-256H618.666667z m213.333333 256a21.333333 21.333333 0 0 1-21.333333 21.333333h-192a21.333333 21.333333 0 0 1-21.333334-21.333333v-192a21.333333 21.333333 0 0 1 21.333334-21.333334h213.333333V682.666667zM213.333333 21.333333a64 64 0 0 0-64 64v192a64 64 0 0 0 64 64h192a64 64 0 0 0 64-64v-256H213.333333z m213.333334 256a21.333333 21.333333 0 0 1-21.333334 21.333334h-192a21.333333 21.333333 0 0 1-21.333333-21.333334v-192a21.333333 21.333333 0 0 1 21.333333-21.333333h213.333334V277.333333z m192-256a64 64 0 0 0-64 64v192a64 64 0 0 0 64 64h192a64 64 0 0 0 64-64v-256H618.666667z m213.333333 256a21.333333 21.333333 0 0 1-21.333333 21.333334h-192a21.333333 21.333333 0 0 1-21.333334-21.333334v-192a21.333333 21.333333 0 0 1 21.333334-21.333333h213.333333V277.333333z"  horiz-adv-x="1024" />

    
    <glyph glyph-name="fenzu" unicode="&#59040;" d="M363.540687 392.667798c-0.03103-2.34796-0.051717-4.695919-0.051717-7.054222 0-279.25204 226.376404-505.618101 505.618101-505.618101 189.657212 0 354.934949 104.427313 441.457777 258.927192l-21.183353 5.668202c-83.585293-145.43903-240.484848-243.38101-420.274424-243.38101-267.532929 0-484.403717 216.870788-484.403717 484.403717v1.38602l-21.162667 5.668202z m80.885656 267.450182C534.517657 799.195798 691.065535 891.221333 869.107071 891.221333c270.718707 0 491.747556-212.764444 504.987151-480.204282l-21.576404 5.781979c-16.08404 253.000404-226.366061 453.207919-483.410747 453.207919-168.111838 0-316.229818-85.643636-403.083637-215.670949l-21.597091 5.792323zM466.540606 365.071515l14.377374-3.858101c12.58796-203.434667 181.57899-364.533657 388.189091-364.533656 135.209374 0 254.31402 68.990707 324.008081 173.707636l14.387717-3.858101c-71.835152-110.736808-196.566626-183.999354-338.395798-183.999354-215.73301 0-391.871354 169.466828-402.566465 382.541576z m83.419798 266.777859c73.707313 95.397495 189.253818 156.837495 319.146667 156.837495 204.417293 0 373.294545-152.172606 399.535838-349.411556l-14.842828 3.971879c-27.854869 187.474747-189.481374 331.300202-384.69301 331.300202-123.21099 0-233.037576-57.292283-304.303839-146.680242l-14.842828 3.982222zM91.808323 407.22101a7.074909 7.074909 0 0 0-3.475394 13.715394l46.907475 11.905293a169.715071 169.715071 0 0 0 160.168081-42.925253l44.776727-43.597575a155.565253 155.565253 0 0 1 146.825051-39.346425l65.763555 16.694303a7.074909 7.074909 0 1 0 3.475394-13.70505l-65.763555-16.694303a169.715071 169.715071 0 0 0-160.168081 42.925252l-44.776728 43.597576a155.565253 155.565253 0 0 1-146.82505 39.346424l-46.907475-11.915636zM56.454465 272.870141a7.074909 7.074909 0 0 0-3.485738 13.705051l46.907475 11.905293a169.715071 169.715071 0 0 0 160.178424-42.925253l44.766384-43.597575a155.565253 155.565253 0 0 1 146.825051-39.336081l65.773899 16.694303a7.074909 7.074909 0 1 0 3.475394-13.715394l-65.763556-16.694303a169.715071 169.715071 0 0 0-160.178424 42.925252l-44.766384 43.597576a155.565253 155.565253 0 0 1-146.825051 39.346424l-46.907474-11.905293zM14.025697 131.43402a7.074909 7.074909 0 0 0-3.485737 13.705051l46.907474 11.915636a169.715071 169.715071 0 0 0 160.178425-42.925252l44.311272-43.152809a155.565253 155.565253 0 0 1 147.72493-39.108525l92.294464 24.017455a7.074909 7.074909 0 1 0 3.568485-13.684364l-92.294465-24.017454a169.715071 169.715071 0 0 0-161.16105 42.656323l-44.311273 43.163151A155.565253 155.565253 0 0 1 60.922828 143.339313l-46.907474-11.894949z"  horiz-adv-x="1375" />

    
    <glyph glyph-name="-" unicode="&#59402;" d="M1023.2832 384a22.4768 22.4768 0 0 0-5.9392-15.8208L655.36 6.2976a19.0976 19.0976 0 0 0-27.6992 0l-13.824 13.824a19.0976 19.0976 0 0 0 0 27.6992L950.0672 384 613.888 720.1792a19.0976 19.0976 0 0 0 0 27.6992l13.824 13.824a19.0976 19.0976 0 0 0 27.6992 0l361.9328-361.8816a13.2608 13.2608 0 0 0 5.9392-15.8208zM40.96 413.3376m19.5584 0l466.4832 0q19.5584 0 19.5584-19.5584l0-19.6096q0-19.5584-19.5584-19.5584l-466.4832 0q-19.5584 0-19.5584 19.5584l0 19.6096q0 19.5584 19.5584 19.5584ZM264.3968 636.7744m19.5584 0l19.6096 0q19.5584 0 19.5584-19.5584l0-466.4832q0-19.5584-19.5584-19.5584l-19.6096 0q-19.5584 0-19.5584 19.5584l0 466.4832q0 19.5584 19.5584 19.5584Z"  horiz-adv-x="1024" />

    
    <glyph glyph-name="--" unicode="&#59403;" d="M1023.2832 384a22.4768 22.4768 0 0 0-5.9392-15.8208L655.36 6.2976a19.0976 19.0976 0 0 0-27.6992 0l-13.824 13.824a19.0976 19.0976 0 0 0 0 27.6992L950.0672 384 613.888 720.1792a19.0976 19.0976 0 0 0 0 27.6992l13.824 13.824a19.0976 19.0976 0 0 0 27.6992 0l361.9328-361.8816a13.2608 13.2608 0 0 0 5.9392-15.8208zM40.96 413.3376m19.5584 0l466.4832 0q19.5584 0 19.5584-19.5584l0-19.6096q0-19.5584-19.5584-19.5584l-466.4832 0q-19.5584 0-19.5584 19.5584l0 19.6096q0 19.5584 19.5584 19.5584Z"  horiz-adv-x="1024" />

    
    <glyph glyph-name="renyuan--" unicode="&#59044;" d="M517.12 414.72C384 414.72 276.48 522.24 276.48 655.36S384 896 517.12 896s240.64-107.52 240.64-240.64-107.52-240.64-240.64-240.64zM117.76-102.4v256c0 56.32 46.08 102.4 102.4 102.4h593.92c56.32 0 102.4-46.08 102.4-102.4v-256H117.76z"  horiz-adv-x="1024" />

    
    <glyph glyph-name="shenpi-" unicode="&#59045;" d="M229.180952 796.233143v-48.761905c0-48.761905 39.009524-87.771429 87.771429-87.771428h390.095238c48.761905 0 87.771429 39.009524 87.771429 87.771428v48.761905H853.333333c82.895238 0 146.285714-63.390476 146.285715-146.285714v-585.142858c0-82.895238-63.390476-146.285714-146.285715-146.285714H170.666667c-82.895238 0-146.285714 63.390476-146.285715 146.285714v585.142858c0 82.895238 63.390476 146.285714 146.285715 146.285714h58.514285z m482.742858-312.076191l-238.933334-253.561904-131.657143 117.028571c-14.628571 9.752381-39.009524 9.752381-53.638095-4.87619s-9.752381-39.009524 4.876191-53.638096l185.295238-160.914285 287.695238 307.2c14.628571 14.628571 14.628571 39.009524 0 53.638095s-39.009524 9.752381-53.638095-4.876191zM316.952381 854.747429h390.095238c4.87619 0 9.752381-4.87619 9.752381-9.752381v-97.52381c0-4.87619-4.87619-9.752381-9.752381-9.752381H316.952381c-4.87619 0-9.752381 4.87619-9.752381 9.752381v97.52381c0 4.87619 4.87619 9.752381 9.752381 9.752381z"  horiz-adv-x="1024" />

    
    <glyph glyph-name="fafang-" unicode="&#59047;" d="M568.32 476.16L675.84 640l-40.96 25.6-112.64-174.08-112.64 168.96-40.96-25.6 107.52-163.84h-153.6v-51.2h174.08v-112.64H322.56v-51.2h174.08v-138.24h51.2v138.24h174.08v51.2H547.84V424.96h174.08v51.2h-153.6z m373.76-189.44V-76.8c0-15.36-10.24-25.6-25.6-25.6H168.96c-40.96 0-71.68 30.72-71.68 71.68v317.44c0 15.36 10.24 25.6 25.6 25.6 40.96 0 76.8 35.84 76.8 76.8S163.84 460.8 122.88 460.8C107.52 460.8 97.28 471.04 97.28 486.4V803.84C97.28 844.8 128 875.52 168.96 875.52h706.56c40.96 0 71.68-30.72 71.68-71.68V486.4c0-15.36-10.24-25.6-25.6-25.6-40.96 0-76.8-35.84-76.8-76.8s35.84-76.8 76.8-76.8c10.24 0 20.48-10.24 20.48-20.48z"  horiz-adv-x="1024" />

    
    <glyph glyph-name="shenqing-" unicode="&#59048;" d="M797.642105 513.347368l-231.747368 231.747369L695.242105 874.442105l231.747369-231.747368-129.347369-129.347369z m-37.726316-37.726315l-528.168421-528.168421H0v231.747368l528.168421 528.168421 231.747368-231.747368z"  horiz-adv-x="1024" />

    
    <glyph glyph-name="jiezhang-" unicode="&#59049;" d="M1006.3372 811.918188c5.108251-10.216502 5.108251-20.433004 5.108251-35.757757v-791.778909c0-10.216502 0-15.324753-5.108251-25.541255s-5.108251-25.541255-15.324753-35.757757c-10.216502-15.324753-20.433004-25.541255-35.757757-35.757757-5.108251-5.108251-15.324753-10.216502-20.433004-10.216502-10.216502-5.108251-25.541255-5.108251-35.757757-5.108251H112.393271c-10.216502 0-20.433004 0-30.649506 5.108251h-5.108251c-45.974259 15.324753-76.623765 56.190761-76.623765 102.16502v801.995411c0 61.299012 51.08251 107.273271 107.273271 107.273272h791.778909c51.08251 0 91.948518-30.649506 107.273271-76.623766z m-710.046892-689.613888c-15.324753 0-30.649506-15.324753-35.757757-35.757757-5.108251-25.541255 15.324753-45.974259 35.757757-45.974259h439.309588c20.433004 0 35.757757 20.433004 35.757757 45.974259 0 20.433004-20.433004 35.757757-35.757757 35.757757H296.290308z m0 153.247531c-15.324753 0-30.649506-15.324753-35.757757-35.757757-5.108251-25.541255 15.324753-45.974259 35.757757-45.97426h439.309588c20.433004 0 35.757757 20.433004 35.757757 45.97426 0 20.433004-20.433004 35.757757-35.757757 35.757757H296.290308z m352.469321 403.551831l-173.680535-183.897037-97.056769 81.732016c-15.324753 15.324753-40.866008 10.216502-56.190762-5.108251s-15.324753-40.866008 5.108251-56.190761l153.247531-132.814527 229.871296 240.087798c15.324753 15.324753 15.324753 40.866008 0 56.190762s-45.974259 15.324753-61.299012 0z"  horiz-adv-x="1026" />

    
    <glyph glyph-name="jisuan---" unicode="&#59050;" d="M1008.64 814.08C993.28 860.16 952.32 890.88 901.12 890.88H107.52C51.2 890.88 0 844.8 0 783.36v-803.84c0-46.08 30.72-87.04 76.8-102.4h5.12c10.24-5.12 20.48-5.12 30.72-5.12h788.48c10.24 0 25.6 0 35.84 5.12 5.12 0 15.36 5.12 20.48 10.24 15.36 10.24 25.6 20.48 35.84 35.84 10.24 10.24 10.24 25.6 15.36 35.84 5.12 10.24 5.12 15.36 5.12 25.6V778.24c0 15.36 0 25.6-5.12 35.84zM435.2 266.24c0-10.24-5.12-20.48-10.24-25.6l-56.32-56.32L424.96 128c5.12-5.12 10.24-15.36 10.24-25.6s-5.12-20.48-10.24-25.6c-5.12-5.12-15.36-10.24-25.6-10.24s-20.48 5.12-25.6 10.24l-56.32 56.32L261.12 76.8c-5.12-5.12-15.36-10.24-25.6-10.24s-20.48 5.12-25.6 10.24c-15.36 15.36-15.36 40.96 0 56.32l56.32 51.2L209.92 240.64c-15.36 15.36-15.36 40.96 0 56.32 5.12 5.12 20.48 10.24 30.72 10.24 10.24 0 20.48-5.12 25.6-10.24l56.32-56.32 56.32 56.32c5.12 5.12 15.36 10.24 25.6 10.24s20.48-5.12 25.6-10.24c5.12-10.24 10.24-15.36 5.12-30.72z m-25.6 291.84H353.28v-66.56c0-20.48-20.48-40.96-46.08-35.84-20.48 5.12-35.84 20.48-35.84 40.96V552.96H215.04c-20.48 0-40.96 15.36-40.96 35.84 0 25.6 20.48 46.08 40.96 35.84h51.2V680.96c0 20.48 15.36 40.96 35.84 40.96 25.6 5.12 46.08-15.36 46.08-35.84v-51.2h51.2c20.48 0 40.96-15.36 46.08-30.72 5.12-25.6-15.36-46.08-35.84-46.08z m404.48-496.64h-189.44c-20.48 0-40.96 20.48-35.84 46.08 5.12 20.48 20.48 35.84 40.96 35.84h184.32c15.36 0 35.84-15.36 35.84-35.84 5.12-25.6-15.36-46.08-35.84-46.08z m0 163.84h-189.44c-20.48 0-40.96 20.48-35.84 46.08 5.12 20.48 20.48 35.84 40.96 35.84h184.32c15.36 0 35.84-15.36 35.84-35.84 5.12-25.6-15.36-46.08-35.84-46.08z m0 327.68h-189.44c-20.48 0-40.96 20.48-35.84 46.08 5.12 20.48 20.48 35.84 40.96 35.84h184.32c15.36 0 35.84-15.36 35.84-35.84 5.12-25.6-15.36-46.08-35.84-46.08z"  horiz-adv-x="1029" />

    
    <glyph glyph-name="phone1" unicode="&#59435;" d="M375.68 445.184l89.6 89.536a32 32 0 0 1 8.128 31.36L404.096 808.832A32 32 0 0 1 373.376 832H96a32 32 0 0 1-32-32C64 322.816 450.816-64 928-64a32 32 0 0 1 32 32v277.312a32 32 0 0 1-23.232 30.784l-242.624 69.312a32 32 0 0 1-31.424-8.128l-89.472-89.472c-83.456 34.688-163.52 114.24-197.504 197.376zM349.248 768l57.536-201.344-90.688-90.688a32 32 0 0 1-7.808-32.512c37.376-115.008 148.032-224.832 263.04-263.168a32 32 0 0 1 32.64 7.744l90.752 90.688 201.344-57.536v-220.544C479.616 17.024 145.024 351.616 128.64 768h220.544z"  horiz-adv-x="1024" />

    
    <glyph glyph-name="qingkong" unicode="&#59444;" d="M512 443.733333L832 768c17.066667 17.066667 42.666667 17.066667 59.733333 0s17.066667-42.666667 0-59.733333L571.733333 384l320-320c17.066667-17.066667 17.066667-42.666667 0-59.733333s-42.666667-17.066667-59.733333 0L512 324.266667 192 0c-17.066667-17.066667-42.666667-17.066667-59.733333 0s-17.066667 42.666667 0 59.733333l320 320L128 704c-12.8 17.066667-12.8 46.933333 0 64 17.066667 17.066667 42.666667 17.066667 59.733333 0l324.266667-324.266667z"  horiz-adv-x="1024" />

    
    <glyph glyph-name="gongzuojiaojieshenhe" unicode="&#59060;" d="M988.847761 246.447761c-18.340299 4.585075-36.680597 6.113433-56.549254 6.113433-126.853731 0-229.253731-99.343284-229.253731-221.61194 0-55.020896 21.397015-106.985075 56.549254-145.19403H100.871642C45.850746-114.244776 0-69.922388 0-14.901493v810.029851C0 851.677612 44.322388 896 100.871642 896h788.632836c55.020896 0 100.871642-44.322388 100.871641-99.343284l-1.528358-550.208955zM195.629851 726.352239c-18.340299 0-33.623881-18.340299-33.623881-35.152239s12.226866-36.680597 30.567164-36.680597H657.19403c18.340299 0 36.680597 18.340299 36.680597 36.680597-1.528358 18.340299-16.81194 35.152239-35.152239 35.152239H195.629851z m-4.585075-478.37612h195.629851c18.340299 0 36.680597 18.340299 36.680597 36.680597-1.528358 18.340299-16.81194 35.152239-35.152239 35.152239H195.629851c-18.340299 0-33.623881-18.340299-33.623881-35.152239s10.698507-36.680597 29.038806-36.680597z m-1.528358 200.214926h464.620895c18.340299 0 30.567164 21.397015 30.567165 39.737313-1.528358 18.340299-16.81194 32.095522-35.152239 32.095523H186.459701c-18.340299 0-33.623881-15.283582-33.62388-32.095523 0-18.340299 18.340299-39.737313 36.680597-39.737313zM764.179104 32.477612c0 88.644776 73.361194 158.949254 165.062687 158.949254s165.062687-71.832836 165.062687-158.949254c0-88.644776-73.361194-160.477612-165.062687-160.477612S764.179104-56.167164 764.179104 32.477612z m154.36418-71.832836l119.21194 113.098508c3.056716 3.056716 4.585075 7.641791 4.585075 10.698507 0 4.585075-1.528358 7.641791-4.585075 10.698508-6.113433 6.113433-16.81194 6.113433-22.925373 0L901.731343-8.78806l-58.077612 56.549254c-6.113433 6.113433-16.81194 6.113433-22.925373-1.528358-6.113433-6.113433-6.113433-15.283582-1.528358-21.397015l70.304478-68.77612c9.170149-6.113433 15.283582-9.170149 29.038806 4.585075z"  horiz-adv-x="1100" />

    
    <glyph glyph-name="tupianzhanwei-" unicode="&#59061;" d="M463.753084 896c99.096774 0 181.677419-79.277419 181.677419-181.677419S562.849858 535.948387 463.753084 535.948387 282.075665 615.225806 282.075665 714.322581 361.353084 896 463.753084 896z m809.290322-1004.180645H37.636955c-29.729032 0-46.245161 29.729032-33.032258 56.154839l145.341935 350.141935c56.154839 99.096774 198.193548 99.096774 254.348387 0l69.367742-118.916129c29.729032-52.851613 105.703226-49.548387 128.825807 6.606452l221.316129 462.451613c39.63871 82.580645 158.554839 82.580645 198.193548 0l280.774194-700.283871c16.516129-26.425806 0-56.154839-29.729033-56.154839z"  horiz-adv-x="1322" />

    
    <glyph glyph-name="shangchuan-" unicode="&#59062;" d="M512 769.969231L322.953846 573.046154c-15.753846-15.753846-39.384615-15.753846-55.138461 0-15.753846 15.753846-15.753846 39.384615 0 55.138461L527.753846 888.123077c7.876923 7.876923 15.753846 7.876923 23.630769 7.876923 15.753846 0 31.507692-7.876923 39.384616-23.630769l244.184615-244.184616c15.753846-15.753846 15.753846-39.384615 0-55.138461-15.753846-15.753846-39.384615-15.753846-55.138461 0L590.769231 762.092308v-567.138462c0-23.630769-15.753846-39.384615-39.384616-39.384615s-39.384615 15.753846-39.384615 39.384615V769.969231z m519.876923-756.184616V234.338462c0 23.630769 15.753846 39.384615 39.384615 39.384615s39.384615-15.753846 39.384616-39.384615v-259.938462c0-23.630769-15.753846-39.384615-39.384616-39.384615H110.276923c-63.015385 0-110.276923 47.261538-110.276923 110.276923V234.338462c0 23.630769 15.753846 39.384615 39.384615 39.384615s39.384615-15.753846 39.384616-39.384615v-181.169231c0-23.630769 15.753846-39.384615 39.384615-39.384616h913.723077z"  horiz-adv-x="1110" />

    
    <glyph glyph-name="zuzhimoban" unicode="&#58892;" d="M938.666667 896c40.96 0 75.093333-34.133333 78.506666-75.093333v-870.4c0-40.96-34.133333-75.093333-78.506666-75.093334L78.506667-128C34.133333-128 0-93.866667 0-52.906667V694.613333c0 40.96 34.133333 75.093333 78.506667 75.093334v-64.853334c-13.653333 0-10.24 3.413333-10.24-10.24v-744.106666c0-13.653333-3.413333-10.24 10.24-10.24h51.2V820.906667C129.706667 861.866667 163.84 896 204.8 896h733.866667z m0-959.146667c13.653333 0 10.24-3.413333 10.24 10.24V820.906667c0 13.653333 3.413333 10.24-10.24 10.24H204.8c-13.653333 0-10.24 3.413333-10.24-10.24v-870.4c0-13.653333-3.413333-10.24 10.24-10.24h733.866667z m-112.64 337.92c10.24 0 17.066667-10.24 17.066666-23.893333v-13.653333c0-13.653333-6.826667-23.893333-17.066666-23.893334H317.44c-10.24 0-17.066667 10.24-17.066667 23.893334v13.653333c0 13.653333 6.826667 23.893333 17.066667 23.893333h508.586667z m0-133.12c10.24 0 17.066667-10.24 17.066666-23.893333v-13.653333c0-13.653333-6.826667-23.893333-17.066666-23.893334H317.44c-10.24 0-17.066667 10.24-17.066667 23.893334v13.653333c0 13.653333 6.826667 23.893333 17.066667 23.893333h508.586667zM559.786667 657.066667c30.72 0 54.613333-23.893333 54.613333-51.2v-211.626667c0-27.306667-23.893333-51.2-51.2-51.2h-208.213333c-27.306667 0-51.2 23.893333-51.2 51.2V605.866667c-3.413333 27.306667 20.48 51.2 47.786666 51.2h208.213334z m-10.24-252.586667V592.213333h-187.733334v-187.733333h187.733334z m122.88 187.733333c-13.653333 0-23.893333 13.653333-23.893334 30.72 0 20.48 10.24 34.133333 23.893334 34.133334H819.2c13.653333 0 23.893333-13.653333 23.893333-30.72s-10.24-30.72-23.893333-30.72h-146.773333z m0-129.706666c-13.653333 0-23.893333 13.653333-23.893334 30.72s10.24 30.72 23.893334 30.72H819.2c13.653333 0 23.893333-13.653333 23.893333-30.72s-10.24-30.72-23.893333-30.72h-146.773333z m0-126.293334c-13.653333 0-23.893333 13.653333-23.893334 30.72s10.24 30.72 23.893334 30.72H819.2c13.653333 0 23.893333-13.653333 23.893333-30.72s-10.24-30.72-23.893333-30.72h-146.773333z"  horiz-adv-x="1024" />

    
    <glyph glyph-name="zuzhimoban1" unicode="&#58893;" d="M1006.933333 182.613333h-78.506666V384c0 27.306667-20.48 47.786667-47.786667 47.786667h-324.266667V585.386667h78.506667c27.306667 0 47.786667 20.48 47.786667 47.786666V848.213333c0 27.306667-20.48 47.786667-47.786667 47.786667h-218.453333c-27.306667 0-47.786667-20.48-47.786667-47.786667v-218.453333c0-27.306667 20.48-47.786667 47.786667-47.786667h78.506666v-153.6H170.666667c-27.306667 0-47.786667-20.48-47.786667-47.786666V179.2H47.786667c-27.306667 0-47.786667-20.48-47.786667-47.786667v-218.453333c0-20.48 20.48-40.96 47.786667-40.96h218.453333c27.306667 0 47.786667 20.48 47.786667 47.786667v218.453333c0 27.306667-20.48 47.786667-47.786667 47.786667H184.32v184.32h310.613333v-184.32h-78.506666c-27.306667 0-47.786667-20.48-47.786667-47.786667v-218.453333c0-27.306667 20.48-47.786667 47.786667-47.786667h218.453333c27.306667 0 47.786667 20.48 47.786667 47.786667v218.453333c0 27.306667-20.48 47.786667-47.786667 47.786667h-78.506667v184.32h310.613334v-184.32h-78.506667c-27.306667 0-47.786667-20.48-47.786667-47.786667v-218.453333c0-27.306667 20.48-47.786667 47.786667-47.786667h218.453333c27.306667 0 47.786667 20.48 47.786667 47.786667v218.453333c0 23.893333-20.48 44.373333-47.786667 44.373333zM433.493333 834.56h184.32v-184.32h-184.32V834.56zM249.173333 121.173333v-184.32H61.44v184.32h187.733333z m372.053334-187.733333h-184.32v184.32h184.32v-184.32z m372.053333 0h-184.32v184.32h184.32v-184.32z"  horiz-adv-x="1058" />

    
    </font>
</defs>
</svg>
