<?xml version="1.0" encoding="UTF-8"?>
<svg width="40px" height="40px" viewBox="0 0 40 40" version="1.1" xmlns="http://www.w3.org/2000/svg" xmlns:xlink="http://www.w3.org/1999/xlink">
    <!-- BaseSet: Sketch 49.2 (51160) - http://www.bohemiancoding.com/sketch -->
    <title>loading</title>
    <desc>Created with Sketch.</desc>
    <defs></defs>
    <g id="loading" stroke="none" stroke-width="1" fill="none" fill-rule="evenodd" opacity="0.6">
        <path d="M28.1793185,30.0442432 L28.1118185,29.9767432 C28.1113185,29.9767432 28.1113185,29.9767432 28.1113185,29.9767432 L28.1793185,30.0442432 Z M35.6001274,18.3710884 L30.7036692,18.3894993 L30.7413678,18.3894993 C29.2294774,18.395198 28.0086555,19.6256637 28.0143342,21.1375541 L32.8730938,21.1191432 L32.9572582,21.1187048 L32.8730938,21.1191432 C34.3849842,21.1134445 35.6058062,19.8829788 35.6001274,18.3710884 M26.5542774,14.9374445 L30.0357021,11.4292801 L29.976524,11.4888966 C31.0417295,10.4158007 31.0351541,8.68210206 29.9620582,7.61733494 L26.5130719,11.0926226 L26.5393733,11.0658829 C25.4746062,12.1389788 25.4811815,13.872239 26.5542774,14.9374445 M21.1375541,11.5857932 C19.6256637,11.5914719 18.3956363,10.37065 18.3894993,8.8587596 L18.3710884,4 C19.8829788,3.99432124 21.1134445,5.21514316 21.1191431,6.72703357 L21.1191431,6.64286918 L21.1191431,6.72703357 L21.1375541,11.5857932 Z M11.4291048,9.56416234 L11.4887212,9.62334042 L14.9372692,13.045587 C13.8725021,14.1191212 12.1392418,14.1256966 11.0661459,13.0604911 L11.0928856,13.0872308 L7.61759794,9.63824453 C8.68236507,8.56514864 10.4156253,8.55857329 11.4887212,9.62334042 L11.4291048,9.56416234 Z M28.5341568,26.5393295 L28.5074171,26.5125897 L31.9827048,29.9620144 C30.9174993,31.0346719 29.1846774,31.0416856 28.1115815,29.9769185 L24.6625952,26.5542336 C25.7278007,25.4811377 27.461061,25.4745623 28.5341568,26.5393295 Z M21.2105404,30.7414117 L21.2105404,30.703713 L21.2289514,35.5997361 C19.717061,35.60585 18.4870336,34.3850281 18.4808966,32.8726993 L18.4624856,28.0143781 C19.974376,28.0086993 21.2048418,29.2295212 21.2105404,30.7414117 Z M13.0459377,24.662639 C14.1190336,25.7274062 14.1256089,27.4606664 13.0608418,28.5342007 L13.0871431,28.507461 L13.0608418,28.5342007 L9.63815685,31.9827486 C8.56506096,30.9175432 8.55848562,29.1842829 9.62325274,28.111187 L9.56407466,28.1708034 L9.62325274,28.111187 L13.0459377,24.662639 Z M11.5857932,18.4624856 C11.5914719,19.974376 10.3710884,21.2044034 8.85919794,21.2105404 L4,21.2289514 C3.99432123,19.717061 5.21558151,18.4865952 6.72747192,18.4808966 L11.5857932,18.4624856 Z" id="Fill-11" fill="#474D54"></path>
    </g>
</svg>