<?xml version="1.0" encoding="UTF-8"?>
<svg width="72px" height="72px" viewBox="0 0 72 72" version="1.1" xmlns="http://www.w3.org/2000/svg" xmlns:xlink="http://www.w3.org/1999/xlink">
    <!-- Generator: Sketch 55.2 (78181) - https://sketchapp.com -->
    <title>财务会计</title>
    <desc>Created with Sketch.</desc>
    <defs>
        <linearGradient x1="50%" y1="100%" x2="50%" y2="0%" id="linearGradient-1">
            <stop stop-color="#008CF9" offset="0%"></stop>
            <stop stop-color="#00C6FF" offset="100%"></stop>
        </linearGradient>
    </defs>
    <g id="财务会计" stroke="none" stroke-width="1" fill="none" fill-rule="evenodd">
        <g id="编组-6备份" transform="translate(9.000000, 10.000000)">
            <path d="M8,8.64285714 L46,8.64285714 C50.418278,8.64285714 54,12.2245791 54,16.6428571 L54,43.0714286 C54,47.4897066 50.418278,51.0714286 46,51.0714286 L8,51.0714286 C3.581722,51.0714286 4.46530217e-15,47.4897066 0,43.0714286 L0,16.6428571 C-5.41083001e-16,12.2245791 3.581722,8.64285714 8,8.64285714 Z M9.75,0 L44.25,0 C45.9068542,-3.04359188e-16 47.25,1.34314575 47.25,3 C47.25,4.65685425 45.9068542,6 44.25,6 L9.75,6 C8.09314575,6 6.75,4.65685425 6.75,3 C6.75,1.34314575 8.09314575,3.04359188e-16 9.75,0 Z M24.1406832,37.6558216 L24.1406832,40.7340994 C24.181677,41.5825991 24.4532609,42.2140407 24.9554348,42.6284242 C25.4576087,43.0428078 26.1596273,43.2499996 27.0614907,43.2499996 C28.8857143,43.2499996 29.8388199,42.4113662 29.9208075,40.7340994 L29.9208075,37.5966239 L35.823913,37.6262228 C36.3568323,37.5867577 36.7770186,37.3943653 37.084472,37.0490457 C37.3919255,36.703726 37.5661491,36.2745431 37.6071429,35.7614968 C37.5661491,35.268183 37.3919255,34.8439332 37.084472,34.4887473 C36.7770186,34.1335614 36.3568323,33.9362359 35.823913,33.8967708 L29.9208075,33.8967708 L29.9208075,32.0912424 L35.7931677,32.0616436 C36.326087,32.0221785 36.7513975,31.824853 37.0690994,31.4696671 C37.3868012,31.1144812 37.5661491,30.6803651 37.6071429,30.1673188 C37.5661491,29.674005 37.3919255,29.2694877 37.084472,28.9537669 C36.7770186,28.6380461 36.3568323,28.4604532 35.823913,28.4209881 L31.3043478,28.4209881 L36.0698758,20.9620841 C36.4798137,20.4490378 36.6847826,19.9063927 36.6847826,19.3341487 C36.6232919,18.9197651 36.5259317,18.5843118 36.3927019,18.3277886 C36.259472,18.0712655 36.0954969,17.87394 35.9007764,17.7358121 C35.7060559,17.5976843 35.4805901,17.4990215 35.2243789,17.4398239 C34.9681677,17.3806262 34.6863354,17.3411611 34.378882,17.3214286 C33.8869565,17.3806262 33.4462733,17.5384866 33.0568323,17.7950098 C32.6673913,18.0515329 32.3496894,18.3475212 32.1037267,18.6829745 L26.9692547,26.9706456 L22.2959627,18.7421722 C22.05,18.4067188 21.7322981,18.0959312 21.3428571,17.8098092 C20.9534161,17.5236872 20.5127329,17.3608937 20.0208075,17.3214286 C19.1804348,17.4200913 18.6065217,17.6420825 18.2990683,17.9874021 C17.9916149,18.3327218 17.786646,18.7816373 17.6841615,19.3341487 C17.6636646,19.7682648 17.7456522,20.1678489 17.9301242,20.5329011 C18.1145963,20.8979533 18.3093168,21.1988747 18.5142857,21.4356653 L22.6341615,28.4209881 L18.2068323,28.4209881 C17.6534161,28.4604532 17.2281056,28.6380461 16.9309006,28.9537669 C16.6336957,29.2694877 16.4543478,29.674005 16.3928571,30.1673188 C16.4543478,30.6803651 16.6336957,31.1046149 16.9309006,31.4400683 C17.2281056,31.7755216 17.6534161,31.9629808 18.2068323,32.0024459 L24.1406832,32.0320448 L24.1406832,33.8967708 L18.2068323,33.8967708 C17.6534161,33.9362359 17.2281056,34.1138288 16.9309006,34.4295496 C16.6336957,34.7452704 16.4543478,35.1497877 16.3928571,35.6431015 C16.4543478,36.1364152 16.6336957,36.5853307 16.9309006,36.989848 C17.2281056,37.3943653 17.6534161,37.6163565 18.2068323,37.6558216 L24.1406832,37.6558216 Z" id="形状结合" fill="url(#linearGradient-1)"></path>
            <g id="人民币" transform="translate(9.642857, 15.392857)" fill="#000000" fill-rule="nonzero" opacity="0">
                <rect id="矩形" x="0" y="0" width="31.7322926" height="31.7322926"></rect>
            </g>
        </g>
    </g>
</svg>