<?xml version="1.0" encoding="UTF-8"?>
<svg width="72px" height="72px" viewBox="0 0 72 72" version="1.1" xmlns="http://www.w3.org/2000/svg" xmlns:xlink="http://www.w3.org/1999/xlink">
    <!-- Generator: Sketch 55.2 (78181) - https://sketchapp.com -->
    <title>财资管理</title>
    <desc>Created with Sketch.</desc>
    <defs>
        <linearGradient x1="50%" y1="100%" x2="50%" y2="0%" id="linearGradient-1">
            <stop stop-color="#008CF9" offset="0%"></stop>
            <stop stop-color="#00C6FF" offset="100%"></stop>
        </linearGradient>
        <linearGradient x1="50%" y1="100%" x2="50%" y2="0%" id="linearGradient-2">
            <stop stop-color="#008CF9" offset="0%"></stop>
            <stop stop-color="#00C6FF" offset="100%"></stop>
        </linearGradient>
    </defs>
    <g id="财资管理" stroke="none" stroke-width="1" fill="none" fill-rule="evenodd">
        <g id="编组-2" transform="translate(7.000000, 7.000000)">
            <g id="编组" transform="translate(0.000000, 0.000000)">
                <path d="M47.125,25.4745584 C46.5298949,25.4087729 45.9251415,25.375 45.3125,25.375 C36.303355,25.375 29,32.678355 29,41.6875 C29,46.8119198 31.3628963,51.3844556 35.0585815,54.375 L8,54.375 C3.581722,54.375 5.41083001e-16,50.793278 0,46.375 L0,8 C-1.42926142e-15,3.581722 3.581722,8.11624501e-16 8,0 L29.8613126,0 L29.8613126,12.6925998 C29.8613126,12.9687422 30.0851703,13.1925998 30.3613126,13.1925998 L47.125,13.1925998 L47.125,25.4745584 Z M9.75,18.0604839 C8.36928813,18.0604839 7.25,19.179772 7.25,20.5604839 C7.25,21.9411957 8.36928813,23.0604839 9.75,23.0604839 L33.75,23.0604839 C35.1307119,23.0604839 36.25,21.9411957 36.25,20.5604839 C36.25,19.179772 35.1307119,18.0604839 33.75,18.0604839 L9.75,18.0604839 Z M9.75,27.2459677 C8.36928813,27.2459677 7.25,28.3652559 7.25,29.7459677 C7.25,31.1266796 8.36928813,32.2459677 9.75,32.2459677 L26.5,32.2459677 C27.8807119,32.2459677 29,31.1266796 29,29.7459677 C29,28.3652559 27.8807119,27.2459677 26.5,27.2459677 L9.75,27.2459677 Z M9.75,36.4314516 C8.36928813,36.4314516 7.25,37.5507397 7.25,38.9314516 C7.25,40.3121635 8.36928813,41.4314516 9.75,41.4314516 L19.25,41.4314516 C20.6307119,41.4314516 21.75,40.3121635 21.75,38.9314516 C21.75,37.5507397 20.6307119,36.4314516 19.25,36.4314516 L9.75,36.4314516 Z M34.4888082,0.200662648 C34.4888082,0.178935177 34.4958847,0.157798825 34.5089671,0.140451371 C34.5422208,0.0963563464 34.6049244,0.0875677728 34.6490194,0.120821543 L46.2748048,8.88827758 C46.2998611,8.90717352 46.3145936,8.93673597 46.3145936,8.96811869 C46.3145936,9.02334716 46.269822,9.06811869 46.2145936,9.06811869 L34.7888082,9.06811869 C34.6231227,9.06811869 34.4888082,8.93380411 34.4888082,8.76811869 L34.4888082,0.200662648 Z" id="形状结合" fill="url(#linearGradient-1)"></path>
                <path d="M45.3709677,54.2580645 C38.3961458,54.2580645 32.7419355,48.6038542 32.7419355,41.6290323 C32.7419355,34.6542103 38.3961458,29 45.3709677,29 C52.3457897,29 58,34.6542103 58,41.6290323 C58,48.6038542 52.3457897,54.2580645 45.3709677,54.2580645 Z M47.1979531,34.9554219 L47.1979682,34.9554219 C47.0863786,34.9517969 46.9808156,34.980087 46.8859917,35.0390234 C46.7911677,35.0979599 46.7180484,35.1685115 46.5833948,35.40175 L46.0919807,36.2529 C46.0461547,36.3327557 46.0134391,36.396601 45.9901786,36.4504625 C45.5960879,36.4121818 45.1988738,36.4200794 44.8066161,36.4739948 C44.7850021,36.4292411 44.7576182,36.3780682 44.7229089,36.3179536 L44.2362224,35.474975 L44.2314948,35.4668188 C44.0998318,35.2400901 44.0273318,35.1705052 43.9336104,35.1122484 C43.8387865,35.053312 43.7332385,35.025037 43.621649,35.028662 C43.5100594,35.032287 43.4114594,35.0568313 43.1782208,35.1914849 L40.9486948,36.4787073 L40.9405385,36.4834349 C40.7138099,36.6150828 40.644225,36.6875828 40.5859833,36.7813042 C40.5270469,36.8761281 40.4987719,36.981676 40.5023969,37.0932807 C40.5060219,37.2048703 40.530551,37.3034703 40.6652198,37.5367089 L41.1519063,38.3796724 L41.1571927,38.3887953 C41.218425,38.4941771 41.2668641,38.5655292 41.3106057,38.6175479 C41.2309352,38.7327797 41.1559917,38.8512089 41.0859615,38.9725411 C40.9731667,39.167761 40.8733831,39.3702144 40.7872615,39.5785807 C40.7147313,39.5627063 40.619288,39.5545047 40.4736083,39.5545047 L39.5002354,39.5545047 C39.230913,39.5545047 39.1332646,39.5825531 39.0348005,39.6352063 C38.9363516,39.6878594 38.8590786,39.7651323 38.8064255,39.8635813 C38.7537724,39.9620453 38.7257391,40.0597089 38.7257391,40.3290161 L38.7257391,42.9128859 C38.7263885,43.175049 38.7543917,43.2715646 38.8064255,43.3688807 C38.8590786,43.4673297 38.9363516,43.5445875 39.0348005,43.5972557 C39.1332646,43.6499089 39.2309281,43.6779422 39.5002354,43.6779422 L40.4736083,43.6779422 C40.676276,43.6779422 40.7817484,43.6620677 40.8634167,43.6317839 C41.0079178,43.9491493 41.1847183,44.2507897 41.3910203,44.5319318 C41.3599057,44.5756734 41.3256495,44.6296708 41.2860161,44.6979417 L40.794587,45.5490615 C40.6599333,45.7823 40.6353891,45.8809 40.6317641,45.9924896 C40.6281391,46.1040792 40.6564292,46.2096271 40.7153656,46.3044661 C40.7743021,46.3992901 40.8448536,46.4724094 41.0780771,46.607063 L43.3076031,47.8942854 L43.3157745,47.8989677 C43.5431526,48.029513 43.6407557,48.0535135 43.7510161,48.0571083 C43.8626208,48.0607333 43.9681688,48.0324432 44.0629927,47.9735068 C44.1578318,47.9145703 44.2309359,47.8440188 44.3656047,47.6107802 L44.8522911,46.7678167 L44.857638,46.7585125 C44.8981927,46.687825 44.928401,46.6297193 44.9509063,46.5799057 C45.3125681,46.6184603 45.6773239,46.6180805 46.0389047,46.5787729 C46.0599901,46.6219557 46.0863922,46.6710594 46.119425,46.728274 L46.6061115,47.5712526 L46.6108391,47.5794089 C46.7425021,47.8061375 46.8150021,47.8757224 46.9087234,47.9339641 C47.0035474,47.9929005 47.1090953,48.0211755 47.2206849,48.0175505 C47.3322745,48.0139255 47.4308896,47.9893813 47.664113,47.8547276 L49.8936391,46.5675203 L49.9017953,46.5627927 C50.128524,46.4311448 50.1981089,46.3586297 50.2563505,46.2649234 C50.315287,46.1700844 50.3435771,46.0645365 50.339937,45.9529469 C50.336312,45.8413573 50.3117828,45.7427573 50.1771141,45.5095188 L49.6904276,44.6665552 L49.6843557,44.6560578 C49.6541776,44.6041901 49.6271109,44.5605844 49.6021891,44.5235036 L49.6023099,44.5236245 C49.7104429,44.3754201 49.8105754,44.2215408 49.9022786,44.0626453 C50.002002,43.8900429 50.0915561,43.7117617 50.1704833,43.528713 C50.2349932,43.5378661 50.3164198,43.5425484 50.4265745,43.5425484 L51.3999474,43.5425484 C51.6692698,43.5425484 51.7669182,43.5145151 51.8653823,43.4618469 C51.9638464,43.4092089 52.0411042,43.3319359 52.0937573,43.2334719 C52.1464255,43.1350229 52.1744589,43.0373594 52.1744589,42.7680521 L52.1744589,40.1936073 C52.1744589,39.9243 52.1464255,39.8266365 52.0937573,39.7281724 C52.0411042,39.6297234 51.9638464,39.5524505 51.8653823,39.4997974 C51.7669182,39.4471443 51.6692547,39.4190958 51.3999474,39.4190958 L50.4265745,39.4190958 C50.2984458,39.4190958 50.2091651,39.4254547 50.1401542,39.4377797 L50.1403052,39.4377193 C49.9865563,39.0932774 49.7948836,38.7670514 49.5688391,38.4650865 C49.5982922,38.4224172 49.6306755,38.3705646 49.6676958,38.3064172 L50.1543974,37.4634536 C50.289051,37.2302151 50.3135953,37.1316151 50.3172203,37.0200255 C50.3208453,36.9084359 50.2925703,36.802888 50.2336339,36.708049 C50.1746974,36.613225 50.1041307,36.5401057 49.8708922,36.4054521 L47.6332099,35.1135323 C47.4058318,34.9830021 47.3082438,34.9590016 47.1979531,34.9554219 Z M45.4781625,39.118538 C46.7961672,39.118538 47.8646208,40.1869917 47.8646208,41.5049964 C47.8646208,42.823001 46.7961672,43.8914547 45.4781625,43.8914547 C44.1601578,43.8914547 43.0917042,42.823001 43.0917042,41.5049964 C43.0917042,40.1869917 44.1601578,39.118538 45.4781625,39.118538 Z" id="形状结合" fill="url(#linearGradient-2)"></path>
            </g>
        </g>
        <g id="设置" transform="translate(45.000000, 42.000000)" fill="#000000" fill-rule="nonzero" opacity="0">
            <rect id="矩形" x="0" y="0" width="16" height="16"></rect>
        </g>
    </g>
</svg>