<?xml version="1.0" encoding="UTF-8"?>
<svg width="72px" height="72px" viewBox="0 0 72 72" version="1.1" xmlns="http://www.w3.org/2000/svg" xmlns:xlink="http://www.w3.org/1999/xlink">
    <!-- Generator: Sketch 55.2 (78181) - https://sketchapp.com -->
    <title>供应链</title>
    <desc>Created with Sketch.</desc>
    <defs>
        <linearGradient x1="50%" y1="100%" x2="50%" y2="0%" id="linearGradient-1">
            <stop stop-color="#FF6648" offset="0%"></stop>
            <stop stop-color="#FF8C49" offset="100%"></stop>
        </linearGradient>
    </defs>
    <g id="供应链" stroke="none" stroke-width="1" fill="none" fill-rule="evenodd">
        <path d="M62.2957234,33.7517236 C61.6695676,43.985984 55.4932542,52.6746104 46.8200672,56.6881706 C46.3906558,62.6567613 41.4381178,67.2086531 35.6086463,66.9926192 C29.7791749,66.7765854 25.159631,61.8699627 25.1510468,55.8851405 C25.1481413,50.7386964 28.5843214,46.2611954 33.4611288,45.056723 C38.3379362,43.8522505 43.383705,46.2348824 45.6638489,50.8188953 C51.4767813,47.6703434 55.4879871,41.877831 56.472785,35.2098989 C58.4940746,35.1644716 60.4813267,34.6668256 62.2957234,33.7517236 L62.2957234,33.7517236 Z M15.8517059,9.77054229 C19.7927744,9.77236975 23.4229303,11.9667634 25.3344525,15.5027698 C27.2459746,19.0387762 27.1381983,23.3602144 25.0529177,26.791294 C22.967637,30.2223736 19.2328473,32.2234177 15.296845,32.0184507 L15.296845,32.0327621 C15.296845,39.0390008 18.6043113,45.2533403 23.7050009,49.1221962 C22.760525,50.9353468 22.2056117,52.9350531 22.0776159,54.9867009 C14.6164432,50.2130449 9.65214398,41.7168277 9.65214398,32.0327621 C9.65214398,31.3776168 9.67539234,30.7288322 9.71878932,30.0848179 C5.79511731,27.3272348 4.07939468,22.2692681 5.48657591,17.6082121 C6.89375713,12.9471562 11.0957399,9.76979582 15.8517059,9.77054229 Z M36.0002819,5.00003323 C42.040205,5.00003323 47.6058616,7.08476463 52.0493976,10.5926544 C57.0650734,8.4918066 62.8225393,10.5090951 65.5380013,15.3187623 C68.2534632,20.1284295 67.0945383,26.2561463 62.8228695,29.6747904 C58.5512008,33.0934346 52.476202,32.7550736 48.5903494,28.8820777 C44.7044968,25.0090817 44.1989382,18.7886577 47.4059258,14.3088549 C44.0249952,12.0089396 40.0568497,10.785741 36.0002819,10.7930144 C32.8974012,10.7930144 29.9557091,11.4926841 27.3131458,12.7489094 C26.1613675,11.0437985 24.6627794,9.61532332 22.9207563,8.56202187 C26.9016756,6.22086678 31.4117534,4.99263456 36.0002819,5.00003323 Z" id="形状" fill="url(#linearGradient-1)"></path>
    </g>
</svg>