<?xml version="1.0" encoding="UTF-8"?>
<svg width="72px" height="72px" viewBox="0 0 72 72" version="1.1" xmlns="http://www.w3.org/2000/svg" xmlns:xlink="http://www.w3.org/1999/xlink">
    <!-- Generator: Sketch 55.2 (78181) - https://sketchapp.com -->
    <title>集成平台</title>
    <desc>Created with Sketch.</desc>
    <defs>
        <linearGradient x1="50%" y1="-2.48949813e-15%" x2="50%" y2="100%" id="linearGradient-1">
            <stop stop-color="#FFBF73" offset="0%"></stop>
            <stop stop-color="#FF8B21" offset="100%"></stop>
        </linearGradient>
    </defs>
    <g id="集成平台" stroke="none" stroke-width="1" fill="none" fill-rule="evenodd">
        <g id="编组-5" transform="translate(8.000000, 6.000000)" fill="url(#linearGradient-1)">
            <path d="M24.3869158,0.937801005 C26.6584153,-0.212038695 29.3415847,-0.212038695 31.6130842,0.937801005 L54.1704329,12.3563968 C54.3695412,12.457186 54.5292141,12.6216805 54.6240371,12.8236982 C54.8587035,13.3236484 54.6436486,13.9191727 54.1436984,14.1538391 L28.4249011,26.2257178 C28.1557225,26.3520648 27.8442775,26.3520648 27.5750989,26.2257178 L1.85630158,14.1538391 C1.6542838,14.0590161 1.48978935,13.8993432 1.38900013,13.7002349 C1.13956872,13.207485 1.33681729,12.6058282 1.82956714,12.3563968 L24.3869158,0.937801005 Z M-4.54747351e-13,19.0880774 C-4.54322454e-13,18.9313576 0.0368347841,18.7768317 0.107533082,18.6369645 C0.356675828,18.1440687 0.958216978,17.9464677 1.45111285,18.1956105 L25.1217503,30.1603438 C25.4583892,30.3305037 25.6706374,30.6756103 25.6706374,31.0528107 L25.6706374,58.6970389 C25.6706374,58.8566432 25.6324348,59.0139291 25.5592223,59.1557511 C25.3058826,59.6465029 24.7026771,59.8389635 24.2119252,59.5856238 L4.33030243,49.322178 C1.67073169,47.9492338 -4.55709986e-13,45.2065395 -4.54747351e-13,42.2134988 L-4.54747351e-13,19.0880774 Z M30.6911479,29.9882297 L54.5451258,17.8041972 C55.0369661,17.5529771 55.6393356,17.7480384 55.8905557,18.2398787 C55.9624921,18.3807163 56,18.5366072 56,18.6947529 L56,41.4397963 C56,44.3625031 54.4061458,47.0525951 51.842684,48.4564749 L31.6263576,59.5279458 C31.141957,59.7932278 30.5342192,59.615597 30.2689372,59.1311964 C30.188293,58.9839415 30.1460221,58.8187523 30.1460221,58.6508609 L30.1460221,30.8787854 C30.1460221,30.5031034 30.3565822,30.1591177 30.6911479,29.9882297 Z" id="形状结合"></path>
        </g>
    </g>
</svg>