<?xml version="1.0" encoding="UTF-8"?>
<svg width="72px" height="72px" viewBox="0 0 72 72" version="1.1" xmlns="http://www.w3.org/2000/svg" xmlns:xlink="http://www.w3.org/1999/xlink">
    <!-- Generator: Sketch 55.2 (78181) - https://sketchapp.com -->
    <title>基础设置</title>
    <desc>Created with Sketch.</desc>
    <g id="基础设置" stroke="none" stroke-width="1" fill="none" fill-rule="evenodd">
        <g id="编组-2" transform="translate(36.000000, 35.000000) scale(1, -1) translate(-36.000000, -35.000000) translate(11.000000, 10.000000)" stroke="#60759C">
            <path d="M50,23.0769231 L50,42.5925926 C50,46.6835907 46.6835907,50 42.5925926,50 L7.40740741,50 C3.31640926,50 0,46.6835907 0,42.5925926 L0,7.40740741 C0,3.31640926 3.31640926,0 7.40740741,0 L25,0" id="路径" stroke-width="5" stroke-linecap="round"></path>
            <rect id="矩形" stroke-width="4" fill="#D8D8D8" x="11" y="16.9066551" width="12" height="1" rx="0.5"></rect>
            <rect id="矩形备份" stroke-width="4" fill="#D8D8D8" x="11" y="31.9066551" width="28" height="1" rx="0.5"></rect>
        </g>
        <g id="设置备份" transform="translate(36.000000, 38.000000)" fill-rule="nonzero">
            <rect id="矩形" fill="#000000" opacity="0" x="0" y="0" width="29" height="29"></rect>
            <path d="M22.475,18.6437609 C23.3208333,17.2013525 24.7708333,16.4801483 26.2208333,16.6003491 C26.4625,15.7589442 26.5833333,14.7973386 26.5833333,13.835733 C26.5833333,12.9943281 26.4625,12.1529232 26.3416666,11.431719 C24.8916666,11.6721204 23.3208333,10.8307155 22.475,9.38830717 C21.6291667,7.94589879 21.75,6.14288832 22.7166667,5.06108203 C21.3875,3.85907504 19.9375,3.01767018 18.2458333,2.41666667 C17.7625,3.85907504 16.3125,4.82068062 14.5,4.82068062 C12.6875,4.82068062 11.3583333,3.85907504 10.7541667,2.41666667 C9.0625,3.01767015 7.61250001,3.97927575 6.28333335,5.18128271 C7.25000001,6.3832897 7.37083335,8.06609947 6.52500001,9.50850785 C5.67916666,10.9509162 4.10833335,11.6721204 2.65833335,11.431719 C2.53750001,12.2731239 2.41666667,13.1145288 2.41666667,13.9559337 C2.41666667,14.9175393 2.53750001,15.7589442 2.77916667,16.6003491 C4.22916667,16.4801483 5.67916666,17.2013525 6.52500001,18.6437609 C7.25000001,20.0861693 7.25000001,21.6487784 6.40416666,22.8507853 C7.73333332,24.0527923 9.18333332,24.8941972 10.875,25.375 C11.4791667,24.0527923 12.8083333,23.2113874 14.5,23.2113874 C16.1916667,23.2113874 17.5208333,24.0527923 18.125,25.375 C19.8166667,24.8941972 21.2666667,23.9325916 22.5958333,22.8507853 C21.75,21.6487783 21.6291667,20.0861693 22.475,18.6437609 Z M14.5,19.1245637 C11.6,19.1245637 9.30416666,16.8407504 9.30416666,13.9559337 C9.30416666,11.0711169 11.6,8.78730366 14.5,8.78730366 C17.4,8.78730366 19.6958333,11.0711169 19.6958333,13.9559337 C19.6958333,16.8407504 17.4,19.1245637 14.5,19.1245637 Z" id="形状" fill="#60759C"></path>
        </g>
    </g>
</svg>