<?xml version="1.0" encoding="UTF-8"?>
<svg width="72px" height="72px" viewBox="0 0 72 72" version="1.1" xmlns="http://www.w3.org/2000/svg" xmlns:xlink="http://www.w3.org/1999/xlink">
    <!-- Generator: Sketch 55.2 (78181) - https://sketchapp.com -->
    <title>预算报表</title>
    <desc>Created with Sketch.</desc>
    <defs>
        <linearGradient x1="50%" y1="-2.48949813e-15%" x2="50%" y2="100%" id="linearGradient-1">
            <stop stop-color="#FFBF73" offset="0%"></stop>
            <stop stop-color="#FF8B21" offset="100%"></stop>
        </linearGradient>
    </defs>
    <g id="预算报表" stroke="none" stroke-width="1" fill="none" fill-rule="evenodd">
        <g id="Group-2" transform="translate(8.000000, 8.000000)">
            <rect id="Rectangle-5" x="0" y="0" width="56" height="56"></rect>
        </g>
        <g id="编组" transform="translate(9.000000, 8.000000)">
            <path d="M35.3913912,0.93220339 C32.5529475,3.43746551 30.7627119,7.10288713 30.7627119,11.1864407 C30.7627119,18.7374525 36.8840164,24.8587571 44.4350282,24.8587571 C48.5185818,24.8587571 52.1840034,23.0685214 54.6892655,20.2300777 L54.6892655,47.6214689 C54.6892655,52.0397469 51.1075435,55.6214689 46.6892655,55.6214689 L8,55.6214689 C3.581722,55.6214689 -6.19283886e-15,52.0397469 -1.0658141e-14,47.6214689 L-1.0658141e-14,8.93220339 C-1.1199224e-14,4.51392539 3.581722,0.93220339 8,0.93220339 L35.3913912,0.93220339 Z M52.4675141,12.2973164 L45.5886299,19.1619586 C44.9477401,19.6960334 43.9009534,19.6960334 43.2600636,19.1619586 L36.3811794,12.2973164 C35.3557556,11.4214336 36.0820975,9.92602401 37.5347811,9.92602401 L40.1624294,9.92602401 C40.1624294,9.92602401 40.1624294,9.90466102 40.1624294,9.90466102 L40.1624294,3.0210295 C40.1624294,1.84606481 41.1237641,0.884730069 42.2987288,0.884730069 L46.5713277,0.884730069 C47.7462924,0.884730069 48.7076271,1.84606481 48.7076271,3.0210295 L48.7076271,9.90466102 C48.7076271,9.90466102 48.7076271,9.92602401 48.7076271,9.92602401 L51.3139124,9.92602401 C52.766596,9.92602401 53.4929379,11.4214336 52.4675141,12.2973164 Z M40.6421846,34.180791 L40.1167608,34.180791 C38.4599066,34.180791 37.1167608,35.5239367 37.1167608,37.180791 L37.1167608,44.8531073 C37.1167608,46.5099616 38.4599066,47.8531073 40.1167608,47.8531073 L40.6421846,47.8531073 C42.2990388,47.8531073 43.6421846,46.5099616 43.6421846,44.8531073 L43.6421846,37.180791 C43.6421846,35.5239367 42.2990388,34.180791 40.6421846,34.180791 Z M27.9698682,27.3446328 L27.4444444,27.3446328 C25.7875902,27.3446328 24.4444444,28.6877785 24.4444444,30.3446328 L24.4444444,44.8531073 C24.4444444,46.5099616 25.7875902,47.8531073 27.4444444,47.8531073 L27.9698682,47.8531073 C29.6267224,47.8531073 30.9698682,46.5099616 30.9698682,44.8531073 L30.9698682,30.3446328 C30.9698682,28.6877785 29.6267224,27.3446328 27.9698682,27.3446328 Z M15.2975518,18.2297552 L14.7721281,18.2297552 C13.1152738,18.2297552 11.7721281,19.5729009 11.7721281,21.2297552 L11.7721281,44.8531073 C11.7721281,46.5099616 13.1152738,47.8531073 14.7721281,47.8531073 L15.2975518,47.8531073 C16.954406,47.8531073 18.2975518,46.5099616 18.2975518,44.8531073 L18.2975518,21.2297552 C18.2975518,19.5729009 16.954406,18.2297552 15.2975518,18.2297552 Z" id="形状结合" fill="url(#linearGradient-1)"></path>
            <g id="财务Finance-(10)" transform="translate(47.853107, 55.604520) scale(-1, 1) translate(-47.853107, -55.604520) translate(46.853107, 54.604520)"></g>
        </g>
    </g>
</svg>