<?xml version="1.0" encoding="UTF-8"?>
<svg width="72px" height="72px" viewBox="0 0 72 72" version="1.1" xmlns="http://www.w3.org/2000/svg" xmlns:xlink="http://www.w3.org/1999/xlink">
    <!-- Generator: Sketch 55.2 (78181) - https://sketchapp.com -->
    <title>资产管理</title>
    <desc>Created with Sketch.</desc>
    <defs>
        <linearGradient x1="50%" y1="100%" x2="50%" y2="0%" id="linearGradient-1">
            <stop stop-color="#FF6648" offset="0%"></stop>
            <stop stop-color="#FF8C49" offset="100%"></stop>
        </linearGradient>
        <linearGradient x1="50%" y1="100%" x2="50%" y2="0%" id="linearGradient-2">
            <stop stop-color="#FF6648" offset="0%"></stop>
            <stop stop-color="#FF8C49" offset="100%"></stop>
        </linearGradient>
    </defs>
    <g id="资产管理" stroke="none" stroke-width="1" fill="none" fill-rule="evenodd">
        <g id="编组" transform="translate(9.000000, 7.000000)">
            <g id="资产汇总" fill="url(#linearGradient-1)">
                <path d="M29.3230593,43.3903321 C29.1907982,44.0835584 29.1093714,44.7948174 29.0828058,45.5200821 C29.0443359,45.8888149 29.0204702,46.2592007 29.0113298,46.630373 C29.0314026,47.4083664 29.1163301,48.1833303 29.2652293,48.9472058 L23.0129544,48.9472058 C12.4081027,48.3682809 3.78874531,44.2111023 1.15292367,38.6103708 C1.9470898,46.0298945 12.8324517,51.7368542 26.30602,51.7674065 C27.6099363,51.7692901 28.9131028,51.713404 30.2116897,51.5999634 C31.0659131,53.5870902 32.3644676,55.3381146 33.982289,56.7279723 C32.1896132,57.0407045 30.3783128,57.2390014 28.559378,57.3214577 L24.0209246,57.3214577 C11.1355257,56.686709 1.10649606,50.7518086 1.10649606,43.356986 L1.10649606,38.510213 C0.593304198,37.3859853 0.320687911,36.2044564 0.320687911,34.9827341 L0.320687911,29.3652079 C0.320687911,36.5696058 9.65149398,42.3140817 21.9656191,43.2662048 L29.0748047,43.2662048 L29.3230593,43.3903321 Z M47.2907173,32.5843025 C45.982072,32.1823862 44.5921903,31.9660714 43.1517857,31.9660714 C37.9642178,31.9660714 33.4319616,34.7717944 30.9897256,38.9485318 C29.1748653,39.1702926 27.3486689,39.2873255 25.5202118,39.2990253 C11.7779022,39.2990253 0.765011977,33.3958623 0.130263279,25.8106152 L0.130263279,19.5266029 C0.320687911,27.2387998 11.5240027,33.6180244 25.5202118,33.5862869 C39.516421,33.5545494 50.7197358,27.3657495 50.9101605,19.5266029 L50.9101605,25.87409 C50.5944843,28.4976242 49.2947325,30.8923651 47.2907173,32.5843025 Z M50.6879984,34.150853 C50.3286887,33.9227085 49.9583366,33.7103977 49.577924,33.5149022 C50.2942388,32.2512747 50.6776777,30.8231218 50.6879984,29.3652079 L50.6879984,34.150853 Z M26.30602,28.3769163 C12.3732857,28.3769163 0.916071429,21.9976917 0.916071429,14.3172323 C0.916071429,6.63677287 12.1828611,0.289285714 26.30602,0.289285714 C40.4291789,0.289285714 51.6959686,6.44634818 51.6959686,14.3172323 C51.6959686,22.1881164 40.1118046,28.3769163 26.30602,28.3769163 Z" id="形状结合"></path>
            </g>
            <path d="M43.1517857,56.6035714 C37.3202505,56.6035714 32.5928571,51.8761781 32.5928571,46.0446429 C32.5928571,40.2131076 37.3202505,35.4857143 43.1517857,35.4857143 C48.9833209,35.4857143 53.7107143,40.2131076 53.7107143,46.0446429 C53.7107143,51.8761781 48.9833209,56.6035714 43.1517857,56.6035714 Z M49.1646015,44.3135402 C49.4168907,44.0605576 49.4857409,43.677591 49.3373646,43.3525763 C49.1889883,43.0275616 48.8545279,42.8287151 48.4981153,42.8536181 L37.9295492,42.8536181 C37.5789766,42.8428453 37.2572307,43.0468005 37.1173822,43.3684519 C36.9775338,43.6901033 37.0478194,44.064507 37.2948005,44.3135402 L41.3889297,48.820256 L41.3889297,51.803575 L45.0704723,52.9461227 L45.0704723,48.8519935 L49.1646015,44.3135402 Z" id="形状结合" fill="url(#linearGradient-2)"></path>
        </g>
    </g>
</svg>