<!-- Generated by IcoMoon.io -->
<svg version="1.1" xmlns="http://www.w3.org/2000/svg" width="1024" height="1024" viewBox="0 0 1024 1024">
<title></title>
<g id="icomoon-ignore">
</g>
<path d="M512 128c-187.744 0-341.344 153.6-341.344 341.344 0 172.8 130.144 315.744 296.544 337.056l-57.6 40.544c-10.656 6.4-12.8 19.2-4.256 29.856 4.256 6.4 10.656 8.544 17.056 8.544 4.256 0 8.544-2.144 12.8-4.256l115.2-81.056-81.056-115.2c-6.4-10.656-19.2-12.8-29.856-4.256-10.656 6.4-12.8 19.2-4.256 29.856l36.256 51.2c-145.056-21.344-256-145.056-256-294.4 0-164.256 134.4-298.656 298.656-298.656s298.656 134.4 298.656 298.656c0 96-46.944 185.6-123.744 243.2l25.6 34.144c89.6-64 140.8-168.544 140.8-277.344-2.144-185.6-155.744-339.2-343.456-339.2z"></path>
</svg>
