<?xml version="1.0" standalone="no"?>
<!DOCTYPE svg PUBLIC "-//W3C//DTD SVG 1.1//EN" "http://www.w3.org/Graphics/SVG/1.1/DTD/svg11.dtd" >
<!--
2013-9-30: Created.
-->
<svg>
<metadata>
Created by iconfont
</metadata>
<defs>

<font id="iconfont" horiz-adv-x="1024" >
  <font-face
    font-family="iconfont"
    font-weight="500"
    font-stretch="normal"
    units-per-em="1024"
    ascent="896"
    descent="-128"
  />
    <missing-glyph />
    
    <glyph glyph-name="daochu" unicode="&#59284;" d="M1092.266667-128H0V293.888h60.757333v-361.130667h970.752V293.888H1092.266667zM546.133333 896l182.272-301.056H576.853333v-481.962667h-61.44V594.944H363.861333z"  horiz-adv-x="1092" />

    
    <glyph glyph-name="daoru" unicode="&#59285;" d="M1092.266667-128H0V293.888h60.757333v-361.130667h970.752V293.888H1092.266667zM576.853333 896v-481.962667h151.552L546.133333 112.981333 363.861333 414.037333h151.552V896z"  horiz-adv-x="1092" />

    
    <glyph glyph-name="yeqianqiehuan2" unicode="&#59282;" d="M-6.85370388 689.5203706l458.2805559-305.5203706-458.2805559-305.5203706z"  horiz-adv-x="1024" />

    
    <glyph glyph-name="yeqianqiehuan1" unicode="&#59283;" d="M1018.85370389 689.5203706L560.57314799 384l458.2805559-305.5203706z"  horiz-adv-x="1024" />

    
    <glyph glyph-name="shuzhankaiyou" unicode="&#59280;" d="M321.838596-100.99138A94.933639 94.933639 0 0 0 225.209714-123.029546 83.066934 83.066934 0 0 0 170.96192-39.962612v847.621775A89.847908 89.847908 0 0 0 321.838596 872.078418l498.401604-425.506131a77.981203 77.981203 0 0 0 0-120.362292z"  horiz-adv-x="1024" />

    
    <glyph glyph-name="shushouqizuo" unicode="&#59281;" d="M697.808051-100.99138a94.933639 94.933639 0 0 1 96.628882-22.038166 83.066934 83.066934 0 0 1 54.247794 83.066934v847.621775a89.847908 89.847908 0 0 1-150.876676 64.419255L199.406447 446.572287a77.981203 77.981203 0 0 1 0-120.362292z"  horiz-adv-x="1024" />

    
    <glyph glyph-name="gaojichaxun" unicode="&#59279;" d="M625.810286-59.172571V-128H0v68.827429h625.810286z m13.312 674.230857c78.701714 0 149.942857-31.012571 201.581714-81.188572a271.652571 271.652571 0 0 0 15.36-375.954285l-2.340571-2.56 234.349714-232.813715a28.964571 28.964571 0 0 0 0-41.691428 30.427429 30.427429 0 0 0-40.228572-2.048l-1.243428 1.097143-239.323429 234.057142a289.206857 289.206857 0 0 0-168.155428-53.321142 288.329143 288.329143 0 0 0-201.508572 81.188571 272.603429 272.603429 0 0 0-83.529143 196.022857c0 76.580571 31.890286 145.92 83.529143 196.022857a288.329143 288.329143 0 0 0 201.508572 81.188572z m0-58.806857c-62.098286 0-118.345143-24.502857-159.012572-64.073143-40.667429-39.497143-65.828571-94.061714-65.828571-154.331429 0-60.269714 25.161143-114.834286 65.828571-154.331428 40.667429-39.570286 96.914286-64 159.012572-64 62.171429 0 118.418286 24.429714 159.085714 64 40.667429 39.497143 65.828571 94.061714 65.828571 154.331428 0 60.269714-25.161143 114.834286-65.828571 154.331429a227.547429 227.547429 0 0 1-159.085714 64.073143zM237.421714 277.942857v-68.754286H0v68.754286h237.421714z m56.173715 337.188572v-68.900572H0V615.131429h293.595429zM1024 896v-68.827429H0V896h1024z"  horiz-adv-x="1097" />

    
    <glyph glyph-name="queding" unicode="&#59277;" d="M969.5232 896L1024 857.4976 356.0448-128 0 301.056l50.5856 43.7248 300.032-361.472z"  horiz-adv-x="1024" />

    
    <glyph glyph-name="quxiao" unicode="&#59278;" d="M976.896 896l47.104-46.7968L559.0016 384 1024-81.2032 976.896-128 512 336.9984 47.104-128 0-81.2032 464.9984 384 0 849.2032 47.104 896 512 431.0016z"  horiz-adv-x="1024" />

    
    <glyph glyph-name="1-gongjulanxiala" unicode="&#59275;" d="M0 896h1536L768-128z"  horiz-adv-x="1536" />

    
    <glyph glyph-name="chakanhuizonglaiyuanshuju" unicode="&#59274;" d="M1024 896v-1024H0V896h1024z m-68.827429-68.827429H68.827429v-886.345142h886.345142V827.172571z m-408.722285-43.52v-86.162285a314.368 314.368 0 0 0 187.904-89.819429 314.514286 314.514286 0 0 0 90.477714-183.515428l0.438857-3.949715h86.308572v-74.752H825.051429a314.514286 314.514286 0 0 0-91.501715-185.929143 314.368 314.368 0 0 0-183.076571-88.502857l-3.949714-0.512v-86.162285h-68.900572v86.162285a314.368 314.368 0 0 0-187.026286 89.014857 314.514286 314.514286 0 0 0-91.062857 181.979429l-0.438857 3.949714H112.347429V420.205714h86.308571A314.441143 314.441143 0 0 0 289.645714 607.670857 314.441143 314.441143 0 0 0 473.6 697.051429l3.949714 0.438857V783.652571h68.900572z m0-155.501714V490.057143h-68.900572V628.150857l-3.584-0.512a245.833143 245.833143 0 0 1-135.68-68.754286c-36.864-36.571429-62.171429-84.845714-70.217143-138.678857H405.942857v-74.752H268.434286l0.658285-3.657143c8.923429-51.931429 34.084571-98.157714 70.070858-133.558857a245.76 245.76 0 0 1 138.386285-68.388571V277.942857h68.900572v-138.093714l3.657143 0.585143a245.76 245.76 0 0 1 134.729142 67.803428 245.906286 245.906286 0 0 1 70.656 137.216H618.057143V420.205714h137.874286l-0.512 3.657143a245.906286 245.906286 0 0 1-69.632 135.094857 245.76 245.76 0 0 1-139.264 69.193143z"  horiz-adv-x="1024" />

    
    <glyph glyph-name="shouqi" unicode="&#59273;" d="M1024 896v-1024H0V896h1024z m-68.8-68.8H68.8v-886.4h886.4V827.2zM512 373.696l-61.76-271.936-79.616 80.896-195.968-192.96L128 37.12l195.968 192.96-79.616 80.896L512 373.696zM528.512 384l61.824 271.936 79.616-80.896L865.856 768l46.72-47.36-195.968-193.024 79.616-80.832L528.512 384z"  horiz-adv-x="1024" />

    
    <glyph glyph-name="quanbuzhongshen" unicode="&#59269;" d="M1024 896v-1024H0V896h1024z m-68.827429-68.827429H68.827429v-886.345142h886.345142V827.172571zM443.318857 603.428571L614.4 164.571429h-69.997714l-47.835429 130.486857H330.166857L285.110857 164.571429H219.428571l160.402286 438.857142h63.488z m259.803429 0v-438.857142h-57.782857V603.428571h57.782857zM804.571429 603.428571v-438.857142h-57.782858V603.428571H804.571429z m-396.653715-65.097142a579.291429 579.291429 0 0 0-19.236571-67.876572l-43.154286-120.905143h128.219429l-42.057143 113.810286v3.364571l-1.243429 3.437715c-9.362286 26.331429-16.822857 49.005714-22.528 68.169143z"  horiz-adv-x="1024" />

    
    <glyph glyph-name="zidongxiangqing" unicode="&#59270;" d="M1024 896v-1024l-511.049143 226.742857L0-128V896h1024z m-68.827429-68.608H68.827429v-827.099429l444.708571 168.521143 441.636571-168.521143V827.392z m-155.940571-491.373714v-68.608H224.768v68.608h574.464z m0 168.009143v-68.608H224.768V503.954286h574.464z m0 168.009142V603.428571H224.768v68.608h574.464z"  horiz-adv-x="1024" />

    
    <glyph glyph-name="zhuanzhi" unicode="&#59271;" d="M512.000366 895.999269c141.385042 0 269.38495-57.343959 362.056884-149.94275A510.390493 510.390493 0 0 0 1024 383.999634a510.390493 510.390493 0 0 0-149.94275-362.056884A510.390493 510.390493 0 0 0 512.000366-128a510.390493 510.390493 0 0 0-362.056885 149.94275A510.390493 510.390493 0 0 0 0.000731 383.999634c0 141.385042 57.343959 269.38495 149.94275 362.056885A510.390493 510.390493 0 0 0 512.000366 895.999269z m0-68.82738a441.782542 441.782542 0 0 1-313.343776-129.828479A441.782542 441.782542 0 0 1 68.754968 383.999634a441.782542 441.782542 0 0 1 129.828479-313.343776A441.782542 441.782542 0 0 1 512.000366-59.245763a441.782542 441.782542 0 0 1 313.343776 129.828478A441.782542 441.782542 0 0 1 955.245763 383.999634a441.782542 441.782542 0 0 1-129.828478 313.343776A441.782542 441.782542 0 0 1 512.000366 827.245032z m105.252496-206.628424l186.294724-124.196482L617.252862 372.296786v87.039937H348.59934v-209.40785h196.607859v-68.022809H280.942245V528.968674h336.310617V620.543465z"  horiz-adv-x="1024" />

    
    <glyph glyph-name="zhongshen" unicode="&#59272;" d="M1024 896v-1024H0V896h1024z m-68.827429-68.827429H68.827429v-886.345142h886.345142V827.172571zM682.642286 497.810286c35.913143 0 69.632-14.262857 94.500571-39.131429 24.868571-24.868571 39.131429-58.587429 39.131429-94.500571a133.12 133.12 0 0 0-74.898286-119.954286h0.146286v-36.790857l168.667428-20.626286v-144.091428H455.094857v144.091428l168.667429 20.553143V244.297143l-1.828572 0.877714a133.705143 133.705143 0 0 0-30.72 21.577143l-1.609143 1.609143-1.462857 1.389714a133.12 133.12 0 0 0-39.058285 94.427429c0 35.913143 14.262857 69.558857 39.131428 94.500571 24.868571 24.868571 58.514286 39.131429 94.427429 39.131429zM669.257143 231.277714v-68.169143h-32.329143l-136.338286-16.603428v-58.368h364.105143v58.368l-135.826286 16.603428h-32.841142v68.169143l-2.633143-0.219428a134.948571 134.948571 0 0 0-10.752-0.438857l-5.924572 0.146285-5.851428 0.365715-1.609143 0.146285z m-383.707429-74.825143v-65.536h-156.525714v65.536h156.525714z m397.165715 299.373715c-24.722286 0-47.762286-9.728-64.877715-26.843429-17.042286-17.042286-26.843429-40.155429-26.843428-64.804571 0-24.649143 9.801143-47.689143 26.843428-64.804572 17.115429-17.115429 40.228571-26.843429 64.804572-26.843428 24.649143 0 47.762286 9.728 64.804571 26.843428a91.355429 91.355429 0 0 1 0 129.609143 91.355429 91.355429 0 0 1-64.804571 26.843429z m-270.262858-43.52v-65.536H128v65.536h284.452571z m291.547429 258.925714v-65.462857H128v65.462857h576z"  horiz-adv-x="1024" />

    
    <glyph glyph-name="yeqian-shezhi" unicode="&#59264;" d="M512 896l438.857143-256v-512L512-128l-438.857143 256v512L512 896z m0-80.676571L142.262857 599.625143v-431.177143L512-47.323429l369.664 215.771429V599.625143L512 815.323429z m0-219.501715c57.929143 0 110.299429-23.698286 148.260571-62.025143 37.888-38.326857 61.44-91.282286 61.44-149.796571s-23.552-111.469714-61.44-149.796571a207.945143 207.945143 0 0 0-296.521142 0A212.260571 212.260571 0 0 0 302.299429 384c0 58.514286 23.552 111.469714 61.44 149.796571A207.945143 207.945143 0 0 0 512 595.821714z m0-69.924571c-38.765714 0-73.874286-15.872-99.328-41.545143A142.189714 142.189714 0 0 1 371.565714 384c0-39.204571 15.725714-74.605714 41.106286-100.352a139.264 139.264 0 0 1 198.656 0c25.380571 25.673143 41.106286 61.147429 41.106286 100.352 0 39.204571-15.725714 74.605714-41.106286 100.352A139.264 139.264 0 0 1 512 525.897143z"  horiz-adv-x="1024" />

    
    <glyph glyph-name="yeqian-liebiao" unicode="&#59265;" d="M1024 896v-1024H0V896h1024z m-68.827429-68.827429H68.827429v-886.345142h886.345142V827.172571z m-251.172571-673.865142v-65.536H128v65.536h576z m192 0v-65.536H768v65.536h128z m-192 258.925714v-65.462857H128v65.536h576z m192 0v-65.462857H768v65.536h128zM704 671.305143v-65.462857H128v65.462857h576z m192 0v-65.462857H768v65.462857h128z"  horiz-adv-x="1024" />

    
    <glyph glyph-name="yeqian-shuaxin" unicode="&#59266;" d="M423.638309 822.125714A455.168 455.168 0 0 0 705.677166 743.862857a438.052571 438.052571 0 0 0 182.930285-273.261714l4.242286-20.918857 69.12 118.491428a33.133714 33.133714 0 0 0 20.187429 15.140572 34.230857 34.230857 0 0 0 25.453714-3.218286 32.182857 32.182857 0 0 0 15.36-19.382857c2.048-7.314286 1.462857-15.286857-2.194286-22.454857l-125.805714-215.259429-219.428571 124.123429a32.182857 32.182857 0 0 0-13.897143 19.236571 31.158857 31.158857 0 0 0 3.437714 23.405714 34.230857 34.230857 0 0 0 42.422857 13.458286v0.073143l118.857143-68.461714a373.686857 373.686857 0 0 1-163.401143 256.731428 386.852571 386.852571 0 0 1-239.469714 64.073143 385.097143 385.097143 0 0 1-229.010286-93.988571A371.858286 371.858286 0 0 1 72.772023 449.097143a367.177143 367.177143 0 0 1 37.595428-241.005714c38.546286-71.972571 100.937143-131.657143 180.736-167.058286a388.169143 388.169143 0 0 1 247.149715-22.674286 382.317714 382.317714 0 0 1 202.605714 123.318857l-1.024-1.170285 53.028571-38.034286a449.170286 449.170286 0 0 0-232.448-143.506286l-4.534857-1.097143c-95.085714-22.893714-197.705143-15.36-291.986285 26.331429a443.904 443.904 0 0 0-212.845715 196.900571 429.714286 429.714286 0 0 0-43.300571 283.209143 435.931429 435.931429 0 0 0 144.603428 249.124572A453.193143 453.193143 0 0 0 423.638309 822.125714z"  horiz-adv-x="1024" />

    
    <glyph glyph-name="yeqian-FX" unicode="&#59267;" d="M294.180571 896C322.852571 896 354.011429 893.074286 387.657143 887.222857l-12.288-73.216-4.169143 0.585143a410.843429 410.843429 0 0 1-47.030857 3.510857h-5.632c-45.641143 0-76.8-11.556571-95.451429-31.305143-17.993143-19.017143-29.037714-53.979429-29.037714-107.008v-89.965714h143.725714v-59.977143H194.048V-128H110.445714V529.92H0v59.977143h110.445714V694.784c0.219429 45.714286 3.949714 79.945143 11.995429 102.546286 10.605714 29.257143 29.257143 53.028571 55.954286 71.168C205.970286 887.369143 244.736 896 294.180571 896z m242.907429-306.102857l107.154286-168.228572 2.706285-4.388571c19.894857-31.524571 35.913143-58.148571 48.201143-79.725714 5.12-8.923429 10.532571-18.870857 16.384-29.769143a3242.057143 3242.057143 0 0 0 74.313143 111.616l118.272 170.422857h99.474286l-240.347429-336.457143L1024-128h-104.155429l-145.334857 226.157714-57.270857 90.258286L512.219429-128H410.038857l255.780572 373.906286-235.52 343.990857h106.788571z"  horiz-adv-x="1024" />

    
    <glyph glyph-name="yeqian-zhankai" unicode="&#59268;" d="M1024 896v-1024H0V896h1024z m-68.827429-68.827429H68.827429v-886.345142h886.345142V827.172571z m-147.017142-151.04l-51.565715-223.232-66.413714 66.413715-310.418286-310.491429 66.413715-66.340571-223.232-51.492572 51.492571 223.158857 66.413714-66.413714 310.418286 310.491429-66.340571 66.340571 223.158857 51.565714z"  horiz-adv-x="1024" />

    
    <glyph glyph-name="tree-quanbuzhankai" unicode="&#59261;" d="M1187.84 896v-773.585455H1303.272727L1137.570909-128l-165.701818 250.414545h108.916364V896zM901.12 8.843636v-99.607272H0V8.843636z m0 443.112728v-99.607273H0V452.887273z m0 443.112727v-98.676364H0V896z"  horiz-adv-x="1303" />

    
    <glyph glyph-name="tree-shuaxin" unicode="&#59262;" d="M494.659323 895.155896a532.041066 532.041066 0 0 0 329.115147-91.2314 511.577948 511.577948 0 0 0 214.862738-323.146738L1108.552861 598.440686a45.189385 45.189385 0 0 0 28.136787 20.463118 46.894645 46.894645 0 0 0 34.957827-4.263149 44.336756 44.336756 0 0 0 22.168377-26.431528 42.631496 42.631496 0 0 0 0-33.252566l-147.504975-255.788974-255.788974 146.652345a44.336756 44.336756 0 0 0-19.610488 26.431527 42.631496 42.631496 0 0 0-3.410519 36.663086 45.189385 45.189385 0 0 0 27.284157 20.463118 46.894645 46.894645 0 0 0 34.105196 0l121.073448-69.915652A426.314957 426.314957 0 0 1 767.500896 730.598323a439.104406 439.104406 0 0 1-530.335807-34.105196 419.493918 419.493918 0 0 1-138.126046-239.589006 414.378138 414.378138 0 0 1 42.631496-271.988943 426.314957 426.314957 0 0 1 204.631179-188.431211 439.957035 439.957035 0 0 1 279.662612-25.578897 432.283366 432.283366 0 0 1 232.767966 143.241825l73.326173-52.010424a524.367397 524.367397 0 0 0-282.220501-170.525983 534.598956 534.598956 0 0 0-341.051966 30.694677A518.398988 518.398988 0 0 0 59.818067 147.399462 500.493759 500.493759 0 0 0 8.660272 477.367239a511.577948 511.577948 0 0 0 170.525983 290.7468A529.483176 529.483176 0 0 0 494.659323 895.155896z"  horiz-adv-x="1198" />

    
    <glyph glyph-name="tree-quanbushouqi" unicode="&#59263;" d="M1088.232727-128V645.585455h-116.363636L1137.570909 896 1303.272727 645.585455h-108.916363V-128z m-186.181818 136.843636v-99.607272H0V8.843636z m0 443.112728v-99.607273H0V452.887273z m0 443.112727v-98.676364H0V896z"  horiz-adv-x="1303" />

    
    <glyph glyph-name="yeqianguanbi" unicode="&#59200;" d="M513.408589 483.812035L129.326589 869.593513a73.077549 73.077549 0 1 1-101.968672-103.668151L411.439917 381.84336299999995 25.658439-3.938115000000039a73.077549 73.077549 0 0 1 101.968673-103.66815L513.408589 278.175212l384.082-385.781477a73.077549 73.077549 0 0 1 101.968673 103.66815L615.377262 381.84336299999995 1001.158739 765.925362a73.077549 73.077549 0 1 1-101.968672 103.668151z"  horiz-adv-x="1032" />

    
    <glyph glyph-name="charu1" unicode="&#59237;" d="M550.985143 896v-726.162286h140.726857L512-128 332.288 169.837714h141.165714V896h77.531429zM1024 672.548571v-794.624h-68.827429V672.548571H1024z m-955.172571 0v-794.624H0V672.548571h68.827429z"  horiz-adv-x="1024" />

    
    <glyph glyph-name="baocunquanbu" unicode="&#59238;" d="M1024-128H0V896h1024v-1024z m-67.510857 67.510857V828.489143H67.510857v-888.978286h888.978286zM855.332571 490.788571H168.374857V839.68h67.510857v-281.380571h551.936V839.68h67.510857zM714.605714 783.506286V603.428571h-67.584V783.506286zM259.145143 84.114286l20.626286 56.905143h94.939428l20.626286-56.832h39.643428L348.306286 310.857143h-42.203429L219.428571 84.114286h39.716572zM363.52 171.52h-72.704l35.84 99.474286h1.316571l35.547429-99.474286z m253.074286-87.259429v31.744H494.006857V310.857143H457.142857v-226.742857h159.451429z m187.904 0v31.744H681.984V310.857143h-36.790857v-226.742857H804.571429z"  horiz-adv-x="1024" />

    
    <glyph glyph-name="biaoneishenhe" unicode="&#59239;" d="M1024 896v-1024H0V896h1024z m-68.827429-68.754286H68.827429V-59.245714h886.345142V827.172571zM804.571429 91.428571v-68.827428H219.428571V91.428571h585.142858zM512 749.714286c46.153143 0 89.453714-18.285714 121.417143-50.322286 32.036571-31.963429 50.322286-75.337143 50.322286-121.417143a171.227429 171.227429 0 0 0-96.256-154.331428l0.219428 0.146285v-47.396571L804.571429 349.915429V164.571429H219.428571V349.915429l216.868572 26.404571v47.469714l-2.340572 1.170286a171.885714 171.885714 0 0 0-39.497142 27.794286l-2.048 1.974857-1.828572 1.755428a171.227429 171.227429 0 0 0-50.322286 121.417143c0 46.226286 18.285714 89.526857 50.322286 121.490286A171.227429 171.227429 0 0 0 512 749.714286z m17.188571-342.674286l-3.364571-0.292571A173.421714 173.421714 0 0 0 512 406.235429l-7.68 0.146285-7.606857 0.512-1.974857 0.146286v-87.552h-41.618286L277.942857 298.130286V223.085714h468.114286V298.130286l-174.665143 21.357714h-42.203429V407.04zM512 695.808c-31.670857 0-61.366857-12.580571-83.382857-34.523429-21.942857-21.942857-34.450286-51.638857-34.450286-83.382857 0-31.597714 12.507429-61.293714 34.523429-83.309714 21.942857-21.942857 51.638857-34.450286 83.309714-34.450286 31.670857 0 61.366857 12.507429 83.382857 34.450286 21.942857 21.942857 34.450286 51.712 34.450286 83.382857 0 31.670857-12.507429 61.366857-34.523429 83.382857-21.942857 21.942857-51.638857 34.450286-83.309714 34.450286z"  horiz-adv-x="1024" />

    
    <glyph glyph-name="baocun1" unicode="&#59241;" d="M1024-128H0V896h1024v-1024z m-67.510857 67.510857V828.489143H67.510857v-888.978286h888.978286zM855.332571 490.788571H168.374857V839.68h67.510857v-281.380571h551.936V839.68h67.510857zM170.130286 250.733714h686.957714v-348.964571h-67.510857V183.222857H237.714286v-281.453714h-67.510857zM714.605714 783.506286V603.428571h-67.584V783.506286z"  horiz-adv-x="1024" />

    
    <glyph glyph-name="fuzhi1" unicode="&#59242;" d="M1024-128H170.642286V782.189714H1024V-128z m-67.364571 67.437714v775.314286H238.006857v-775.314286h718.628572zM179.492571 53.248v-67.437714H0V896h853.357714v-123.684571h-67.437714V828.562286H67.364571v-775.314286z"  horiz-adv-x="1024" />

    
    <glyph glyph-name="fuzhicharu" unicode="&#59243;" d="M601.526857 530.285714v-309.174857H658.285714L585.142857 91.42857100000003 512 221.110857h56.905143V530.285714zM1024-128H170.642286V782.189714H1024V-128z m-67.364571 67.437714v775.314286H238.006857v-775.314286h718.628572zM179.492571 53.24800000000005v-67.437714H0V896h853.357714v-123.684571h-67.437714V828.562286H67.364571v-775.314286z"  horiz-adv-x="1024" />

    
    <glyph glyph-name="dayin" unicode="&#59245;" d="M794.697143 646.436571H223.817143V896h570.806857v-249.563429z m-67.218286 67.510858V828.489143H291.108571V713.874286h436.443429zM794.697143-128H223.817143V359.862857h570.806857V-128z m-503.661714 67.510857h436.443428V292.352H291.108571v-352.841143zM290.889143 171.227429H0V715.702857h1018.514286v-544.475428h-235.081143v67.510857h167.936V648.192H67.145143v-409.453714h223.817143zM335.798857 141.750857V209.188571h346.916572v-67.510857zM335.798857 22.601143v67.510857h346.916572v-67.510857z"  horiz-adv-x="1024" />

    
    <glyph glyph-name="chazhao" unicode="&#59246;" d="M1024 896v-1024H0V896h1024z m-68.827429-68.827429H68.827429v-886.345142h886.345142V827.172571zM483.913143 671.232c71.533714 0 136.338286-28.964571 183.222857-75.849143a258.340571 258.340571 0 0 0 75.922286-183.296c0-57.929143-19.017143-111.323429-51.053715-154.477714l-2.194285-2.852572 150.674285-150.674285a34.304 34.304 0 0 0-24.283428-58.733715 34.304 34.304 0 0 0-23.04 8.923429l-1.316572 1.170286-150.674285 150.674285a258.048 258.048 0 0 0-157.257143-53.174857A258.340571 258.340571 0 0 0 300.617143 228.864a258.340571 258.340571 0 0 0-75.849143 183.222857c0 71.606857 28.964571 136.338286 75.849143 183.296a258.340571 258.340571 0 0 0 183.296 75.849143z m0-68.754286c-52.589714 0-100.205714-21.357714-134.582857-55.808a189.732571 189.732571 0 0 1-55.734857-134.582857c0-52.516571 21.284571-100.132571 55.734857-134.582857 34.377143-34.377143 81.993143-55.734857 134.582857-55.734857 52.516571 0 100.132571 21.284571 134.582857 55.734857 34.377143 34.450286 55.734857 82.066286 55.734857 134.582857 0 52.589714-21.284571 100.205714-55.734857 134.582857a189.732571 189.732571 0 0 1-134.582857 55.734857z"  horiz-adv-x="1024" />

    
    <glyph glyph-name="chexiao1" unicode="&#59247;" d="M416.581818 896v-555.008L0 618.496zM410.437818 659.549091h353.466182c107.613091 0.651636 191.488-30.254545 250.507636-90.763636 59.112727-60.509091 93.556364-150.807273 101.748364-269.591273l0.093091-380.648727h-81.733818V295.098182c-6.888727 96.628364-31.930182 167.749818-76.706909 214.388363-44.683636 46.545455-108.916364 68.608-193.629091 67.956364h-353.745455V659.549091z"  horiz-adv-x="1117" />

    
    <glyph glyph-name="huifu1" unicode="&#59248;" d="M700.509091 896v-555.008L1117.090909 618.496zM706.653091 659.549091H353.186909c-107.613091 0.651636-191.488-30.254545-250.507636-90.763636C43.566545 508.276364 9.122909 417.978182 0.930909 299.194182L0.837818-81.454545h81.733818V295.098182c6.888727 96.628364 31.930182 167.749818 76.706909 214.388363 44.683636 46.545455 108.916364 68.608 193.629091 67.956364h353.745455V659.549091z"  horiz-adv-x="1117" />

    
    <glyph glyph-name="renwushangbao" unicode="&#59249;" d="M1024 896v-1024H0V896h1024z m-68.827429-68.754286H68.827429V-59.245714h886.345142V827.172571z m-99.766857-717.824v-68.827428h-686.811428v68.754285h686.811428z m0 112.347429v-68.827429h-686.811428v68.754286h686.811428zM512 733.037714l123.757714-197.997714H542.427429v-200.923429h313.051428v-68.754285H168.521143v68.754285H481.28V535.04H388.242286L512 733.037714z"  horiz-adv-x="1024" />

    
    <glyph glyph-name="jisuan" unicode="&#59250;" d="M1024 896v-1024H0V896h1024zM68.754286 546.230857v-605.403428H955.245714V546.230857H68.827429z m224.841143-436.809143v-68.827428h-68.827429v68.754285h68.754286z m254.171428 0v-68.827428H474.185143v68.754285h73.581714z m251.465143 0v-68.827428h-68.754286v68.754285h68.754286zM293.595429 277.942857v-68.754286h-68.827429v68.754286h68.754286z m254.171428 0v-68.754286H474.185143v68.754286h73.581714z m251.465143 0v-68.754286h-68.754286v68.754286h68.754286zM293.595429 446.537143v-68.827429h-68.827429v68.754286h68.754286z m254.171428 0v-68.827429H474.185143v68.754286h73.581714z m251.465143 0v-68.827429h-68.754286v68.754286h68.754286zM955.245714 827.172571H68.827429v-212.114285h886.345142V827.245714z"  horiz-adv-x="1024" />

    
    <glyph glyph-name="renwuhuizong" unicode="&#59251;" d="M1024 896v-1024H0V896h1024z m-68.827429-68.827429H68.827429v-886.345142h886.345142V827.172571z m-667.940571-492.982857c32.768 0 62.464-13.312 83.968-34.816 21.430857-21.504 34.742857-51.2 34.742857-83.968 0-32.768-13.312-62.390857-34.742857-83.894857-21.504-21.504-51.2-34.742857-83.968-34.742857-32.768 0-62.464 13.238857-83.894857 34.742857a118.345143 118.345143 0 0 0-34.742857 83.894857c0 32.841143 13.238857 62.464 34.742857 83.968 21.430857 21.504 51.2 34.742857 83.894857 34.742857z m0-68.900571a49.737143 49.737143 0 0 1-49.810286-49.883429 49.737143 49.737143 0 0 1 49.810286-49.810285 49.737143 49.737143 0 0 1 49.883429 49.810285 49.737143 49.737143 0 0 1-49.883429 49.883429z m568.173714-12.726857V177.737143H505.709714V252.562286h349.696zM354.742857 673.865143l53.906286-53.906286-67.437714-67.364571 67.437714-67.437715-53.906286-53.906285-67.437714 67.437714-67.437714-67.437714-53.833143 53.906285 67.437714 67.437715-67.437714 67.364571 53.833143 53.906286 67.437714-67.437714 67.437714 67.437714z m500.736-80.896v-78.628572H505.709714V592.969143h349.696z"  horiz-adv-x="1024" />

    
    <glyph glyph-name="shanchubaobiaoshujuhexiangguanxinxi" unicode="&#59252;" d="M1024 896v-1024H0V896h1024zM68.754286 827.245714V-59.245714H955.245714V827.172571H68.827429z m737.792-491.885714l48.713143-48.713143-99.328-99.328 99.328-99.328-48.713143-48.64-99.328 99.328-99.328-99.328-48.64 48.64 99.328 99.328L559.250286 286.72l48.64 48.713143L707.291429 236.032l99.328 99.328z m-456.777143 54.930286v-68.754286H168.594286v68.754286h181.174857z m224.768 168.594285v-68.827428h-405.942857v68.754286h405.942857z m280.868571 168.521143v-68.754285h-686.811428v68.754285h686.811428z"  horiz-adv-x="1024" />

    
    <glyph glyph-name="renwushenhe" unicode="&#59254;" d="M512 896c78.628571 0 152.356571-31.232 206.848-85.723429A291.693714 291.693714 0 0 0 804.571429 603.428571a292.571429 292.571429 0 0 0-179.931429-270.116571h5.485714v-113.005714L1024 172.105143V-128H0V172.105143l393.801143 48.054857V333.385143h5.558857A292.571429 292.571429 0 0 0 219.428571 603.428571c0 78.628571 31.232 152.356571 85.723429 206.848A291.693714 291.693714 0 0 0 512 896z m-50.614857-742.692571h-57.417143l-336.457143-40.96v-172.836572h888.978286v172.836572l-335.506286 40.96h-58.368l0.073143 161.938285a294.180571 294.180571 0 0 0-101.376 0v-161.938285zM512 836.827429a232.594286 232.594286 0 0 1-165.010286-68.388572A232.594286 232.594286 0 0 1 278.601143 603.428571c0-62.756571 24.868571-121.563429 68.388571-165.010285A232.594286 232.594286 0 0 1 512 370.029714a232.594286 232.594286 0 0 1 165.010286 68.388572A232.594286 232.594286 0 0 1 745.398857 603.428571a232.594286 232.594286 0 0 1-68.388571 165.010286A232.594286 232.594286 0 0 1 512 836.827429z"  horiz-adv-x="1024" />

    
    <glyph glyph-name="shanchuxuanzezu" unicode="&#59255;" d="M1024 109.421714V-128H0v237.421714h1024z m-68.827429-68.827428H68.827429v-99.766857h886.345142v99.766857z m-492.982857 462.116571v-237.421714H0V502.710857h462.116571z m-68.900571-68.827428H68.827429v-99.766858h324.461714V433.883429z m410.916571 71.460571l53.833143-53.906286L790.674286 384l67.437714-67.437714-53.833143-53.906286-67.437714 67.437714-67.437714-67.437714-53.906286 53.906286L682.861714 384l-67.437714 67.437714 53.906286 53.906286 67.437714-67.437714 67.437714 67.437714zM1024 896v-237.421714H0V896h1024z m-68.827429-68.827429H68.827429v-99.766857h886.345142V827.245714z"  horiz-adv-x="1024" />

    
    <glyph glyph-name="danbiaohuizong" unicode="&#59256;" d="M686.811429 896v-56.173714H1024V-128H0V839.826286h337.115429V896h349.769142zM343.478857 770.998857H68.827429v-830.171428h886.345142V770.998857H343.405714z m204.361143-212.114286v-518.290285H475.428571V558.811429h72.411429z m251.465143-112.347428v-405.942857h-68.754286v405.942857h68.754286zM293.595429 671.232v-630.637714h-68.827429V671.232h68.754286z"  horiz-adv-x="1024" />

    
    <glyph glyph-name="jianqie1" unicode="&#59257;" d="M594.944 88.502857c0 59.172571 23.771429 112.713143 62.171429 151.478857a210.944 210.944 0 0 0 300.617142 0c38.4-38.765714 62.171429-92.306286 62.171429-151.478857 0-59.245714-23.771429-112.786286-62.171429-151.552a210.944 210.944 0 0 0-300.617142 0 214.528 214.528 0 0 0-62.171429 151.552z m67.510857 0c0-40.448 16.237714-77.092571 42.422857-103.570286a143.872 143.872 0 0 1 205.092572 0c26.185143 26.477714 42.422857 63.122286 42.422857 103.570286 0 40.374857-16.237714 77.019429-42.422857 103.497143a143.872 143.872 0 0 1-205.019429 0c-26.258286-26.477714-42.422857-63.122286-42.422857-103.497143zM17.408 836.169143A33.938286 33.938286 0 0 0 40.521143 894.464a33.572571 33.572571 0 0 0 24.064-9.654857l644.827428-632.246857a33.938286 33.938286 0 0 0-23.113142-58.294857 33.572571 33.572571 0 0 0-23.990858 9.654857L17.408 836.169143zM217.088-125.805714c58.733714 0 111.835429 23.990857 150.308571 62.756571 38.4 38.765714 62.171429 92.379429 62.171429 151.552 0 59.172571-23.771429 112.713143-62.171429 151.478857a210.944 210.944 0 0 1-300.617142 0 214.528 214.528 0 0 1-62.171429-151.478857c0-59.245714 23.771429-112.786286 62.171429-151.552 38.546286-38.765714 91.648-62.756571 150.308571-62.756571z m144.969143 214.308571c0-40.448-16.164571-77.092571-42.422857-103.570286a143.872 143.872 0 0 0-205.019429 0 146.651429 146.651429 0 0 0-42.422857 103.570286c0 40.374857 16.164571 77.019429 42.422857 103.497143a143.872 143.872 0 0 0 205.019429 0c26.258286-26.477714 42.422857-63.122286 42.422857-103.497143zM1009.956571 836.096a33.938286 33.938286 0 0 1-22.966857 58.368 33.572571 33.572571 0 0 1-24.064-9.581714L315.245714 252.635429a33.938286 33.938286 0 0 1 23.04-58.368 33.572571 33.572571 0 0 1 23.990857 9.581714L1009.956571 836.096z"  horiz-adv-x="1024" />

    
    <glyph glyph-name="niantie1" unicode="&#59258;" d="M1024-128H170.642286V782.189714H1024V-128z m-67.364571 67.437714v775.314286H238.006857v-775.314286h718.628572zM853.357714 772.315429h-67.437714V839.68h67.437714v-67.437714zM797.184 896v-67.437714h-67.291429V896h67.291429zM684.909714 896v-67.437714h-67.364571V896h67.364571zM572.635429 896v-67.437714h-67.364572V896h67.291429zM460.288 896v-67.437714h-67.291429V896h67.291429zM348.013714 896v-67.437714h-67.364571V896h67.364571zM235.739429 896v-67.437714h-67.364572V896h67.291429zM123.392 896v-67.437714h-67.291429V896h67.291429zM67.364571 772.242286H0V839.68h67.364571v-67.437714z m0-112.493715H0v67.510858h67.364571v-67.510858z m0-112.420571H0v67.510857h67.364571v-67.510857z m0-112.420571H0v67.437714h67.364571v-67.437714z m0-112.420572H0V389.851429h67.364571v-67.437715z m0-112.420571H0v67.437714h67.364571v-67.437714z m0-112.493715H0v67.510858h67.364571v-67.510858z m-11.190857-72.411428v16.237714h-16.822857v-16.237714h16.822857z m11.849143-39.350857H31.378286L0 17.188571v35.401143h33.645714l34.377143 0.731429v-67.510857z m44.909714 0v67.437714h66.56v-67.437714h-66.56z"  horiz-adv-x="1024" />

    
    <glyph glyph-name="renwubaocun" unicode="&#59259;" d="M1024-128H0V896h1024v-1024z m-67.510857 67.510857V828.489143H67.510857v-888.978286h888.978286zM855.332571 490.788571H168.374857V839.68h67.510857v-281.380571h551.936V839.68h67.510857zM170.130286 400.969143h686.957714v-499.2h-67.510857V333.458286H237.714286v-431.689143h-67.510857V400.969143zM731.428571 164.571429H292.571429V237.714286h438.857142v-73.142857z m0-146.285715H292.571429v73.142857h438.857142v-73.142857zM714.605714 783.506286V603.428571h-67.584V783.506286z"  horiz-adv-x="1024" />

    
    <glyph glyph-name="qingchu" unicode="&#59260;" d="M497.112615 894.109538l430.316308-248.438153-378.092308-656.935385 551.384616-0.078769v-72.704H245.917538v0.236307h-20.164923L6.301538 44.032 497.033846 894.109538zM375.414154 537.993846L105.550769 70.419692l139.815385-81.526154h220.238769L678.990769 359.581538l-148.086154 88.221539-155.411692 90.112z"  horiz-adv-x="1102" />

    
    <glyph glyph-name="guanbi6px" unicode="&#59235;" d="M513.408589 483.812035L129.326589 869.593513a73.077549 73.077549 0 1 1-101.968672-103.668151L411.439917 381.843363 25.658439-3.938115a73.077549 73.077549 0 0 1 101.968673-103.66815L513.408589 278.175212l384.082-385.781477a73.077549 73.077549 0 0 1 101.968673 103.66815L615.377262 381.843363 1001.158739 765.925362a73.077549 73.077549 0 1 1-101.968672 103.668151z"  horiz-adv-x="1032" />

    
    <glyph glyph-name="baocun6px" unicode="&#59236;" d="M696.61008738 635.7410280199999a67.13094065 67.13094065 0 0 0 67.13094064-67.13094064v-369.22017476a67.13094065 67.13094065 0 0 0-67.13094065-67.13094064H327.38991262a67.13094065 67.13094065 0 0 0-67.13094064 67.13094065V568.61008738A67.13094065 67.13094065 0 0 0 327.38991262 635.7410280199999z m-69.64835141-335.65470419H397.03826403a10.90877803 10.90877803 0 0 1-10.90877805-10.90877756v-33.56547058a10.90877803 10.90877803 0 0 1 10.90877805-10.90877802h229.92347194a10.90877803 10.90877803 0 0 1 10.90877805 10.90877802v33.56547058A10.90877803 10.90877803 0 0 1 626.96173597 300.08632382999997zM648.77929205 618.95829297H375.22070795v-72.16576168a37.76115422 37.76115422 0 0 1 34.40460748-40.27856448h204.74936914a31.88719673 31.88719673 0 0 1 24.33496636 11.74791496 43.63511168 43.63511168 0 0 1 10.06964113 28.53064952z m-33.56547056-18.46100887a5.87395749 5.87395749 0 0 0 5.87395747-5.03482057v-57.06129952a5.87395749 5.87395749 0 0 0-5.03482056 0H595.91367617a5.87395749 5.87395749 0 0 0 0 5.03482057V597.97987382a5.87395749 5.87395749 0 0 0 0 3.35654721h16.78273504z"  horiz-adv-x="1024" />

    
    <glyph glyph-name="gxh-morenshezhi" unicode="&#59276;" d="M371.832099 458.239702V300.803048l135.03713-78.718327L639.9864 300.803048V458.239702L506.869229 536.318043z m603.507175-191.99592a94.078001 94.078001 0 0 0 39.03917-124.157361l-44.799048-78.078341a85.118191 85.118191 0 0 0-53.758857-42.239103 91.518055 91.518055 0 0 0-69.118531 8.95981l-99.197892 57.598776a405.111391 405.111391 0 0 0-99.197893-57.598776v-63.99864A88.95811 88.95811 0 0 0 558.068141-127.98784H467.830059a88.95811 88.95811 0 0 0-90.238083 90.878069v63.99864a327.033051 327.033051 0 0 0-99.197892 57.598776l-99.197892-57.598776a91.518055 91.518055 0 0 0-69.118531-8.95981A85.118191 85.118191 0 0 0 56.318803 64.00808l-44.799048 76.798368A92.798028 92.798028 0 0 0 44.799048 264.96381L140.797008 320.00264a371.832099 371.832099 0 0 0-5.759878 57.598776 371.832099 371.832099 0 0 0 5.759878 57.598776L50.558926 488.319063a92.798028 92.798028 0 0 0-33.279293 123.517375L63.99864 690.554766a85.118191 85.118191 0 0 0 53.758858 42.239102 91.518055 91.518055 0 0 0 69.118531-8.959809l90.238082-51.198912a405.111391 405.111391 0 0 0 99.197892 57.598776V805.112331A88.95811 88.95811 0 0 0 465.270113 895.9904h89.598096a88.95811 88.95811 0 0 0 90.238082-90.878069V729.593936a327.033051 327.033051 0 0 0 99.197893-57.598776L831.98232 723.834059a91.518055 91.518055 0 0 0 69.118532 8.959809 85.118191 85.118191 0 0 0 53.758857-42.239102l44.799048-78.718328a92.798028 92.798028 0 0 0-33.279293-124.157361l-90.238082-51.198912a371.832099 371.832099 0 0 0 5.759878-57.598776 371.832099 371.832099 0 0 0-5.759878-57.598776zM582.387624 337.282273l-74.878409-42.239103-75.518395 42.239103V424.96041l74.878409 42.239102 74.878409-42.239102z m377.591976-166.396464a34.559266 34.559266 0 0 1 0 24.319483 30.719347 30.719347 0 0 1-14.719687 17.919619l-135.03713 78.718327 5.759877 21.119552a496.629447 496.629447 0 0 1 5.759878 63.99864 248.95471 248.95471 0 0 1-5.759878 63.99864l-5.759877 21.119551 127.99728 72.318463c8.95981 0 12.159742 8.95981 14.719687 17.919619a31.99932 31.99932 0 0 1 0 24.319483l-44.799048 78.718328a30.079361 30.079361 0 0 1-42.239102 12.159741l-127.99728-72.318463-14.719688 15.359674a378.231963 378.231963 0 0 1-117.117511 63.99864l-23.679497 12.799728V805.112331a28.159402 28.159402 0 0 1-30.079361 30.719348H462.070181a28.159402 28.159402 0 0 1-30.079361-30.079361v-118.397484l-21.119551-5.759878a282.873989 282.873989 0 0 1-117.117511-63.99864l-14.719687-15.359674-127.997281 72.318464a33.279293 33.279293 0 0 1-42.239102-12.159742L63.99864 581.757078a34.559266 34.559266 0 0 1 0-24.319484 30.719347 30.719347 0 0 1 14.719687-17.919619l127.99728-72.318463-8.959809-19.199592A496.629447 496.629447 0 0 1 191.99592 384.00128a248.95471 248.95471 0 0 1 5.759878-63.99864l5.759877-21.119551-135.03713-85.758178c-8.95981 0-12.159742-8.95981-14.719687-17.919619a31.99932 31.99932 0 0 1 0-24.319483l44.799048-78.718328c0-8.95981 8.95981-12.159742 17.919619-15.359673a31.99932 31.99932 0 0 1 24.319483 0l135.037131 78.718327 14.719687-15.359674a378.231963 378.231963 0 0 1 117.117511-63.99864l21.119551-5.759877v-108.797688a28.159402 28.159402 0 0 1 30.079361-30.079361h93.438014a28.159402 28.159402 0 0 1 30.079361 30.079361v108.797688l21.119551 5.759877a282.873989 282.873989 0 0 1 117.117512 63.99864l14.719687 15.359674 135.03713-78.718327a33.919279 33.919279 0 0 1 24.319484 0 30.719347 30.719347 0 0 1 17.919619 15.359673z"  horiz-adv-x="1024" />

    
    <glyph glyph-name="shezhi1" unicode="&#59082;" d="M156.586667 303.57333300000005l58.453333-8.32a307.413333 307.413333 0 0 1 21.333333-53.333333l-36.266666-48a29.44 29.44 0 0 1 0-35.84 488.533333 488.533333 0 0 1 36.906666-41.6l3.2-3.2a488.32 488.32 0 0 1 42.666667-36.906667 29.653333 29.653333 0 0 1 35.84 0l47.146667 35.413334a307.626667 307.626667 0 0 1 52.906666-22.4l8.32-59.733334a29.44 29.44 0 0 1 25.6-25.173333 488.106667 488.106667 0 0 1 55.466667-3.413333H512a518.826667 518.826667 0 0 1 55.466667 3.413333 29.653333 29.653333 0 0 1 25.386666 25.173333l8.32 58.88a307.84 307.84 0 0 1 53.12 21.333334l48.213334-36.693334a29.653333 29.653333 0 0 1 35.84 0 484.906667 484.906667 0 0 1 42.666666 36.906667l3.2 3.2a500.693333 500.693333 0 0 1 36.906667 41.6 29.44 29.44 0 0 1 0 35.84l-36.053333 47.146667a306.56 306.56 0 0 1 22.4 52.906666l59.733333 8.106667a29.653333 29.653333 0 0 1 25.386667 25.386667 486.826667 486.826667 0 0 1 3.413333 55.466666V384a503.466667 503.466667 0 0 1-3.413333 55.253333 29.44 29.44 0 0 1-25.173334 25.386667l-58.666666 8.32a306.56 306.56 0 0 1-21.333334 53.12L823.893333 576a29.44 29.44 0 0 1 0 35.84 476.586667 476.586667 0 0 1-36.906666 41.6l-3.2 3.2a490.666667 490.666667 0 0 1-42.666667 36.906667 29.653333 29.653333 0 0 1-35.84 0l-47.36-35.626667a305.92 305.92 0 0 1-52.906667 21.333333L597.333333 739.413333a29.653333 29.653333 0 0 1-25.6 25.173334S550.4 768 525.226667 768h-21.333334c-25.173333 0-46.08-3.2-46.933333-3.2a29.653333 29.653333 0 0 1-25.6-25.173333l-8.32-58.666667a307.84 307.84 0 0 1-53.12-21.333333l-48.64 36.266666a29.653333 29.653333 0 0 1-35.84 0 483.84 483.84 0 0 1-42.666667-36.906666l-3.2-3.2a490.666667 490.666667 0 0 1-36.906666-41.6 29.44 29.44 0 0 1 0-35.84l35.626666-47.36a305.28 305.28 0 0 1-21.333333-52.693334L156.586667 469.333333a29.44 29.44 0 0 1-25.173334-25.386666A486.826667 486.826667 0 0 1 128 389.12V384a517.546667 517.546667 0 0 1 3.413333-55.466667 29.653333 29.653333 0 0 1 25.173334-24.96z m53.973333 85.333334v23.893333l51.84 7.04a27.306667 27.306667 0 0 1 22.826667 21.333333 230.613333 230.613333 0 0 0 27.52 65.493334 27.306667 27.306667 0 0 1 0 32.853333l-30.933334 41.173333q7.893333 8.96 16.426667 17.493334l2.986667 2.986666q8.533333 8.533333 17.493333 16.426667l40.533333-30.72a27.306667 27.306667 0 0 1 32-2.56 229.546667 229.546667 0 0 0 66.133334 27.093333 27.52 27.52 0 0 1 23.04 23.253334l7.253333 50.986666h52.266667l7.04-51.84a27.52 27.52 0 0 1 21.333333-22.826666 231.253333 231.253333 0 0 0 65.92-27.52 27.52 27.52 0 0 1 32.64 0l41.173333 30.933333q8.96-7.893333 17.493334-16.426667l2.986666-2.986666q8.533333-8.533333 16.213334-17.493334l-31.573334-42.666666a27.306667 27.306667 0 0 1-1.066666-31.573334 230.613333 230.613333 0 0 0 27.306666-67.2 27.306667 27.306667 0 0 1 22.826667-21.333333l50.986667-7.253333V355.41333299999997l-51.84-7.04a27.306667 27.306667 0 0 1-23.253334-22.4 229.973333 229.973333 0 0 0-28.16-65.706666 27.306667 27.306667 0 0 1 1.28-30.933334l30.933334-41.173333c-4.693333-5.333333-10.24-11.52-16.426667-17.493333l-2.986667-2.986667c-5.973333-5.973333-12.16-11.733333-17.493333-16.213333l-40.746667 30.933333a27.52 27.52 0 0 1-31.786666 2.346667 231.68 231.68 0 0 0-68.053334-27.52 27.52 27.52 0 0 1-21.333333-22.826667l-7.253333-50.986667H484.053333l-7.04 51.626667a27.306667 27.306667 0 0 1-21.333333 22.826667 231.253333 231.253333 0 0 0-64 26.666666 27.52 27.52 0 0 1-34.133333 0l-41.173334-30.933333c-5.333333 4.693333-11.52 10.24-17.493333 16.426667l-2.986667 2.986666c-5.973333 5.973333-11.733333 12.16-16.426666 17.493334l30.72 40.32a27.306667 27.306667 0 0 1 2.56 31.786666 230.613333 230.613333 0 0 0-26.88 64 27.306667 27.306667 0 0 1-23.253334 23.253334l-51.413333 10.666666v23.893334zM512 544.64A160 160 0 1 1 672 384a160 160 0 0 1-160 160.64z m0-256A96 96 0 1 0 608 384a96 96 0 0 0-96-95.36z"  horiz-adv-x="1054" />

    
    <glyph glyph-name="biankuang44" unicode="&#59234;" d="M1024 832V896h-64v-64z m0-128V776.96h-64V704z m0-119.04V657.92h-64v-71.68z m0-117.76V538.88h-64V467.2z m0-119.04V419.84h-64v-71.68z m0-119.04V301.44h-64v-72.32z m0-119.04v72.32h-64v-72.32z m0-119.04V64h-64v-72.32zM1024-128v64h-64v-64z m-119.04 0v64H832v-64z m-119.04 0v64h-71.68v-64z m-119.04 0v64H595.2v-64z m-119.04 0v64H476.16v-64z m-118.4 0v64H357.12v-64z m-119.04 0v64H238.08v-64zM192-128v64H119.04v-64z m-128 0v64H0v-64z m0 119.04V64H0v-72.32z m0 119.04v72.32H0v-72.32z m0 119.04V301.44H0v-72.32z m0 119.04V419.84H0v-71.68zM64 467.2V538.88H0V467.2z m0 119.04V657.92H0v-71.68zM64 704V776.96H0V704z m485.12-712.96V64H476.8v-72.32z m0 119.04v72.32H476.8v-72.32z m0 119.04V301.44H476.8v-72.32z m0 238.08V538.88H476.8V467.2z m0 119.04V657.92H476.8v-71.68z m0 117.76V776.96H476.8V704zM64 832V896H0v-64z m128 0V896H119.04v-64z m118.4 0V896H238.08v-64z m119.04 0V896H357.12v-64z m118.4 0V896H476.16v-64z m119.04 0V896H595.2v-64z m119.04 0V896h-71.68v-64z m119.04 0V896H832v-64zM192 348.8V420.48H119.04v-71.68z m119.04 0V420.48H238.08v-71.68z m119.04 0V420.48H357.12v-71.68z m46.72 0h72.32V419.84H476.16z m192 0V420.48H595.2v-71.68z m119.04 0V420.48h-73.6v-71.68z m119.04 0V420.48H832v-71.68zM1024 896v-1024H0V896z m-108.8-108.8H108.8v-806.4h806.4z"  horiz-adv-x="1024" />

    
    <glyph glyph-name="baobiao-cs-y2" unicode="&#58974;" d="M25.52413 749.661657A85.420753 85.420753 0 1 0 146.338343 870.47587l425.402158-425.402158a85.080432 85.080432 0 0 0 0-121.665018l-425.402158-425.402158A86.356638 86.356638 0 0 0 25.52413 21.37316199999998L388.817573 385.51741z m510.48259 0A85.420753 85.420753 0 1 0 656.820933 870.47587l425.402159-425.402158a85.080432 85.080432 0 0 0 0-121.665018l-425.402159-425.402158a86.356638 86.356638 0 1 0-120.814213 123.366626L899.300164 385.51741z"  horiz-adv-x="1111" />

    
    <glyph glyph-name="baobiao-cs-y1" unicode="&#59231;" d="M238.862583 746.626838L602.156026 382.48258999999996 238.862583 18.33834300000001a85.420753 85.420753 0 0 1 120.814213-120.814213l425.402159 425.402158a85.080432 85.080432 0 0 1 0 121.665018l-425.402159 425.402158A86.356638 86.356638 0 1 1 238.862583 746.626838z"  horiz-adv-x="1024" />

    
    <glyph glyph-name="baobiao-cs-z2" unicode="&#59232;" d="M1083.80920333 18.33834300000001A85.420753 85.420753 0 1 0 962.99499032-102.47587001l-425.402158 425.40215801a85.080432 85.080432 0 0 0 0 121.66501799l425.402158 425.40215801A86.356638 86.356638 0 0 0 1083.80920332 746.626838L720.51576032 382.48258998999995z m-510.48259001 0A85.420753 85.420753 0 1 0 452.51240032-102.47586999999999l-425.402159 425.402158a85.080432 85.080432 0 0 0 0 121.665018l425.402159 425.402158a86.356638 86.356638 0 1 0 120.81421299-123.366626L210.03316932 382.48258999999996z"  horiz-adv-x="1111" />

    
    <glyph glyph-name="baobiao-cs-z1" unicode="&#59233;" d="M785.137417 21.37316199999998L421.843974 385.51741 785.137417 749.661657a85.420753 85.420753 0 0 1-120.814213 120.814213l-425.402159-425.402158a85.080432 85.080432 0 0 1 0-121.66501799l425.402159-425.40215801A86.356638 86.356638 0 1 1 785.137417 21.37316199999998z"  horiz-adv-x="1024" />

    
    <glyph glyph-name="xinzengtiaojian" unicode="&#59000;" d="M0 896v-1024h477.696v98.304H98.304V797.696h827.392v-394.752H1024V896zM1024 192h-192V384h-128v-192H512v-128h192V-128h128v192H1024zM522.24 544.768l-0.512 1.024-0.512 111.616-224.256-0.512 0.512-24.576-123.392-1.024-1.024 123.392 123.392 1.024 0.512-29.184 293.888 0.512 0.512-199.68-68.608-1.024zM439.296 367.616l-293.888-1.024-0.512 210.432 69.632 1.024V512.512l0.512-76.288 224.256 1.024-0.512 24.576 123.392 1.024 1.024-123.392-123.392-1.024z"  horiz-adv-x="1024" />

    
    <glyph glyph-name="quyuxiangdao" unicode="&#59001;" d="M951.808 896H430.08v-351.232H1024V896h-72.192zM502.272 616.96V823.808h449.536v-206.848H502.272zM351.744 373.76s-0.512 0 0 0l-0.512 449.536h0.512V896h-0.512H0v-594.432h351.744V373.76zM72.192 823.808h206.848v-449.536H72.192V823.808zM72.192-128s0 0.512 0 0l449.536 0.512v-0.512H593.92v0.512 72.192 206.848 72.192H0V-128h72.192z m449.536 279.552v-206.848H72.192v206.848h449.536zM672.256 394.24s0.512 0 0 0l0.512-449.536h-0.512v-72.192H1024v72.192V466.432h-351.744V394.24z m279.552-449.536h-206.848V394.24h206.848v-449.536zM441.856 455.68h140.288v-142.848H441.856z"  horiz-adv-x="1024" />

    
    <glyph glyph-name="xinzengyonghu" unicode="&#57898;" d="M0 896v-1024h477.696v98.304H98.304V797.696h827.392v-394.752H1024V896zM1024 192h-192V384h-128v-192H512v-128h192V-128h128v192H1024zM146.432 340.48V413.184c0 41.472 22.016 78.848 57.856 98.816 25.088 13.824 50.176 24.576 75.264 31.744-41.984 38.912-51.2 103.424-19.456 152.576 22.528 34.816 60.416 55.808 101.888 55.808 23.04 0 45.056-6.656 64.512-18.944 27.136-17.408 46.08-44.032 52.736-75.264 7.168-31.232 1.536-63.488-15.872-90.624-5.12-8.192-11.264-16.384-18.944-23.552 25.6-7.168 51.2-17.92 75.264-31.744 35.84-19.456 57.856-57.344 57.856-98.304v-72.704H146.432v-0.512z m379.904 50.688v22.016c0 22.016-12.288 43.008-31.744 54.272-44.032 24.576-89.088 36.864-132.608 36.864s-88.576-12.288-132.608-36.864c-19.456-10.752-31.744-31.744-31.744-54.272v-22.016h328.704zM361.984 701.44c-38.4 0-69.632-31.232-69.632-69.632s31.232-69.632 69.632-69.632 69.632 31.232 69.632 69.632S400.384 701.44 361.984 701.44zM421.376 538.624c31.232-6.656 62.464-18.432 93.184-35.84 32.768-17.92 52.736-52.224 52.736-89.6v-62.464H156.672v34.304-34.304 62.464c0 37.376 19.968 71.68 52.736 89.6 31.232 17.408 61.952 29.184 93.184 35.84-51.2 32.768-66.56 100.864-33.792 152.064s100.864 66.56 152.064 33.792 66.56-100.864 33.792-152.064c-8.192-13.824-19.968-25.088-33.28-33.792z m-59.392 13.312c44.032 0 79.872 35.84 79.872 79.872S406.016 711.6800000000001 361.984 711.6800000000001s-79.872-35.84-79.872-79.872 35.84-79.872 79.872-79.872zM187.392 413.184v-32.256h349.184v32.256c0 26.112-14.336 50.176-36.864 62.976-46.08 25.6-92.16 38.4-137.728 38.4S270.336 501.76 224.256 476.16c-23.04-12.8-36.864-36.864-36.864-62.976z"  horiz-adv-x="1024" />

    
    <glyph glyph-name="ziduanjiexiwentupian" unicode="&#59003;" d="M208.384 565.248v-244.736H0V896h629.76v-330.752zM197.12 859.136L91.648 596.992h65.024l20.48 54.272h108.544l18.944-54.272h67.072L268.288 859.136H197.12z m34.816-59.392L268.288 696.3199999999999H193.536l38.4 103.424zM665.6 94.72000000000003l-133.632 146.432-91.136-173.568v-47.616h451.584c-57.344 51.2-178.688 160.768-178.688 160.768l-48.128-86.016z m156.672 110.592c25.088 0 45.568 20.992 45.568 46.592s-20.48 46.592-45.568 46.592-45.568-20.992-45.568-46.592c0.512-25.6 20.48-46.592 45.568-46.592zM923.136 689.152h97.28L906.24 540.1600000000001l-114.688 148.992h93.696c-19.456 82.944-91.136 133.12-219.648 152.576l5.632 36.864c146.944-22.528 232.448-86.016 251.904-189.44zM306.176 476.672v-601.6h714.752V476.672H306.176z m636.416-531.968H392.192V392.192h550.4v-447.488z"  horiz-adv-x="1024" />

    
    <glyph glyph-name="xiugai" unicode="&#59426;" d="M944.64 686.08l-95.744 94.72-1.536 1.536c-12.8 12.288-33.28 11.264-45.568-1.536l-474.624-474.624c-6.656-6.144-10.24-14.848-10.24-23.552v-96.256c0.512-17.92 15.36-32.768 33.792-32.768H445.44c9.216 0 17.92 3.584 24.064 10.24l475.136 474.624c12.8 13.312 12.8 34.304 0 47.616zM432.128 220.67200000000003h-47.616v47.616l441.344 441.344 47.616-47.104-441.344-441.856zM825.344 533.504c-8.704 0-17.408 3.584-23.552 10.24L706.56 638.4639999999999c-13.312 13.312-13.312 34.304 0 47.616s34.304 13.312 47.616 0l94.72-96.768c12.8-12.288 13.824-32.768 1.536-45.568l-1.536-1.536c-6.144-5.632-14.848-9.216-23.552-8.704zM833.024 394.752v-388.608H136.192V702.976h390.144V791.04H48.128V-81.91999999999996h872.96V394.752z"  horiz-adv-x="1024" />

    
    <glyph glyph-name="xinzengzhibiao" unicode="&#59005;" d="M231.424 567.808v-198.656H147.968V567.808h83.456zM390.144 661.504v-292.352H307.2V661.504h82.944zM549.376 770.048v-400.896H465.92V770.048h83.456zM0 896v-1024h477.696v93.184H103.424V797.696h822.272v-394.752H1024V896zM1024 192h-192V384h-128v-192H512v-128h192V-128h128v192H1024z"  horiz-adv-x="1024" />

    
    <glyph glyph-name="xinzenglanmumulu" unicode="&#59006;" d="M1024 10.240000000000009H0V896h1024v-885.76z m-98.304 98.304V797.696H98.304v-689.152h827.392zM1024-128H0v88.064h1024V-128zM783.36 499.2h-226.304V724.992H467.968v-226.304H240.128v-89.6h227.84v-227.84h89.6V409.088h226.304c-0.512 0-0.512 90.112-0.512 90.112z"  horiz-adv-x="1024" />

    
    <glyph glyph-name="piliangxiugai" unicode="&#59007;" d="M445.44 153.60000000000002H350.72c-18.432 0-33.28 14.848-33.792 32.768v96.256c0 8.704 3.584 17.408 10.24 23.552l474.624 474.624c12.288 12.8 32.768 13.824 45.568 1.536l1.536-1.536L944.64 686.08c12.8-13.312 12.8-34.304 0-47.616L469.504 163.84000000000003c-6.144-6.656-14.848-10.24-24.064-10.24z m-60.928 67.072h47.616l441.344 441.856-47.616 47.104-441.344-441.344v-47.616zM825.344 533.504c-8.704 0-17.408 3.584-23.552 10.24L706.56 638.4639999999999c-13.312 13.312-13.312 34.304 0 47.616s34.304 13.312 47.616 0l94.72-96.768c12.8-12.288 13.824-32.768 1.536-45.568l-1.536-1.536c-6.144-5.632-14.848-9.216-23.552-8.704zM833.536 394.752v-388.608H136.704V702.976h390.144V791.04H48.64V-81.91999999999996H921.6V394.752zM663.04 271.36v-161.792H290.304V497.664h162.816V565.76H221.696V40.960000000000036h524.8v230.4z"  horiz-adv-x="1024" />

    
    <glyph glyph-name="tongjizhibiao" unicode="&#59008;" d="M615.936 332.288l262.656 265.216 55.808-55.296-263.68-266.24c43.52-75.264 17.408-171.52-57.856-215.04-75.264-43.52-171.52-17.408-215.04 57.856-43.52 75.264-17.408 171.52 57.856 215.04 49.664 28.672 111.104 28.16 160.256-1.536zM105.984 92.15999999999997l-74.24-26.112c-19.456 54.784-29.184 112.64-29.184 170.496 0 282.624 229.376 512 512 512 117.248 0 231.424-40.448 322.56-114.176L787.456 573.44c-77.312 62.464-173.568 96.768-272.896 96.768-239.104 0-433.152-194.048-433.152-433.152 0-50.176 8.192-98.816 24.576-144.896z m779.264 369.152l67.072 40.96c48.64-79.872 74.24-172.032 74.24-265.216 0-58.368-9.728-115.712-29.184-170.496l-74.24 26.112c16.384 46.592 24.576 95.232 24.576 144.384 0 79.872-22.016 157.184-62.464 224.256z m-351.232-342.528c43.52 0 78.848 35.328 78.848 78.848s-35.328 78.848-78.848 78.848-78.848-35.328-78.848-78.848c0.512-44.032 35.84-78.848 78.848-78.848z"  horiz-adv-x="1026" />

    
    <glyph glyph-name="xinzengziduan" unicode="&#59009;" d="M0 896v-1024h477.696v98.304H98.304V797.696h827.392v-394.752H1024V896zM1024 192h-192V384h-128v-192H512v-128h192V-128h128v192H1024zM166.912 704h448V640H166.912zM358.912 704h64V256H358.912z"  horiz-adv-x="1024" />

    
    <glyph glyph-name="xinzengduogezhibiao" unicode="&#59010;" d="M380.928 435.712v-130.56H316.928V435.712h64zM497.664 497.152v-192H433.664V497.152h64zM614.4 568.832v-263.168h-63.488V568.832H614.4zM0 896v-947.2h160.256v77.824H88.064V807.936h776.192v-67.072H942.08V896zM1024 192h-192V384h-128v-192H512v-128h192V-128h128v192H1024zM205.312 691.2v-819.2h283.136v67.584H283.136V613.376h663.552v-220.672h77.824V691.2z"  horiz-adv-x="1024" />

    
    <glyph glyph-name="baobiao-yincangziduan" unicode="&#59459;" d="M696.32 438.784l59.904-165.376H480.256L397.312 209.91999999999996h377.856l127.488-312.832h106.496L765.952 492.032zM119.296-102.91200000000003h94.72l77.312 231.424-119.296-91.136zM670.208 511.488l0.512-1.536 66.56 51.2-0.512 1.536 286.208 219.136-43.52 57.344-270.848-207.36L608.768 875.52h-122.88L268.8 295.424 0 89.60000000000002l44.032-57.344 176.64 135.168-1.024-2.56 141.312 108.032h-2.048l311.296 238.592zM464.384 601.088c4.608 14.336 9.728 28.16 14.336 41.472 8.704 25.6 17.408 50.176 24.576 75.264 1.024 3.584 2.048 6.656 3.072 10.24v-0.512l37.888 98.304 3.072-5.12 22.528-44.032c5.632-15.36 11.776-31.232 17.92-47.616 15.36-40.96 32.768-87.552 54.272-138.24v-0.512l2.56-7.68L390.656 388.608l73.728 212.48z"  horiz-adv-x="1025" />

    
    <glyph glyph-name="tongjitiaojian" unicode="&#59012;" d="M615.936 293.88800000000003l-77.312-0.512-2.048 423.936-281.6-1.024 1.536-565.76H179.2L177.664 793.6l435.712 1.024zM123.008 28.231679999999983l-0.9216 183.296 183.296 0.93184 0.9216-183.296zM391.68 473.088h77.312l1.536-423.936 282.112 1.024-1.536 565.76h76.8l2.048-642.56-436.224-1.536zM884.40832 738.4064l0.9216-183.296-183.296-0.93184-0.9216 183.296z"  horiz-adv-x="1024" />

    
    <glyph glyph-name="paiminghanshu" unicode="&#59013;" d="M576-128l-103.424 159.232L368.64-128H280.064l147.968 227.84L280.064 327.67999999999995H368.64l103.936-159.232 103.424 159.232h89.088L517.12 99.84000000000003l147.968-227.84zM0-128L0.512 896h570.88v-75.776H72.192V501.76h301.056v-75.264H72.192V-128zM890.88 636.4159999999999v179.2c-11.776-7.68-25.6-13.824-40.96-17.92l-13.312-3.584V854.016l7.68 2.048c9.728 2.56 19.968 6.656 31.232 12.8 11.264 6.656 20.48 13.824 27.648 21.504l3.072 3.072h43.52v-257.024H890.88zM823.296 260.60799999999995v10.24c0 26.624 8.704 50.176 26.112 69.632 9.216 10.752 27.648 25.6 56.32 45.056 16.896 11.776 26.112 19.968 30.72 25.088 8.192 9.216 12.8 19.968 12.8 30.208 0 9.728-2.56 16.896-7.168 21.504-4.608 4.096-12.8 6.656-23.552 6.656-11.264 0-19.456-3.584-24.576-10.752-6.144-7.68-9.216-19.968-9.728-36.352l-0.512-9.728H824.32v10.24c0.512 29.184 9.216 52.736 26.112 70.656 17.408 19.456 40.448 29.184 69.12 29.184 25.088 0 46.592-7.68 63.488-22.528 16.896-15.36 25.088-35.328 25.088-58.88 0-22.528-8.704-44.032-25.6-62.976-9.216-10.24-25.6-22.528-50.688-39.936-13.824-9.216-23.04-16.896-29.696-23.04H1008.64v-54.784h-185.344zM916.992-126.976c-27.136 0-49.152 7.168-66.048 21.504-18.432 15.872-29.184 38.4-31.232 68.096l-1.024 10.752h60.416l0.512-9.728c0.512-12.8 4.096-22.016 11.264-28.16 6.656-6.144 14.848-9.216 26.112-9.216 12.288 0 21.504 3.072 28.16 9.728 5.632 5.632 8.704 12.288 8.704 20.992 0 10.24-2.56 17.408-8.192 22.016-6.144 5.12-15.36 7.168-28.672 7.168h-26.624V35.84000000000003h26.624c11.264 0 19.968 2.048 25.088 6.656 4.608 4.096 6.656 10.24 6.656 18.432s-2.048 14.336-6.144 18.432c-5.12 4.096-13.312 6.144-24.064 6.144-11.264 0-19.456-2.56-25.088-7.68-6.144-5.12-9.728-13.824-10.752-25.088l-1.024-9.216h-58.368l1.024 11.264c2.048 26.624 12.288 47.616 30.208 62.464 16.384 14.336 37.888 22.016 64 22.016 26.624 0 48.128-6.656 64.512-19.456 16.896-13.824 25.6-32.768 25.6-55.808 0-22.016-8.704-39.424-25.6-51.2 6.144-3.584 11.264-8.192 15.872-13.312 9.216-10.752 14.336-24.576 14.336-40.96 0-24.576-8.704-45.568-26.112-61.44-18.944-15.872-41.984-24.064-70.144-24.064z"  horiz-adv-x="1024" />

    
    <glyph glyph-name="tongjilanmu" unicode="&#42566;" d="M170.496-117.24800000000005c-57.856 0.512-104.96 48.128-104.96 105.984V751.104l0.512 7.68C71.168 831.488 133.12 888.832 206.848 888.832h661.504v-204.8h90.624V-117.75999999999999h-788.48z m-26.112 105.984c0-7.168 2.048-13.824 7.168-18.944 5.12-5.12 11.776-8.192 18.944-8.192h709.12V605.184H855.04v1.024H206.848c-18.432 0-36.352 3.584-54.272 10.752l-8.192 3.072v-631.296zM206.848 809.984c-34.304 0-62.464-28.16-62.464-62.464s28.16-62.464 62.464-62.464h582.656V809.984H206.848zM268.8 142.84799999999996v78.848h480.256v-78.848H268.8z m0 203.264V424.96h288.256v-78.848H268.8zM283.648 157.18399999999997v49.664h451.072v-49.664H283.648z m0 203.776v49.664h258.56v-49.664H283.648z"  horiz-adv-x="1024" />

    
    <glyph glyph-name="baobiao-topNfenxi" unicode="&#59801;" d="M519.68-128c-35.328 0-65.024 6.144-88.064 17.92-22.528 11.776-40.96 30.72-55.296 56.32-14.336 25.6-21.504 58.88-21.504 98.304 0 54.784 14.336 97.792 42.496 128 28.16 29.696 67.584 45.056 118.272 45.056 51.712 0 92.16-14.848 119.808-44.032 27.648-29.696 41.984-71.68 41.984-125.952 0-39.424-6.144-72.192-18.432-97.28-11.776-24.064-29.696-44.032-52.736-57.344-22.528-13.824-51.712-20.992-86.528-20.992z m-4.096 283.136c-23.552 0-43.008-9.216-57.856-27.136-14.336-17.408-20.992-45.056-20.992-83.968 0-38.4 6.656-65.536 20.992-83.456s34.304-27.136 58.88-27.136c25.088 0 45.056 9.216 58.88 26.624 13.824 17.408 20.48 46.08 20.48 88.576 0 35.84-7.168 61.952-20.992 79.36-14.848 17.92-34.816 27.136-59.392 27.136z m247.808-276.992v333.312h159.744c33.792 0 59.392-8.704 75.776-25.088 16.384-16.896 24.576-41.472 24.576-73.216 0-33.28-8.704-58.368-27.136-76.288-17.92-17.92-46.592-27.136-84.992-27.136h-66.048v-131.072h-81.92z m67.584 182.272h36.864c23.552 0 40.448 4.608 50.688 14.336 10.752 9.728 15.872 22.528 15.872 37.376 0 14.336-4.608 26.624-13.312 36.864-9.216 10.752-25.6 15.872-49.152 15.872h-40.96v-104.448zM104.448-121.856v266.24H0v67.072h290.816v-67.072H186.368v-266.24h-81.92zM0 312.832h1024v-30.72H0zM27.136 628.2239999999999v-276.48h262.656v276.48H27.136z m190.976-205.824H98.816V556.544h118.784v-134.144zM375.296 751.616v-399.36h262.656v399.36H375.296z m190.464-329.216H446.976V679.424h118.784v-257.024zM734.208 896v-544.256h262.656V896h-262.656z m190.976-471.04h-118.784V824.3199999999999h118.784v-399.36z"  horiz-adv-x="1024" />

    
    <glyph glyph-name="zhong" unicode="&#59228;" d="M1024 420.032v-72.896H0V420.032h1024zM72.128-128H0v72.128h72.128V-128z m118.976 0H118.976v72.128h72.128V-128z m118.976 0H237.952v72.128h72.128V-128z m118.976 0H356.928v72.128h72.128V-128z m118.976 0H475.904v72.128h72.128V-128z m118.976 0H594.88v72.128h72.128V-128z m118.976 0h-72.128v72.128h72.128V-128z m118.976 0h-72.128v72.128h72.128V-128z m118.976 0h-72.128v72.128h72.128V-128zM1024-9.024h-72.128v72.128H1024v-72.128z m0 118.976h-72.128v72.128H1024v-72.128z m0 118.976h-72.128V301.056H1024v-72.128z m0 237.952h-72.128V539.008H1024v-72.128z m0 118.976h-72.128V657.92H1024v-72.128z m0 118.976h-72.128V776.96H1024v-72.128z m0 118.976h-72.128V895.936H1024v-72.128z m-119.04 0.064h-72.128V896h72.128v-72.128z m-119.04 0h-72.064V896h72.128v-72.128z m-118.912 0H594.88V896h72.128v-72.128z m-119.04 0H475.968V896h72.128v-72.128z m-118.912 0H356.928V896h72.128v-72.128z m-119.04 0H238.016V896h72.128v-72.128z m-118.912 0H118.976V896h72.128v-72.128z m-118.976-0.064H0V895.936h72.128v-72.128z m0-118.912H0V777.024h72.128v-72.128z m0-119.04H0V657.92h72.128v-72.128z m0-119.04H0V539.072h72.128v-72.128z m0-237.888H0V301.056h72.128v-72.128z m0-119.04H0v72.192h72.128v-72.128z m0-118.912H0v72.128h72.128v-72.128zM547.328 704.896H475.2V777.024h72.128v-72.128z m0-119.04H475.2V657.92h72.128v-72.128z m0-119.04H475.2V539.072h72.128v-72.128z m0-237.888H475.2V301.056h72.128v-72.128z m0-119.04H475.2v72.192h72.128v-72.128z m0-118.912H475.2v72.128h72.128v-72.128z"  horiz-adv-x="1024" />

    
    <glyph glyph-name="shang1" unicode="&#59229;" d="M510.520889 437.76H443.448889L396.515556 562.232889H201.728L154.737778 437.76H88.291556L266.24 893.44h66.332444l177.948445-455.68z m-288.426667 178.688h154.055111l-77.596444 200.817778-76.515556-200.817778zM472.064-128H106.382222v49.265778l268.970667 350.890666H124.928V327.68h332.344889v-49.948444L188.871111-72.476444h283.192889zM764.586667-128V805.489778h67.413333V-128zM938.666667 669.696h-280.689778L798.321778 896z"  horiz-adv-x="1024" />

    
    <glyph glyph-name="xia1" unicode="&#59227;" d="M510.520889 437.76H443.448889L396.515556 562.232889H201.728L154.737778 437.76H88.291556L266.24 893.44h66.332444l177.948445-455.68z m-288.426667 178.688h154.055111l-77.596444 200.817778-76.515556-200.817778zM472.064-128H106.382222v49.265778l268.970667 350.890666H124.928V327.67999999999995h332.344889v-49.948444L188.871111-72.47644400000001h283.192889zM764.586667 98.30399999999997h-106.609778L798.321778-128 938.666667 98.30399999999997h-106.666667V896h-67.356444v-797.696z"  horiz-adv-x="1024" />

    
    <glyph glyph-name="qxsxjx" unicode="&#59240;" d="M479.118222 437.76h-67.128889l-46.876444 124.472889H170.268444l-46.933333-124.472889H56.888889L234.837333 893.44h66.332445l177.948444-455.68zM190.577778 616.448h154.055111l-77.596445 200.817778-76.458666-200.817778zM440.661333-128H74.979556v49.265778l268.970666 350.890666H93.468444V327.67999999999995h332.344889v-49.948444l-268.344889-350.208h283.192889V-128z m292.522667 736.768V896h67.413333v-287.971556a198.940444 198.940444 0 0 0 0-391.338666V-128h-67.413333v344.007111a198.940444 198.940444 0 0 0 0 392.760889z m56.490667-196.380444l80.327111 80.384a14.563556 14.563556 0 0 1 0 20.081777 14.563556 14.563556 0 0 1-20.024889 0l-80.384-80.384-80.440889 80.440889a14.563556 14.563556 0 0 1-20.081778 0 14.563556 14.563556 0 0 1 0-20.138666L749.454222 412.444444l-80.384-80.327111a14.222222 14.222222 0 0 1 20.138667-20.081777l80.327111 80.327111 80.327111-80.327111a14.222222 14.222222 0 0 1 20.138667 20.081777L789.617778 412.444444z"  horiz-adv-x="1024" />

    
    <glyph glyph-name="shanchu4" unicode="&#58969;" d="M992 768L896 864l-384-384-384 384L32 768l384-384-384-384L128-96l384 384 384-384 96 96-384 384z"  horiz-adv-x="1024" />

    
    <glyph glyph-name="quxiaofenzu" unicode="&#59226;" d="M518.090105 454.063158L619.789474 555.816421V896h377.263158v-383.730526h-321.751579L567.619368 404.48 669.049263 303.157895H997.052632v-383.730527h-377.263158v333.877895l-101.699369 101.699369L404.210526 241.178947v-321.751579H26.947368V303.157895h340.237474l101.322105 101.376L360.933053 512.269474H26.947368V896h377.263158v-328.003368L518.090105 454.063158z m165.672421 165.672421l212.291369 212.345263h-212.345263v-212.345263z m253.197474 154.138947l-197.685895-197.685894h197.685895V773.874526zM90.920421 26.893474l212.291368 212.345263h-212.345263v-212.345263z m253.197474 154.138947l-197.685895-197.685895h197.685895v197.685895zM90.920421 782.174316v-205.985684h205.985684L90.920421 782.174316z m49.205895 49.852631l203.991579-203.991579V832.026947H140.126316z m543.63621-642.694736v-205.985685h205.985685l-205.985685 205.985685z m49.205895 49.852631l203.991579-203.991579v203.991579H732.968421z"  horiz-adv-x="1024" />

    
    <glyph glyph-name="shiyingzihao" unicode="&#59224;" d="M92.16 640H0V896h256v-92.16H92.16V640z m0-512v-163.84H256V-128H0v256h92.16zM1024 640h-92.16V803.84H768V896h256v-256z m0-512v-256h-256v92.16h163.84V128H1024zM476.224 768h71.552L832 64h-66.56l-82.56 210.048H341.12L258.56 64H192L476.224 768zM360.96 325.312h302.08l-149.056 377.6h-3.008l-150.016-377.6z"  horiz-adv-x="1024" />

    
    <glyph glyph-name="zidonghuanhang" unicode="&#59225;" d="M1192.251077 896v-101.454769H0V896h1192.251077zM0-9.688615000000027V91.76615400000003h444.022154v-101.454769H0z m0 402.116923V493.883077h1004.307692c93.735385 0 157.774769-18.116923 198.183385-57.895385 42.299077-41.668923 57.816615-106.338462 57.816615-193.929846 0-87.433846-16.226462-151.867077-58.446769-193.457231-40.723692-40.172308-104.841846-58.289231-197.474461-58.28923h-152.260924V-128l-228.745846 169.038769 228.745846 169.038769v-118.311384h152.103385c42.062769 0 83.731692 10.555077 112.64 39.148308 23.630769 23.158154 39.620923 58.368 39.620923 111.143384 0 52.854154-15.990154 88.064-39.542154 111.222154-28.987077 28.593231-70.656 39.148308-112.64 39.148308H0z"  horiz-adv-x="1260" />

    
    <glyph glyph-name="juzhongdingdi" unicode="&#59223;" d="M535.665778-72.248889v181.304889H467.626667v-181.304889zM362.666667 102.741333H640.568889L501.589333 327.168zM535.665778 896v-181.304889H467.626667V896zM362.666667 721.009778H640.568889L501.589333 496.583111zM113.777778 366.478222V435.2h796.444444v-68.721778z"  horiz-adv-x="1024" />

    
    <glyph glyph-name="biankuang4" unicode="&#59222;" d="M1024 832V896h-64v-64h64z m0-127.104V777.024h-64v-72.128h64z m0-118.976V658.048h-64v-72.128h64z m0-118.976V539.072h-64v-72.128h64z m0-118.976V420.096h-64v-72.128h64z m0-118.976V301.12h-64v-72.128h64z m0-118.976v72.128h-64v-72.128h64z m0-118.976v72.128h-64v-72.128h64zM1024-128v64h-64v-64h64z m-118.976 0v64h-72.128v-64h72.128z m-118.976 0v64h-72.128v-64h72.128z m-118.976 0v64H594.944v-64h72.128z m-118.976 0v64H475.968v-64h72.128z m-118.976 0v64H356.992v-64h72.128z m-118.976 0v64H238.08v-64h72.128z m-118.976 0v64H119.04v-64h72.128zM64-128v64H0v-64h64z m0 119.04v72.128H0v-72.128h64z m0 119.04v72.064H0v-72.128h64z m0 118.912V301.12H0v-72.128h64z m0 119.04V420.032H0v-72.128h64z m0 118.912V539.072H0v-72.128h64z m0 119.04V657.984H0v-72.128h64z m0 118.912V777.024H0v-72.128h64zM548.864-8.96v72.128H476.8v-72.128h72.128z m0 119.04v72.064H476.8v-72.128h72.128z m0 118.912V301.12H476.8v-72.128h72.128z m0 237.952V539.072H476.8v-72.128h72.128z m0 119.04V657.984H476.8v-72.128h72.128z m0 118.912V777.024H476.8v-72.128h72.128zM64 832V896H0.064v-64h64z m127.104 0V896H118.976v-64h72.128z m119.04 0V896H238.08v-64h72.128z m119.04 0V896H356.928v-64h72.128z m118.912 0V896H475.968v-64h72.128z m119.04 0V896H594.88v-64h72.128z m118.912 0V896h-72.128v-64h72.128z m118.976 0V896h-72.128v-64h72.128zM191.104 348.672V420.8H118.976v-72.128h72.128z m119.04 0V420.8H238.08v-72.128h72.128z m119.04 0V420.8H356.928v-72.128h72.128z m46.784 0l72.96-0.768V420.032l-72.96 0.832v-72.128z m191.104 0V420.8H594.944v-72.128h72.128z m119.04 0V420.8h-72.192v-72.128h72.128z m118.912 0V420.8h-72.128v-72.128h72.128zM0 896h1024v-1024H0V896z m92.16-92.16v-839.68h839.68V803.84H92.16z"  horiz-adv-x="1024" />

    
    <glyph glyph-name="biankuang2" unicode="&#59213;" d="M1024-128H0V896h1024v-1024z m-68.8 68.8V827.2H68.8v-886.4h886.4zM546.432 896v-1024H477.568V896zM0 418.432h1024v-68.864H0z"  horiz-adv-x="1024" />

    
    <glyph glyph-name="biankuang6" unicode="&#59214;" d="M72.128-128H0v72.128h72.128V-128z m118.976 0H118.976v72.128h72.128V-128z m118.976 0H237.952v72.128h72.128V-128z m118.976 0H356.928v72.128h72.128V-128z m118.976 0H475.904v72.128h72.128V-128z m118.976 0H594.88v72.128h72.128V-128z m118.976 0h-72.128v72.128h72.128V-128z m118.976 0h-72.128v72.128h72.128V-128z m118.976 0h-72.128v72.128h72.128V-128zM1024-9.024h-72.128v72.128H1024v-72.128z m0 118.976h-72.128v72.128H1024v-72.128z m0 118.976h-72.128V301.056H1024v-72.128z m0 118.976h-72.128V420.032H1024v-72.128z m0 118.976h-72.128V539.008H1024v-72.128z m0 118.976h-72.128V657.92H1024v-72.128z m0 118.976h-72.128V776.96H1024v-72.128z m0 118.976h-72.128V895.936H1024v-72.128z m-119.04 0.064h-72.128V896h72.128v-72.128z m-119.04 0h-72.064V896h72.128v-72.128z m-118.912 0H594.88V896h72.128v-72.128z m-119.04 0H475.968V896h72.128v-72.128z m-118.912 0H356.928V896h72.128v-72.128z m-119.04 0H238.016V896h72.128v-72.128z m-118.912 0H118.976V896h72.128v-72.128z m713.856-476.8h-72.128V419.328h72.128v-72.128z m-119.04 0h-72.064V419.328h72.128v-72.128z m-118.912 0H594.88V419.328h72.128v-72.128z m-237.952 0H356.928V419.328h72.128v-72.128z m-119.04 0H238.016V419.328h72.128v-72.128z m-118.912 0H118.976V419.328h72.128v-72.128zM72.128 823.872H0V895.936h72.128v-72.128z m0-118.912H0V777.024h72.128v-72.128z m0-119.04H0V657.92h72.128v-72.128z m0-119.04H0V539.072h72.128v-72.128z m0-118.912H0V420.032h72.128v-72.128z m0-119.04H0V301.12h72.128v-72.128z m0-118.912H0v72.128h72.128v-72.128z m0-118.976H0v72.128h72.128v-72.128zM547.328 704.896H475.2V777.024h72.128v-72.128z m0-119.04H475.2V657.92h72.128v-72.128z m0-119.04H475.2V539.072h72.128v-72.128z m0-46.784l0.768-72.96H475.968l-0.832 72.96h72.128z m0-191.104H475.2V301.056h72.128v-72.128z m0-119.04H475.2v72.192h72.128v-72.128z m0-118.912H475.2v72.128h72.128v-72.128zM1024 823.872H0V896h1024z"  horiz-adv-x="1024" />

    
    <glyph glyph-name="biankuang3" unicode="&#59215;" d="M1024 832V896h-64v-64h64z m0-127.104V777.024h-64v-72.128h64z m0-118.976V658.048h-64v-72.128h64z m0-118.976V539.072h-64v-72.128h64z m0-118.976V420.096h-64v-72.128h64z m0-118.976V301.12h-64v-72.128h64z m0-118.976v72.128h-64v-72.128h64z m0-118.976v72.128h-64v-72.128h64zM1024-128v64h-64v-64h64z m-118.976 0v64h-72.128v-64h72.128z m-118.976 0v64h-72.128v-64h72.128z m-118.976 0v64H594.944v-64h72.128z m-118.976 0v64H475.968v-64h72.128z m-118.976 0v64H356.992v-64h72.128z m-118.976 0v64H238.08v-64h72.128z m-118.976 0v64H119.04v-64h72.128zM64-128v64H0v-64h64z m0 119.04v72.128H0v-72.128h64z m0 119.04v72.064H0v-72.128h64z m0 118.912V301.12H0v-72.128h64z m0 119.04V420.032H0v-72.128h64z m0 118.912V539.072H0v-72.128h64z m0 119.04V657.984H0v-72.128h64z m0 118.912V777.024H0v-72.128h64zM548.864-8.96v72.128H476.8v-72.128h72.128z m0 119.04v72.064H476.8v-72.128h72.128z m0 118.912V301.12H476.8v-72.128h72.128z m0 237.952V539.072H476.8v-72.128h72.128z m0 119.04V657.984H476.8v-72.128h72.128z m0 118.912V777.024H476.8v-72.128h72.128zM64 832V896H0.064v-64h64z m127.104 0V896H118.976v-64h72.128z m119.04 0V896H238.08v-64h72.128z m119.04 0V896H356.928v-64h72.128z m118.912 0V896H475.968v-64h72.128z m119.04 0V896H594.88v-64h72.128z m118.912 0V896h-72.128v-64h72.128z m118.976 0V896h-72.128v-64h72.128zM191.104 348.672V420.8H118.976v-72.128h72.128z m119.04 0V420.8H238.08v-72.128h72.128z m119.04 0V420.8H356.928v-72.128h72.128z m46.784 0l72.96-0.768V420.032l-72.96 0.832v-72.128z m191.104 0V420.8H594.944v-72.128h72.128z m119.04 0V420.8h-72.192v-72.128h72.128z m118.912 0V420.8h-72.128v-72.128h72.128zM0-128h1024V896H0v-1024z m68.8 68.8V827.2h886.4v-886.4H68.8z"  horiz-adv-x="1024" />

    
    <glyph glyph-name="biankuang10" unicode="&#59216;" d="M72.128-128H0v72.128h72.128V-128z m118.976 0H118.976v72.128h72.128V-128z m118.976 0H237.952v72.128h72.128V-128z m118.976 0H356.928v72.128h72.128V-128z m118.976 0H475.904v72.128h72.128V-128z m118.976 0H594.88v72.128h72.128V-128z m118.976 0h-72.128v72.128h72.128V-128z m118.976 0h-72.128v72.128h72.128V-128z m118.976 0h-72.128v72.128h72.128V-128zM1024-9.024h-72.128v72.128H1024v-72.128z m0 118.976h-72.128v72.128H1024v-72.128z m0 118.976h-72.128V301.056H1024v-72.128z m0 118.976h-72.128V420.032H1024v-72.128z m0 118.976h-72.128V539.008H1024v-72.128z m0 118.976h-72.128V657.92H1024v-72.128z m0 118.976h-72.128V776.96H1024v-72.128z m0 118.976h-72.128V895.936H1024v-72.128z m-119.04 0.064h-72.128V896h72.128v-72.128z m-119.04 0h-72.064V896h72.128v-72.128z m-118.912 0H594.88V896h72.128v-72.128z m-119.04 0H475.968V896h72.128v-72.128z m-118.912 0H356.928V896h72.128v-72.128z m-119.04 0H238.016V896h72.128v-72.128z m-118.912 0H118.976V896h72.128v-72.128z m713.856-476.8h-72.128V419.328h72.128v-72.128z m-119.04 0h-72.064V419.328h72.128v-72.128z m-118.912 0H594.88V419.328h72.128v-72.128z m-237.952 0H356.928V419.328h72.128v-72.128z m-119.04 0H238.016V419.328h72.128v-72.128z m-118.912 0H118.976V419.328h72.128v-72.128zM72.128 823.872H0V895.936h72.128v-72.128z m0-118.912H0V777.024h72.128v-72.128z m0-119.04H0V657.92h72.128v-72.128z m0-119.04H0V539.072h72.128v-72.128z m0-118.912H0V420.032h72.128v-72.128z m0-119.04H0V301.12h72.128v-72.128z m0-118.912H0v72.128h72.128v-72.128z m0-118.976H0v72.128h72.128v-72.128zM547.328 704.896H475.2V777.024h72.128v-72.128z m0-119.04H475.2V657.92h72.128v-72.128z m0-119.04H475.2V539.072h72.128v-72.128z m0-46.784l0.768-72.96H475.968l-0.832 72.96h72.128z m0-191.104H475.2V301.056h72.128v-72.128z m0-119.04H475.2v72.192h72.128v-72.128z m0-118.912H475.2v72.128h72.128v-72.128zM1024 823.872H0V896h1024zM1024-128H0v72.128h1024z"  horiz-adv-x="1024" />

    
    <glyph glyph-name="biankuang8" unicode="&#59217;" d="M951.872 896H1024v-72.128h-72.128V896z m-118.976 0h72.128v-72.128h-72.128V896z m-118.976 0h72.128v-72.128h-72.128V896zM594.944 896h72.128v-72.128H594.944V896zM475.968 896h72.128v-72.128H475.968V896zM356.992 896h72.128v-72.128H356.992V896zM238.08 896h72.128v-72.128H238.08V896zM119.04 896h72.128v-72.128H119.04V896zM0.064 896h72.128v-72.128H0.064V896zM0 777.024h72.128v-72.128H0V777.024z m0-118.976h72.128v-72.128H0V658.048z m0-118.976h72.128v-72.128H0V539.072z m0-118.976h72.128v-72.128H0V420.096z m0-118.976h72.128v-72.128H0V301.12z m0-118.976h72.128v-72.128H0v72.128z m0-118.976h72.128v-72.128H0v72.128z m0-118.976h72.128v-72.128H0v72.128z m119.04-0.064h72.128V-128H119.04v72.128z m119.04 0h72.064V-128H238.08v72.128z m118.912 0h72.128V-128H356.992v72.128z m119.04 0h72.064V-128H475.968v72.128z m118.912 0h72.128V-128H594.944v72.128z m119.04 0h72.064V-128h-72.128v72.128z m118.912 0h72.128V-128h-72.128v72.128zM119.04 420.928h72.128v-72.192H119.04V420.864z m119.04 0h72.064v-72.192H238.08V420.864z m118.912 0h72.128v-72.192H356.992V420.864z m237.952 0h72.128v-72.192H594.944V420.864z m119.04 0h72.064v-72.192h-72.128V420.864z m118.912 0h72.128v-72.192h-72.128V420.864z m118.976-476.736H1024v-72.128h-72.128v72.128z m0 118.912H1024v-72.128h-72.128v72.128z m0 119.04H1024v-72.128h-72.128v72.128z m0 119.04H1024v-72.192h-72.128V301.12z m0 118.912H1024v-72.128h-72.128V420.096z m0 119.04H1024v-72.192h-72.128V539.072z m0 118.912H1024v-72.128h-72.128V658.048z m0 118.976H1024v-72.128h-72.128V777.024zM476.672 63.104h72.128v-72.128H476.672v72.128z m0 119.04h72.128v-72.128H476.672v72.128z m0 119.04h72.128v-72.192H476.672V301.12z m0 46.784l-0.768 72.96h72.128l0.832-72.96H476.736z m0 191.104h72.128v-72.128H476.672V539.072z m0 119.04h72.128v-72.192H476.672V658.048z m0 118.912h72.128v-72.128H476.672V777.024zM0-55.872h1024V-128H0z"  horiz-adv-x="1024" />

    
    <glyph glyph-name="biankuang1" unicode="&#59218;" d="M0 823.872V896h72.128v-72.128H0z m0-118.976V777.024h72.128v-72.128H0z m0-118.976V658.048h72.128v-72.128H0z m0-118.976V539.072h72.128v-72.128H0z m0-118.976V420.096h72.128v-72.128H0z m0-118.976V301.12h72.128v-72.128H0z m0-118.976v72.128h72.128v-72.128H0z m0-118.976v72.128h72.128v-72.128H0z m0-118.976v72.128h72.128v-72.128H0zM118.976-128v72.128h72.128V-128H118.976z m118.976 0v72.128h72.128V-128H237.952z m118.976 0v72.128h72.128V-128H356.928z m118.976 0v72.128h72.128V-128H475.904z m118.976 0v72.128h72.128V-128H594.88z m118.976 0v72.128h72.128V-128h-72.128z m118.976 0v72.128h72.128V-128h-72.128z m118.976 0v72.128h72.128V-128h-72.128z m0.064 119.04v72.128H1024v-72.128h-72.128z m0 119.04v72.064H1024v-72.128h-72.128z m0 118.912V301.12H1024v-72.128h-72.128z m0 119.04V420.032H1024v-72.128h-72.128z m0 118.912V539.072H1024v-72.128h-72.128z m0 119.04V657.984H1024v-72.128h-72.128z m0 118.912V777.024H1024v-72.128h-72.128zM475.072-8.96v72.128h72.192v-72.128H475.136z m0 119.04v72.064h72.192v-72.128H475.136z m0 118.912V301.12h72.192v-72.128H475.136z m0 237.952V539.072h72.192v-72.128H475.136z m0 119.04V657.984h72.192v-72.128H475.136z m0 118.912V777.024h72.192v-72.128H475.136z m476.736 118.976V896h72.128v-72.128h-72.128z m-118.912 0V896h72.128v-72.128h-72.128z m-119.04 0V896h72.128v-72.128h-72.128z m-119.04 0V896h72.192v-72.128H594.88z m-118.912 0V896h72.128v-72.128H475.904z m-119.04 0V896h72.192v-72.128H356.928z m-118.912 0V896h72.128v-72.128H237.952z m-118.976 0V896h72.128v-72.128H118.976z m713.92-475.2V420.8h72.128v-72.128h-72.128z m-119.04 0V420.8h72.128v-72.128h-72.128z m-119.04 0V420.8h72.192v-72.128H594.88z m-46.784 0l-72.96-0.768V420.032l72.96 0.832v-72.128z m-191.104 0V420.8h72.128v-72.128H356.928z m-119.04 0V420.8h72.192v-72.128H237.952z m-118.912 0V420.8h72.128v-72.128H118.976z"  horiz-adv-x="1024" />

    
    <glyph glyph-name="biankuang5" unicode="&#59219;" d="M1024 823.872V896h-72.128v-72.128H1024z m0-118.976V777.024h-72.128v-72.128H1024z m0-118.976V658.048h-72.128v-72.128H1024z m0-118.976V539.072h-72.128v-72.128H1024z m0-118.976V420.096h-72.128v-72.128H1024z m0-118.976V301.12h-72.128v-72.128H1024z m0-118.976v72.128h-72.128v-72.128H1024z m0-118.976v72.128h-72.128v-72.128H1024z m0-118.976v72.128h-72.128v-72.128H1024zM905.024-128v72.128h-72.128V-128h72.128z m-118.976 0v72.128h-72.128V-128h72.128z m-118.976 0v72.128H594.944V-128h72.128z m-118.976 0v72.128H475.968V-128h72.128z m-118.976 0v72.128H356.992V-128h72.128z m-118.976 0v72.128H238.08V-128h72.128z m-118.976 0v72.128H119.04V-128h72.128z m-118.976 0v72.128H0.064V-128h72.128z m-0.064 119.04v72.128H0v-72.128h72.128z m0 119.04v72.064H0v-72.128h72.128z m0 118.912V301.12H0v-72.128h72.128z m0 119.04V420.032H0v-72.128h72.128z m0 118.912V539.072H0v-72.128h72.128z m0 119.04V657.984H0v-72.128h72.128z m0 118.912V777.024H0v-72.128h72.128z m476.8-713.856v72.128H476.672v-72.128h72.128z m0 119.04v72.064H476.672v-72.128h72.128z m0 118.912V301.12H476.672v-72.128h72.128z m0 237.952V539.072H476.672v-72.128h72.128z m0 119.04V657.984H476.672v-72.128h72.128z m0 118.912V777.024H476.672v-72.128h72.128zM72.128 823.872V896H0.064v-72.128h72.128z m118.912 0V896H118.976v-72.128h72.128z m119.04 0V896H238.08v-72.128h72.128z m119.04 0V896H356.928v-72.128h72.128z m118.912 0V896H475.968v-72.128h72.128z m119.04 0V896H594.88v-72.128h72.128z m118.912 0V896h-72.128v-72.128h72.128z m118.976 0V896h-72.128v-72.128h72.128zM191.104 348.672V420.8H118.976v-72.128h72.128z m119.04 0V420.8H238.08v-72.128h72.128z m119.04 0V420.8H356.928v-72.128h72.128z m46.784 0l72.96-0.768V420.032l-72.96 0.832v-72.128z m191.104 0V420.8H594.944v-72.128h72.128z m119.04 0V420.8h-72.192v-72.128h72.128z m118.912 0V420.8h-72.128v-72.128h72.128zM72.128-128V896H0v-1024z"  horiz-adv-x="1024" />

    
    <glyph glyph-name="biankuang7" unicode="&#59220;" d="M0 823.872V896h72.128v-72.128H0z m0-118.976V777.024h72.128v-72.128H0z m0-118.976V658.048h72.128v-72.128H0z m0-118.976V539.072h72.128v-72.128H0z m0-118.976V420.096h72.128v-72.128H0z m0-118.976V301.12h72.128v-72.128H0z m0-118.976v72.128h72.128v-72.128H0z m0-118.976v72.128h72.128v-72.128H0z m0-118.976v72.128h72.128v-72.128H0zM118.976-128v72.128h72.128V-128H118.976z m118.976 0v72.128h72.128V-128H237.952z m118.976 0v72.128h72.128V-128H356.928z m118.976 0v72.128h72.128V-128H475.904z m118.976 0v72.128h72.128V-128H594.88z m118.976 0v72.128h72.128V-128h-72.128z m118.976 0v72.128h72.128V-128h-72.128z m118.976 0v72.128h72.128V-128h-72.128z m0.064 119.04v72.128H1024v-72.128h-72.128z m0 119.04v72.064H1024v-72.128h-72.128z m0 118.912V301.12H1024v-72.128h-72.128z m0 119.04V420.032H1024v-72.128h-72.128z m0 118.912V539.072H1024v-72.128h-72.128z m0 119.04V657.984H1024v-72.128h-72.128z m0 118.912V777.024H1024v-72.128h-72.128zM475.072-8.96v72.128h72.192v-72.128H475.136z m0 119.04v72.064h72.192v-72.128H475.136z m0 118.912V301.12h72.192v-72.128H475.136z m0 237.952V539.072h72.192v-72.128H475.136z m0 119.04V657.984h72.192v-72.128H475.136z m0 118.912V777.024h72.192v-72.128H475.136z m476.736 118.976V896h72.128v-72.128h-72.128z m-118.912 0V896h72.128v-72.128h-72.128z m-119.04 0V896h72.128v-72.128h-72.128z m-119.04 0V896h72.192v-72.128H594.88z m-118.912 0V896h72.128v-72.128H475.904z m-119.04 0V896h72.192v-72.128H356.928z m-118.912 0V896h72.128v-72.128H237.952z m-118.976 0V896h72.128v-72.128H118.976z m713.92-475.2V420.8h72.128v-72.128h-72.128z m-119.04 0V420.8h72.128v-72.128h-72.128z m-119.04 0V420.8h72.192v-72.128H594.88z m-46.784 0l-72.96-0.768V420.032l72.96 0.832v-72.128z m-191.104 0V420.8h72.128v-72.128H356.928z m-119.04 0V420.8h72.192v-72.128H237.952z m-118.912 0V420.8h72.128v-72.128H118.976zM951.872-128V896H1024v-1024z"  horiz-adv-x="1024" />

    
    <glyph glyph-name="biankuang9" unicode="&#59221;" d="M1024-55.872V-128h-72.128v72.128H1024z m0 118.976v-72.128h-72.128v72.128H1024z m0 118.976v-72.128h-72.128v72.128H1024z m0 118.976v-72.128h-72.128V301.056H1024z m0 118.976v-72.128h-72.128V420.032H1024z m0 118.976v-72.128h-72.128V539.008H1024z m0 118.976v-72.128h-72.128V657.92H1024z m0 118.976v-72.128h-72.128V776.96H1024z m0 118.976v-72.128h-72.128V895.936H1024zM905.024 896v-72.128h-72.128V896h72.128z m-118.976 0v-72.128h-72.128V896h72.128z m-118.976 0v-72.128H594.944V896h72.128zM548.096 896v-72.128H475.968V896h72.128zM429.12 896v-72.128H356.992V896h72.128zM310.144 896v-72.128H238.08V896h72.128zM191.168 896v-72.128H119.04V896h72.128zM72.192 896v-72.128H0.064V896h72.128z m-0.064-119.04v-72.128H0V776.96h72.128z m0-119.04v-72.064H0V657.92h72.128z m0-118.912v-72.128H0V539.008h72.128z m0-119.04v-72.064H0V420.032h72.128z m0-118.912v-72.128H0V301.056h72.128z m0-119.04v-72.064H0v72.128h72.128z m0-118.912v-72.128H0v72.128h72.128zM548.928 776.96v-72.128H476.672V776.96h72.128z m0-119.04v-72.064H476.672V657.92h72.128z m0-118.912v-72.128H476.672V539.008h72.128z m0-237.952v-72.128H476.672V301.056h72.128z m0-119.04v-72.064H476.672v72.128h72.128z m0-118.912v-72.128H476.672v72.128h72.128z m-476.736-118.976V-128H0.064v72.128h72.128z m118.912 0V-128H118.976v72.128h72.128z m119.04 0V-128H238.08v72.128h72.128z m119.04 0V-128H356.928v72.128h72.128z m118.912 0V-128H475.968v72.128h72.128z m119.04 0V-128H594.88v72.128h72.128z m118.912 0V-128h-72.128v72.128h72.128z m118.976 0V-128h-72.128v72.128h72.128zM191.104 419.328v-72.128H118.976V419.328h72.128z m119.04 0v-72.128H238.08V419.328h72.128z m119.04 0v-72.128H356.928V419.328h72.128z m46.784 0l72.96 0.768v-72.128l-72.96-0.832V419.264z m191.104 0v-72.128H594.944V419.328h72.128z m119.04 0v-72.128h-72.192V419.328h72.128z m118.912 0v-72.128h-72.128V419.328h72.128zM72.128 896v-1024H0V896zM1024 896v-1024h-72.128V896z"  horiz-adv-x="1024" />

    
    <glyph glyph-name="zuo" unicode="&#59206;" d="M1024 823.872V896h-72.128v-72.128H1024z m0-118.976V777.024h-72.128v-72.128H1024z m0-118.976V658.048h-72.128v-72.128H1024z m0-118.976V539.072h-72.128v-72.128H1024z m0-118.976V420.096h-72.128v-72.128H1024z m0-118.976V301.12h-72.128v-72.128H1024z m0-118.976v72.128h-72.128v-72.128H1024z m0-118.976v72.128h-72.128v-72.128H1024z m0-118.976v72.128h-72.128v-72.128H1024zM905.024-128v72.128h-72.128V-128h72.128z m-118.976 0v72.128h-72.128V-128h72.128z m-118.976 0v72.128H594.944V-128h72.128z m-118.976 0v72.128H475.968V-128h72.128z m-118.976 0v72.128H356.992V-128h72.128z m-118.976 0v72.128H238.08V-128h72.128z m-118.976 0v72.128H119.04V-128h72.128z m-118.976 0v72.128H0.064V-128h72.128z m-0.064 119.04v72.128H0v-72.128h72.128z m0 119.04v72.064H0v-72.128h72.128z m0 118.912V301.12H0v-72.128h72.128z m0 119.04V420.032H0v-72.128h72.128z m0 118.912V539.072H0v-72.128h72.128z m0 119.04V657.984H0v-72.128h72.128z m0 118.912V777.024H0v-72.128h72.128z m476.8-713.856v72.128H476.672v-72.128h72.128z m0 119.04v72.064H476.672v-72.128h72.128z m0 118.912V301.12H476.672v-72.128h72.128z m0 237.952V539.072H476.672v-72.128h72.128z m0 119.04V657.984H476.672v-72.128h72.128z m0 118.912V777.024H476.672v-72.128h72.128zM72.128 823.872V896H0.064v-72.128h72.128z m118.912 0V896H118.976v-72.128h72.128z m119.04 0V896H238.08v-72.128h72.128z m119.04 0V896H356.928v-72.128h72.128z m118.912 0V896H475.968v-72.128h72.128z m119.04 0V896H594.88v-72.128h72.128z m118.912 0V896h-72.128v-72.128h72.128z m118.976 0V896h-72.128v-72.128h72.128zM191.104 348.672V420.8H118.976v-72.128h72.128z m119.04 0V420.8H238.08v-72.128h72.128z m119.04 0V420.8H356.928v-72.128h72.128z m46.784 0l72.96-0.768V420.032l-72.96 0.832v-72.128z m191.104 0V420.8H594.944v-72.128h72.128z m119.04 0V420.8h-72.192v-72.128h72.128z m118.912 0V420.8h-72.128v-72.128h72.128zM72.128-128V896H0v-1024z"  horiz-adv-x="1024" />

    
    <glyph glyph-name="shang" unicode="&#59207;" d="M72.128-128H0v72.128h72.128V-128z m118.976 0H118.976v72.128h72.128V-128z m118.976 0H237.952v72.128h72.128V-128z m118.976 0H356.928v72.128h72.128V-128z m118.976 0H475.904v72.128h72.128V-128z m118.976 0H594.88v72.128h72.128V-128z m118.976 0h-72.128v72.128h72.128V-128z m118.976 0h-72.128v72.128h72.128V-128z m118.976 0h-72.128v72.128h72.128V-128zM1024-9.024h-72.128v72.128H1024v-72.128z m0 118.976h-72.128v72.128H1024v-72.128z m0 118.976h-72.128V301.056H1024v-72.128z m0 118.976h-72.128V420.032H1024v-72.128z m0 118.976h-72.128V539.008H1024v-72.128z m0 118.976h-72.128V657.92H1024v-72.128z m0 118.976h-72.128V776.96H1024v-72.128z m0 118.976h-72.128V895.936H1024v-72.128z m-119.04 0.064h-72.128V896h72.128v-72.128z m-119.04 0h-72.064V896h72.128v-72.128z m-118.912 0H594.88V896h72.128v-72.128z m-119.04 0H475.968V896h72.128v-72.128z m-118.912 0H356.928V896h72.128v-72.128z m-119.04 0H238.016V896h72.128v-72.128z m-118.912 0H118.976V896h72.128v-72.128z m713.856-476.8h-72.128V419.328h72.128v-72.128z m-119.04 0h-72.064V419.328h72.128v-72.128z m-118.912 0H594.88V419.328h72.128v-72.128z m-237.952 0H356.928V419.328h72.128v-72.128z m-119.04 0H238.016V419.328h72.128v-72.128z m-118.912 0H118.976V419.328h72.128v-72.128zM72.128 823.872H0V895.936h72.128v-72.128z m0-118.912H0V777.024h72.128v-72.128z m0-119.04H0V657.92h72.128v-72.128z m0-119.04H0V539.072h72.128v-72.128z m0-118.912H0V420.032h72.128v-72.128z m0-119.04H0V301.12h72.128v-72.128z m0-118.912H0v72.128h72.128v-72.128z m0-118.976H0v72.128h72.128v-72.128zM547.328 704.896H475.2V777.024h72.128v-72.128z m0-119.04H475.2V657.92h72.128v-72.128z m0-119.04H475.2V539.072h72.128v-72.128z m0-46.784l0.768-72.96H475.968l-0.832 72.96h72.128z m0-191.104H475.2V301.056h72.128v-72.128z m0-119.04H475.2v72.192h72.128v-72.128z m0-118.912H475.2v72.128h72.128v-72.128zM1024 823.872H0V896h1024z"  horiz-adv-x="1024" />

    
    <glyph glyph-name="xie1" unicode="&#59208;" d="M0 823.872V896h72.128v-72.128H0z m0-118.976V777.024h72.128v-72.128H0z m0-118.976V658.048h72.128v-72.128H0z m0-118.976V539.072h72.128v-72.128H0z m0-118.976V420.096h72.128v-72.128H0z m0-118.976V301.12h72.128v-72.128H0z m0-118.976v72.128h72.128v-72.128H0z m0-118.976v72.128h72.128v-72.128H0z m0-118.976v72.128h72.128v-72.128H0zM118.976-128v72.128h72.128V-128H118.976z m118.976 0v72.128h72.128V-128H237.952z m118.976 0v72.128h72.128V-128H356.928z m118.976 0v72.128h72.128V-128H475.904z m118.976 0v72.128h72.128V-128H594.88z m118.976 0v72.128h72.128V-128h-72.128z m118.976 0v72.128h72.128V-128h-72.128z m118.976 0v72.128h72.128V-128h-72.128z m0.064 119.04v72.128H1024v-72.128h-72.128z m0 119.04v72.064H1024v-72.128h-72.128z m0 118.912V301.12H1024v-72.128h-72.128z m0 119.04V420.032H1024v-72.128h-72.128z m0 118.912V539.072H1024v-72.128h-72.128z m0 119.04V657.984H1024v-72.128h-72.128z m0 118.912V777.024H1024v-72.128h-72.128zM475.072-8.96v72.128h72.192v-72.128H475.136z m0 119.04v72.064h72.192v-72.128H475.136z m0 118.912V301.12h72.192v-72.128H475.136z m0 237.952V539.072h72.192v-72.128H475.136z m0 119.04V657.984h72.192v-72.128H475.136z m0 118.912V777.024h72.192v-72.128H475.136z m476.736 118.976V896h72.128v-72.128h-72.128z m-118.912 0V896h72.128v-72.128h-72.128z m-119.04 0V896h72.128v-72.128h-72.128z m-119.04 0V896h72.192v-72.128H594.88z m-118.912 0V896h72.128v-72.128H475.904z m-119.04 0V896h72.192v-72.128H356.928z m-118.912 0V896h72.128v-72.128H237.952z m-118.976 0V896h72.128v-72.128H118.976z m713.92-475.2V420.8h72.128v-72.128h-72.128z m-119.04 0V420.8h72.128v-72.128h-72.128z m-119.04 0V420.8h72.192v-72.128H594.88z m-46.784 0l-72.96-0.768V420.032l72.96 0.832v-72.128z m-191.104 0V420.8h72.128v-72.128H356.928z m-119.04 0V420.8h72.192v-72.128H237.952z m-118.912 0V420.8h72.128v-72.128H118.976zM67.776 896H0v-67.776l473.6-473.536 136.256-136.32 0.832-0.832 344.32-344.32h65.088v70.4L610.688 352.96V353.92H609.92v0.768h-0.896l-473.472 473.6z"  horiz-adv-x="1024" />

    
    <glyph glyph-name="quanxu" unicode="&#59209;" d="M0 823.872V896h72.128v-72.128H0z m0-118.976V777.024h72.128v-72.128H0z m0-118.976V658.048h72.128v-72.128H0z m0-118.976V539.072h72.128v-72.128H0z m0-118.976V420.096h72.128v-72.128H0z m0-118.976V301.12h72.128v-72.128H0z m0-118.976v72.128h72.128v-72.128H0z m0-118.976v72.128h72.128v-72.128H0z m0-118.976v72.128h72.128v-72.128H0zM118.976-128v72.128h72.128V-128H118.976z m118.976 0v72.128h72.128V-128H237.952z m118.976 0v72.128h72.128V-128H356.928z m118.976 0v72.128h72.128V-128H475.904z m118.976 0v72.128h72.128V-128H594.88z m118.976 0v72.128h72.128V-128h-72.128z m118.976 0v72.128h72.128V-128h-72.128z m118.976 0v72.128h72.128V-128h-72.128z m0.064 119.04v72.128H1024v-72.128h-72.128z m0 119.04v72.064H1024v-72.128h-72.128z m0 118.912V301.12H1024v-72.128h-72.128z m0 119.04V420.032H1024v-72.128h-72.128z m0 118.912V539.072H1024v-72.128h-72.128z m0 119.04V657.984H1024v-72.128h-72.128z m0 118.912V777.024H1024v-72.128h-72.128zM475.072-8.96v72.128h72.192v-72.128H475.136z m0 119.04v72.064h72.192v-72.128H475.136z m0 118.912V301.12h72.192v-72.128H475.136z m0 237.952V539.072h72.192v-72.128H475.136z m0 119.04V657.984h72.192v-72.128H475.136z m0 118.912V777.024h72.192v-72.128H475.136z m476.736 118.976V896h72.128v-72.128h-72.128z m-118.912 0V896h72.128v-72.128h-72.128z m-119.04 0V896h72.128v-72.128h-72.128z m-119.04 0V896h72.192v-72.128H594.88z m-118.912 0V896h72.128v-72.128H475.904z m-119.04 0V896h72.192v-72.128H356.928z m-118.912 0V896h72.128v-72.128H237.952z m-118.976 0V896h72.128v-72.128H118.976z m713.92-475.2V420.8h72.128v-72.128h-72.128z m-119.04 0V420.8h72.128v-72.128h-72.128z m-119.04 0V420.8h72.192v-72.128H594.88z m-46.784 0l-72.96-0.768V420.032l72.96 0.832v-72.128z m-191.104 0V420.8h72.128v-72.128H356.928z m-119.04 0V420.8h72.192v-72.128H237.952z m-118.912 0V420.8h72.128v-72.128H118.976z"  horiz-adv-x="1024" />

    
    <glyph glyph-name="xia" unicode="&#59210;" d="M951.872 896H1024v-72.128h-72.128V896z m-118.976 0h72.128v-72.128h-72.128V896z m-118.976 0h72.128v-72.128h-72.128V896zM594.944 896h72.128v-72.128H594.944V896zM475.968 896h72.128v-72.128H475.968V896zM356.992 896h72.128v-72.128H356.992V896zM238.08 896h72.128v-72.128H238.08V896zM119.04 896h72.128v-72.128H119.04V896zM0.064 896h72.128v-72.128H0.064V896zM0 777.024h72.128v-72.128H0V777.024z m0-118.976h72.128v-72.128H0V658.048z m0-118.976h72.128v-72.128H0V539.072z m0-118.976h72.128v-72.128H0V420.096z m0-118.976h72.128v-72.128H0V301.12z m0-118.976h72.128v-72.128H0v72.128z m0-118.976h72.128v-72.128H0v72.128z m0-118.976h72.128v-72.128H0v72.128z m119.04-0.064h72.128V-128H119.04v72.128z m119.04 0h72.064V-128H238.08v72.128z m118.912 0h72.128V-128H356.992v72.128z m119.04 0h72.064V-128H475.968v72.128z m118.912 0h72.128V-128H594.944v72.128z m119.04 0h72.064V-128h-72.128v72.128z m118.912 0h72.128V-128h-72.128v72.128zM119.04 420.928h72.128v-72.192H119.04V420.864z m119.04 0h72.064v-72.192H238.08V420.864z m118.912 0h72.128v-72.192H356.992V420.864z m237.952 0h72.128v-72.192H594.944V420.864z m119.04 0h72.064v-72.192h-72.128V420.864z m118.912 0h72.128v-72.192h-72.128V420.864z m118.976-476.736H1024v-72.128h-72.128v72.128z m0 118.912H1024v-72.128h-72.128v72.128z m0 119.04H1024v-72.128h-72.128v72.128z m0 119.04H1024v-72.192h-72.128V301.12z m0 118.912H1024v-72.128h-72.128V420.096z m0 119.04H1024v-72.192h-72.128V539.072z m0 118.912H1024v-72.128h-72.128V658.048z m0 118.976H1024v-72.128h-72.128V777.024zM476.672 63.104h72.128v-72.128H476.672v72.128z m0 119.04h72.128v-72.128H476.672v72.128z m0 119.04h72.128v-72.192H476.672V301.12z m0 46.784l-0.768 72.96h72.128l0.832-72.96H476.736z m0 191.104h72.128v-72.128H476.672V539.072z m0 119.04h72.128v-72.192H476.672V658.048z m0 118.912h72.128v-72.128H476.672V777.024zM0-55.872h1024V-128H0z"  horiz-adv-x="1024" />

    
    <glyph glyph-name="xie" unicode="&#59211;" d="M1024 823.872V896h-72.128v-72.128H1024z m0-118.976V777.024h-72.128v-72.128H1024z m0-118.976V658.048h-72.128v-72.128H1024z m0-118.976V539.072h-72.128v-72.128H1024z m0-118.976V420.096h-72.128v-72.128H1024z m0-118.976V301.12h-72.128v-72.128H1024z m0-118.976v72.128h-72.128v-72.128H1024z m0-118.976v72.128h-72.128v-72.128H1024z m0-118.976v72.128h-72.128v-72.128H1024zM905.024-128v72.128h-72.128V-128h72.128z m-118.976 0v72.128h-72.128V-128h72.128z m-118.976 0v72.128H594.944V-128h72.128z m-118.976 0v72.128H475.968V-128h72.128z m-118.976 0v72.128H356.992V-128h72.128z m-118.976 0v72.128H238.08V-128h72.128z m-118.976 0v72.128H119.04V-128h72.128z m-118.976 0v72.128H0.064V-128h72.128z m-0.064 119.04v72.128H0v-72.128h72.128z m0 119.04v72.064H0v-72.128h72.128z m0 118.912V301.12H0v-72.128h72.128z m0 119.04V420.032H0v-72.128h72.128z m0 118.912V539.072H0v-72.128h72.128z m0 119.04V657.984H0v-72.128h72.128z m0 118.912V777.024H0v-72.128h72.128z m476.8-713.856v72.128H476.672v-72.128h72.128z m0 119.04v72.064H476.672v-72.128h72.128z m0 118.912V301.12H476.672v-72.128h72.128z m0 237.952V539.072H476.672v-72.128h72.128z m0 119.04V657.984H476.672v-72.128h72.128z m0 118.912V777.024H476.672v-72.128h72.128zM72.128 823.872V896H0.064v-72.128h72.128z m118.912 0V896H118.976v-72.128h72.128z m119.04 0V896H238.08v-72.128h72.128z m119.04 0V896H356.928v-72.128h72.128z m118.912 0V896H475.968v-72.128h72.128z m119.04 0V896H594.88v-72.128h72.128z m118.912 0V896h-72.128v-72.128h72.128z m118.976 0V896h-72.128v-72.128h72.128zM191.104 348.672V420.8H118.976v-72.128h72.128z m119.04 0V420.8H238.08v-72.128h72.128z m119.04 0V420.8H356.928v-72.128h72.128z m46.784 0l72.96-0.768V420.032l-72.96 0.832v-72.128z m191.104 0V420.8H594.944v-72.128h72.128z m119.04 0V420.8h-72.192v-72.128h72.128z m118.912 0V420.8h-72.128v-72.128h72.128zM956.224 896H1024v-67.776L550.4 354.688l-136.256-136.32-0.832-0.832-344.32-344.32H3.904v70.4l409.408 409.344V353.92h0.832v0.768h0.896l473.472 473.6z"  horiz-adv-x="1024" />

    
    <glyph glyph-name="you" unicode="&#59212;" d="M0 823.872V896h72.128v-72.128H0z m0-118.976V777.024h72.128v-72.128H0z m0-118.976V658.048h72.128v-72.128H0z m0-118.976V539.072h72.128v-72.128H0z m0-118.976V420.096h72.128v-72.128H0z m0-118.976V301.12h72.128v-72.128H0z m0-118.976v72.128h72.128v-72.128H0z m0-118.976v72.128h72.128v-72.128H0z m0-118.976v72.128h72.128v-72.128H0zM118.976-128v72.128h72.128V-128H118.976z m118.976 0v72.128h72.128V-128H237.952z m118.976 0v72.128h72.128V-128H356.928z m118.976 0v72.128h72.128V-128H475.904z m118.976 0v72.128h72.128V-128H594.88z m118.976 0v72.128h72.128V-128h-72.128z m118.976 0v72.128h72.128V-128h-72.128z m118.976 0v72.128h72.128V-128h-72.128z m0.064 119.04v72.128H1024v-72.128h-72.128z m0 119.04v72.064H1024v-72.128h-72.128z m0 118.912V301.12H1024v-72.128h-72.128z m0 119.04V420.032H1024v-72.128h-72.128z m0 118.912V539.072H1024v-72.128h-72.128z m0 119.04V657.984H1024v-72.128h-72.128z m0 118.912V777.024H1024v-72.128h-72.128zM475.072-8.96v72.128h72.192v-72.128H475.136z m0 119.04v72.064h72.192v-72.128H475.136z m0 118.912V301.12h72.192v-72.128H475.136z m0 237.952V539.072h72.192v-72.128H475.136z m0 119.04V657.984h72.192v-72.128H475.136z m0 118.912V777.024h72.192v-72.128H475.136z m476.736 118.976V896h72.128v-72.128h-72.128z m-118.912 0V896h72.128v-72.128h-72.128z m-119.04 0V896h72.128v-72.128h-72.128z m-119.04 0V896h72.192v-72.128H594.88z m-118.912 0V896h72.128v-72.128H475.904z m-119.04 0V896h72.192v-72.128H356.928z m-118.912 0V896h72.128v-72.128H237.952z m-118.976 0V896h72.128v-72.128H118.976z m713.92-475.2V420.8h72.128v-72.128h-72.128z m-119.04 0V420.8h72.128v-72.128h-72.128z m-119.04 0V420.8h72.192v-72.128H594.88z m-46.784 0l-72.96-0.768V420.032l72.96 0.832v-72.128z m-191.104 0V420.8h72.128v-72.128H356.928z m-119.04 0V420.8h72.192v-72.128H237.952z m-118.912 0V420.8h72.128v-72.128H118.976zM951.872-128V896H1024v-1024z"  horiz-adv-x="1024" />

    
    <glyph glyph-name="shujuyuan" unicode="&#59205;" d="M910.144 895.872a113.728 113.728 0 1 0-20.736-225.664l-286.976-615.424a113.728 113.728 0 1 0-179.968 1.216L135.936 670.528A113.728 113.728 0 1 0 224 810.56h576A113.728 113.728 0 0 0 910.08 895.872z m-79.936-194.752L622.72 581.12a114.048 114.048 0 0 0-82.24-136.768v-348.48c5.504-1.408 10.88-3.2 16-5.376l281.472 603.712a114.432 114.432 0 0 0-7.68 6.848zM187.2 695.04l281.664-604.032c4.736 1.92 9.6 3.584 14.656 4.864V444.416a113.728 113.728 0 0 0-82.368 135.936L193.088 700.48c-1.92-1.856-3.84-3.648-5.888-5.376z m612.8 58.56h-576l-1.28-4.736 204.8-118.208a113.6 113.6 0 0 0 168.32 0.768l205.184 118.4a112.64 112.64 0 0 0-1.024 3.776z"  horiz-adv-x="1024" />

    
    <glyph glyph-name="shuaxin" unicode="&#59230;" d="M1162.863023 543.254799l-148.32259-257.370412-260.588456 149.565926a57.778524 57.778524 0 0 0 15.212573 104.440167 58.656172 58.656172 0 0 0 43.15105-4.241968l87.472296-51.19616a395.307495 395.307495 0 0 1-160.536531 224.531731 399.476325 399.476325 0 0 1-249.983537 67.725207 398.891226 398.891226 0 0 1-239.159206-99.466826A394.429846 394.429846 0 0 1 123.434694 452.710732a392.893962 392.893962 0 0 1 39.128494-254.664328 396.55083 396.55083 0 0 1 188.548145-176.699891 399.915149 399.915149 0 0 1 476.12429 114.679399 8.776485 8.776485 0 0 0 11.70198 1.097061l79.939147-58.144211a8.557073 8.557073 0 0 0 2.194121-10.970605 517.666318 517.666318 0 0 0-617.645105-150.443574 513.058663 513.058663 0 0 0-244.571371 229.651347 508.085322 508.085322 0 0 0-49.733413 330.580921 510.279443 510.279443 0 0 0 166.241246 290.647916A516.349845 516.349845 0 0 0 486.854295 895.191832a517.008082 517.008082 0 0 0 323.706008-91.348577 511.230229 511.230229 0 0 0 202.809932-286.991047l48.197528 83.74229a58.363623 58.363623 0 0 0 79.719735 21.502388 57.778524 57.778524 0 0 0 21.575525-78.76895z"  horiz-adv-x="1170" />

    
    <glyph glyph-name="shanchu" unicode="&#59201;" d="M16.12863 699.136123h991.74338a16.06399 16.06399 0 0 0 16.12799-16.12799v-58.367963a16.06399 16.06399 0 0 0-16.12799-16.12799h-123.007923v-720.38355a16.06399 16.06399 0 0 0-16.12799-16.12799H154.688543a16.12799 16.12799 0 0 0-16.12799 16.12799V608.51218H16.12863A16.06399 16.06399 0 0 0 0.00064 624.64017v58.367963a16.06399 16.06399 0 0 0 16.12799 16.12799zM794.880143-37.439417V608.51218H229.120497v-645.951597h565.759646zM336.64043 896h350.71978c5.247997 0 9.599994-0.64 12.351993-3.391998 2.815998-2.751998 3.455998-7.167996 3.455998-12.415992v-58.943963c0-5.311997-0.64-9.663994-3.455998-12.415993-2.751998-2.815998-7.103996-3.391998-12.415993-3.391997H336.70443c-5.311997 0-9.663994 0.64-12.415993 3.391997-2.815998 2.751998-3.455998 7.103996-3.455998 12.415993v58.879963c0 5.311997 0.64 9.727994 3.455998 12.479992C327.040436 895.36 331.392433 896 336.64043 896zM426.048374 447.36028v-323.903797H335.36043V447.36028h90.623944z m263.679835 0v-323.903797H599.040266V447.36028h90.623943z"  horiz-adv-x="1024" />

    
    <glyph glyph-name="quanbuzhankai" unicode="&#59202;" d="M1143.729231 896v-853.385846h-116.814769V896zM916.716308 138.870154H1260.307692L1088.512-128zM871.345231 783.044923H0V896h871.345231zM871.345231 349.341538H0V462.296615h871.345231zM871.345231-84.361846H0v112.876308h871.345231z"  horiz-adv-x="1260" />

    
    <glyph glyph-name="quanbushouqi" unicode="&#59203;" d="M1143.729231-128V725.385846h-116.814769V-128zM916.716308 629.129846H1260.307692L1088.512 896zM871.345231 783.044923H0V896h871.345231zM871.345231 349.341538H0V462.296615h871.345231zM871.345231-84.361846H0v112.876308h871.345231z"  horiz-adv-x="1260" />

    
    <glyph glyph-name="charu" unicode="&#59204;" d="M1024 618.88H0V896h1024v-277.12zM67.52 686.4h888.96v142.08H67.52v-142.08zM1024-128H0v277.12h1024V-128zM67.52-60.48h888.96v142.08H67.52v-142.08zM280.64 349.376v-106.688L127.168 349.376h-4.736V352.64L77.312 384l45.12 31.36V418.56h4.736l153.472 106.688v-106.688h675.84V349.44H280.64z"  horiz-adv-x="1024" />

    
    <glyph glyph-name="kekuozhanquyuzhankaishouqi" unicode="&#59199;" d="M461.120618 400.858539L18.78395 803.773999a48.551228 48.551228 0 0 0 0 76.709233 70.992305 70.992305 0 0 0 90.532254-1.706545l402.232842-361.190416L913.781888 878.862014a70.992305 70.992305 0 0 0 90.446927 0c12.031148-9.556656 19.283967-23.891641 19.625276-39.250553a51.964319 51.964319 0 0 0-26.45146-43.346263L548.325108 397.530775a37.544007 37.544007 0 0 0-12.799094-6.826183 72.69885 72.69885 0 0 0-74.234741 10.239274z m452.66127-34.898861a70.992305 70.992305 0 0 0 90.446927 1.706546 51.878992 51.878992 0 0 0-4.266365-84.303362l-449.162851-398.649096a37.544007 37.544007 0 0 0-12.799093-6.826183 72.69885 72.69885 0 0 0-74.234742 10.239275L18.78395 290.956991a48.551228 48.551228 0 0 0 0 76.623905 70.992305 70.992305 0 0 0 90.532254 0l402.232842-361.190415 402.232842 359.48387z"  horiz-adv-x="1024" />

    
    <glyph glyph-name="shuzishangfan" unicode="&#59197;" d="M255.232-128c-140.8 0-174.848 80.384-74.496 180.736L843.264 715.264a254.976 254.976 0 0 0 361.472 0l662.528-662.528c99.84-99.84 64.768-180.736-74.496-180.736H255.232z"  horiz-adv-x="2048" />

    
    <glyph glyph-name="shuzixiafan" unicode="&#59198;" d="M1792.768 896c140.8 0 174.848-80.384 74.496-180.736L1204.736 52.736a254.976 254.976 0 0 0-361.472 0L180.736 715.264C80.896 815.104 115.968 896 255.232 896h1537.536z"  horiz-adv-x="2048" />

    
    <glyph glyph-name="zuheziduan" unicode="&#59196;" d="M686.421333 209.578667H0V896h686.421333v-686.421333z m-67.527111 67.527111V828.472889H67.527111v-551.367111h551.367111zM1024-128H337.578667V558.421333H1024V-128z m-67.527111 67.527111V490.894222H405.105778v-551.367111h551.367111z"  horiz-adv-x="1024" />

    
    <glyph glyph-name="xiala" unicode="&#59195;" d="M0 896h1536L768-128z"  horiz-adv-x="1536" />

    
    <glyph glyph-name="baocun" unicode="&#59156;" d="M1024-128H0V896h1024v-1024z m-67.52 67.52V828.48H67.52v-888.96h888.96zM855.296 490.752H168.32V839.744h67.52v-281.472h552V839.744h67.456zM170.112 250.752h686.976v-348.992h-67.52v281.472H237.632v-281.472H170.112zM714.56 783.488v-180.032H647.04V783.488z"  horiz-adv-x="1024" />

    
    </font>
</defs>
</svg>
