<?xml version="1.0" encoding="UTF-8"?>
<svg width="72px" height="72px" viewBox="0 0 72 72" version="1.1" xmlns="http://www.w3.org/2000/svg" xmlns:xlink="http://www.w3.org/1999/xlink">
    <title>组织结构定义</title>
    <g id="组织结构定义" stroke="none" stroke-width="1" fill="none" fill-rule="evenodd">
        <path d="M10,34 C11.3807119,34 12.5,35.1192881 12.5,36.5 C12.5,49.754834 23.245166,60.5 36.5,60.5 C42.8728267,60.5 48.8459692,58.0084033 53.3050167,53.6345204 C54.2906949,52.6676679 55.8735338,52.6829292 56.8403862,53.6686074 C57.8072387,54.6542856 57.7919774,56.2371245 56.8062992,57.203977 C51.4216902,62.4857439 44.1955684,65.5 36.5,65.5 C20.4837423,65.5 7.5,52.5162577 7.5,36.5 C7.5,35.1192881 8.61928813,34 10,34 Z M36.5,7.5 C52.5162577,7.5 65.5,20.4837423 65.5,36.5 C65.5,39.2660713 65.2387619,41.5138045 64.6000956,43.8603068 C64.2374875,45.1925533 62.8635364,45.9786004 61.5312899,45.6159923 C60.1990435,45.2533842 59.4129963,43.8794331 59.7756044,42.5471866 C60.2893387,40.6596927 60.5,38.8471303 60.5,36.5 C60.5,23.245166 49.754834,12.5 36.5,12.5 C28.0387919,12.5 20.3416086,16.9117666 16.0076486,24.0001469 C15.2874136,25.1781226 13.7486098,25.5491948 12.5706341,24.8289598 C11.3926583,24.1087248 11.0215862,22.5699209 11.7418212,21.3919452 C16.9750157,12.8328276 26.2791688,7.5 36.5,7.5 Z" id="形状" fill="#60759C" fill-rule="nonzero" transform="translate(36.500000, 36.500000) rotate(-23.000000) translate(-36.500000, -36.500000) "></path>
        <path d="M44.7459896,35.705625 L37.0143229,35.705625 L37.0143229,32.9072917 C37.0143229,32.355625 36.5659896,31.9072917 36.0143229,31.9072917 C35.4626563,31.9072917 35.0143229,32.355625 35.0143229,32.9072917 L35.0143229,35.705625 L27.1193229,35.705625 C25.8126563,35.705625 24.7476563,36.7689583 24.7476563,38.0772917 L24.7476563,42.865625 C24.7476563,43.4172917 25.1959896,43.865625 25.7476563,43.865625 C26.2993229,43.865625 26.7476563,43.4172917 26.7476563,42.865625 L26.7476563,38.0772917 C26.7476563,37.8722917 26.9143229,37.705625 27.1193229,37.705625 L35.0143229,37.705625 L35.0143229,42.7372917 C35.0143229,43.2889583 35.4626563,43.7372917 36.0143229,43.7372917 C36.5659896,43.7372917 37.0143229,43.2889583 37.0143229,42.7372917 L37.0143229,37.705625 L44.7459896,37.705625 C44.9509896,37.705625 45.1176563,37.8722917 45.1176563,38.0772917 L45.1176563,42.865625 C45.1176563,43.4172917 45.5659896,43.865625 46.1176563,43.865625 C46.6693229,43.865625 47.1176563,43.4172917 47.1176563,42.865625 L47.1176563,38.0772917 C47.1176563,36.7689583 46.0543229,35.705625 44.7459896,35.705625 L44.7459896,35.705625 Z" id="路径" fill="#60759C" fill-rule="nonzero"></path>
        <path d="M47.9693229,41.530625 C48.7662395,41.530625 49.4888125,41.8545434 50.0121085,42.3778394 C50.5195471,42.885278 50.8395084,43.5800991 50.858434,44.3483863 L50.8593229,44.420625 L50.8593229,47.5139583 C50.8593229,48.3108749 50.5354045,49.0334479 50.0121085,49.5567439 C49.50467,50.0641825 48.8098488,50.3841438 48.0415616,50.4030695 L47.9693229,50.4039583 L44.2659896,50.4039583 C43.469073,50.4039583 42.7465,50.0800399 42.223204,49.5567439 C41.7157654,49.0493054 41.3958041,48.3544842 41.3768785,47.586197 L41.3759896,47.5139583 L41.3759896,44.420625 C41.3759896,43.6237084 41.699908,42.9011354 42.223204,42.3778394 C42.7306425,41.8704009 43.4254637,41.5504395 44.1937509,41.5315139 L44.2659896,41.530625 L47.9693229,41.530625 Z M47.9693229,44.1989583 L44.2659896,44.1989583 L44.2400087,44.2004772 C44.1888692,44.2064933 44.1429954,44.2300237 44.1083585,44.2646606 C44.0679488,44.3050703 44.0426562,44.3607747 44.0426562,44.4222917 L44.0426562,44.4222917 L44.0426562,47.515625 L44.0441751,47.5416059 C44.0501912,47.5927454 44.0737217,47.6386192 44.1083585,47.6732561 C44.1487682,47.7136657 44.2044726,47.7389583 44.2659896,47.7389583 L44.2659896,47.7389583 L47.9693229,47.7389583 L47.9953038,47.7374395 C48.0464433,47.7314234 48.0923171,47.7078929 48.126954,47.6732561 C48.1673637,47.6328464 48.1926562,47.577142 48.1926562,47.515625 L48.1926562,47.515625 L48.1926562,44.4222917 L48.1911374,44.3963108 C48.1851213,44.3451713 48.1615908,44.2992974 48.126954,44.2646606 C48.0865443,44.2242509 48.0308399,44.1989583 47.9693229,44.1989583 L47.9693229,44.1989583 Z M37.8659896,41.530625 C38.6629061,41.530625 39.3854792,41.8545434 39.9087752,42.3778394 C40.4162137,42.885278 40.7361751,43.5800991 40.7551007,44.3483863 L40.7559896,44.420625 L40.7559896,47.5139583 C40.7559896,48.3108749 40.4320712,49.0334479 39.9087752,49.5567439 C39.4013366,50.0641825 38.7065155,50.3841438 37.9382283,50.4030695 L37.8659896,50.4039583 L34.1626562,50.4039583 C33.3657397,50.4039583 32.6431667,50.0800399 32.1198707,49.5567439 C31.6124321,49.0493054 31.2924708,48.3544842 31.2735451,47.586197 L31.2726562,47.5139583 L31.2726562,44.420625 C31.2726562,43.6237084 31.5965746,42.9011354 32.1198707,42.3778394 C32.6273092,41.8704009 33.3221304,41.5504395 34.0904176,41.5315139 L34.1626562,41.530625 L37.8659896,41.530625 Z M37.8659896,44.1989583 L34.1626562,44.1989583 L34.1366753,44.2004772 C34.0855359,44.2064933 34.039662,44.2300237 34.0050252,44.2646606 C33.9646155,44.3050703 33.9393229,44.3607747 33.9393229,44.4222917 L33.9393229,44.4222917 L33.9393229,47.515625 L33.9408418,47.5416059 C33.9468579,47.5927454 33.9703883,47.6386192 34.0050252,47.6732561 C34.0454348,47.7136657 34.1011393,47.7389583 34.1626562,47.7389583 L34.1626562,47.7389583 L37.8659896,47.7389583 L37.8919705,47.7374395 C37.94311,47.7314234 37.9889838,47.7078929 38.0236207,47.6732561 C38.0640303,47.6328464 38.0893229,47.577142 38.0893229,47.515625 L38.0893229,47.515625 L38.0893229,44.4222917 L38.0878041,44.3963108 C38.0817879,44.3451713 38.0582575,44.2992974 38.0236207,44.2646606 C37.983211,44.2242509 37.9275065,44.1989583 37.8659896,44.1989583 L37.8659896,44.1989583 Z M27.5993229,41.530625 C28.3962395,41.530625 29.1188125,41.8545434 29.6421085,42.3778394 C30.1495471,42.885278 30.4695084,43.5800991 30.488434,44.3483863 L30.4893229,44.420625 L30.4893229,47.5139583 C30.4893229,48.3108749 30.1654045,49.0334479 29.6421085,49.5567439 C29.13467,50.0641825 28.4398488,50.3841438 27.6715616,50.4030695 L27.5993229,50.4039583 L23.8959896,50.4039583 C23.099073,50.4039583 22.3765,50.0800399 21.853204,49.5567439 C21.3457654,49.0493054 21.0258041,48.3544842 21.0068785,47.586197 L21.0059896,47.5139583 L21.0059896,44.420625 C21.0059896,43.6237084 21.329908,42.9011354 21.853204,42.3778394 C22.3606425,41.8704009 23.0554637,41.5504395 23.8237509,41.5315139 L23.8959896,41.530625 L27.5993229,41.530625 Z M27.5993229,44.1989583 L23.8959896,44.1989583 L23.8700087,44.2004772 C23.8188692,44.2064933 23.7729954,44.2300237 23.7383585,44.2646606 C23.6979488,44.3050703 23.6726562,44.3607747 23.6726562,44.4222917 L23.6726562,44.4222917 L23.6726562,47.515625 L23.6741751,47.5416059 C23.6801912,47.5927454 23.7037217,47.6386192 23.7383585,47.6732561 C23.7787682,47.7136657 23.8344726,47.7389583 23.8959896,47.7389583 L23.8959896,47.7389583 L27.5993229,47.7389583 L27.6253038,47.7374395 C27.6764433,47.7314234 27.7223171,47.7078929 27.756954,47.6732561 C27.7973637,47.6328464 27.8226562,47.577142 27.8226562,47.515625 L27.8226562,47.515625 L27.8226562,44.4222917 L27.8211374,44.3963108 C27.8151213,44.3451713 27.7915908,44.2992974 27.756954,44.2646606 C27.7165443,44.2242509 27.6608399,44.1989583 27.5993229,44.1989583 L27.5993229,44.1989583 Z M38.2393229,22.0222917 C39.3187261,22.0222917 40.2975566,22.4612042 41.0064835,23.1701311 C41.6985312,23.8621788 42.1332693,24.8114305 42.1535787,25.8603648 L42.1543229,25.9372917 L42.1543229,29.7939583 C42.1543229,30.8733615 41.7154104,31.852192 41.0064835,32.5611189 C40.3144358,33.2531666 39.3651841,33.6879047 38.3162498,33.7082142 L38.2393229,33.7089583 L33.4943229,33.7089583 C32.4149197,33.7089583 31.4360892,33.2700458 30.7271623,32.5611189 C30.0351146,31.8690712 29.6003766,30.9198195 29.5800671,29.8708852 L29.5793229,29.7939583 L29.5793229,25.9372917 C29.5793229,24.8578885 30.0182354,23.879058 30.7271623,23.1701311 C31.41921,22.4780834 32.3684617,22.0433453 33.417396,22.0230358 L33.4943229,22.0222917 L38.2393229,22.0222917 Z M33.4942058,24.6872916 C33.1503407,24.6872916 32.8383669,24.8275689 32.6123168,25.0536189 C32.3862668,25.2796689 32.2459896,25.5916427 32.2459896,25.935625 L32.2459896,25.935625 L32.2459896,29.7922917 L32.2470348,29.8436422 C32.2602317,30.1672565 32.3975693,30.4595502 32.6123168,30.6742977 C32.8383669,30.9003478 33.1503407,31.040625 33.4943229,31.040625 L33.4943229,31.040625 L38.2393229,31.040625 L38.2907415,31.0395814 C38.6147604,31.0264059 38.9069658,30.8892861 39.1215438,30.6747081 C39.3476418,30.4486101 39.4876562,30.1364496 39.4876562,29.7922917 L39.4876562,29.7922917 L39.4876562,25.9372917 L39.4866127,25.8858731 C39.4734371,25.5618542 39.3363173,25.2696488 39.1217393,25.0550708 C38.8956413,24.8289728 38.5834808,24.6889583 38.2393229,24.6889583 L38.2393229,24.6889583 L33.4942058,24.6872916 Z" id="形状" fill="#60759C" fill-rule="nonzero"></path>
    </g>
</svg>