<?xml version="1.0" encoding="UTF-8"?>
<svg width="72px" height="72px" viewBox="0 0 72 72" version="1.1" xmlns="http://www.w3.org/2000/svg" xmlns:xlink="http://www.w3.org/1999/xlink">
    <title>组织月结</title>
    <g id="组织月结" stroke="none" stroke-width="1" fill="none" fill-rule="evenodd">
        <path d="M30,12.5 C31.3807119,12.5 32.5,13.6192881 32.5,15 C32.5,16.3254834 31.4684641,17.4100387 30.1643757,17.4946823 L30,17.5 L17.7037037,17.5 C14.9034679,17.5 12.6198335,19.7118335 12.5045651,22.4837358 L12.5,22.7037037 L12.5,54.2962963 C12.5,57.0965321 14.7118335,59.3801665 17.4837358,59.4954349 L17.7037037,59.5 L54.2962963,59.5 C57.0965321,59.5 59.3801665,57.2881665 59.4954349,54.5162642 L59.5,54.2962963 L59.5,46.6045476 C59.5,45.2238358 60.6192881,44.1045476 62,44.1045476 C63.3254834,44.1045476 64.4100387,45.1360836 64.4946823,46.440172 L64.5,46.6045476 L64.5,54.2962963 C64.5,59.8377237 60.0826557,64.3474252 54.5771584,64.4962092 L54.2962963,64.5 L17.7037037,64.5 C12.1622763,64.5 7.65257485,60.0826557 7.50379075,54.5771584 L7.5,54.2962963 L7.5,22.7037037 C7.5,17.1622763 11.9173443,12.6525748 17.4228416,12.5037908 L17.7037037,12.5 L30,12.5 Z" id="路径" fill="#60759C" fill-rule="nonzero" transform="translate(36.000000, 38.500000) scale(1, -1) translate(-36.000000, -38.500000) "></path>
        <rect id="矩形" stroke="#60759C" stroke-width="4" fill="#D8D8D8" transform="translate(28.000000, 42.593345) scale(1, -1) translate(-28.000000, -42.593345) " x="22" y="42.0933449" width="12" height="1" rx="0.5"></rect>
        <rect id="矩形备份-2" stroke="#60759C" stroke-width="4" fill="#D8D8D8" transform="translate(25.000000, 14.500000) scale(1, -1) rotate(90.000000) translate(-25.000000, -14.500000) " x="20" y="14" width="10" height="1" rx="0.5"></rect>
        <rect id="矩形备份-3" stroke="#60759C" stroke-width="4" fill="#D8D8D8" transform="translate(47.000000, 14.500000) scale(1, -1) rotate(90.000000) translate(-47.000000, -14.500000) " x="42" y="14" width="10" height="1" rx="0.5"></rect>
        <rect id="矩形备份" stroke="#60759C" stroke-width="4" fill="#D8D8D8" transform="translate(36.000000, 27.593345) scale(1, -1) translate(-36.000000, -27.593345) " x="12" y="27.0933449" width="48" height="1" rx="0.5"></rect>
        <path d="M53,38 C45.2680135,38 39,44.2680135 39,52 C39,59.7319865 45.2680135,66 53,66 C60.7319865,66 67,59.7319865 67,52 C67,44.2680135 60.7319865,38 53,38 Z M53,42 C58.5228475,42 63,46.4771525 63,52 C63,57.5228475 58.5228475,62 53,62 C47.4771525,62 43,57.5228475 43,52 C43,46.4771525 47.4771525,42 53,42 Z" id="椭圆形" fill="#60759C" fill-rule="nonzero"></path>
        <path d="M57.7058167,53.7833257 C57.8488169,53.9544053 57.9307664,54.1587658 57.9489167,54.3964059 C57.9307667,54.6434061 57.8488166,54.8498461 57.7058167,55.0152066 C57.562266,55.1816068 57.3670158,55.2736466 57.117316,55.2934069 L54.3629085,55.2793669 L54.3629085,56.7894507 C54.3255085,57.5964914 53.8800077,58.0000123 53.0286064,58.0000123 C52.6078559,58.0000123 52.2806056,57.9012122 52.0463047,57.701012 C51.8109042,57.5018515 51.6844041,57.1981717 51.6662538,56.7894507 L51.6662538,55.3074489 L48.8964446,55.3074489 C48.6390441,55.2887289 48.4399441,55.1816088 48.3018934,54.9871281 L48.3018934,54.987128 C48.1634224,54.7937465 48.0769544,54.5713408 48.0499928,54.3392068 C48.0791428,54.102086 48.1627429,53.9076063 48.3018934,53.7552458 C48.4393935,53.6034059 48.639044,53.5176058 48.8964446,53.498366 L51.6662537,53.498366 L51.6662537,52.0808439 L48.8964446,52.0668039 C48.639044,52.0475638 48.4399441,51.9576037 48.3018934,51.7964036 C48.1627429,51.6341636 48.0791431,51.4298031 48.0499928,51.1828028 C48.0791428,50.9456821 48.1627429,50.7512023 48.3018934,50.5988419 C48.4393935,50.447002 48.639044,50.3617211 48.8964446,50.3424814 L50.9628008,50.3424814 L49.0400007,46.981203 L49.0400007,46.981203 C48.9313987,46.8468814 48.8398399,46.7009778 48.7671998,46.546482 L48.7671998,46.5464819 C48.6803889,46.3656205 48.6411394,46.1675886 48.6527997,45.9692813 C48.7000997,45.7030412 48.7963504,45.487241 48.9388,45.3208408 C49.0828999,45.1549611 49.3513005,45.0478405 49.7429007,45.0005199 C49.9722507,45.0192399 50.1785009,45.09828 50.3600011,45.2360804 C50.5415013,45.3733601 50.6900015,45.5231205 50.8055016,45.6843207 L52.9856983,49.6451612 L55.3815043,45.6562386 C55.4959044,45.4950384 55.644954,45.3520383 55.8270048,45.2287984 C56.008505,45.1039984 56.2136555,45.0285982 56.4430055,44.9999981 C56.5871054,45.0093581 56.7180058,45.0285982 56.8379062,45.0566782 C56.9561564,45.0857982 57.0623068,45.1331183 57.1536061,45.2001989 C57.2438062,45.2662389 57.3208057,45.361399 57.3829561,45.4846389 C57.4451061,45.6078791 57.4896562,45.7695995 57.518806,45.9692792 C57.518806,46.2448796 57.4236558,46.5059196 57.2322551,46.7529199 L55.0086063,50.3430061 L57.1178641,50.3430061 C57.3664641,50.3617261 57.5628141,50.4475262 57.705265,50.5993667 C57.8482652,50.7517271 57.9302148,50.9462068 57.9494648,51.1833276 C57.9302148,51.4308484 57.8466147,51.6398884 57.6986639,51.8104488 C57.5501638,51.9810093 57.3521635,52.0756491 57.103013,52.0954094 L54.3623555,52.1094494 L54.3623555,53.498369 L57.116763,53.498369 C57.3664628,53.517609 57.561713,53.6127692 57.7052637,53.7833296 L57.7058167,53.7833257 Z" id="路径" fill="#60759C" fill-rule="nonzero"></path>
    </g>
</svg>