<?xml version="1.0" encoding="UTF-8"?>
<svg width="72px" height="72px" viewBox="0 0 72 72" version="1.1" xmlns="http://www.w3.org/2000/svg" xmlns:xlink="http://www.w3.org/1999/xlink">
    <title>业务委托关系定义</title>
    <g id="业务委托关系定义" stroke="none" stroke-width="1" fill="none" fill-rule="evenodd">
        <path d="M26.3699879,36.9538347 C26.0102753,37.0468477 25.6132146,37.1677775 25.1815308,37.3132244 L24.9628162,37.3879752 C24.7428597,37.464177 24.5162479,37.5457022 24.2841744,37.6318412 C23.805091,37.8096634 23.3240426,37.9990337 22.8625271,38.1883625 L22.2496546,38.4452816 L21.0419145,38.9682546 L21.0016743,40.3807835 L21,40.6814467 C21.0009847,40.9481808 21.0082874,41.2539893 21.0246683,41.5885273 C21.0588954,42.2875288 21.1271668,42.9804573 21.2396912,43.6435125 C21.6112844,45.8331435 22.3406501,47.403285 23.9849571,48.0738989 C24.3533022,48.2282023 24.6442236,48.2809446 25.3060632,48.3358475 L26.5660074,48.427398 C26.833656,48.4471983 27.0648103,48.4663514 27.2801756,48.4871281 L27.4390627,48.5030506 C27.8808616,48.5490379 28.2507282,48.6029028 28.552096,48.6668119 L30.1436299,48.9917399 L32.6857689,49.4901852 C32.9530354,49.5437645 33.2031841,49.5948412 33.4683089,49.6499549 L34.514514,49.8845864 C34.9565106,49.9812743 35.2969137,50.040939 35.6547236,50.0756781 C36.4076862,50.1487819 37.1286709,50.0903731 37.9330695,49.8807575 C39.3248381,49.5205853 42.1864832,47.9484324 43.4218457,47.0610199 L44.0138045,46.622923 C44.6443776,46.1518046 45.4643484,45.5280784 46.2282559,44.9334375 L46.7092011,44.5569628 C48.8383683,42.8800891 49.8037154,42.0428161 50.1870759,41.3039713 C50.9237656,39.806299 50.2560949,38.4391532 49.0682346,37.6337826 C48.301076,37.1136482 47.2979222,36.8198993 46.3591383,36.853265 C45.4310544,36.8798798 44.0474608,37.24696 42.1102274,37.8950016 L41.5405656,38.0885509 L41.2479984,38.1900946 C40.6152051,38.4111732 39.9707179,38.6453267 39.3083472,38.8926447 L38.0791095,39.3578622 L37.3138228,39.6492265 L37.02888,39.6102836 L36.571361,39.5537341 C36.4440501,39.5375893 36.3407282,39.5233262 36.2460521,39.5085824 C36.0717376,39.4814365 35.9340302,39.4535271 35.8283812,39.4243935 C35.044917,39.2120781 34.4734279,38.9346567 33.7155688,38.2965419 L33.561394,38.1640221 C31.8220901,36.6267442 28.8085326,36.3232861 26.3699879,36.9538347 Z M29.9595498,40.4318261 C30.9534659,40.1694693 32.5902869,40.1854666 33.4271717,40.9405425 C34.262209,41.6876197 34.9069613,41.9259805 35.4390205,42.0731563 C35.9618426,42.2203321 36.615832,42.2203321 36.8947936,42.3355132 C37.1737552,42.452294 37.8277446,43.468127 36.7377622,43.7848749 C35.6477798,44.1000231 33.8797915,43.7224852 33.3218683,43.6073041 C32.7639451,43.4905233 32.3020882,43.3209512 32.2060219,43.2905562 L32.1892949,43.2889308 C32.0852717,43.2913341 31.9201985,43.5114913 33.6266939,44.2775939 C34.9439099,44.770313 36.6065949,44.5463498 37.1386541,44.3463826 C37.7483052,44.1160205 38.149197,43.7304839 38.200925,43.2521625 C38.2803644,42.519483 37.9921657,42.3275145 37.7483052,41.9883703 L38.5947467,41.6616261 C39.8416014,41.187401 41.9295845,40.4311114 42.7234282,40.4078301 C43.3848073,40.383834 44.212455,40.8701541 43.9759842,41.3612733 C43.724734,41.8555921 40.4751086,44.3367842 39.9689134,44.7143222 L39.8849065,44.7737198 C39.3500145,45.1417458 37.6541392,46.1624498 36.831981,46.3796484 C35.9599951,46.6116103 35.4907485,46.4180421 34.5319335,46.2100763 L33.9636255,46.0918504 C33.2956689,45.955497 32.7050158,45.8431771 31.967445,45.6907488 L31.3266463,45.5557838 C30.2994765,45.3334204 28.8621777,45.3558167 28.573979,45.232637 C27.3713035,44.7319193 27.4673697,41.3564741 27.4673697,41.3564741 L27.6951463,41.2581769 C28.1522376,41.0637694 29.2022803,40.6317171 29.9595498,40.4318261 Z" id="路径" fill="#60759C" fill-rule="nonzero" transform="translate(35.747624, 43.375501) scale(-1, 1) translate(-35.747624, -43.375501) "></path>
        <path d="M37.9271667,22 C38.4667864,22 38.9926699,22.153405 39.4449612,22.4387169 L39.4449612,22.4387169 L47.3039469,26.303012 C48.0919874,26.9332479 48.4605046,27.6894493 48.5010649,28.4902789 L48.5010649,28.4902789 L48.5046895,38.2092265 C48.5046895,38.7091394 48.3020597,39.1617256 47.9744518,39.4893336 C47.6468438,39.8169415 47.1942576,40.0195713 46.6943447,40.0195713 C46.2159569,40.0195713 45.7809264,39.8339922 45.4572518,39.5309547 C45.127228,39.2219729 44.9132122,38.7907816 44.8867546,38.309703 L44.8867546,38.309703 L44.8842556,29.1495626 L37.7590148,25.6577954 L27.7241676,25.6206897 L27.4655469,37.3171774 C27.4655469,37.8170903 27.2629172,38.2696765 26.9353092,38.5972845 C26.6077012,38.9248925 26.155115,39.1275222 25.6552021,39.1275222 C25.1768143,39.1275222 24.7417838,38.9419431 24.4181092,38.6389056 C24.0880832,38.3299217 23.8740668,37.8987269 23.8476114,37.4176444 L23.8476114,37.4176444 L23.8448572,25.8793103 C23.8448572,24.8332382 24.2589119,23.8838811 24.9320401,23.1861525 C25.6097085,22.4837177 26.5500072,22.0364622 27.5947325,22.0021241 L27.5947325,22.0021241 L37.9271667,22 Z" id="路径" fill="#60759C" fill-rule="nonzero"></path>
        <path d="M38.5373083,24.2437092 L38.5373083,28.3816403 C38.5373083,28.586605 38.6167635,28.7730248 38.74661,28.911714 C38.8740984,29.0478845 39.0500739,29.1382656 39.2471292,29.1547591 L39.2471292,29.1547591 L46.8620986,29.1577022 L46.8620986,32.778192 L39.3131704,32.778192 C38.1248373,32.778192 37.0466276,32.306726 36.2553565,31.5406701 C35.459559,30.7702321 34.9541246,29.7017793 34.9186161,28.5153005 L34.9186161,28.5153005 L34.9163434,24.2437092 L38.5373083,24.2437092 Z" id="路径-6" fill="#60759C" fill-rule="nonzero"></path>
        <path d="M10,34 C11.3807119,34 12.5,35.1192881 12.5,36.5 C12.5,49.754834 23.245166,60.5 36.5,60.5 C42.8728267,60.5 48.8459692,58.0084033 53.3050167,53.6345204 C54.2906949,52.6676679 55.8735338,52.6829292 56.8403862,53.6686074 C57.8072387,54.6542856 57.7919774,56.2371245 56.8062992,57.203977 C51.4216902,62.4857439 44.1955684,65.5 36.5,65.5 C20.4837423,65.5 7.5,52.5162577 7.5,36.5 C7.5,35.1192881 8.61928813,34 10,34 Z M36.5,7.5 C52.5162577,7.5 65.5,20.4837423 65.5,36.5 C65.5,39.2660713 65.2387619,41.5138045 64.6000956,43.8603068 C64.2374875,45.1925533 62.8635364,45.9786004 61.5312899,45.6159923 C60.1990435,45.2533842 59.4129963,43.8794331 59.7756044,42.5471866 C60.2893387,40.6596927 60.5,38.8471303 60.5,36.5 C60.5,23.245166 49.754834,12.5 36.5,12.5 C28.0387919,12.5 20.3416086,16.9117666 16.0076486,24.0001469 C15.2874136,25.1781226 13.7486098,25.5491948 12.5706341,24.8289598 C11.3926583,24.1087248 11.0215862,22.5699209 11.7418212,21.3919452 C16.9750157,12.8328276 26.2791688,7.5 36.5,7.5 Z" id="形状" fill="#60759C" fill-rule="nonzero" transform="translate(36.500000, 36.500000) rotate(-23.000000) translate(-36.500000, -36.500000) "></path>
    </g>
</svg>