<?xml version="1.0" encoding="UTF-8"?>
<svg width="72px" height="72px" viewBox="0 0 72 72" version="1.1" xmlns="http://www.w3.org/2000/svg" xmlns:xlink="http://www.w3.org/1999/xlink">
    <title>组织结构图</title>
    <g id="组织结构图" stroke="none" stroke-width="1" fill="none" fill-rule="evenodd">
        <path d="M52.3258472,34.5838333 L37.8934028,34.5838333 L37.8934028,29.3602778 C37.8934028,28.3305 37.0565139,27.4936111 36.0267361,27.4936111 C34.9969583,27.4936111 34.1600694,28.3305 34.1600694,29.3602778 L34.1600694,34.5838333 L19.4227361,34.5838333 C16.983625,34.5838333 14.995625,36.5687222 14.995625,39.0109444 L14.995625,47.9491667 C14.995625,48.9789444 15.8325139,49.8158333 16.8622917,49.8158333 C17.8920694,49.8158333 18.7289583,48.9789444 18.7289583,47.9491667 L18.7289583,39.0109444 C18.7289583,38.6282778 19.0400694,38.3171667 19.4227361,38.3171667 L34.1600694,38.3171667 L34.1600694,47.7096111 C34.1600694,48.7393889 34.9969583,49.5762778 36.0267361,49.5762778 C37.0565139,49.5762778 37.8934028,48.7393889 37.8934028,47.7096111 L37.8934028,38.3171667 L52.3258472,38.3171667 C52.7085139,38.3171667 53.019625,38.6282778 53.019625,39.0109444 L53.019625,47.9491667 C53.019625,48.9789444 53.8565139,49.8158333 54.8862917,49.8158333 C55.9160694,49.8158333 56.7529583,48.9789444 56.7529583,47.9491667 L56.7529583,39.0109444 C56.7529583,36.5687222 54.7680694,34.5838333 52.3258472,34.5838333 L52.3258472,34.5838333 Z" id="路径" fill="#60759C" fill-rule="nonzero"></path>
        <path d="M58.3427361,45.4571667 C59.8303137,45.4571667 61.1791167,46.0618143 62.1559359,47.0386336 C63.1031545,47.9858522 63.7004157,49.2828517 63.7357436,50.7169878 L63.7374028,50.8518333 L63.7374028,56.6260556 C63.7374028,58.1136331 63.1327551,59.4624361 62.1559359,60.4392553 C61.2087173,61.386474 59.9117177,61.9837352 58.4775816,62.019063 L58.3427361,62.0207222 L51.4298472,62.0207222 C49.9422696,62.0207222 48.5934667,61.4160745 47.6166474,60.4392553 C46.6694288,59.4920367 46.0721676,58.1950372 46.0368398,56.7609011 L46.0351806,56.6260556 L46.0351806,50.8518333 C46.0351806,49.3642558 46.6398282,48.0154528 47.6166474,47.0386336 C48.5638661,46.0914149 49.8608656,45.4941537 51.2950017,45.4588259 L51.4298472,45.4571667 L58.3427361,45.4571667 Z M58.3427361,50.4380556 L51.4298472,50.4380556 L51.3813495,50.4408908 C51.2858892,50.4521208 51.200258,50.4960443 51.1356026,50.5606998 C51.0601712,50.6361311 51.0129583,50.7401128 51.0129583,50.8549444 L51.0129583,50.8549444 L51.0129583,56.6291667 L51.0157935,56.6776643 C51.0270236,56.7731247 51.0709471,56.8587559 51.1356026,56.9234113 C51.2110339,56.9988427 51.3150156,57.0460556 51.4298472,57.0460556 L51.4298472,57.0460556 L58.3427361,57.0460556 L58.3912338,57.0432203 C58.4866942,57.0319903 58.5723253,56.9880668 58.6369808,56.9234113 C58.7124121,56.84798 58.759625,56.7439983 58.759625,56.6291667 L58.759625,56.6291667 L58.759625,50.8549444 L58.7567898,50.8064468 C58.7455597,50.7109864 58.7016362,50.6253552 58.6369808,50.5606998 C58.5615494,50.4852684 58.4575678,50.4380556 58.3427361,50.4380556 L58.3427361,50.4380556 Z M39.4831806,45.4571667 C40.9707581,45.4571667 42.3195611,46.0618143 43.2963803,47.0386336 C44.243599,47.9858522 44.8408602,49.2828517 44.876188,50.7169878 L44.8778472,50.8518333 L44.8778472,56.6260556 C44.8778472,58.1136331 44.2731995,59.4624361 43.2963803,60.4392553 C42.3491617,61.386474 41.0521622,61.9837352 39.6180261,62.019063 L39.4831806,62.0207222 L32.5702917,62.0207222 C31.0827141,62.0207222 29.7339111,61.4160745 28.7570919,60.4392553 C27.8098733,59.4920367 27.2126121,58.1950372 27.1772842,56.7609011 L27.175625,56.6260556 L27.175625,50.8518333 C27.175625,49.3642558 27.7802727,48.0154528 28.7570919,47.0386336 C29.7043105,46.0914149 31.00131,45.4941537 32.4354461,45.4588259 L32.5702917,45.4571667 L39.4831806,45.4571667 Z M39.4831806,50.4380556 L32.5702917,50.4380556 L32.521794,50.4408908 C32.4263336,50.4521208 32.3407025,50.4960443 32.276047,50.5606998 C32.2006156,50.6361311 32.1534028,50.7401128 32.1534028,50.8549444 L32.1534028,50.8549444 L32.1534028,56.6291667 L32.156238,56.6776643 C32.1674681,56.7731247 32.2113915,56.8587559 32.276047,56.9234113 C32.3514784,56.9988427 32.45546,57.0460556 32.5702917,57.0460556 L32.5702917,57.0460556 L39.4831806,57.0460556 L39.5316782,57.0432203 C39.6271386,57.0319903 39.7127698,56.9880668 39.7774252,56.9234113 C39.8528566,56.84798 39.9000694,56.7439983 39.9000694,56.6291667 L39.9000694,56.6291667 L39.9000694,50.8549444 L39.8972342,50.8064468 C39.8860042,50.7109864 39.8420807,50.6253552 39.7774252,50.5606998 C39.7019939,50.4852684 39.5980122,50.4380556 39.4831806,50.4380556 L39.4831806,50.4380556 Z M20.3187361,45.4571667 C21.8063137,45.4571667 23.1551167,46.0618143 24.1319359,47.0386336 C25.0791545,47.9858522 25.6764157,49.2828517 25.7117436,50.7169878 L25.7134028,50.8518333 L25.7134028,56.6260556 C25.7134028,58.1136331 25.1087551,59.4624361 24.1319359,60.4392553 C23.1847173,61.386474 21.8877177,61.9837352 20.4535816,62.019063 L20.3187361,62.0207222 L13.4058472,62.0207222 C11.9182696,62.0207222 10.5694667,61.4160745 9.59264745,60.4392553 C8.64542881,59.4920367 8.04816762,58.1950372 8.01283978,56.7609011 L8.01118056,56.6260556 L8.01118056,50.8518333 C8.01118056,49.3642558 8.61582823,48.0154528 9.59264745,47.0386336 C10.5398661,46.0914149 11.8368656,45.4941537 13.2710017,45.4588259 L13.4058472,45.4571667 L20.3187361,45.4571667 Z M20.3187361,50.4380556 L13.4058472,50.4380556 L13.3573495,50.4408908 C13.2618892,50.4521208 13.176258,50.4960443 13.1116026,50.5606998 C13.0361712,50.6361311 12.9889583,50.7401128 12.9889583,50.8549444 L12.9889583,50.8549444 L12.9889583,56.6291667 L12.9917935,56.6776643 C13.0030236,56.7731247 13.0469471,56.8587559 13.1116026,56.9234113 C13.1870339,56.9988427 13.2910156,57.0460556 13.4058472,57.0460556 L13.4058472,57.0460556 L20.3187361,57.0460556 L20.3672338,57.0432203 C20.4626942,57.0319903 20.5483253,56.9880668 20.6129808,56.9234113 C20.6884121,56.84798 20.735625,56.7439983 20.735625,56.6291667 L20.735625,56.6291667 L20.735625,50.8549444 L20.7327898,50.8064468 C20.7215597,50.7109864 20.6776362,50.6253552 20.6129808,50.5606998 C20.5375494,50.4852684 20.4335678,50.4380556 20.3187361,50.4380556 L20.3187361,50.4380556 Z M40.1800694,9.04161111 C42.1949554,9.04161111 44.0221056,9.86091443 45.3454359,11.1842447 C46.6372583,12.476067 47.4487693,14.2480036 47.4866803,16.2060142 L47.4880694,16.3496111 L47.4880694,23.5487222 C47.4880694,25.5636082 46.6687661,27.3907584 45.3454359,28.7140887 C44.0536135,30.005911 42.281677,30.817422 40.3236663,30.8553331 L40.1800694,30.8567222 L31.3227361,30.8567222 C29.3078501,30.8567222 27.4806999,30.0374189 26.1573697,28.7140887 C24.8655473,27.4222663 24.0540363,25.6503298 24.0161252,23.6923191 L24.0147361,23.5487222 L24.0147361,16.3496111 C24.0147361,14.3347251 24.8340394,12.5075749 26.1573697,11.1842447 C27.449192,9.89242229 29.2211286,9.08091128 31.1791392,9.04300023 L31.3227361,9.04161111 L40.1800694,9.04161111 Z M31.3225176,14.0162777 C30.6806359,14.0162777 30.0982848,14.2781286 29.6763248,14.7000887 C29.2543647,15.1220487 28.9925139,15.7043998 28.9925139,16.3465 L28.9925139,16.3465 L28.9925139,23.5456111 L28.9944651,23.6414654 C29.0190992,24.2455455 29.2754627,24.7911604 29.6763248,25.1920224 C30.0982848,25.6139825 30.6806359,25.8758333 31.3227361,25.8758333 L31.3227361,25.8758333 L40.1800694,25.8758333 L40.2760508,25.8738853 C40.8808861,25.849291 41.4263362,25.593334 41.8268818,25.1927884 C42.2489313,24.7707388 42.5102917,24.1880392 42.5102917,23.5456111 L42.5102917,23.5456111 L42.5102917,16.3496111 L42.5083437,16.2536298 C42.4837493,15.6487944 42.2277923,15.1033444 41.8272467,14.7027988 C41.4051972,14.2807492 40.8224975,14.0193889 40.1800694,14.0193889 L40.1800694,14.0193889 L31.3225176,14.0162777 Z" id="形状" fill="#60759C" fill-rule="nonzero"></path>
    </g>
</svg>