<?xml version="1.0" encoding="UTF-8"?>
<svg width="72px" height="72px" viewBox="0 0 72 72" version="1.1" xmlns="http://www.w3.org/2000/svg" xmlns:xlink="http://www.w3.org/1999/xlink">
    <title>授权管理</title>
    <g id="授权管理" stroke="none" stroke-width="1" fill="none" fill-rule="evenodd">
        <path d="M18.3819193,42.5729092 C17.6864748,42.7527343 16.9188243,42.9865319 16.0842355,43.2677293 L15.6613872,43.4122475 C15.2361381,43.559571 14.7980219,43.7171864 14.3493466,43.8837219 C13.4231185,44.2275114 12.4930917,44.5936272 11.6008285,44.9596629 L10.4159416,45.4563733 L8.08097743,46.4674545 L8.00317956,49.1983436 L7.99994265,49.7796257 C8.00184646,50.2953116 8.0159649,50.8865414 8.04763466,51.533315 C8.11380714,52.8847178 8.24579851,54.2243796 8.46334559,55.5062863 C9.18175914,59.7395729 10.5918662,62.7751798 13.7708596,64.0717 C14.4829935,64.37002 15.0454416,64.4719884 16.3249981,64.5781339 L18.7608902,64.7551317 C19.2783443,64.7934121 19.7252426,64.8304414 20.1416156,64.8706099 L20.4487972,64.9013934 C21.3029417,64.990302 22.0180171,65.0944408 22.6006616,65.2179986 L25.6776271,65.8461927 L30.5924292,66.8098535 C31.1091444,66.9134402 31.5927653,67.0121886 32.1053399,67.1187416 L34.1280031,67.5723625 C34.9825297,67.7592924 35.6406424,67.8746441 36.3324083,67.9418065 C37.788136,68.0831406 39.1820397,67.9702168 40.7372103,67.56496 C43.427963,66.8686271 48.9604769,63.8291315 51.3488443,62.1134673 L52.4932979,61.2664799 C53.712406,60.3556511 55.2976828,59.1497804 56.7745707,58.0001413 L57.7043981,57.2722903 C61.820788,54.0303345 63.6871258,52.4116066 64.4282894,50.9831733 C65.8525561,48.0876736 64.5617261,45.444525 62.2651962,43.8874751 C60.7820229,42.881882 58.8425923,42.3139674 57.0276101,42.3784745 C55.2333146,42.4299297 52.5583668,43.1396181 48.813049,44.3924985 L47.7117028,44.7666938 L47.1460728,44.9630117 C45.9226725,45.3904303 44.6766639,45.8431272 43.3960806,46.3212752 L41.0195544,47.2206958 L39.539,47.783 L38.9891106,47.7087104 L38.1045739,47.5993815 C37.8584395,47.5681681 37.6586839,47.5405929 37.4756435,47.5120881 C37.1386354,47.4596061 36.872401,47.4056478 36.6681462,47.349323 C35.1534488,46.9388465 34.0485699,46.4024985 32.5833756,45.1688099 L32.2853044,44.9126049 C29.004666,42.0130237 23.3791789,41.3838864 18.7288163,42.4869407 L18.3819193,42.5729092 Z M19.3832877,46.445539 C22.3256936,45.6847041 27.1713657,45.7310965 29.6488934,47.9208165 C32.1209518,50.0873404 34.0296873,50.7785867 35.6048042,51.2053966 C37.1525753,51.6322064 39.0886565,51.6322064 39.914499,51.9662315 C40.7403416,52.3048958 42.6764228,55.2508116 39.4496208,56.1693806 C36.2228188,57.0833103 30.9888366,55.9884503 29.3371515,55.6544252 C27.6854664,55.3157609 26.3181774,54.8240017 26.0337813,54.7358562 L25.9842623,54.7311425 C25.6763102,54.7381122 25.1876247,55.376568 30.2395622,57.5982657 C34.1390704,59.0271508 39.0613107,58.3776576 40.6364276,57.7977529 C42.4412491,57.1297027 43.6280559,56.0116465 43.7811923,54.6245145 C44.016366,52.4997438 43.1631777,51.9430353 42.4412491,50.959517 L44.9470686,50.0119588 C48.6382781,48.6367061 54.8195781,46.4434662 57.169686,46.3759505 C59.1276438,46.3063619 61.5778257,47.7166901 60.8777737,49.1409359 C60.1339685,50.5744603 50.5137232,57.7699175 49.0151745,58.8647775 L48.766479,59.0370306 C47.182976,60.104306 42.1624784,63.0643477 39.7285477,63.6942236 C37.1471061,64.366913 35.7579405,63.8055653 32.9194486,63.2024645 L31.2370202,62.8596094 C29.2595903,62.4641845 27.5110111,62.1384568 25.3274943,61.6964148 L23.4304631,61.3050164 C20.3896124,60.6601624 16.134609,60.7251117 15.2814207,60.3678904 C11.7210002,58.9158091 12.0053963,49.1270182 12.0053963,49.1270182 L12.67971,48.8419564 C14.0328905,48.2781745 17.1414546,47.0252228 19.3832877,46.445539 Z" id="路径" fill="#60759C" fill-rule="nonzero"></path>
        <polygon id="路径" fill="#60759C" fill-rule="nonzero" transform="translate(33.500000, 18.000000) scale(1, -1) rotate(20.000000) translate(-33.500000, -18.000000) " points="31 9 36 9 36 27 31 27"></polygon>
        <path d="M37.23254,33.4584111 L41.3836002,33.4584111 L41.3836002,38.0417106 L37.23254,38.0417106 L37.23254,33.4584111 Z M37.23254,39.4167005 L42.6045003,39.4167005 L42.6045003,44 L37.23254,44 L37.23254,39.4167005 Z M36.5,30.7084314 C33.7093101,30.7268981 31.0272123,29.6946329 29.0538476,27.8426136 C27.0804828,25.9905943 25.980583,23.4734232 26.0002595,20.8543375 C25.9805829,18.2352518 27.0804828,15.7180807 29.0538475,13.8660614 C31.0272123,12.0140421 33.7093101,10.9817769 36.5,11.0002436 C39.2906899,10.9817769 41.9727877,12.0140421 43.9461525,13.8660614 C45.9195172,15.7180807 47.0194171,18.2352518 46.9997405,20.8543375 C47.019417,23.4734232 45.9195172,25.9905943 43.9461524,27.8426136 C41.9727877,29.6946329 39.2906899,30.7268981 36.5,30.7084314 L36.5,30.7084314 Z M36.5,15.5835431 C35.0024672,15.5584398 33.5583861,16.1056891 32.4993016,17.0996487 C31.4402171,18.0936084 30.8571116,19.4488905 30.8838597,20.8543375 C30.8571116,22.2597845 31.4402171,23.6150667 32.4993016,24.6090263 C33.5583861,25.6029859 35.0024672,26.1502352 36.5,26.1251319 C37.9975328,26.1502352 39.4416139,25.6029859 40.5006984,24.6090263 C41.5597829,23.6150667 42.1428883,22.2597845 42.1161402,20.8543375 C42.1428883,19.4488905 41.5597829,18.0936084 40.5006984,17.0996487 C39.4416139,16.1056891 37.9975328,15.5584398 36.5,15.5835431 Z" id="形状" fill="#60759C" fill-rule="nonzero" transform="translate(36.500000, 27.500000) scale(1, -1) rotate(20.000000) translate(-36.500000, -27.500000) "></path>
    </g>
</svg>