<?xml version="1.0" encoding="UTF-8"?>
<svg width="72px" height="72px" viewBox="0 0 72 72" version="1.1" xmlns="http://www.w3.org/2000/svg" xmlns:xlink="http://www.w3.org/1999/xlink">
    <title>业务功能认证</title>
    <g id="业务功能认证" stroke="none" stroke-width="1" fill="none" fill-rule="evenodd">
        <path d="M37.2250924,6.82074588 L36.1168533,6.1977367 L34.9605934,6.72631711 C30.1876556,8.90824981 26.4826821,10.375642 23.8833526,11.1226858 C21.606412,11.7770755 18.4408553,12.3771655 14.408471,12.9118644 C12.1714081,13.2085049 10.5,15.1161751 10.5,17.3728167 L10.5,41.757935 C10.5,46.8649711 12.7309128,51.7171902 16.6075661,55.0418511 C18.4034955,56.5820601 20.0507508,57.8343641 21.5573286,58.8002614 C24.0850261,60.4208191 27.8624681,62.2874856 32.9213261,64.4270154 L34.6455759,65.1464483 C35.5400279,65.5147771 36.5426399,65.4982108 37.4208367,65.1021591 L38.5554358,64.5865155 C43.3845042,62.3743606 47.0762613,60.4516529 49.6520525,58.8002614 C51.1719174,57.8258454 52.9177468,56.5523362 54.8973397,54.9769094 C59.0692717,51.6567485 61.5,46.6157597 61.5,41.2839207 L61.5,17.4596166 C61.5,15.1689545 59.7792582,13.2438631 57.5029819,12.9878299 L56.3466878,12.8525925 C52.3781142,12.3699864 49.2339399,11.7903218 46.9335258,11.1241002 C44.1270047,10.3113051 40.8856134,8.87854928 37.2250924,6.82074588 Z M35.89,11.794 L36.0848276,11.8996736 C39.5396516,13.7566344 42.6885688,15.1001831 45.5426339,15.9267473 L45.9176323,16.0329338 C48.4475553,16.7334862 51.6996248,17.3227167 55.6904406,17.8096288 L56.5,17.905 L56.5,41.2839207 C56.5,45.092377 54.7637658,48.6930827 51.7838144,51.0646262 C49.9280926,52.5414721 48.3153684,53.7178867 46.95344,54.5910464 L46.6771477,54.7663069 L46.0686146,55.1404848 C43.7558182,56.5348456 40.5468697,58.174957 36.4563852,60.0484037 L35.954,60.276 L34.887759,59.829888 C30.061627,57.7893226 26.5062242,56.0337482 24.255941,54.5910464 C22.9609112,53.7607767 21.4937811,52.6454106 19.8625473,51.2464464 L19.5895774,51.0053672 C16.9890459,48.6404283 15.5,45.2842215 15.5,41.7579346 L15.5,17.809 L16.3167995,17.6967782 C19.9923607,17.1745354 22.9696137,16.5876917 25.26444,15.9281616 L25.951465,15.7230941 C28.3031576,14.9964454 31.2715215,13.8388055 34.8739571,12.2474923 L35.89,11.794 Z" id="路径-4" fill="#60759C" fill-rule="nonzero"></path>
        <path d="M45.5455319,26.2885715 C46.4907278,25.2821074 48.0728608,25.2324396 49.079325,26.1776355 C50.0420298,27.0817359 50.1293292,28.5685916 49.3079086,29.5769856 L49.190261,29.7114285 L35.7628011,44.0092658 C34.5204255,45.3321731 32.4837365,45.4793092 31.0673789,44.3797478 L30.9126305,44.2524403 L23.357957,37.6719208 C22.3168314,36.7650454 22.2080001,35.1858787 23.1148754,34.1447531 C23.9823214,33.1488939 25.4648695,33.0060222 26.5032923,33.7891368 L26.642043,33.9016716 L33.107,39.533 L45.5455319,26.2885715 Z" id="路径-2" fill="#60759C" fill-rule="nonzero"></path>
    </g>
</svg>