<?xml version="1.0" encoding="UTF-8"?>
<svg width="72px" height="72px" viewBox="0 0 72 72" version="1.1" xmlns="http://www.w3.org/2000/svg" xmlns:xlink="http://www.w3.org/1999/xlink">
    <title>权限查询</title>
    <g id="权限查询" stroke="none" stroke-width="1" fill="none" fill-rule="evenodd">
        <path d="M25.4967608,7.5 C26.8774727,7.5 27.9967608,8.61928813 27.9967608,10 C27.9967608,11.3254834 26.9652249,12.4100387 25.6611365,12.4946823 L25.4967608,12.5 L18.2592593,12.5 C15.7018326,12.5 13.6155415,14.5171714 13.5046371,17.0472632 L13.5,17.2592593 L13.5,51.7407407 C13.5,54.2981674 15.5171714,56.3844585 18.0472632,56.4953629 L18.2592593,56.5 L52.7407407,56.5 C55.2981674,56.5 57.3844585,54.4828286 57.4953629,51.9527368 L57.5,51.7407407 L57.5,43.2249371 C57.5,41.8442252 58.6192881,40.7249371 60,40.7249371 C61.3254834,40.7249371 62.4100387,41.756473 62.4946823,43.0605614 L62.5,43.2249371 L62.5,51.7407407 C62.5,57.0392767 58.2774898,61.3515926 53.0139071,61.4962507 L52.7407407,61.5 L18.2592593,61.5 C12.9607233,61.5 8.64840738,57.2774898 8.50374931,52.0139071 L8.5,51.7407407 L8.5,17.2592593 C8.5,11.9607233 12.7225102,7.64840738 17.9860929,7.50374931 L18.2592593,7.5 L25.4967608,7.5 Z" id="路径" fill="#60759C" fill-rule="nonzero" transform="translate(35.500000, 34.500000) scale(1, -1) translate(-35.500000, -34.500000) "></path>
        <path d="M59.9683064,51.0123348 C61.215401,51.0123348 62.226371,52.0233047 62.226371,53.2703993 L62.226371,65.0123348 C62.226371,66.2594294 61.215401,67.2703993 59.9683064,67.2703993 C58.7212118,67.2703993 57.7102419,66.2594294 57.7102419,65.0123348 L57.7102419,53.2703993 C57.7102419,52.0233047 58.7212118,51.0123348 59.9683064,51.0123348 Z" id="矩形" fill="#60759C" transform="translate(59.968306, 59.141367) rotate(-46.000000) translate(-59.968306, -59.141367) "></path>
        <path d="M45.9570328,29.9641081 C37.8420101,29.9641081 31.2634844,36.5426338 31.2634844,44.6576565 C31.2634844,52.7726792 37.8420101,59.3512049 45.9570328,59.3512049 C54.0720555,59.3512049 60.6505812,52.7726792 60.6505812,44.6576565 C60.6505812,36.5426338 54.0720555,29.9641081 45.9570328,29.9641081 Z M45.9570328,34.9641081 C51.3106317,34.9641081 55.6505812,39.3040575 55.6505812,44.6576565 C55.6505812,50.0112554 51.3106317,54.3512049 45.9570328,54.3512049 C40.6034339,54.3512049 36.2634844,50.0112554 36.2634844,44.6576565 C36.2634844,39.3040575 40.6034339,34.9641081 45.9570328,34.9641081 Z" id="椭圆形" fill="#60759C" fill-rule="nonzero" transform="translate(45.957033, 44.657656) rotate(-17.000000) translate(-45.957033, -44.657656) "></path>
        <path d="M25.8209339,17.9144251 C28.374567,15.3618583 32.5302761,15.3618583 35.0839092,17.9144251 C37.6375423,20.4669919 37.6375423,24.625707 35.0908297,27.1782738 C33.8520754,28.4182894 32.2084768,29.0987436 30.4576119,29.0987436 C29.3019026,29.0987436 28.191176,28.7947843 27.2153975,28.235223 L27.2153975,28.235223 L24.872837,30.5805449 L25.4264702,31.133198 C26.1012107,31.8067441 26.1012107,32.9016882 25.4264702,33.5786883 C25.0873699,33.9171884 24.6444633,34.0864384 24.2015568,34.0864384 C23.7586502,34.0864384 23.3157437,33.9171884 22.9766433,33.5786883 L22.9766433,33.5786883 L22.4230101,33.0260351 L19.9558822,35.4922499 C19.6167819,35.83075 19.1738753,36 18.7309688,36 C18.2880622,36 17.8451557,35.83075 17.5060553,35.4922499 C16.8313149,34.8187039 16.8313149,33.7237598 17.5060553,33.0467596 L17.5060553,33.0467596 L24.7655706,25.7862787 C23.3434253,23.2855231 23.6894461,20.0455939 25.8209339,17.9144251 Z M31.0014703,19 C30.2317763,19 29.4620824,19.2951782 28.8772494,19.878826 C27.7075835,21.0461216 27.7075835,22.9513627 28.8772494,24.1220126 C30.0469153,25.2926625 31.9526641,25.2926625 33.12233,24.1220126 C34.2919959,22.9513627 34.2919959,21.0461216 33.1256911,19.878826 C32.537497,19.2918239 31.7711642,19 31.0014703,19 Z" id="形状结合" fill="#60759C" fill-rule="nonzero"></path>
    </g>
</svg>