<?xml version="1.0" encoding="UTF-8"?>
<svg width="72px" height="73px" viewBox="0 0 72 73" version="1.1" xmlns="http://www.w3.org/2000/svg" xmlns:xlink="http://www.w3.org/1999/xlink">
    <title>用户管理</title>
    <g id="用户管理" stroke="none" stroke-width="1" fill="none" fill-rule="evenodd" transform="translate(0.000000, 0.000000)">
        <path d="M34.7749121,8 C38.8480277,8 42.5183285,9.62432012 45.1739589,12.2428459 C47.844064,14.8756441 49.4887015,18.5135184 49.4887015,22.519833 C49.4887015,26.9606411 47.4851814,31.0039008 44.087963,33.8748896 L43.9630538,33.9794013 L43.1999066,34.5517617 C41.3836393,36.1665322 38.0015193,36.8392979 35.5275813,37.0558117 L35.3910904,37.067374 L33.29153,37.067374 C28.4774502,37.5429774 24.1726483,39.8246451 21.0779537,43.215437 C18.0089252,46.5781072 16.1298085,51.0328078 16.1282045,55.9012084 C16.1398241,56.5466527 16.3910764,57.1147747 16.7958076,57.5195059 C17.1811301,57.9048284 17.7039652,58.1401397 18.2772867,58.1515669 L18.3636527,58.1515926 L35.9109424,58.1238728 C36.4148377,58.1238728 37.1399447,58.3281693 37.6565421,58.919908 C37.9981,59.3111472 38.2669389,59.8767678 38.2669389,60.7015338 C38.2669389,61.4437873 37.9979491,62.0203202 37.633272,62.4380413 C37.1454588,62.9968092 36.4784393,63.2571229 35.9755743,63.2778457 L35.9109424,63.2791947 L18.2577817,63.2791947 C16.2383345,63.2644432 14.4143172,62.4273365 13.0998163,61.0845472 C11.7896031,59.7461379 10.9857002,57.9052646 11.0001927,55.8766906 C11.0011369,50.9061221 12.5298839,46.2342074 15.2008988,42.3523176 C17.7712023,38.6167958 21.3996701,35.6127927 25.7431621,33.7796397 L25.8691804,33.72695 L25.8275215,33.6911138 C22.5771666,30.8680258 20.6905362,26.9658565 20.6438783,22.6826675 L20.6429919,22.519833 C20.6429919,18.5598902 22.255217,14.9480022 24.8103346,12.3183603 C27.400028,9.65313417 30.9553395,8 34.7749121,8 Z M35.1351168,13.1553219 C32.5643468,13.1553219 30.2174179,14.2198982 28.512446,15.9248701 C26.807474,17.6298421 25.7428977,19.976771 25.7428977,22.547541 C25.7428977,25.118311 26.807474,27.46524 28.512446,29.1702119 C30.2174179,30.8751839 32.5643468,31.9397602 35.1351168,31.9397602 C37.7058868,31.9397602 40.0528158,30.8751839 41.7577877,29.1702119 C43.4627597,27.46524 44.527336,25.118311 44.527336,22.547541 C44.527336,19.976771 43.4627597,17.6298421 41.7577877,15.9248701 C40.0528158,14.2198982 37.7058868,13.1553219 35.1351168,13.1553219 Z" id="形状" fill="#60759C" fill-rule="nonzero"></path>
        <path d="M57.9644351,53.34198 C58.7641321,51.9782485 60.1350412,51.2963827 61.5059503,51.410027 C61.7344351,50.6145169 61.8486775,49.7053625 61.8486775,48.7962082 C61.8486775,48.0006981 61.7344351,47.205188 61.6201927,46.5233222 C60.2492836,46.7506108 58.7641321,45.9551008 57.9644351,44.5913692 C57.1647381,43.2276376 57.2789806,41.5229732 58.19292,40.5001745 C56.9362533,39.3637316 55.5653442,38.5682215 53.9659503,38 C53.5089806,39.3637316 52.1380715,40.2728859 50.4244351,40.2728859 C48.7107988,40.2728859 47.4541321,39.3637316 46.88292,38 C45.283526,38.5682215 43.9126169,39.4773759 42.6559503,40.6138188 C43.5698897,41.7502618 43.6841321,43.3412819 42.8844351,44.7050135 C42.0847381,46.068745 40.5995867,46.7506108 39.2286776,46.5233222 C39.1144351,47.3188323 39.0001927,48.1143424 39.0001927,48.9098525 C39.0001927,49.8190068 39.1144351,50.6145169 39.34292,51.410027 C40.7138291,51.2963827 42.0847381,51.9782485 42.8844351,53.34198 C43.5698897,54.7057116 43.5698897,56.1830874 42.7701927,57.3195304 C44.0268594,58.4559734 45.3977684,59.2514834 46.9971624,59.7060606 C47.5683745,58.4559734 48.8250412,57.6604633 50.4244351,57.6604633 C52.0238291,57.6604633 53.2804957,58.4559734 53.8517078,59.7060606 C55.4511018,59.2514834 56.8220109,58.342329 58.0786775,57.3195304 C57.2789806,56.1830874 57.1647382,54.7057116 57.9644351,53.34198 Z M50.4244351,53.7965572 C47.6826169,53.7965572 45.5120109,51.6373156 45.5120109,48.9098525 C45.5120109,46.1823893 47.6826169,44.0231477 50.4244351,44.0231477 C53.1662533,44.0231477 55.3368594,46.1823893 55.3368594,48.9098525 C55.3368594,51.6373156 53.1662533,53.7965572 50.4244351,53.7965572 Z" id="形状" fill="#60759C" fill-rule="nonzero"></path>
    </g>
</svg>