<?xml version="1.0" encoding="UTF-8"?>
<svg width="72px" height="72px" viewBox="0 0 72 72" version="1.1" xmlns="http://www.w3.org/2000/svg" xmlns:xlink="http://www.w3.org/1999/xlink">
    <title>职责管理</title>
    <g id="职责管理" stroke="none" stroke-width="1" fill="none" fill-rule="evenodd">
        <path d="M28.9090909,8.5 C30.2898028,8.5 31.4090909,9.61928813 31.4090909,11 C31.4090909,12.3254834 30.377555,13.4100387 29.0734666,13.4946823 L28.9090909,13.5 L17.2835017,13.5 C14.7130481,13.5 12.6161301,15.5274464 12.5046608,18.0704258 L12.5,18.2835017 L12.5,52.8801347 C12.5,55.4505882 14.5274464,57.5475063 17.0704258,57.6589756 L17.2835017,57.6636364 L51.8801347,57.6636364 C54.4505882,57.6636364 56.5475063,55.63619 56.6589756,53.0932106 L56.6636364,52.8801347 L56.6636364,40.8806632 C56.6636364,39.4999514 57.7829245,38.3806632 59.1636364,38.3806632 C60.4891198,38.3806632 61.573675,39.4121992 61.6583187,40.7162875 L61.6636364,40.8806632 L61.6636364,52.8801347 C61.6636364,58.1918325 57.4306373,62.5148603 52.1539796,62.6598777 L51.8801347,62.6636364 L17.2835017,62.6636364 C11.9718039,62.6636364 7.64877603,58.4306373 7.50375862,53.1539796 L7.5,52.8801347 L7.5,18.2835017 C7.5,12.9718039 11.7329991,8.64877603 17.0096567,8.50375862 L17.2835017,8.5 L28.9090909,8.5 Z" id="路径" fill="#60759C" fill-rule="nonzero" transform="translate(34.581818, 35.581818) scale(1, -1) translate(-34.581818, -35.581818) "></path>
        <path d="M55.8309091,55.0995558 C56.6306061,53.7358242 58.0015152,53.0539584 59.3724242,53.1676027 C59.6009091,52.3720927 59.7151515,51.4629383 59.7151515,50.5537839 C59.7151515,49.7582738 59.6009091,48.9627638 59.4866666,48.280898 C58.1157576,48.5081866 56.630606,47.7126765 55.8309091,46.348945 C55.0312121,44.9852134 55.1454545,43.280549 56.0593939,42.2577503 C54.8027273,41.1213073 53.4318182,40.3257973 51.8324242,39.7575758 C51.3754545,41.1213073 50.0045455,42.0304617 48.2909091,42.0304617 C46.5772727,42.0304617 45.3206061,41.1213073 44.7493939,39.7575758 C43.15,40.3257972 41.7790909,41.2349516 40.5224243,42.3713946 C41.4363636,43.5078375 41.5506061,45.0988577 40.7509091,46.4625892 C39.9512121,47.8263208 38.4660606,48.5081866 37.0951515,48.280898 C36.9809091,49.0764081 36.8666667,49.8719181 36.8666667,50.6674282 C36.8666667,51.5765826 36.9809091,52.3720927 37.2093939,53.1676027 C38.580303,53.0539584 39.9512121,53.7358242 40.7509091,55.0995558 C41.4363636,56.4632873 41.4363636,57.9406632 40.6366667,59.0771061 C41.8933333,60.2135491 43.2642424,61.0090592 44.8636364,61.4636364 C45.4348485,60.2135491 46.6915152,59.418039 48.2909091,59.418039 C49.890303,59.418039 51.1469697,60.2135491 51.7181818,61.4636364 C53.3175757,61.0090592 54.6884848,60.0999048 55.9451515,59.0771061 C55.1454545,57.9406632 55.0312121,56.4632873 55.8309091,55.0995558 Z M48.2909091,55.554133 C45.5490909,55.554133 43.3784848,53.3948913 43.3784848,50.6674282 C43.3784848,47.9399651 45.5490909,45.7807235 48.2909091,45.7807235 C51.0327273,45.7807235 53.2033333,47.9399651 53.2033333,50.6674282 C53.2033333,53.3948913 51.0327273,55.554133 48.2909091,55.554133 Z" id="形状" fill="#60759C" fill-rule="nonzero"></path>
        <path d="M26.3656493,26.3470652 C26.9103206,26.3470652 27.4464761,26.5368687 27.883666,26.8574903 C28.3070734,27.1680043 28.6353458,27.5995165 28.795807,28.0893781 L28.8142522,28.1484376 L32.8905357,41.8661821 C33.0244414,42.317054 33.0250131,42.8308704 32.9055884,43.3181113 C32.7921553,43.7809072 32.5711176,44.2172393 32.2672516,44.5530594 L32.2210536,44.6026693 L27.1214176,49.9226857 C26.699344,50.3627574 26.1072604,50.6153843 25.4965123,50.6153843 C24.9057175,50.6153843 24.3320213,50.3788 23.9130009,49.9645981 L23.8716196,49.9225881 L18.7722387,44.6026533 C18.4445547,44.2607758 18.2067547,43.8039851 18.0876055,43.3180217 C17.974123,42.8551705 17.9689276,42.3683441 18.0835252,41.9342077 L18.1026168,41.8661088 L22.1791283,28.1484305 C22.3319096,27.6343117 22.6693703,27.1804851 23.1097367,26.8575226 C23.5294304,26.5497213 24.0403168,26.3624609 24.5623516,26.3479726 L24.6276583,26.3470652 L26.3656493,26.3470652 Z M26.111952,29.4385708 L24.8886631,29.4385708 L20.9719435,42.6006851 L25.5001425,47.3179575 L30.0300403,42.5986946 L26.111952,29.4385708 Z M20.708443,18 L30.1303089,18 C30.506871,18 30.8528174,18.0895666 31.1439183,18.2488357 C31.4514211,18.4170787 31.6992089,18.6630132 31.8623897,18.9695254 C32.0260576,19.2769731 32.0909985,19.6195179 32.0575302,19.9669782 C32.0277752,20.2758878 31.9194971,20.589684 31.7301025,20.8827242 L31.6911413,20.9410479 L29.3837746,24.2835122 C28.8782187,25.0159976 27.8716355,25.5523774 26.9708561,25.5735396 L26.9158437,25.5741888 L23.9228027,25.5741888 C23.026721,25.5741888 22.012313,25.0525148 21.4862958,24.3281275 L21.454706,24.2835267 L19.1475131,20.9409727 C18.933938,20.6315182 18.8127953,20.2964324 18.7810451,19.9669054 C18.7475688,19.6194636 18.8125249,19.276929 18.9763418,18.9694013 C19.1396485,18.6629207 19.3874369,18.417019 19.6949072,18.2487989 C19.9677734,18.099511 20.2888172,18.011467 20.6381954,18.0010447 L20.708443,18 L20.708443,18 Z M28.0739292,21.0915402 L22.9192077,21.0915402 L23.8800651,22.438104 L23.8924586,22.4471362 C23.9208768,22.4652443 23.9688784,22.4826832 23.9967843,22.4826832 L23.9967843,22.4826832 L26.9963296,22.4826832 L27.0123,22.481158 C27.0468317,22.4752311 27.0947091,22.4530868 27.1163467,22.4334827 L27.1163467,22.4334827 L28.0739292,21.0915402 Z" id="形状" fill="#60759C" fill-rule="nonzero"></path>
    </g>
</svg>