<?xml version="1.0" encoding="UTF-8"?>
<svg width="72px" height="72px" viewBox="0 0 72 72" version="1.1" xmlns="http://www.w3.org/2000/svg" xmlns:xlink="http://www.w3.org/1999/xlink">
    <title>角色管理</title>
    <g id="角色管理" stroke="none" stroke-width="1" fill="none" fill-rule="evenodd">
        <path d="M46.4497654,11.5 C51.6510797,11.5 55.7324387,16.1143657 55.8692957,21.7097285 L55.8728423,22 L55.8728423,50 C55.8728423,55.6281101 51.8796412,60.3378676 46.7177856,60.4959036 L46.4497654,60.5 L15.2959192,60.5 C10.7844371,60.5 7.02601379,56.9934981 6.09358563,52.2713935 C5.82611443,50.9168365 6.70737152,49.6019229 8.06192843,49.3344517 C9.41648535,49.0669805 10.7313989,49.9482376 10.9988701,51.3027945 C11.4760697,53.7194808 13.1979,55.3894953 15.1046655,55.4947234 L15.2959192,55.5 L46.4497654,55.5 C48.7437921,55.5 50.7638501,53.2354706 50.8685803,50.2441055 L50.8728423,50 L50.8728423,22 C50.8728423,18.9704697 48.9131534,16.6262159 46.6351348,16.5049321 L46.4497654,16.5 L15.2959192,16.5 C13.3252618,16.5 11.5177474,18.1807731 11.0106813,20.6383519 L10.9657083,20.8785767 C10.7365065,22.2401317 9.44694335,23.1580852 8.08538842,22.9288834 C6.7238335,22.6996816 5.80587992,21.4101185 6.03508172,20.0485636 C6.83950301,15.2699634 10.5282913,11.6418371 15.03018,11.5040611 L15.2959192,11.5 L46.4497654,11.5 Z" id="形状结合" fill="#60759C" fill-rule="nonzero" transform="translate(30.936421, 36.000000) scale(-1, 1) translate(-30.936421, -36.000000) "></path>
        <rect id="矩形" stroke="#60759C" stroke-width="4" fill="#D8D8D8" x="19" y="24" width="18" height="1" rx="0.5"></rect>
        <rect id="矩形备份-2" stroke="#60759C" stroke-width="4" fill="#D8D8D8" x="19" y="49" width="18" height="1" rx="0.5"></rect>
        <path d="" id="矩形备份" stroke="#60759C" stroke-width="4" fill="#D8D8D8"></path>
        <path d="M48.1700874,31.2204714 C48.1700874,34.1036581 50.5073721,36.4409428 53.3905588,36.4409428 C56.2737455,36.4409428 58.6110302,34.1036581 58.6110302,31.2204714 C58.6110302,28.3372847 56.2737455,26 53.3905588,26 C50.5073721,26 48.1700874,28.3372847 48.1700874,31.2204714 Z" id="路径" fill="#60759C" fill-rule="nonzero"></path>
        <path d="M59.8123676,46.8755959 L46.96875,46.8755959 C45.3334216,46.8755959 44,45.5421743 44,43.9068459 C44,40.9506753 46.421544,38.5291314 49.3777145,38.5291314 L57.4034031,38.5291314 C60.3595736,38.5291314 62.7811176,40.9506753 62.7811176,43.9068459 C62.7811176,45.5421743 61.447696,46.8755959 59.8123676,46.8755959 L59.8123676,46.8755959 Z" id="路径" fill="#60759C" fill-rule="nonzero"></path>
    </g>
</svg>