<?xml version="1.0" encoding="UTF-8"?>
<svg width="72px" height="72px" viewBox="0 0 72 72" version="1.1" xmlns="http://www.w3.org/2000/svg" xmlns:xlink="http://www.w3.org/1999/xlink">
    <title>权限报表</title>
    <g id="权限报表" stroke="none" stroke-width="1" fill="none" fill-rule="evenodd">
        <path d="M57,9.5 C61.0609173,9.5 64.3680175,12.7274744 64.4961464,16.7572689 L64.5,17 L64.5,31.0926594 L59.5,31.0926594 L59.5,17 C59.5,15.6745166 58.4684641,14.5899613 57.1643757,14.5053177 L57,14.5 L15,14.5 C13.6745166,14.5 12.5899613,15.5315359 12.5053177,16.8356243 L12.5,17 L12.5,51 C12.5,52.3254834 13.5315359,53.4100387 14.8356243,53.4946823 L15,53.5 L37,53.5 L37,58.5 L15,58.5 C10.9390827,58.5 7.63198248,55.2725256 7.50385357,51.2427311 L7.5,51 L7.5,17 C7.5,12.9390827 10.7274744,9.63198248 14.7572689,9.50385357 L15,9.5 L57,9.5 Z" id="路径备份" fill="#60759C" fill-rule="nonzero"></path>
        <polygon id="路径-11备份-3" fill="#60759C" fill-rule="nonzero" points="59.5910986 22.8173636 59.5910986 27.8173636 12 27.8173636 12 22.8173636"></polygon>
        <polygon id="路径-11备份-4" fill="#60759C" fill-rule="nonzero" points="37 33 37 38 12 38 12 33"></polygon>
        <polygon id="路径-11备份-5" fill="#60759C" fill-rule="nonzero" points="37 43 37 48 12 48 12 43"></polygon>
        <polygon id="直线备份-2" fill="#60759C" fill-rule="nonzero" points="29 25.5 29 55.5 24 55.5 24 25.5"></polygon>
        <polygon id="直线备份-3" fill="#60759C" fill-rule="nonzero" points="47.5 25.5 47.5 31.5 42.5 31.5 42.5 25.5"></polygon>
        <path d="M51.9064982,35.1954006 L53.2501359,35.2538173 C54.620097,36.0725087 55.824808,36.6429249 56.8623345,36.9562062 C57.6793436,37.2029022 58.7966898,37.4141722 60.2011833,37.5922578 C61.3068158,37.7239181 61.9054408,38.0603502 62.332668,38.5586909 C62.7062081,38.9944081 62.9479149,39.5543525 62.9925209,40.1679573 L63,40.3743829 L63,49.6283111 C63,52.0006522 61.957877,54.240342 60.1787387,55.7165722 C59.4101756,56.3542839 58.7318337,56.8690295 58.1417787,57.2634453 C57.1529353,57.924427 55.7370312,58.6964525 53.8802248,59.5832791 C52.9405082,60.0265661 52.2958828,60.0684616 51.7266275,59.8652503 L51.5964988,59.8140755 L50.9495771,59.532636 C48.9960144,58.6712146 47.5396356,57.9158143 46.563677,57.2634453 C45.9689597,56.865913 45.3178092,56.3516282 44.6088138,55.7176763 C43.0277796,54.3039865 42.0844405,52.2702414 42.0053998,50.1080271 L42,49.8124296 L42,40.3406677 C42,39.6570413 42.2449632,39.0273805 42.6499424,38.5454596 C43.0666481,38.0495841 43.6517559,37.7096183 44.3191481,37.6173493 C45.7571594,37.4185421 46.8868154,37.1983908 47.6989189,36.955048 C48.6743444,36.6627665 50.0810392,36.0727092 51.9064982,35.1954006 Z M52.1419664,39.2568571 C50.9454711,39.8118929 49.9256368,40.2282144 48.866506,40.5759022 L48.866506,40.5759022 L48.5815617,40.6600657 C47.8965705,40.8543222 47.070594,41.0336744 46.1007441,41.1974907 L46.1007441,41.1974907 L46,41.213 L46,49.7428068 L46.0067164,49.9799249 C46.0648625,51.0031841 46.4997391,51.967525 47.2796535,52.7312332 C47.8328833,53.2392737 48.3297336,53.6457784 48.7694389,53.9477578 C49.5041306,54.4523271 50.6418013,55.0529085 52.6155583,55.8201685 C53.8831453,55.1876327 54.9171956,54.6130903 55.9464325,53.9438209 C56.4205555,53.6179437 56.9806714,53.1787945 57.6254866,52.6290842 C58.4955211,51.8873733 58.995365,50.7602981 58.9996069,49.5722891 L58.9996069,49.5722891 L58.7310292,41.2299064 L58.2490458,41.1524638 C57.3043211,40.9931052 56.4718774,40.8059931 55.6946371,40.5747097 C54.7219904,40.2729619 53.6561492,39.7977517 52.1419664,39.2568571 Z" id="路径-4备份" fill="#60759C" fill-rule="nonzero"></path>
        <path d="M56.2627084,44.2814445 C56.6426111,43.9222367 57.278518,43.9045103 57.6830463,44.2418513 C58.0699863,44.5645254 58.1050746,45.0951853 57.7749209,45.4550818 L57.7276348,45.5030646 L52.3307341,50.6059728 C51.8313859,51.0781193 51.0127792,51.1306323 50.4435024,50.7381981 L50.3813044,50.6927619 L47.3448534,48.3441698 C46.9263937,48.0205054 46.8826511,47.4568997 47.2471517,47.0853212 C47.5958043,46.7298984 48.1916851,46.6789074 48.6090585,46.9584015 L48.6648266,46.9985653 L51.2636895,49.0083903 L56.2627084,44.2814445 Z" id="路径-2备份" fill="#60759C" fill-rule="nonzero"></path>
    </g>
</svg>