<?xml version="1.0" encoding="UTF-8"?>
<svg width="72px" height="72px" viewBox="0 0 72 72" version="1.1" xmlns="http://www.w3.org/2000/svg" xmlns:xlink="http://www.w3.org/1999/xlink">
    <title>供应商信息</title>
    <g id="供应商信息" stroke="none" stroke-width="1" fill="none" fill-rule="evenodd">
        <path d="M52.4207864,10.9996849 C53.8909538,10.9996849 55.2983754,11.4048609 56.5030682,12.1302814 C57.6646124,12.8297193 58.637647,13.8267365 59.2984734,15.0458768 L59.376266,15.193235 L63.2593116,22.7679084 C63.8278278,23.8770079 64.1666169,25.2442388 64.04155,26.6072359 C63.9343918,27.7750615 63.4914043,28.9404189 62.5711471,29.9448289 C61.0925197,31.5780858 59.2112523,32.7880038 57.1211168,33.4574267 L56.9245606,33.5185981 L56.9245606,53.9374096 C56.9245606,56.0363631 56.052364,57.9383624 54.6394654,59.3149216 C53.2668066,60.6522759 51.3833906,61.4932134 49.2977791,61.5325 L49.144817,61.5339395 L23.2487991,61.5339395 C21.1024033,61.5339395 19.160289,60.6848943 17.7541507,59.3149216 C16.3748926,57.9711376 15.5108953,56.1266367 15.4705344,54.0869955 L15.4690556,53.9374096 L15.4690556,34.3269733 C12.8067429,33.6616928 10.3032838,32.0835804 8.74147143,29.1869792 C7.65792921,27.1780978 8.025136,24.98592 8.82954896,23.3629298 L8.877364,23.268122 L13.0212665,15.1909312 C13.6973606,13.8958247 14.7069529,12.8438996 15.9127561,12.1178106 C17.0710619,11.4203226 18.4104253,11.0235069 19.8091501,11.0006305 L19.9772742,10.9996849 L52.4207864,10.9996849 Z M46.1082819,32.136319 C43.7032217,34.8111448 39.7344733,35.9770035 36.1995426,35.9770035 C32.839004,35.9770035 29.0857957,34.926824 26.6602986,32.523799 C25.9632378,32.9562745 25.2273991,33.3231864 24.4618336,33.619377 C23.2418377,34.0961752 21.9670075,34.4215768 20.6674009,34.5882927 L20.6674009,34.5882927 L20.6674009,53.9346751 L20.6695414,54.0374891 C20.6965667,54.6853155 20.9777987,55.268307 21.4169919,55.6963721 C21.8856907,56.153195 22.5337257,56.4340373 23.2487991,56.4340373 L23.2487991,56.4340373 L49.1475516,56.4340373 L49.2542859,56.4319446 C49.9269084,56.4055204 50.5339743,56.1304373 50.9792541,55.6968159 C51.4415379,55.2466359 51.7289498,54.6250823 51.7289498,53.9374096 L51.7289498,53.9374096 L51.7289498,33.9260806 L51.5327004,33.9005324 C49.8277651,33.6663704 48.0161613,33.100003 46.1082819,32.136319 Z M43.968348,43.8141722 C44.6834967,43.8141722 45.3304685,44.0980994 45.7991099,44.5548598 C46.2739674,45.0176786 46.5661533,45.6574048 46.5661533,46.362756 C46.5583718,47.0533027 46.2793074,47.7052989 45.7904262,48.1824744 C45.3270191,48.6347859 44.7111494,48.894826 44.0664419,48.9131903 L43.9644244,48.9140743 L28.4319263,48.9140743 C27.7504519,48.921666 27.0937214,48.6585918 26.6059244,48.1824744 C26.1170432,47.7052989 25.8379789,47.0533027 25.8302303,46.3701911 C25.8283524,45.6588771 26.1202446,45.0187632 26.5955432,44.5555145 C27.0411148,44.1212391 27.6482594,43.8430255 28.3212138,43.8162898 L28.4280026,43.8141722 L43.968348,43.8141722 Z M52.4235209,16.0996904 L19.9755643,16.0996904 L19.8624976,16.1020712 C19.411907,16.1210672 18.9824526,16.2531295 18.6108557,16.4764382 C18.2114403,16.7164643 17.8788065,17.062045 17.6603281,17.4859584 L17.6603281,17.4859584 L13.5236988,25.5596348 L13.4833453,25.6408085 C13.2511448,26.1241895 13.1977837,26.5399884 13.3381727,26.7976645 C14.3499121,28.6758899 16.1532197,29.486971 18.2118521,29.6007411 C19.6874072,29.668193 21.1608224,29.4243778 22.5361734,28.8851565 C23.7899411,28.3918308 24.6331668,27.7752502 24.9772709,27.2736336 C25.251116,26.8779249 25.6199692,26.5744563 26.0397116,26.3819429 C26.4578657,26.190158 26.9265245,26.1084901 27.4005544,26.1576396 C27.8761863,26.2033082 28.3200394,26.3780004 28.6910463,26.6515071 C29.0623478,26.9252311 29.3606873,27.2979267 29.5449775,27.7393042 C29.9274244,28.6687723 30.7668041,29.4306408 31.8809147,29.9738536 C33.0626491,30.5500381 34.5538529,30.8771013 36.2022771,30.8771013 C37.8488889,30.8771013 39.3406503,30.5496968 40.5229294,29.9730296 C41.6362095,29.4300173 42.4755905,28.6687981 42.8566435,27.7397807 C43.1545168,27.0247885 43.7576746,26.4813988 44.4996157,26.2594255 C45.2431835,26.033732 46.0483786,26.1468586 46.7009424,26.5686977 C49.7780787,28.5675414 52.2273055,29.0703113 54.080858,28.9005468 C55.8609682,28.7227865 57.5090867,27.8826393 58.7057706,26.5387839 C58.8185224,26.4162276 58.8751104,26.2215757 58.8768326,25.9932594 C58.8788088,25.7204413 58.7990673,25.4047336 58.6217372,25.0605046 L58.6217372,25.0605046 L54.7381047,17.484689 L54.685821,17.3885368 C54.4687091,17.0095033 54.1569206,16.6980007 53.7882295,16.4764382 C53.3856662,16.2345205 52.9152006,16.0996904 52.4235209,16.0996904 L52.4235209,16.0996904 Z" id="形状" fill="#60759C" fill-rule="nonzero"></path>
    </g>
</svg>