<?xml version="1.0" encoding="UTF-8"?>
<svg width="72px" height="72px" viewBox="0 0 72 72" version="1.1" xmlns="http://www.w3.org/2000/svg" xmlns:xlink="http://www.w3.org/1999/xlink">
    <title>人员信息</title>
    <g id="人员信息" stroke="none" stroke-width="1" fill="none" fill-rule="evenodd">
        <path d="M24,8.5 C25.3807119,8.5 26.5,9.61928813 26.5,11 C26.5,12.3254834 25.4684641,13.4100387 24.1643757,13.4946823 L24,13.5 L18.8148148,13.5 C16.5018968,13.5 14.6140261,15.3198437 14.5049757,17.6057581 L14.5,17.8148148 L14.5,50.1851852 C14.5,52.4981032 16.3198437,54.3859739 18.6057581,54.4950243 L18.8148148,54.5 L51.1851852,54.5 C53.4981032,54.5 55.3859739,52.6801563 55.4950243,50.3942419 L55.5,50.1851852 L55.5,46.2307692 C55.5,44.8500574 56.6192881,43.7307692 58,43.7307692 C59.3254834,43.7307692 60.4100387,44.7623052 60.4946823,46.0663935 L60.5,46.2307692 L60.5,50.1851852 C60.5,55.2393622 56.4746611,59.3533709 51.455028,59.4961665 L51.1851852,59.5 L18.8148148,59.5 C13.7606378,59.5 9.64662908,55.4746611 9.50383351,50.455028 L9.5,50.1851852 L9.5,17.8148148 C9.5,12.7606378 13.5253389,8.64662908 18.544972,8.50383351 L18.8148148,8.5 L24,8.5 Z" id="路径" fill="#60759C" fill-rule="nonzero" transform="translate(35.000000, 34.000000) scale(1, -1) translate(-35.000000, -34.000000) "></path>
        <path d="" id="矩形" stroke="#60759C" stroke-width="4" fill="#D8D8D8"></path>
        <path d="" id="矩形备份" stroke="#60759C" stroke-width="4" fill="#D8D8D8"></path>
        <path d="M47.6479233,26 C49.5380933,26 51.3563965,26.4828074 52.9384985,27.3572691 C54.5240974,28.2336636 55.8724033,29.5032095 56.819528,31.073784 C57.7689222,32.6481221 58.2432432,34.4052091 58.2432432,36.1621622 C58.2432432,37.9191152 57.7689222,39.6762022 56.819528,41.2505403 C55.8724033,42.8211148 54.5240974,44.0906607 52.9384985,44.9670552 C51.3563965,45.8415169 49.5380933,46.3243243 47.6479233,46.3243243 C44.7246678,46.3243243 42.0789704,45.1882196 40.1635893,43.3542132 C38.2412622,41.5135558 37.0540541,38.9702983 37.0540541,36.1621622 C37.0540541,33.354026 38.2412622,30.8107685 40.1635893,28.9701111 C42.0789704,27.1361047 44.7246678,26 47.6479233,26 Z M47.647883,30.2421264 C46.5374462,30.2421264 45.4690263,30.5252807 44.5394693,31.0390576 C43.6134105,31.5509009 42.8251225,32.2916506 42.2718617,33.2090901 C41.7208705,34.1227659 41.4449989,35.142397 41.4449989,36.1621622 C41.4449989,37.1819273 41.7208705,38.2015584 42.2718617,39.1152343 C42.8251225,40.0326738 43.6134105,40.7734234 44.5394693,41.2852668 C45.4690263,41.7990436 46.5374462,42.0821979 47.6479174,42.0821979 C49.3627407,42.0820616 50.9159796,41.4177935 52.0400025,40.341512 C53.157072,39.2718886 53.8497342,37.7947647 53.8497342,36.1621622 C53.8497342,34.5295596 53.157072,33.0524357 52.0400025,31.9828123 C50.9159796,30.9065308 49.3627407,30.2422628 47.647883,30.2421264 Z" id="形状" fill="#60759C" fill-rule="nonzero"></path>
        <path d="M47.0074426,42.8648649 C51.4899436,42.8648649 55.3020079,43.9890043 58.0764711,46.0732766 C60.8253396,48.1383212 62.5835026,51.1442311 62.9724708,54.9986556 C63.1276791,56.539554 62.621738,58.0740416 61.5794717,59.2227419 C60.597824,60.3046333 59.226645,60.9491376 57.7718403,61.0204131 L57.6156623,61.0258501 L36.3366001,61.027027 C34.8432866,61.0266931 33.418494,60.4027715 32.4080721,59.3070337 C31.3970673,58.2106638 30.8933302,56.7423093 31.018906,55.2589043 C31.3491259,51.3434704 33.0933695,48.2731724 35.8523341,46.1586622 C38.6372693,44.0242477 42.484798,42.8648649 47.0074426,42.8648649 Z M47.0074426,47.2018652 C43.5761963,47.2018652 40.714417,47.9724233 38.6703536,49.4789564 C36.7421024,50.9001327 35.5749681,52.9804445 35.3530098,55.6237669 C35.3299431,55.8978631 35.4231365,56.1688686 35.6097639,56.3712758 C35.7861412,56.5625662 36.0319904,56.6691488 36.3505539,56.6900257 L36.3505539,56.6900257 L57.5652997,56.6883127 L57.6520224,56.6803352 C57.9093582,56.6468314 58.1401106,56.5282712 58.314795,56.353953 C58.5274112,56.1417826 58.6449136,55.8449473 58.6420679,55.413773 C58.3757264,52.8265422 57.2002009,50.8003782 55.285384,49.4184322 C53.2483097,47.9482516 50.4116568,47.2018652 47.0074426,47.2018652 L47.0074426,47.2018652 Z" id="形状" fill="#60759C" fill-rule="nonzero"></path>
    </g>
</svg>