<?xml version="1.0" encoding="UTF-8"?>
<svg width="72px" height="72px" viewBox="0 0 72 72" version="1.1" xmlns="http://www.w3.org/2000/svg" xmlns:xlink="http://www.w3.org/1999/xlink">
    <title>会计信息</title>
    <g id="会计信息" stroke="none" stroke-width="1" fill="none" fill-rule="evenodd">
        <path d="M53.5,11.5 L17.5,11.5 C11.7010101,11.5 6.99996194,16.2010101 6.99996194,22 L6.99996194,30.10274 L7.97086688,30.8533627 C9.55628375,32.0790748 10.5,33.9590632 10.5,36 C10.5,38.0409368 9.55628375,39.9209252 7.97086688,41.1466373 L6.99996194,41.89726 L6.99996194,50.0000117 C6.99996194,55.7989899 11.7010101,60.5 17.5,60.5 L53.5,60.5 C59.2989899,60.5 64,55.7989899 64,50 L64.0007726,41.221395 L63.3058157,40.4960875 C62.1527413,39.2926552 61.5,37.7008762 61.5,36 C61.5,34.2991238 62.1527413,32.7073448 63.3058157,31.5039125 L64.0007726,30.778605 L64,21.99978 C64,16.2010101 59.2989899,11.5 53.5,11.5 Z M17.5,16.5 L53.5,16.5 C56.5375661,16.5 59,18.9624339 59,22 L59.000879,28.8391957 C57.397776,30.8509256 56.5,33.357364 56.5,36 L56.5055467,36.3594816 C56.5793815,38.7499485 57.3879506,41.0143878 58.786664,42.8834448 L59,43.16 L59,49.99978 C59,53.0375661 56.5375661,55.5 53.5,55.5 L17.5,55.5 L17.2787929,55.4956328 C14.34378,55.3795391 12,52.9634791 12,50 L11.999,44.26 L12.0546144,44.2085738 C14.2304772,42.0747257 15.5,39.1404719 15.5,36 L15.4947941,35.6519375 C15.404718,32.6432739 14.1498896,29.8462429 12.0546144,27.7914262 L11.999,27.738 L12,22.0000117 C12,18.9624339 14.4624339,16.5 17.5,16.5 Z" id="形状结合" fill="#60759C" fill-rule="nonzero"></path>
        <path d="M27.5,22 C28.3284271,22 29,22.6715729 29,23.5 L29,27 L32.5,27 C33.3284271,27 34,27.6715729 34,28.5 C34,29.3284271 33.3284271,30 32.5,30 L29,30 L29,33.5 C29,34.3284271 28.3284271,35 27.5,35 C26.6715729,35 26,34.3284271 26,33.5 L26,30 L22.5,30 C21.6715729,30 21,29.3284271 21,28.5 C21,27.6715729 21.6715729,27 22.5,27 L26,27 L26,23.5 C26,22.6715729 26.6715729,22 27.5,22 Z" id="形状结合" fill="#60759C"></path>
        <path d="M43.5,37 C44.3284271,37 45,37.6715729 45,38.5 L45,42 L48.5,42 C49.3284271,42 50,42.6715729 50,43.5 C50,44.3284271 49.3284271,45 48.5,45 L45,45 L45,48.5 C45,49.3284271 44.3284271,50 43.5,50 C42.6715729,50 42,49.3284271 42,48.5 L42,45 L38.5,45 C37.6715729,45 37,44.3284271 37,43.5 C37,42.6715729 37.6715729,42 38.5,42 L42,42 L42,38.5 C42,37.6715729 42.6715729,37 43.5,37 Z" id="形状结合" fill="#60759C" transform="translate(43.500000, 43.500000) rotate(45.000000) translate(-43.500000, -43.500000) "></path>
        <rect id="矩形备份" fill="#60759C" x="37" y="27" width="13" height="3" rx="1.5"></rect>
        <rect id="矩形备份-2" fill="#60759C" x="21" y="44" width="13" height="3" rx="1.5"></rect>
        <rect id="矩形备份-3" fill="#60759C" x="21" y="39" width="13" height="3" rx="1.5"></rect>
    </g>
</svg>