<?xml version="1.0" encoding="UTF-8"?>
<svg width="72px" height="72px" viewBox="0 0 72 72" version="1.1" xmlns="http://www.w3.org/2000/svg" xmlns:xlink="http://www.w3.org/1999/xlink">
    <title>物料信息</title>
    <g id="物料信息" stroke="none" stroke-width="1" fill="none" fill-rule="evenodd">
        <path d="M24,8.5 C25.3807119,8.5 26.5,9.61928813 26.5,11 C26.5,12.3254834 25.4684641,13.4100387 24.1643757,13.4946823 L24,13.5 L18.8148148,13.5 C16.5018968,13.5 14.6140261,15.3198437 14.5049757,17.6057581 L14.5,17.8148148 L14.5,50.1851852 C14.5,52.4981032 16.3198437,54.3859739 18.6057581,54.4950243 L18.8148148,54.5 L51.1851852,54.5 C53.4981032,54.5 55.3859739,52.6801563 55.4950243,50.3942419 L55.5,50.1851852 L55.5,46.2307692 C55.5,44.8500574 56.6192881,43.7307692 58,43.7307692 C59.3254834,43.7307692 60.4100387,44.7623052 60.4946823,46.0663935 L60.5,46.2307692 L60.5,50.1851852 C60.5,55.2393622 56.4746611,59.3533709 51.455028,59.4961665 L51.1851852,59.5 L18.8148148,59.5 C13.7606378,59.5 9.64662908,55.4746611 9.50383351,50.455028 L9.5,50.1851852 L9.5,17.8148148 C9.5,12.7606378 13.5253389,8.64662908 18.544972,8.50383351 L18.8148148,8.5 L24,8.5 Z" id="路径" fill="#60759C" fill-rule="nonzero" transform="translate(35.000000, 34.000000) scale(1, -1) translate(-35.000000, -34.000000) "></path>
        <path d="M39.9449329,45 C40.6695491,45 41.3402975,45.3156477 41.8583712,45.8568969 C42.33689,46.3568217 42.6848688,47.0516296 42.8113671,47.8608068 L42.8240688,47.9479383 L43.767133,54.9063361 C43.9193626,55.9615584 43.6545236,57.0385273 43.0403149,57.8614003 C42.5266371,58.5583531 41.7665438,58.9725061 40.957861,58.9987161 L40.8903625,59 L30.9190181,59 C30.0833176,58.9953202 29.2933334,58.5758636 28.7652465,57.8564909 C28.1693763,57.0553321 27.9039486,56.0144423 28.0311962,54.9874147 L28.042059,54.906367 L28.9851374,47.9478642 C29.0998994,47.1016602 29.4555777,46.3747838 29.9512572,45.8569306 C30.4520287,45.3337577 31.0953369,45.0212984 31.7920072,45.001049 L31.8642632,45 L39.9449329,45 Z M39.7070006,48.5291196 L32.0960677,48.5291196 L31.1552921,55.4711175 L40.6518175,55.4520318 L39.7070006,48.5291196 Z M58.1357065,45 C58.8603077,45 59.5309883,45.3156282 60.049035,45.8568492 C60.527531,46.3567501 60.8755206,47.051538 61.0021285,47.8607975 L61.0148424,47.9479383 L61.9579066,54.9063361 C62.1101362,55.9615584 61.8452972,57.0385274 61.2310537,57.8614468 C60.7172229,58.558496 59.9569301,58.9726405 59.1480826,58.9987267 L59.0805705,59 L49.1090963,59 C48.2734144,58.9952895 47.4834528,58.5758473 46.9553863,57.8565564 C46.35959,57.0553458 46.0941577,56.0144966 46.2212889,54.9874665 L46.2321423,54.9064185 L47.1752277,47.9478642 C47.2899897,47.1016602 47.645668,46.3747838 48.1413475,45.8569306 C48.642119,45.3337577 49.2854272,45.0212984 49.9820975,45.001049 L50.0543535,45 L58.1357065,45 Z M57.8970909,48.5298785 L50.286158,48.5298785 L49.3453423,55.4718763 L58.841922,55.4528936 L57.8970909,48.5298785 Z" id="形状" fill="#60759C" fill-rule="nonzero"></path>
        <path d="M49.0909577,29 C49.8229949,29 50.5003929,29.3152182 51.0237496,29.8550426 C51.5085752,30.3551237 51.8609579,31.0502465 51.9893244,31.8597973 L52.0022166,31.9469691 L52.9573586,38.9053355 C53.1115718,39.9622616 52.8432318,41.0411789 52.2216166,41.863052 C51.700591,42.5600921 50.9326061,42.9734101 50.1162643,42.9987856 L50.0481281,43 L39.9511772,43 C39.1081542,42.9960239 38.3105724,42.5777995 37.7750836,41.8589817 C37.171236,41.0582361 36.9022233,40.0144025 37.0319239,38.9848389 L37.0426883,38.9056742 L37.9976081,31.9488136 C38.1135345,31.1017792 38.4734463,30.3741458 38.9755175,29.8558153 C39.4814038,29.3335464 40.1313238,29.0212855 40.8353741,29.0010484 L40.9083962,29 L49.0909577,29 Z M41.138512,32.5292615 L40.1881748,39.4517178 L40.1866812,39.4608606 L40.1866812,39.4608606 L40.1856326,39.4700271 L49.8139067,39.4700271 L49.812856,39.4609141 L49.812856,39.4609141 L49.8113654,39.4518247 L48.8612071,32.5294512 L41.138512,32.5292615 Z" id="形状" fill="#60759C" fill-rule="nonzero"></path>
    </g>
</svg>