<?xml version="1.0" encoding="UTF-8"?>
<svg width="72px" height="72px" viewBox="0 0 72 72" version="1.1" xmlns="http://www.w3.org/2000/svg" xmlns:xlink="http://www.w3.org/1999/xlink">
    <title>参数</title>
    <g id="参数" stroke="none" stroke-width="1" fill="none" fill-rule="evenodd">
        <path d="M16.2352941,21.1764706 C11.725471,21.1764706 8,24.9019991 8,29.4117647 C8,33.9215878 11.725471,37.6470588 16.2352941,37.6470588 C20.7451172,37.6470588 24.4705882,33.9215878 24.4705882,29.4117647 C24.4705882,24.9019991 20.7451172,21.1764706 16.2352941,21.1764706 Z M16.2352941,32.7451172 C14.4705882,32.7451172 13.0980584,31.3725873 13.0980584,29.6078814 C13.0980584,27.8431756 14.4705882,26.4705882 16.2352941,26.4705882 C18,26.4705882 19.3725299,27.8431756 19.3725299,29.6078814 C19.3725299,31.1764706 18,32.7451172 16.2352941,32.7451172 Z" id="形状" fill="#60759C" fill-rule="nonzero"></path>
        <path d="M15.4117647,19.2374545 C16.8235368,19.2374545 17.8823529,18.1137091 17.8823529,16.6153635 L17.8823529,10.8093636 C17.8823529,9.31101807 16.8235368,8 15.4117647,8 C13.9999926,8 12.9411765,9.31101807 12.9411765,10.8093636 L12.9411765,16.6153635 C12.9411765,18.1137091 13.9999926,19.2374545 15.4117647,19.2374545 L15.4117647,19.2374545 Z M15.4117647,38.9029999 C13.9999926,38.9029999 12.9411765,40.0267454 12.9411765,41.525091 L12.9411765,61.377909 C12.9411765,62.8762545 13.9999926,64 15.4117647,64 C16.8235368,64 17.8823529,62.8762545 17.8823529,61.377909 L17.8823529,41.7123636 C17.8823529,40.214018 16.8235368,38.9029999 15.4117647,38.9029999 L15.4117647,38.9029999 Z" id="形状" fill="#60759C" fill-rule="nonzero"></path>
        <path d="M36,27.7647059 C31.4901769,27.7647059 27.7647059,31.4902344 27.7647059,36 C27.7647059,40.5098231 31.4901769,44.2352941 36,44.2352941 C40.5098231,44.2352941 44.2352941,40.5098231 44.2352941,36 C44.2352941,31.4902344 40.5098231,27.7647059 36,27.7647059 Z M36,39.1372932 C34.2352941,39.1372932 32.8627642,37.7647059 32.8627642,36 C32.8627642,34.2352941 34.2352941,32.8627642 36,32.8627642 C37.7647059,32.8627642 39.1372358,34.2352941 39.1372358,36 C39.1372358,37.7647059 37.7647059,39.1372932 36,39.1372932 Z" id="形状" fill="#60759C" fill-rule="nonzero"></path>
        <path d="M35.1848698,26.3545273 C36.5918423,26.3545273 37.6470588,25.2307819 37.6470588,23.7324363 L37.6470588,10.622091 C37.6470588,9.12374545 36.5918423,8 35.1848698,8 C33.7778973,8 32.7226808,9.12374545 32.7226808,10.622091 L32.7226808,23.5451637 C32.5468286,25.2307819 33.7778973,26.3545273 35.1848698,26.3545273 Z M35.1848698,46.394618 C33.7778973,46.394618 32.7226808,47.5183635 32.7226808,49.016709 L32.7226808,61.377909 C32.7226808,62.8762545 33.7778973,64 35.1848698,64 C36.5918423,64 37.6470588,62.8762545 37.6470588,61.377909 L37.6470588,49.016709 C37.6470588,47.5183635 36.5918423,46.394618 35.1848698,46.394618 Z" id="形状" fill="#60759C" fill-rule="nonzero"></path>
        <path d="M55.7647059,34.3529412 C51.2548828,34.3529412 47.5294118,38.0784122 47.5294118,42.5882353 C47.5294118,47.0980584 51.2548828,50.8235294 55.7647059,50.8235294 C60.274529,50.8235294 64,47.0980009 64,42.5882353 C64,38.0784697 60.274529,34.3529412 55.7647059,34.3529412 Z M55.7647059,45.725471 C54,45.725471 52.6274701,44.3529412 52.6274701,42.5882353 C52.6274701,40.8235294 54,39.4509421 55.7647059,39.4509421 C57.5294118,39.4509421 58.9019416,40.8235294 58.9019416,42.5882353 C58.9019416,44.3529412 57.5294118,45.725471 55.7647059,45.725471 L55.7647059,45.725471 Z" id="形状" fill="#60759C" fill-rule="nonzero"></path>
        <path d="M56.5966345,33.2 C58.003607,33.2 59.0588235,32.08 59.0588235,30.5866484 L59.0588235,10.6133516 C59.0588235,9.12 58.003607,8 56.5966345,8 C55.189662,8 54.1344455,9.12 54.1344455,10.6133516 L54.1344455,30.4 C53.9585933,31.8933516 55.189662,33.2 56.5966345,33.2 Z M56.5966345,53.1733516 C55.189662,53.1733516 54.1344455,54.2933516 54.1344455,55.7866484 L54.1344455,61.3866484 C54.1344455,62.88 55.189662,64 56.5966345,64 C58.003607,64 59.0588235,62.88 59.0588235,61.3866484 L59.0588235,55.7866484 C59.0588235,54.2933516 58.003607,53.1733516 56.5966345,53.1733516 Z" id="形状" fill="#60759C" fill-rule="nonzero"></path>
    </g>
</svg>