<?xml version="1.0" encoding="UTF-8"?>
<svg width="72px" height="72px" viewBox="0 0 72 72" version="1.1" xmlns="http://www.w3.org/2000/svg" xmlns:xlink="http://www.w3.org/1999/xlink">
    <title>税务信息</title>
    <g id="税务信息" stroke="none" stroke-width="1" fill="none" fill-rule="evenodd">
        <path d="M36.2811321,34 L39.2424528,34.8781179 C38.6396226,36.0943202 38.0141509,37.3537973 37.4122642,38.4347658 L37.4122642,38.4347658 L39.7245283,38.4347658 L39.7245283,46.0637531 L37.0028302,46.0637531 L37.0028302,51.5785858 C37.0028302,52.2556562 37.0509434,52.3205684 37.3886793,52.3205684 L37.3886793,52.3205684 L38.159434,52.3205684 C38.518868,52.3205684 38.6169811,51.9851886 38.6877359,49.5987636 C39.1943396,50.0026617 40.3018868,50.4336066 41,50.5895763 C40.7839623,53.7621603 40.1103773,54.6177392 38.4707547,54.6177392 L38.4707547,54.6177392 L36.8820755,54.6177392 C34.8132075,54.6177392 34.3792453,53.8757566 34.3792453,51.6029279 L34.3792453,51.6029279 L34.3792453,46.0637531 L33.1264151,46.0637531 C32.7886792,50.0261023 31.8735849,53.1554115 27.6849057,55 C27.3481132,54.3716138 26.5773585,53.3798995 26,52.9083845 C29.4905661,51.4902331 30.1405661,49.1272485 30.3820755,46.0637531 L30.3820755,46.0637531 L28.1650944,46.0637531 L28.1650944,38.4347658 L30.6698113,38.4347658 C30.2603774,37.3997768 29.5150943,36.0492423 28.7915095,34.9908127 L28.7915095,34.9908127 L31.1518868,34.0243421 C32.0433962,35.1936634 32.9820755,36.7695875 33.3443396,37.8271155 L33.3443396,37.8271155 L31.8981132,38.4347658 L34.4735849,38.4347658 C35.1490566,37.1752887 35.895283,35.3505345 36.2811321,34 L36.2811321,34 Z M36,41 L30,41 L30,44 L36,44 L36,41 Z" id="形状结合" fill="#60759C"></path>
        <path d="M27,46.128318 C26.5847474,45.6089603 24.7881792,43.6611421 24.1961868,43.1182183 L24.1961868,42.7810436 L26.8249762,42.7810436 L26.8249762,40.2676421 L24.1961868,40.2676421 L24.1961868,36.9865337 C25.1373689,36.7825974 26.0579599,36.4880228 26.8472831,36.1716949 L25.4016206,34 C23.6273594,34.74686 20.9333651,35.4248349 18.5036225,35.8327075 C18.7661583,36.4209504 19.0956149,37.3028616 19.2045758,37.9146705 C19.9921831,37.8240321 20.8244042,37.688981 21.6797903,37.5294575 L21.6797903,40.2676421 L18.4590086,40.2676421 L18.4590086,42.7810436 L21.1967588,42.7810436 C20.4314586,44.9282662 19.2045758,47.3519358 18,48.7985239 C18.4152526,49.5000647 19.006387,50.6312314 19.2483318,51.424317 C20.1234509,50.2704907 20.9556721,48.595494 21.6797903,46.8081057 L21.6797903,55 L24.1961868,55 L24.1961868,45.766671 C24.7444233,46.6712417 25.2694948,47.6202253 25.5543375,48.2800725 L27,46.128318 L27,46.128318 Z" id="路径" fill="#60759C"></path>
        <path d="M38.568119,9.7972973 L16,9.7972973 C12.4101491,9.7972973 9.5,12.7074464 9.5,16.2972973 L9.5,57.5945946 C9.5,61.1844455 12.4101491,64.0945946 16,64.0945946 L53.4054054,64.0945946 C56.9952563,64.0945946 59.9054054,61.1844455 59.9054054,57.5945946 L59.9054054,28.1790403 C59.9054054,26.8352524 59.3048567,25.5617811 58.268022,24.7069478 L41.4307356,10.8252048 C40.6247565,10.1607038 39.6127069,9.7972973 38.568119,9.7972973 Z M38.388,14.797 L54.905,28.414 L54.9054054,57.5945946 C54.9054054,58.4230217 54.2338325,59.0945946 53.4054054,59.0945946 L16,59.0945946 C15.1715729,59.0945946 14.5,58.4230217 14.5,57.5945946 L14.5,16.2972973 C14.5,15.4688702 15.1715729,14.797 16,14.797 L38.388,14.797 Z" id="路径-5" fill="#60759C" fill-rule="nonzero"></path>
        <path d="M41.7432432,11 L41.7432432,25.4594595 C41.7432432,26.7849429 42.7747792,27.8694981 44.0788676,27.9541418 L44.2432432,27.9594595 L60,27.9594595 L60,32.9594595 L44.2432432,32.9594595 C40.182326,32.9594595 36.8752257,29.731985 36.7470968,25.7021905 L36.7432432,25.4594595 L36.7432432,11 L41.7432432,11 Z" id="路径-6" fill="#60759C" fill-rule="nonzero"></path>
    </g>
</svg>