<?xml version="1.0" encoding="UTF-8"?>
<svg width="72px" height="72px" viewBox="0 0 72 72" version="1.1" xmlns="http://www.w3.org/2000/svg" xmlns:xlink="http://www.w3.org/1999/xlink">
    <title>其他信息</title>
    <g id="其他信息" stroke="none" stroke-width="1" fill="none" fill-rule="evenodd">
        <path d="M10,34 C11.3807119,34 12.5,35.1192881 12.5,36.5 C12.5,49.754834 23.245166,60.5 36.5,60.5 C42.8728267,60.5 48.8459692,58.0084033 53.3050167,53.6345204 C54.2906949,52.6676679 55.8735338,52.6829292 56.8403862,53.6686074 C57.8072387,54.6542856 57.7919774,56.2371245 56.8062992,57.203977 C51.4216902,62.4857439 44.1955684,65.5 36.5,65.5 C20.4837423,65.5 7.5,52.5162577 7.5,36.5 C7.5,35.1192881 8.61928813,34 10,34 Z M36.5,7.5 C52.5162577,7.5 65.5,20.4837423 65.5,36.5 C65.5,39.2660713 65.2387619,41.5138045 64.6000956,43.8603068 C64.2374875,45.1925533 62.8635364,45.9786004 61.5312899,45.6159923 C60.1990435,45.2533842 59.4129963,43.8794331 59.7756044,42.5471866 C60.2893387,40.6596927 60.5,38.8471303 60.5,36.5 C60.5,23.245166 49.754834,12.5 36.5,12.5 C28.0387919,12.5 20.3416086,16.9117666 16.0076486,24.0001469 C15.2874136,25.1781226 13.7486098,25.5491948 12.5706341,24.8289598 C11.3926583,24.1087248 11.0215862,22.5699209 11.7418212,21.3919452 C16.9750157,12.8328276 26.2791688,7.5 36.5,7.5 Z" id="形状" fill="#60759C" fill-rule="nonzero" transform="translate(36.500000, 36.500000) rotate(-23.000000) translate(-36.500000, -36.500000) "></path>
        <path d="M48.5,33.7142857 C50,32.7619048 52,32.7619048 53.5,33.7142857 C55,34.6666666 56,36.0952381 56,38 C56,39.904762 55,41.3333334 53.5,42.2857143 C52,43.2380952 50,43.2380952 48.5,42.2857143 C47,41.3333334 46,39.9047619 46,38 C46,36.0952382 47,34.6666667 48.5,33.7142857 L48.5,33.7142857 Z" id="路径" fill="#60759C"></path>
        <path d="M33.5,33.7317073 C35,32.7560976 37,32.7560976 38.5,33.7317073 C40,34.707317 41,36.1707317 41,38.1219512 C41,41.0487805 38.5,43 36,43 C33,43 31,41.0487805 31,38.1219512 C31,36.1707317 32,34.7073171 33.5,33.7317073 Z" id="路径" fill="#60759C"></path>
        <path d="M18.5,33.7142857 C20,32.7619048 22,32.7619048 23.5,33.7142857 C25,34.6666666 26,36.0952381 26,38 C26,39.904762 25,41.3333334 23.5,42.2857143 C22,43.2380952 20,43.2380952 18.5,42.2857143 C17,41.3333334 16,39.9047619 16,38 C16,36.0952382 17,34.6666667 18.5,33.7142857 L18.5,33.7142857 Z" id="路径" fill="#60759C"></path>
    </g>
</svg>