<?xml version="1.0" encoding="UTF-8"?>
<svg width="72px" height="72px" viewBox="0 0 72 72" version="1.1" xmlns="http://www.w3.org/2000/svg" xmlns:xlink="http://www.w3.org/1999/xlink">
    <title>资产信息</title>
    <g id="资产信息" stroke="none" stroke-width="1" fill="none" fill-rule="evenodd">
        <path d="M12.6341377,49 C13.3616623,49 14.0202837,49.3015436 14.4970529,49.7889499 C14.9739389,50.2764757 15.268852,50.9499417 15.268852,51.6934972 C15.268852,51.9024742 15.6034472,52.2318273 16.1504912,52.6396862 C17.096754,53.3461131 18.5729964,54.0178599 20.4120882,54.5976213 C24.5524469,55.9000907 30.0899254,56.6130056 36.0023066,56.6130056 C41.9149016,56.6130056 47.454851,55.9011953 51.5976528,54.6019493 C53.4215998,54.0258629 54.8980781,53.3524358 55.8559453,52.6403658 C56.3980352,52.2368636 56.7299947,51.9080571 56.7299947,51.6982133 C56.7299947,50.9546578 57.0249078,50.2811918 57.5017938,49.7936661 C57.978563,49.3062597 58.6371844,49.0047161 59.364709,49.0047161 C60.0924479,49.0047161 60.7509214,49.3061703 61.2276484,49.7933961 C61.7046125,50.2808642 62,50.9543208 62,51.6982133 C62,53.0600251 61.5064222,55.0986448 58.9556497,56.9977383 C57.534207,58.0528113 55.5837882,58.9809782 53.1480434,59.7503863 C48.5302911,61.198719 42.443223,62 36.0028833,62 C29.5617369,62 23.47447,61.1974539 18.862145,59.7460183 C16.4079407,58.9725338 14.4530934,58.0426627 13.0434036,56.9912982 C10.4942561,55.0864486 10,53.0512444 10,51.6929077 C10,50.9493052 10.2947893,50.2760128 10.7715108,49.7886552 C11.2481155,49.3014171 11.906567,49 12.6341377,49 Z M36.0028855,10 C42.4523897,10 48.5404203,10.795637 53.1469221,12.2342848 C55.5786565,12.9914474 57.5319947,13.9136345 58.9536178,14.9624173 C61.5036567,16.8320674 62,18.8604463 62,20.2166233 C62,21.5646755 61.5059762,23.5843621 58.9560409,25.4685672 C57.5321616,26.5157241 55.5810449,27.4364266 53.1466147,28.1973043 C48.5264485,29.633083 42.4392667,30.4285714 36.0023089,30.4285714 C29.5592679,30.4285714 23.4724433,29.6318047 18.8609324,28.1930483 C16.4033096,27.4267464 14.4469616,26.5029163 13.041556,25.4612139 C10.4917741,23.5756583 9.99874221,21.5576368 10,20.2113637 C10,18.8613071 10.4942252,16.8389789 13.0458551,14.9579721 C14.461474,13.9149865 16.4126291,12.9929463 18.8530827,12.2288458 C23.4772381,10.7942753 29.5660537,10 36.0028855,10 Z M36.4674828,15.5714286 C30.5107092,15.5714286 24.9254956,16.2436151 20.7432497,17.4708147 C18.9038989,18.0139302 17.4165047,18.6503166 16.4542486,19.32019 C15.9050631,19.7033225 15.5718496,20.0230396 15.5714286,20.212991 C15.5714286,20.39976 15.9078279,20.7190984 16.4589433,21.1038082 C17.425316,21.7817028 18.8728271,22.3970626 20.7547995,22.9530673 C24.9267968,24.1839801 30.5076481,24.8571429 36.4674828,24.8571429 C42.4241042,24.8571429 48.0063113,24.1855596 52.1855801,22.9567386 C54.022461,22.4140636 55.5104617,21.7781613 56.4766648,21.105587 C57.0223286,20.7243093 57.3571429,20.4132448 57.3571429,20.216234 C57.3571429,20.0260975 57.024732,19.7079657 56.4799508,19.3303322 C55.4934423,18.6418653 54.0470591,18.023205 52.1836182,17.4745519 C48.0150814,16.2445742 42.4336453,15.5714286 36.4674828,15.5714286 Z" id="形状" fill="#60759C" fill-rule="nonzero"></path>
        <path d="M12.6090938,38.7857143 C13.3295438,38.7857143 13.9817606,39.0851356 14.4538935,39.5691114 C14.9261422,40.0532058 15.2181875,40.7219318 15.2181875,41.460254 C15.2181875,41.6579892 15.5490714,41.9930733 16.0912534,42.3986127 C17.0283245,43.1000751 18.4907781,43.7670955 20.3113554,44.3427503 C21.834649,44.8230798 23.5650498,45.2273867 25.4531027,45.5428429 C26.1643173,45.6620261 26.7610598,46.0650829 27.1510483,46.6204491 C27.5411379,47.1759592 27.7243994,47.8838716 27.6084573,48.61282 C27.5047279,49.2642871 27.1799109,49.8218123 26.7256372,50.2183104 C26.2642852,50.6209864 25.6691684,50.8571429 25.0361234,50.8571429 C24.8952706,50.8571429 24.7544421,50.8463311 24.6135774,50.8223875 C22.4859691,50.4664066 20.5222764,50.0073172 18.7747491,49.4554899 C16.3456062,48.6874551 14.4097805,47.7641396 13.014095,46.7203966 C10.4889188,44.8307469 10,42.8077987 10,41.4608393 C10,40.7225341 10.2920476,40.0536326 10.7643132,39.5693843 C11.2364589,39.0852589 11.8886727,38.7857143 12.6090938,38.7857143 Z M59.3584775,38.7857143 C60.0879372,38.7857143 60.7479678,39.0860371 61.2258221,39.5714342 C61.703914,40.0570727 61.9996274,40.7280017 62,41.4691023 C62,42.8238323 61.504819,44.8535238 58.9485078,46.7473594 C57.5172232,47.8008397 55.5622261,48.7259461 53.1260219,49.4892716 C51.4177062,50.0220269 49.5032669,50.4689054 47.434052,50.820706 C47.2846127,50.8452553 47.1391535,50.8571429 46.9959212,50.8571429 C46.3573826,50.8571429 45.7564586,50.6215769 45.2898266,50.2195428 C44.8303901,49.823708 44.5009369,49.2669556 44.3937221,48.6159578 C44.2734099,47.8851327 44.456218,47.1741642 44.8489259,46.6152907 C45.2416431,46.0564039 45.8443037,45.649637 46.5640339,45.5273125 C48.4001572,45.216663 50.0860874,44.8231462 51.5730781,44.3601709 C53.398358,43.7872647 54.8785169,43.1161006 55.8426326,42.4059127 C56.3852498,42.0045882 56.7175331,41.6670158 56.7175331,41.4691023 C56.7175331,40.7283375 57.0131436,40.0573991 57.4911573,39.5717031 C57.9690538,39.0861262 58.6292326,38.7857143 59.3584775,38.7857143 L59.3584775,38.7857143 Z M12.6090938,28.5714286 C13.3295438,28.5714286 13.9817606,28.8708208 14.4538935,29.3547497 C14.9261422,29.8387972 15.2181875,30.5074583 15.2181875,31.2457089 C15.2181875,31.453195 15.549529,31.7801982 16.0912534,32.1851472 C17.0283245,32.8865416 18.4907781,33.5534973 20.3113554,34.1290963 C21.834649,34.6093793 23.5650498,35.013647 25.4531027,35.3290725 C26.1643173,35.4482442 26.7610598,35.8512619 27.1510483,36.4065742 C27.5411379,36.9620305 27.7243994,37.6698742 27.6084573,38.3987519 C27.5047279,39.0501558 27.1799109,39.607627 26.7256372,40.0040866 C26.2642852,40.4067236 25.6691684,40.6428571 25.0361234,40.6428571 C24.8952706,40.6428571 24.7544421,40.6320465 24.6135774,40.6081052 C22.4859691,40.2521588 20.5222764,39.7931139 18.7747491,39.2413401 C16.3456062,38.4733798 14.4097805,37.5501539 13.0138649,36.5063398 C10.4888569,34.6150653 10,32.5943705 10,31.2457089 C10,30.5074583 10.2920454,29.8387972 10.764294,29.3547497 C11.2364269,28.8708208 11.8886437,28.5714286 12.6090938,28.5714286 Z M59.3584775,28.5714286 C60.0879372,28.5714286 60.7479678,28.8717513 61.2258221,29.3571485 C61.703914,29.842787 61.9996274,30.513716 62,31.2548166 C62,32.6095466 61.504819,34.6392381 58.9485078,36.5330736 C57.5172232,37.586554 55.5622261,38.5116604 53.1260219,39.2749858 C51.4177062,39.8077412 49.5032669,40.2546196 47.434052,40.6064203 C47.2846127,40.6309696 47.1391535,40.6428571 46.9959212,40.6428571 C46.3573826,40.6428571 45.7564586,40.4072912 45.2898266,40.0052571 C44.8303901,39.6094223 44.5009369,39.0526699 44.3937221,38.4016721 C44.2734099,37.670847 44.456218,36.9598785 44.8489259,36.401005 C45.2416431,35.8421182 45.8443037,35.4353513 46.5640339,35.3130267 C48.4001572,35.0023773 50.0860874,34.6088605 51.5730781,34.1458852 C53.398358,33.572979 54.8785169,32.9018149 55.8426326,32.191627 C56.3852498,31.7903025 56.7175331,31.4527301 56.7175331,31.2548166 C56.7175331,30.5140518 57.0131436,29.8431134 57.4911573,29.3574174 C57.9690538,28.8718404 58.6292326,28.5714286 59.3584775,28.5714286 L59.3584775,28.5714286 Z" id="形状" fill="#60759C" fill-rule="nonzero"></path>
        <path d="M42.2145957,41.6624588 C43.3979828,41.6624588 44.3571429,40.7283409 44.3571429,39.5758501 C44.3571429,38.4233593 43.3979828,37.4892414 42.2145957,37.4892414 L39.9010073,37.4892414 L42.5403595,34.9187985 C43.3768293,34.1041676 43.3768293,32.7827469 42.5403595,31.968116 C41.7038898,31.1534851 40.3470439,31.1534851 39.5105742,31.968116 L36.0432136,35.3449493 L32.575853,31.968116 C31.7393832,31.1534851 30.3825374,31.1534851 29.5460676,31.968116 C28.7095979,32.7827469 28.7095979,34.1041676 29.5460676,34.9187985 L32.1854198,37.4892414 L29.7854043,37.4892414 C28.6020172,37.4892414 27.6428571,38.4233593 27.6428571,39.5758501 C27.6428571,40.7283409 28.6020172,41.6624588 29.7854043,41.6624588 L33.8571506,41.6624588 L33.8571506,44.1245982 L29.7854043,44.1245982 C28.6020172,44.1245982 27.6428571,45.0587161 27.6428571,46.2112069 C27.6428571,47.3636976 28.6020172,48.2978155 29.7854043,48.2978155 L33.8571506,48.2978155 L33.8571506,53.4133913 C33.8571506,54.5658821 34.8163107,55.5 35.9996978,55.5 C37.1830849,55.5 38.142245,54.5658821 38.142245,53.4133913 L38.142245,48.2978155 L42.2139913,48.2978155 C43.3973784,48.2978155 44.3565385,47.3636976 44.3565385,46.2112069 C44.3565385,45.0587161 43.3973784,44.1245982 42.2139913,44.1245982 L38.142245,44.1245982 L38.142245,41.6624588 L42.2145957,41.6624588 L42.2145957,41.6624588 Z" id="路径" fill="#60759C" fill-rule="nonzero"></path>
    </g>
</svg>