<?xml version="1.0" encoding="UTF-8"?>
<svg width="72px" height="72px" viewBox="0 0 72 72" version="1.1" xmlns="http://www.w3.org/2000/svg" xmlns:xlink="http://www.w3.org/1999/xlink">
    <title>地址信息</title>
    <g id="地址信息" stroke="none" stroke-width="1" fill="none" fill-rule="evenodd">
        <path d="M34.4492754,17.9130435 C36.8997253,17.9130435 39.0977782,18.8420192 40.6843929,20.3493032 C42.2814352,21.8664934 43.2608696,23.9696082 43.2608696,26.3115942 C43.2608696,28.6535802 42.2814352,30.7566951 40.684393,32.2738852 C39.0977782,33.7811692 36.8997254,34.7101449 34.4492754,34.7101449 C32.040937,34.7101449 29.8305342,33.7722975 28.2275125,32.2494269 C26.6321444,30.7338272 25.6376812,28.640322 25.6376812,26.3115942 C25.6376812,23.9696083 26.6171156,21.8664934 28.2141578,20.3493032 C29.8007725,18.8420192 31.9988254,17.9130435 34.4492754,17.9130435 Z M34.4492753,23.0874151 C33.4848077,23.0874151 32.5892686,23.4612506 31.9401706,24.0778937 C31.3167999,24.6700959 30.9218492,25.4880286 30.9218492,26.4109338 C30.9218492,27.3451026 31.3008687,28.1736728 31.9268255,28.7683318 C32.5631192,29.3728108 33.450864,29.7344524 34.4492753,29.7344524 C35.413743,29.7344524 36.3092821,29.3606169 36.9583801,28.7439738 C37.5817509,28.1517716 37.9767015,27.333839 37.9767015,26.4109338 C37.9767015,25.476765 37.597682,24.6481947 36.9717252,24.0535358 C36.3354315,23.4490568 35.4476866,23.0874151 34.4492753,23.0874151 Z" id="形状" fill="#60759C" fill-rule="nonzero"></path>
        <path d="M35,8 C40.2301521,8 44.9801747,10.128152 48.4225344,13.5603825 C51.8654836,16.9932007 54,21.7301356 54,26.9457124 C54,32.2023454 51.7107586,37.2529957 47.8465642,40.8630489 L47.715715,40.9841887 L36.9435611,51.8279098 C36.4252782,52.3446677 35.7790364,52.6086957 35,52.6086957 C34.3727546,52.6086957 33.7430289,52.3738841 33.2293965,51.8947601 L33.1600865,51.8279098 L22.2878308,40.987646 C18.2378192,37.36875 16,32.2634516 16,26.9457124 C16,21.7301356 18.1345164,16.9932006 21.5774656,13.5603824 C25.0198253,10.128152 29.7698478,8 35,8 Z M35,13.1318118 C31.2128544,13.1318118 27.7746905,14.6723033 25.2832045,17.1564581 C22.7923079,19.6400252 21.2473539,23.0671829 21.2473539,26.8423698 C21.2473539,30.6771215 22.9066388,34.4144465 25.7418841,36.9952743 C25.865508,37.0461624 25.9988374,37.1395699 26.0690234,37.3117881 L26.0690234,37.3117881 L35,46.2164851 L44.043086,37.2000086 L44.1574675,37.0859637 L44.2791441,36.9760921 C47.1015638,34.3959463 48.7526468,30.6675289 48.7526941,26.8351027 C48.8024769,23.0627442 47.2835569,19.6381597 44.7945312,17.1564581 C42.302284,14.6715445 38.8378073,13.1318118 35,13.1318118 Z" id="形状" fill="#60759C" fill-rule="nonzero"></path>
        <path d="M12.8052611,47.8028697 C13.4664179,46.5907488 14.9850095,46.1441042 16.1971303,46.8052611 C17.3587461,47.4388697 17.8173464,48.8599488 17.2716385,50.0441032 L17.1947389,50.1971303 L13.6146788,56.7605739 C13.4824474,57.0029981 13.5717763,57.3067164 13.8142005,57.4389478 C13.8631634,57.4656548 13.916072,57.4838868 13.9706921,57.493074 L14.0536266,57.5 L58.3409875,57.5 C58.6171298,57.5 58.8409875,57.2761424 58.8409875,57 C58.8409875,56.9524164 58.8341957,56.9052004 58.8209167,56.8597575 L58.7961707,56.7930985 L55.7240838,50.0345074 C55.1527412,48.7775536 55.7085388,47.2954264 56.9654926,46.7240838 C58.1700734,46.1765471 59.5814539,46.6641792 60.1998369,47.8120561 L60.2759162,47.9654926 L63.3480031,54.7240838 C63.6728921,55.4388397 63.8409875,56.2148702 63.8409875,57 C63.8409875,59.9634791 61.4972074,62.3795391 58.5621946,62.4956328 L58.3409875,62.5 L14.0536266,62.5 C13.1333721,62.5 12.2278271,62.2690915 11.4199399,61.8284257 C8.82165004,60.4111767 7.82215378,57.2030672 9.11810717,54.5727281 L9.22520092,54.3663133 L12.8052611,47.8028697 Z" id="路径-15" fill="#60759C" fill-rule="nonzero"></path>
    </g>
</svg>