<?xml version="1.0" encoding="UTF-8"?>
<svg width="72px" height="72px" viewBox="0 0 72 72" version="1.1" xmlns="http://www.w3.org/2000/svg" xmlns:xlink="http://www.w3.org/1999/xlink">
    <title>合同信息</title>
    <g id="合同信息" stroke="none" stroke-width="1" fill="none" fill-rule="evenodd">
        <rect id="矩形" fill="#60759C" x="21" y="47" width="30" height="5" rx="2.5"></rect>
        <path d="M36.512482,19.3348111 L39.4409507,24.9412086 C39.5412714,25.1512158 39.7493299,25.2963582 39.9900386,25.3242544 L46.4692755,26.194813 C46.7025049,26.2157374 46.9001923,26.3668538 46.9718793,26.5790138 C47.0435663,26.7911737 46.9754614,27.0235608 46.7987282,27.1698386 L42.1131784,31.5922764 C41.9276924,31.7489949 41.8440016,31.9878346 41.8935432,32.2190786 L42.991719,38.3478112 C43.029504,38.5554654 42.940892,38.7656293 42.7627383,38.8908925 C42.5845845,39.0161557 42.3473809,39.0350787 42.1497842,38.9397911 L36.3294527,35.9798918 C36.1237505,35.8746448 35.8762495,35.8746448 35.6705473,35.9798918 L29.8502158,38.8701464 C29.6526191,38.965434 29.4154155,38.946511 29.2372617,38.8212478 C29.059108,38.6959846 28.970496,38.4858207 29.008281,38.2781666 L30.1064568,32.1494339 C30.1301213,31.9411078 30.0486484,31.7344323 29.8868216,31.5922764 L25.2012718,27.1698386 C25.0245386,27.0235608 24.9564337,26.7911737 25.0281207,26.5790138 C25.0998077,26.3668538 25.2974951,26.2157374 25.5307245,26.194813 L32.0099614,25.3242544 C32.2506701,25.2963582 32.4587286,25.1512158 32.5590493,24.9412086 L35.487518,19.3348111 C35.5690818,19.1330982 35.7728098,19 36,19 C36.2271902,19 36.4309182,19.1330982 36.512482,19.3348111 L36.512482,19.3348111 Z" id="路径" fill="#60759C" fill-rule="nonzero"></path>
        <path d="M53,8 C57.418278,8 61,11.581722 61,16 L61,56 C61,60.418278 57.418278,64 53,64 L19,64 C14.581722,64 11,60.418278 11,56 L11,16 C11,11.581722 14.581722,8 19,8 L53,8 Z M53,13 L19,13 C17.4023191,13 16.0963391,14.24892 16.0050927,15.8237272 L16,16 L16,56 C16,57.5976809 17.24892,58.9036609 18.8237272,58.9949073 L19,59 L53,59 C54.5976809,59 55.9036609,57.75108 55.9949073,56.1762728 L56,56 L56,16 C56,14.4023191 54.75108,13.0963391 53.1762728,13.0050927 L53,13 Z" id="Rectangle-5" fill="#60759C" fill-rule="nonzero"></path>
    </g>
</svg>