<?xml version="1.0" encoding="UTF-8"?>
<svg width="72px" height="72px" viewBox="0 0 72 72" version="1.1" xmlns="http://www.w3.org/2000/svg" xmlns:xlink="http://www.w3.org/1999/xlink">
    <title>生产成本信息</title>
    <g id="生产成本信息" stroke="none" stroke-width="1" fill="none" fill-rule="evenodd">
        <path d="M46.499686,56.2107337 L44.644295,56.5934374 L41.3213314,61.5385164 L42.5740691,62.7686355 L47.626871,59.507453 L48.0146896,57.6950774 L51.1395587,54.6088452 L49.6245552,53.1217678 L46.499686,56.2107337 Z M53.6617746,55.5273341 L63.0224318,46.3861821 C64.3253907,45.115059 64.3253907,43.053926 63.0252219,41.7828029 C61.7250531,40.5089461 59.6213465,40.5089461 58.3239678,41.7828029 L48.9633106,50.9212213 L53.6617746,55.5273341 Z M61.270273,44.3715203 C61.5130084,44.1336972 61.8980369,44.1336972 62.1379823,44.3715203 C62.3779276,44.6038761 62.3779276,44.9865798 62.1351922,45.2162021 L54.8503409,52.3590939 C54.6103956,52.596917 54.219787,52.596917 53.9826317,52.3590939 C53.7398963,52.1240045 53.7398963,51.7413008 53.9826317,51.5062113 L61.270273,44.3715203 Z M59.4930037,42.6247511 C59.732949,42.3896616 60.1235577,42.3896616 60.3607129,42.6247511 C60.6034483,42.8625741 60.6034483,43.2398107 60.3607129,43.4776337 L53.0730716,50.6150583 C52.8303362,50.855615 52.4425176,50.855615 52.2053624,50.6150583 C51.965417,50.3799689 51.965417,49.9972652 52.2053624,49.7676429 L59.4930037,42.6247511 Z M57.7073642,53.1190342 L53.3883485,57.3506441 C55.3860328,59.4719162 57.0321692,61.235087 57.8636076,62.0469656 C59.1498261,63.3098879 61.2312122,63.3180887 62.5034804,62.0688344 C63.7785386,60.8195801 63.7673783,58.7830495 62.4811598,57.5201272 L57.7073642,53.1190342 Z M61.1391401,60.7321049 C60.6229787,61.235087 59.7887503,61.235087 59.2725888,60.7321049 C58.7592174,60.2291229 58.7564274,59.4090435 59.2725888,58.9033278 C59.7859602,58.4003457 60.6229787,58.4003457 61.1391401,58.9033278 C61.6553016,59.411777 61.6553016,60.2291229 61.1391401,60.7321049 Z M51.1841997,44.9729119 C51.1841997,41.6734589 48.4583094,39 45.0934949,39 C44.2676366,39 43.4780491,39.1612823 42.7610033,39.4537773 L46.0253755,42.6520871 C46.6140786,43.2288763 46.6140786,44.1747012 46.0253755,44.754224 L44.7865881,45.9734088 C44.1978851,46.550198 43.2325237,46.550198 42.6410306,45.9734088 L39.4185093,42.816103 C39.1534534,43.4858345 39,44.210238 39,44.9729119 C39,48.2668976 41.7286804,50.9403565 45.0934949,50.9403565 C48.4583094,50.9403565 51.1841997,48.2668976 51.1841997,44.9729119 Z" id="形状" fill="#60759C" fill-rule="nonzero"></path>
        <path d="M30,7.5 C31.3807119,7.5 32.5,8.61928813 32.5,10 C32.5,11.3254834 31.4684641,12.4100387 30.1643757,12.4946823 L30,12.5 L17.7037037,12.5 C14.9034679,12.5 12.6198335,14.7118335 12.5045651,17.4837358 L12.5,17.7037037 L12.5,54.2962963 C12.5,57.0965321 14.7118335,59.3801665 17.4837358,59.4954349 L17.7037037,59.5 L54.2962963,59.5 C57.0965321,59.5 59.3801665,57.2881665 59.4954349,54.5162642 L59.5,54.2962963 L59.5,41.6045476 C59.5,40.2238358 60.6192881,39.1045476 62,39.1045476 C63.3254834,39.1045476 64.4100387,40.1360836 64.4946823,41.440172 L64.5,41.6045476 L64.5,54.2962963 C64.5,59.8377237 60.0826557,64.3474252 54.5771584,64.4962092 L54.2962963,64.5 L17.7037037,64.5 C12.1622763,64.5 7.65257485,60.0826557 7.50379075,54.5771584 L7.5,54.2962963 L7.5,17.7037037 C7.5,12.1622763 11.9173443,7.65257485 17.4228416,7.50379075 L17.7037037,7.5 L30,7.5 Z" id="路径" fill="#60759C" fill-rule="nonzero" transform="translate(36.000000, 36.000000) scale(1, -1) translate(-36.000000, -36.000000) "></path>
        <path d="M34.5569799,33.890996 C34.816994,34.2199951 34.9660012,34.6129956 34.9990035,35.0699951 C34.9660017,35.5449952 34.8169935,35.9419947 34.5569799,36.2599952 C34.2959647,36.5799952 33.9409453,36.7569947 33.4869215,36.7949952 L28.4786408,36.7679952 L28.4786408,39.6719993 C28.4106371,41.223999 27.6005924,42 26.0525076,42 C25.2874659,42 24.6924334,41.81 24.2664093,41.425 C23.8383854,41.0419994 23.6083729,40.4580004 23.5753706,39.6719993 L23.5753706,36.8219991 L18.5390854,36.8219991 C18.0710594,36.7859991 17.7090402,36.5799991 17.4580255,36.2059981 L17.4580255,36.2059981 C17.2062466,35.8341108 17.0490237,35.4064082 17,34.959997 C17.0530029,34.503996 17.2050112,34.1299969 17.4580255,33.8369964 C17.7080391,33.5449969 18.0710594,33.3799969 18.5390853,33.3429974 L23.5753706,33.3429974 L23.5753706,30.6169962 L18.5390853,30.5899962 C18.0710594,30.5529962 17.7090401,30.3799962 17.4580255,30.0699962 C17.2050112,29.7579966 17.0530034,29.3649961 17,28.8899961 C17.0530029,28.4339951 17.2050112,28.059996 17.4580255,27.7669955 C17.7080391,27.474996 18.0710594,27.3109945 18.5390853,27.273995 L22.296297,27.273995 L18.8001103,20.8100053 L18.8001103,20.8100053 C18.6026416,20.5516947 18.4361623,20.2711112 18.3040823,19.9740043 L18.3040822,19.9740041 C18.1462358,19.626194 18.0748693,19.2453639 18.0960709,18.864004 C18.1820756,18.3520045 18.3570861,17.9370045 18.6160993,17.6170044 C18.878113,17.2980054 19.3661401,17.0920044 20.0781784,17.0010034 C20.4952007,17.0370034 20.8702211,17.1890034 21.2002391,17.4540039 C21.5302571,17.718003 21.8002718,18.0060035 22.0102833,18.3160035 L25.9744886,25.9329962 L30.3307318,18.2619996 C30.5387432,17.9519996 30.809757,17.6769996 31.140776,17.44 C31.470794,17.2000003 31.8438148,17.055 32.260837,17 C32.5228508,17.018 32.7608643,17.055 32.9788767,17.109 C33.1938884,17.165 33.3868994,17.256 33.552907,17.385001 C33.7169159,17.512001 33.8569226,17.695001 33.9699292,17.9320006 C34.0829354,18.1690006 34.1639398,18.4800011 34.2169422,18.8640001 C34.2169422,19.3940002 34.0439328,19.8959997 33.6959128,20.3709997 L29.6526993,27.2750041 L33.4879181,27.2750041 C33.9399422,27.3110041 34.2969612,27.4760042 34.5559768,27.7680047 C34.8159909,28.0610052 34.9649981,28.4350042 35,28.8910052 C34.9649981,29.3670062 34.8129898,29.7690058 34.5439742,30.0970063 C34.2739595,30.4250068 33.9139398,30.6070063 33.4609147,30.6450068 L28.4776352,30.6720068 L28.4776352,33.3430031 L33.485916,33.3430031 C33.9399398,33.3800031 34.2949591,33.5630031 34.5559743,33.8910036 L34.5569799,33.890996 Z" id="路径" fill="#60759C" fill-rule="nonzero"></path>
    </g>
</svg>