<?xml version="1.0" encoding="UTF-8"?>
<svg width="72px" height="72px" viewBox="0 0 72 72" version="1.1" xmlns="http://www.w3.org/2000/svg" xmlns:xlink="http://www.w3.org/1999/xlink">
    <title>生产信息</title>
    <g id="生产信息" stroke="none" stroke-width="1" fill="none" fill-rule="evenodd">
        <path d="M46.499686,56.2107337 L44.644295,56.5934374 L41.3213314,61.5385164 L42.5740691,62.7686355 L47.626871,59.507453 L48.0146896,57.6950774 L51.1395587,54.6088452 L49.6245552,53.1217678 L46.499686,56.2107337 Z M53.6617746,55.5273341 L63.0224318,46.3861821 C64.3253907,45.115059 64.3253907,43.053926 63.0252219,41.7828029 C61.7250531,40.5089461 59.6213465,40.5089461 58.3239678,41.7828029 L48.9633106,50.9212213 L53.6617746,55.5273341 Z M61.270273,44.3715203 C61.5130084,44.1336972 61.8980369,44.1336972 62.1379823,44.3715203 C62.3779276,44.6038761 62.3779276,44.9865798 62.1351922,45.2162021 L54.8503409,52.3590939 C54.6103956,52.596917 54.219787,52.596917 53.9826317,52.3590939 C53.7398963,52.1240045 53.7398963,51.7413008 53.9826317,51.5062113 L61.270273,44.3715203 Z M59.4930037,42.6247511 C59.732949,42.3896616 60.1235577,42.3896616 60.3607129,42.6247511 C60.6034483,42.8625741 60.6034483,43.2398107 60.3607129,43.4776337 L53.0730716,50.6150583 C52.8303362,50.855615 52.4425176,50.855615 52.2053624,50.6150583 C51.965417,50.3799689 51.965417,49.9972652 52.2053624,49.7676429 L59.4930037,42.6247511 Z M57.7073642,53.1190342 L53.3883485,57.3506441 C55.3860328,59.4719162 57.0321692,61.235087 57.8636076,62.0469656 C59.1498261,63.3098879 61.2312122,63.3180887 62.5034804,62.0688344 C63.7785386,60.8195801 63.7673783,58.7830495 62.4811598,57.5201272 L57.7073642,53.1190342 Z M61.1391401,60.7321049 C60.6229787,61.235087 59.7887503,61.235087 59.2725888,60.7321049 C58.7592174,60.2291229 58.7564274,59.4090435 59.2725888,58.9033278 C59.7859602,58.4003457 60.6229787,58.4003457 61.1391401,58.9033278 C61.6553016,59.411777 61.6553016,60.2291229 61.1391401,60.7321049 Z M51.1841997,44.9729119 C51.1841997,41.6734589 48.4583094,39 45.0934949,39 C44.2676366,39 43.4780491,39.1612823 42.7610033,39.4537773 L46.0253755,42.6520871 C46.6140786,43.2288763 46.6140786,44.1747012 46.0253755,44.754224 L44.7865881,45.9734088 C44.1978851,46.550198 43.2325237,46.550198 42.6410306,45.9734088 L39.4185093,42.816103 C39.1534534,43.4858345 39,44.210238 39,44.9729119 C39,48.2668976 41.7286804,50.9403565 45.0934949,50.9403565 C48.4583094,50.9403565 51.1841997,48.2668976 51.1841997,44.9729119 Z" id="形状" fill="#60759C" fill-rule="nonzero"></path>
        <path d="M30,7.5 C31.3807119,7.5 32.5,8.61928813 32.5,10 C32.5,11.3254834 31.4684641,12.4100387 30.1643757,12.4946823 L30,12.5 L17.7037037,12.5 C14.9034679,12.5 12.6198335,14.7118335 12.5045651,17.4837358 L12.5,17.7037037 L12.5,54.2962963 C12.5,57.0965321 14.7118335,59.3801665 17.4837358,59.4954349 L17.7037037,59.5 L54.2962963,59.5 C57.0965321,59.5 59.3801665,57.2881665 59.4954349,54.5162642 L59.5,54.2962963 L59.5,41.6045476 C59.5,40.2238358 60.6192881,39.1045476 62,39.1045476 C63.3254834,39.1045476 64.4100387,40.1360836 64.4946823,41.440172 L64.5,41.6045476 L64.5,54.2962963 C64.5,59.8377237 60.0826557,64.3474252 54.5771584,64.4962092 L54.2962963,64.5 L17.7037037,64.5 C12.1622763,64.5 7.65257485,60.0826557 7.50379075,54.5771584 L7.5,54.2962963 L7.5,17.7037037 C7.5,12.1622763 11.9173443,7.65257485 17.4228416,7.50379075 L17.7037037,7.5 L30,7.5 Z" id="路径" fill="#60759C" fill-rule="nonzero" transform="translate(36.000000, 36.000000) scale(1, -1) translate(-36.000000, -36.000000) "></path>
        <rect id="矩形" stroke="#60759C" stroke-width="4" fill="#D8D8D8" transform="translate(28.000000, 42.593345) scale(1, -1) translate(-28.000000, -42.593345) " x="22" y="42.0933449" width="12" height="1" rx="0.5"></rect>
        <rect id="矩形备份" stroke="#60759C" stroke-width="4" fill="#D8D8D8" transform="translate(36.000000, 27.593345) scale(1, -1) translate(-36.000000, -27.593345) " x="22" y="27.0933449" width="28" height="1" rx="0.5"></rect>
    </g>
</svg>