<?xml version="1.0" encoding="UTF-8"?>
<svg width="72px" height="72px" viewBox="0 0 72 72" version="1.1" xmlns="http://www.w3.org/2000/svg" xmlns:xlink="http://www.w3.org/1999/xlink">
    <title>客户信息</title>
    <g id="客户信息" stroke="none" stroke-width="1" fill="none" fill-rule="evenodd">
        <path d="M53.5,11.5 L17.5,11.5 C11.7010101,11.5 6.99996194,16.2010101 6.99996194,22 L6.99996194,30.10274 L7.97086688,30.8533627 C9.55628375,32.0790748 10.5,33.9590632 10.5,36 C10.5,38.0409368 9.55628375,39.9209252 7.97086688,41.1466373 L6.99996194,41.89726 L6.99996194,50.0000117 C6.99996194,55.7989899 11.7010101,60.5 17.5,60.5 L53.5,60.5 C59.2989899,60.5 64,55.7989899 64,50 L64.0007726,41.221395 L63.3058157,40.4960875 C62.1527413,39.2926552 61.5,37.7008762 61.5,36 C61.5,34.2991238 62.1527413,32.7073448 63.3058157,31.5039125 L64.0007726,30.778605 L64,21.99978 C64,16.2010101 59.2989899,11.5 53.5,11.5 Z M17.5,16.5 L53.5,16.5 C56.5375661,16.5 59,18.9624339 59,22 L59.000879,28.8391957 C57.397776,30.8509256 56.5,33.357364 56.5,36 L56.5055467,36.3594816 C56.5793815,38.7499485 57.3879506,41.0143878 58.786664,42.8834448 L59,43.16 L59,49.99978 C59,53.0375661 56.5375661,55.5 53.5,55.5 L17.5,55.5 L17.2787929,55.4956328 C14.34378,55.3795391 12,52.9634791 12,50 L11.999,44.26 L12.0546144,44.2085738 C14.2304772,42.0747257 15.5,39.1404719 15.5,36 L15.4947941,35.6519375 C15.404718,32.6432739 14.1498896,29.8462429 12.0546144,27.7914262 L11.999,27.738 L12,22.0000117 C12,18.9624339 14.4624339,16.5 17.5,16.5 Z" id="形状结合" fill="#60759C" fill-rule="nonzero"></path>
        <path d="M36.95,41.0041841 L37.1,40.2008368 C37.1,40 37.1,40 36.95,40 L36.05,40 C35.9,40 35.9,40 35.9,40.2008368 L36.05,41.0041841 L36.05,41.4058577 L35,50.2426778 C35,50.4435146 35,50.6443515 35.15,50.8451883 L36.2,51.8493724 C36.35,52.0502092 36.5,52.0502092 36.65,51.8493724 L37.7,50.8451883 C37.85,50.6443515 38,50.4435146 38,50.2426778 L36.95,41.4058577 L36.95,41.0041841 L36.95,41.0041841 Z" id="路径" fill="#60759C" fill-rule="nonzero"></path>
        <path d="M36.5,21 C38.9551105,21 41.164301,22.0224104 42.7599829,23.6825172 C44.3556648,25.3426241 45.3383978,27.6410096 45.3383978,30.1952441 C45.3383978,33.3153987 43.757921,35.946477 41.5820765,37.6322388 C43.9542712,38.6116474 45.9840454,40.2662917 47.4557575,42.371598 C49.0586229,44.664521 50,47.4920081 50,50.5644556 C50,50.9951189 49.8520763,51.3476851 49.6125381,51.5968945 C49.373,51.8461039 49.034116,52 48.6201657,52 C48.2062155,52 47.8673315,51.8461039 47.6277934,51.5968945 C47.3882552,51.3476851 47.2403315,50.9951189 47.2403315,50.5644556 C47.2403315,47.4916145 46.0315624,44.6984192 44.0849757,42.67324 C42.138389,40.6480607 39.4535912,39.3904881 36.5,39.3904881 C33.5464088,39.3904881 30.861611,40.6480607 28.9150243,42.67324 C26.9684376,44.6984192 25.7596685,47.4916145 25.7596685,50.5644556 C25.7596685,50.9951189 25.6117448,51.3476851 25.3722066,51.5968945 C25.1326685,51.8461039 24.7937845,52 24.3798343,52 C23.965884,52 23.627,51.8461039 23.3874619,51.5968945 C23.1479237,51.3476851 23,50.9951189 23,50.5644556 C23,47.4920081 23.9413771,44.664521 25.5442425,42.371598 C27.0100373,40.2747566 29.0294156,38.6249604 31.3887958,37.6439965 C30.3447328,36.8762824 29.4796008,35.9120236 28.8463668,34.794927 C28.0882197,33.4574696 27.6616022,31.9003577 27.6616022,30.1952441 C27.6616022,27.6410096 28.6443352,25.3426241 30.2400171,23.6825172 C31.835699,22.0224104 34.0448895,21 36.5,21 Z M36.5,23.8710889 L36.5,23.8710889 L36.4147769,23.8717337 C34.7978192,23.8962099 33.3124669,24.6157746 32.2247619,25.7473951 C31.1179743,26.8988687 30.4212707,28.4786876 30.4212707,30.1952441 C30.4212707,31.9118005 31.1179743,33.4916194 32.2247619,34.643093 C33.3315494,35.7945665 34.8500592,36.5193992 36.5,36.5193992 C38.1499408,36.5193992 39.6684506,35.7945665 40.7752381,34.643093 C41.8820257,33.4916194 42.5787293,31.9118005 42.5787293,30.1952441 C42.5787293,28.4786876 41.8820257,26.8988687 40.7752381,25.7473951 C39.6684506,24.5959216 38.1499408,23.8710889 36.5,23.8710889 L36.5,23.8710889 Z" id="形状" fill="#60759C" fill-rule="nonzero"></path>
    </g>
</svg>