<?xml version="1.0" encoding="UTF-8"?>
<svg width="72px" height="72px" viewBox="0 0 72 72" version="1.1" xmlns="http://www.w3.org/2000/svg" xmlns:xlink="http://www.w3.org/1999/xlink">
    <title>业务信息</title>
    <g id="业务信息" stroke="none" stroke-width="1" fill="none" fill-rule="evenodd">
        <polygon id="路径-11" fill="#60759C" fill-rule="nonzero" points="63.2096327 33.5 63.2096327 38.5 10 38.5 10 33.5"></polygon>
        <path d="M31,3.5 C37.627417,3.5 43,8.872583 43,15.5 C43,22.0254567 37.7914556,27.3343928 31.3049748,27.4962001 L31,27.5 L31,22.5 C34.8659932,22.5 38,19.3659932 38,15.5 C38,11.7145483 34.9952166,8.63090132 31.2406498,8.50405902 L31,8.5 L31,3.5 Z" id="椭圆形" fill="#60759C" fill-rule="nonzero" transform="translate(37.000000, 15.500000) rotate(-90.000000) translate(-37.000000, -15.500000) "></path>
        <path d="M56,18.5 L16,18.5 C10.2010101,18.5 5.5,23.2010101 5.5,29 L5.5,55 C5.5,60.7989899 10.2010101,65.5 16,65.5 L56,65.5 C61.7989899,65.5 66.5,60.7989899 66.5,55 L66.5,29 C66.5,23.2010101 61.7989899,18.5 56,18.5 Z M16,23.5 L56,23.5 C59.0375661,23.5 61.5,25.9624339 61.5,29 L61.5,55 C61.5,58.0375661 59.0375661,60.5 56,60.5 L16,60.5 C12.9624339,60.5 10.5,58.0375661 10.5,55 L10.5,29 C10.5,25.9624339 12.9624339,23.5 16,23.5 Z" id="Rectangle-5" fill="#60759C" fill-rule="nonzero"></path>
    </g>
</svg>