<?xml version="1.0" encoding="UTF-8"?>
<svg width="72px" height="72px" viewBox="0 0 72 72" version="1.1" xmlns="http://www.w3.org/2000/svg" xmlns:xlink="http://www.w3.org/1999/xlink">
    <title>结算信息</title>
    <g id="结算信息" stroke="none" stroke-width="1" fill="none" fill-rule="evenodd">
        <path d="M31,8.5 C32.3807119,8.5 33.5,9.61928813 33.5,11 C33.5,12.3254834 32.4684641,13.4100387 31.1643757,13.4946823 L31,13.5 L18.8148148,13.5 C16.5018968,13.5 14.6140261,15.3198437 14.5049757,17.6057581 L14.5,17.8148148 L14.5,50.1851852 C14.5,52.4981032 16.3198437,54.3859739 18.6057581,54.4950243 L18.8148148,54.5 L51.1851852,54.5 C53.4981032,54.5 55.3859739,52.6801563 55.4950243,50.3942419 L55.5,50.1851852 L55.5,39.2307692 C55.5,37.8500574 56.6192881,36.7307692 58,36.7307692 C59.3254834,36.7307692 60.4100387,37.7623052 60.4946823,39.0663935 L60.5,39.2307692 L60.5,50.1851852 C60.5,55.2393622 56.4746611,59.3533709 51.455028,59.4961665 L51.1851852,59.5 L18.8148148,59.5 C13.7606378,59.5 9.64662908,55.4746611 9.50383351,50.455028 L9.5,50.1851852 L9.5,17.8148148 C9.5,12.7606378 13.5253389,8.64662908 18.544972,8.50383351 L18.8148148,8.5 L31,8.5 Z" id="路径" fill="#60759C" fill-rule="nonzero" transform="translate(35.000000, 34.000000) scale(1, -1) translate(-35.000000, -34.000000) "></path>
        <path d="M42.5569799,35.890996 C42.816994,36.2199951 42.9660012,36.6129956 42.9990035,37.0699951 C42.9660017,37.5449952 42.8169935,37.9419947 42.5569799,38.2599952 C42.2959647,38.5799952 41.9409453,38.7569947 41.4869215,38.7949952 L36.4786408,38.7679952 L36.4786408,41.6719993 C36.4106371,43.223999 35.6005924,44 34.0525076,44 C33.2874659,44 32.6924334,43.81 32.2664093,43.425 C31.8383854,43.0419994 31.6083729,42.4580004 31.5753706,41.6719993 L31.5753706,38.8219991 L26.5390854,38.8219991 C26.0710594,38.7859991 25.7090402,38.5799991 25.4580255,38.2059981 L25.4580255,38.2059981 C25.2062466,37.8341108 25.0490237,37.4064082 25,36.959997 C25.0530029,36.503996 25.2050112,36.1299969 25.4580255,35.8369964 C25.7080391,35.5449969 26.0710594,35.3799969 26.5390853,35.3429974 L31.5753706,35.3429974 L31.5753706,32.6169962 L26.5390853,32.5899962 C26.0710594,32.5529962 25.7090401,32.3799962 25.4580255,32.0699962 C25.2050112,31.7579966 25.0530034,31.3649961 25,30.8899961 C25.0530029,30.4339951 25.2050112,30.059996 25.4580255,29.7669955 C25.7080391,29.474996 26.0710594,29.3109945 26.5390853,29.273995 L30.296297,29.273995 L26.8001103,22.8100053 L26.8001103,22.8100053 C26.6026416,22.5516947 26.4361623,22.2711112 26.3040823,21.9740043 L26.3040822,21.9740041 C26.1462358,21.626194 26.0748693,21.2453639 26.0960709,20.864004 C26.1820756,20.3520045 26.3570861,19.9370045 26.6160993,19.6170044 C26.878113,19.2980054 27.3661401,19.0920044 28.0781784,19.0010034 C28.4952007,19.0370034 28.8702211,19.1890034 29.2002391,19.4540039 C29.5302571,19.718003 29.8002718,20.0060035 30.0102833,20.3160035 L33.9744886,27.9329962 L38.3307318,20.2619996 C38.5387432,19.9519996 38.809757,19.6769996 39.140776,19.44 C39.470794,19.2000003 39.8438148,19.055 40.260837,19 C40.5228508,19.018 40.7608643,19.055 40.9788767,19.109 C41.1938884,19.165 41.3868994,19.256 41.552907,19.385001 C41.7169159,19.512001 41.8569226,19.695001 41.9699292,19.9320006 C42.0829354,20.1690006 42.1639398,20.4800011 42.2169422,20.8640001 C42.2169422,21.3940002 42.0439328,21.8959997 41.6959128,22.3709997 L37.6526993,29.2750041 L41.4879181,29.2750041 C41.9399422,29.3110041 42.2969612,29.4760042 42.5559768,29.7680047 C42.8159909,30.0610052 42.9649981,30.4350042 43,30.8910052 C42.9649981,31.3670062 42.8129898,31.7690058 42.5439742,32.0970063 C42.2739595,32.4250068 41.9139398,32.6070063 41.4609147,32.6450068 L36.4776352,32.6720068 L36.4776352,35.3430031 L41.485916,35.3430031 C41.9399398,35.3800031 42.2949591,35.5630031 42.5559743,35.8910036 L42.5569799,35.890996 Z" id="路径" fill="#60759C" fill-rule="nonzero"></path>
        <path d="M56.5455319,41.2885715 C57.4907278,40.2821074 59.0728608,40.2324396 60.079325,41.1776355 C61.0420298,42.0817359 61.1293292,43.5685916 60.3079086,44.5769856 L60.190261,44.7114285 L46.7628011,59.0092658 C45.5204255,60.3321731 43.4837365,60.4793092 42.0673789,59.3797478 L41.9126305,59.2524403 L34.357957,52.6719208 C33.3168314,51.7650454 33.2080001,50.1858787 34.1148754,49.1447531 C34.9823214,48.1488939 36.4648695,48.0060222 37.5032923,48.7891368 L37.642043,48.9016716 L44.107,54.533 L56.5455319,41.2885715 Z" id="路径-2" fill="#60759C" fill-rule="nonzero"></path>
    </g>
</svg>