<?xml version="1.0" encoding="UTF-8"?>
<svg width="72px" height="72px" viewBox="0 0 72 72" version="1.1" xmlns="http://www.w3.org/2000/svg" xmlns:xlink="http://www.w3.org/1999/xlink">
    <title>报表项目</title>
    <g id="报表项目" stroke="none" stroke-width="1" fill="none" fill-rule="evenodd">
        <path d="M64.5,53 L64.4961464,53.2427311 C64.3680175,57.2725256 61.0609173,60.5 57,60.5 L57,60.5 L15,60.5 C10.9390827,60.5 7.63198248,57.2725256 7.50385357,53.2427311 L7.5,53 L7.5,19 L7.50385357,18.7572689 C7.5221577,18.181584 7.6053388,17.622273 7.74632644,17.0864062 C7.79955295,16.8846199 7.85939874,16.6906052 7.92672109,16.5001222 C8.25064632,15.5834198 8.74804884,14.7481401 9.37941975,14.0340762 C9.5501551,13.8412145 9.72726761,13.6603481 9.91307635,13.4887599 C10.0248611,13.3855265 10.1399066,13.2855587 10.2579452,13.1891163 C10.5791775,12.9266447 10.9227201,12.6902005 11.2852059,12.4831281 C11.5073586,12.356221 11.7366478,12.2403364 11.9723067,12.1362322 C12.1614525,12.0528156 12.3502386,11.9785336 12.5425795,11.9118596 C12.8680007,11.7990311 13.2040672,11.7078874 13.5485871,11.6403324 C13.7434301,11.6021182 13.9412902,11.5714127 14.1415445,11.5485939 C14.2818095,11.5326047 14.4235707,11.5204662 14.566402,11.5123246 C14.6297633,11.5087122 14.6934154,11.5058838 14.7572689,11.5038536 L15,11.5 L57,11.5 L57.2427311,11.5038536 C57.3065846,11.5058838 57.3702367,11.5087122 57.4336777,11.5123292 C57.5764293,11.5204662 57.7181905,11.5326047 57.8587717,11.5486299 C58.0587098,11.5714127 58.2565699,11.6021182 58.4517174,11.6403921 C58.7959328,11.7078874 59.1319993,11.7990311 59.4578613,11.9120124 C59.6497614,11.9785336 59.8385475,12.0528156 60.0234189,12.1343455 C60.2633522,12.2403364 60.4926414,12.356221 60.7148142,12.4831396 C61.0772799,12.6902005 61.4208225,12.9266447 61.74218,13.1892186 C61.8600934,13.2855587 61.9751389,13.3855265 62.0870308,13.4888589 C62.2727324,13.6603481 62.4498449,13.8412145 62.6175255,14.0306235 C63.2519512,14.7481401 63.7493537,15.5834198 64.0734343,16.5005617 C64.1406013,16.6906052 64.2004471,16.8846199 64.2524637,17.0818136 C64.3946612,17.622273 64.4778423,18.181584 64.4961464,18.7572689 L64.5,19 L64.5,53 Z M12.5,53 C12.5,54.3254834 13.5315359,55.4100387 14.8356243,55.4946823 L15,55.5 L57,55.5 L57.1643757,55.4946823 C58.4684641,55.4100387 59.5,54.3254834 59.5,53 L59.5,53 L59.5,19 L59.4946823,18.8356243 C59.4100387,17.5315359 58.3254834,16.5 57,16.5 L57,16.5 L15,16.5 L14.8356243,16.5053177 C13.5315359,16.5899613 12.5,17.6745166 12.5,19 L12.5,19 L12.5,53 Z" id="形状结合" fill="#60759C" fill-rule="nonzero"></path>
        <polygon id="路径-11备份-3" fill="#60759C" fill-rule="nonzero" points="59.5910986 24.8173636 59.5910986 29.8173636 12 29.8173636 12 24.8173636"></polygon>
        <polygon id="路径-11备份-4" fill="#60759C" fill-rule="nonzero" points="62 35 62 40 12 40 12 35"></polygon>
        <polygon id="路径-11备份-5" fill="#60759C" fill-rule="nonzero" points="62 45 62 50 12 50 12 45"></polygon>
        <polygon id="直线备份-2" fill="#60759C" fill-rule="nonzero" points="29 27.5 29 57.5 24 57.5 24 27.5"></polygon>
        <polygon id="直线备份-3" fill="#60759C" fill-rule="nonzero" points="47.5 27.5 47.5 56.5 42.5 56.5 42.5 27.5"></polygon>
    </g>
</svg>