<?xml version="1.0" encoding="UTF-8"?>
<svg width="72px" height="72px" viewBox="0 0 72 72" version="1.1" xmlns="http://www.w3.org/2000/svg" xmlns:xlink="http://www.w3.org/1999/xlink">
    <!-- Generator: Sketch 63.1 (92452) - https://sketch.com -->
    <title>流程定义</title>
    <desc>Created with Sketch.</desc>
    <g id="流程定义" stroke="none" stroke-width="1" fill="none" fill-rule="evenodd">
        <path d="M54.2962963,12.5 C59.9316462,12.5 64.5,17.0683538 64.5,22.7037037 L64.5,30.3954524 C64.5,31.7761642 63.3807119,32.8954524 62,32.8954524 C60.6192881,32.8954524 59.5,31.7761642 59.5,30.3954524 L59.5,30.0933449 L12.5,30.0933449 L12.5,54.2962963 C12.5,57.1702225 14.8297775,59.5 17.7037037,59.5 L30,59.5 C31.3807119,59.5 32.5,60.6192881 32.5,62 C32.5,63.3807119 31.3807119,64.5 30,64.5 L17.7037037,64.5 C12.0683538,64.5 7.5,59.9316462 7.5,54.2962963 L7.5,22.7037037 C7.5,17.0683538 12.0683538,12.5 17.7037037,12.5 L54.2962963,12.5 Z M44.4626435,53.9011671 L49.2075326,58.6916086 L42,61 L44.4626435,53.9011671 Z M59.5123751,41.5439077 C59.5169167,41.5484058 59.5214366,41.5529256 59.5259349,41.557467 L61.4574427,43.507518 C62.2295049,44.2869922 62.2295049,45.5429267 61.4574427,46.322401 L50.3922865,57.4937865 L45.6457193,52.7024978 L56.6839807,41.5575149 C57.4612628,40.7727178 58.7275781,40.7666257 59.5123751,41.5439077 Z M33.5,40.0933449 C34.8807119,40.0933449 36,41.212633 36,42.5933449 C36,43.9188283 34.9684641,45.0033835 33.6643757,45.0880272 L33.5,45.0933449 L22.5,45.0933449 C21.1192881,45.0933449 20,43.9740567 20,42.5933449 C20,41.2678615 21.0315359,40.1833062 22.3356243,40.0986626 L22.5,40.0933449 L33.5,40.0933449 Z M54.2962963,17.5 L17.7037037,17.5 C14.8297775,17.5 12.5,19.8297775 12.5,22.7037037 L12.5,25.0933449 L59.5,25.0933449 L59.5,22.7037037 C59.5,19.8297775 57.1702225,17.5 54.2962963,17.5 Z" id="形状结合" fill="#60759C" fill-rule="nonzero"></path>
    </g>
</svg>