<?xml version="1.0" encoding="UTF-8"?>
<svg width="72px" height="72px" viewBox="0 0 72 72" version="1.1" xmlns="http://www.w3.org/2000/svg" xmlns:xlink="http://www.w3.org/1999/xlink">
    <!-- Generator: Sketch 63.1 (92452) - https://sketch.com -->
    <title>我的流程</title>
    <desc>Created with Sketch.</desc>
    <g id="我的流程" stroke="none" stroke-width="1" fill="none" fill-rule="evenodd">
        <g id="编组-2" transform="translate(8.000000, 8.000000)" fill="#60759C" fill-rule="nonzero">
            <path d="M45,0.5 C50.7989899,0.5 55.5,5.20101013 55.5,11 L55.5,45 C55.5,50.7989899 50.7989899,55.5 45,55.5 L11,55.5 C5.20101013,55.5 0.5,50.7989899 0.5,45 L0.5,11 C0.5,5.20101013 5.20101013,0.5 11,0.5 L45,0.5 Z M5.5,11 L5.5,45 C5.5,48.0375661 7.96243388,50.5 11,50.5 L45,50.5 C48.0375661,50.5 50.5,48.0375661 50.5,45 L50.5,11 C50.5,7.96243388 48.0375661,5.5 45,5.5 L11,5.5 C7.96243388,5.5 5.5,7.96243388 5.5,11 Z M40.8917379,36.0128205 C42.1701748,36.0128205 43.2065527,37.0491984 43.2065527,38.3276353 C43.2065527,39.6060722 42.1701748,40.6424501 40.8917379,40.6424501 L15.8917379,40.6424501 C14.613301,40.6424501 13.5769231,39.6060722 13.5769231,38.3276353 C13.5769231,37.0491984 14.613301,36.0128205 15.8917379,36.0128205 L40.8917379,36.0128205 Z M38.1730847,12.8249661 C39.4213746,12.8249661 40.4748663,13.2122446 41.3416317,13.9914131 C42.2072435,14.7694281 42.6406276,15.8413598 42.6406276,17.2106661 C42.6406276,18.1097056 42.4262413,19.0052873 42.0020799,19.8962576 C41.6569921,20.637098 41.200471,21.3199126 40.64898,21.9211925 L40.4068602,22.1738234 L40.3422233,22.3596193 C40.2279229,22.7234085 40.2035062,23.0402594 40.2696993,23.3079962 C40.3469246,23.6215065 40.437981,23.8531828 40.542869,24.0030228 C40.6489095,24.1528629 40.7342029,24.2358511 40.794139,24.2496825 C41.4985454,24.4767277 42.1900071,24.7417272 42.8654981,25.0434795 L43.3690744,25.2766662 L43.6824645,25.433295 C44.1988745,25.7051473 44.6852074,26.0306588 45.1334004,26.4044326 L45.3976749,26.6344452 L45.5577008,26.7906765 C45.9621031,27.2062171 46.1877661,27.6132745 46.2329208,28.0147988 L46.241389,28.1651168 L46.241389,28.7206762 C46.241389,29.2226402 46.0073586,29.6502491 45.5392371,30.003622 L45.4270536,30.0838518 C44.3024429,30.8466691 42.0128945,31.2401085 38.5577353,31.2654903 L38.1961471,31.2668031 C32.9245063,31.2668031 30.2287809,30.4577015 30.1089709,28.8351942 L30.1047915,28.7206762 L30.1047915,28.1651168 C30.1047915,27.6810186 30.3871812,27.180782 30.9485055,26.6667167 C31.4495034,26.2171947 31.998709,25.8251646 32.5858057,25.4976489 L32.9425281,25.3089374 L33.4095578,25.0778329 C34.0417067,24.7760133 34.7113299,24.4995712 35.4148867,24.2496836 C35.5059422,24.2197165 35.6177459,24.1217442 35.7456862,23.9500047 C35.8736256,23.7782633 35.9842766,23.5408255 36.0764857,23.2330774 C36.1675424,22.9253293 36.1306585,22.5806984 35.9623769,22.1957241 C35.3971993,21.6175743 34.9274485,20.9542729 34.5699354,20.2307167 L34.4236362,19.9170048 L34.297282,19.6195536 C33.9799514,18.8251316 33.8196669,18.0210897 33.8196669,17.2106742 C33.8196669,15.8286792 34.2392196,14.7509853 35.07256,13.9798861 C35.8506481,13.2649364 36.79571,12.8819265 37.9123506,12.8308585 L38.1730847,12.8249661 Z" id="形状结合"></path>
        </g>
    </g>
</svg>