<?xml version="1.0" encoding="UTF-8"?>
<svg width="72px" height="72px" viewBox="0 0 72 72" version="1.1" xmlns="http://www.w3.org/2000/svg" xmlns:xlink="http://www.w3.org/1999/xlink">
    <!-- Generator: Sketch 63.1 (92452) - https://sketch.com -->
    <title>流程设计</title>
    <desc>Created with Sketch.</desc>
    <g id="流程设计" stroke="none" stroke-width="1" fill="none" fill-rule="evenodd">
        <path d="M45,9 C47.209139,9 49,10.790861 49,13 L49,23 C49,25.209139 47.209139,27 45,27 L38,27 L38,31.999 L51.486271,32 C55.2717227,32 58.3553697,35.0047834 58.482212,38.7593502 L58.486271,39 L58.486,48 L60,48 C62.209139,48 64,49.790861 64,52 L64,59 C64,61.209139 62.209139,63 60,63 L52,63 C49.790861,63 48,61.209139 48,59 L48,52 C48,49.790861 49.790861,48 52,48 L54.486,48 L54.486271,39 C54.486271,37.4023191 53.237351,36.0963391 51.6625438,36.0050927 L51.486271,36 L38,35.999 L38,48 L40,48 C42.209139,48 44,49.790861 44,52 L44,59 C44,61.209139 42.209139,63 40,63 L32,63 C29.790861,63 28,61.209139 28,59 L28,52 C28,49.790861 29.790861,48 32,48 L34,48 L34,35.999 L21,36 C19.4023191,36 18.0963391,37.24892 18.0050927,38.8237272 L18,39 L17.999,48 L20,48 C22.209139,48 24,49.790861 24,52 L24,59 C24,61.209139 22.209139,63 20,63 L12,63 C9.790861,63 8,61.209139 8,59 L8,52 C8,49.790861 9.790861,48 12,48 L13.999,48 L14,39 C14,35.2145483 17.0047834,32.1309013 20.7593502,32.004059 L21,32 L34,31.999 L34,27 L28,27 C25.790861,27 24,25.209139 24,23 L24,13 C24,10.790861 25.790861,9 28,9 L45,9 Z M19,53 L13,53 L13,58 L19,58 L19,53 Z M39,53 L33,53 L33,58 L39,58 L39,53 Z M59,53 L53,53 L53,58 L59,58 L59,53 Z M44,14 L29,14 L29,22 L44,22 L44,14 Z" id="形状结合" fill="#60759C" fill-rule="nonzero"></path>
    </g>
</svg>