<?xml version="1.0" encoding="UTF-8"?>
<svg width="72px" height="72px" viewBox="0 0 72 72" version="1.1" xmlns="http://www.w3.org/2000/svg" xmlns:xlink="http://www.w3.org/1999/xlink">
    <!-- Generator: Sketch 63.1 (92452) - https://sketch.com -->
    <title>流程监控</title>
    <desc>Created with Sketch.</desc>
    <g id="流程监控" stroke="none" stroke-width="1" fill="none" fill-rule="evenodd">
        <path d="M52,37 C58.0751322,37 63,41.9248678 63,48 C63,53.5114103 58.9467015,58.076122 53.6584377,58.875802 C53.6837605,58.9685864 53.7011119,59.0646879 53.7098659,59.1632824 L53.7164706,59.3129412 L53.716,61.999 L56.7317647,62 C57.6107695,62 58.3321032,62.6750703 58.4055981,63.5350432 L58.4117647,63.68 C58.4117647,64.5590048 57.7366944,65.2803385 56.8767215,65.3538334 L56.7317647,65.36 L46.68,65.36 C45.7521616,65.36 45,64.6078384 45,63.68 C45,62.8009952 45.6750703,62.0796615 46.5350432,62.0061666 L46.68,62 L50.363,61.999 L50.3635294,59.3129412 C50.3635294,59.165649 50.3825244,59.0227933 50.4181984,58.8866901 C45.0925381,58.1201841 41,53.5380238 41,48 C41,41.9248678 45.9248678,37 52,37 Z M54.2962963,12.5 C59.9316462,12.5 64.5,17.0683538 64.5,22.7037037 L64.5,30.3954524 C64.5,31.7761642 63.3807119,32.8954524 62,32.8954524 C60.6192881,32.8954524 59.5,31.7761642 59.5,30.3954524 L59.5,30.0933449 L12.5,30.0933449 L12.5,54.2962963 C12.5,57.1702225 14.8297775,59.5 17.7037037,59.5 L30,59.5 C31.3807119,59.5 32.5,60.6192881 32.5,62 C32.5,63.3807119 31.3807119,64.5 30,64.5 L17.7037037,64.5 C12.0683538,64.5 7.5,59.9316462 7.5,54.2962963 L7.5,22.7037037 C7.5,17.0683538 12.0683538,12.5 17.7037037,12.5 L54.2962963,12.5 Z M52,41 C48.1340068,41 45,44.1340068 45,48 C45,51.8659932 48.1340068,55 52,55 C55.8659932,55 59,51.8659932 59,48 C59,44.1340068 55.8659932,41 52,41 Z M52,44.955 C53.6821996,44.955 55.045,46.3206694 55.045,48.0042105 C55.045,49.6877516 53.6821996,51.0534211 52,51.0534211 C50.3178004,51.0534211 48.955,49.6877516 48.955,48.0042105 C48.955,46.3206694 50.3178004,44.955 52,44.955 Z M52,47.045 C51.4730606,47.045 51.045,47.4739618 51.045,48.0042105 C51.045,48.5344593 51.4730606,48.9634211 52,48.9634211 C52.5269394,48.9634211 52.955,48.5344593 52.955,48.0042105 C52.955,47.4739618 52.5269394,47.045 52,47.045 Z M33.5,40.0933449 C34.8807119,40.0933449 36,41.212633 36,42.5933449 C36,43.9188283 34.9684641,45.0033835 33.6643757,45.0880272 L33.5,45.0933449 L22.5,45.0933449 C21.1192881,45.0933449 20,43.9740567 20,42.5933449 C20,41.2678615 21.0315359,40.1833062 22.3356243,40.0986626 L22.5,40.0933449 L33.5,40.0933449 Z M54.2962963,17.5 L17.7037037,17.5 C14.8297775,17.5 12.5,19.8297775 12.5,22.7037037 L12.5,25.0933449 L59.5,25.0933449 L59.5,22.7037037 C59.5,19.8297775 57.1702225,17.5 54.2962963,17.5 Z" id="形状结合" fill="#60759C" fill-rule="nonzero"></path>
        <g id="编组" transform="translate(41.000000, 37.000000)"></g>
    </g>
</svg>