<?xml version="1.0" encoding="UTF-8"?>
<svg width="72px" height="72px" viewBox="0 0 72 72" version="1.1" xmlns="http://www.w3.org/2000/svg" xmlns:xlink="http://www.w3.org/1999/xlink">
    <!-- Generator: Sketch 63.1 (92452) - https://sketch.com -->
    <title>流程分析</title>
    <desc>Created with Sketch.</desc>
    <g id="流程分析" stroke="none" stroke-width="1" fill="none" fill-rule="evenodd">
        <path d="M45,9 C47.209139,9 49,10.790861 49,13 L49,23 C49,25.209139 47.209139,27 45,27 L37.999,27 L38,31.999 L51.486271,32 C55.2717227,32 58.3553697,35.0047834 58.482212,38.7593502 L58.486271,39 L58.486271,46.3276353 C58.486271,47.4322048 57.5908405,48.3276353 56.486271,48.3276353 C55.4319092,48.3276353 54.5681059,47.5117575 54.4917567,46.4768977 L54.486271,46.3276353 L54.486271,39 C54.486271,37.4023191 53.237351,36.0963391 51.6625438,36.0050927 L51.486271,36 L38,35.999 L38,46.1200923 C38,47.1744541 37.1841222,48.0382574 36.1492623,48.1146066 L36,48.1200923 C34.9456382,48.1200923 34.0818349,47.3042145 34.0054857,46.2693546 L34,46.1200923 L34,35.999 L21,36 C19.4023191,36 18.0963391,37.24892 18.0050927,38.8237272 L18,39 L17.999,48 L20,48 C22.209139,48 24,49.790861 24,52 L24,59 C24,61.209139 22.209139,63 20,63 L12,63 C9.790861,63 8,61.209139 8,59 L8,52 C8,49.790861 9.790861,48 12,48 L13.999,48 L14,39 C14,35.2145483 17.0047834,32.1309013 20.7593502,32.004059 L21,32 L34,31.999 L33.999,27 L28,27 C25.790861,27 24,25.209139 24,23 L24,13 C24,10.790861 25.790861,9 28,9 L45,9 Z M43.7212937,50.501686 L43.8728389,50.6942571 L46.5328881,54.2309134 L46.540643,54.240956 C46.6931172,54.4333156 46.9585413,54.4834297 47.1676299,54.3717179 L47.2430667,54.3222022 L52.4470096,50.1972853 C53.5290318,49.339618 55.1014609,49.5214936 55.9591282,50.6035158 C56.7795056,51.6384936 56.64877,53.1221612 55.6889147,53.9998103 L55.5528977,54.1156344 L50.3489547,58.2405512 C47.9685058,60.1274193 44.509162,59.727293 42.6222939,57.3468441 C42.5935478,57.3102616 42.5839658,57.2980675 42.5682727,57.2775301 L42.5369902,57.2363751 L39.876941,53.6997188 C39.7109539,53.4790314 39.3974924,53.4346881 39.176805,53.6006752 L39.1340871,53.6367133 L39.1340871,53.6367133 L39.0956581,53.6772938 L33.9084194,59.8076669 C33.0165592,60.8616834 31.4391145,60.9931371 30.385098,60.101277 C29.3769083,59.2481934 29.2128025,57.7678453 29.9809534,56.7183051 L30.0914879,56.5779557 L35.2787266,50.4475826 C35.5438818,50.1342175 35.8432853,49.8515218 36.1713434,49.6047773 C38.5332944,47.828267 41.8613441,48.24202 43.7212937,50.501686 Z M19,53 L13,53 L13,58 L19,58 L19,53 Z M44,14 L29,14 L29,22 L44,22 L44,14 Z" id="形状结合" fill="#60759C" fill-rule="nonzero"></path>
    </g>
</svg>