<?xml version="1.0" encoding="UTF-8"?>
<svg width="72px" height="72px" viewBox="0 0 72 72" version="1.1" xmlns="http://www.w3.org/2000/svg" xmlns:xlink="http://www.w3.org/1999/xlink">
    <title>通用平台</title>
    <g id="通用平台" stroke="none" stroke-width="1" fill="none" fill-rule="evenodd">
        <path d="M27,9.5 L17,9.5 C12.8578644,9.5 9.5,12.8578644 9.5,17 L9.5,27 C9.5,31.1421356 12.8578644,34.5 17,34.5 L27,34.5 C31.1421356,34.5 34.5,31.1421356 34.5,27 L34.5,17 C34.5,12.8578644 31.1421356,9.5 27,9.5 Z M17,14.5 L27,14.5 C28.3807119,14.5 29.5,15.6192881 29.5,17 L29.5,27 C29.5,28.3807119 28.3807119,29.5 27,29.5 L17,29.5 C15.6192881,29.5 14.5,28.3807119 14.5,27 L14.5,17 C14.5,15.6192881 15.6192881,14.5 17,14.5 Z" id="Rectangle-5" fill="#60759C" fill-rule="nonzero"></path>
        <path d="M55,9.5 L45,9.5 C40.8578644,9.5 37.5,12.8578644 37.5,17 L37.5,27 C37.5,31.1421356 40.8578644,34.5 45,34.5 L55,34.5 C59.1421356,34.5 62.5,31.1421356 62.5,27 L62.5,17 C62.5,12.8578644 59.1421356,9.5 55,9.5 Z M45,14.5 L55,14.5 C56.3807119,14.5 57.5,15.6192881 57.5,17 L57.5,27 C57.5,28.3807119 56.3807119,29.5 55,29.5 L45,29.5 C43.6192881,29.5 42.5,28.3807119 42.5,27 L42.5,17 C42.5,15.6192881 43.6192881,14.5 45,14.5 Z" id="Rectangle-5" fill="#60759C" fill-rule="nonzero"></path>
        <path d="M27,37.5 L17,37.5 C12.8578644,37.5 9.5,40.8578644 9.5,45 L9.5,55 C9.5,59.1421356 12.8578644,62.5 17,62.5 L27,62.5 C31.1421356,62.5 34.5,59.1421356 34.5,55 L34.5,45 C34.5,40.8578644 31.1421356,37.5 27,37.5 Z M17,42.5 L27,42.5 C28.3807119,42.5 29.5,43.6192881 29.5,45 L29.5,55 C29.5,56.3807119 28.3807119,57.5 27,57.5 L17,57.5 C15.6192881,57.5 14.5,56.3807119 14.5,55 L14.5,45 C14.5,43.6192881 15.6192881,42.5 17,42.5 Z" id="Rectangle-5" fill="#60759C" fill-rule="nonzero"></path>
        <path d="M50.5,37.5 C43.5964406,37.5 38,43.0964406 38,50 C38,56.9035594 43.5964406,62.5 50.5,62.5 C57.4035594,62.5 63,56.9035594 63,50 C63,43.0964406 57.4035594,37.5 50.5,37.5 Z M50.5,42.5 C54.6421356,42.5 58,45.8578644 58,50 C58,54.1421356 54.6421356,57.5 50.5,57.5 C46.3578644,57.5 43,54.1421356 43,50 C43,45.8578644 46.3578644,42.5 50.5,42.5 Z" id="椭圆形" fill="#60759C" fill-rule="nonzero"></path>
    </g>
</svg>