<?xml version="1.0" encoding="UTF-8"?>
<svg width="72px" height="72px" viewBox="0 0 72 72" version="1.1" xmlns="http://www.w3.org/2000/svg" xmlns:xlink="http://www.w3.org/1999/xlink">
    <!-- Generator: Sketch 63.1 (92452) - https://sketch.com -->
    <title>后台任务平台</title>
    <desc>Created with Sketch.</desc>
    <g id="后台任务平台" stroke="none" stroke-width="1" fill="none" fill-rule="evenodd">
        <g id="编组-2" transform="translate(8.000000, 9.000000)" fill="#60759C">
            <path d="M48,0.5 C52.1421356,0.5 55.5,3.85786438 55.5,8 L55.5,36 C55.5,40.1421356 52.1421356,43.5 48,43.5 L8,43.5 C3.85786438,43.5 0.5,40.1421356 0.5,36 L0.5,8 C0.5,3.85786438 3.85786438,0.5 8,0.5 L48,0.5 Z M48,5.5 L8,5.5 C6.61928813,5.5 5.5,6.61928813 5.5,8 L5.5,36 C5.5,37.3807119 6.61928813,38.5 8,38.5 L48,38.5 C49.3807119,38.5 50.5,37.3807119 50.5,36 L50.5,8 C50.5,6.61928813 49.3807119,5.5 48,5.5 Z M37.5455319,11.2885715 C38.4907278,10.2821074 40.0728608,10.2324396 41.079325,11.1776355 C42.0857891,12.1228314 42.1354568,13.7049644 41.190261,14.7114285 L41.190261,14.7114285 L27.7628011,29.0092658 C26.4744116,30.3811696 24.331781,30.4885953 22.9126305,29.2524403 L22.9126305,29.2524403 L15.357957,22.6719208 C14.3168314,21.7650454 14.2080001,20.1858787 15.1148754,19.1447531 C16.0217508,18.1036276 17.6009175,17.9947963 18.642043,18.9016716 L18.642043,18.9016716 L25.1072001,24.5331648 Z" id="形状结合" fill-rule="nonzero"></path>
            <rect id="Rectangle-5" transform="translate(28.000000, 50.500000) scale(1, -1) translate(-28.000000, -50.500000) " x="8" y="48" width="40" height="5" rx="2.5"></rect>
        </g>
    </g>
</svg>