<?xml version="1.0" encoding="UTF-8"?>
<svg width="72px" height="72px" viewBox="0 0 72 72" version="1.1" xmlns="http://www.w3.org/2000/svg" xmlns:xlink="http://www.w3.org/1999/xlink">
    <!-- Generator: Sketch 63.1 (92452) - https://sketch.com -->
    <title>统一沟通平台</title>
    <desc>Created with Sketch.</desc>
    <g id="统一沟通平台" stroke="none" stroke-width="1" fill="none" fill-rule="evenodd">
        <g id="沟通" transform="translate(8.000000, 9.000000)" fill="#60759C" fill-rule="nonzero">
            <path d="M49.459375,51.5333615 C44.3242188,51.5333615 39.659375,48.7225507 36.3945313,46.3783784 C27.0648438,39.8234797 26.1351563,31.8576858 26.1351563,29.5135135 C26.1351563,21.0810811 32.6703125,14.5206926 41.0703125,14.5206926 C49.4703125,14.5206926 56,21.0810811 56,29.5135135 C56,34.6684966 53.2,39.3513514 49,42.1621622 C49.4648438,44.0342061 51.3351563,46.8450169 52.2648438,48.2504223 C52.7296875,48.7170608 52.7296875,49.6558277 52.2648438,50.1224662 C51.8,50.5891047 51.3296875,51.0612331 50.8648438,51.0612331 C49.9296875,51.5333615 49.9296875,51.5333615 49.459375,51.5333615 L49.459375,51.5333615 Z M40.5945313,18.7369088 C34.5296875,18.7369088 29.3945313,23.8918919 29.3945313,29.980152 C29.3945313,31.8521959 29.859375,38.4125845 37.7945313,43.5675676 C40.5945313,45.4396115 43.3945313,46.8450169 46.1945313,47.7837838 C45.259375,46.3783784 44.3296875,44.5063345 44.3296875,43.5675676 C43.8648438,41.6955236 44.7945313,40.2901182 45.7296875,39.8179899 L45.7296875,39.8179899 C48.9945313,37.9459459 51.3296875,34.1963682 51.3296875,30.4467905 C51.7945313,23.8918919 46.659375,18.7369088 40.5945313,18.7369088 L40.5945313,18.7369088 Z M8.4,52 C7.46484375,52 6.53515625,51.5333615 6.53515625,50.5945946 C6.0703125,49.6558277 6.0703125,48.7225507 7,48.2504223 C8.86484375,45.90625 11.6648438,41.6900338 11.6648438,39.8179899 C11.6648438,39.3513514 11.6648438,39.3513514 11.2,39.3513514 C4.2,35.6017736 0,28.5747466 0,21.0810811 C0,9.37119932 9.8,0 21.4648438,0 C28,0 34.0648438,2.81081081 38.2648438,7.96579392 C39.2,8.90456081 38.7296875,10.3099662 37.8,11.2432432 C36.8648438,12.1820101 35.4648438,11.7098818 34.5351563,10.7766047 C31.2703125,7.02702703 26.6,4.68834459 21.4703125,4.68834459 C12.1351563,4.68834459 4.6703125,12.1820101 4.6703125,21.0865709 C4.6703125,27.1748311 7.93515625,32.3298142 13.0703125,35.6072635 C14.9351563,37.0126689 15.4054688,38.4180743 15.4054688,40.2901182 C15.4054688,42.1621622 14.0054688,44.972973 12.6054688,47.3171453 C15.8703125,46.8505068 18.2054688,45.9117399 21.4703125,44.0396959 C22.4054688,43.5730574 23.8054688,44.0396959 24.7351563,44.9784628 C25.2,45.9172297 24.7351563,47.3226351 23.8,48.2559122 C18.6648438,51.0612331 15.4,52 8.4,52 L8.4,52 L8.4,52 Z" id="形状"></path>
        </g>
    </g>
</svg>