<?xml version="1.0" encoding="UTF-8"?>
<svg width="72px" height="72px" viewBox="0 0 72 72" version="1.1" xmlns="http://www.w3.org/2000/svg" xmlns:xlink="http://www.w3.org/1999/xlink">
    <!-- Generator: Sketch 63.1 (92452) - https://sketch.com -->
    <title>打印控制</title>
    <desc>Created with Sketch.</desc>
    <g id="打印控制" stroke="none" stroke-width="1" fill="none" fill-rule="evenodd">
        <g id="编组" transform="translate(9.000000, 6.000000)" fill="#60759C" fill-rule="nonzero">
            <path d="M40.3098291,0.5 C44.4995599,0.5 47.9807692,3.68734101 47.9807692,7.73443223 L47.9807692,7.73443223 L47.98,13.652 L49,13.6524725 C52.3137085,13.6524725 55,16.338764 55,19.6524725 L55,39.6098901 C55,42.9235986 52.3137085,45.6098901 49,45.6098901 L45.48,45.609 L45.4807692,51.4459707 C45.4807692,54.7596792 42.7944777,57.4459707 39.4807692,57.4459707 L16.5769231,57.4459707 C13.2632146,57.4459707 10.5769231,54.7596792 10.5769231,51.4459707 L10.576,45.609 L6,45.6098901 C2.6862915,45.6098901 0,42.9235986 0,39.6098901 L0,19.6524725 C0,16.338764 2.6862915,13.6524725 6,13.6524725 L8.076,13.652 L8.07692308,7.73443223 C8.07692308,3.76669574 11.4229528,0.625324311 15.5022466,0.50365874 L15.7478632,0.5 Z M39.4807692,36.4065934 L16.5769231,36.4065934 C16.0246383,36.4065934 15.5769231,36.8543087 15.5769231,37.4065934 L15.5769231,51.4459707 C15.5769231,51.9982554 16.0246383,52.4459707 16.5769231,52.4459707 L39.4807692,52.4459707 C40.033054,52.4459707 40.4807692,51.9982554 40.4807692,51.4459707 L40.4807692,37.4065934 C40.4807692,36.8543087 40.033054,36.4065934 39.4807692,36.4065934 Z M49,18.6524725 L6,18.6524725 C5.44771525,18.6524725 5,19.1001878 5,19.6524725 L5,39.6098901 C5,40.1621749 5.44771525,40.6098901 6,40.6098901 L10.576,40.609 L10.5769231,37.4065934 C10.5769231,34.0928849 13.2632146,31.4065934 16.5769231,31.4065934 L39.4807692,31.4065934 C42.7944777,31.4065934 45.4807692,34.0928849 45.4807692,37.4065934 L45.48,40.609 L49,40.6098901 C49.5522847,40.6098901 50,40.1621749 50,39.6098901 L50,19.6524725 C50,19.1001878 49.5522847,18.6524725 49,18.6524725 Z M11.8360806,21.9377289 C13.1434579,21.9377289 14.2032967,22.9975677 14.2032967,24.3049451 C14.2032967,25.6123224 13.1434579,26.6721612 11.8360806,26.6721612 C10.5287032,26.6721612 9.46886447,25.6123224 9.46886447,24.3049451 C9.46886447,22.9975677 10.5287032,21.9377289 11.8360806,21.9377289 Z M40.3098291,5.5 L15.7478632,5.5 C14.2259313,5.5 13.0769231,6.55201401 13.0769231,7.73443223 L13.0769231,7.73443223 L13.076,13.652 L42.98,13.652 L42.9807692,7.73443223 C42.9807692,6.59931074 41.9218433,5.58436977 40.4906212,5.50499068 L40.3098291,5.5 Z" id="形状结合"></path>
        </g>
    </g>
</svg>