<?xml version="1.0" encoding="UTF-8"?>
<svg width="72px" height="72px" viewBox="0 0 72 72" version="1.1" xmlns="http://www.w3.org/2000/svg" xmlns:xlink="http://www.w3.org/1999/xlink">
    <!-- Generator: Sketch 63.1 (92452) - https://sketch.com -->
    <title>编码规则</title>
    <desc>Created with Sketch.</desc>
    <g id="编码规则" stroke="none" stroke-width="1" fill="none" fill-rule="evenodd">
        <path d="M27.8020247,8.5 C29.1827366,8.5 30.3020247,9.61928813 30.3020247,11 C30.3020247,12.3254834 29.2704888,13.4100387 27.9664004,13.4946823 L27.8020247,13.5 L18.8148148,13.5 C16.5018968,13.5 14.6140261,15.3198437 14.5049757,17.6057581 L14.5,17.8148148 L14.5,50.1851852 C14.5,52.4981032 16.3198437,54.3859739 18.6057581,54.4950243 L18.8148148,54.5 L51.1851852,54.5 C53.4981032,54.5 55.3859739,52.6801563 55.4950243,50.3942419 L55.5,50.1851852 L55.5,43.5 C55.5,42.1192881 56.6192881,41 58,41 C59.3254834,41 60.4100387,42.0315359 60.4946823,43.3356243 L60.5,43.5 L60.5,50.1851852 C60.5,55.2393622 56.4746611,59.3533709 51.455028,59.4961665 L51.1851852,59.5 L18.8148148,59.5 C13.7606378,59.5 9.64662908,55.4746611 9.50383351,50.455028 L9.5,50.1851852 L9.5,17.8148148 C9.5,12.7606378 13.5253389,8.64662908 18.544972,8.50383351 L18.8148148,8.5 L27.8020247,8.5 Z" id="路径" fill="#60759C" fill-rule="nonzero" transform="translate(35.000000, 34.000000) scale(1, -1) translate(-35.000000, -34.000000) "></path>
        <path d="M47.5,24 C48.8807119,24 50,25.1192881 50,26.5 C50,27.8807119 48.8807119,29 47.5,29 L43.5,29 C42.1192881,29 41,27.8807119 41,26.5 C41,25.1192881 42.1192881,24 43.5,24 L47.5,24 Z" id="矩形备份" fill="#60759C" fill-rule="nonzero"></path>
        <path d="M31.9100044,22.6308572 C32.6661611,21.8256859 33.9318675,21.7859517 34.7370388,22.5421084 C35.4998327,23.2584674 35.5756414,24.4321507 34.9385712,25.2383248 L34.8257876,25.3691428 L27.6961391,32.9609402 C26.6359786,34.089821 24.9010164,34.2198364 23.6877098,33.2909993 L23.53885,33.1693755 L19.6863656,29.8136581 C18.8534651,29.0881578 18.7664001,27.8248245 19.4919003,26.991924 C20.1792164,26.2028604 21.3492414,26.0831893 22.178688,26.689649 L22.3136344,26.7974588 L25.439,29.52 L31.9100044,22.6308572 Z" id="路径-2" fill="#60759C" fill-rule="nonzero"></path>
        <path d="M38.3245863,39.3157206 C39.2070216,38.6513548 40.4609515,38.8281351 41.1253172,39.7105703 C41.7564647,40.5488838 41.6284779,41.7224713 40.8575234,42.4073448 L40.7304675,42.5113013 L34.551,47.163 L40.8915412,53.0762227 C41.6568462,53.7898984 41.7367764,54.9633083 41.1025414,55.7717147 L40.9902179,55.9029281 C40.2765423,56.6682331 39.1031324,56.7481633 38.294726,56.1139282 L38.1635126,56.0016048 L30.9511669,49.2758219 C30.8231346,49.1564269 30.7057987,49.0260541 30.6005028,48.8861962 C29.642283,47.6134531 29.8505934,45.8255083 31.0447573,44.8039288 L31.1927775,44.6850998 L38.3245863,39.3157206 Z" id="路径-7" fill="#60759C" fill-rule="nonzero"></path>
        <path d="M63.8813602,39.4022097 C64.7637954,38.7378439 66.0177254,38.9146242 66.6820911,39.7970594 C67.3132386,40.6353729 67.1852518,41.8089603 66.4142973,42.4938339 L66.2872414,42.5977903 L60.108,47.25 L66.448315,53.1627118 C67.2136201,53.8763875 67.2935503,55.0497974 66.6593152,55.8582038 L66.5469918,55.9894171 C65.8333162,56.7547221 64.6599063,56.8346524 63.8514998,56.2004173 L63.7202865,56.0880939 L56.5079408,49.3623109 C56.3799084,49.2429159 56.2625726,49.1125432 56.1572767,48.9726853 C55.1990569,47.6999421 55.4073672,45.9119974 56.6015312,44.8904179 L56.7495514,44.7715889 L63.8813602,39.4022097 Z" id="路径-7" fill="#60759C" fill-rule="nonzero" transform="translate(61.319103, 47.812648) scale(-1, 1) translate(-61.319103, -47.812648) "></path>
        <path d="M47.2277807,36.8561457 C47.4324059,35.7706954 48.4782187,35.0566456 49.563669,35.2612708 C50.5997806,35.4565949 51.2974881,36.418373 51.1808044,37.4494642 L51.1585438,37.5971591 L47.430943,57.3705067 C47.2263178,58.455957 46.180505,59.1700068 45.0950547,58.9653816 C44.0589431,58.7700575 43.3612356,57.8082795 43.4779193,56.7771883 L43.5001798,56.6294933 L47.2277807,36.8561457 Z" id="路径-8" fill="#60759C" fill-rule="nonzero"></path>
    </g>
</svg>