<?xml version="1.0" encoding="UTF-8"?>
<svg width="72px" height="72px" viewBox="0 0 72 72" version="1.1" xmlns="http://www.w3.org/2000/svg" xmlns:xlink="http://www.w3.org/1999/xlink">
    <!-- Generator: Sketch 63.1 (92452) - https://sketch.com -->
    <title>预警平台</title>
    <desc>Created with Sketch.</desc>
    <g id="预警平台" stroke="none" stroke-width="1" fill="none" fill-rule="evenodd">
        <path d="M62.9920736,58.4036055 C63.6607032,58.4036055 64.2248582,58.9677606 64.2248582,59.6363901 L64.2248582,61.2661715 C64.1412798,61.4542231 63.9532282,61.6422748 63.7651776,61.6422748 L39.1304024,61.6422748 C38.9423507,61.6422748 38.754299,61.4542231 38.754299,61.2661715 L38.754299,59.6363901 C38.754299,58.9677606 39.3184541,58.4036055 39.9870836,58.4036055 L62.9920736,58.4036055 Z M52.7407407,7.5 C58.1306308,7.5 62.5,11.8693692 62.5,17.2592593 L62.5,22.0207933 C62.5,23.4015052 61.3807119,24.5207933 60,24.5207933 C58.6192881,24.5207933 57.5,23.4015052 57.5,22.0207933 L57.5,17.2592593 C57.5,14.6307929 55.3692071,12.5 52.7407407,12.5 L18.2592593,12.5 C15.6307929,12.5 13.5,14.6307929 13.5,17.2592593 L13.5,51.7407407 C13.5,54.3692071 15.6307929,56.5 18.2592593,56.5 L27.5294624,56.5 C28.9101742,56.5 30.0294624,57.6192881 30.0294624,59 C30.0294624,60.3807119 28.9101742,61.5 27.5294624,61.5 L18.2592593,61.5 C12.8693692,61.5 8.5,57.1306308 8.5,51.7407407 L8.5,17.2592593 C8.5,11.8693692 12.8693692,7.5 18.2592593,7.5 L52.7407407,7.5 Z M51.2492878,35.0225122 C57.1714,35.0225122 61.9805368,39.919738 62.1317157,46.0896565 L62.1353807,46.389179 L62.1353807,54.7052557 C62.1353807,55.3293062 61.716744,55.7895463 61.2022468,55.8481381 L61.0906477,55.8544591 L41.4079043,55.8544591 C40.8813595,55.8544591 40.4276198,55.4358258 40.3694614,54.8363875 L40.3631713,54.7052557 L40.3631713,46.389179 C40.3631713,40.0790262 45.2316337,35.0225122 51.2492878,35.0225122 Z M51.2492878,38.365652 C49.2643121,38.365652 47.3837952,39.1805427 45.9629589,40.6640628 C44.5734671,42.0932557 43.7873745,44.0127281 43.712239,46.0642151 L43.7062994,46.389179 L43.7062994,52.5113193 L45.148029,52.5113193 L45.148029,46.8697686 L48.2822239,46.8697686 L48.2822239,52.5113193 L58.7922369,52.5113193 L58.7922369,46.389179 C58.7922369,44.2161516 57.9982396,42.1893697 56.5356166,40.6640628 C55.114796,39.1805427 53.2342791,38.365652 51.2492878,38.365652 Z M27.5,35 C28.8807119,35 30,36.1192881 30,37.5 C30,38.8254834 28.9684641,39.9100387 27.6643757,39.9946823 L27.5,40 L22.5,40 C21.1192881,40 20,38.8807119 20,37.5 C20,36.1745166 21.0315359,35.0899613 22.3356243,35.0053177 L22.5,35 L27.5,35 Z M64.412906,33.4345214 C64.4755929,33.4345214 64.5382767,33.4462746 64.5833308,33.4697811 L64.6218553,33.4972053 L66.3352139,35.2105638 C66.4247624,35.3001134 66.4375551,35.5124711 66.3735918,35.637108 L66.3352139,35.6911417 L63.3472802,38.6581782 C63.3054908,38.6999674 63.2219124,38.7208621 63.1174391,38.7208621 C63.054755,38.7208621 62.980318,38.7091089 62.9293873,38.6856024 L62.887598,38.6581782 L61.1742395,36.9448196 C61.0846909,36.8552701 61.0718983,36.6429123 61.1358615,36.5182755 L61.1742395,36.4642418 L64.1412759,33.4972053 C64.2248543,33.455416 64.3293276,33.4345214 64.412906,33.4345214 Z M38.5035752,33.4345214 C38.5662593,33.4345214 38.6406963,33.4462746 38.691627,33.4697811 L38.7334163,33.4972053 L41.7004527,36.3806646 C41.7900013,36.4702141 41.8027939,36.6825719 41.7388307,36.8072087 L41.7004527,36.8612424 L39.9870942,38.5746009 C39.9453048,38.6163902 39.8408315,38.6372848 39.7572531,38.6372848 C39.694569,38.6372848 39.620132,38.6255317 39.5692013,38.6020252 L39.527412,38.5746009 L36.5603756,35.6075645 C36.4708271,35.5180149 36.4580344,35.3056572 36.5219976,35.1810203 L36.5603756,35.1269866 L38.2737341,33.4972053 C38.3155235,33.455416 38.3991019,33.4345214 38.5035752,33.4345214 Z M52.6910185,28.2526267 C52.8555638,28.2526267 53.0201091,28.3966037 53.0446766,28.5585779 L53.0462274,28.62873 L53.0462274,32.7449856 C53.0462274,32.9095309 52.9022504,33.0740761 52.7402761,33.1126414 L52.670124,33.121089 L50.288136,33.121089 C50.1235908,33.121089 49.9590455,32.9771119 49.9204802,32.8151377 L49.9120326,32.7449856 L49.9120326,28.5451646 C49.9120326,28.3806193 50.0560097,28.2800539 50.2179839,28.2574836 L50.288136,28.2526267 L52.6910185,28.2526267 Z M41.5,22 C42.8807119,22 44,23.1192881 44,24.5 C44,25.8254834 42.9684641,26.9100387 41.6643757,26.9946823 L41.5,27 L22.5,27 C21.1192881,27 20,25.8807119 20,24.5 C20,23.1745166 21.0315359,22.0899613 22.3356243,22.0053177 L22.5,22 L41.5,22 Z" id="形状结合" fill="#60759C" fill-rule="nonzero"></path>
        <g id="预警" transform="translate(36.000000, 28.000000)"></g>
    </g>
</svg>