<?xml version="1.0" encoding="UTF-8"?>
<svg width="72px" height="72px" viewBox="0 0 72 72" version="1.1" xmlns="http://www.w3.org/2000/svg" xmlns:xlink="http://www.w3.org/1999/xlink">
    <title>上机监控</title>
    <g id="上机监控" stroke="none" stroke-width="1" fill="none" fill-rule="evenodd">
        <path d="M35.9625,47.7130209 C36.8369508,47.7130209 37.6286175,48.0674621 38.2016714,48.6405161 C38.7747254,49.21357 39.1291666,50.0052366 39.1291666,50.8796875 L39.1291666,50.8796875 L39.1291666,57.8463542 L53.6958333,57.8463542 C54.5702841,57.8463542 55.3619508,58.2007954 55.9350048,58.7738494 C56.5080587,59.3469033 56.8624999,60.1385699 56.8624999,61.0130208 C56.8624999,61.8874716 56.5080587,62.6791383 55.9350047,63.2521923 C55.3619508,63.8252462 54.5702841,64.1796875 53.6958333,64.1796875 L53.6958333,64.1796875 L18.2291667,64.1796875 C17.3547158,64.1796875 16.5630492,63.8252462 15.9899952,63.2521923 C15.4169412,62.6791383 15.0625,61.8874716 15.0625,61.0130208 C15.0625,60.1385699 15.4169412,59.3469033 15.9899952,58.7738494 C16.5630491,58.2007954 17.3547158,57.8463542 18.2291667,57.8463542 L18.2291667,57.8463542 L32.7958333,57.8463542 L32.7958333,50.8796875 C32.7958333,50.0052366 33.1502745,49.21357 33.7233285,48.6405161 C34.2963824,48.0674621 35.0880491,47.7130209 35.9625,47.7130209 Z M35.9625,7.1796875 C41.3840952,7.1796875 46.2924286,9.37722318 49.8453631,12.9301577 C53.3982976,16.4830922 55.5958333,21.3914255 55.5958333,26.8130208 C55.5958333,32.2346161 53.3982976,37.1429494 49.8453631,40.6958839 C46.2924286,44.2488184 41.3840952,46.4463541 35.9625,46.4463541 C30.5409047,46.4463541 25.6325714,44.2488184 22.0796368,40.6958839 C18.5267023,37.1429494 16.3291667,32.2346161 16.3291667,26.8130208 C16.3291667,21.3914255 18.5267023,16.4830922 22.0796368,12.9301577 C25.6325714,9.37722318 30.5409047,7.1796875 35.9625,7.1796875 Z M35.9625,13.5130208 C32.2898064,13.5130208 28.9648064,15.001674 26.5579798,17.4085006 C24.1511532,19.8153272 22.6625,23.1403272 22.6625,26.8130208 C22.6625,30.4857144 24.1511532,33.8107144 26.5579798,36.217541 C28.9648064,38.6243676 32.2898064,40.1130208 35.9625,40.1130208 C39.6351935,40.1130208 42.9601935,38.6243676 45.3670201,36.217541 C47.7738467,33.8107144 49.2624999,30.4857144 49.2624999,26.8130208 C49.2624999,23.1403272 47.7738467,19.8153272 45.3670201,17.4085006 C42.9601935,15.001674 39.6351935,13.5130208 35.9625,13.5130208 Z M35.9625,22.3796875 C37.1867312,22.3796875 38.2950645,22.8759052 39.09734,23.6781807 C39.8996156,24.4804563 40.3958333,25.5887896 40.3958333,26.8130208 C40.3958333,28.037252 39.8996156,29.1455853 39.09734,29.9478609 C38.2950645,30.7501364 37.1867312,31.2463541 35.9625,31.2463541 C34.7382688,31.2463541 33.6299354,30.7501364 32.8276599,29.9478609 C32.0253844,29.1455853 31.5291666,28.037252 31.5291666,26.8130208 C31.5291666,25.5887896 32.0253844,24.4804563 32.8276599,23.6781807 C33.6299354,22.8759052 34.7382688,22.3796875 35.9625,22.3796875 Z" id="形状" fill="#60759C" fill-rule="nonzero"></path>
    </g>
</svg>