<?xml version="1.0" encoding="UTF-8"?>
<svg width="72px" height="72px" viewBox="0 0 72 72" version="1.1" xmlns="http://www.w3.org/2000/svg" xmlns:xlink="http://www.w3.org/1999/xlink">
    <title>日志管理</title>
    <g id="日志管理" stroke="none" stroke-width="1" fill="none" fill-rule="evenodd">
        <path d="M44.2986002,9.24576271 C45.6793121,9.24576271 46.7986002,10.3650508 46.7986002,11.7457627 C46.7986002,13.0712461 45.7670643,14.1558014 44.4629759,14.240445 L44.2986002,14.2457627 L17.31199,14.2457627 C14.726228,14.2457627 12.6168217,16.2852836 12.5046885,18.8434078 L12.5,19.0577527 L12.5,53.789705 C12.5,56.3754669 14.5395209,58.4848732 17.0976451,58.5970064 L17.31199,58.6016949 L52.0439422,58.6016949 C54.6297042,58.6016949 56.7391105,56.562174 56.8512437,54.0040498 L56.8559322,53.789705 L56.8559322,28.8079505 C56.8559322,27.4272386 57.9752203,26.3079505 59.3559322,26.3079505 C60.6814156,26.3079505 61.7659709,27.3394864 61.8506145,28.6435748 L61.8559322,28.8079505 L61.8559322,53.789705 C61.8559322,59.1168697 57.6106072,63.4524857 52.3185846,63.5979253 L52.0439422,63.6016949 L17.31199,63.6016949 C11.9848252,63.6016949 7.64920925,59.3563699 7.50376957,54.0643473 L7.5,53.789705 L7.5,19.0577527 C7.5,13.7305879 11.745325,9.39497196 17.0373476,9.24953228 L17.31199,9.24576271 L44.2986002,9.24576271 Z" id="路径" fill="#60759C" fill-rule="nonzero"></path>
        <path d="M32.3050847,27.7927574 C33.6155909,27.7927574 34.6779661,28.8551326 34.6779661,30.1656388 C34.6779661,31.4761449 33.6155909,32.5385201 32.3050847,32.5385201 L21.8644068,32.5385201 C20.5539006,32.5385201 19.4915254,31.4761449 19.4915254,30.1656388 C19.4915254,28.8551326 20.5539006,27.7927574 21.8644068,27.7927574 L32.3050847,27.7927574 Z" id="矩形" fill="#60759C" fill-rule="nonzero"></path>
        <path d="M47.4915254,42.0300455 C48.8020316,42.0300455 49.8644068,43.0924207 49.8644068,44.4029269 C49.8644068,45.7134331 48.8020316,46.7758083 47.4915254,46.7758083 L21.8644068,46.7758083 C20.5539006,46.7758083 19.4915254,45.7134331 19.4915254,44.4029269 C19.4915254,43.0924207 20.5539006,42.0300455 21.8644068,42.0300455 L47.4915254,42.0300455 Z" id="矩形备份" fill="#60759C" fill-rule="nonzero"></path>
        <path d="M61.1149883,19.6824946 C62.4254945,19.6824946 63.4878696,20.7448698 63.4878696,22.055376 C63.4878696,23.3658822 62.4254945,24.4282573 61.1149883,24.4282573 L41.860751,24.4282573 C40.5502448,24.4282573 39.4878696,23.3658822 39.4878696,22.055376 C39.4878696,20.7448698 40.5502448,19.6824946 41.860751,19.6824946 L61.1149883,19.6824946 Z" id="矩形备份-2" fill="#60759C" fill-rule="nonzero" transform="translate(51.487870, 22.055376) scale(-1, 1) rotate(47.000000) translate(-51.487870, -22.055376) "></path>
    </g>
</svg>