<?xml version="1.0" encoding="UTF-8"?>
<svg width="72px" height="72px" viewBox="0 0 72 72" version="1.1" xmlns="http://www.w3.org/2000/svg" xmlns:xlink="http://www.w3.org/1999/xlink">
    <title>轻量级调度</title>
    <g id="轻量级调度" stroke="none" stroke-width="1" fill="none" fill-rule="evenodd">
        <path d="M19.5034995,22.5006238 C25.9935416,22.6456333 29.8826527,26.3626206 30.5543002,32.9474084 L30.5861681,33.2905548 L30.594914,33.4994869 L30.594,39.554 L58.9708914,39.2407916 C60.3515097,39.2247154 61.4837543,40.3308953 61.5001729,41.7115136 C61.5159068,43.0921319 60.4097269,44.2243765 59.0291086,44.2404527 L30.594,44.553 L30.594914,61 C30.594914,62.3254834 29.563378,63.4100387 28.2592897,63.4946823 L28.094914,63.5 C26.7694306,63.5 25.6848753,62.4684641 25.6002316,61.1643757 L25.594914,61 L25.594,44.602 L18.4684211,44.6512352 L17.9186544,44.6516126 L17.7389957,44.6253786 C12.1187757,43.8047064 8.89837656,40.1539458 8.52092148,34.3150747 L8.50259533,33.98224 L8.50125496,33.7891508 C8.72063545,26.8680626 12.4482639,22.8451105 19.0383359,22.5146421 L19.3702219,22.5011995 L19.5034995,22.5006238 Z M19.455,27.501 L19.2663572,27.5092924 C15.4343564,27.7023472 13.7139171,29.5090104 13.5102856,33.6608366 L13.502,33.844 L13.5134745,34.042055 C13.7396758,37.4448761 15.1706386,39.1174761 18.2048688,39.6371932 L18.294,39.651 L23.3437456,39.6211475 L25.594,39.602 L25.594,33.61 L25.5774139,33.4256015 C25.1692958,29.4241975 23.3839428,27.6672085 19.6551212,27.5079062 L19.455,27.501 Z" id="路径-19" fill="#60759C" fill-rule="nonzero"></path>
        <path d="M38.5,8.5 C39.8254834,8.5 40.9100387,9.53153594 40.9946823,10.8356243 L41,11 L41,61 C41,62.3807119 39.8807119,63.5 38.5,63.5 C37.1745166,63.5 36.0899613,62.4684641 36.0053177,61.1643757 L36,61 L36,11 C36,9.61928813 37.1192881,8.5 38.5,8.5 Z" id="路径-20" fill="#60759C" fill-rule="nonzero"></path>
        <path d="M36.0651068,8.41690552 C36.9394257,7.34829349 38.5144824,7.19078782 39.5830945,8.06510675 C40.6052451,8.90141182 40.7937937,10.3788456 40.0430932,11.4409374 L39.9348932,11.5830945 L30.9348932,22.5830945 C30.0605743,23.6517065 28.4855176,23.8092122 27.4169055,22.9348932 C26.3947549,22.0985882 26.2062063,20.6211544 26.9569068,19.5590626 L27.0651068,19.4169055 L36.0651068,8.41690552 Z" id="路径-21" fill="#60759C" fill-rule="nonzero"></path>
        <path d="M48.5487372,30.8614396 C49.3850423,29.8392889 50.8624761,29.6507403 51.9245679,30.4014408 L52.066725,30.5096408 L63.066725,39.5096408 C64.135337,40.3839597 64.2928427,41.9590165 63.4185237,43.0276285 C62.5822187,44.0497791 61.1047849,44.2383278 60.0426931,43.4876272 L59.900536,43.3794273 L48.900536,34.3794273 C47.831924,33.5051083 47.6744183,31.9300516 48.5487372,30.8614396 Z" id="路径-21备份" fill="#60759C" fill-rule="nonzero"></path>
        <path d="M37.318318,8.15014982 C38.2955428,7.26176369 39.7846517,7.29202492 40.7251067,8.19043168 L40.8498502,8.31831802 L50.8498502,19.318318 C51.7786175,20.3399621 51.703326,21.9210829 50.681682,22.8498502 C49.7044572,23.7382363 48.2153483,23.7079751 47.2748933,22.8095683 L47.1501498,22.681682 L37.1501498,11.681682 C36.2213825,10.6600379 36.296674,9.07891713 37.318318,8.15014982 Z" id="路径-22" fill="#60759C" fill-rule="nonzero"></path>
        <path d="M59.8019485,40.5946838 C60.8235925,39.6659165 62.4047134,39.741208 63.3334807,40.762852 C64.2218668,41.7400768 64.1916056,43.2291857 63.2931988,44.1696407 L63.1653125,44.2943842 L52.1653125,54.2943842 C51.1436684,55.2231515 49.5625476,55.1478601 48.6337803,54.126216 C47.7453942,53.1489913 47.7756554,51.6598823 48.6740622,50.7194274 L48.8019485,50.5946838 L59.8019485,40.5946838 Z" id="路径-22备份" fill="#60759C" fill-rule="nonzero"></path>
    </g>
</svg>