<?xml version="1.0" encoding="UTF-8"?>
<svg width="72px" height="72px" viewBox="0 0 72 72" version="1.1" xmlns="http://www.w3.org/2000/svg" xmlns:xlink="http://www.w3.org/1999/xlink">
    <title>预警平台</title>
    <g id="预警平台" stroke="none" stroke-width="1" fill="none" fill-rule="evenodd">
        <path d="M36.0180163,22.1966101 C40.7876534,22.1966101 45.11247,24.1360783 48.2447481,27.2683565 C51.3358121,30.3594204 53.2652494,34.6118467 53.3154889,39.3070459 L53.3164946,39.4950883 L53.3164946,55.6772622 L56.905625,55.6772622 C57.6074855,55.6772622 58.2426679,55.9621931 58.7024462,56.422739 C59.1620732,56.8831333 59.4462772,57.5190588 59.4462772,58.2207405 C59.4462772,58.9223166 59.1614425,59.5583323 58.7009166,60.0188582 C58.2604136,60.4593612 57.659349,60.7391184 56.993928,60.7626124 L56.9027989,60.7642187 L14.7658424,60.7642187 C14.0642663,60.7642187 13.4282506,60.4793841 12.9677247,60.0188582 C12.5071988,59.5583323 12.2223641,58.9223166 12.2223641,58.2207405 C12.2223641,57.5191644 12.5071988,56.8831487 12.9677247,56.4226228 C13.4082277,55.9821198 14.0092923,55.7023626 14.6747133,55.6788686 L14.7658424,55.6772622 L18.716712,55.6772622 L18.716712,39.4950883 C18.716712,34.7252701 20.6563239,30.4003062 23.7891753,27.2679929 C26.9217571,24.1359492 31.2471146,22.1966101 36.0180163,22.1966101 Z M36.0151902,27.2835666 C32.6484993,27.2835666 29.5958291,28.6534566 27.3846938,30.8645919 C25.1735585,33.0757272 23.8036685,36.1283974 23.8036685,39.4950883 L23.8036685,39.4950883 L23.8036685,55.6772622 L48.226712,55.6772622 L48.226712,39.4950883 L48.2255728,39.3270179 C48.1808153,36.0268755 46.8199697,33.0388749 44.6456866,30.8645919 C42.4345513,28.6534566 39.3818811,27.2835666 36.0151902,27.2835666 Z" id="形状" fill="#60759C" fill-rule="nonzero"></path>
        <polygon id="路径" fill="#60759C" fill-rule="nonzero" points="41.2026303 41.4003697 36.7518328 41.4003697 36.7518328 31.7249686 30.420178 43.6031756 35.0291256 43.6031756 35.0291256 52.8380156"></polygon>
        <path d="M56.2996714,33.6 C55.6231546,33.6 54.9739411,33.2207865 54.6614692,32.5746067 C54.2215816,31.6705618 54.600795,30.5814607 55.50484,30.141573 L60.1828175,27.8753933 C61.0868625,27.4385393 62.1759636,27.8147191 62.6158512,28.718764 C63.0557389,29.622809 62.6765254,30.7119101 61.7724804,31.1517978 L57.0945029,33.4179775 C56.8366377,33.5393258 56.563604,33.6 56.2996714,33.6 Z" id="路径" fill="#60759C"></path>
        <path d="M36.0163007,20.2880899 C35.0121434,20.2880899 34.1960759,19.4720225 34.1960759,18.4678652 L34.1960759,13.8202247 C34.1960759,12.8160674 35.0121434,12 36.0163007,12 C37.020458,12 37.8365254,12.8160674 37.8365254,13.8202247 L37.8365254,18.4678652 C37.8365254,19.4720225 37.0234917,20.2880899 36.0163007,20.2880899 Z" id="路径" fill="#60759C"></path>
        <path d="M23.8905703,24.1287644 C23.2989973,24.1287644 22.7165254,23.8405618 22.367649,23.3096629 L19.5098962,18.9653933 C18.9583813,18.1257159 19.1904216,16.9980812 20.0286602,16.444382 C20.8689973,15.8922472 21.9975366,16.122809 22.5496714,16.9631461 L25.4074243,21.304382 C25.9589391,22.1440594 25.7268988,23.2716941 24.8886602,23.8253933 C24.5934654,24.0233749 24.246009,24.1289847 23.8905703,24.1287644 L23.8905703,24.1287644 Z" id="路径" fill="#60759C"></path>
        <path d="M47.9054018,24.1287644 C47.5625928,24.1287644 47.2137164,24.0316854 46.9073119,23.828427 C46.5035511,23.56346 46.2218933,23.1486475 46.1245554,22.6756194 C46.0272174,22.2025912 46.1222094,21.7102731 46.3885478,21.3074157 L49.2463007,16.9661798 C49.5112676,16.562419 49.9260802,16.2807612 50.3991083,16.1834232 C50.8721364,16.0860853 51.3644545,16.1810772 51.7673119,16.4474157 C52.1710727,16.7123827 52.4527305,17.1271952 52.5500684,17.6002233 C52.6474063,18.0732515 52.5524144,18.5655696 52.2860759,18.968427 L49.4283231,23.3096629 C49.0906778,23.8213716 48.5184679,24.1291339 47.9054018,24.1287644 Z" id="路径" fill="#60759C"></path>
        <path d="M15.4963007,33.6 C15.2293344,33.6 14.9593344,33.5423596 14.7045029,33.4179775 L10.0265254,31.1517978 C9.59175833,30.941306 9.25854722,30.566556 9.10034378,30.1101561 C8.94214034,29.6537563 8.97193307,29.153177 9.18315459,28.718764 C9.39364634,28.283997 9.76839635,27.9507859 10.2247962,27.7925825 C10.6811961,27.634379 11.1817753,27.6641717 11.6161883,27.8753933 L16.2941658,30.141573 C16.7289329,30.3520648 17.062144,30.7268148 17.2203474,31.1832146 C17.3785509,31.6396145 17.3487581,32.1401938 17.1375366,32.5746067 C16.8312849,33.2018894 16.1943505,33.5998262 15.4963007,33.6 L15.4963007,33.6 Z" id="路径" fill="#60759C"></path>
    </g>
</svg>