<?xml version="1.0" encoding="UTF-8"?>
<svg width="72px" height="72px" viewBox="0 0 72 72" version="1.1" xmlns="http://www.w3.org/2000/svg" xmlns:xlink="http://www.w3.org/1999/xlink">
    <title>消息管理中心</title>
    <g id="消息管理中心" stroke="none" stroke-width="1" fill="none" fill-rule="evenodd">
        <path d="M13.7266284,49.4440906 L12.2219171,53.0851202 L11.7256544,54.3377194 C11.3541207,55.3090145 11.0728166,56.1157732 10.871127,56.8137257 C10.6920083,57.3957745 10.5763378,57.9954816 10.5261314,58.6023948 C10.4465171,59.8629553 10.7517054,60.9828639 12.0786113,61.7073545 C13.2701727,62.3522307 14.1220463,62.2301554 16.1017899,61.5560872 L17.1633146,61.1818998 L18.4955281,60.6697141 L23.5643084,58.6156639 L24.599295,58.2175921 L25.5281291,57.8885194 L26.0058152,57.7425598 C29.1399668,58.8173535 32.4811158,59.3773078 35.9045329,59.3773078 C51.2302956,59.3773078 63.7695559,48.170261 63.7695559,34.187327 C63.7695559,20.2070469 51.2329494,9 35.9045329,9 C20.5761164,9 8.03950988,20.2070469 8.03950988,34.187327 C8.03950988,39.7948311 10.0696759,45.110416 13.7239746,49.4440906 L13.7266284,49.4440906 Z M22.1790187,53.4593077 L21.8738303,53.5760754 L16.945702,55.5770494 L18.7051791,51.2831821 L18.9705603,50.5852296 C19.0475209,50.3755785 19.1085585,50.1924655 19.158981,50.0226215 C19.2385953,49.7678556 19.2916716,49.5422816 19.3261711,49.3034385 L19.3527092,49.0672493 L19.3500554,48.6028323 L19.3102482,48.2711058 C19.257172,47.9446869 19.1377505,47.7615739 18.6096419,46.9441999 C15.2207244,43.3827846 13.3471333,38.908458 13.3471333,34.1846732 C13.3471333,23.2801608 23.386503,14.3076234 35.9045329,14.3076234 C48.4252166,14.3076234 58.4619325,23.277507 58.4619325,34.187327 C58.4619325,45.0971469 48.4252166,54.0696843 35.9045329,54.0696844 C33.2848032,54.0751256 30.6802316,53.6722184 28.1845946,52.8754691 L27.2743372,52.5596655 C26.1968897,52.1669013 25.3795156,52.312861 23.6200385,52.9311992 L22.1790187,53.4593077 Z" id="形状" fill="#60759C" fill-rule="nonzero"></path>
        <path d="M42.9642424,39.34198 C43.7639394,37.9782485 45.1348485,37.2963827 46.5057576,37.410027 C46.7342424,36.6145169 46.8484848,35.7053625 46.8484848,34.7962082 C46.8484848,34.0006981 46.7342424,33.205188 46.62,32.5233222 C45.2490909,32.7506108 43.7639394,31.9551008 42.9642424,30.5913692 C42.1645454,29.2276376 42.2787879,27.5229732 43.1927273,26.5001745 C41.9360606,25.3637316 40.5651515,24.5682215 38.9657576,24 C38.5087879,25.3637316 37.1378788,26.2728859 35.4242424,26.2728859 C33.7106061,26.2728859 32.4539394,25.3637316 31.8827273,24 C30.2833333,24.5682215 28.9124242,25.4773759 27.6557576,26.6138188 C28.569697,27.7502618 28.6839394,29.3412819 27.8842424,30.7050135 C27.0845455,32.068745 25.599394,32.7506108 24.2284849,32.5233222 C24.1142424,33.3188323 24,34.1143424 24,34.9098525 C24,35.8190068 24.1142424,36.6145169 24.3427273,37.410027 C25.7136364,37.2963827 27.0845455,37.9782485 27.8842424,39.34198 C28.569697,40.7057116 28.569697,42.1830874 27.77,43.3195304 C29.0266667,44.4559734 30.3975757,45.2514834 31.9969697,45.7060606 C32.5681818,44.4559734 33.8248485,43.6604633 35.4242424,43.6604633 C37.0236364,43.6604633 38.280303,44.4559734 38.8515151,45.7060606 C40.4509091,45.2514834 41.8218182,44.342329 43.0784849,43.3195304 C42.2787879,42.1830874 42.1645455,40.7057116 42.9642424,39.34198 Z M35.4242424,39.7965572 C32.6824242,39.7965572 30.5118182,37.6373156 30.5118182,34.9098525 C30.5118182,32.1823893 32.6824242,30.0231477 35.4242424,30.0231477 C38.1660606,30.0231477 40.3366667,32.1823893 40.3366667,34.9098525 C40.3366667,37.6373156 38.1660606,39.7965572 35.4242424,39.7965572 Z" id="形状" fill="#60759C" fill-rule="nonzero"></path>
    </g>
</svg>