<?xml version="1.0" encoding="UTF-8"?>
<svg width="72px" height="72px" viewBox="0 0 72 72" version="1.1" xmlns="http://www.w3.org/2000/svg" xmlns:xlink="http://www.w3.org/1999/xlink">
    <title>分析报表引擎</title>
    <g id="分析报表引擎" stroke="none" stroke-width="1" fill="none" fill-rule="evenodd">
        <path d="M57,11.5 C61.0609173,11.5 64.3680175,14.7274744 64.4961464,18.7572689 L64.5,19 L64.5,33.0926594 L59.5,33.0926594 L59.5,19 C59.5,17.6745166 58.4684641,16.5899613 57.1643757,16.5053177 L57,16.5 L15,16.5 C13.6745166,16.5 12.5899613,17.5315359 12.5053177,18.8356243 L12.5,19 L12.5,53 C12.5,54.3254834 13.5315359,55.4100387 14.8356243,55.4946823 L15,55.5 L37,55.5 L37,60.5 L15,60.5 C10.9390827,60.5 7.63198248,57.2725256 7.50385357,53.2427311 L7.5,53 L7.5,19 C7.5,14.9390827 10.7274744,11.6319825 14.7572689,11.5038536 L15,11.5 L57,11.5 Z" id="路径备份" fill="#60759C" fill-rule="nonzero"></path>
        <polygon id="路径-11备份-3" fill="#60759C" fill-rule="nonzero" points="59.5910986 24.8173636 59.5910986 29.8173636 12 29.8173636 12 24.8173636"></polygon>
        <polygon id="路径-11备份-4" fill="#60759C" fill-rule="nonzero" points="37 35 37 40 12 40 12 35"></polygon>
        <polygon id="路径-11备份-5" fill="#60759C" fill-rule="nonzero" points="37 45 37 50 12 50 12 45"></polygon>
        <polygon id="直线备份-2" fill="#60759C" fill-rule="nonzero" points="29 27.5 29 57.5 24 57.5 24 27.5"></polygon>
        <polygon id="直线备份-3" fill="#60759C" fill-rule="nonzero" points="47.5 27.5 47.5 33.5 42.5 33.5 42.5 27.5"></polygon>
        <path d="M56.9731889,44.8370833 C57.4003745,44.9441238 57.7182682,45.1930039 57.8940563,45.5011945 C58.0700804,45.8097989 58.1082107,46.1811714 57.9646146,46.5493103 L57.9479094,46.590198 L54.5468431,54.5033713 C55.2459154,55.1925226 55.6898836,56.1246554 55.6898836,57.1760114 C55.6898836,58.2326344 55.2563919,59.1887036 54.5553683,59.8806544 C53.8546732,60.5722808 52.8866312,61 51.8173428,61 C50.7492066,61 49.7816429,60.572165 49.0812147,59.8803102 C48.3807248,59.1883946 47.9473684,58.2324637 47.9473684,57.1760114 C47.9473684,56.120585 48.3809518,55.1643548 49.0818455,54.4720402 C49.7293298,53.8324813 50.6049398,53.4182134 51.5771734,53.3592808 L51.6436103,53.3558148 L54.9413693,45.7552356 C55.0947061,45.3977901 55.39917,45.1123058 55.773755,44.9457233 C56.1380463,44.7837838 56.566539,44.7351885 56.9731889,44.8370833 Z M52.0513395,56.4594595 C51.789389,56.4594595 51.552578,56.5679141 51.3813501,56.7440321 C51.210632,56.9196256 51.1052632,57.1624068 51.1052632,57.4311034 C51.1052632,57.7001811 51.2108776,57.9437881 51.3818994,58.1200699 C51.5530355,58.2964696 51.7896038,58.4054054 52.0513395,58.4054054 C52.3134446,58.4054054 52.5508154,58.2962159 52.722621,58.1195038 C52.8939159,57.9433169 53,57.6999614 53,57.4311034 C53,57.1626263 52.8941621,56.920096 52.7231714,56.7445971 C52.5512737,56.5681672 52.3136596,56.4594595 52.0513395,56.4594595 Z M52.9987472,37 C56.3126725,37 59.3129154,38.3503027 61.4846481,40.5335336 C63.7126033,42.7732847 65.0686433,45.8896069 64.9973182,49.3243243 L64.9973182,49.3243243 L62.1356513,49.3243243 C62.2076093,46.6848949 61.1720616,44.2879406 59.4624234,42.568884 C57.8081879,40.9055354 55.5228801,39.8768188 52.9987472,39.8768188 C50.4746144,39.8768188 48.1893066,40.9055354 46.5350711,42.568884 C44.8254329,44.2879406 43.7898852,46.6848949 43.8618432,49.3243243 L43.8618432,49.3243243 L41.0026805,49.3243243 C40.9313854,45.8894351 42.2869217,42.7729806 44.5144199,40.5332111 C46.685499,38.3501716 49.6849765,37 52.9987472,37 Z" id="形状" fill="#60759C" fill-rule="nonzero"></path>
    </g>
</svg>