<?xml version="1.0" encoding="UTF-8"?>
<svg width="72px" height="72px" viewBox="0 0 72 72" version="1.1" xmlns="http://www.w3.org/2000/svg" xmlns:xlink="http://www.w3.org/1999/xlink">
    <title>作业查询备份</title>
    <g id="作业查询备份" stroke="none" stroke-width="1" fill="none" fill-rule="evenodd">
        <path d="M38.5732775,7.84580733 L17,7.84580733 C13.4101491,7.84580733 10.5,10.7559565 10.5,14.3458073 L10.5,57.486486 C10.5,61.0763369 13.4101491,63.986486 17,63.986486 L52.5135135,63.986486 C56.1033644,63.986486 59.0135135,61.0763369 59.0135135,57.486486 L59.0135135,22.3593112 C59.0135135,20.8114218 58.2179695,19.3721776 56.9072448,18.5487928 L40.9670087,8.5352889 C40.2498748,8.08479222 39.4201708,7.84580733 38.5732775,7.84580733 Z M38.428,12.845 L54.013,22.635 L54.0135135,57.486486 C54.0135135,58.3149131 53.3419406,58.986486 52.5135135,58.986486 L17,58.986486 C16.1715729,58.986486 15.5,58.3149131 15.5,57.486486 L15.5,14.3458073 C15.5,13.5173802 16.1715729,12.8458073 17,12.8458073 L38.428,12.845 Z" id="路径-5" fill="#60759C" fill-rule="nonzero"></path>
        <path d="M41.6081081,9 L41.6081081,19 C41.6081081,20.3254834 42.639644,21.4100387 43.9437324,21.4946823 L44.1081081,21.5 L56.1081081,21.5 L56.1081081,26.5 L44.1081081,26.5 C40.0471908,26.5 36.7400906,23.2725256 36.6119617,19.2427311 L36.6081081,19 L36.6081081,9 L41.6081081,9 Z" id="路径-6" fill="#60759C" fill-rule="nonzero"></path>
        <rect id="矩形备份" stroke="#60759C" stroke-width="4" fill="#D8D8D8" x="22.1555556" y="25" width="5.2" height="1" rx="0.5"></rect>
        <g id="编组-2" transform="translate(21.177778, 29.000000)">
            <path d="M22.544735,16.5973198 C23.7197029,16.6082061 24.6695702,17.5579704 24.6805841,18.7329371 L24.748151,25.9410008 C24.7589033,27.0880607 23.837744,28.026653 22.6906841,28.0374053 C22.6777804,28.0375263 22.6648758,28.037527 22.651972,28.0374074 C21.4770041,28.026521 20.5271367,27.0767568 20.5161228,25.90179 L20.4485559,18.6937263 C20.4378036,17.5466664 21.3589629,16.6080742 22.5060228,16.5973219 C22.5189266,16.5972009 22.5318312,16.5972002 22.544735,16.5973198 Z" id="矩形" fill="#60759C" transform="translate(22.598353, 22.317364) rotate(-46.000000) translate(-22.598353, -22.317364) "></path>
            <ellipse id="椭圆形" stroke="#60759C" stroke-width="4" transform="translate(12.165356, 12.369880) rotate(-17.000000) translate(-12.165356, -12.369880) " cx="12.1653555" cy="12.3698804" rx="8.72516129" ry="8.53548387"></ellipse>
        </g>
    </g>
</svg>