<?xml version="1.0" encoding="UTF-8"?>
<svg width="72px" height="72px" viewBox="0 0 72 72" version="1.1" xmlns="http://www.w3.org/2000/svg" xmlns:xlink="http://www.w3.org/1999/xlink">
    <!-- Generator: Sketch 63.1 (92452) - https://sketch.com -->
    <title>插件管理</title>
    <desc>Created with Sketch.</desc>
    <g id="插件管理" stroke="none" stroke-width="1" fill="none" fill-rule="evenodd">
        <g id="编组" transform="translate(10.000000, 11.000000)" fill="#60759C" fill-rule="nonzero">
            <path d="M18.9090909,-2.5 C20.2898028,-2.5 21.4090909,-1.38071187 21.4090909,0 C21.4090909,1.3254834 20.377555,2.41003867 19.0734666,2.49468232 L18.9090909,2.5 L7.28350168,2.5 C4.71304814,2.5 2.61613007,4.52744636 2.50466076,7.07042577 L2.5,7.28350168 L2.5,41.8801347 C2.5,44.4505882 4.52744636,46.5475063 7.07042577,46.6589756 L7.28350168,46.6636364 L41.8801347,46.6636364 C44.4505882,46.6636364 46.5475063,44.63619 46.6589756,42.0932106 L46.6636364,41.8801347 L46.6636364,29.8806632 C46.6636364,28.4999514 47.7829245,27.3806632 49.1636364,27.3806632 C50.4891198,27.3806632 51.573675,28.4121992 51.6583187,29.7162875 L51.6636364,29.8806632 L51.6636364,41.8801347 C51.6636364,47.1918325 47.4306373,51.5148603 42.1539796,51.6598777 L41.8801347,51.6636364 L7.28350168,51.6636364 C1.9718039,51.6636364 -2.35122397,47.4306373 -2.49624138,42.1539796 L-2.5,41.8801347 L-2.5,7.28350168 C-2.5,1.9718039 1.73299909,-2.35122397 7.00965673,-2.49624138 L7.28350168,-2.5 L18.9090909,-2.5 Z" id="路径" transform="translate(24.581818, 24.581818) scale(1, -1) translate(-24.581818, -24.581818) "></path>
            <path d="M22.2181818,28.4518897 C23.5235821,28.4518897 24.5818182,29.5101257 24.5818182,30.8155261 C24.5818182,32.1209264 23.5235821,33.1791624 22.2181818,33.1791624 L11.8181818,33.1791624 C10.5127815,33.1791624 9.45454545,32.1209264 9.45454545,30.8155261 C9.45454545,29.5101257 10.5127815,28.4518897 11.8181818,28.4518897 L22.2181818,28.4518897 Z" id="矩形" transform="translate(17.018182, 30.815526) scale(1, -1) translate(-17.018182, -30.815526) "></path>
            <path d="M37.3454545,14.2700715 C38.6508549,14.2700715 39.7090909,15.3283076 39.7090909,16.6337079 C39.7090909,17.9391082 38.6508549,18.9973442 37.3454545,18.9973442 L11.8181818,18.9973442 C10.5127815,18.9973442 9.45454545,17.9391082 9.45454545,16.6337079 C9.45454545,15.3283076 10.5127815,14.2700715 11.8181818,14.2700715 L37.3454545,14.2700715 Z" id="矩形备份" transform="translate(24.581818, 16.633708) scale(1, -1) translate(-24.581818, -16.633708) "></path>
        </g>
        <g id="插件" transform="translate(39.000000, 35.000000)" fill="#60759C" fill-rule="nonzero">
            <path d="M20.4868024,6.73302233 C20.4868024,6.73302233 15.0753558,6.99345292 13.1548884,7.07973868 C11.9679271,7.13394106 11.3223418,6.12677002 12.3694011,5.08588059 C13.174015,4.28808438 13.4669917,4.0628221 13.3296194,2.57304313 C13.1721024,0.86707159 11.4540996,0.312553717 10.0440046,0.328410306 C8.56903331,0.345840214 6.95449938,1.12130145 6.47895596,2.52787961 C6.16620479,3.45030737 6.17530537,4.38023153 6.98426905,4.97250906 C7.42563134,5.29615006 8.40250828,5.7734519 7.30673777,6.64667487 C6.71541657,7.11833127 0.761329113,6.55884664 0.761329113,6.55884664 C0.761329113,6.55884664 0.499016709,11.6387548 0.685686397,13.0858382 C0.792394454,13.9173528 1.82840968,14.3064562 2.50725062,13.407073 C3.55437163,12.0210713 6.44943309,12.9253905 6.59590601,15.646338 C6.74990619,18.5009559 3.68455607,18.9408991 3.03020956,17.8274519 C2.41945324,16.786871 0.674704013,16.5280137 0.599092146,17.8551547 C0.482049542,19.9216014 1.45574899,26.4968105 1.45574899,26.4968105 C1.45574899,26.4968105 5.36933407,27.4155364 7.13320993,27.1329868 C7.9526007,27.0003035 8.32874737,25.5952678 7.56926612,24.9354301 C6.87065073,24.3291778 6.72414695,21.0882329 10.3701752,21.4604926 C13.2228805,21.7518034 12.7464116,24.2247526 12.0205253,24.6765112 C11.3222801,25.1095441 11.3555049,26.4590817 12.8066604,26.8425706 C14.7922817,27.3687378 20.8155027,26.0712431 20.8155027,26.0712431 C20.8155027,26.0712431 20.0196808,21.2199907 20.2860037,19.6479364 C20.5705276,17.9647317 22.5135459,18.9803555 22.7562998,19.301837 C24.3276137,21.3819809 27.5861736,20.244903 27.5861736,16.7531834 C27.5861736,11.668 22.9328818,12.5325235 22.4949746,13.754067 C22.0109784,15.099224 20.409247,14.7544203 20.2351947,13.9279033 C19.8261009,11.9972865 20.4868024,6.73296063 20.4868024,6.73296063 L20.4868024,6.73302233 Z" id="路径"></path>
        </g>
    </g>
</svg>