<?xml version="1.0" encoding="UTF-8"?>
<svg width="72px" height="72px" viewBox="0 0 72 72" version="1.1" xmlns="http://www.w3.org/2000/svg" xmlns:xlink="http://www.w3.org/1999/xlink">
    <!-- Generator: Sketch 63.1 (92452) - https://sketch.com -->
    <title>编码规则管理</title>
    <desc>Created with Sketch.</desc>
    <g id="编码规则管理" stroke="none" stroke-width="1" fill="none" fill-rule="evenodd">
        <path d="M51.1851852,8.5 C56.3296154,8.5 60.5,12.6703846 60.5,17.8148148 L60.5,24.5 C60.5,25.8807119 59.3807119,27 58,27 C56.6192881,27 55.5,25.8807119 55.5,24.5 L55.5,17.8148148 C55.5,15.4318084 53.5681916,13.5 51.1851852,13.5 L18.8148148,13.5 C16.4318084,13.5 14.5,15.4318084 14.5,17.8148148 L14.5,50.1851852 C14.5,52.5681916 16.4318084,54.5 18.8148148,54.5 L27.8020247,54.5 C29.1827366,54.5 30.3020247,55.6192881 30.3020247,57 C30.3020247,58.3807119 29.1827366,59.5 27.8020247,59.5 L18.8148148,59.5 C13.6703846,59.5 9.5,55.3296154 9.5,50.1851852 L9.5,17.8148148 C9.5,12.6703846 13.6703846,8.5 18.8148148,8.5 L51.1851852,8.5 Z M47.2277807,36.8561457 C47.4324059,35.7706954 48.4782187,35.0566456 49.563669,35.2612708 C50.6491192,35.465896 51.363169,36.5117089 51.1585438,37.5971591 L51.1585438,37.5971591 L47.430943,57.3705067 C47.2263178,58.455957 46.180505,59.1700068 45.0950547,58.9653816 C44.0096044,58.7607564 43.2955546,57.7149436 43.5001798,56.6294933 L43.5001798,56.6294933 Z M58.7568454,39.4022097 L65.8886542,44.7715889 C67.2123071,45.7681375 67.4774774,47.6490324 66.4809288,48.9726853 C66.3756329,49.1125432 66.2582971,49.2429159 66.1302647,49.3623109 L58.917919,56.0880939 C58.1100971,56.8414182 56.844538,56.7972391 56.0912137,55.9894171 C55.3378895,55.1815952 55.3820686,53.9160361 56.1898905,53.1627118 L62.5302811,47.2500597 L56.3509642,42.5977903 C55.468529,41.9334246 55.2917487,40.6794947 55.9561144,39.7970594 C56.6204802,38.9146242 57.8744101,38.7378439 58.7568454,39.4022097 Z M38.3245863,39.3157206 C39.2070216,38.6513548 40.4609515,38.8281351 41.1253172,39.7105703 C41.789683,40.5930056 41.6129027,41.8469355 40.7304675,42.5113013 L40.7304675,42.5113013 L34.5511506,47.1635706 L40.8915412,53.0762227 C41.6993631,53.829547 41.7435422,55.0951061 40.9902179,55.9029281 C40.2368937,56.71075 38.9713346,56.7549291 38.1635126,56.0016048 L38.1635126,56.0016048 L30.9511669,49.2758219 C30.8231346,49.1564269 30.7057987,49.0260541 30.6005028,48.8861962 C29.6039542,47.5625433 29.8691246,45.6816484 31.1927775,44.6850998 L31.1927775,44.6850998 Z M34.7370388,22.5421084 C35.4998327,23.2584674 35.5756414,24.4321507 34.9385712,25.2383248 L34.8257876,25.3691428 L27.6961391,32.9609402 C26.6359786,34.089821 24.9010164,34.2198364 23.6877098,33.2909993 L23.53885,33.1693755 L19.6863656,29.8136581 C18.8534651,29.0881578 18.7664001,27.8248245 19.4919003,26.991924 C20.1792164,26.2028604 21.3492414,26.0831893 22.178688,26.689649 L22.3136344,26.7974588 L25.4397745,29.5204919 L31.9100044,22.6308572 C32.6661611,21.8256859 33.9318675,21.7859517 34.7370388,22.5421084 Z M47.5,24 C48.8807119,24 50,25.1192881 50,26.5 C50,27.8807119 48.8807119,29 47.5,29 L43.5,29 C42.1192881,29 41,27.8807119 41,26.5 C41,25.1192881 42.1192881,24 43.5,24 L47.5,24 Z" id="形状结合" fill="#60759C" fill-rule="nonzero"></path>
    </g>
</svg>