<?xml version="1.0" encoding="UTF-8"?>
<svg width="72px" height="72px" viewBox="0 0 72 72" version="1.1" xmlns="http://www.w3.org/2000/svg" xmlns:xlink="http://www.w3.org/1999/xlink">
    <!-- Generator: Sketch 63.1 (92452) - https://sketch.com -->
    <title>系统管理工具</title>
    <desc>Created with Sketch.</desc>
    <g id="系统管理工具" stroke="none" stroke-width="1" fill="none" fill-rule="evenodd">
        <g id="编组-2" transform="translate(8.000000, 8.000000)" fill="#60759C">
            <path d="M8,0.5 L48,0.5 C52.1421356,0.5 55.5,3.85786438 55.5,8 L55.5,36 C55.5,40.1421356 52.1421356,43.5 48,43.5 L8,43.5 C3.85786438,43.5 0.5,40.1421356 0.5,36 L0.5,8 C0.5,3.85786438 3.85786438,0.5 8,0.5 Z M8,5.5 C6.61928813,5.5 5.5,6.61928813 5.5,8 L5.5,36 C5.5,37.3807119 6.61928813,38.5 8,38.5 L48,38.5 C49.3807119,38.5 50.5,37.3807119 50.5,36 L50.5,8 C50.5,6.61928813 49.3807119,5.5 48,5.5 L8,5.5 Z" id="Rectangle-5" fill-rule="nonzero"></path>
            <path d="M39.8147557,21.5036583 L38.8598714,18.1259152 L38.8598714,18.1259151 C38.7946813,17.8949144 38.6722029,17.684121 38.5037987,17.5130925 L38.5037987,17.5130925 C37.9571253,17.0058695 37.1118526,17.0058695 36.5651792,17.5130925 L34.1138839,20.0072473 L34.1138839,20.0072473 C34.0707397,20.0361279 34.0144344,20.0361279 33.97129,20.0072473 L31.5484312,19.3519748 L31.5484312,19.3519748 C31.4958131,19.3403825 31.452849,19.3025554 31.4346858,19.2518294 L30.7361393,16.857407 L30.7361393,16.857407 C30.7074422,16.8143571 30.7074422,16.7582754 30.7361393,16.7152251 L33.2587306,14.235079 C33.4277004,14.0640486 33.5501002,13.8534549 33.6152154,13.6222563 L33.6152154,13.6222562 C33.7017938,13.2700132 33.6507983,12.8980139 33.4726215,12.5820625 L33.4726215,12.5820625 C33.2987386,12.2793928 33.0198191,12.0510648 32.6887657,11.940389 L29.4536146,11.0708141 L29.4536146,11.0708141 C28.658792,10.8719058 27.8176394,11.0984477 27.2302207,11.6696281 L21.5293654,17.3704835 L21.5293651,17.3704837 C20.9429824,17.9609254 20.7197145,18.8212381 20.944979,19.622314 L21.6579485,22.3019251 L21.6579485,22.3019253 C21.8286874,22.8395954 21.6856591,23.427598 21.2870393,23.8267727 L18.0090286,27.019474 L18.0090285,27.0194741 C16.6636571,28.3934609 16.6636571,30.5909375 18.0090288,31.9649431 L18.8073077,32.7628076 L18.8073076,32.7628076 C20.1689997,34.128455 22.3799482,34.1316617 23.7456192,32.7699708 C23.7480103,32.7675866 23.7503981,32.7651988 23.7527823,32.7628077 L26.9879334,29.5276566 L26.9879333,29.5276567 C27.3608654,29.1551997 27.9009422,29.0040141 28.4130482,29.1287235 L31.2636878,29.8981516 L31.2636877,29.8981515 C31.9487481,30.0701679 32.6738146,29.8698897 33.1734564,29.3706383 L39.2164064,23.3990267 L39.2164064,23.3990267 C39.7412968,22.9202496 39.969622,22.1970573 39.814806,21.5036811 L39.8147557,21.5036583 Z M29.4107465,25.2518996 L29.4107465,25.2518997 C29.2169293,25.4430037 28.9559504,25.5505612 28.6837636,25.5515287 L28.6837636,25.5515287 C28.4153033,25.5530989 28.1578654,25.4448533 27.9712084,25.2518997 L25.5627727,22.8290408 L25.5627727,22.8290408 C25.1339249,22.4708199 25.0766687,21.8327755 25.4348914,21.4039259 C25.7931123,20.9750781 26.4311567,20.9178219 26.8600064,21.2760446 C26.9063655,21.3147689 26.9491638,21.3575672 26.9878881,21.4039263 L29.4111613,23.7414757 L29.4111613,23.7414757 C29.8282531,24.1368571 29.8458532,24.7954992 29.4504714,25.212591 C29.4377204,25.2260421 29.4246124,25.2391502 29.4111613,25.2519011 L29.4107465,25.2518996 Z" id="形状" fill-rule="nonzero"></path>
            <rect id="Rectangle-5" transform="translate(28.000000, 48.000000) scale(1, -1) translate(-28.000000, -48.000000) " x="8" y="46" width="40" height="4" rx="2"></rect>
            <rect id="Rectangle-5" transform="translate(26.500000, 54.000000) scale(1, -1) translate(-26.500000, -54.000000) " x="12" y="52" width="29" height="4" rx="2"></rect>
        </g>
    </g>
</svg>