<?xml version="1.0" encoding="UTF-8"?>
<svg width="72px" height="72px" viewBox="0 0 72 72" version="1.1" xmlns="http://www.w3.org/2000/svg" xmlns:xlink="http://www.w3.org/1999/xlink">
    <!-- Generator: Sketch 63.1 (92452) - https://sketch.com -->
    <title>交易管理</title>
    <desc>Created with Sketch.</desc>
    <g id="交易管理" stroke="none" stroke-width="1" fill="none" fill-rule="evenodd">
        <g id="编组" transform="translate(12.000000, 11.000000)" fill="#60759C" fill-rule="nonzero">
            <path d="M26.7257983,0.662162162 C27.7703862,0.662162162 28.7824359,1.02556866 29.5884149,1.69006968 L29.5884149,1.69006968 L44.5382923,14.0157111 C45.5751269,14.8705444 46.1756757,16.1440157 46.1756757,17.4878036 L46.1756757,17.4878036 L46.1756757,43.3243243 C46.1756757,46.9141752 43.2655265,49.8243243 39.6756757,49.8243243 L39.6756757,49.8243243 L7,49.8243243 C3.41014913,49.8243243 0.5,46.9141752 0.5,43.3243243 L0.5,43.3243243 L0.5,7.16216216 C0.5,3.57231129 3.41014913,0.662162162 7,0.662162162 L7,0.662162162 Z M24.905,5.66216216 L7,5.66216216 C6.17157288,5.66216216 5.5,6.33373504 5.5,7.16216216 L5.5,7.16216216 L5.5,43.3243243 C5.5,44.1527514 6.17157288,44.8243243 7,44.8243243 L7,44.8243243 L39.6756757,44.8243243 C40.5041028,44.8243243 41.1756757,44.1527514 41.1756757,43.3243243 L41.1756757,43.3243243 L41.175,21.9321622 L32.4054054,21.9324324 C28.3444881,21.9324324 25.0373879,18.704958 24.909259,14.6751635 L24.9054054,14.4324324 L24.905,5.66216216 Z M30.5,33 C31.8807119,33 33,34.1192881 33,35.5 C33,36.8807119 31.8807119,38 30.5,38 L13.5,38 C12.1192881,38 11,36.8807119 11,35.5 C11,34.1192881 12.1192881,33 13.5,33 L30.5,33 Z M18.3666677,16 C18.8182827,16 19.2323687,16.1683732 19.5452788,16.4449501 L19.5452788,16.4449501 L25.4122159,21.6946025 C25.7717836,22.0146631 26,22.4818607 26,22.9973455 C26,23.513083 25.77153,23.9800278 25.4122159,24.3000885 L25.4122159,24.3000885 L19.5452788,29.5494881 C19.2323687,29.8316268 18.8182827,30 18.3666677,30 C17.39193,30 16.6025548,29.2183036 16.6025548,28.2518013 C16.6025548,27.7337884 16.8307712,27.2696246 17.1903388,26.9493111 L17.1903388,26.9493111 L19.6487369,24.7506004 L11.7587879,24.7506004 C10.7870931,24.7506004 10,23.9689041 10,23.0026545 C10,22.0308431 10.7870931,21.2491468 11.7587879,21.2491468 L11.7587879,21.2491468 L19.6487369,21.2491468 L17.1903388,19.0506889 C16.8307712,18.7306282 16.6025548,18.2692454 16.6025548,17.7479459 C16.6025548,16.7816964 17.39193,16 18.3666677,16 Z M29.905,8.43116216 L29.9054054,14.4324324 C29.9054054,15.8131443 31.0246935,16.9324324 32.4054054,16.9324324 L32.4054054,16.9324324 L40.216,16.9321622 L29.905,8.43116216 Z" id="形状结合"></path>
        </g>
    </g>
</svg>