<?xml version="1.0" encoding="UTF-8"?>
<svg width="72px" height="72px" viewBox="0 0 72 72" version="1.1" xmlns="http://www.w3.org/2000/svg" xmlns:xlink="http://www.w3.org/1999/xlink">
    <!-- Generator: Sketch 63.1 (92452) - https://sketch.com -->
    <title>应用管理</title>
    <desc>Created with Sketch.</desc>
    <g id="应用管理" stroke="none" stroke-width="1" fill="none" fill-rule="evenodd">
        <g id="编组-2" transform="translate(9.000000, 9.000000)" fill="#60759C" fill-rule="nonzero">
            <path d="M18,28.5 C22.1421356,28.5 25.5,31.8578644 25.5,36 L25.5,46 C25.5,50.1421356 22.1421356,53.5 18,53.5 L8,53.5 C3.85786438,53.5 0.5,50.1421356 0.5,46 L0.5,36 C0.5,31.8578644 3.85786438,28.5 8,28.5 L18,28.5 Z M32.4626435,44.9011671 L37.2075326,49.6916086 L30,52 L32.4626435,44.9011671 Z M18,33.5 L8,33.5 C6.61928813,33.5 5.5,34.6192881 5.5,36 L5.5,46 C5.5,47.3807119 6.61928813,48.5 8,48.5 L18,48.5 C19.3807119,48.5 20.5,47.3807119 20.5,46 L20.5,36 C20.5,34.6192881 19.3807119,33.5 18,33.5 Z M47.5123751,32.5439077 C47.5169167,32.5484058 47.5214366,32.5529256 47.5259349,32.557467 L49.4574427,34.507518 C50.2295049,35.2869922 50.2295049,36.5429267 49.4574427,37.322401 L38.3922865,48.4937865 L33.6457193,43.7024978 L44.6839807,32.5575149 C45.4612628,31.7727178 46.7275781,31.7666257 47.5123751,32.5439077 Z M18,0.5 C22.1421356,0.5 25.5,3.85786438 25.5,8 L25.5,18 C25.5,22.1421356 22.1421356,25.5 18,25.5 L8,25.5 C3.85786438,25.5 0.5,22.1421356 0.5,18 L0.5,8 C0.5,3.85786438 3.85786438,0.5 8,0.5 L18,0.5 Z M46,0.5 C50.1421356,0.5 53.5,3.85786438 53.5,8 L53.5,18 C53.5,22.1421356 50.1421356,25.5 46,25.5 L36,25.5 C31.8578644,25.5 28.5,22.1421356 28.5,18 L28.5,8 C28.5,3.85786438 31.8578644,0.5 36,0.5 L46,0.5 Z M18,5.5 L8,5.5 C6.61928813,5.5 5.5,6.61928813 5.5,8 L5.5,18 C5.5,19.3807119 6.61928813,20.5 8,20.5 L18,20.5 C19.3807119,20.5 20.5,19.3807119 20.5,18 L20.5,8 C20.5,6.61928813 19.3807119,5.5 18,5.5 Z M46,5.5 L36,5.5 C34.6192881,5.5 33.5,6.61928813 33.5,8 L33.5,18 C33.5,19.3807119 34.6192881,20.5 36,20.5 L46,20.5 C47.3807119,20.5 48.5,19.3807119 48.5,18 L48.5,8 C48.5,6.61928813 47.3807119,5.5 46,5.5 Z" id="形状结合"></path>
        </g>
    </g>
</svg>