<?xml version="1.0" encoding="UTF-8"?>
<svg width="72px" height="72px" viewBox="0 0 72 72" version="1.1" xmlns="http://www.w3.org/2000/svg" xmlns:xlink="http://www.w3.org/1999/xlink">
    <!-- Generator: Sketch 63.1 (92452) - https://sketch.com -->
    <title>后台任务管理</title>
    <desc>Created with Sketch.</desc>
    <g id="后台任务管理" stroke="none" stroke-width="1" fill="none" fill-rule="evenodd">
        <g id="编组-2" transform="translate(8.000000, 9.000000)" fill="#60759C" fill-rule="nonzero">
            <path d="M45.5,48 C46.8807119,48 48,49.1192881 48,50.5 C48,51.8254834 46.9684641,52.9100387 45.6643757,52.9946823 L45.5,53 L10.5,53 C9.11928813,53 8,51.8807119 8,50.5 C8,49.1745166 9.03153594,48.0899613 10.3356243,48.0053177 L10.5,48 L45.5,48 Z M48,0.5 C52.1421356,0.5 55.5,3.85786438 55.5,8 L55.5,36 C55.5,40.1421356 52.1421356,43.5 48,43.5 L8,43.5 C3.85786438,43.5 0.5,40.1421356 0.5,36 L0.5,8 C0.5,3.85786438 3.85786438,0.5 8,0.5 L48,0.5 Z M48,5.5 L8,5.5 C6.61928813,5.5 5.5,6.61928813 5.5,8 L5.5,36 C5.5,37.3807119 6.61928813,38.5 8,38.5 L48,38.5 C49.3807119,38.5 50.5,37.3807119 50.5,36 L50.5,8 C50.5,6.61928813 49.3807119,5.5 48,5.5 Z M31.2506061,11.2848485 C32.85,11.85307 34.2209091,12.64858 35.4775757,13.785023 C34.5636364,14.8078217 34.4493939,16.5124861 35.2490909,17.8762177 C36.0487879,19.2399492 37.5339394,20.0354593 38.9048485,19.8081707 C39.0190909,20.4900365 39.1333333,21.2855466 39.1333333,22.0810566 C39.1333333,22.990211 39.0190909,23.8993654 38.7906061,24.6948755 C37.419697,24.5812312 36.0487879,25.2630969 35.2490909,26.6268285 C34.449394,27.9905601 34.5636364,29.4679359 35.3633333,30.6043789 C34.1066667,31.6271775 32.7357576,32.5363319 31.1363636,32.9909091 C30.5651515,31.7408218 29.3084848,30.9453118 27.7090909,30.9453118 C26.109697,30.9453118 24.8530303,31.7408218 24.2818182,32.9909091 C22.6824242,32.5363319 21.3115151,31.7408218 20.0548485,30.6043789 C20.8545455,29.4679359 20.8545455,27.9905601 20.1690909,26.6268285 C19.3693939,25.2630969 17.9984848,24.5812312 16.6275758,24.6948755 C16.3990909,23.8993654 16.2848485,23.1038553 16.2848485,22.1947009 C16.2848485,21.3991909 16.3990909,20.6036808 16.5133334,19.8081707 C17.8842424,20.0354593 19.3693939,19.3535935 20.1690909,17.989862 C20.9687879,16.6261304 20.8545455,15.0351103 19.9406061,13.8986673 C21.1972727,12.7622243 22.5681818,11.85307 24.1675758,11.2848485 C24.7387879,12.64858 25.9954545,13.5577344 27.7090909,13.5577344 C29.4227273,13.5577344 30.7936364,12.64858 31.2506061,11.2848485 Z M27.7090909,17.3079962 C24.9672727,17.3079962 22.7966667,19.4672378 22.7966667,22.1947009 C22.7966667,24.9221641 24.9672727,27.0814057 27.7090909,27.0814057 C30.4509091,27.0814057 32.6215152,24.9221641 32.6215152,22.1947009 C32.6215152,19.4672378 30.4509091,17.3079962 27.7090909,17.3079962 Z" id="形状结合"></path>
        </g>
    </g>
</svg>