<?xml version="1.0" encoding="UTF-8"?>
<svg width="72px" height="72px" viewBox="0 0 72 72" version="1.1" xmlns="http://www.w3.org/2000/svg" xmlns:xlink="http://www.w3.org/1999/xlink">
    <!-- Generator: Sketch 63.1 (92452) - https://sketch.com -->
    <title>预警管理</title>
    <desc>Created with Sketch.</desc>
    <g id="预警管理" stroke="none" stroke-width="1" fill="none" fill-rule="evenodd">
        <path d="M62.9920736,58.4036055 C63.6607032,58.4036055 64.2248582,58.9677606 64.2248582,59.6363901 L64.2248582,61.2661715 C64.1412798,61.4542231 63.9532282,61.6422748 63.7651776,61.6422748 L39.1304024,61.6422748 C38.9423507,61.6422748 38.754299,61.4542231 38.754299,61.2661715 L38.754299,59.6363901 C38.754299,58.9677606 39.3184541,58.4036055 39.9870836,58.4036055 L62.9920736,58.4036055 Z M52.7407407,7.5 C58.1306308,7.5 62.5,11.8693692 62.5,17.2592593 L62.5,22.0207933 C62.5,23.4015052 61.3807119,24.5207933 60,24.5207933 C58.6192881,24.5207933 57.5,23.4015052 57.5,22.0207933 L57.5,17.2592593 C57.5,14.6307929 55.3692071,12.5 52.7407407,12.5 L18.2592593,12.5 C15.6307929,12.5 13.5,14.6307929 13.5,17.2592593 L13.5,51.7407407 C13.5,54.3692071 15.6307929,56.5 18.2592593,56.5 L27.5294624,56.5 C28.9101742,56.5 30.0294624,57.6192881 30.0294624,59 C30.0294624,60.3807119 28.9101742,61.5 27.5294624,61.5 L18.2592593,61.5 C12.8693692,61.5 8.5,57.1306308 8.5,51.7407407 L8.5,17.2592593 C8.5,11.8693692 12.8693692,7.5 18.2592593,7.5 L52.7407407,7.5 Z M51.2492878,35.0225122 C57.1714,35.0225122 61.9805368,39.919738 62.1317157,46.0896565 L62.1353807,46.389179 L62.1353807,54.7052557 C62.1353807,55.3293062 61.716744,55.7895463 61.2022468,55.8481381 L61.0906477,55.8544591 L41.4079043,55.8544591 C40.8813595,55.8544591 40.4276198,55.4358258 40.3694614,54.8363875 L40.3631713,54.7052557 L40.3631713,46.389179 C40.3631713,40.0790262 45.2316337,35.0225122 51.2492878,35.0225122 Z M51.2492878,38.365652 C49.2643121,38.365652 47.3837952,39.1805427 45.9629589,40.6640628 C44.5734671,42.0932557 43.7873745,44.0127281 43.712239,46.0642151 L43.7062994,46.389179 L43.7062994,52.5113193 L45.148029,52.5113193 L45.148029,46.8697686 L48.2822239,46.8697686 L48.2822239,52.5113193 L58.7922369,52.5113193 L58.7922369,46.389179 C58.7922369,44.2161516 57.9982396,42.1893697 56.5356166,40.6640628 C55.114796,39.1805427 53.2342791,38.365652 51.2492878,38.365652 Z M34.065,19 C35.675,19.5497382 37.055,20.3193717 38.32,21.4188482 C37.4,22.408377 37.285,24.0575916 38.09,25.3769634 C38.895,26.6963351 40.39,27.4659686 41.77,27.2460733 C41.885,27.9057592 42,28.6753927 42,29.4450262 C42,30.3246073 41.885,31.2041885 41.655,31.973822 C40.4189827,31.8753458 39.1829653,32.3942813 38.3600947,33.4516296 C38.4007849,33.4401468 38.4493674,33.4345214 38.5035752,33.4345214 C38.5662593,33.4345214 38.6406963,33.4462746 38.691627,33.4697811 L38.7334163,33.4972053 L41.7004527,36.3806646 C41.7900013,36.4702141 41.8027939,36.6825719 41.7388307,36.8072087 L41.7004527,36.8612424 L39.9870942,38.5746009 C39.9453048,38.6163902 39.8408315,38.6372848 39.7572531,38.6372848 C39.694569,38.6372848 39.620132,38.6255317 39.5692013,38.6020252 L39.527412,38.5746009 L37.7184584,36.7667757 C37.8305043,37.092256 37.9940642,37.4030014 38.205,37.6910995 C36.94,38.6806283 35.56,39.5602094 33.95,40 C33.375,38.7905759 32.11,38.0209424 30.5,38.0209424 C28.89,38.0209424 27.625,38.7905759 27.05,40 C25.44,39.5602094 24.06,38.7905759 22.795,37.6910995 C23.6,36.5916231 23.6,35.1623037 22.91,33.8429319 C22.105,32.5235602 20.725,31.8638744 19.345,31.973822 C19.115,31.2041885 19,30.434555 19,29.5549738 C19,28.7853403 19.115,28.0157068 19.23,27.2460733 C20.61,27.4659686 22.105,26.8062827 22.91,25.486911 C23.715,24.1675393 23.6,22.6282723 22.68,21.5287958 C23.945,20.4293194 25.325,19.5497382 26.935,19 C27.51,20.3193717 28.775,21.1989529 30.5,21.1989529 C32.225,21.1989529 33.605,20.3193717 34.065,19 Z M64.412906,33.4345214 C64.4755929,33.4345214 64.5382767,33.4462746 64.5833308,33.4697811 L64.6218553,33.4972053 L66.3352139,35.2105638 C66.4247624,35.3001134 66.4375551,35.5124711 66.3735918,35.637108 L66.3352139,35.6911417 L63.3472802,38.6581782 C63.3054908,38.6999674 63.2219124,38.7208621 63.1174391,38.7208621 C63.054755,38.7208621 62.980318,38.7091089 62.9293873,38.6856024 L62.887598,38.6581782 L61.1742395,36.9448196 C61.0846909,36.8552701 61.0718983,36.6429123 61.1358615,36.5182755 L61.1742395,36.4642418 L64.1412759,33.4972053 C64.2248543,33.455416 64.3293276,33.4345214 64.412906,33.4345214 Z M30.5,24.8272251 C27.74,24.8272251 25.555,26.9162304 25.555,29.5549738 C25.555,32.1937173 27.74,34.2827225 30.5,34.2827225 C33.26,34.2827225 35.445,32.1937173 35.445,29.5549738 C35.445,26.9162304 33.26,24.8272251 30.5,24.8272251 Z M52.6910185,28.2526267 C52.8555638,28.2526267 53.0201091,28.3966037 53.0446766,28.5585779 L53.0462274,28.62873 L53.0462274,32.7449856 C53.0462274,32.9095309 52.9022504,33.0740761 52.7402761,33.1126414 L52.670124,33.121089 L50.288136,33.121089 C50.1235908,33.121089 49.9590455,32.9771119 49.9204802,32.8151377 L49.9120326,32.7449856 L49.9120326,28.5451646 C49.9120326,28.3806193 50.0560097,28.2800539 50.2179839,28.2574836 L50.288136,28.2526267 L52.6910185,28.2526267 Z" id="形状结合" fill="#60759C" fill-rule="nonzero"></path>
        <g id="预警" transform="translate(36.000000, 28.000000)"></g>
    </g>
</svg>