<?xml version="1.0" encoding="UTF-8"?>
<svg width="72px" height="72px" viewBox="0 0 72 72" version="1.1" xmlns="http://www.w3.org/2000/svg" xmlns:xlink="http://www.w3.org/1999/xlink">
    <!-- Generator: Sketch 63.1 (92452) - https://sketch.com -->
    <title>模板管理</title>
    <desc>Created with Sketch.</desc>
    <g id="模板管理" stroke="none" stroke-width="1" fill="none" fill-rule="evenodd">
        <g id="编组-2" transform="translate(9.000000, 9.000000)" fill="#60759C" fill-rule="nonzero">
            <path d="M18,28.5 C22.1421356,28.5 25.5,31.8578644 25.5,36 L25.5,46 C25.5,50.1421356 22.1421356,53.5 18,53.5 L8,53.5 C3.85786438,53.5 0.5,50.1421356 0.5,46 L0.5,36 C0.5,31.8578644 3.85786438,28.5 8,28.5 L18,28.5 Z M45.2506061,31.2848485 C46.85,31.85307 48.2209091,32.64858 49.4775757,33.785023 C48.5636364,34.8078217 48.4493939,36.5124861 49.2490909,37.8762177 C50.0487879,39.2399492 51.5339394,40.0354593 52.9048485,39.8081707 C53.0190909,40.4900365 53.1333333,41.2855466 53.1333333,42.0810566 C53.1333333,42.990211 53.0190909,43.8993654 52.7906061,44.6948755 C51.419697,44.5812312 50.0487879,45.2630969 49.2490909,46.6268285 C48.449394,47.9905601 48.5636364,49.4679359 49.3633333,50.6043789 C48.1066667,51.6271775 46.7357576,52.5363319 45.1363636,52.9909091 C44.5651515,51.7408218 43.3084848,50.9453118 41.7090909,50.9453118 C40.109697,50.9453118 38.8530303,51.7408218 38.2818182,52.9909091 C36.6824242,52.5363319 35.3115151,51.7408218 34.0548485,50.6043789 C34.8545455,49.4679359 34.8545455,47.9905601 34.1690909,46.6268285 C33.3693939,45.2630969 31.9984848,44.5812312 30.6275758,44.6948755 C30.3990909,43.8993654 30.2848485,43.1038553 30.2848485,42.1947009 C30.2848485,41.3991909 30.3990909,40.6036808 30.5133334,39.8081707 C31.8842424,40.0354593 33.3693939,39.3535935 34.1690909,37.989862 C34.9687879,36.6261304 34.8545455,35.0351103 33.9406061,33.8986673 C35.1972727,32.7622243 36.5681818,31.85307 38.1675758,31.2848485 C38.7387879,32.64858 39.9954545,33.5577344 41.7090909,33.5577344 C43.4227273,33.5577344 44.7936364,32.64858 45.2506061,31.2848485 Z M18,33.5 L8,33.5 C6.61928813,33.5 5.5,34.6192881 5.5,36 L5.5,46 C5.5,47.3807119 6.61928813,48.5 8,48.5 L18,48.5 C19.3807119,48.5 20.5,47.3807119 20.5,46 L20.5,36 C20.5,34.6192881 19.3807119,33.5 18,33.5 Z M41.7090909,37.3079962 C38.9672727,37.3079962 36.7966667,39.4672378 36.7966667,42.1947009 C36.7966667,44.9221641 38.9672727,47.0814057 41.7090909,47.0814057 C44.4509091,47.0814057 46.6215152,44.9221641 46.6215152,42.1947009 C46.6215152,39.4672378 44.4509091,37.3079962 41.7090909,37.3079962 Z M18,0.5 C22.1421356,0.5 25.5,3.85786438 25.5,8 L25.5,18 C25.5,22.1421356 22.1421356,25.5 18,25.5 L8,25.5 C3.85786438,25.5 0.5,22.1421356 0.5,18 L0.5,8 C0.5,3.85786438 3.85786438,0.5 8,0.5 L18,0.5 Z M46,0.5 C50.1421356,0.5 53.5,3.85786438 53.5,8 L53.5,18 C53.5,22.1421356 50.1421356,25.5 46,25.5 L36,25.5 C31.8578644,25.5 28.5,22.1421356 28.5,18 L28.5,8 C28.5,3.85786438 31.8578644,0.5 36,0.5 L46,0.5 Z M18,5.5 L8,5.5 C6.61928813,5.5 5.5,6.61928813 5.5,8 L5.5,18 C5.5,19.3807119 6.61928813,20.5 8,20.5 L18,20.5 C19.3807119,20.5 20.5,19.3807119 20.5,18 L20.5,8 C20.5,6.61928813 19.3807119,5.5 18,5.5 Z M46,5.5 L36,5.5 C34.6192881,5.5 33.5,6.61928813 33.5,8 L33.5,18 C33.5,19.3807119 34.6192881,20.5 36,20.5 L46,20.5 C47.3807119,20.5 48.5,19.3807119 48.5,18 L48.5,8 C48.5,6.61928813 47.3807119,5.5 46,5.5 Z" id="形状结合"></path>
        </g>
    </g>
</svg>