<?xml version="1.0" encoding="UTF-8"?>
<svg width="72px" height="72px" viewBox="0 0 72 72" version="1.1" xmlns="http://www.w3.org/2000/svg" xmlns:xlink="http://www.w3.org/1999/xlink">
    <title>报表订阅管理</title>
    <g id="报表订阅管理" stroke="none" stroke-width="1" fill="none" fill-rule="evenodd">
        <path d="M57,11.5 C61.0609173,11.5 64.3680175,14.7274744 64.4961464,18.7572689 L64.5,19 L64.5,33.0926594 L59.5,33.0926594 L59.5,19 C59.5,17.6745166 58.4684641,16.5899613 57.1643757,16.5053177 L57,16.5 L15,16.5 C13.6745166,16.5 12.5899613,17.5315359 12.5053177,18.8356243 L12.5,19 L12.5,53 C12.5,54.3254834 13.5315359,55.4100387 14.8356243,55.4946823 L15,55.5 L37,55.5 L37,60.5 L15,60.5 C10.9390827,60.5 7.63198248,57.2725256 7.50385357,53.2427311 L7.5,53 L7.5,19 C7.5,14.9390827 10.7274744,11.6319825 14.7572689,11.5038536 L15,11.5 L57,11.5 Z" id="路径" fill="#60759C" fill-rule="nonzero"></path>
        <polygon id="路径-11" fill="#60759C" fill-rule="nonzero" points="59.5910986 24.8173636 59.5910986 29.8173636 12 29.8173636 12 24.8173636"></polygon>
        <polygon id="路径-11备份" fill="#60759C" fill-rule="nonzero" points="37 35 37 40 12 40 12 35"></polygon>
        <polygon id="路径-11备份-2" fill="#60759C" fill-rule="nonzero" points="37 45 37 50 12 50 12 45"></polygon>
        <polygon id="直线" fill="#60759C" fill-rule="nonzero" points="29 27.5 29 57.5 24 57.5 24 27.5"></polygon>
        <polygon id="直线备份" fill="#60759C" fill-rule="nonzero" points="47.5 27.5 47.5 33.5 42.5 33.5 42.5 27.5"></polygon>
        <path d="M64.9947781,59.9999507 L65,59.477247 C65,47.0633775 54.9365886,37 42.5227071,37 L42,37.0052221 L42,40.6590741 C52.6817876,40.6590741 61.3409024,49.3183442 61.3409024,59.9999507 L64.9947535,59.9999507 L64.9947781,59.9999507 Z M56.6259221,60 L56.6363412,59.477247 C56.6363412,51.6824087 50.317573,45.3636296 42.5227071,45.3636296 L42,45.3740492 L42,49.0227038 C48.0626242,49.0227038 52.9772929,53.9373261 52.9772929,60 L56.6259467,60 L56.6259221,60 Z M42,56.8635311 C42,58.595794 43.4041488,59.9999507 45.1363412,59.9999507 C46.8686076,59.9999507 48.2726825,58.595794 48.2726825,56.8635311 C48.2726825,55.1314899 46.8686076,53.7272593 45.1363412,53.7272593 C43.4041488,53.7272593 42,55.1314899 42,56.8635311 Z" id="形状" fill="#60759C" fill-rule="nonzero"></path>
    </g>
</svg>