<?xml version="1.0" encoding="UTF-8"?>
<svg width="72px" height="72px" viewBox="0 0 72 72" version="1.1" xmlns="http://www.w3.org/2000/svg" xmlns:xlink="http://www.w3.org/1999/xlink">
    <title>数据分析平台</title>
    <g id="数据分析平台" stroke="none" stroke-width="1" fill="none" fill-rule="evenodd">
        <path d="M51.5769231,11.5 C56.7782374,11.5 60.8595964,16.1143657 60.9964534,21.7097285 L61,22 L61,50 C61,55.6281101 57.0067989,60.3378676 51.8449433,60.4959036 L51.5769231,60.5 L20.4230769,60.5 C15.9115948,60.5 12.1531715,56.9934981 11.2207433,52.2713935 C10.9532721,50.9168365 11.8345292,49.6019229 13.1890861,49.3344517 C14.543643,49.0669805 15.8585566,49.9482376 16.1260278,51.3027945 C16.6032274,53.7194808 18.3250577,55.3894953 20.2318232,55.4947234 L20.4230769,55.5 L51.5769231,55.5 C53.8709498,55.5 55.8910078,53.2354706 55.995738,50.2441055 L56,50 L56,22 C56,18.9704697 54.0403111,16.6262159 51.7622925,16.5049321 L51.5769231,16.5 L20.4230769,16.5 C18.4524195,16.5 16.6449051,18.1807731 16.137839,20.6383519 L16.092866,20.8785767 C15.8636642,22.2401317 14.574101,23.1580852 13.2125461,22.9288834 C11.8509912,22.6996816 10.9330376,21.4101185 11.1622394,20.0485636 C11.9666607,15.2699634 15.655449,11.6418371 20.1573377,11.5040611 L20.4230769,11.5 L51.5769231,11.5 Z" id="形状结合" fill="#60759C" fill-rule="nonzero" transform="translate(36.063579, 36.000000) scale(-1, 1) translate(-36.063579, -36.000000) "></path>
        <polygon id="路径" fill="#60759C" fill-rule="nonzero" points="30.0412632 17.9364271 36.6591103 41.0513507 40.6774453 35.0814507 59.9574725 34.9445311 60.0102066 40.0840435 43.4192294 40.1934495 34.7636403 53.0514663 28.782274 32.1589981 24.838632 40.207274 16 40.207274 16 35.0671458 21.6478179 35.0671458"></polygon>
    </g>
</svg>