<?xml version="1.0" encoding="UTF-8"?>
<svg width="72px" height="72px" viewBox="0 0 72 72" version="1.1" xmlns="http://www.w3.org/2000/svg" xmlns:xlink="http://www.w3.org/1999/xlink">
    <title>语义模型</title>
    <g id="语义模型" stroke="none" stroke-width="1" fill="none" fill-rule="evenodd">
        <path d="M25.4967608,7.5 C26.8774727,7.5 27.9967608,8.61928813 27.9967608,10 C27.9967608,11.3254834 26.9652249,12.4100387 25.6611365,12.4946823 L25.4967608,12.5 L18.2592593,12.5 C15.7018326,12.5 13.6155415,14.5171714 13.5046371,17.0472632 L13.5,17.2592593 L13.5,51.7407407 C13.5,54.2981674 15.5171714,56.3844585 18.0472632,56.4953629 L18.2592593,56.5 L52.7407407,56.5 C55.2981674,56.5 57.3844585,54.4828286 57.4953629,51.9527368 L57.5,51.7407407 L57.5,43.2249371 C57.5,41.8442252 58.6192881,40.7249371 60,40.7249371 C61.3254834,40.7249371 62.4100387,41.756473 62.4946823,43.0605614 L62.5,43.2249371 L62.5,51.7407407 C62.5,57.0392767 58.2774898,61.3515926 53.0139071,61.4962507 L52.7407407,61.5 L18.2592593,61.5 C12.9607233,61.5 8.64840738,57.2774898 8.50374931,52.0139071 L8.5,51.7407407 L8.5,17.2592593 C8.5,11.9607233 12.7225102,7.64840738 17.9860929,7.50374931 L18.2592593,7.5 L25.4967608,7.5 Z" id="路径" fill="#60759C" fill-rule="nonzero" transform="translate(35.500000, 34.500000) scale(1, -1) translate(-35.500000, -34.500000) "></path>
        <path d="M45.3191422,23.1976156 L45.3789829,23.2297029 L61.0988977,32.3379377 C61.6308519,32.6462116 61.9685655,33.2042308 61.9980537,33.8172608 L62,33.880866 L62,52.0956232 C62,52.7121283 61.6872559,53.2846738 61.1729061,53.616715 L61.1189829,53.6501981 L45.4011262,62.7576793 C44.8710857,63.0647951 44.2234183,63.0803013 43.6808574,62.8023842 L43.6210167,62.7702969 L27.9011023,53.6620194 C27.3691481,53.3537456 27.0314346,52.7957264 27.0019463,52.1826964 L27,52.1190912 L27,33.9043339 C27,33.2878287 27.3127442,32.7152831 27.8270943,32.3832419 L27.8810175,32.3497588 L43.5988738,23.2423207 C44.1289142,22.935205 44.7765813,22.9196987 45.3191422,23.1976156 Z M44,28 L31,35.7499176 L31,51.2500006 L44,59 L58,51.249959 L58,35.7499591 L44,28 Z M38.1962627,37.0758696 L38.2435883,37.0994787 L45.5170115,41.0256397 L52.7895925,37.2186457 C52.9852641,37.1162106 53.2056746,37.0995881 53.4038519,37.1555208 C53.5867848,37.207151 53.7507734,37.3206035 53.8588805,37.4854646 L53.8847217,37.5277449 L54.9013227,39.316453 C55.0080242,39.5042292 55.0253298,39.7157352 54.9670499,39.9059064 C54.913253,40.081449 54.795052,40.2388127 54.6232766,40.3425702 L54.5792229,40.3673723 L47.3717537,44.1402482 L47.3717963,51.2253589 C47.3717963,51.4308065 47.2867561,51.6278395 47.1353836,51.7731129 C46.995655,51.9072114 46.809972,51.9870674 46.6138579,51.9985594 L46.5646326,52 L44.4416815,52 C44.2187894,52 44.0169984,51.9132953 43.8709305,51.7731129 C43.7360986,51.6437137 43.6487467,51.4687476 43.6361057,51.2743484 L43.6345177,51.2253589 L43.6345177,44.1245503 L36.4114193,40.2256021 C36.2248389,40.1248707 36.0875969,39.9571314 36.0298858,39.7592864 C35.9769841,39.5779284 35.9948829,39.3848917 36.0790641,39.2160902 L36.1036626,39.1706813 L37.1443461,37.394915 C37.2492896,37.2158359 37.4240638,37.084103 37.6302167,37.0286987 C37.8191901,36.9779115 38.0203393,36.9950754 38.1962627,37.0758696 Z" id="形状" fill="#60759C" fill-rule="nonzero"></path>
    </g>
</svg>