<?xml version="1.0" encoding="UTF-8"?>
<svg width="72px" height="72px" viewBox="0 0 72 72" version="1.1" xmlns="http://www.w3.org/2000/svg" xmlns:xlink="http://www.w3.org/1999/xlink">
    <title>企业绩效管理基础数据</title>
    <g id="企业绩效管理基础数据" stroke="none" stroke-width="1" fill="none" fill-rule="evenodd">
        <rect id="Rectangle-5备份" fill="#60759C" transform="translate(24.000000, 59.500000) scale(1, -1) translate(-24.000000, -59.500000) " x="4" y="57" width="40" height="5" rx="2.5"></rect>
        <path d="M16.0045651,11 L16.0045651,12.4028396 L16,47.8125605 C16,50.6127962 18.2118335,52.8964306 20.9837358,53.011699 L21.2037037,53.0162642 L29.7962963,53.0162642 C32.5965321,53.0162642 34.8801665,50.8044307 34.9954349,48.0325283 L35,47.8125605 L35,35.1208118 C35,33.7400999 36.1192881,32.6208118 37.5,32.6208118 C38.8254834,32.6208118 39.9100387,33.6523477 39.9946823,34.9564361 L40,35.1208118 L40,47.8125605 C40,53.3539879 35.5826557,57.8636893 30.0771584,58.0124734 L29.7962963,58.0162642 L21.2037037,58.0162642 C15.6622763,58.0162642 11.1525748,53.5989199 11.0037908,48.0934226 L11,47.8125605 L11,11 L16.0045651,11 Z" id="路径" fill="#60759C" fill-rule="nonzero" transform="translate(25.500000, 34.508132) scale(1, -1) translate(-25.500000, -34.508132) "></path>
        <path d="M40.0045651,21 L40.0045651,22.4028396 L40,47.8125605 C40,50.6127962 42.2118335,52.8964306 44.9837358,53.011699 L45.2037037,53.0162642 L53.7962963,53.0162642 C56.5965321,53.0162642 58.8801665,50.8044307 58.9954349,48.0325283 L59,47.8125605 L59,45.1208118 C59,43.7400999 60.1192881,42.6208118 61.5,42.6208118 C62.8254834,42.6208118 63.9100387,43.6523477 63.9946823,44.9564361 L64,45.1208118 L64,47.8125605 C64,53.3539879 59.5826557,57.8636893 54.0771584,58.0124734 L53.7962963,58.0162642 L45.2037037,58.0162642 C39.6622763,58.0162642 35.1525748,53.5989199 35.0037908,48.0934226 L35,47.8125605 L35,21 L40.0045651,21 Z" id="路径备份" fill="#60759C" fill-rule="nonzero" transform="translate(49.500000, 39.508132) scale(1, -1) translate(-49.500000, -39.508132) "></path>
        <path d="M30.7636364,25 C32.0690367,25 33.1272727,26.058236 33.1272727,27.3636364 C33.1272727,28.6690367 32.0690367,29.7272727 30.7636364,29.7272727 L20.3636364,29.7272727 C19.058236,29.7272727 18,28.6690367 18,27.3636364 C18,26.058236 19.058236,25 20.3636364,25 L30.7636364,25 Z" id="矩形" fill="#60759C" fill-rule="nonzero" transform="translate(25.563636, 27.363636) scale(1, -1) translate(-25.563636, -27.363636) "></path>
        <path d="M30.7636364,34 C32.0690367,34 33.1272727,35.058236 33.1272727,36.3636364 C33.1272727,37.6690367 32.0690367,38.7272727 30.7636364,38.7272727 L20.3636364,38.7272727 C19.058236,38.7272727 18,37.6690367 18,36.3636364 C18,35.058236 19.058236,34 20.3636364,34 L30.7636364,34 Z" id="矩形备份" fill="#60759C" fill-rule="nonzero" transform="translate(25.563636, 36.363636) scale(1, -1) translate(-25.563636, -36.363636) "></path>
        <path d="M30.7636364,44 C32.0690367,44 33.1272727,45.058236 33.1272727,46.3636364 C33.1272727,47.6690367 32.0690367,48.7272727 30.7636364,48.7272727 L20.3636364,48.7272727 C19.058236,48.7272727 18,47.6690367 18,46.3636364 C18,45.058236 19.058236,44 20.3636364,44 L30.7636364,44 Z" id="矩形备份-2" fill="#60759C" fill-rule="nonzero" transform="translate(25.563636, 46.363636) scale(1, -1) translate(-25.563636, -46.363636) "></path>
        <path d="M63.0583333,54.6437609 C63.9041667,53.2013525 65.3541667,52.4801483 66.8041667,52.6003491 C67.0458333,51.7589442 67.1666667,50.7973386 67.1666667,49.835733 C67.1666667,48.9943281 67.0458333,48.1529232 66.925,47.431719 C65.475,47.6721204 63.9041666,46.8307155 63.0583333,45.3883072 C62.2125,43.9458988 62.3333333,42.1428883 63.3,41.061082 C61.9708333,39.859075 60.5208333,39.0176702 58.8291667,38.4166667 C58.3458333,39.859075 56.8958333,40.8206806 55.0833333,40.8206806 C53.2708333,40.8206806 51.9416667,39.859075 51.3375,38.4166667 C49.6458333,39.0176701 48.1958333,39.9792758 46.8666667,41.1812827 C47.8333333,42.3832897 47.9541667,44.0660995 47.1083333,45.5085078 C46.2625,46.9509162 44.6916667,47.6721204 43.2416667,47.431719 C43.1208333,48.2731239 43,49.1145288 43,49.9559337 C43,50.9175393 43.1208333,51.7589442 43.3625,52.6003491 C44.8125,52.4801483 46.2625,53.2013525 47.1083333,54.6437609 C47.8333333,56.0861693 47.8333333,57.6487784 46.9875,58.8507853 C48.3166667,60.0527923 49.7666667,60.8941972 51.4583333,61.375 C52.0625,60.0527923 53.3916667,59.2113874 55.0833333,59.2113874 C56.775,59.2113874 58.1041667,60.0527923 58.7083333,61.375 C60.4,60.8941972 61.85,59.9325916 63.1791667,58.8507853 C62.3333333,57.6487783 62.2125,56.0861693 63.0583333,54.6437609 Z M55.0833333,55.1245637 C52.1833333,55.1245637 49.8875,52.8407504 49.8875,49.9559337 C49.8875,47.0711169 52.1833333,44.7873037 55.0833333,44.7873037 C57.9833333,44.7873037 60.2791667,47.0711169 60.2791667,49.9559337 C60.2791667,52.8407504 57.9833333,55.1245637 55.0833333,55.1245637 Z" id="形状" fill="#60759C" fill-rule="nonzero"></path>
    </g>
</svg>