<?xml version="1.0" encoding="UTF-8"?>
<svg width="72px" height="72px" viewBox="0 0 72 72" version="1.1" xmlns="http://www.w3.org/2000/svg" xmlns:xlink="http://www.w3.org/1999/xlink">
    <title>默认10备份</title>
    <g id="默认10备份" stroke="none" stroke-width="1" fill="none" fill-rule="evenodd">
        <g id="编组-2" transform="translate(12.000000, 12.000000)">
            <rect id="矩形" fill="#60759C" x="10.1538462" y="17.4700855" width="8.30769231" height="4.44444444" rx="2.22222222"></rect>
            <rect id="矩形备份" stroke="#60759C" stroke-width="5" fill="#D8D8D8" x="12.6538462" y="34.1923077" width="23.4444444" height="1" rx="0.5"></rect>
            <path d="M34.3623734,20.3996952 C34.3048348,20.3864171 34.2229531,20.3067483 34.1211543,20.1629019 C34.0204618,20.0190555 33.9330476,19.7966462 33.8589114,19.4956763 C33.7847751,19.1958112 33.8290356,18.8317702 33.990586,18.4068703 L33.9905858,18.4068705 C34.6250518,17.7732655 35.1433861,17.0332151 35.5219967,16.2204073 C35.9291916,15.3650758 36.1350025,14.5053174 36.1350025,13.6422395 C36.1350025,12.3277054 35.7189538,11.2986509 34.8879664,10.5517566 C34.0558716,9.80375485 33.0445196,9.43196743 31.8461613,9.43196743 C30.6644085,9.43196743 29.674081,9.80154269 28.8696576,10.5406906 C28.0696508,11.2809459 27.6668802,12.3155321 27.6668802,13.6422472 C27.6668802,14.5174959 27.8616259,15.3850008 28.2466907,16.2403245 L28.2466907,16.2403246 C28.6033743,17.0524996 29.1038013,17.7935822 29.7238818,18.4278952 C29.8854322,18.7974704 29.9208407,19.1283161 29.8334263,19.4237543 C29.7449056,19.7191925 29.6386806,19.9471327 29.5158587,20.1120045 C29.3930361,20.2768744 29.2857045,20.3709279 29.1982912,20.3996963 C28.3540231,20.6995614 27.5606553,21.0392583 26.8248269,21.41658 L26.824827,21.4165799 C26.1315067,21.7638262 25.4877149,22.2021987 24.9105653,22.720048 C24.371694,23.2135507 24.1005998,23.6937778 24.1005998,24.1585121 L24.1005998,24.6918491 C24.1005998,26.322846 26.6898336,27.136131 31.8683012,27.136131 C37.0180081,27.136131 39.5917335,26.322846 39.5917335,24.6918491 L39.5917335,24.1585121 C39.5917335,23.6782876 39.3206393,23.1903166 38.781768,22.6890675 L38.7817679,22.6890674 C38.200334,22.1610598 37.5441017,21.7218314 36.8343109,21.3855993 L36.8343115,21.3855995 C36.0335318,21.0015351 35.2076611,20.6721495 34.3623686,20.399699 L34.3623734,20.3996952 Z" id="路径" fill="#60759C" fill-rule="nonzero"></path>
            <path d="M40,-2.5 L8,-2.5 C2.20101013,-2.5 -2.5,2.20101013 -2.5,8 L-2.5,40 C-2.5,45.7989899 2.20101013,50.5 8,50.5 L40,50.5 C45.7989899,50.5 50.5,45.7989899 50.5,40 L50.5,8 C50.5,2.20101013 45.7989899,-2.5 40,-2.5 Z M8,2.5 L40,2.5 C43.0375661,2.5 45.5,4.96243388 45.5,8 L45.5,40 C45.5,43.0375661 43.0375661,45.5 40,45.5 L8,45.5 C4.96243388,45.5 2.5,43.0375661 2.5,40 L2.5,8 C2.5,4.96243388 4.96243388,2.5 8,2.5 Z" id="Rectangle-5" fill="#60759C" fill-rule="nonzero"></path>
        </g>
    </g>
</svg>