<?xml version="1.0" encoding="UTF-8"?>
<svg width="72px" height="72px" viewBox="0 0 72 72" version="1.1" xmlns="http://www.w3.org/2000/svg" xmlns:xlink="http://www.w3.org/1999/xlink">
    <title>下载Excel客户端</title>
    <g id="下载Excel客户端" stroke="none" stroke-width="1" fill="none" fill-rule="evenodd">
        <path d="M18.278481,24.2027027 L10.3628692,24.2027027 C9.06329114,24.2027027 8,25.2615262 8,26.5556439 L8,49.8497615 C8,51.1438792 9.06329114,52.2027027 10.3628692,52.2027027 L18.278481,52.2027027 L20.6413502,52.2027027 L33.6371308,52.2027027 C34.9367089,52.2027027 36,51.1438792 36,49.8497615 L36,26.5556439 C36,25.2615262 34.9367089,24.2027027 33.6371308,24.2027027 L20.6413502,24.2027027 L18.278481,24.2027027 Z M24.5400844,32.5556439 L28.0843882,32.5556439 L23.9493671,38.4379968 L28.9113924,45.2615262 L25.2489451,45.2615262 L22.0590717,40.790938 L18.8691983,45.2615262 L15.2067511,45.2615262 L20.1687764,38.4379968 L15.9156118,32.5556439 L19.5780591,32.5556439 L21.9409283,36.3203498 L24.5400844,32.5556439 Z" id="形状" fill="#60759C" fill-rule="nonzero"></path>
        <path d="M42.068119,10 C43.0256579,10 43.9558556,10.3053624 44.7250481,10.8680911 L44.9307356,11.0279075 L61.768022,24.9096505 C62.7400545,25.7110567 63.3286326,26.8804065 63.3984078,28.1306918 L63.4054054,28.381743 L63.4054054,57.7972973 C63.4054054,61.3091079 60.6204092,64.1704479 57.1385395,64.2931943 L56.9054054,64.2972973 L22.5,64.2972973 C18.9881894,64.2972973 16.1268494,61.5123011 16.004103,58.0304314 L16,57.7972973 L16,51.4330751 L21,51.4330751 L21,57.7972973 C21,58.5769934 21.5948881,59.217746 22.35554,59.2904307 L22.5,59.2972973 L56.9054054,59.2972973 C57.6851015,59.2972973 58.3258541,58.7024092 58.3985388,57.9417573 L58.4054054,57.7972973 L58.405,28.6167027 L41.888,14.9997027 L22.5,15 C21.7203039,15 21.0795513,15.5948881 21.0068666,16.35554 L21,16.5 L21,25.1161791 L16,25.1161791 L16,16.5 C16,12.9881894 18.7849962,10.1268494 22.2668659,10.004103 L22.5,10 L42.068119,10 Z" id="路径" fill="#60759C" fill-rule="nonzero"></path>
        <path d="M45.2432432,11.2027027 L45.2432432,25.6621622 C45.2432432,26.9876456 46.2747792,28.0722008 47.5788676,28.1568445 L47.7432432,28.1621622 L63.5,28.1621622 L63.5,33.1621622 L47.7432432,33.1621622 C43.682326,33.1621622 40.3752257,29.9346878 40.2470968,25.9048932 L40.2432432,25.6621622 L40.2432432,11.2027027 L45.2432432,11.2027027 Z" id="路径-6" fill="#60759C" fill-rule="nonzero"></path>
        <path d="" id="矩形" stroke="#60759C" stroke-width="4" fill="#D8D8D8"></path>
        <rect id="矩形备份" stroke="#60759C" stroke-width="4" fill="#D8D8D8" x="42.5" y="40.2027027" width="5" height="1" rx="0.5"></rect>
    </g>
</svg>