<?xml version="1.0" encoding="UTF-8"?>
<svg width="72px" height="72px" viewBox="0 0 72 72" version="1.1" xmlns="http://www.w3.org/2000/svg" xmlns:xlink="http://www.w3.org/1999/xlink">
    <title>条码规则分配</title>
    <g id="条码规则分配" stroke="none" stroke-width="1" fill="none" fill-rule="evenodd">
        <path d="M53.5,11.5 C59.2989899,11.5 64,16.2010101 64,21.99978 L64,21.99978 L63.9999619,28 L58.9999619,28 L59,22 C59,19.0365209 56.65622,16.6204609 53.7212071,16.5043672 L53.5,16.5 L17.5,16.5 C14.4624339,16.5 12,18.9624339 12,22.0000117 L12,22.0000117 L11.999,27.738 L12.0546144,27.7914262 C14.1498896,29.8462429 15.404718,32.6432739 15.4947941,35.6519375 L15.4947941,35.6519375 L15.5,36 C15.5,39.1404719 14.2304772,42.0747257 12.0546144,44.2085738 L12.0546144,44.2085738 L11.999,44.26 L12,50 C12,52.9634791 14.34378,55.3795391 17.2787929,55.4956328 L17.2787929,55.4956328 L17.5,55.5 L34.9999619,55.5 L34.9999619,60.5 L17.5,60.5 C11.7960755,60.5 7.15438973,55.951858 7.00373621,50.2843063 L6.99996194,50.0000117 L6.99996194,41.89726 L7.97086688,41.1466373 C9.55628375,39.9209252 10.5,38.0409368 10.5,36 C10.5,33.9590632 9.55628375,32.0790748 7.97086688,30.8533627 L7.97086688,30.8533627 L6.99996194,30.10274 L6.99996194,22 C6.99996194,16.2010101 11.7010101,11.5 17.5,11.5 L17.5,11.5 Z" id="形状结合" fill="#60759C" fill-rule="nonzero"></path>
        <path d="M43.0330907,41.0670683 L43.1162651,42.9111814 L44.5746461,42.9111965 C46.0025686,42.9111965 47.3672422,43.3549856 48.5586214,44.1855113 C49.3998412,44.7719364 50.1562946,45.5551066 50.7763199,46.5147432 L50.8043986,46.5588539 L50.8306302,46.5180229 C51.4326682,45.5853642 52.1638083,44.818956 52.9764005,44.23783 L53.0504955,44.1855113 C54.215519,43.3733585 55.5463104,42.9310756 56.9409436,42.9118375 L56.9409436,42.9118375 L57.0315172,42.9111965 L57.9190037,42.9111856 L57.9191038,41.0749949 L64.6367627,45.1775651 L58.0640432,49.341607 L57.9751243,47.6368378 L57.0344708,47.6368524 C56.5652155,47.6368524 56.1201851,47.8026163 55.7262331,48.084489 C55.2560272,48.4209215 54.8593653,48.9141718 54.5530739,49.5161998 L54.5530739,49.5161998 L54.5169812,49.5884864 L53.4369003,51.7916164 L54.5181418,53.9971976 C54.8292888,54.6315299 55.2380789,55.149553 55.7262331,55.4988275 C56.104881,55.7697501 56.5305478,55.9334654 56.9797313,55.9457189 L56.9797313,55.9457189 L58.2459189,55.9461116 L58.2461219,54.0373881 L64.9652267,58.1410338 L58.3994977,62.2908341 L58.3066258,60.672086 L57.0344708,60.67212 C55.6065484,60.67212 54.2418748,60.2283309 53.0504955,59.3978052 C52.2092749,58.8113795 51.4528213,58.0282081 50.8328038,57.0685871 L50.8045369,57.0243286 L50.7784868,57.0652937 C50.1764487,57.9979523 49.4453087,58.7643605 48.6327165,59.3454865 L48.5586214,59.3978052 C47.3935992,60.2099571 46.0628094,60.6522409 44.6681458,60.6714791 L44.6681458,60.6714791 L44.5775509,60.6721201 L42.8392443,60.6720805 L42.8395635,62.2993455 L36.1165311,58.200739 L42.7124279,54.0257832 L42.7924743,55.9464278 L44.5746461,55.9464641 C45.0439015,55.9464641 45.4889319,55.7807002 45.8828838,55.4988275 C46.3530875,55.1623966 46.7497491,54.66915 47.0560223,54.0671591 L47.0560223,54.0671591 L47.0920967,53.9949093 L48.172082,51.7916164 L47.0909752,49.5861189 C46.7798282,48.9517866 46.371038,48.4337635 45.8828838,48.084489 C45.5042325,47.8135639 45.078561,47.6498501 44.6293547,47.6375975 L44.6293547,47.6375975 L43.1660275,47.6371305 L43.1660297,49.3434937 L36.448582,45.2410064 L43.0330907,41.0670683 Z" id="形状结合" fill="#60759C" fill-rule="nonzero"></path>
        <polygon id="路径" fill="#60759C" points="25.0869141 21 27.0869141 21 27.0869141 33 25.0869141 33"></polygon>
        <polygon id="路径" fill="#60759C" points="28.0869141 21 30.0869141 21 30.0869141 33 28.0869141 33"></polygon>
        <polygon id="路径" fill="#60759C" points="32.0869141 21 34.0869141 21 34.0869141 33 32.0869141 33"></polygon>
        <polygon id="路径" fill="#60759C" points="35.0869141 21 37.0869141 21 37.0869141 33 35.0869141 33"></polygon>
        <polygon id="路径" fill="#60759C" points="38.0869141 21 40.0869141 21 40.0869141 33 38.0869141 33"></polygon>
        <polygon id="路径" fill="#60759C" points="42.0869141 21 44.0869141 21 44.0869141 33 42.0869141 33"></polygon>
        <polygon id="路径" fill="#60759C" points="45.0869141 21 47.0869141 21 47.0869141 33 45.0869141 33"></polygon>
        <polygon id="路径" fill="#60759C" points="22.0869141 21 24.0869141 21 24.0869141 33 22.0869141 33"></polygon>
        <polygon id="路径" fill="#60759C" points="48.0869141 21 50.0869141 21 50.0869141 33 48.0869141 33"></polygon>
    </g>
</svg>