<?xml version="1.0" encoding="UTF-8"?>
<svg width="72px" height="72px" viewBox="0 0 72 72" version="1.1" xmlns="http://www.w3.org/2000/svg" xmlns:xlink="http://www.w3.org/1999/xlink">
    <title>条码字典</title>
    <g id="条码字典" stroke="none" stroke-width="1" fill="none" fill-rule="evenodd">
        <path d="M53,8.5 L19,8.5 C13.2010101,8.5 8.5,13.2010101 8.5,19 L8.5,53.5 C8.5,59.2989899 13.2010101,53.5 19,53.5 L53,53.5 C58.7989899,53.5 63.5,48.7989899 63.5,43 L63.5,19 C63.5,13.2010101 58.7989899,8.5 53,8.5 Z M19,13.5 L53,13.5 C56.0375661,13.5 58.5,15.9624339 58.5,19 L58.5,43 C58.5,46.0375661 56.0375661,48.5 53,48.5 L19,48.5 C15.9624339,48.5 13.5,46.0375661 13.5,43 L13.5,19 C13.5,15.9624339 15.9624339,13.5 19,13.5 Z" id="Rectangle-5" fill="#60759C" fill-rule="nonzero"></path>
        <path d="M8.5,54 C8.5,59.7989899 13.2010101,64.5 19,64.5 C36.1982035,64.8333333 49.3648702,64.8333333 58.5,64.5 C59.3289755,64.4697514 60.6486768,63.7241286 62.4591039,62.2631316 C63.5,53.9709855 60.242406,54.7635608 59.4082719,51.4847056 L8.5,54 Z M54.6131779,53.3289541 C54.6131779,56.3665203 58.3108437,59.5 55.2732776,59.5 L19,59.5 C15.9624339,59.5 13.5,57.0375661 13.5,54 L54.6131779,53.3289541 Z" id="Rectangle-5" fill="#60759C" fill-rule="nonzero"></path>
        <polygon id="路径" fill="#60759C" points="22.0869141 19 24.0869141 19 24.0869141 35 22.0869141 35"></polygon>
        <polygon id="路径" fill="#60759C" points="26.0869141 19 28.0869141 19 28.0869141 35 26.0869141 35"></polygon>
        <polygon id="路径" fill="#60759C" points="31.0869141 19 33.0869141 19 33.0869141 35 31.0869141 35"></polygon>
        <polygon id="路径" fill="#60759C" points="35.0869141 19 37.0869141 19 37.0869141 35 35.0869141 35"></polygon>
        <polygon id="路径" fill="#60759C" points="39.0869141 19 41.0869141 19 41.0869141 35 39.0869141 35"></polygon>
        <polygon id="路径" fill="#60759C" points="44.0869141 19 46.0869141 19 46.0869141 35 44.0869141 35"></polygon>
        <polygon id="路径" fill="#60759C" points="48.0869141 19 50.0869141 19 50.0869141 35 48.0869141 35"></polygon>
        <polygon id="路径" fill="#60759C" points="18.0869141 19 20.0869141 19 20.0869141 35 18.0869141 35"></polygon>
        <polygon id="路径" fill="#60759C" points="52.0869141 19 54.0869141 19 54.0869141 35 52.0869141 35"></polygon>
    </g>
</svg>