<?xml version="1.0" encoding="UTF-8"?>
<svg width="72px" height="72px" viewBox="0 0 72 72" version="1.1" xmlns="http://www.w3.org/2000/svg" xmlns:xlink="http://www.w3.org/1999/xlink">
    <title>条码规则</title>
    <g id="条码规则" stroke="none" stroke-width="1" fill="none" fill-rule="evenodd">
        <path d="M53.5,11.5 L17.5,11.5 C11.7010101,11.5 6.99996194,16.2010101 6.99996194,22 L6.99996194,30.10274 L7.97086688,30.8533627 C9.55628375,32.0790748 10.5,33.9590632 10.5,36 C10.5,38.0409368 9.55628375,39.9209252 7.97086688,41.1466373 L6.99996194,41.89726 L6.99996194,50.0000117 C6.99996194,55.7989899 11.7010101,60.5 17.5,60.5 L53.5,60.5 C59.2989899,60.5 64,55.7989899 64,50 L64.0007726,41.221395 L63.3058157,40.4960875 C62.1527413,39.2926552 61.5,37.7008762 61.5,36 C61.5,34.2991238 62.1527413,32.7073448 63.3058157,31.5039125 L64.0007726,30.778605 L64,21.99978 C64,16.2010101 59.2989899,11.5 53.5,11.5 Z M17.5,16.5 L53.5,16.5 C56.5375661,16.5 59,18.9624339 59,22 L59.000879,28.8391957 C57.397776,30.8509256 56.5,33.357364 56.5,36 L56.5055467,36.3594816 C56.5793815,38.7499485 57.3879506,41.0143878 58.786664,42.8834448 L59,43.16 L59,49.99978 C59,53.0375661 56.5375661,55.5 53.5,55.5 L17.5,55.5 L17.2787929,55.4956328 C14.34378,55.3795391 12,52.9634791 12,50 L11.999,44.26 L12.0546144,44.2085738 C14.2304772,42.0747257 15.5,39.1404719 15.5,36 L15.4947941,35.6519375 C15.404718,32.6432739 14.1498896,29.8462429 12.0546144,27.7914262 L11.999,27.738 L12,22.0000117 C12,18.9624339 14.4624339,16.5 17.5,16.5 Z" id="形状结合" fill="#60759C" fill-rule="nonzero"></path>
        <path d="M22,26 L27.0909091,26 L27.0909091,46 L22,46 L22,26 Z M35.3636364,26 L37.9090909,26 L37.9090909,46 L35.3636364,46 L35.3636364,26 Z M41.0909091,26 L46.1818182,26 L46.1818182,46 L41.0909091,46 L41.0909091,26 Z M48.7272727,26 L50,26 L50,46 L48.7272727,46 L48.7272727,26 Z M30.2727273,26 L31.5454546,26 L31.5454546,46 L30.2727273,46 L30.2727273,26 Z" id="形状" fill="#60759C" fill-rule="nonzero"></path>
    </g>
</svg>