<?xml version="1.0" encoding="UTF-8"?>
<svg width="72px" height="72px" viewBox="0 0 72 72" version="1.1" xmlns="http://www.w3.org/2000/svg" xmlns:xlink="http://www.w3.org/1999/xlink">
    <title>轻量级调度备份 13</title>
    <g id="轻量级调度备份-13" stroke="none" stroke-width="1" fill="none" fill-rule="evenodd">
        <path d="M56,9.5 L16,9.5 C11.8578644,9.5 8.5,12.8578644 8.5,17 L8.5,45 C8.5,49.1421356 11.8578644,52.5 16,52.5 L56,52.5 C60.1421356,52.5 63.5,49.1421356 63.5,45 L63.5,17 C63.5,12.8578644 60.1421356,9.5 56,9.5 Z M16,14.5 L56,14.5 C57.3807119,14.5 58.5,15.6192881 58.5,17 L58.5,45 C58.5,46.3807119 57.3807119,47.5 56,47.5 L16,47.5 C14.6192881,47.5 13.5,46.3807119 13.5,45 L13.5,17 C13.5,15.6192881 14.6192881,14.5 16,14.5 Z" id="Rectangle-5" fill="#60759C" fill-rule="nonzero"></path>
        <rect id="Rectangle-5" fill="#60759C" transform="translate(36.000000, 59.500000) scale(1, -1) translate(-36.000000, -59.500000) " x="16" y="57" width="40" height="5" rx="2.5"></rect>
        <path d="M38.0893702,24.0927565 C38.6700739,23.9220494 39.3115542,23.9805626 39.880421,24.3110867 C40.5837581,24.7312451 40.9973789,25.2519164 41.2066003,25.7718559 C41.4754949,26.44009 41.4284554,27.1351782 41.108416,27.7473008 L41.108416,27.7473008 L35.6948502,37.8155998 C35.4090922,38.3609318 34.9511694,38.7398394 34.4361003,38.9287945 C33.8975966,39.1263468 33.2938477,39.1179901 32.7397751,38.8688263 C31.8888574,38.3751134 31.4477415,37.8529253 31.2177019,37.3483919 C30.897179,36.6454063 30.943752,35.9337632 31.2710179,35.3070506 L31.2710179,35.3070506 L36.6924809,25.2251102 C37.01189,24.6454718 37.5236812,24.2590498 38.0893702,24.0927565 Z" id="路径" fill="#60759C"></path>
        <path d="M23.9292801,24.0040439 C24.5151248,23.9719266 25.113487,24.1615905 25.5872371,24.5809577 C26.1237729,25.1466533 26.3633123,25.720769 26.4197493,26.2752375 C26.4863465,26.9295256 26.2996209,27.5651478 25.8995254,28.0691086 L25.8995254,28.0691086 L22.6818217,31.529495 L25.7976242,34.8492946 C26.2440307,35.3399036 26.4669012,35.9600415 26.4663519,36.5799811 C26.4658036,37.1964877 26.2443031,37.8127981 25.8019627,38.3013284 C25.3545304,38.7820453 24.7883315,39.0277677 24.2166135,39.0607848 C23.6171561,39.095404 23.0060575,38.8960004 22.5195481,38.4533119 L22.5195481,38.4533119 L17.670674,33.2845043 C17.256787,32.8223794 17.0326027,32.2471329 17.0032985,31.6621244 C16.9731611,31.0604819 17.1491438,30.4485143 17.5368785,29.9386513 L17.5368785,29.9386513 L22.3442471,24.7595822 C22.7682725,24.2909717 23.342395,24.0362183 23.9292801,24.0040439 Z" id="路径" fill="#60759C"></path>
        <path d="M47.2476014,24.0039337 C47.8516283,23.9693392 48.4691662,24.170651 48.9502903,24.616456 L48.9502903,24.616456 L53.775403,29.7909023 C54.2225844,30.2424202 54.477686,30.8760551 54.4637747,31.5379648 C54.4679413,32.1232011 54.2738121,32.6852639 53.9290977,33.1295942 L53.9290977,33.1295942 L49.0944684,38.3032809 C48.6534563,38.781653 48.0881405,39.0290388 47.5182305,39.0631063 C46.9383586,39.0977694 46.345672,38.9116007 45.860974,38.4904831 C45.314972,37.9041304 45.0783682,37.3367849 45.0223043,36.789366 C44.9566343,36.1481518 45.1350703,35.5220813 45.5365186,35.0046209 L45.5365186,35.0046209 L48.759446,31.532202 L45.6674624,28.2145431 C45.2219002,27.7240152 44.9994514,27.1043525 45,26.4848876 C45.0005481,25.8682677 45.2220502,25.2518438 45.662039,24.7657859 C46.0859612,24.2941452 46.6603968,24.0375648 47.2476014,24.0039337 Z" id="路径" fill="#60759C"></path>
    </g>
</svg>