<?xml version="1.0" encoding="UTF-8"?>
<svg width="72px" height="72px" viewBox="0 0 72 72" version="1.1" xmlns="http://www.w3.org/2000/svg" xmlns:xlink="http://www.w3.org/1999/xlink">
    <title>动态建模平台</title>
    <defs>
        <linearGradient x1="43.1212151%" y1="0%" x2="43.1212151%" y2="100%" id="linearGradient-1">
            <stop stop-color="#00C0D0" offset="0%"></stop>
            <stop stop-color="#00DAD5" offset="100%"></stop>
        </linearGradient>
    </defs>
    <g id="动态建模平台" stroke="none" stroke-width="1" fill="none" fill-rule="evenodd" opacity="0.857500349">
        <g id="编组" transform="translate(6.000000, 6.000000)" fill="url(#linearGradient-1)">
            <path d="M30,0 C46.5685425,0 60,13.4314575 60,30 C60,46.5685425 46.5685425,60 30,60 C13.4314575,60 0,46.5685425 0,30 C0,13.4314575 13.4314575,0 30,0 Z M41,19 L23.7044445,22.128741 L23.5424892,22.1649992 C22.7987174,22.3641538 22.2293484,22.976464 22.0918138,23.7440679 L22.0918138,23.7440679 L19,41 L36.2955555,37.871259 L36.4575108,37.8350008 C37.2012826,37.6358462 37.7706516,37.023536 37.9081862,36.2559321 L37.9081862,36.2559321 L41,19 Z M36.873032,23.0480685 L35.0038849,33.4787602 L34.9678956,33.6407678 C34.7699788,34.3848346 34.1586546,34.9551995 33.3913207,35.0940328 L33.3913207,35.0940328 L23.1262233,36.9512904 L24.9953664,26.5199831 L25.0313566,26.3579653 C25.2292812,25.6138525 25.8406627,25.043464 26.6080526,24.9046683 L26.6080526,24.9046683 L36.873032,23.0480685 Z M30,27.5156217 C28.7661055,27.5156217 27.7658364,28.484394 27.7658364,29.6794351 C27.7658364,30.8744762 28.7661055,31.8432484 30,31.8432484 C31.2338945,31.8432484 32.2341636,30.8744762 32.2341636,29.6794351 C32.2341636,28.484394 31.2338945,27.5156217 30,27.5156217 Z" id="形状结合"></path>
        </g>
    </g>
</svg>