<?xml version="1.0" encoding="UTF-8"?>
<svg width="72px" height="72px" viewBox="0 0 72 72" version="1.1" xmlns="http://www.w3.org/2000/svg" xmlns:xlink="http://www.w3.org/1999/xlink">
    <title>工作中心</title>
    <g id="工作中心" stroke="none" stroke-width="1" fill="none" fill-rule="evenodd">
        <path d="M40.3485457,44.3843742 C40.3485457,44.2650148 40.3485457,44.1456554 40.313193,44.0262961 C40.3485457,42.8327022 39.4293748,41.7286279 38.0506186,41.4003896 C37.5556805,41.2213505 36.9900369,41.1019911 36.4243933,41.1019911 L28.6467939,41.1019911 L29.2477903,32.0605178 L40.4192511,32.0605178 C41.8333601,32.0605178 43,31.1056427 43,29.882209 C43,28.6886152 41.8333601,27.7039003 40.4192511,27.7039003 L29.5306121,27.7039003 L29.6013175,26.6296658 C29.7780811,24.1827984 27.5508595,22.0940092 24.6519361,21.94481 C21.7530127,21.7956107 19.278322,23.675521 19.1015584,26.1223884 L18.0056239,42.7133428 C17.9349185,44.0262961 18.5359148,45.2198899 19.5257911,46.0852454 C20.2328456,47.0102807 21.4348382,47.6369174 22.8489472,47.6369174 L32.9244736,47.6369174 L29.8841393,59.9010942 C29.5306121,61.3632466 30.6265465,62.7657194 32.3234773,63.0939577 C34.020408,63.422196 35.7173388,62.4673209 36.1062188,61.0350083 L39.924313,45.9062064 C40.2071348,45.4586087 40.3485457,44.9214914 40.3485457,44.3843742 Z" id="路径" fill="#60759C" fill-rule="nonzero"></path>
        <path d="M27.3780481,48.3621376 L15.3907117,48.3621376 L14.6750499,43.9630472 C15.6411934,43.5713474 16.2137229,42.6975554 16.0705905,41.763502 L14.0667373,29.409892 C13.8878218,28.2347925 12.5996304,27.4212621 11.2040898,27.5719159 C9.80854912,27.7225696 8.84240559,28.8072769 9.02132106,29.9823764 L11.0251743,42.3359864 C11.1325236,43.119386 11.7408362,43.7220011 12.5280642,43.9931779 L13.2437261,48.3621376 C12.420715,48.4826606 11.8124024,49.055145 11.8124024,49.7782831 C11.8124024,50.5616828 12.5638473,51.1944287 13.4942078,51.1944287 L17.2872157,51.1944287 L17.2872157,56.1057419 L23.1556431,56.1057419 L23.1556431,51.2245594 L27.3780481,51.2245594 C28.3084086,51.2245594 29.0956366,50.5918135 29.0956366,49.8084139 C29.0956366,49.0250142 28.3084086,48.3621376 27.3780481,48.3621376 Z M23.1914262,61.0773167 L21.9032348,61.0773167 L21.9032348,56.3166572 L18.8974549,56.3166572 L18.8974549,61.1074474 L17.4303481,61.1074474 C14.7823991,61.1074474 12.6354135,62.4030699 12.6354135,64 L27.9505776,64 C27.9863607,62.3729392 25.8393751,61.0773167 23.1914262,61.0773167 L23.1914262,61.0773167 Z M32.4950305,35.8578738 L43.1583925,35.8578738 L43.1583925,61.0471859 L40.4746604,61.0471859 L40.4746604,63.6685617 L50.1718788,63.6685617 L50.1718788,61.0471859 L47.3092313,61.0471859 L47.3092313,35.8578738 L56.5412695,35.8578738 L56.5412695,32.7845367 L32.4950305,32.7845367 L32.4950305,35.8578738 Z M62.44548,18.2012507 C61.9445167,18.0505969 61.3362041,18.3820352 61.0857224,18.9846504 L55.9329569,30.5548607 L44.0171867,30.5548607 C43.4804403,30.5548607 43.0152601,30.9164298 43.0152601,31.3985219 C43.0152601,31.8504832 43.4446572,32.2421831 44.0171867,32.2421831 L56.2907878,32.2421831 C56.7917512,32.3627061 57.3642807,32.0312678 57.6147623,31.4587834 L62.9106602,19.5872655 C63.1253587,18.9846504 62.9464433,18.3820352 62.44548,18.2012507 L62.44548,18.2012507 Z" id="形状" fill="#60759C" fill-rule="nonzero"></path>
        <path d="M26.4476877,20.5815804 C29.7755154,20.5815804 32.4592474,18.1256056 32.4592474,15.0815804 C32.4592474,12.0375553 29.7755154,9.58158044 26.4476877,9.58158044 C23.11986,9.58158044 20.4361279,12.0375553 20.4361279,15.0815804 C20.4361279,18.1256056 23.11986,20.5815804 26.4476877,20.5815804 L26.4476877,20.5815804 Z" id="路径" fill="#60759C" fill-rule="nonzero"></path>
    </g>
</svg>