<?xml version="1.0" encoding="UTF-8"?>
<svg width="72px" height="72px" viewBox="0 0 72 72" version="1.1" xmlns="http://www.w3.org/2000/svg" xmlns:xlink="http://www.w3.org/1999/xlink">
    <title>生成计划委托</title>
    <g id="生成计划委托" stroke="none" stroke-width="1" fill="none" fill-rule="evenodd">
        <path d="M30,7.5 C31.3807119,7.5 32.5,8.61928813 32.5,10 C32.5,11.3254834 31.4684641,12.4100387 30.1643757,12.4946823 L30,12.5 L17.7037037,12.5 C14.9034679,12.5 12.6198335,14.7118335 12.5045651,17.4837358 L12.5,17.7037037 L12.5,54.2962963 C12.5,57.0965321 14.7118335,59.3801665 17.4837358,59.4954349 L17.7037037,59.5 L54.2962963,59.5 C57.0965321,59.5 59.3801665,57.2881665 59.4954349,54.5162642 L59.5,54.2962963 L59.5,41.6045476 C59.5,40.2238358 60.6192881,39.1045476 62,39.1045476 C63.3254834,39.1045476 64.4100387,40.1360836 64.4946823,41.440172 L64.5,41.6045476 L64.5,54.2962963 C64.5,59.8377237 60.0826557,64.3474252 54.5771584,64.4962092 L54.2962963,64.5 L17.7037037,64.5 C12.1622763,64.5 7.65257485,60.0826557 7.50379075,54.5771584 L7.5,54.2962963 L7.5,17.7037037 C7.5,12.1622763 11.9173443,7.65257485 17.4228416,7.50379075 L17.7037037,7.5 L30,7.5 Z" id="路径" fill="#60759C" fill-rule="nonzero" transform="translate(36.000000, 36.000000) scale(1, -1) translate(-36.000000, -36.000000) "></path>
        <rect id="矩形" stroke="#60759C" stroke-width="4" fill="#D8D8D8" transform="translate(28.000000, 32.593345) scale(1, -1) translate(-28.000000, -32.593345) " x="22" y="32.0933449" width="12" height="1" rx="0.5"></rect>
        <rect id="矩形备份" stroke="#60759C" stroke-width="4" fill="#D8D8D8" transform="translate(36.000000, 21.593345) scale(1, -1) translate(-36.000000, -21.593345) " x="22" y="21.0933449" width="28" height="1" rx="0.5"></rect>
        <path d="M63.8480242,56.3634751 C61.9624548,55.9396244 59.6511118,55.2828178 58.2905567,55.1016297 C55.8319535,54.7716086 44.6561937,57.7482695 41.5413228,57.9876965 C38.4264519,58.2271236 34.9178203,54.9074997 32.6320877,53.6585963 C30.3463551,52.4064574 23.0089614,47.5240865 23.0089614,47.5240865 C23.0089614,47.5240865 22.6440125,44.0879846 26.5720152,45.0003958 C30.5000178,45.9128071 36.5504865,49.3294961 36.5504865,49.3294961 C36.5504865,49.3294961 40.9074642,50.6851709 43.9807181,49.7533467 C46.1063854,49.1062465 48.9331387,48.1485382 50.043992,47.0064064 C51.0812152,45.9386911 50.9659681,44.8612693 50.0920116,45.0003958 C48.2800723,45.2915909 41.2980235,45.9678106 39.4028503,45.3627719 C37.5044757,44.7577332 36.4416421,42.4508211 37.2643778,41.0336717 C37.2643778,41.0336717 39.7357861,40.8913096 45.4597215,39.5906383 C51.1868583,38.2899669 52.6082382,37.3872621 55.0828479,38.5067455 C57.1765021,39.4579827 62.058494,42.4605276 67.7472151,43.6253079 C69.1365819,51.6525857 64.3698371,56.3311201 63.8480242,56.3634751 L63.8480242,56.3634751 Z" id="路径" fill="#60759C" fill-rule="nonzero"></path>
    </g>
</svg>