<?xml version="1.0" encoding="UTF-8"?>
<svg width="72px" height="72px" viewBox="0 0 72 72" version="1.1" xmlns="http://www.w3.org/2000/svg" xmlns:xlink="http://www.w3.org/1999/xlink">
    <title>基础数据管理</title>
    <g id="基础数据管理" stroke="none" stroke-width="1" fill="none" fill-rule="evenodd">
        <path d="M50.8974471,8.91741728 C56.0221181,8.91741728 60.3431377,12.4834448 60.4958257,17.1501719 L60.5,17.4057974 L60.5,27.5933449 C60.5,28.9740567 59.3807119,30.0933449 58,30.0933449 C56.6745166,30.0933449 55.5899613,29.0618089 55.5053177,27.7577206 L55.5,27.5933449 L55.5,17.4057974 C55.5,15.6379603 53.642755,14.0184893 51.1344694,13.9219629 L50.8974471,13.9174173 L19.1025529,13.9174173 C16.5547552,13.9174173 14.6203042,15.4833174 14.5054043,17.2405393 L14.5,17.4057974 L14.5,55.937 L18.752,58.858 L27.2704756,54.9778871 C27.9028679,54.6897651 28.6237904,54.6789553 29.2609617,54.9420544 L29.4325298,55.0205972 L37.039,58.856 L39.6819359,57.2167655 C40.8062773,56.5191499 42.2685717,56.8215985 43.0291697,57.8806119 L43.1243133,58.0230146 C43.8219289,59.1473561 43.5194803,60.6096505 42.4604669,61.3702485 L42.3180641,61.4653921 L38.4842814,63.8441239 C37.797035,64.2705369 36.9497084,64.3362689 36.2094718,64.0295137 L36.0406706,63.9521064 L28.251,60.025 L19.5391583,63.9948166 C18.79784,64.332566 17.9425003,64.2865452 17.2451211,63.8805311 L17.0871153,63.7804559 L10.5844645,59.3135384 C9.9578412,58.8830871 9.56402016,58.193247 9.50714014,57.4418974 L9.5,57.2528931 L9.5,17.4057974 C9.5,12.6998599 13.7295076,9.04979776 18.8238427,8.92093902 L19.1025529,8.91741728 L50.8974471,8.91741728 Z" id="路径" fill="#60759C" fill-rule="nonzero"></path>
        <path d="M30.5,38.0933449 C31.8807119,38.0933449 33,39.212633 33,40.5933449 C33,41.9740567 31.8807119,43.0933449 30.5,43.0933449 L22.5,43.0933449 C21.1192881,43.0933449 20,41.9740567 20,40.5933449 C20,39.212633 21.1192881,38.0933449 22.5,38.0933449 L30.5,38.0933449 Z" id="矩形" fill="#60759C" fill-rule="nonzero" transform="translate(26.500000, 40.593345) scale(1, -1) translate(-26.500000, -40.593345) "></path>
        <path d="M42.5,25.0933449 C43.8807119,25.0933449 45,26.212633 45,27.5933449 C45,28.9740567 43.8807119,30.0933449 42.5,30.0933449 L22.5,30.0933449 C21.1192881,30.0933449 20,28.9740567 20,27.5933449 C20,26.212633 21.1192881,25.0933449 22.5,25.0933449 L42.5,25.0933449 Z" id="矩形备份" fill="#60759C" fill-rule="nonzero" transform="translate(32.500000, 27.593345) scale(1, -1) translate(-32.500000, -27.593345) "></path>
        <path d="M60.2490909,49.6268285 C61.0487879,48.2630969 62.419697,47.5812312 63.7906061,47.6948755 C64.0190909,46.8993654 64.1333333,45.990211 64.1333333,45.0810566 C64.1333333,44.2855466 64.0190909,43.4900365 63.9048485,42.8081707 C62.5339394,43.0354593 61.0487879,42.2399492 60.2490909,40.8762177 C59.4493939,39.5124861 59.5636364,37.8078217 60.4775757,36.785023 C59.2209091,35.64858 57.85,34.85307 56.2506061,34.2848485 C55.7936364,35.64858 54.4227273,36.5577344 52.7090909,36.5577344 C50.9954545,36.5577344 49.7387879,35.64858 49.1675758,34.2848485 C47.5681818,34.85307 46.1972727,35.7622243 44.9406061,36.8986673 C45.8545455,38.0351103 45.9687879,39.6261304 45.1690909,40.989862 C44.3693939,42.3535935 42.8842424,43.0354593 41.5133334,42.8081707 C41.3990909,43.6036808 41.2848485,44.3991909 41.2848485,45.1947009 C41.2848485,46.1038553 41.3990909,46.8993654 41.6275758,47.6948755 C42.9984848,47.5812312 44.3693939,48.2630969 45.1690909,49.6268285 C45.8545455,50.9905601 45.8545455,52.4679359 45.0548485,53.6043789 C46.3115151,54.7408218 47.6824242,55.5363319 49.2818182,55.9909091 C49.8530303,54.7408218 51.109697,53.9453118 52.7090909,53.9453118 C54.3084848,53.9453118 55.5651515,54.7408218 56.1363636,55.9909091 C57.7357576,55.5363319 59.1066667,54.6271775 60.3633333,53.6043789 C59.5636364,52.4679359 59.449394,50.9905601 60.2490909,49.6268285 Z M52.7090909,50.0814057 C49.9672727,50.0814057 47.7966667,47.9221641 47.7966667,45.1947009 C47.7966667,42.4672378 49.9672727,40.3079962 52.7090909,40.3079962 C55.4509091,40.3079962 57.6215152,42.4672378 57.6215152,45.1947009 C57.6215152,47.9221641 55.4509091,50.0814057 52.7090909,50.0814057 Z" id="形状" fill="#60759C" fill-rule="nonzero"></path>
    </g>
</svg>