<?xml version="1.0" encoding="UTF-8"?>
<svg width="72px" height="72px" viewBox="0 0 72 72" version="1.1" xmlns="http://www.w3.org/2000/svg" xmlns:xlink="http://www.w3.org/1999/xlink">
    <title>生成批次</title>
    <g id="生成批次" stroke="none" stroke-width="1" fill="none" fill-rule="evenodd">
        <path d="M46.499686,56.2107337 L44.644295,56.5934374 L41.3213314,61.5385164 L42.5740691,62.7686355 L47.626871,59.507453 L48.0146896,57.6950774 L51.1395587,54.6088452 L49.6245552,53.1217678 L46.499686,56.2107337 Z M53.6617746,55.5273341 L63.0224318,46.3861821 C64.3253907,45.115059 64.3253907,43.053926 63.0252219,41.7828029 C61.7250531,40.5089461 59.6213465,40.5089461 58.3239678,41.7828029 L48.9633106,50.9212213 L53.6617746,55.5273341 Z M61.270273,44.3715203 C61.5130084,44.1336972 61.8980369,44.1336972 62.1379823,44.3715203 C62.3779276,44.6038761 62.3779276,44.9865798 62.1351922,45.2162021 L54.8503409,52.3590939 C54.6103956,52.596917 54.219787,52.596917 53.9826317,52.3590939 C53.7398963,52.1240045 53.7398963,51.7413008 53.9826317,51.5062113 L61.270273,44.3715203 Z M59.4930037,42.6247511 C59.732949,42.3896616 60.1235577,42.3896616 60.3607129,42.6247511 C60.6034483,42.8625741 60.6034483,43.2398107 60.3607129,43.4776337 L53.0730716,50.6150583 C52.8303362,50.855615 52.4425176,50.855615 52.2053624,50.6150583 C51.965417,50.3799689 51.965417,49.9972652 52.2053624,49.7676429 L59.4930037,42.6247511 Z M57.7073642,53.1190342 L53.3883485,57.3506441 C55.3860328,59.4719162 57.0321692,61.235087 57.8636076,62.0469656 C59.1498261,63.3098879 61.2312122,63.3180887 62.5034804,62.0688344 C63.7785386,60.8195801 63.7673783,58.7830495 62.4811598,57.5201272 L57.7073642,53.1190342 Z M61.1391401,60.7321049 C60.6229787,61.235087 59.7887503,61.235087 59.2725888,60.7321049 C58.7592174,60.2291229 58.7564274,59.4090435 59.2725888,58.9033278 C59.7859602,58.4003457 60.6229787,58.4003457 61.1391401,58.9033278 C61.6553016,59.411777 61.6553016,60.2291229 61.1391401,60.7321049 Z M51.1841997,44.9729119 C51.1841997,41.6734589 48.4583094,39 45.0934949,39 C44.2676366,39 43.4780491,39.1612823 42.7610033,39.4537773 L46.0253755,42.6520871 C46.6140786,43.2288763 46.6140786,44.1747012 46.0253755,44.754224 L44.7865881,45.9734088 C44.1978851,46.550198 43.2325237,46.550198 42.6410306,45.9734088 L39.4185093,42.816103 C39.1534534,43.4858345 39,44.210238 39,44.9729119 C39,48.2668976 41.7286804,50.9403565 45.0934949,50.9403565 C48.4583094,50.9403565 51.1841997,48.2668976 51.1841997,44.9729119 Z" id="形状" fill="#60759C" fill-rule="nonzero"></path>
        <path d="M30,7.5 C31.3807119,7.5 32.5,8.61928813 32.5,10 C32.5,11.3254834 31.4684641,12.4100387 30.1643757,12.4946823 L30,12.5 L17.7037037,12.5 C14.9034679,12.5 12.6198335,14.7118335 12.5045651,17.4837358 L12.5,17.7037037 L12.5,54.2962963 C12.5,57.0965321 14.7118335,59.3801665 17.4837358,59.4954349 L17.7037037,59.5 L54.2962963,59.5 C57.0965321,59.5 59.3801665,57.2881665 59.4954349,54.5162642 L59.5,54.2962963 L59.5,41.6045476 C59.5,40.2238358 60.6192881,39.1045476 62,39.1045476 C63.3254834,39.1045476 64.4100387,40.1360836 64.4946823,41.440172 L64.5,41.6045476 L64.5,54.2962963 C64.5,59.8377237 60.0826557,64.3474252 54.5771584,64.4962092 L54.2962963,64.5 L17.7037037,64.5 C12.1622763,64.5 7.65257485,60.0826557 7.50379075,54.5771584 L7.5,54.2962963 L7.5,17.7037037 C7.5,12.1622763 11.9173443,7.65257485 17.4228416,7.50379075 L17.7037037,7.5 L30,7.5 Z" id="路径" fill="#60759C" fill-rule="nonzero" transform="translate(36.000000, 36.000000) scale(1, -1) translate(-36.000000, -36.000000) "></path>
        <path d="M22.1538461,16 L24,16 L24,33 L21.4615385,33 L21.4615385,19.453125 C20.5384616,20.25 19.3846154,21.046875 18,21.578125 L18,18.9218749 C18.6923077,18.6562499 19.3846154,18.3906249 20.0769231,17.859375 C21,17.328125 21.6923077,16.53125 22.1538461,16 L22.1538461,16 Z" id="路径" fill="#60759C"></path>
        <path d="M35.5,16 C36.9347826,16 38.3695653,16.53125 39.3260869,17.328125 C40.2826087,18.390625 40.7608696,19.4531251 40.7608696,21.046875 C40.7608696,22.640625 40.2826087,23.96875 39.3260869,25.0312501 C38.6086956,25.8281251 37.6521739,26.6250001 35.9782609,27.6875 C34.3043479,28.7499999 33.3478261,29.8125 33.1086956,30.6093751 L41,30.6093751 L41,33 L30,33 C30,31.140625 30.4782609,29.8124999 31.673913,28.484375 C32.1521739,27.6875 33.3478261,26.625 35.2608696,25.2968751 C36.2173913,24.5 36.9347826,23.96875 37.4130434,23.4375 C38.1304347,22.640625 38.3695652,21.578125 38.3695652,20.78125 C38.3695652,19.984375 38.1304347,19.1875 37.6521739,18.65625 C37.173913,18.125 36.4565217,18.125 35.5,18.125 C34.5434783,18.125 33.8260869,18.390625 33.3478261,19.1875 C32.8695652,19.71875 32.6304347,20.78125 32.6304347,22.109375 L30,22.109375 C30,20.25 30.4782609,18.65625 31.4347825,17.59375 C32.3913043,16.53125 33.8260869,16 35.5,16 L35.5,16 Z" id="路径" fill="#60759C"></path>
        <path d="M49.7708333,16 C51.6666666,16 53.0208333,16.5151515 54.1041667,17.2878788 C55.1875,18.0606061 55.7291667,19.0909091 55.7291667,20.6363636 C55.7291667,22.439394 54.6458333,23.7272728 52.75,24.2424243 C53.8333333,24.5 54.6458333,25.0151516 55.1875,25.530303 C55.7291667,26.0454545 56,27.0757576 56,27.8484849 C56,29.3939394 55.4583333,30.6818182 54.375,31.4545455 C53.2916666,32.4848486 51.6666666,33 49.7708333,33 C47.8749999,33 46.5208333,32.4848485 45.1666667,31.7121213 C43.8125,30.6818182 43.2708333,29.3939394 43,27.5909091 L45.9791667,27.5909091 C45.9791667,28.6212121 46.25,29.3939394 47.0625,30.1666667 C47.6041667,30.6818182 48.4166667,30.939394 49.5,30.939394 C50.5833334,30.939394 51.3958334,30.6818182 52.2083333,30.1666667 C52.75,29.6515152 53.0208333,28.8787879 53.0208333,28.1060606 C53.0208333,27.0757576 52.75,26.560606 52.2083333,26.0454545 C51.6666666,25.530303 50.8541666,25.2727272 49.5,25.2727273 L48.1458334,25.2727273 L48.1458334,23.2121212 L49.5,23.2121212 C50.5833334,23.2121212 51.3958334,22.9545455 51.9375,22.6969697 C52.4791666,22.1818182 52.75,21.6666667 52.75,20.8939394 C52.75,20.1212121 52.4791666,19.6060606 51.9375,19.090909 C51.3958333,18.5757575 50.5833333,18.5757575 49.5,18.5757576 C48.4166668,18.5757577 47.6041667,18.8333334 47.0625,19.3484848 C46.5208334,19.8636363 45.9791667,20.6363636 45.9791667,21.6666667 L43,21.6666667 C43.2708333,20.1212121 43.8125,18.8333333 44.8958333,17.8030303 C46.5208334,16.5151515 48.1458334,16 49.7708333,16 L49.7708333,16 Z" id="路径" fill="#60759C"></path>
    </g>
</svg>