<?xml version="1.0" encoding="UTF-8"?>
<svg width="72px" height="72px" viewBox="0 0 72 72" version="1.1" xmlns="http://www.w3.org/2000/svg" xmlns:xlink="http://www.w3.org/1999/xlink">
    <title>集成平台</title>
    <defs>
        <linearGradient x1="50%" y1="-2.48949813e-15%" x2="50%" y2="100%" id="linearGradient-1">
            <stop stop-color="#FD785E" offset="0%"></stop>
            <stop stop-color="#FF8C49" offset="100%"></stop>
        </linearGradient>
    </defs>
    <g id="集成平台" stroke="none" stroke-width="1" fill="none" fill-rule="evenodd">
        <g transform="translate(8.000000, 7.600917)" fill="url(#linearGradient-1)" id="形状结合">
            <path d="M0.0923644773,16.7198653 C0.324191064,16.2185921 0.918485909,16.0001624 1.41975917,16.231989 L1.41975917,16.231989 L26.2547679,27.7175714 C26.6085384,27.8811815 26.8350087,28.2354353 26.8350087,28.6252069 L26.8350087,28.6252069 L26.8350087,55.0062439 C26.8350087,55.1539302 26.8022967,55.299783 26.739223,55.4333231 C26.5033537,55.9327068 25.9073133,56.1463275 25.4079296,55.9104582 L25.4079296,55.9104582 L2.2916835,44.9921762 C0.892503257,44.3313144 1.16864277e-13,42.9227182 1.1401024e-13,41.3753192 L1.1401024e-13,41.3753192 L1.1401024e-13,17.1396245 C1.13992488e-13,16.994664 0.0315159981,16.8514366 0.0923644773,16.7198653 Z M55.9076355,16.7198653 C55.968484,16.8514366 56,16.994664 56,17.1396245 L56,41.3753192 C56,42.9227182 55.1074967,44.3313144 53.7083165,44.9921762 L30.5920704,55.9104582 C30.0926867,56.1463275 29.4966463,55.9327068 29.260777,55.4333231 C29.1977033,55.299783 29.1649913,55.1539302 29.1649913,55.0062439 L29.1649913,28.6252069 C29.1649913,28.2354353 29.3914616,27.8811815 29.7452321,27.7175714 L54.5802408,16.231989 C55.0815141,16.0001624 55.6758089,16.2185921 55.9076355,16.7198653 Z M25.8862915,0.392387521 C26.9971312,-0.152293016 28.297498,-0.152293016 29.4083378,0.392387521 L29.4083378,0.392387521 L53.3938673,12.1532659 C53.6018921,12.2552672 53.7680445,12.4263363 53.8639376,12.6372464 C54.0925238,13.1400056 53.8702627,13.7328781 53.3675035,13.9614643 L53.3675035,13.9614643 L28.0612066,25.4673116 C27.7982311,25.5868769 27.4963981,25.5868769 27.2334227,25.4673116 L27.2334227,25.4673116 L1.92712577,13.9614643 C1.71621565,13.8655712 1.54514656,13.6994189 1.4431453,13.4913941 C1.19999875,12.9955129 1.40488069,12.3964125 1.90076192,12.1532659 L1.90076192,12.1532659 Z"></path>
        </g>
    </g>
</svg>