<?xml version="1.0" encoding="UTF-8"?>
<svg width="72px" height="72px" viewBox="0 0 72 72" version="1.1" xmlns="http://www.w3.org/2000/svg" xmlns:xlink="http://www.w3.org/1999/xlink">
    <!-- Generator: Sketch 63.1 (92452) - https://sketch.com -->
    <title>归档数据包</title>
    <desc>Created with Sketch.</desc>
    <g id="归档数据包" stroke="none" stroke-width="1" fill="none" fill-rule="evenodd">
        <g id="编组-2" transform="translate(9.000000, 9.522367)" fill="#60759C" fill-rule="nonzero">
            <path d="M46,0.477633328 C48.209139,0.477633328 50,2.26849433 50,4.47763333 L50,4.47763333 L49.9998743,19.5931043 C52.0486191,20.393141 53.5,22.3861829 53.5,24.718213 L53.5,24.718213 L53.5,45.4776333 C53.5,49.619769 50.1421356,52.9776333 46,52.9776333 L46,52.9776333 L8,52.9776333 C3.85786438,52.9776333 0.5,49.619769 0.5,45.4776333 L0.5,45.4776333 L0.5,20.4776333 C0.5,16.6273331 3.40137396,13.4546851 7.13707309,13.0267381 L7.13774113,10.1463105 C7.13774113,8.48945622 8.48088688,7.14631047 10.1377411,7.14631047 L10.1377411,7.14631047 L10.999,7.14563333 L11,3.47763333 C11,1.87995244 12.24892,0.573972449 13.8237272,0.482726022 L14,0.477633328 Z M18.378121,17.9776333 L8,17.9776333 C6.61928813,17.9776333 5.5,19.0969215 5.5,20.4776333 L5.5,20.4776333 L5.5,45.4776333 C5.5,46.8583452 6.61928813,47.9776333 8,47.9776333 L8,47.9776333 L46,47.9776333 C47.3807119,47.9776333 48.5,46.8583452 48.5,45.4776333 L48.5,45.4776333 L48.5,24.718213 C48.5,24.4420707 48.2761424,24.218213 48,24.218213 L48,24.218213 L26.0203045,24.218213 L18.698922,18.0941145 C18.6089596,18.0188638 18.4954065,17.9776333 18.378121,17.9776333 L18.378121,17.9776333 Z M45.999,19.2176333 L46,4.47763333 L15,4.47763333 L14.999,7.14563333 L39.2738662,7.14631047 C41.4160616,7.14631047 43.1649451,8.83027894 43.2689709,10.9466701 L43.2738662,11.1463105 L43.273,19.2176333 L45.999,19.2176333 Z M39.2738662,11.1463105 L11.1377411,11.1463105 L11.137,12.9776333 L18.378121,12.9776333 C19.5761092,12.9776333 20.7386956,13.3686921 21.6909858,14.0873064 L21.9069324,14.2589262 L27.8357782,19.218213 L39.273,19.2176333 L39.2738662,11.1463105 Z" id="形状结合"></path>
        </g>
    </g>
</svg>