<?xml version="1.0" encoding="UTF-8"?>
<svg width="72px" height="72px" viewBox="0 0 72 72" version="1.1" xmlns="http://www.w3.org/2000/svg" xmlns:xlink="http://www.w3.org/1999/xlink">
    <!-- Generator: Sketch 63.1 (92452) - https://sketch.com -->
    <title>供应链实施工具</title>
    <desc>Created with Sketch.</desc>
    <g id="供应链实施工具" stroke="none" stroke-width="1" fill="none" fill-rule="evenodd">
        <g id="编组-2备份" transform="translate(8.000000, 7.000000)" fill="#60759C" fill-rule="nonzero">
            <path d="M39,52 C40.1045695,52 41,52.8954305 41,54 C41,55.0543618 40.1841222,55.9181651 39.1492623,55.9945143 L39,56 L14,56 C12.8954305,56 12,55.1045695 12,54 C12,52.9456382 12.8158778,52.0818349 13.8507377,52.0054857 L14,52 L39,52 Z M46,46 C47.1045695,46 48,46.8954305 48,48 C48,49.0543618 47.1841222,49.9181651 46.1492623,49.9945143 L46,50 L10,50 C8.8954305,50 8,49.1045695 8,48 C8,46.9456382 8.81587779,46.0818349 9.85073766,46.0054857 L10,46 L46,46 Z M48,0.5 C52.1421356,0.5 55.5,3.85786438 55.5,8 L55.5,36 C55.5,40.1421356 52.1421356,43.5 48,43.5 L8,43.5 C3.85786438,43.5 0.5,40.1421356 0.5,36 L0.5,8 C0.5,3.85786438 3.85786438,0.5 8,0.5 L48,0.5 Z M48,5.5 L8,5.5 C6.61928813,5.5 5.5,6.61928813 5.5,8 L5.5,36 C5.5,37.3807119 6.61928813,38.5 8,38.5 L48,38.5 C49.3807119,38.5 50.5,37.3807119 50.5,36 L50.5,8 C50.5,6.61928813 49.3807119,5.5 48,5.5 Z M45.4400052,27.5880747 L45.4400052,27.9800602 C45.4012122,30.4731408 43.7937179,32.6750708 41.4150754,33.5324852 L41.1746702,33.613706 L41.0933175,33.7702117 C40.6885238,34.4829634 39.9379436,34.9453319 39.1049927,34.9950453 L38.9253385,34.9993229 L38.7626751,34.9977799 C37.5791592,34.9475008 36.6110453,34.0490347 36.4992221,32.8971565 L36.4893413,32.7385674 L36.4992212,32.5799809 C36.6110381,31.4281016 37.5791586,30.5296349 38.7626751,30.4793574 L38.9253387,30.4778147 L39.1046038,30.4820345 C39.8767352,30.5277637 40.5824747,30.9271423 41.0071056,31.5586628 L41.1000096,31.7084638 L41.2970298,31.6089222 C42.5203682,30.9513635 43.3412061,29.7534708 43.4974922,28.3986735 L43.5173417,28.1714869 L45.4400052,27.5880747 Z M34.4453403,22.7748554 L34.6080039,22.7763984 C35.7915198,22.8266775 36.7596336,23.7251436 36.8714569,24.8770218 L36.8813377,25.035611 L36.871029,25.191572 C36.7573489,26.3244006 35.815062,27.2123792 34.6518971,27.2827915 L34.4919717,27.2872718 L34.45619,27.5168463 L34.4343962,27.7479858 L34.4343962,27.7479858 L34.4266477,27.9800816 L34.4328208,28.2181202 C34.4942732,29.3245925 35.0099723,30.360906 35.8627907,31.0917014 L36.0506548,31.2435383 L35.5653214,33.0667243 C33.7686981,32.064071 32.6257058,30.2387323 32.5209862,28.231797 L32.5133318,27.9800306 L32.5191819,27.6926626 C32.5324818,27.4056531 32.5680968,27.1200459 32.6257187,26.8383106 L32.6906648,26.5579574 L32.555381,26.4195632 C32.2554234,26.0846539 32.0665994,25.6684489 32.0140865,25.226446 L32,25.0355985 C32.036613,23.7505281 33.1314158,22.7391415 34.4453403,22.7748554 Z M20.2302207,8.6696281 C20.8176394,8.09844772 21.658792,7.87190577 22.4536146,8.07081415 L22.4536146,8.07081415 L25.6887657,8.94038905 C26.0198191,9.05106479 26.2987386,9.27939283 26.4726215,9.58206254 L26.4726215,9.58206254 L26.5411661,9.72068074 C26.6625608,10.0038962 26.6894255,10.3203336 26.6152154,10.6222562 L26.6152154,10.6222562 L26.5693578,10.7583512 C26.4992775,10.9361098 26.3939065,11.0982547 26.2587306,11.235079 L26.2587306,11.235079 L23.7361393,13.7152251 C23.7074422,13.7582754 23.7074422,13.8143571 23.7361393,13.857407 L23.7361393,13.857407 L24.4346858,16.2518294 C24.452849,16.3025554 24.4958131,16.3403825 24.5484312,16.3519748 L24.5484312,16.3519748 L26.97129,17.0072473 C27.0144344,17.0361279 27.0707397,17.0361279 27.1138839,17.0072473 L27.1138839,17.0072473 L29.5651792,14.5130925 C30.1118526,14.0058695 30.9571253,14.0058695 31.5037987,14.5130925 L31.5037987,14.5130925 L31.5992392,14.6203249 C31.7189028,14.7692466 31.8077193,14.9411145 31.8598714,15.1259151 L31.8598714,15.1259151 L32.814806,18.5036811 C32.969622,19.1970573 32.7412968,19.9202496 32.2164064,20.3990267 L32.2164064,20.3990267 L26.1734564,26.3706383 C25.6738146,26.8698897 24.9487481,27.0701679 24.2636877,26.8981515 L24.2636877,26.8981515 L21.4130482,26.1287235 C20.9009422,26.0040141 20.3608654,26.1551997 19.9879333,26.5276567 L19.9879333,26.5276567 L16.7527823,29.7628077 C16.7503981,29.7651988 16.7480103,29.7675866 16.7456192,29.7699708 C15.3799482,31.1316617 13.1689997,31.128455 11.8073076,29.7628076 L11.8073076,29.7628076 L11.0090288,28.9649431 C9.66365713,27.5909375 9.66365713,25.3934609 11.0090285,24.0194741 L11.0090285,24.0194741 L14.2870393,20.8267727 C14.6856591,20.427598 14.8286874,19.8395954 14.6579485,19.3019253 L14.6579485,19.3019253 L13.944979,16.622314 C13.7197145,15.8212381 13.9429824,14.9609254 14.5293651,14.3704837 L14.5293651,14.3704837 Z M38.972001,22.0000062 L39.270665,22.006923 C40.3543551,22.0557404 41.4095072,22.3619082 42.344532,22.8986598 L42.621344,23.0665761 L42.8024667,23.0083782 C42.9855,22.9568942 43.1738714,22.9256171 43.3640407,22.9151347 L43.554678,22.9116057 C44.8155945,22.8782727 45.8728749,23.8064885 45.9901012,25.0134146 L46,25.1723642 L45.9997039,25.1911106 L45.9992531,25.2098564 C45.9645866,26.4397128 44.9579707,27.4201155 43.7177025,27.4685894 L43.554664,27.469571 L43.5354715,27.4700113 L43.5162758,27.4703003 C42.2566921,27.4843038 41.2145176,26.5400088 41.1166875,25.33143 L41.1093422,25.1723475 L41.1161678,25.003841 C41.1297923,24.8359193 41.163735,24.6701593 41.2172842,24.5100364 L41.2773426,24.3519213 L41.0394793,24.2301534 C40.4771448,23.9621342 39.8653089,23.8072949 39.2404766,23.7748743 L38.9720021,23.7685018 L38.6680565,23.7785115 C38.3648164,23.7979648 38.0641709,23.8456815 37.7702283,23.9210096 L37.478672,24.0055174 L36.3586707,22.510505 C37.1863759,22.1723489 38.0748055,21.9988004 38.972001,22.0000062 Z M19.8600064,18.2760446 C19.4311567,17.9178219 18.7931123,17.9750781 18.4348914,18.4039259 C18.0766687,18.8327755 18.1339249,19.4708199 18.5627727,19.8290408 L18.5627727,19.8290408 L20.9712084,22.2518997 C21.1578654,22.4448533 21.4153033,22.5530989 21.6837636,22.5515287 L21.6837636,22.5515287 L21.8186639,22.5422691 C22.0410777,22.512388 22.2492321,22.411153 22.4107465,22.2518997 L22.4107465,22.2518997 C22.4246124,22.2391502 22.4377204,22.2260421 22.4504714,22.212591 C22.8458532,21.7954992 22.8282531,21.1368571 22.4111613,20.7414757 L22.4111613,20.7414757 L19.9878881,18.4039263 C19.9491638,18.3575672 19.9063655,18.3147689 19.8600064,18.2760446 Z" id="形状结合"></path>
        </g>
    </g>
</svg>