<?xml version="1.0" encoding="UTF-8"?>
<svg width="72px" height="72px" viewBox="0 0 72 72" version="1.1" xmlns="http://www.w3.org/2000/svg" xmlns:xlink="http://www.w3.org/1999/xlink">
    <!-- Generator: Sketch 63.1 (92452) - https://sketch.com -->
    <title>归档执行</title>
    <desc>Created with Sketch.</desc>
    <g id="归档执行" stroke="none" stroke-width="1" fill="none" fill-rule="evenodd">
        <g id="编组" transform="translate(7.000000, 8.000000)" fill="#60759C" fill-rule="nonzero">
            <path d="M44.8801347,0.5 C50.2834135,0.5 54.6636364,4.8802229 54.6636364,10.2835017 L54.6636364,22.2829731 C54.6636364,23.663685 53.5443482,24.7829731 52.1636364,24.7829731 C50.7829245,24.7829731 49.6636364,23.663685 49.6636364,22.2829731 L49.6636364,10.2835017 C49.6636364,7.64164665 47.5219897,5.5 44.8801347,5.5 L10.2835017,5.5 C7.64164665,5.5 5.5,7.64164665 5.5,10.2835017 L5.5,44.8801347 C5.5,47.5219897 7.64164665,49.6636364 10.2835017,49.6636364 L21.9090909,49.6636364 C23.2898028,49.6636364 24.4090909,50.7829245 24.4090909,52.1636364 C24.4090909,53.5443482 23.2898028,54.6636364 21.9090909,54.6636364 L10.2835017,54.6636364 C4.8802229,54.6636364 0.5,50.2834135 0.5,44.8801347 L0.5,10.2835017 C0.5,4.8802229 4.8802229,0.5 10.2835017,0.5 L44.8801347,0.5 Z M57.079325,34.1776355 C58.0420298,35.0817359 58.1293292,36.5685916 57.3079086,37.5769856 L57.190261,37.7114285 L43.7628011,52.0092658 C42.5204255,53.3321731 40.4837365,53.4793092 39.0673789,52.3797478 L38.9126305,52.2524403 L31.357957,45.6719208 C30.3168314,44.7650454 30.2080001,43.1858787 31.1148754,42.1447531 C31.9823214,41.1488939 33.4648695,41.0060222 34.5032923,41.7891368 L34.642043,41.9016716 L41.1072001,47.5331648 L53.5455319,34.2885715 C54.4907278,33.2821074 56.0728608,33.2324396 57.079325,34.1776355 Z M27,25 L27,36 L13,36 L13,25 L27,25 Z M23,29 L17,29 L17,32 L23,32 L23,29 Z M18,18 L18,23 L13,23 L13,18 L18,18 Z M27,18 L27,23 L22,23 L22,18 L27,18 Z M18,11 L18,16 L13,16 L13,11 L18,11 Z M27,11 L27,16 L22,16 L22,11 L27,11 Z" id="形状结合"></path>
        </g>
    </g>
</svg>