<?xml version="1.0" encoding="UTF-8"?>
<svg width="72px" height="72px" viewBox="0 0 72 72" version="1.1" xmlns="http://www.w3.org/2000/svg" xmlns:xlink="http://www.w3.org/1999/xlink">
    <!-- Generator: Sketch 63.1 (92452) - https://sketch.com -->
    <title>基础数据实施工具</title>
    <desc>Created with Sketch.</desc>
    <g id="基础数据实施工具" stroke="none" stroke-width="1" fill="none" fill-rule="evenodd">
        <g id="编组-2备份" transform="translate(8.000000, 7.000000)" fill="#60759C" fill-rule="nonzero">
            <path d="M39,52 C40.1045695,52 41,52.8954305 41,54 C41,55.0543618 40.1841222,55.9181651 39.1492623,55.9945143 L39,56 L14,56 C12.8954305,56 12,55.1045695 12,54 C12,52.9456382 12.8158778,52.0818349 13.8507377,52.0054857 L14,52 L39,52 Z M46,46 C47.1045695,46 48,46.8954305 48,48 C48,49.0543618 47.1841222,49.9181651 46.1492623,49.9945143 L46,50 L10,50 C8.8954305,50 8,49.1045695 8,48 C8,46.9456382 8.81587779,46.0818349 9.85073766,46.0054857 L10,46 L46,46 Z M48,0.5 C52.1421356,0.5 55.5,3.85786438 55.5,8 L55.5,36 C55.5,40.1421356 52.1421356,43.5 48,43.5 L8,43.5 C3.85786438,43.5 0.5,40.1421356 0.5,36 L0.5,8 C0.5,3.85786438 3.85786438,0.5 8,0.5 L48,0.5 Z M48,5.5 L8,5.5 C6.61928813,5.5 5.5,6.61928813 5.5,8 L5.5,36 C5.5,37.3807119 6.61928813,38.5 8,38.5 L48,38.5 C49.3807119,38.5 50.5,37.3807119 50.5,36 L50.5,8 C50.5,6.61928813 49.3807119,5.5 48,5.5 Z M34.5,21.5 C35.6045695,21.5 36.5,22.3954305 36.5,23.5 L36.5,32.5 C36.5,33.6045695 35.6045695,34.5 34.5,34.5 C33.3954305,34.5 32.5,33.6045695 32.5,32.5 L32.5,23.5 C32.5,22.3954305 33.3954305,21.5 34.5,21.5 Z M39.5,27.5 C40.6045695,27.5 41.5,28.3954305 41.5,29.5 L41.5,32.5 C41.5,33.6045695 40.6045695,34.5 39.5,34.5 C38.3954305,34.5 37.5,33.6045695 37.5,32.5 L37.5,29.5 C37.5,28.3954305 38.3954305,27.5 39.5,27.5 Z M44.5,24.5 C45.6045695,24.5 46.5,25.3954305 46.5,26.5 L46.5,32.5 C46.5,33.6045695 45.6045695,34.5 44.5,34.5 C43.3954305,34.5 42.5,33.6045695 42.5,32.5 L42.5,26.5 C42.5,25.3954305 43.3954305,24.5 44.5,24.5 Z M22.2826957,8.03467347 L22.4536146,8.07081415 L25.6887657,8.94038905 C25.9725258,9.03525397 26.2179833,9.21655731 26.3918237,9.45702475 L26.4726215,9.58206254 L26.5411661,9.72068074 C26.6423284,9.95669363 26.6778448,10.2157773 26.6439279,10.4703064 L26.6152154,10.6222562 L26.5693578,10.7583512 C26.5167976,10.8916702 26.4443863,11.0162064 26.3544384,11.1278648 L26.2587306,11.235079 L23.7361393,13.7152251 C23.7170079,13.7439253 23.7106308,13.7784172 23.7170079,13.8109785 L23.7361393,13.857407 L24.4346858,16.2518294 C24.4467946,16.2856467 24.469926,16.3137312 24.4995921,16.3321315 L24.5484312,16.3519748 L26.97129,17.0072473 C27.0000529,17.026501 27.0346652,17.032919 27.0673275,17.026501 L27.1138839,17.0072473 L29.5651792,14.5130925 C30.0754077,14.0396844 30.8457494,14.0081238 31.3906596,14.4184109 L31.5037987,14.5130925 L31.5992392,14.6203249 C31.6889869,14.7320162 31.7613831,14.8566147 31.8139737,14.989896 L31.8598714,15.1259151 L32.814806,18.5036811 C32.9577131,19.1437206 32.7741567,19.8091657 32.3322311,20.2843258 L32.2164064,20.3990267 L26.1734564,26.3706383 C25.7122485,26.8314858 25.0589629,27.0375868 24.4223679,26.9312722 L24.2636877,26.8981515 L21.4130482,26.1287235 C20.9521528,26.016485 20.4686011,26.1277215 20.1046321,26.4226124 L19.9879333,26.5276567 L16.7527823,29.7628077 C16.7503981,29.7651988 16.7480103,29.7675866 16.7456192,29.7699708 C15.4287221,31.0830299 13.3258464,31.1269431 11.9563757,29.9039134 L11.8073076,29.7628076 L11.0090288,28.9649431 C9.71170611,27.6400091 9.66537316,25.5493732 10.8700297,24.1697631 L11.0090285,24.0194741 L14.2870393,20.8267727 C14.649421,20.4638866 14.8005699,19.9449444 14.696778,19.4496308 L14.6579485,19.3019253 L13.944979,16.622314 C13.7358048,15.8784578 13.9133754,15.083525 14.4093007,14.5010177 L14.5293651,14.3704837 L20.2302207,8.6696281 C20.7756809,8.13924632 21.5399219,7.90602726 22.2826957,8.03467347 Z M18.4348914,18.4039259 C18.1042242,18.7997871 18.1275747,19.3738971 18.4704241,19.7416298 L18.5627727,19.8290408 L20.9712084,22.2518997 C21.1267559,22.4126943 21.3314568,22.514664 21.5507286,22.5432787 L21.6837636,22.5515287 L21.8186639,22.5422691 C21.996595,22.5183642 22.1654,22.4487928 22.3085001,22.3403828 L22.4107465,22.2518997 C22.4246124,22.2391502 22.4377204,22.2260421 22.4504714,22.212591 C22.8154392,21.8275832 22.8285171,21.2367574 22.5003155,20.8371611 L22.4111613,20.7414757 L19.9878881,18.4039263 C19.9491638,18.3575672 19.9063655,18.3147689 19.8600064,18.2760446 C19.4311567,17.9178219 18.7931123,17.9750781 18.4348914,18.4039259 Z" id="形状结合"></path>
        </g>
    </g>
</svg>