<?xml version="1.0" encoding="UTF-8"?>
<svg width="72px" height="72px" viewBox="0 0 72 72" version="1.1" xmlns="http://www.w3.org/2000/svg" xmlns:xlink="http://www.w3.org/1999/xlink">
    <title>应用管理平台</title>
    <defs>
        <linearGradient x1="50%" y1="-5.81532713%" x2="50%" y2="94.1846729%" id="linearGradient-1">
            <stop stop-color="#0077FF" offset="0%"></stop>
            <stop stop-color="#5B92FF" offset="100%"></stop>
        </linearGradient>
    </defs>
    <g id="应用管理平台" stroke="none" stroke-width="1" fill="none" fill-rule="evenodd">
        <path d="M29,37 C31.209139,37 33,38.790861 33,41 L33,58 C33,60.209139 31.209139,62 29,62 L12,62 C9.790861,62 8,60.209139 8,58 L8,41 C8,38.790861 9.790861,37 12,37 L29,37 Z M57,37 C59.209139,37 61,38.790861 61,41 L61,58 C61,60.209139 59.209139,62 57,62 L40,62 C37.790861,62 36,60.209139 36,58 L36,41 C36,38.790861 37.790861,37 40,37 L57,37 Z M53.7382261,9 C55.5492063,9.62111706 57.1971471,10.6380115 58.5608526,11.975897 C57.8933789,13.4782285 57.9785084,15.205772 58.7904927,16.6360105 C59.5341302,17.9617226 60.8650413,18.8590468 62.3787614,19.0552857 C62.7654481,21.0146757 62.731211,23.0332231 62.2782958,24.978531 C60.7996503,25.2301269 59.5191147,26.1430804 58.8048626,27.4549034 C58.070446,28.7641145 57.9396571,30.3247324 58.4460172,31.7367704 C57.0281524,33.0894559 55.3168356,34.1002762 53.4440142,34.6912943 C52.5523169,33.5472183 51.178577,32.8776552 49.7229785,32.8776552 C48.26738,32.8776552 46.8936402,33.5472183 46.0019429,34.6912943 C44.1594981,34.1058834 42.4757204,33.1100228 41.0788816,31.7795781 C41.6162673,30.3481774 41.4956021,28.754459 40.748745,27.4192099 C40.0184934,26.0692548 38.6865509,25.1447483 37.1604763,24.9285785 C36.9178424,23.9182093 36.7878737,22.8843351 36.7728897,21.8456625 C36.7724742,20.9332404 36.8589978,20.0228316 37.0313018,19.1266419 C38.6053971,18.9507781 39.9935914,18.0207238 40.7487142,16.6360719 C41.5542427,15.1882382 41.6234297,13.446781 40.9352756,11.9402648 C42.3080298,10.6115626 43.9635746,9.60670567 45.7794877,9 C46.6470966,10.3504432 48.1473454,11.1676689 49.7588569,11.1676689 C51.3703684,11.1676689 52.8706172,10.3504432 53.7382261,9 Z M29,9 C31.209139,9 33,10.790861 33,13 L33,30 C33,32.209139 31.209139,34 29,34 L12,34 C9.790861,34 8,32.209139 8,30 L8,13 C8,10.790861 9.790861,9 12,9 L29,9 Z M47.5854071,16.7246218 C45.506972,17.5846178 44.1560489,19.6070629 44.1646882,21.8456625 C44.1686598,24.8800478 46.6392391,27.3400334 49.6906464,27.3479582 C51.9417962,27.3594255 53.9773454,26.0186708 54.8448678,23.9529545 C55.7123903,21.8872381 55.2403155,19.5050984 53.6495256,17.9211296 C52.0587356,16.3371608 49.6638422,15.8646258 47.5854071,16.7246218 Z" fill="url(#linearGradient-1)"></path>
    </g>
</svg>