<?xml version="1.0" encoding="UTF-8"?>
<svg width="72px" height="72px" viewBox="0 0 72 72" version="1.1" xmlns="http://www.w3.org/2000/svg" xmlns:xlink="http://www.w3.org/1999/xlink">
    <!-- Generator: Sketch 63.1 (92452) - https://sketch.com -->
    <title>智能引擎</title>
    <desc>Created with Sketch.</desc>
    <defs>
        <linearGradient x1="50%" y1="-2.51534904e-15%" x2="50%" y2="99.1040797%" id="linearGradient-1">
            <stop stop-color="#AAF7C7" offset="0%"></stop>
            <stop stop-color="#58C881" offset="100%"></stop>
        </linearGradient>
    </defs>
    <g id="智能引擎" stroke="none" stroke-width="1" fill="none" fill-rule="evenodd">
        <g id="tianchongxing-" transform="translate(11.000000, 6.000000)" fill="url(#linearGradient-1)">
            <path d="M43.3061054,0.377338604 C44.4873391,1.09259237 44.9002099,2.59875174 44.2749109,3.80661276 L44.1874404,3.96237865 L38.3289142,13.6283541 C45.341936,18.056419 50,25.8755393 50,34.7826087 C50,48.5897274 38.8071187,59.7826087 25,59.7826087 C11.1928813,59.7826087 0,48.5897274 0,34.7826087 C0,26.2087775 4.31604172,18.6430119 10.8939653,14.1394716 L4.72534675,3.96237865 C3.97812795,2.73121721 4.37409005,1.12369036 5.61306823,0.377338604 C6.85204641,-0.36901315 8.45505426,0.0264894886 9.20227306,1.25765093 L15.4981207,11.6516168 C18.4275443,10.4469621 21.6361881,9.7826087 25,9.7826087 C28.0311878,9.7826087 30.9363774,10.3220715 33.6247975,11.3102258 L39.7169006,1.25765093 C40.4641194,0.0264894886 42.0671273,-0.36901315 43.3061054,0.377338604 Z M30.0376254,40.2173913 L18.8754181,40.2173913 L18.7124427,40.2227498 C17.3653457,40.3116117 16.3043478,41.4945142 16.3043478,42.9347826 C16.3043478,44.4326617 17.4519231,45.6521739 18.8754181,45.6521739 L18.8754181,45.6521739 L30.0376254,45.6521739 L30.1999318,45.6468437 C31.5419,45.5584437 32.6086957,44.3814239 32.6086957,42.9347826 C32.6086957,41.4369035 31.4611204,40.2173913 30.0376254,40.2173913 L30.0376254,40.2173913 Z M15.7608696,23.9130435 C14.2600958,23.9130435 13.0434783,25.129661 13.0434783,26.6304348 C13.0434783,28.1312086 14.2600958,29.3478261 15.7608696,29.3478261 C17.2616433,29.3478261 18.4782609,28.1312086 18.4782609,26.6304348 C18.4782609,25.129661 17.2616433,23.9130435 15.7608696,23.9130435 Z M35.5978261,24.2771049 C34.7570623,23.7916897 33.7211986,23.7916897 32.8804347,24.2771049 C32.0396709,24.7625201 31.5217391,25.6596044 31.5217391,26.6304348 C31.5217391,28.1312086 32.7383567,29.3478261 34.2391304,29.3478261 C35.7399042,29.3478261 36.9565217,28.1312086 36.9565217,26.6304348 C36.9565217,25.6596044 36.4385899,24.7625201 35.5978261,24.2771049 Z" id="形状结合"></path>
        </g>
    </g>
</svg>