<?xml version="1.0" encoding="UTF-8"?>
<svg width="72px" height="72px" viewBox="0 0 72 72" version="1.1" xmlns="http://www.w3.org/2000/svg" xmlns:xlink="http://www.w3.org/1999/xlink">
    <!-- Generator: Sketch 63.1 (92452) - https://sketch.com -->
    <title>自动审批查询</title>
    <desc>Created with Sketch.</desc>
    <g id="自动审批查询" stroke="none" stroke-width="1" fill="none" fill-rule="evenodd">
        <g id="编组" transform="translate(7.000000, 12.000000)" stroke="#60759C">
            <path d="M26.5,15 C30.6421356,15 34,11.6421356 34,7.5 C34,3.35786438 30.6421356,0 26.5,0 C22.3578644,0 19,3.35786438 19,7.5 C19,11.6421356 22.3578644,15 26.5,15 Z M38,22 L33,11 M20,11 L12,26" id="形状结合" stroke-width="4.5"></path>
            <path d="M3.99994196,44 C3.72385763,44 3.47385763,44.1119288 3.29289322,44.2928932 C3.11192881,44.4738576 3,44.7238576 3,45 C3,45.2761424 3.11192881,45.5261424 3.29289322,45.7071068 C3.47385763,45.8880712 3.72385763,46 4,46 L30.0086405,46.0011009 C29.560575,45.3658975 29.1562378,44.6976385 28.7999903,44.0007196 L3.99994196,44 Z M30.7719049,25.9993994 L5.00004661,26 C4.17157288,26 3.42157288,26.3357864 2.87867966,26.8786797 C2.33578644,27.4215729 2,28.1715729 2,29 L2,34 C2,34.8284271 2.33578644,35.5784271 2.87867966,36.1213203 C3.42157288,36.6642136 4.17157288,37 5,37 L27.0074686,37.0007205 C27.0025017,36.834421 27,36.6675024 27,36.5 C27,32.5109078 28.4155214,28.8522636 30.7719049,25.9993994 Z" id="形状结合" stroke-width="4"></path>
            <circle id="椭圆形" stroke-width="4" cx="44.5" cy="36.5" r="9.5"></circle>
            <path d="M40.7525875,36.4120865 L43.420586,38.7140818 C43.8387372,39.0748698 44.4701922,39.0283678 44.8309803,38.6102167 C44.8367465,38.6035336 44.842424,38.5967746 44.8480113,38.5899412 L48.2417694,34.439295 L48.2417694,34.439295" id="路径-2" stroke-width="3" stroke-linecap="round"></path>
        </g>
    </g>
</svg>