<?xml version="1.0" encoding="UTF-8"?>
<svg width="72px" height="72px" viewBox="0 0 72 72" version="1.1" xmlns="http://www.w3.org/2000/svg" xmlns:xlink="http://www.w3.org/1999/xlink">
    <!-- Generator: Sketch 63.1 (92452) - https://sketch.com -->
    <title>作业查询</title>
    <desc>Created with Sketch.</desc>
    <g id="作业查询" stroke="none" stroke-width="1" fill="none" fill-rule="evenodd">
        <g id="编组-3" transform="translate(13.000000, 9.000000)">
            <g id="编组" transform="translate(0.000000, 0.000000)" stroke="#60759C" stroke-width="5">
                <path d="M25.5732775,1.34580733 L4,1.34580733 C1.790861,1.34580733 1.50581534e-15,3.13666833 0,5.34580733 L0,48.486486 C4.19476067e-15,50.695625 1.790861,52.486486 4,52.486486 L39.5135135,52.486486 C41.7226525,52.486486 43.5135135,50.695625 43.5135135,48.486486 L43.5135135,13.3593112 C43.5135135,12.6713604 43.1599384,12.0316963 42.5773941,11.6657475 L26.637158,1.65224359 C26.3184318,1.45202284 25.9496745,1.34580733 25.5732775,1.34580733 Z" id="路径-5"></path>
                <path d="M26.1081081,-1.42108547e-14 L26.1081081,10 C26.1081081,12.7614237 28.3466844,15 31.1081081,15 L43.1081081,15 L43.1081081,15" id="路径-6"></path>
            </g>
            <rect id="矩形备份" stroke="#60759C" stroke-width="4" fill="#D8D8D8" x="9.15555556" y="16" width="5.2" height="1" rx="0.5"></rect>
            <g id="编组-2" transform="translate(8.177778, 20.000000)">
                <g id="编组" transform="translate(15.022395, 16.591393) rotate(-17.000000) translate(-15.022395, -16.591393) translate(4.289062, 2.591393)">
                    <path d="M16.2505283,15.9707249 C17.4254962,15.9816113 18.3753636,16.9313755 18.3863775,18.1063422 L18.4539444,25.314406 C18.4646967,26.4614659 17.5435374,27.4000581 16.3964775,27.4108104 C16.3835737,27.4109314 16.3706691,27.4109321 16.3577653,27.4108125 C15.1827974,27.3999261 14.2329301,26.4501619 14.2219162,25.2751951 L14.1543493,18.0671314 C14.143597,16.9200715 15.0647563,15.9814793 16.2118162,15.970727 C16.2247199,15.970606 16.2376245,15.9706053 16.2505283,15.9707249 Z" id="矩形" fill="#60759C" transform="translate(16.304147, 21.690769) rotate(-29.000000) translate(-16.304147, -21.690769) "></path>
                    <ellipse id="椭圆形" stroke="#60759C" stroke-width="4" cx="9.23538389" cy="9.12762979" rx="8.72516129" ry="8.53548387"></ellipse>
                </g>
            </g>
        </g>
    </g>
</svg>