<?xml version="1.0" encoding="UTF-8"?>
<svg width="72px" height="72px" viewBox="0 0 72 72" version="1.1" xmlns="http://www.w3.org/2000/svg" xmlns:xlink="http://www.w3.org/1999/xlink">
    <!-- Generator: Sketch 63.1 (92452) - https://sketch.com -->
    <title>审批问题统计</title>
    <desc>Created with Sketch.</desc>
    <g id="审批问题统计" stroke="none" stroke-width="1" fill="none" fill-rule="evenodd">
        <g id="编组-25" transform="translate(34.500000, 35.000000) scale(1, -1) rotate(90.000000) translate(-34.500000, -35.000000) translate(8.500000, 8.500000)" fill="#D8D8D8" stroke="#60759C" stroke-width="4">
            <rect id="矩形备份-2" x="2" y="49" width="48" height="2" rx="1"></rect>
            <rect id="矩形备份-2" transform="translate(3.000000, 26.000000) rotate(90.000000) translate(-3.000000, -26.000000) " x="-21" y="25" width="48" height="2" rx="1"></rect>
            <rect id="矩形备份" x="2" y="33" width="25" height="2" rx="1"></rect>
            <rect id="矩形备份-3" x="3.5" y="18.5" width="15" height="2" rx="1"></rect>
            <rect id="矩形备份-4" x="5.5" y="4.5" width="19" height="2" rx="1"></rect>
        </g>
        <path d="M12.9033409,28.9093039 L27.0486202,23.4277415 C27.1984504,23.3696795 27.3670557,23.387165 27.5017826,23.4747374 L38.5179338,30.6352358 C40.2532378,31.7631834 42.4748391,31.8214648 44.2668965,30.7860538 L58.250694,22.7065264 C59.4462042,22.0157871 59.8554019,20.4866799 59.1646627,19.2911697 C58.4739235,18.0956595 56.9448162,17.6864618 55.749306,18.377201 L41.7655085,26.4567284 C41.6025942,26.5508567 41.4006305,26.5455584 41.2428756,26.4430177 L30.2267243,19.2825194 C28.7447284,18.319222 26.8900703,18.1268816 25.2419384,18.7655638 L11.0966591,24.2471262 C9.80923429,24.7460276 9.17000975,26.1941312 9.66891115,27.481556 C10.1678125,28.7689808 11.6159161,29.4082053 12.9033409,28.9093039 Z" id="路径-12" fill="#60759C" fill-rule="nonzero" transform="translate(34.499872, 24.782623) scale(-1, -1) translate(-34.499872, -24.782623) "></path>
    </g>
</svg>