<?xml version="1.0" encoding="UTF-8"?>
<svg width="72px" height="72px" viewBox="0 0 72 72" version="1.1" xmlns="http://www.w3.org/2000/svg" xmlns:xlink="http://www.w3.org/1999/xlink">
    <!-- Generator: Sketch 63.1 (92452) - https://sketch.com -->
    <title>报告生成</title>
    <desc>Created with Sketch.</desc>
    <g id="报告生成" stroke="none" stroke-width="1" fill="none" fill-rule="evenodd">
        <path d="M27.6338722,33.8723838 C26.588833,32.9700211 25.0101519,33.0856832 24.1077892,34.1307224 C23.2054265,35.1757616 23.3210886,36.7544427 24.3661278,37.6568054 L30.9702089,43.3592486 C32.3246008,44.5287288 34.3430051,44.4882512 35.6494206,43.2654103 L47.8715265,31.8251835 C48.8795475,30.8816481 48.9318235,29.2995991 47.9882881,28.2915781 C47.0447528,27.2835571 45.4627038,27.2312812 44.4546828,28.1748165 L33.2171859,38.6934223 L27.6338722,33.8723838 Z" id="路径-2" fill="#60759C" fill-rule="nonzero"></path>
        <path d="M29,10 L44,10 C46.2208471,10 48.1598786,11.2065959 49.1973068,13 L53,13 C57.418278,13 61,16.581722 61,21 L61,55 C61,59.418278 57.418278,63 53,63 L19,63 C14.581722,63 11,59.418278 11,55 L11,21 C11,16.581722 14.581722,13 19,13 L23.8026883,13 C24.8401226,11.2065951 26.7791536,10 29,10 Z M19,18 C17.3431458,18 16,19.3431458 16,21 L16,55 C16,56.6568542 17.3431458,58 19,58 L53,58 C54.6568542,58 56,56.6568542 56,55 L56,21 C56,19.3431458 54.6568542,18 53,18 L46.3133497,18 L44.8692775,15.5036298 C44.6887729,15.1915912 44.3637454,15 44,15 L29,15 C28.6362547,15 28.3112273,15.1915911 28.1307168,15.5036312 L26.6866443,18 L19,18 Z" id="形状结合" fill="#60759C" fill-rule="nonzero"></path>
    </g>
</svg>