<?xml version="1.0" encoding="UTF-8"?>
<svg width="72px" height="72px" viewBox="0 0 72 72" version="1.1" xmlns="http://www.w3.org/2000/svg" xmlns:xlink="http://www.w3.org/1999/xlink">
    <!-- Generator: Sketch 63.1 (92452) - https://sketch.com -->
    <title>主题定义</title>
    <desc>Created with Sketch.</desc>
    <g id="主题定义" stroke="none" stroke-width="1" fill="none" fill-rule="evenodd">
        <g id="Group-2" transform="translate(8.000000, 8.000000)">
            <rect id="Rectangle-5" x="0" y="0" width="56" height="56"></rect>
        </g>
        <g id="主题_调色盘" fill-rule="nonzero">
            <rect id="矩形" fill="#000000" opacity="0" x="0" y="0" width="72" height="72"></rect>
            <g id="编组" transform="translate(10.000000, 10.000000)">
                <path d="M26,52 C40.3319059,52 52,40.3594035 52,26 C52,11.6405965 40.3594035,0 26,0 C11.6405965,0 0,11.6405965 0,26 C0,33.2622902 6.0666667,45.3766555 12.5666667,42.25 C19.0666667,39.1233445 19.0666667,52 26,52 Z" id="椭圆形" stroke="#60759C" stroke-width="5"></path>
                <path d="M34.6666667,19.5 C32.7166667,19.5 31.4166666,18.2 31.4166666,16.25 C31.4166666,14.3 32.7166667,13 34.6666667,13 C36.6166667,13 37.9166666,14.3 37.9166666,16.25 C37.9166666,18.2 36.6166667,19.5 34.6666667,19.5 Z M25.5666666,15.275 C23.6166666,15.275 22.3166667,13.975 22.3166667,12.025 C22.3166667,10.075 23.6166667,8.77500001 25.5666666,8.77500001 C27.5166666,8.77500001 28.8166667,10.075 28.8166667,12.025 C28.8166667,13.9749999 27.5166666,15.275 25.5666666,15.275 Z M39.5416667,27.625 C37.5916667,27.625 36.2916667,26.3249999 36.2916667,24.375 C36.2916667,22.4250001 37.5916667,21.125 39.5416667,21.125 C41.4916667,21.125 42.7916667,22.425 42.7916667,24.375 C42.7916667,26.325 41.4916667,27.625 39.5416667,27.625 Z M15.8166666,18.525 C13.8666666,18.525 12.5666667,17.225 12.5666667,15.275 C12.5666667,13.325 13.8666667,12.025 15.8166666,12.025 C17.7666666,12.025 19.0666667,13.325 19.0666667,15.275 C19.0666667,17.225 17.7666666,18.525 15.8166666,18.525 Z M30.7666667,41.275 C28.1666667,41.275 25.8916667,39 25.8916667,36.4 C25.8916667,33.8 28.1666667,31.525 30.7666667,31.525 C33.3666666,31.525 35.6416667,33.8 35.6416667,36.4 C35.3166667,39 33.3666666,41.275 30.7666667,41.275 Z" id="形状" fill="#60759C"></path>
            </g>
        </g>
    </g>
</svg>