<?xml version="1.0" encoding="UTF-8"?>
<svg width="72px" height="72px" viewBox="0 0 72 72" version="1.1" xmlns="http://www.w3.org/2000/svg" xmlns:xlink="http://www.w3.org/1999/xlink">
    <!-- Generator: Sketch 63.1 (92452) - https://sketch.com -->
    <title>知识管理</title>
    <desc>Created with Sketch.</desc>
    <g id="知识管理" stroke="none" stroke-width="1" fill="none" fill-rule="evenodd">
        <path d="M38,19.5944402 L57.4261347,16.8737393 L57.4954308,51.9452458 C53.0857932,52.3079453 49.7015683,52.6767199 47.3255915,53.0553274 C44.6647381,53.4793294 41.0657557,54.2664445 36.5104796,55.4179547 C31.9102595,54.2158592 28.3610254,53.4276393 25.8349568,53.0514494 C23.5743203,52.7147884 20.1385622,52.4115416 15.5,52.1363464 L15.5,17.1936602 L26.2280535,19.8470469 C27.568378,20.1785515 28.9236634,19.3607414 29.255168,18.0204168 C29.5866727,16.6800922 28.7688625,15.3248069 27.4285379,14.9933023 L14.8403391,11.8798428 C12.9638847,11.4157364 11.0664852,12.5606706 10.6023787,14.437125 C10.5343776,14.7120639 10.5,14.9942405 10.5,15.2774641 L10.5,53.5529355 C10.5,55.4108998 11.9517282,56.9450163 13.8067873,57.0475792 C19.0262434,57.3361538 22.8023933,57.6549718 25.0984636,57.9969097 C27.5199408,58.3575235 31.1183386,59.1649878 35.8619079,60.4171964 L36.4893676,60.5828334 L37.1181697,60.4223679 C41.836571,59.2182682 45.5082371,58.408001 48.1124054,57.9930317 C50.573268,57.6008979 54.3005344,57.2078319 59.2712153,56.8188669 C61.0953971,56.6761222 62.5017773,55.152374 62.498169,53.3226183 L62.422724,15.1425802 C62.4189047,13.2095874 60.8488082,11.6456832 58.9158154,11.6494956 C58.7557181,11.6494956 58.5958312,11.6611196 58.437281,11.6833251 L36.0145502,14.8237103 C34.2859902,15.0658014 33,16.5444503 33,18.2898808 L33,37.4042553 C33,38.7849672 34.1192881,39.9042553 35.5,39.9042553 C36.8807119,39.9042553 38,38.7849672 38,37.4042553 L38,19.5944402 Z" id="路径-3" fill="#60759C" fill-rule="nonzero"></path>
        <path d="M46,17 L53,17 L53,31 C51.4583688,29.9645789 50.2917021,29.4468684 49.5,29.4468684 C48.7082979,29.4468684 47.5416312,29.9645789 46,31 L46,17 Z" id="矩形" fill="#60759C"></path>
    </g>
</svg>