<?xml version="1.0" encoding="UTF-8"?>
<svg width="72px" height="72px" viewBox="0 0 72 72" version="1.1" xmlns="http://www.w3.org/2000/svg" xmlns:xlink="http://www.w3.org/1999/xlink">
    <!-- Generator: Sketch 63.1 (92452) - https://sketch.com -->
    <title>基础设置</title>
    <desc>Created with Sketch.</desc>
    <g id="基础设置" stroke="none" stroke-width="1" fill="none" fill-rule="evenodd">
        <g id="编组" transform="translate(10.000000, 11.000000)">
            <path d="M49.1636364,29.8806632 L49.1636364,41.8801347 C49.1636364,45.9027016 45.9027016,49.1636364 41.8801347,49.1636364 L7.28350168,49.1636364 C3.26093478,49.1636364 0,45.9027016 0,41.8801347 L0,7.28350168 C0,3.26093478 3.26093478,0 7.28350168,0 L18.9090909,0" id="路径" stroke="#60759C" stroke-width="5" stroke-linecap="round" transform="translate(24.581818, 24.581818) scale(1, -1) translate(-24.581818, -24.581818) "></path>
            <rect id="矩形" stroke="#60759C" stroke-width="4" fill="#D8D8D8" transform="translate(17.018182, 30.815526) scale(1, -1) translate(-17.018182, -30.815526) " x="11.4545455" y="30.4518897" width="11.1272727" height="1" rx="0.5"></rect>
            <rect id="矩形备份" stroke="#60759C" stroke-width="4" fill="#D8D8D8" transform="translate(24.581818, 16.633708) scale(1, -1) translate(-24.581818, -16.633708) " x="11.4545455" y="16.2700715" width="26.2545455" height="1" rx="0.5"></rect>
            <g id="设置备份" transform="translate(24.581818, 26.472727)" fill-rule="nonzero">
                <rect id="矩形" fill="#000000" opacity="0" x="0" y="0" width="27.4181818" height="27.4181818"></rect>
                <path d="M21.2490909,17.6268285 C22.0487879,16.2630969 23.419697,15.5812312 24.7906061,15.6948755 C25.0190909,14.8993654 25.1333333,13.990211 25.1333333,13.0810566 C25.1333333,12.2855466 25.0190909,11.4900365 24.9048485,10.8081707 C23.5339394,11.0354593 22.0487879,10.2399492 21.2490909,8.87621769 C20.4493939,7.51248613 20.5636364,5.80782168 21.4775757,4.78502301 C20.2209091,3.64858004 18.85,2.85306998 17.2506061,2.28484848 C16.7936364,3.64858004 15.4227273,4.5577344 13.7090909,4.5577344 C11.9954545,4.5577344 10.7387879,3.64858004 10.1675758,2.28484848 C8.56818182,2.85306996 7.19727273,3.76222435 5.94060608,4.89866729 C6.85454546,6.03511027 6.96878789,7.62613041 6.16909091,8.98986196 C5.36939394,10.3535935 3.88424244,11.0354593 2.51333335,10.8081707 C2.39909092,11.6036808 2.28484848,12.3991909 2.28484848,13.1947009 C2.28484848,14.1038553 2.39909092,14.8993654 2.62757576,15.6948755 C3.99848485,15.5812312 5.36939394,16.2630969 6.16909091,17.6268285 C6.85454546,18.9905601 6.85454546,20.4679359 6.05484848,21.6043789 C7.31151514,22.7408218 8.68242423,23.5363319 10.2818182,23.9909091 C10.8530303,22.7408218 12.109697,21.9453118 13.7090909,21.9453118 C15.3084848,21.9453118 16.5651515,22.7408218 17.1363636,23.9909091 C18.7357576,23.5363319 20.1066667,22.6271775 21.3633333,21.6043789 C20.5636364,20.4679359 20.449394,18.9905601 21.2490909,17.6268285 Z M13.7090909,18.0814057 C10.9672727,18.0814057 8.79666666,15.9221641 8.79666666,13.1947009 C8.79666666,10.4672378 10.9672727,8.30799619 13.7090909,8.30799619 C16.4509091,8.30799619 18.6215152,10.4672378 18.6215152,13.1947009 C18.6215152,15.9221641 16.4509091,18.0814057 13.7090909,18.0814057 Z" id="形状" fill="#60759C"></path>
            </g>
        </g>
    </g>
</svg>