<?xml version="1.0" encoding="UTF-8"?>
<svg width="72px" height="72px" viewBox="0 0 72 72" version="1.1" xmlns="http://www.w3.org/2000/svg" xmlns:xlink="http://www.w3.org/1999/xlink">
    <!-- Generator: Sketch 63.1 (92452) - https://sketch.com -->
    <title>日常操作</title>
    <desc>Created with Sketch.</desc>
    <g id="日常操作" stroke="none" stroke-width="1" fill="none" fill-rule="evenodd">
        <g id="编组-2" transform="translate(12.000000, 12.000000)" stroke="#60759C">
            <rect id="Rectangle-5" stroke-width="5" x="0" y="0" width="20" height="20" rx="5"></rect>
            <rect id="Rectangle-5" stroke-width="5" x="28" y="0" width="20" height="20" rx="5"></rect>
            <rect id="Rectangle-5" stroke-width="5" x="0" y="28" width="20" height="20" rx="5"></rect>
            <path d="M38.1464466,28.1464466 C38.0559644,28.2369288 38,28.3619288 38,28.5 L38,38 L28.5,38 C28.3619288,38 28.2369288,38.0559644 28.1464466,38.1464466 C28.0559644,38.2369288 28,38.3619288 28,38.5 C28,38.6380712 28.0559644,38.7630712 28.1464466,38.8535534 C28.2369288,38.9440356 28.3619288,39 28.5,39 L38,39 L38,48.5 C38,48.6380712 38.0559644,48.7630712 38.1464466,48.8535534 C38.2369288,48.9440356 38.3619288,49 38.5,49 C38.6380712,49 38.7630712,48.9440356 38.8535534,48.8535534 C38.9440356,48.7630712 39,48.6380712 39,48.5 L39,39 L48.5,39 C48.6380712,39 48.7630712,38.9440356 48.8535534,38.8535534 C48.9440356,38.7630712 49,38.6380712 49,38.5 C49,38.3619288 48.9440356,38.2369288 48.8535534,38.1464466 C48.7630712,38.0559644 48.6380712,38 48.5,38 L39,38 L39,28.5 C39,28.3619288 38.9440356,28.2369288 38.8535534,28.1464466 C38.7630712,28.0559644 38.6380712,28 38.1464466,28.1464466 Z" id="形状结合" stroke-width="4" fill="#D8D8D8"></path>
        </g>
    </g>
</svg>