<?xml version="1.0" encoding="UTF-8"?>
<svg width="72px" height="72px" viewBox="0 0 72 72" version="1.1" xmlns="http://www.w3.org/2000/svg" xmlns:xlink="http://www.w3.org/1999/xlink">
    <!-- Generator: Sketch 63.1 (92452) - https://sketch.com -->
    <title>销项管理</title>
    <desc>Created with Sketch.</desc>
    <g id="销项管理" stroke="none" stroke-width="1" fill="none" fill-rule="evenodd">
        <g id="编组-2" transform="translate(9.000000, 14.000000)" stroke="#60759C" stroke-width="5">
            <path d="M44.5,0 C48.918278,-8.11624501e-16 52.5,3.581722 52.5,8 L52.5006842,15.7743171 C50.9517306,17.3909177 50,19.5843146 50,22 C50,24.4156854 50.9517306,26.6090823 52.5006842,28.2256829 L52.5,36 C52.5,40.418278 48.918278,44 44.5,44 L8.5,44 C4.081722,44 0.5,40.418278 0.5,36 L0.499967702,29.1244772 C2.62901628,27.4784745 4,24.8993424 4,22 C4,19.1006576 2.62901628,16.5215255 0.499967702,14.8755228 L0.5,8 C0.5,3.581722 4.081722,8.11624501e-16 8.5,0 L44.5,0 Z" id="形状结合"></path>
        </g>
        <path d="M36,51 C44.2842712,51 51,44.2842712 51,36 C51,27.7157288 44.2842712,21 36,21 C27.7157288,21 21,27.7157288 21,36 C21,44.2842712 27.7157288,51 36,51 Z M36,47 C29.9248678,47 25,42.0751322 25,36 C25,29.9248678 29.9248678,25 36,25 C42.0751322,25 47,29.9248678 47,36 C47,42.0751322 42.0751322,47 36,47 Z" id="椭圆形" fill="#60759C" fill-rule="nonzero"></path>
        <path d="M44,35.9359626 C44,36.446538 43.7717836,36.909286 43.4122159,37.2262985 L37.5452788,42.4259542 C37.2323687,42.6998971 36.8182827,42.8666667 36.3666677,42.8666667 C35.39193,42.8666667 34.6025548,42.092415 34.6025548,41.1353679 C34.6025548,40.6190332 34.8307712,40.1620444 35.1903388,39.8450319 L37.6487369,37.6675118 L29.7587879,37.6675118 C28.7870931,37.6675118 28,36.8932601 28,35.9307041 C28,34.9736569 28.7870931,34.1994053 29.7587879,34.1994053 L37.6487369,34.1994053 L35.1903388,32.0216347 C34.8307712,31.7043719 34.6025548,31.2446286 34.6025548,30.7315492 C34.6025548,29.7742516 35.39193,29 36.3666677,29 C36.8182827,29 37.2323687,29.1667696 37.5452788,29.4462214 L43.4122159,34.6456266 C43.77153,34.9626391 44,35.4251368 44,35.9359626" id="路径" fill="#60759C" transform="translate(36.000000, 35.933333) rotate(-90.000000) translate(-36.000000, -35.933333) "></path>
    </g>
</svg>