<?xml version="1.0" encoding="UTF-8"?>
<svg width="72px" height="72px" viewBox="0 0 72 72" version="1.1" xmlns="http://www.w3.org/2000/svg" xmlns:xlink="http://www.w3.org/1999/xlink">
    <!-- Generator: Sketch 63.1 (92452) - https://sketch.com -->
    <title>工单单据</title>
    <desc>Created with Sketch.</desc>
    <g id="工单单据" stroke="none" stroke-width="1" fill="none" fill-rule="evenodd">
        <path d="M11.15,22 L11.15,54.3337231 C11.15,57.3712892 13.6124339,59.8337231 16.65,59.8337231 L43.0379119,59.8337231 C44.4186238,59.8337231 45.5379119,58.7144349 45.5379119,57.3337231 C45.5379119,55.9530112 44.4186238,54.8337231 43.0379119,54.8337231 L16.65,54.8337231 C16.3738576,54.8337231 16.15,54.6098654 16.15,54.3337231 L16.15,22 C16.15,20.6192881 15.0307119,19.5 13.65,19.5 C12.2692881,19.5 11.15,20.6192881 11.15,22 Z" id="路径-4" fill="#60759C" fill-rule="nonzero"></path>
        <path d="M26,8.5 C22.4101491,8.5 19.5,11.4101491 19.5,15 L19.5,45 C19.5,48.5898509 22.4101491,51.5 26,51.5 L53,51.5 C56.5898509,51.5 59.5,48.5898509 59.5,45 L59.5,23.4583196 C59.5,22.1145317 58.8994513,20.8410604 57.8626166,19.9862271 L45.1776301,9.52790752 C44.3716511,8.8634065 43.3596014,8.5 42.3150135,8.5 L26,8.5 Z M42.1354737,13.5 L54.5,23.6941116 L54.5,45 C54.5,45.8284271 53.8284271,46.5 53,46.5 L26,46.5 C25.1715729,46.5 24.5,45.8284271 24.5,45 L24.5,15 C24.5,14.1715729 25.1715729,13.5 26,13.5 L42.1354737,13.5 Z" id="路径-5" fill="#60759C" fill-rule="nonzero"></path>
        <path d="M40.5,10 L40.5,20 C40.5,24.1421356 43.8578644,27.5 48,27.5 L59,27.5 L59,22.5 L48,22.5 C46.6192881,22.5 45.5,21.3807119 45.5,20 L45.5,10 L40.5,10 Z" id="路径-6" fill="#60759C" fill-rule="nonzero"></path>
    </g>
</svg>