<?xml version="1.0" encoding="UTF-8"?>
<svg width="72px" height="72px" viewBox="0 0 72 72" version="1.1" xmlns="http://www.w3.org/2000/svg" xmlns:xlink="http://www.w3.org/1999/xlink">
    <!-- Generator: Sketch 63.1 (92452) - https://sketch.com -->
    <title>自定义共享任务</title>
    <desc>Created with Sketch.</desc>
    <g id="自定义共享任务" stroke="none" stroke-width="1" fill="none" fill-rule="evenodd">
        <g id="编组" transform="translate(13.000000, 12.000000)" fill="#60759C" fill-rule="nonzero">
            <path d="M4,-1.25675676 C0.410149126,-1.25675676 -2.5,1.65339237 -2.5,5.24324324 L-2.5,44.4864865 C-2.5,48.0763374 0.410149126,50.9864865 4,50.9864865 L39.5135135,50.9864865 C43.1033644,50.9864865 46.0135135,48.0763374 46.0135135,44.4864865 L46.0135135,16.5025456 C46.0135135,15.1587577 45.4129648,13.8852864 44.3761301,13.0304532 L28.2938073,-0.228849239 C27.4878283,-0.89335026 26.4757786,-1.25675676 25.4311907,-1.25675676 L4,-1.25675676 Z M25.2516509,3.74324324 L41.0135135,16.7383377 L41.0135135,44.4864865 C41.0135135,45.3149136 40.3419406,45.9864865 39.5135135,45.9864865 L4,45.9864865 C3.17157288,45.9864865 2.5,45.3149136 2.5,44.4864865 L2.5,5.24324324 C2.5,4.41481612 3.17157288,3.74324324 4,3.74324324 L25.2516509,3.74324324 Z" id="路径-5"></path>
            <path d="M23.6081081,0 L23.6081081,13.6486486 C23.6081081,17.7907843 26.9659725,21.1486486 31.1081081,21.1486486 L46,21.1486486 L46,16.1486486 L31.1081081,16.1486486 C29.7273962,16.1486486 28.6081081,15.0293605 28.6081081,13.6486486 L28.6081081,0 L23.6081081,0 Z" id="路径-6"></path>
        </g>
        <path d="M26.0998573,43.9801572 L35.2726398,34.7186892 C36.0499218,33.9338921 37.3162371,33.9278 38.1010342,34.7050821 C38.1055758,34.7095801 38.1100957,34.7140999 38.114594,34.7186414 L39.3354133,35.951181 C40.1074754,36.7306552 40.1074754,37.9865897 39.3354133,38.7660639 L30.1357359,48.0540613 L30.1357359,48.0540613 L26.0998573,43.9801572 Z M23,51.0353006 L29.1283714,49.0725373 L25.0939197,44.9993535 L23,51.0353006 Z" id="形状" fill="#60759C" fill-rule="nonzero"></path>
    </g>
</svg>