<?xml version="1.0" encoding="UTF-8"?>
<svg width="72px" height="72px" viewBox="0 0 72 72" version="1.1" xmlns="http://www.w3.org/2000/svg" xmlns:xlink="http://www.w3.org/1999/xlink">
    <title>共享服务</title>
    <defs>
        <linearGradient x1="50.9511473%" y1="98.1529324%" x2="50.9511473%" y2="0.951147263%" id="linearGradient-1">
            <stop stop-color="#35D190" offset="0%"></stop>
            <stop stop-color="#18B681" offset="100%"></stop>
        </linearGradient>
    </defs>
    <g id="共享服务" stroke="none" stroke-width="1" fill="none" fill-rule="evenodd">
        <path d="M49.8684825,17.4693396 C52.0776215,17.4693396 53.8684825,19.2602006 53.8684825,21.4693396 L53.8684825,59 C53.8684825,61.209139 52.0776215,63 49.8684825,63 L12,63 C9.790861,63 8,61.209139 8,59 L8,21.4693396 C8,19.2602006 9.790861,17.4693396 12,17.4693396 L49.8684825,17.4693396 Z M34.3257999,29.4748508 C32.2417227,29.4748508 30.5467216,31.1696744 30.5467216,33.2537161 C30.5467216,33.6836166 30.6346542,33.9442195 30.7668194,34.3297455 L30.7668194,34.3297455 L27.6448749,36.2465483 C26.9616489,35.5737592 26.1006763,35.302826 25.0689504,35.302826 C22.9849087,35.302826 21.2901561,36.9976141 21.2901561,39.0817267 C21.2901561,41.1657684 22.9849087,42.8606985 25.0689504,42.8606985 C25.8266191,42.8606985 26.4572701,42.7784813 27.049617,42.3931328 L27.049617,42.3931328 L30.7440641,45.1412661 C30.6542145,45.4643838 30.5910252,45.7968733 30.5910252,46.1473967 C30.5910252,48.2315094 32.2858488,49.7797195 34.3701389,49.7797195 C36.4539675,49.7797195 38.1489331,48.0849314 38.1489331,46.0008897 C38.1489331,43.9167416 36.455991,42.2230185 34.3709909,42.2230185 C33.3187107,42.2230185 32.4394202,42.5109206 31.7537093,43.2071749 L31.7537093,43.2071749 L28.5617595,40.7297263 C28.8291428,40.2112187 28.8488096,39.7784426 28.8488096,39.156063 C28.8488096,38.7846303 28.7789463,38.4332549 28.6788728,38.0951209 L28.6788728,38.0951209 L31.8830344,36.1995823 C32.5530191,36.8022596 33.3563758,37.0327233 34.3257999,37.0327233 C36.4097705,37.0327233 38.1045586,35.3378642 38.1045586,33.2537161 C38.1045586,31.1696744 36.409806,29.4748508 34.3257999,29.4748508 Z" id="形状结合" fill="url(#linearGradient-1)"></path>
        <path d="M58,11 C60.209139,11 62,12.790861 62,15 L62,52.5306604 C62,54.7397994 60.209139,56.5306604 58,56.5306604 L55.9425175,56.53 L55.9433104,19.004717 C55.9433104,17.4070361 54.6943904,16.1010561 53.1195832,16.0098097 L52.9433104,16.004717 L16.1315175,16.004 L16.1315175,15 C16.1315175,12.790861 17.9223785,11 20.1315175,11 L58,11 Z" id="形状结合" fill="url(#linearGradient-1)" opacity="0.8"></path>
    </g>
</svg>