<?xml version="1.0" encoding="UTF-8"?>
<svg width="72px" height="72px" viewBox="0 0 72 72" version="1.1" xmlns="http://www.w3.org/2000/svg" xmlns:xlink="http://www.w3.org/1999/xlink">
    <!-- Generator: Sketch 63.1 (92452) - https://sketch.com -->
    <title>预算数据处理</title>
    <desc>Created with Sketch.</desc>
    <g id="预算数据处理" stroke="none" stroke-width="1" fill="none" fill-rule="evenodd">
        <g id="编组-2" transform="translate(10.000000, 9.000000)" fill="#60759C" fill-rule="nonzero">
            <path d="M18.72,0 L34.32,0 C36.6788744,0 38.7320427,1.30888296 39.7928562,3.24 L44,3.24 C48.418278,3.24 52,6.821722 52,11.24 L52,47.24 C52,51.658278 48.418278,55.24 44,55.24 L8,55.24 C3.581722,55.24 0,51.658278 0,47.24 L0,11.24 C0,6.821722 3.581722,3.24 8,3.24 L13.2471438,3.24 C14.3079573,1.30888296 16.3611256,0 18.72,0 Z M8,8.24 C6.34314575,8.24 5,9.58314575 5,11.24 L5,47.24 C5,48.8968542 6.34314575,50.24 8,50.24 L44,50.24 C45.6568542,50.24 47,48.8968542 47,47.24 L47,11.24 C47,9.58314575 45.6568542,8.24 44,8.24 L36.8347543,8.24 L35.4105307,5.64732691 C35.1916171,5.24881415 34.7799597,5 34.32,5 L18.72,5 C18.2600403,5 17.8483829,5.24881415 17.6294693,5.64732691 L16.2052457,8.24 L8,8.24 Z" id="形状结合"></path>
            <g id="编组-3" transform="translate(13.000000, 15.460000)">
                <g id="编组">
                    <path d="M10.0945013,6.05087614 L24.8182995,6.05087614 C25.97989,6.05087614 26.9215452,6.99253133 26.9215452,8.15412186 C26.9215452,9.3157124 25.97989,10.2573676 24.8182995,10.2573676 L2.8151135,10.2573676 C1.65352296,10.2573676 0.711867782,9.3157124 0.711867782,8.15412186 C0.711867782,7.83703275 0.782037289,7.53633261 0.907695378,7.26670236 C1.02253914,6.89222398 1.256664,6.55104434 1.59975445,6.30544931 C1.64183252,6.27532849 1.68515498,6.24698513 1.72960769,6.2204939 L10.539679,0.970204772 C11.5238099,0.383720113 12.7970453,0.706076066 13.38353,1.69020694 C13.388426,1.69842247 13.3932651,1.70667175 13.3980469,1.7149542 C13.9788422,2.72092111 13.6341725,4.00724602 12.6282056,4.58804128 L10.0945013,6.05087614 Z M13.0993295,5.26534031 L4.2892582,10.5156294 C4.36486111,10.4705745 4.43854174,10.4223696 4.510106,10.3711416 C5.07495418,9.96680536 5.48731505,9.38692887 5.68795309,8.73269559 L5.58624069,9.06435571 L5.43970135,9.37879181 C5.61799464,8.99621983 5.71186778,8.57692006 5.71186778,8.15412186 C5.71186778,6.55428865 4.41494671,5.25736758 2.8151135,5.25736758 L10.0894652,5.25736758 C10.9842132,5.79636943 12.1393032,5.83746001 13.0993295,5.26534031 Z" id="形状结合"></path>
                </g>
                <g id="编组" transform="translate(13.583333, 20.321386) scale(-1, -1) translate(-13.583333, -20.321386) translate(0.083333, 14.821386)">
                    <path d="M10.0945013,6.05087614 L24.8182995,6.05087614 C25.97989,6.05087614 26.9215452,6.99253133 26.9215452,8.15412186 C26.9215452,9.3157124 25.97989,10.2573676 24.8182995,10.2573676 L2.8151135,10.2573676 C1.65352296,10.2573676 0.711867782,9.3157124 0.711867782,8.15412186 C0.711867782,7.83703275 0.782037289,7.53633261 0.907695378,7.26670236 C1.02253914,6.89222398 1.256664,6.55104434 1.59975445,6.30544931 C1.64183252,6.27532849 1.68515498,6.24698513 1.72960769,6.2204939 L10.539679,0.970204772 C11.5238099,0.383720113 12.7970453,0.706076066 13.38353,1.69020694 C13.388426,1.69842247 13.3932651,1.70667175 13.3980469,1.7149542 C13.9788422,2.72092111 13.6341725,4.00724602 12.6282056,4.58804128 L10.0945013,6.05087614 Z M13.0993295,5.26534031 L4.2892582,10.5156294 C4.36486111,10.4705745 4.43854174,10.4223696 4.510106,10.3711416 C5.07495418,9.96680536 5.48731505,9.38692887 5.68795309,8.73269559 L5.58624069,9.06435571 L5.43970135,9.37879181 C5.61799464,8.99621983 5.71186778,8.57692006 5.71186778,8.15412186 C5.71186778,6.55428865 4.41494671,5.25736758 2.8151135,5.25736758 L10.0894652,5.25736758 C10.9842132,5.79636943 12.1393032,5.83746001 13.0993295,5.26534031 Z" id="形状结合"></path>
                </g>
            </g>
        </g>
    </g>
</svg>