<?xml version="1.0" encoding="UTF-8"?>
<svg width="72px" height="72px" viewBox="0 0 72 72" version="1.1" xmlns="http://www.w3.org/2000/svg" xmlns:xlink="http://www.w3.org/1999/xlink">
    <!-- Generator: Sketch 63.1 (92452) - https://sketch.com -->
    <title>报送审批</title>
    <desc>Created with Sketch.</desc>
    <g id="报送审批" stroke="none" stroke-width="1" fill="none" fill-rule="evenodd">
        <g id="编组" transform="translate(7.000000, 9.000000)" fill="#60759C" fill-rule="nonzero">
            <path d="M20.4522077,18.4646106 L14.2058824,30.1764706 L9.79411765,27.8235294 L17.1449355,14.0407459 C16.7281351,12.9400942 16.5,11.746689 16.5,10.5 C16.5,4.9771525 20.9771525,0.5 26.5,0.5 C32.0228475,0.5 36.5,4.9771525 36.5,10.5 C36.5,11.7874386 36.2567075,13.0180531 35.8135903,14.1483757 L40.2759162,23.9654926 L35.7240838,26.0345074 L32.3499028,18.6113092 C30.7050309,19.7996735 28.6843005,20.5 26.5,20.5 C24.2272799,20.5 22.1316404,19.7418281 20.4522077,18.4646106 Z M26.5,15.5 C29.2614237,15.5 31.5,13.2614237 31.5,10.5 C31.5,7.73857625 29.2614237,5.5 26.5,5.5 C23.7385763,5.5 21.5,7.73857625 21.5,10.5 C21.5,13.2614237 23.7385763,15.5 26.5,15.5 Z" id="形状结合"></path>
            <path d="M29,39.5 C29,40.3525181 29.0735724,41.1878524 29.2147143,42 L5,42 C2.23857625,42 0,39.7614237 0,37 L0,32 C0,29.2385763 2.23857625,27 5,27 L36.1469854,27 C31.8697981,29.5214502 29,34.1755865 29,39.5 Z M5,31 C4.44771525,31 4,31.4477153 4,32 L4,37 C4,37.5522847 4.44771525,38 5,38 L25.0603529,38 C25.2608036,35.5166261 25.9553077,33.1444096 27.0649466,31 L5,31 Z M30.0794696,45 C31.057787,47.3846674 32.6532053,49.4508928 34.6670483,51 L4,51 C2.34314575,51 1,49.6568542 1,48 C1,46.3431458 2.34314575,45 4,45 L30.0794696,45 Z" id="形状结合"></path>
            <path d="M44.5,51 C50.8512746,51 56,45.8512746 56,39.5 C56,33.1487254 50.8512746,28 44.5,28 C38.1487254,28 33,33.1487254 33,39.5 C33,45.8512746 38.1487254,51 44.5,51 Z M44.5,47 C40.3578644,47 37,43.6421356 37,39.5 C37,35.3578644 40.3578644,32 44.5,32 C48.6421356,32 52,35.3578644 52,39.5 C52,43.6421356 48.6421356,47 44.5,47 Z" id="椭圆形"></path>
            <path d="M41.7324844,38.2763919 C41.1052576,37.7352098 40.1580751,37.8049628 39.616893,38.4321896 C39.0757109,39.0594164 39.1454638,40.0065989 39.7726906,40.547781 L42.4406891,42.8497763 C43.4860671,43.7517465 45.0647046,43.6354915 45.9666748,42.5901136 C45.9881872,42.5649572 45.9881872,42.5649572 46.0092523,42.539425 L49.4030104,38.3887788 C49.9273958,37.7474431 49.8325888,36.8024394 49.1912531,36.2780541 C48.5499175,35.7536687 47.6049138,35.8484756 47.0805284,36.4898113 L44.0117586,40.2429891 L41.7324844,38.2763919 Z" id="路径-2"></path>
        </g>
    </g>
</svg>