<?xml version="1.0" encoding="UTF-8"?>
<svg width="72px" height="72px" viewBox="0 0 72 72" version="1.1" xmlns="http://www.w3.org/2000/svg" xmlns:xlink="http://www.w3.org/1999/xlink">
    <!-- Generator: Sketch 63.1 (92452) - https://sketch.com -->
    <title>预算外币折算</title>
    <desc>Created with Sketch.</desc>
    <g id="预算外币折算" stroke="none" stroke-width="1" fill="none" fill-rule="evenodd">
        <g id="编组-2" transform="translate(9.000000, 14.000000)" fill="#60759C" fill-rule="nonzero">
            <path d="M-1.02910976,16.8533808 L-2,16.1027624 L-2,8 C-2,2.20101013 2.70101013,-2.5 8.5,-2.5 L44.5,-2.5 C50.2989899,-2.5 55,2.20101013 55,8 L55,16.7792528 L54.3053204,17.5044295 C53.1525485,18.7078092 52.5,20.2993726 52.5,22 C52.5,23.7006274 53.1525485,25.2921908 54.3053204,26.4955705 L55,27.2207472 L55,36 C55,41.7989899 50.2989899,46.5 44.5,46.5 L8.5,46.5 C2.70101013,46.5 -2,41.7989899 -2,36 L-2,27.8972376 L-1.02910976,27.1466192 C0.556293457,25.9209063 1.5,24.0409264 1.5,22 C1.5,19.9590736 0.556293457,18.0790937 -1.02910976,16.8533808 Z M3,13.7382188 C5.20921935,15.8763588 6.5,18.833344 6.5,22 C6.5,25.166656 5.20921935,28.1236412 3,30.2617812 L3,36 C3,39.0375661 5.46243388,41.5 8.5,41.5 L44.5,41.5 C47.5375661,41.5 50,39.0375661 50,36 L50,29.1597006 C48.3974411,27.1481486 47.5,24.6421443 47.5,22 C47.5,19.3578557 48.3974411,16.8518514 50,14.8402994 L50,8 C50,4.96243388 47.5375661,2.5 44.5,2.5 L8.5,2.5 C5.46243388,2.5 3,4.96243388 3,8 L3,13.7382188 Z" id="形状结合"></path>
        </g>
        <g id="编组-3" transform="translate(20.592593, 21.444444)" fill="#60759C" fill-rule="nonzero">
            <g id="编组">
                <path d="M11.5543214,6.92592593 L28.4074074,6.92592593 C29.7369818,6.92592593 30.8148148,8.00375894 30.8148148,9.33333333 C30.8148148,10.6629077 29.7369818,11.7407407 28.4074074,11.7407407 L3.22222222,11.7407407 C1.89264782,11.7407407 0.814814815,10.6629077 0.814814815,9.33333333 C0.814814815,8.97038826 0.895131912,8.62620225 1.03896209,8.31757931 C1.17041403,7.8889456 1.43839694,7.49842614 1.83110355,7.21731429 C1.87926676,7.18283753 1.92885432,7.15039529 1.97973557,7.12007302 L12.0638787,1.11051131 C13.1903301,0.439211945 14.647695,0.808185528 15.3189943,1.93463687 C15.3245983,1.94404048 15.3301372,1.95348274 15.3356106,1.96296296 C16.0003978,3.11440817 15.6058836,4.58675544 14.4544384,5.25154264 L11.5543214,6.92592593 Z M4.53938608,11.4152086 C4.60856044,11.3739847 4.67597599,11.3298786 4.7414551,11.2830066 C5.25793815,10.9132916 5.63565567,10.3821319 5.81921981,9.78357255 L5.71750741,10.1152327 L5.57096807,10.4296688 C5.73069287,10.08694 5.81481481,9.71119557 5.81481481,9.33333333 C5.81481481,7.90148398 4.65407157,6.74074074 3.22222222,6.74074074 L12.3832198,6.74074074 L4.53938608,11.4152086 Z" id="形状结合"></path>
            </g>
            <g id="编组" transform="translate(15.500000, 23.555556) scale(-1, -1) translate(-15.500000, -23.555556) translate(0.000000, 17.555556)">
                <path d="M11.5543214,6.92592593 L28.4074074,6.92592593 C29.7369818,6.92592593 30.8148148,8.00375894 30.8148148,9.33333333 C30.8148148,10.6629077 29.7369818,11.7407407 28.4074074,11.7407407 L3.22222222,11.7407407 C1.89264782,11.7407407 0.814814815,10.6629077 0.814814815,9.33333333 C0.814814815,8.97038826 0.895131912,8.62620225 1.03896209,8.31757931 C1.17041403,7.8889456 1.43839694,7.49842614 1.83110355,7.21731429 C1.87926676,7.18283753 1.92885432,7.15039529 1.97973557,7.12007302 L12.0638787,1.11051131 C13.1903301,0.439211945 14.647695,0.808185528 15.3189943,1.93463687 C15.3245983,1.94404048 15.3301372,1.95348274 15.3356106,1.96296296 C16.0003978,3.11440817 15.6058836,4.58675544 14.4544384,5.25154264 L11.5543214,6.92592593 Z M4.53938608,11.4152086 C4.60856044,11.3739847 4.67597599,11.3298786 4.7414551,11.2830066 C5.25793815,10.9132916 5.63565567,10.3821319 5.81921981,9.78357255 L5.71750741,10.1152327 L5.57096807,10.4296688 C5.73069287,10.08694 5.81481481,9.71119557 5.81481481,9.33333333 C5.81481481,7.90148398 4.65407157,6.74074074 3.22222222,6.74074074 L12.3832198,6.74074074 L4.53938608,11.4152086 Z" id="形状结合"></path>
            </g>
        </g>
    </g>
</svg>