<?xml version="1.0" encoding="UTF-8"?>
<svg width="72px" height="72px" viewBox="0 0 72 72" version="1.1" xmlns="http://www.w3.org/2000/svg" xmlns:xlink="http://www.w3.org/1999/xlink">
    <!-- Generator: Sketch 63.1 (92452) - https://sketch.com -->
    <title>系统控制</title>
    <desc>Created with Sketch.</desc>
    <g id="系统控制" stroke="none" stroke-width="1" fill="none" fill-rule="evenodd">
        <path d="M59.5,46.6045476 L59.5,54.2962963 C59.5,57.1702225 57.1702225,59.5 54.2962963,59.5 L17.7037037,59.5 C14.8297775,59.5 12.5,57.1702225 12.5,54.2962963 L12.5,22.7037037 C12.5,19.8297775 14.8297775,17.5 17.7037037,17.5 L30,17.5 C31.3807119,17.5 32.5,16.3807119 32.5,15 C32.5,13.6192881 31.3807119,12.5 30,12.5 L17.7037037,12.5 C12.0683538,12.5 7.5,17.0683538 7.5,22.7037037 L7.5,54.2962963 C7.5,59.9316462 12.0683538,64.5 17.7037037,64.5 L54.2962963,64.5 C59.9316462,64.5 64.5,59.9316462 64.5,54.2962963 L64.5,46.6045476 C64.5,45.2238358 63.3807119,44.1045476 62,44.1045476 C60.6192881,44.1045476 59.5,45.2238358 59.5,46.6045476 Z" id="路径" fill="#60759C" fill-rule="nonzero" transform="translate(36.000000, 38.500000) scale(1, -1) translate(-36.000000, -38.500000) "></path>
        <path d="M22.5,40.0933449 L33.5,40.0933449 C34.8807119,40.0933449 36,41.212633 36,42.5933449 C36,43.9740567 34.8807119,45.0933449 33.5,45.0933449 L22.5,45.0933449 C21.1192881,45.0933449 20,43.9740567 20,42.5933449 C20,41.212633 21.1192881,40.0933449 22.5,40.0933449 Z M22.5,44.0933449 C23.3284271,44.0933449 24,43.421772 24,42.5933449 C24,41.7649177 23.3284271,41.0933449 22.5,41.0933449 L33.5,41.0933449 C32.6715729,41.0933449 32,41.7649177 32,42.5933449 C32,43.421772 32.6715729,44.0933449 33.5,44.0933449 L22.5,44.0933449 Z" id="矩形" fill="#60759C" fill-rule="nonzero" transform="translate(28.000000, 42.593345) scale(1, -1) translate(-28.000000, -42.593345) "></path>
        <g id="编组" transform="translate(41.000000, 37.000000)" fill="#60759C">
            <path d="M9.21647059,22.46 L12.8635294,22.46 C13.7894186,22.46 14.54,23.2105814 14.54,24.1364706 C14.54,25.0623597 13.7894186,25.8129412 12.8635294,25.8129412 L9.21647059,25.8129412 C8.29058145,25.8129412 7.54,25.0623597 7.54,24.1364706 C7.54,23.2105814 8.29058145,22.46 9.21647059,22.46 Z" id="矩形备份-4" transform="translate(11.040000, 24.136471) scale(1, -1) rotate(90.000000) translate(-11.040000, -24.136471) "></path>
            <path d="M5.68,25 L15.7317647,25 C16.6596031,25 17.4117647,25.7521616 17.4117647,26.68 C17.4117647,27.6078384 16.6596031,28.36 15.7317647,28.36 L5.68,28.36 C4.75216162,28.36 4,27.6078384 4,26.68 C4,25.7521616 4.75216162,25 5.68,25 Z M5.68,29.4 C7.18221452,29.4 8.4,28.1822145 8.4,26.68 C8.4,25.1777855 7.18221452,23.96 5.68,23.96 L15.7317647,23.96 C14.2295502,23.96 13.0117647,25.1777855 13.0117647,26.68 C13.0117647,28.1822145 14.2295502,29.4 15.7317647,29.4 L5.68,29.4 Z" id="矩形备份-4" fill-rule="nonzero" transform="translate(10.705882, 26.680000) scale(1, -1) translate(-10.705882, -26.680000) "></path>
            <path d="M11,22 C17.0751322,22 22,17.0751322 22,11 C22,4.92486775 17.0751322,0 11,0 C4.92486775,0 0,4.92486775 0,11 C0,17.0751322 4.92486775,22 11,22 Z M11,18 C7.13400675,18 4,14.8659932 4,11 C4,7.13400675 7.13400675,4 11,4 C14.8659932,4 18,7.13400675 18,11 C18,14.8659932 14.8659932,18 11,18 Z" id="椭圆形" fill-rule="nonzero"></path>
            <path d="M11,14.0534211 C12.6821996,14.0534211 14.045,12.6877516 14.045,11.0042105 C14.045,9.32066945 12.6821996,7.955 11,7.955 C9.3178004,7.955 7.955,9.32066945 7.955,11.0042105 C7.955,12.6877516 9.3178004,14.0534211 11,14.0534211 Z M11,11.9634211 C10.4730606,11.9634211 10.045,11.5344593 10.045,11.0042105 C10.045,10.4739618 10.4730606,10.045 11,10.045 C11.5269394,10.045 11.955,10.4739618 11.955,11.0042105 C11.955,11.5344593 11.5269394,11.9634211 11,11.9634211 Z" id="椭圆形" fill-rule="nonzero"></path>
        </g>
        <path d="M12.5,25.0933449 L59.5,25.0933449 C60.8807119,25.0933449 62,26.212633 62,27.5933449 C62,28.9740567 60.8807119,30.0933449 59.5,30.0933449 L12.5,30.0933449 C11.1192881,30.0933449 10,28.9740567 10,27.5933449 C10,26.212633 11.1192881,25.0933449 12.5,25.0933449 Z M12.5,29.0933449 C13.3284271,29.0933449 14,28.421772 14,27.5933449 C14,26.7649177 13.3284271,26.0933449 12.5,26.0933449 L59.5,26.0933449 C58.6715729,26.0933449 58,26.7649177 58,27.5933449 C58,28.421772 58.6715729,29.0933449 59.5,29.0933449 L12.5,29.0933449 Z" id="矩形备份" fill="#60759C" fill-rule="nonzero" transform="translate(36.000000, 27.593345) scale(1, -1) translate(-36.000000, -27.593345) "></path>
    </g>
</svg>