<?xml version="1.0" encoding="UTF-8"?>
<svg width="72px" height="72px" viewBox="0 0 72 72" version="1.1" xmlns="http://www.w3.org/2000/svg" xmlns:xlink="http://www.w3.org/1999/xlink">
    <!-- Generator: Sketch 63.1 (92452) - https://sketch.com -->
    <title>业务中心</title>
    <desc>Created with Sketch.</desc>
    <g id="业务中心" stroke="none" stroke-width="1" fill="none" fill-rule="evenodd">
        <g id="编组" transform="translate(9.000000, 9.000000)" fill="#60759C" fill-rule="nonzero">
            <path d="M29.568119,0.797297297 L7,0.797297297 C3.41014913,0.797297297 0.5,3.70744642 0.5,7.2972973 L0.5,48.5945946 C0.5,52.1844455 3.41014913,55.0945946 7,55.0945946 L44.4054054,55.0945946 C47.9952563,55.0945946 50.9054054,52.1844455 50.9054054,48.5945946 L50.9054054,19.1790403 C50.9054054,17.8352524 50.3048567,16.5617811 49.268022,15.7069478 L32.4307356,1.82520482 C31.6247565,1.16070379 30.6127069,0.797297297 29.568119,0.797297297 Z M29.3885791,5.7972973 L45.9054054,19.4148323 L45.9054054,48.5945946 C45.9054054,49.4230217 45.2338325,50.0945946 44.4054054,50.0945946 L7,50.0945946 C6.17157288,50.0945946 5.5,49.4230217 5.5,48.5945946 L5.5,7.2972973 C5.5,6.46887017 6.17157288,5.7972973 7,5.7972973 L29.3885791,5.7972973 Z" id="路径-5"></path>
            <path d="M27.7432432,2 L27.7432432,16.4594595 C27.7432432,20.6015951 31.1011076,23.9594595 35.2432432,23.9594595 L51,23.9594595 L51,18.9594595 L35.2432432,18.9594595 C33.8625314,18.9594595 32.7432432,17.8401713 32.7432432,16.4594595 L32.7432432,2 L27.7432432,2 Z" id="路径-6"></path>
        </g>
    </g>
</svg>