<?xml version="1.0" encoding="UTF-8"?>
<svg width="72px" height="72px" viewBox="0 0 72 72" version="1.1" xmlns="http://www.w3.org/2000/svg" xmlns:xlink="http://www.w3.org/1999/xlink">
    <!-- Generator: Sketch 63.1 (92452) - https://sketch.com -->
    <title>数据中心</title>
    <desc>Created with Sketch.</desc>
    <g id="数据中心" stroke="none" stroke-width="1" fill="none" fill-rule="evenodd">
        <g id="编组-2" transform="translate(8.000000, 9.000000)" fill="#60759C">
            <path d="M8,0.5 L48,0.5 C52.1421356,0.5 55.5,3.85786438 55.5,8 L55.5,36 C55.5,40.1421356 52.1421356,43.5 48,43.5 L8,43.5 C3.85786438,43.5 0.5,40.1421356 0.5,36 L0.5,8 C0.5,3.85786438 3.85786438,0.5 8,0.5 Z M8,5.5 C6.61928813,5.5 5.5,6.61928813 5.5,8 L5.5,36 C5.5,37.3807119 6.61928813,38.5 8,38.5 L48,38.5 C49.3807119,38.5 50.5,37.3807119 50.5,36 L50.5,8 C50.5,6.61928813 49.3807119,5.5 48,5.5 L8,5.5 Z" id="Rectangle-5" fill-rule="nonzero"></path>
            <rect id="Rectangle-5" transform="translate(28.000000, 44.500000) scale(1, -1) rotate(90.000000) translate(-28.000000, -44.500000) " x="22" y="42" width="12" height="5" rx="2.5"></rect>
            <path d="M27.9612513,45.0078131 C28.7397494,44.946239 29.5353936,45.2492799 30.0756137,45.8930892 C30.3071367,46.1690074 30.4688737,46.4802589 30.5627021,46.8053877 L36.7674717,52.0128232 C37.8251583,52.9003277 37.9631182,54.4772167 37.0756137,55.5349033 C36.1881093,56.59259 34.6112203,56.7305499 33.5535336,55.8430454 L27.83,51.04 L22.1070272,55.8430454 C21.0953269,56.6919627 19.6085909,56.602648 18.7045188,55.6676379 L18.5849471,55.5349033 C17.6974426,54.4772167 17.8354025,52.9003277 18.8930892,52.0128232 L18.8930892,52.0128232 L25.0975729,46.806379 C25.1913585,46.4808916 25.3531889,46.1692878 25.5849471,45.8930892 C26.1556185,45.2129895 27.0113213,44.9131579 27.8307452,45.0217055 Z" id="形状结合"></path>
        </g>
        <path d="M19.0898641,33.2862839 L29.833373,28.0821435 C30.0080796,27.9975159 30.2159797,28.0216598 30.3666422,28.144073 L38.1775902,34.4904683 C40.1076984,36.0586813 42.8499797,36.1366262 44.8660477,34.6805771 L55.4637264,27.0266981 C56.5830408,26.2183043 56.8350918,24.6555881 56.0266981,23.5362736 C55.2183043,22.4169592 53.6555881,22.1649082 52.5362736,22.9733019 L41.938595,30.627181 C41.755316,30.7595491 41.5060178,30.7524632 41.3305534,30.6098983 L33.5196053,24.263503 C31.8623178,22.916957 29.5754166,22.651375 27.6536449,23.5822785 L16.9101359,28.7864189 C15.6675325,29.3883342 15.1481522,30.8836121 15.7500675,32.1262155 C16.3519828,33.3688189 17.8472607,33.8881992 19.0898641,33.2862839 Z" id="路径-12" fill="#60759C" fill-rule="nonzero" transform="translate(35.999806, 29.110832) scale(-1, -1) translate(-35.999806, -29.110832) "></path>
    </g>
</svg>