<?xml version="1.0" encoding="UTF-8"?>
<svg width="72px" height="72px" viewBox="0 0 72 72" version="1.1" xmlns="http://www.w3.org/2000/svg" xmlns:xlink="http://www.w3.org/1999/xlink">
    <!-- Generator: Sketch 63.1 (92452) - https://sketch.com -->
    <title>审核审批</title>
    <desc>Created with Sketch.</desc>
    <g id="审核审批" stroke="none" stroke-width="1" fill="none" fill-rule="evenodd">
        <g id="编组" transform="translate(42.000000, 36.000000)" fill="#60759C" fill-rule="nonzero">
            <path d="M11.5,25 C18.9558441,25 25,18.9558441 25,11.5 C25,4.04415588 18.9558441,-2 11.5,-2 C4.04415588,-2 -2,4.04415588 -2,11.5 C-2,18.9558441 4.04415588,25 11.5,25 Z M11.5,21 C6.25329488,21 2,16.7467051 2,11.5 C2,6.25329488 6.25329488,2 11.5,2 C16.7467051,2 21,6.25329488 21,11.5 C21,16.7467051 16.7467051,21 11.5,21 Z" id="椭圆形"></path>
            <path d="M7.94355545,10.2578838 C7.31632868,9.71670172 6.36914613,9.7864547 5.82796402,10.4136815 C5.28678191,11.0409082 5.35653489,11.9880908 5.98376166,12.5292729 L9.37711747,15.457119 C10.4224954,16.3590892 12.001133,16.2428342 12.9031032,15.1974563 C12.9246156,15.1722999 12.9246156,15.1722999 12.9456806,15.1467677 L17.1907513,9.95494615 C17.7151367,9.31361046 17.6203298,8.36860682 16.9789941,7.84422143 C16.3376584,7.31983604 15.3926547,7.41464299 14.8682693,8.05597868 L10.9481869,12.8503319 L7.94355545,10.2578838 Z" id="路径-2"></path>
        </g>
        <path d="M57.5,43.4808652 L57.5,51.7407407 C57.5,54.3692071 55.3692071,56.5 52.7407407,56.5 L18.2592593,56.5 C15.6307929,56.5 13.5,54.3692071 13.5,51.7407407 L13.5,17.2592593 C13.5,14.6307929 15.6307929,12.5 18.2592593,12.5 L32.1510945,12.5 C33.5318063,12.5 34.6510945,11.3807119 34.6510945,10 C34.6510945,8.61928813 33.5318063,7.5 32.1510945,7.5 L18.2592593,7.5 C12.8693692,7.5 8.5,11.8693692 8.5,17.2592593 L8.5,51.7407407 C8.5,57.1306308 12.8693692,61.5 18.2592593,61.5 L52.7407407,61.5 C58.1306308,61.5 62.5,57.1306308 62.5,51.7407407 L62.5,43.4808652 C62.5,42.1001534 61.3807119,40.9808652 60,40.9808652 C58.6192881,40.9808652 57.5,42.1001534 57.5,43.4808652 Z" id="路径" fill="#60759C" fill-rule="nonzero" transform="translate(35.500000, 34.500000) scale(1, -1) translate(-35.500000, -34.500000) "></path>
        <rect id="矩形" fill="#60759C" x="21" y="23" width="21" height="5" rx="2.5"></rect>
        <rect id="矩形备份" fill="#60759C" x="21" y="36" width="9" height="5" rx="2.5"></rect>
    </g>
</svg>