<?xml version="1.0" encoding="UTF-8"?>
<svg width="72px" height="72px" viewBox="0 0 72 72" version="1.1" xmlns="http://www.w3.org/2000/svg" xmlns:xlink="http://www.w3.org/1999/xlink">
    <!-- Generator: Sketch 63.1 (92452) - https://sketch.com -->
    <title>对账</title>
    <desc>Created with Sketch.</desc>
    <g id="对账" stroke="none" stroke-width="1" fill="none" fill-rule="evenodd">
        <g id="现金" transform="translate(27.000000, 23.000000)" fill="#60759C" fill-rule="nonzero">
            <g id="时间轴-羊角标">
                <path d="M18.4410517,17.5666513 C18.712752,17.9088107 18.8684562,18.3175317 18.9029418,18.7928117 C18.8684567,19.2868123 18.7127515,19.6996923 18.4410517,20.0304132 C18.1683054,20.3632135 17.79733,20.5472932 17.3229004,20.5868138 L12.0895262,20.5587338 L12.0895262,23.5789013 C12.0184661,25.1929827 11.1720146,26.0000247 9.5543522,26.0000247 C8.75492627,26.0000247 8.13315055,25.8024244 7.68797901,25.402024 C7.24071798,25.003703 7.0003677,24.3963433 6.96588215,23.5789013 L6.96588215,20.6148979 L1.7032448,20.6148979 C1.21418372,20.5774579 0.83589379,20.3632176 0.573597464,19.9742561 L0.573597417,19.9742561 C0.310502543,19.5874929 0.146213351,19.1426817 0.0949863501,18.6784135 C0.150371415,18.204172 0.309211599,17.8152125 0.573597417,17.5104917 C0.834847721,17.2068118 1.21418367,17.0352116 1.70324475,16.9967321 L6.9658821,16.9967321 L6.9658821,14.1616878 L1.70324475,14.1336077 C1.21418367,14.0951277 0.835893743,13.9152075 0.573597417,13.5928071 C0.309211599,13.2683272 0.150371925,12.8596063 0.0949863501,12.3656057 C0.150371415,11.8913641 0.309211599,11.5024047 0.573597417,11.1976838 C0.834847721,10.894004 1.21418367,10.7234423 1.70324475,10.6849627 L5.62932146,10.6849627 L1.9760013,3.96240607 L1.97600131,3.96240608 C1.76965745,3.6937628 1.59569587,3.40195563 1.45767969,3.09296406 L1.45767961,3.0929639 C1.29273883,2.73124102 1.21816488,2.33517727 1.24031936,1.93856256 C1.33018947,1.40608244 1.5130657,0.974481942 1.78371999,0.641681554 C2.0575098,0.309922184 2.56747091,0.0956809189 3.31151126,0.00103979317 C3.74727626,0.0384798367 4.13915171,0.196560021 4.48400212,0.472160849 C4.82885252,0.746720153 5.11100284,1.04624101 5.3304531,1.36864138 L9.47282669,9.29032248 L14.0248581,1.31247726 C14.2422184,0.990076882 14.5254127,0.704076549 14.8713091,0.45759677 C15.2161595,0.207996733 15.6059455,0.0571963038 16.0417105,-3.76273286e-06 C16.3155003,0.0187162591 16.5642111,0.0571963038 16.7920218,0.113356369 C17.0166971,0.171596437 17.2183829,0.266236547 17.3918515,0.400397719 C17.5632317,0.532477873 17.7095309,0.722798094 17.8276165,0.969277873 C17.9457017,1.21575816 18.0303468,1.53919904 18.0857313,1.93855849 C18.0857313,2.48975913 17.9049461,3.01183923 17.5412847,3.50583981 L13.3163519,10.6860122 L17.3239418,10.6860122 C17.7962818,10.7234523 18.1693467,10.8950525 18.4400036,11.1987333 C18.7117039,11.5034542 18.867408,11.8924136 18.9039831,12.3666552 C18.867408,12.8616968 18.7085679,13.2797768 18.4274615,13.6208977 C18.1453112,13.9620186 17.7691107,14.1512983 17.2957247,14.1908188 L12.0884755,14.2188989 L12.0884755,16.996738 L17.3218497,16.996738 C17.7962792,17.0352181 18.1672547,17.2255383 18.440001,17.5666592 L18.4410517,17.5666513 Z" id="路径"></path>
            </g>
        </g>
        <path d="M64.6000956,43.8603068 C64.2374875,45.1925533 62.8635364,45.9786004 61.5312899,45.6159923 C60.1990435,45.2533842 59.4129963,43.8794331 59.7756044,42.5471866 C60.2893387,40.6596927 60.5,38.8471303 60.5,36.5 C60.5,23.245166 49.754834,12.5 36.5,12.5 C28.0387919,12.5 20.3416086,16.9117666 16.0076486,24.0001469 C15.2874136,25.1781226 13.7486098,25.5491948 12.5706341,24.8289598 C11.3926583,24.1087248 11.0215862,22.5699209 11.7418212,21.3919452 C16.9750157,12.8328276 26.2791688,7.5 36.5,7.5 C52.5162577,7.5 65.5,20.4837423 65.5,36.5 C65.5,39.2660713 65.2387619,41.5138045 64.6000956,43.8603068 Z M7.5,36.5 C7.5,35.1192881 8.61928813,34 10,34 C11.3807119,34 12.5,35.1192881 12.5,36.5 C12.5,49.754834 23.245166,60.5 36.5,60.5 C42.8728267,60.5 48.8459692,58.0084033 53.3050167,53.6345204 C54.2906949,52.6676679 55.8735338,52.6829292 56.8403862,53.6686074 C57.8072387,54.6542856 57.7919774,56.2371245 56.8062992,57.203977 C51.4216902,62.4857439 44.1955684,65.5 36.5,65.5 C20.4837423,65.5 7.5,52.5162577 7.5,36.5 Z" id="形状" fill="#60759C" fill-rule="nonzero" transform="translate(36.500000, 36.500000) rotate(-23.000000) translate(-36.500000, -36.500000) "></path>
    </g>
</svg>