<?xml version="1.0" encoding="UTF-8"?>
<svg width="72px" height="72px" viewBox="0 0 72 72" version="1.1" xmlns="http://www.w3.org/2000/svg" xmlns:xlink="http://www.w3.org/1999/xlink">
    <!-- Generator: Sketch 63.1 (92452) - https://sketch.com -->
    <title>调整</title>
    <desc>Created with Sketch.</desc>
    <g id="调整" stroke="none" stroke-width="1" fill="none" fill-rule="evenodd">
        <path d="M64.6000956,43.8603068 C64.2374875,45.1925533 62.8635364,45.9786004 61.5312899,45.6159923 C60.1990435,45.2533842 59.4129963,43.8794331 59.7756044,42.5471866 C60.2893387,40.6596927 60.5,38.8471303 60.5,36.5 C60.5,23.245166 49.754834,12.5 36.5,12.5 C28.0387919,12.5 20.3416086,16.9117666 16.0076486,24.0001469 C15.2874136,25.1781226 13.7486098,25.5491948 12.5706341,24.8289598 C11.3926583,24.1087248 11.0215862,22.5699209 11.7418212,21.3919452 C16.9750157,12.8328276 26.2791688,7.5 36.5,7.5 C52.5162577,7.5 65.5,20.4837423 65.5,36.5 C65.5,39.2660713 65.2387619,41.5138045 64.6000956,43.8603068 Z M7.5,36.5 C7.5,35.1192881 8.61928813,34 10,34 C11.3807119,34 12.5,35.1192881 12.5,36.5 C12.5,49.754834 23.245166,60.5 36.5,60.5 C42.8728267,60.5 48.8459692,58.0084033 53.3050167,53.6345204 C54.2906949,52.6676679 55.8735338,52.6829292 56.8403862,53.6686074 C57.8072387,54.6542856 57.7919774,56.2371245 56.8062992,57.203977 C51.4216902,62.4857439 44.1955684,65.5 36.5,65.5 C20.4837423,65.5 7.5,52.5162577 7.5,36.5 Z" id="形状" fill="#60759C" fill-rule="nonzero" transform="translate(36.500000, 36.500000) rotate(-23.000000) translate(-36.500000, -36.500000) "></path>
        <g id="编组-3" transform="translate(20.592593, 21.444444)" fill="#60759C" fill-rule="nonzero">
            <g id="编组">
                <path d="M11.5543214,6.92592593 L28.4074074,6.92592593 C29.7369818,6.92592593 30.8148148,8.00375894 30.8148148,9.33333333 C30.8148148,10.6629077 29.7369818,11.7407407 28.4074074,11.7407407 L3.22222222,11.7407407 C1.89264782,11.7407407 0.814814815,10.6629077 0.814814815,9.33333333 C0.814814815,8.97038826 0.895131912,8.62620225 1.03896209,8.31757931 C1.17041403,7.8889456 1.43839694,7.49842614 1.83110355,7.21731429 C1.87926676,7.18283753 1.92885432,7.15039529 1.97973557,7.12007302 L12.0638787,1.11051131 C13.1903301,0.439211945 14.647695,0.808185528 15.3189943,1.93463687 C15.3245983,1.94404048 15.3301372,1.95348274 15.3356106,1.96296296 C16.0003978,3.11440817 15.6058836,4.58675544 14.4544384,5.25154264 L11.5543214,6.92592593 Z M4.53938608,11.4152086 C4.60856044,11.3739847 4.67597599,11.3298786 4.7414551,11.2830066 C5.25793815,10.9132916 5.63565567,10.3821319 5.81921981,9.78357255 L5.71750741,10.1152327 L5.57096807,10.4296688 C5.73069287,10.08694 5.81481481,9.71119557 5.81481481,9.33333333 C5.81481481,7.90148398 4.65407157,6.74074074 3.22222222,6.74074074 L12.3832198,6.74074074 L4.53938608,11.4152086 Z" id="形状结合"></path>
            </g>
            <g id="编组" transform="translate(15.500000, 23.555556) scale(-1, -1) translate(-15.500000, -23.555556) translate(0.000000, 17.555556)">
                <path d="M11.5543214,6.92592593 L28.4074074,6.92592593 C29.7369818,6.92592593 30.8148148,8.00375894 30.8148148,9.33333333 C30.8148148,10.6629077 29.7369818,11.7407407 28.4074074,11.7407407 L3.22222222,11.7407407 C1.89264782,11.7407407 0.814814815,10.6629077 0.814814815,9.33333333 C0.814814815,8.97038826 0.895131912,8.62620225 1.03896209,8.31757931 C1.17041403,7.8889456 1.43839694,7.49842614 1.83110355,7.21731429 C1.87926676,7.18283753 1.92885432,7.15039529 1.97973557,7.12007302 L12.0638787,1.11051131 C13.1903301,0.439211945 14.647695,0.808185528 15.3189943,1.93463687 C15.3245983,1.94404048 15.3301372,1.95348274 15.3356106,1.96296296 C16.0003978,3.11440817 15.6058836,4.58675544 14.4544384,5.25154264 L11.5543214,6.92592593 Z M12.3832198,6.74074074 L4.53938608,11.4152086 C4.60856044,11.3739847 4.67597599,11.3298786 4.7414551,11.2830066 C5.25793815,10.9132916 5.63565567,10.3821319 5.81921981,9.78357255 L5.71750741,10.1152327 L5.57096807,10.4296688 C5.73069287,10.08694 5.81481481,9.71119557 5.81481481,9.33333333 C5.81481481,7.90148398 4.65407157,6.74074074 3.22222222,6.74074074 L12.3832198,6.74074074 Z" id="形状结合"></path>
            </g>
        </g>
    </g>
</svg>