<?xml version="1.0" encoding="UTF-8"?>
<svg width="72px" height="72px" viewBox="0 0 72 72" version="1.1" xmlns="http://www.w3.org/2000/svg" xmlns:xlink="http://www.w3.org/1999/xlink">
    <!-- Generator: Sketch 63.1 (92452) - https://sketch.com -->
    <title>外系统采集平台</title>
    <desc>Created with Sketch.</desc>
    <g id="外系统采集平台" stroke="none" stroke-width="1" fill="none" fill-rule="evenodd">
        <g id="编组-2" transform="translate(12.000000, 12.000000)" fill="#60759C" fill-rule="nonzero">
            <path d="M5,-2.5 L15,-2.5 C19.1421356,-2.5 22.5,0.857864376 22.5,5 L22.5,15 C22.5,19.1421356 19.1421356,22.5 15,22.5 L5,22.5 C0.857864376,22.5 -2.5,19.1421356 -2.5,15 L-2.5,5 C-2.5,0.857864376 0.857864376,-2.5 5,-2.5 Z M5,2.5 C3.61928813,2.5 2.5,3.61928813 2.5,5 L2.5,15 C2.5,16.3807119 3.61928813,17.5 5,17.5 L15,17.5 C16.3807119,17.5 17.5,16.3807119 17.5,15 L17.5,5 C17.5,3.61928813 16.3807119,2.5 15,2.5 L5,2.5 Z" id="Rectangle-5"></path>
            <path d="M33,-2.5 L43,-2.5 C47.1421356,-2.5 50.5,0.857864376 50.5,5 L50.5,15 C50.5,19.1421356 47.1421356,22.5 43,22.5 L33,22.5 C28.8578644,22.5 25.5,19.1421356 25.5,15 L25.5,5 C25.5,0.857864376 28.8578644,-2.5 33,-2.5 Z M33,2.5 C31.6192881,2.5 30.5,3.61928813 30.5,5 L30.5,15 C30.5,16.3807119 31.6192881,17.5 33,17.5 L43,17.5 C44.3807119,17.5 45.5,16.3807119 45.5,15 L45.5,5 C45.5,3.61928813 44.3807119,2.5 43,2.5 L33,2.5 Z" id="Rectangle-5"></path>
            <path d="M5,25.5 L15,25.5 C19.1421356,25.5 22.5,28.8578644 22.5,33 L22.5,43 C22.5,47.1421356 19.1421356,50.5 15,50.5 L5,50.5 C0.857864376,50.5 -2.5,47.1421356 -2.5,43 L-2.5,33 C-2.5,28.8578644 0.857864376,25.5 5,25.5 Z M5,30.5 C3.61928813,30.5 2.5,31.6192881 2.5,33 L2.5,43 C2.5,44.3807119 3.61928813,45.5 5,45.5 L15,45.5 C16.3807119,45.5 17.5,44.3807119 17.5,43 L17.5,33 C17.5,31.6192881 16.3807119,30.5 15,30.5 L5,30.5 Z" id="Rectangle-5"></path>
        </g>
        <path d="M63,51.4039439 C63,52.169807 62.6576754,52.8639291 62.1183239,53.3394478 L53.3179182,61.1389313 C52.848553,61.5498456 52.227424,61.8 51.5500016,61.8 C50.087895,61.8 48.9038321,60.6386225 48.9038321,59.2030518 C48.9038321,58.4285498 49.2461568,57.7430666 49.7855083,57.2675479 L53.4731053,54.0012677 L41.6381819,54.0012677 C40.1806396,54.0012677 39,52.8398902 39,51.3960561 C39,49.9604854 40.1806396,48.7991079 41.6381819,48.7991079 L53.4731053,48.7991079 L49.7855083,45.5324521 C49.2461568,45.0565578 48.9038321,44.366943 48.9038321,43.5973238 C48.9038321,42.1613775 50.087895,41 51.5500016,41 C52.227424,41 52.848553,41.2501544 53.3179182,41.669332 L62.1183239,49.46844 C62.657295,49.9439587 63,50.6377052 63,51.4039439" id="路径" fill="#60759C"></path>
    </g>
</svg>