<?xml version="1.0" encoding="UTF-8"?>
<svg width="72px" height="72px" viewBox="0 0 72 72" version="1.1" xmlns="http://www.w3.org/2000/svg" xmlns:xlink="http://www.w3.org/1999/xlink">
    <!-- Generator: Sketch 63.1 (92452) - https://sketch.com -->
    <title>报表数据处理</title>
    <desc>Created with Sketch.</desc>
    <g id="报表数据处理" stroke="none" stroke-width="1" fill="none" fill-rule="evenodd">
        <g id="编组-25" transform="translate(34.000000, 41.500000) scale(1, -1) rotate(90.000000) translate(-34.000000, -41.500000) translate(16.500000, 18.500000)" fill="#60759C" fill-rule="nonzero">
            <path d="M3,0 L30,0 C31.6568542,0 33,1.34314575 33,3 C33,4.65685425 31.6568542,6 30,6 L3,6 C1.34314575,6 0,4.65685425 0,3 C0,1.34314575 1.34314575,0 3,0 Z M3,4 C3.55228475,4 4,3.55228475 4,3 C4,2.44771525 3.55228475,2 3,2 L30,2 C29.4477153,2 29,2.44771525 29,3 C29,3.55228475 29.4477153,4 30,4 L3,4 Z" id="矩形"></path>
            <path d="M3,13 L14,13 C15.6568542,13 17,14.3431458 17,16 C17,17.6568542 15.6568542,19 14,19 L3,19 C1.34314575,19 -6.123234e-17,17.6568542 -6.123234e-17,16 C-6.123234e-17,14.3431458 1.34314575,13 3,13 Z M3,17 C3.55228475,17 4,16.5522847 4,16 C4,15.4477153 3.55228475,15 3,15 L14,15 C13.4477153,15 13,15.4477153 13,16 C13,16.5522847 13.4477153,17 14,17 L3,17 Z" id="矩形"></path>
            <path d="M3,40 L21,40 C22.6568542,40 24,41.3431458 24,43 C24,44.6568542 22.6568542,46 21,46 L3,46 C1.34314575,46 0,44.6568542 0,43 C0,41.3431458 1.34314575,40 3,40 Z M3,44 C3.55228475,44 4,43.5522847 4,43 C4,42.4477153 3.55228475,42 3,42 L21,42 C20.4477153,42 20,42.4477153 20,43 C20,43.5522847 20.4477153,44 21,44 L3,44 Z" id="矩形备份-2"></path>
            <path d="M3,27 L32,27 C33.6568542,27 35,28.3431458 35,30 C35,31.6568542 33.6568542,33 32,33 L3,33 C1.34314575,33 6.123234e-17,31.6568542 6.123234e-17,30 C6.123234e-17,28.3431458 1.34314575,27 3,27 Z M3,31 C3.55228475,31 4,30.5522847 4,30 C4,29.4477153 3.55228475,29 3,29 L32,29 C31.4477153,29 31,29.4477153 31,30 C31,30.5522847 31.4477153,31 32,31 L3,31 Z" id="矩形备份"></path>
        </g>
        <path d="M13.0506111,24.2685273 L26.9694389,17.8223739 C27.1391687,17.7437678 27.338579,17.7664713 27.4862949,17.8812194 L38.1533529,26.167567 C40.0480774,27.6394205 42.6782589,27.7132426 44.6525574,26.3499823 L58.420515,16.8431575 C59.556684,16.0586287 59.8417446,14.5015955 59.0572159,13.3654266 C58.2726871,12.2292577 56.7156539,11.944197 55.579485,12.7287258 L41.8115274,22.2355506 C41.6320457,22.3594833 41.3929383,22.3527722 41.2206906,22.2189674 L30.5536326,13.9326198 C28.9287578,12.67039 26.7352446,12.4206524 24.8682167,13.2853192 L10.9493889,19.7314727 C9.69651583,20.3117092 9.15123616,21.7977381 9.73147266,23.0506111 C10.3117092,24.3034842 11.7977381,24.8487638 13.0506111,24.2685273 Z" id="路径-12" fill="#60759C" fill-rule="nonzero"></path>
    </g>
</svg>