<?xml version="1.0" encoding="UTF-8"?>
<svg width="72px" height="72px" viewBox="0 0 72 72" version="1.1" xmlns="http://www.w3.org/2000/svg" xmlns:xlink="http://www.w3.org/1999/xlink">
    <!-- Generator: Sketch 63.1 (92452) - https://sketch.com -->
    <title>数据查询</title>
    <desc>Created with Sketch.</desc>
    <g id="数据查询" stroke="none" stroke-width="1" fill="none" fill-rule="evenodd">
        <g id="编组-2" transform="translate(11.000000, 10.000000)" fill="#60759C">
            <path d="M46.5,33.2249371 L46.5,41.7407407 C46.5,44.3692071 44.3692071,46.5 41.7407407,46.5 L7.25925926,46.5 C4.63079295,46.5 2.5,44.3692071 2.5,41.7407407 L2.5,7.25925926 C2.5,4.63079295 4.63079295,2.5 7.25925926,2.5 L14.4967608,2.5 C15.8774727,2.5 16.9967608,1.38071187 16.9967608,0 C16.9967608,-1.38071187 15.8774727,-2.5 14.4967608,-2.5 L7.25925926,-2.5 C1.8693692,-2.5 -2.5,1.8693692 -2.5,7.25925926 L-2.5,41.7407407 C-2.5,47.1306308 1.8693692,51.5 7.25925926,51.5 L41.7407407,51.5 C47.1306308,51.5 51.5,47.1306308 51.5,41.7407407 L51.5,33.2249371 C51.5,31.8442252 50.3807119,30.7249371 49,30.7249371 C47.6192881,30.7249371 46.5,31.8442252 46.5,33.2249371 Z" id="路径" fill-rule="nonzero" transform="translate(24.500000, 24.500000) scale(1, -1) translate(-24.500000, -24.500000) "></path>
            <g id="编组" transform="translate(36.037725, 38.994362) rotate(-17.000000) translate(-36.037725, -38.994362) translate(22.037725, 18.994362)">
                <path d="M22.0710129,22.8577802 C23.3181075,22.8577802 24.3290774,23.8687501 24.3290774,25.1158447 L24.3290774,36.8577802 C24.3290774,38.1048748 23.3181075,39.1158447 22.0710129,39.1158447 C20.8239183,39.1158447 19.8129483,38.1048748 19.8129483,36.8577802 L19.8129483,25.1158447 C19.8129483,23.8687501 20.8239183,22.8577802 22.0710129,22.8577802 Z" id="矩形" transform="translate(22.071013, 30.986812) rotate(-29.000000) translate(-22.071013, -30.986812) "></path>
                <path d="M12.9065924,27.7330195 C21.0216151,27.7330195 27.6001408,21.1544938 27.6001408,13.0394711 C27.6001408,4.92444843 21.0216151,-1.65407726 12.9065924,-1.65407726 C4.7915697,-1.65407726 -1.78695599,4.92444843 -1.78695599,13.0394711 C-1.78695599,21.1544938 4.7915697,27.7330195 12.9065924,27.7330195 Z M12.9065924,22.7330195 C7.55299345,22.7330195 3.21304401,18.3930701 3.21304401,13.0394711 C3.21304401,7.68587218 7.55299345,3.34592274 12.9065924,3.34592274 C18.2601913,3.34592274 22.6001408,7.68587218 22.6001408,13.0394711 C22.6001408,18.3930701 18.2601913,22.7330195 12.9065924,22.7330195 Z" id="椭圆形" fill-rule="nonzero"></path>
            </g>
        </g>
    </g>
</svg>