<?xml version="1.0" encoding="UTF-8"?>
<svg width="72px" height="72px" viewBox="0 0 72 72" version="1.1" xmlns="http://www.w3.org/2000/svg" xmlns:xlink="http://www.w3.org/1999/xlink">
    <!-- Generator: Sketch 63.1 (92452) - https://sketch.com -->
    <title>外币报表折算</title>
    <desc>Created with Sketch.</desc>
    <g id="外币报表折算" stroke="none" stroke-width="1" fill="none" fill-rule="evenodd">
        <g id="编组-25" transform="translate(34.500000, 33.000000) scale(1, -1) rotate(90.000000) translate(-34.500000, -33.000000) translate(8.500000, 6.500000)" fill="#60759C" fill-rule="nonzero">
            <path d="M3,4 L6,4 C7.65685425,4 9,5.34314575 9,7 C9,8.65685425 7.65685425,10 6,10 L3,10 C1.34314575,10 0,8.65685425 0,7 C0,5.34314575 1.34314575,4 3,4 Z M3,8 C3.55228475,8 4,7.55228475 4,7 C4,6.44771525 3.55228475,6 3,6 L6,6 C5.44771525,6 5,6.44771525 5,7 C5,7.55228475 5.44771525,8 6,8 L3,8 Z" id="矩形"></path>
            <path d="M3,17 L12,17 C13.6568542,17 15,18.3431458 15,20 C15,21.6568542 13.6568542,23 12,23 L3,23 C1.34314575,23 0,21.6568542 0,20 C0,18.3431458 1.34314575,17 3,17 Z M3,21 C3.55228475,21 4,20.5522847 4,20 C4,19.4477153 3.55228475,19 3,19 L12,19 C11.4477153,19 11,19.4477153 11,20 C11,20.5522847 11.4477153,21 12,21 L3,21 Z" id="矩形"></path>
            <path d="M3,47 L49,47 C50.6568542,47 52,48.3431458 52,50 C52,51.6568542 50.6568542,53 49,53 L3,53 C1.34314575,53 0,51.6568542 0,50 C0,48.3431458 1.34314575,47 3,47 Z M3,51 C3.55228475,51 4,50.5522847 4,50 C4,49.4477153 3.55228475,49 3,49 L49,49 C48.4477153,49 48,49.4477153 48,50 C48,50.5522847 48.4477153,51 49,51 L3,51 Z" id="矩形备份-2"></path>
            <path d="M-20,23 L26,23 C27.6568542,23 29,24.3431458 29,26 C29,27.6568542 27.6568542,29 26,29 L-20,29 C-21.6568542,29 -23,27.6568542 -23,26 C-23,24.3431458 -21.6568542,23 -20,23 Z M-20,27 C-19.4477153,27 -19,26.5522847 -19,26 C-19,25.4477153 -19.4477153,25 -20,25 L26,25 C25.4477153,25 25,25.4477153 25,26 C25,26.5522847 25.4477153,27 26,27 L-20,27 Z" id="矩形备份-2" transform="translate(3.000000, 26.000000) rotate(90.000000) translate(-3.000000, -26.000000) "></path>
            <path d="M3,31 L26,31 C27.6568542,31 29,32.3431458 29,34 C29,35.6568542 27.6568542,37 26,37 L3,37 C1.34314575,37 0,35.6568542 0,34 C0,32.3431458 1.34314575,31 3,31 Z M3,35 C3.55228475,35 4,34.5522847 4,34 C4,33.4477153 3.55228475,33 3,33 L26,33 C25.4477153,33 25,33.4477153 25,34 C25,34.5522847 25.4477153,35 26,35 L3,35 Z" id="矩形备份"></path>
        </g>
        <path d="M12.9033409,24.9093039 L27.0486202,19.4277415 C27.1984504,19.3696795 27.3670557,19.387165 27.5017826,19.4747374 L38.5179338,26.6352358 C40.2532378,27.7631834 42.4748391,27.8214648 44.2668965,26.7860538 L58.250694,18.7065264 C59.4462042,18.0157871 59.8554019,16.4866799 59.1646627,15.2911697 C58.4739235,14.0956595 56.9448162,13.6864618 55.749306,14.377201 L41.7655085,22.4567284 C41.6025942,22.5508567 41.4006305,22.5455584 41.2428756,22.4430177 L30.2267243,15.2825194 C28.7447284,14.319222 26.8900703,14.1268816 25.2419384,14.7655638 L11.0966591,20.2471262 C9.80923429,20.7460276 9.17000975,22.1941312 9.66891115,23.481556 C10.1678125,24.7689808 11.6159161,25.4082053 12.9033409,24.9093039 Z" id="路径-12" fill="#60759C" fill-rule="nonzero" transform="translate(34.499872, 20.782623) scale(-1, -1) translate(-34.499872, -20.782623) "></path>
        <g id="外币" transform="translate(44.000000, 28.000000)" fill="#60759C" fill-rule="nonzero">
            <path d="M8,0 L8,0 C3.58171875,0 0,3.58171875 0,8 C0,12.4182813 3.58171875,16 8,16 C12.4182812,16 16,12.4182813 16,8 L16,8 C16,3.58171875 12.4182812,0 8,0 L8,0 Z M10.9420003,11.484 L10.9420004,11.4839999 C10.4305801,12.0670109 9.70881602,12.4233984 8.93500039,12.4749999 C8.82900039,12.4929999 8.72300039,12.4989999 8.61700039,12.5069999 L8.61700039,13.6409999 L7.61700039,13.6409999 L7.61700039,12.4799999 L7.6170002,12.4799999 C7.0746877,12.4397832 6.54446582,12.2997687 6.0530002,12.0669999 L6.05300054,12.0670002 C5.73467554,11.857547 5.46245366,11.5853252 5.25300054,11.2670002 L5.25300066,11.2670003 C5.03512566,10.9170144 4.88580534,10.5287832 4.81300066,10.1230003 L4.77300066,9.53100035 L6.21300066,9.53100035 L6.21300064,9.53100014 C6.25483986,10.089147 6.49999595,10.6125501 6.90200064,11.0020001 L6.90200067,11.0020002 C7.34666004,11.2269002 7.84594285,11.3212095 8.34200067,11.2740002 L8.34200062,11.2740002 C8.87738812,11.2408745 9.38056624,11.0069627 9.75100062,10.6190002 L9.75100061,10.6190002 C10.0613662,10.1252283 9.91268499,9.47334704 9.41891311,9.16298142 C9.38632124,9.14249548 9.35263358,9.12380704 9.31800092,9.10699985 L9.3180022,9.10700052 C8.49142564,8.67815677 7.62195532,8.33760989 6.7240022,8.09100052 L6.72400246,8.0910006 C6.17862746,7.9150881 5.68086652,7.61643185 5.26900246,7.2180006 L5.26900242,7.21800054 C4.99092898,6.81860054 4.83778367,6.34558961 4.82900242,5.85900054 L4.82900234,5.85899969 C4.75385703,5.06279031 5.16435078,4.29937156 5.86999765,3.92299969 L5.86999794,3.92299951 C6.39592763,3.59194326 6.99749325,3.40025419 7.61799794,3.36599951 L7.61799794,2.44299951 L8.61799794,2.44299951 L8.61799794,3.39999951 L8.61799796,3.39999951 C9.3150464,3.40286052 9.98467765,3.67185888 10.489998,4.15199951 L10.4899979,4.15199949 C11.0177933,4.60546668 11.3119198,5.27349949 11.2899979,5.96899949 L9.88999794,5.96899949 L9.88999793,5.96899943 C9.77383355,5.52723068 9.51815418,5.13476818 9.16099793,4.84999943 L9.16099791,4.84999942 C8.65146353,4.50197598 8.00618541,4.41871348 7.42499791,4.62599942 L7.42499792,4.62599942 C6.79689792,4.68826067 6.33043542,5.23600098 6.36899792,5.86599942 C6.46899792,6.31499942 6.54399792,6.60199942 7.80199792,7.08199942 L7.80199804,7.08199945 C8.86970429,7.33094163 9.88343554,7.77139788 10.793998,8.38199945 L10.7939982,8.38199959 C11.6268544,9.22709178 11.6893607,10.5638746 10.9389979,11.4829996 L10.9420003,11.484 Z" id="形状"></path>
        </g>
    </g>
</svg>