<?xml version="1.0" encoding="UTF-8"?>
<svg width="72px" height="72px" viewBox="0 0 72 72" version="1.1" xmlns="http://www.w3.org/2000/svg" xmlns:xlink="http://www.w3.org/1999/xlink">
    <!-- Generator: Sketch 63.1 (92452) - https://sketch.com -->
    <title>报送管理</title>
    <desc>Created with Sketch.</desc>
    <g id="报送管理" stroke="none" stroke-width="1" fill="none" fill-rule="evenodd">
        <path d="M55.5,39.6346398 L55.5,50.1851852 C55.5,52.5681916 53.5681916,54.5 51.1851852,54.5 L18.8148148,54.5 C16.4318084,54.5 14.5,52.5681916 14.5,50.1851852 L14.5,17.8148148 C14.5,15.4318084 16.4318084,13.5 18.8148148,13.5 L29.6030156,13.5 C30.9837275,13.5 32.1030156,12.3807119 32.1030156,11 C32.1030156,9.61928813 30.9837275,8.5 29.6030156,8.5 L18.8148148,8.5 C13.6703846,8.5 9.5,12.6703846 9.5,17.8148148 L9.5,50.1851852 C9.5,55.3296154 13.6703846,59.5 18.8148148,59.5 L51.1851852,59.5 C56.3296154,59.5 60.5,55.3296154 60.5,50.1851852 L60.5,39.6346398 C60.5,38.2539279 59.3807119,37.1346398 58,37.1346398 C56.6192881,37.1346398 55.5,38.2539279 55.5,39.6346398 Z" id="路径" fill="#60759C" fill-rule="nonzero" transform="translate(35.000000, 34.000000) scale(1, -1) translate(-35.000000, -34.000000) "></path>
        <path d="M23.5,22 L40.5,22 C41.8807119,22 43,23.1192881 43,24.5 C43,25.8807119 41.8807119,27 40.5,27 L23.5,27 C22.1192881,27 21,25.8807119 21,24.5 C21,23.1192881 22.1192881,22 23.5,22 Z M23.5,26 C24.3284271,26 25,25.3284271 25,24.5 C25,23.6715729 24.3284271,23 23.5,23 L40.5,23 C39.6715729,23 39,23.6715729 39,24.5 C39,25.3284271 39.6715729,26 40.5,26 L23.5,26 Z" id="矩形" fill="#60759C" fill-rule="nonzero"></path>
        <path d="M23.5,35 L27.5,35 C28.8807119,35 30,36.1192881 30,37.5 C30,38.8807119 28.8807119,40 27.5,40 L23.5,40 C22.1192881,40 21,38.8807119 21,37.5 C21,36.1192881 22.1192881,35 23.5,35 Z M23.5,39 C24.3284271,39 25,38.3284271 25,37.5 C25,36.6715729 24.3284271,36 23.5,36 L27.5,36 C26.6715729,36 26,36.6715729 26,37.5 C26,38.3284271 26.6715729,39 27.5,39 L23.5,39 Z" id="矩形备份" fill="#60759C" fill-rule="nonzero"></path>
        <path d="M47,61 C55.2842712,61 62,54.2842712 62,46 C62,37.7157288 55.2842712,31 47,31 C38.7157288,31 32,37.7157288 32,46 C32,54.2842712 38.7157288,61 47,61 Z M47,57 C40.9248678,57 36,52.0751322 36,46 C36,39.9248678 40.9248678,35 47,35 C53.0751322,35 58,39.9248678 58,46 C58,52.0751322 53.0751322,57 47,57 Z" id="椭圆形" fill="#60759C" fill-rule="nonzero"></path>
        <path d="M48,46 L48,41 C48,39.8954305 47.1045695,39 46,39 C44.8954305,39 44,39.8954305 44,41 L44,47 C44,48.6568542 45.3431458,50 47,50 L52,50 C53.1045695,50 54,49.1045695 54,48 C54,46.8954305 53.1045695,46 52,46 L48,46 Z" id="路径-9" fill="#60759C" fill-rule="nonzero"></path>
    </g>
</svg>