<?xml version="1.0" encoding="UTF-8"?>
<svg width="72px" height="72px" viewBox="0 0 72 72" version="1.1" xmlns="http://www.w3.org/2000/svg" xmlns:xlink="http://www.w3.org/1999/xlink">
    <!-- Generator: Sketch 63.1 (92452) - https://sketch.com -->
    <title>故事板展示</title>
    <desc>Created with Sketch.</desc>
    <g id="故事板展示" stroke="none" stroke-width="1" fill="none" fill-rule="evenodd">
        <path d="M22.5,45.0933449 L33.5,45.0933449 C34.8807119,45.0933449 36,46.212633 36,47.5933449 C36,48.9740567 34.8807119,50.0933449 33.5,50.0933449 L22.5,50.0933449 C21.1192881,50.0933449 20,48.9740567 20,47.5933449 C20,46.212633 21.1192881,45.0933449 22.5,45.0933449 Z M22.5,49.0933449 C23.3284271,49.0933449 24,48.421772 24,47.5933449 C24,46.7649177 23.3284271,46.0933449 22.5,46.0933449 L33.5,46.0933449 C32.6715729,46.0933449 32,46.7649177 32,47.5933449 C32,48.421772 32.6715729,49.0933449 33.5,49.0933449 L22.5,49.0933449 Z" id="矩形" fill="#60759C" fill-rule="nonzero" transform="translate(28.000000, 47.593345) scale(1, -1) translate(-28.000000, -47.593345) "></path>
        <path d="M22.5,30.0933449 L49.5,30.0933449 C50.8807119,30.0933449 52,31.212633 52,32.5933449 C52,33.9740567 50.8807119,35.0933449 49.5,35.0933449 L22.5,35.0933449 C21.1192881,35.0933449 20,33.9740567 20,32.5933449 C20,31.212633 21.1192881,30.0933449 22.5,30.0933449 Z M22.5,34.0933449 C23.3284271,34.0933449 24,33.421772 24,32.5933449 C24,31.7649177 23.3284271,31.0933449 22.5,31.0933449 L49.5,31.0933449 C48.6715729,31.0933449 48,31.7649177 48,32.5933449 C48,33.421772 48.6715729,34.0933449 49.5,34.0933449 L22.5,34.0933449 Z" id="矩形备份" fill="#60759C" fill-rule="nonzero" transform="translate(36.000000, 32.593345) scale(1, -1) translate(-36.000000, -32.593345) "></path>
        <g id="编组-2" transform="translate(8.000000, 10.000000)" fill="#60759C" fill-rule="nonzero">
            <path d="M8,6.5 L48,6.5 C53.7989899,6.5 58.5,11.2010101 58.5,17 L58.5,43 C58.5,48.7989899 53.7989899,53.5 48,53.5 L8,53.5 C2.20101013,53.5 -2.5,48.7989899 -2.5,43 L-2.5,17 C-2.5,11.2010101 2.20101013,6.5 8,6.5 Z M8,11.5 C4.96243388,11.5 2.5,13.9624339 2.5,17 L2.5,43 C2.5,46.0375661 4.96243388,48.5 8,48.5 L48,48.5 C51.0375661,48.5 53.5,46.0375661 53.5,43 L53.5,17 C53.5,13.9624339 51.0375661,11.5 48,11.5 L8,11.5 Z" id="Rectangle-5"></path>
            <polygon id="路径-2" points="28.5 2.39396183 41.9008221 11.209659 44.0991779 7.86791814 28.5 -2.39396183 12.9008221 7.86791814 15.0991779 11.209659"></polygon>
        </g>
    </g>
</svg>