<?xml version="1.0" encoding="UTF-8"?>
<svg width="72px" height="72px" viewBox="0 0 72 72" version="1.1" xmlns="http://www.w3.org/2000/svg" xmlns:xlink="http://www.w3.org/1999/xlink">
    <title>企业绩效</title>
    <defs>
        <linearGradient x1="50%" y1="100%" x2="50%" y2="0%" id="linearGradient-1">
            <stop stop-color="#749FC4" offset="0%"></stop>
            <stop stop-color="#366A90" offset="100%"></stop>
        </linearGradient>
        <linearGradient x1="50%" y1="50%" x2="50%" y2="0%" id="linearGradient-2">
            <stop stop-color="#6B90B0" offset="0%"></stop>
            <stop stop-color="#366A90" offset="100%"></stop>
        </linearGradient>
    </defs>
    <g id="企业绩效" stroke="none" stroke-width="1" fill="none" fill-rule="evenodd">
        <g id="编组" transform="translate(10.000000, 8.000000)" fill-rule="nonzero">
            <path d="M37.1430408,0 C37.672401,-6.59067465e-16 38.1801702,0.209864551 38.5550633,0.583598782 L51.4120225,13.4008116 C51.7884354,13.7760608 52,14.2857069 52,14.8172128 L52,52.9978435 C52,54.649078 50.6533439,56 49.0066284,56 L2.99337157,56 C1.34665617,56 0,54.6490781 0,52.9978435 L0,3.00221352 C0,1.350979 1.34665611,0 2.99337157,0 L37.1430408,0 Z M36,38 L17,38 C15.8954305,38 15,38.8954305 15,40 C15,41.0543618 15.8158778,41.9181651 16.8507377,41.9945143 L17,42 L36,42 C37.1045695,42 38,41.1045695 38,40 C38,38.8954305 37.1045695,38 36,38 Z M36,31 L17,31 C15.8954305,31 15,31.8954305 15,33 C15,34.0543618 15.8158778,34.9181651 16.8507377,34.9945143 L17,35 L36,35 C37.1045695,35 38,34.1045695 38,33 C38,31.8954305 37.1045695,31 36,31 Z M26.2028986,12 C24.9862713,12 24,12.9893247 24,14.2097187 C24,15.0745273 24.4952636,15.8233029 25.2168026,16.1862244 L25.2168026,16.1862244 L25.2168026,19.6764759 C24.4952636,20.0393973 24,20.7881729 24,21.6529816 C24,22.8733755 24.9862713,23.8627002 26.2028986,23.8627002 C27.4195258,23.8627002 28.4057971,22.8733755 28.4057971,21.6529816 C28.4057971,20.7881729 27.9105335,20.0393973 27.1889945,19.6764759 L27.1889945,19.6764759 L27.1889945,16.1862244 C27.9105335,15.8233029 28.4057971,15.0745273 28.4057971,14.2097187 C28.4057971,12.9893247 27.4195258,12 26.2028986,12 Z" id="形状结合" fill="url(#linearGradient-1)"></path>
            <path d="M51.6929736,14.0759077 L39.9467793,13.9997845 C38.8511905,13.9926844 37.9652454,13.1054282 37.9597654,12.0098301 L37.9004805,0.157312215 L37.9004805,0.157312215 L51.6929736,14.0759077 Z" id="路径" fill="url(#linearGradient-2)"></path>
        </g>
    </g>
</svg>