<?xml version="1.0" encoding="UTF-8"?>
<svg width="72px" height="72px" viewBox="0 0 72 72" version="1.1" xmlns="http://www.w3.org/2000/svg" xmlns:xlink="http://www.w3.org/1999/xlink">
    <title>科目交叉检验规则</title>
    <g id="科目交叉检验规则" stroke="none" stroke-width="1" fill="none" fill-rule="evenodd">
        <path d="M28.9090909,8.5 C30.2898028,8.5 31.4090909,9.61928813 31.4090909,11 C31.4090909,12.3254834 30.377555,13.4100387 29.0734666,13.4946823 L28.9090909,13.5 L17.2835017,13.5 C14.7130481,13.5 12.6161301,15.5274464 12.5046608,18.0704258 L12.5,18.2835017 L12.5,52.8801347 C12.5,55.4505882 14.5274464,57.5475063 17.0704258,57.6589756 L17.2835017,57.6636364 L51.8801347,57.6636364 C54.4505882,57.6636364 56.5475063,55.63619 56.6589756,53.0932106 L56.6636364,52.8801347 L56.6636364,40.8806632 C56.6636364,39.4999514 57.7829245,38.3806632 59.1636364,38.3806632 C60.4891198,38.3806632 61.573675,39.4121992 61.6583187,40.7162875 L61.6636364,40.8806632 L61.6636364,52.8801347 C61.6636364,58.1918325 57.4306373,62.5148603 52.1539796,62.6598777 L51.8801347,62.6636364 L17.2835017,62.6636364 C11.9718039,62.6636364 7.64877603,58.4306373 7.50375862,53.1539796 L7.5,52.8801347 L7.5,18.2835017 C7.5,12.9718039 11.7329991,8.64877603 17.0096567,8.50375862 L17.2835017,8.5 L28.9090909,8.5 Z" id="路径" fill="#60759C" fill-rule="nonzero" transform="translate(34.581818, 35.581818) scale(1, -1) translate(-34.581818, -35.581818) "></path>
        <path d="M32.2181818,39.4518897 C33.5235821,39.4518897 34.5818182,40.5101257 34.5818182,41.8155261 C34.5818182,43.1209264 33.5235821,44.1791624 32.2181818,44.1791624 L21.8181818,44.1791624 C20.5127815,44.1791624 19.4545455,43.1209264 19.4545455,41.8155261 C19.4545455,40.5101257 20.5127815,39.4518897 21.8181818,39.4518897 L32.2181818,39.4518897 Z" id="矩形" fill="#60759C" fill-rule="nonzero" transform="translate(27.018182, 41.815526) scale(1, -1) translate(-27.018182, -41.815526) "></path>
        <path d="M47.3454545,25.2700715 C48.6508549,25.2700715 49.7090909,26.3283076 49.7090909,27.6337079 C49.7090909,28.9391082 48.6508549,29.9973442 47.3454545,29.9973442 L21.8181818,29.9973442 C20.5127815,29.9973442 19.4545455,28.9391082 19.4545455,27.6337079 C19.4545455,26.3283076 20.5127815,25.2700715 21.8181818,25.2700715 L47.3454545,25.2700715 Z" id="矩形备份" fill="#60759C" fill-rule="nonzero" transform="translate(34.581818, 27.633708) scale(1, -1) translate(-34.581818, -27.633708) "></path>
        <path d="M42.0330907,41.0670683 L42.1162651,42.9111814 L43.5746461,42.9111965 C45.0025686,42.9111965 46.3672422,43.3549856 47.5586214,44.1855113 C48.3998412,44.7719364 49.1562946,45.5551066 49.7763199,46.5147432 L49.8043986,46.5588539 L49.8306302,46.5180229 C50.4326682,45.5853642 51.1638083,44.818956 51.9764005,44.23783 L52.0504955,44.1855113 C53.215519,43.3733585 54.5463104,42.9310756 55.9409436,42.9118375 L55.9409436,42.9118375 L56.0315172,42.9111965 L56.9190037,42.9111856 L56.9191038,41.0749949 L63.6367627,45.1775651 L57.0640432,49.341607 L56.9751243,47.6368378 L56.0344708,47.6368524 C55.5652155,47.6368524 55.1201851,47.8026163 54.7262331,48.084489 C54.2560272,48.4209215 53.8593653,48.9141718 53.5530739,49.5161998 L53.5530739,49.5161998 L53.5169812,49.5884864 L52.4369003,51.7916164 L53.5181418,53.9971976 C53.8292888,54.6315299 54.2380789,55.149553 54.7262331,55.4988275 C55.104881,55.7697501 55.5305478,55.9334654 55.9797313,55.9457189 L55.9797313,55.9457189 L57.2459189,55.9461116 L57.2461219,54.0373881 L63.9652267,58.1410338 L57.3994977,62.2908341 L57.3066258,60.672086 L56.0344708,60.67212 C54.6065484,60.67212 53.2418748,60.2283309 52.0504955,59.3978052 C51.2092749,58.8113795 50.4528213,58.0282081 49.8328038,57.0685871 L49.8045369,57.0243286 L49.7784868,57.0652937 C49.1764487,57.9979523 48.4453087,58.7643605 47.6327165,59.3454865 L47.5586214,59.3978052 C46.3935992,60.2099571 45.0628094,60.6522409 43.6681458,60.6714791 L43.6681458,60.6714791 L43.5775509,60.6721201 L41.8392443,60.6720805 L41.8395635,62.2993455 L35.1165311,58.200739 L41.7124279,54.0257832 L41.7924743,55.9464278 L43.5746461,55.9464641 C44.0439015,55.9464641 44.4889319,55.7807002 44.8828838,55.4988275 C45.3530875,55.1623966 45.7497491,54.66915 46.0560223,54.0671591 L46.0560223,54.0671591 L46.0920967,53.9949093 L47.172082,51.7916164 L46.0909752,49.5861189 C45.7798282,48.9517866 45.371038,48.4337635 44.8828838,48.084489 C44.5042325,47.8135639 44.078561,47.6498501 43.6293547,47.6375975 L43.6293547,47.6375975 L42.1660275,47.6371305 L42.1660297,49.3434937 L35.448582,45.2410064 L42.0330907,41.0670683 Z" id="形状结合" fill="#60759C" fill-rule="nonzero"></path>
    </g>
</svg>