<?xml version="1.0" encoding="UTF-8"?>
<svg width="72px" height="72px" viewBox="0 0 72 72" version="1.1" xmlns="http://www.w3.org/2000/svg" xmlns:xlink="http://www.w3.org/1999/xlink">
    <title>常用摘要</title>
    <g id="常用摘要" stroke="none" stroke-width="1" fill="none" fill-rule="evenodd">
        <path d="M45.059764,8.99413611 C45.7984589,8.99413611 46.5253979,9.17287056 47.1764645,9.51401238 L47.4169327,9.64952152 L47.5412328,9.72465907 L57.5154865,17.462114 L57.5521126,17.4853985 C58.6984641,18.2612612 59.4210236,19.5207956 59.493907,20.8990298 L59.5,21.1297719 L59.5,56.8559212 C59.5,60.3076765 56.6948513,63.0820087 53.2318198,63.2010006 L53,63.2049778 L38.4364937,63.2049778 C37.0557818,63.2049778 35.9364937,62.0856897 35.9364937,60.7049778 C35.9364937,59.3794944 36.9680296,58.2949392 38.272118,58.2102955 L38.4364937,58.2049778 L53,58.2049778 C53.7995155,58.2049778 54.4227804,57.650488 54.4933392,56.9824095 L54.5,56.8559212 L54.4994865,21.450114 L44.8874865,13.994114 L17.4864865,13.9941361 C16.6869709,13.9941361 16.0637061,14.5486259 15.9931473,15.2167045 L15.9864865,15.3431927 L15.9864865,35.2179819 C15.9864865,36.5986938 14.8671984,37.7179819 13.4864865,37.7179819 C12.1610031,37.7179819 11.0764478,36.686446 10.9918042,35.3823576 L10.9864865,35.2179819 L10.9864865,15.3431927 C10.9864865,11.8914375 13.7916352,9.11710524 17.2546666,8.99811336 L17.4864865,8.99413611 L45.059764,8.99413611 Z" id="路径" fill="#60759C" fill-rule="nonzero" transform="translate(35.243243, 36.099557) scale(-1, -1) translate(-35.243243, -36.099557) "></path>
        <path d="M18.8918919,47.9528302 L18.8918919,54.5 C18.8918919,55.8254834 19.9234278,56.9100387 21.2275162,56.9946823 L21.3918919,57 L30.3918919,57 L30.3918919,62 L21.3918919,62 C17.3309746,62 14.0238744,58.7725256 13.8957455,54.7427311 L13.8918919,54.5 L13.8918919,47.9528302 L18.8918919,47.9528302 Z" id="路径-6" fill="#60759C" fill-rule="nonzero" transform="translate(22.141892, 54.976415) scale(-1, -1) translate(-22.141892, -54.976415) "></path>
        <path d="M29.7,24 C31.0807119,24 32.2,25.1192881 32.2,26.5 C32.2,27.8807119 31.0807119,29 29.7,29 L25.5,29 C24.1192881,29 23,27.8807119 23,26.5 C23,25.1192881 24.1192881,24 25.5,24 L29.7,24 Z" id="矩形备份" fill="#60759C" fill-rule="nonzero" transform="translate(27.600000, 26.500000) scale(-1, -1) translate(-27.600000, -26.500000) "></path>
        <path d="M42.5,36 C43.8807119,36 45,37.1192881 45,38.5 C45,39.8807119 43.8807119,41 42.5,41 L25.5,41 C24.1192881,41 23,39.8807119 23,38.5 C23,37.1192881 24.1192881,36 25.5,36 L42.5,36 Z" id="矩形备份" fill="#60759C" fill-rule="nonzero" transform="translate(34.000000, 38.500000) scale(-1, -1) translate(-34.000000, -38.500000) "></path>
        <path d="M48.993216,6.00701108 C49.4494553,6.00701108 49.8659226,6.26548725 50.0653303,6.67392348 L50.0653303,6.67392348 L53.1189947,12.8195716 L59.9475079,14.0193342 C60.3990052,14.0847344 60.7723292,14.4022517 60.9127232,14.8362066 C61.0547343,15.2685717 60.9382967,15.7456152 60.6128031,16.0614879 L60.6128031,16.0614879 L55.6717143,20.6691342 L56.9225416,27.3029541 C57.0006875,27.7512993 56.8124631,28.2092106 56.443881,28.4740458 C56.045148,28.8728063 55.357404,28.6590907 55.1835424,28.5681717 L55.1835424,28.5681717 L48.993216,25.5240733 L42.7629807,28.5681717 C42.5891191,28.6590907 41.8573821,28.8288133 41.5026146,28.4740458 C41.130853,28.2092106 40.9489877,27.7512719 41.0255712,27.3029541 L41.0255712,27.3029541 L42.3162801,20.6691342 L37.3767811,16.1045763 C37.0496977,15.7870865 36.9316429,15.310043 37.0736266,14.8776779 C37.2124582,14.443723 37.5873446,14.1262331 38.0388694,14.0608055 L38.0388694,14.0608055 L44.8657653,12.8195716 L47.9178674,6.67392348 C48.1220718,6.26545985 48.5368945,6.00701108 48.993216,6.00701108 Z M48.9999528,14.5 C48.8475784,14.5 48.7090612,14.5796967 48.6408735,14.7056529 L47.6217189,16.6007602 L45.3420893,16.9835142 C45.1913166,17.0036898 45.066135,17.1015928 45.0197765,17.2354096 C44.9723654,17.3687362 45.0117862,17.5158401 45.1210055,17.6137431 L46.7703976,19.0212962 L46.3394055,21.066939 C46.3138328,21.2051848 46.3745611,21.3463974 46.4986993,21.4280635 C46.6171629,21.5374616 46.8615037,21.485125 46.9195594,21.4570887 L48.9999528,20.5183931 L51.0670198,21.4570887 C51.1250755,21.485125 51.3547262,21.5510276 51.4878707,21.4280635 C51.6109472,21.3463974 51.6737989,21.2051933 51.6477045,21.066939 L51.2300296,19.0212962 L52.8799526,17.600456 C52.9886411,17.5030517 53.0275218,17.3559479 52.9801016,17.2226213 C52.9332214,17.0888045 52.8085614,16.990893 52.657798,16.9707258 L50.3776283,16.6007602 L49.357952,14.7056529 C49.291366,14.5797052 49.1522997,14.5 48.9999528,14.5 Z" id="形状结合" fill="#60759C" fill-rule="nonzero"></path>
    </g>
</svg>