<?xml version="1.0" encoding="UTF-8"?>
<svg width="72px" height="72px" viewBox="0 0 72 72" version="1.1" xmlns="http://www.w3.org/2000/svg" xmlns:xlink="http://www.w3.org/1999/xlink">
    <title>基础档案对照</title>
    <g id="基础档案对照" stroke="none" stroke-width="1" fill="none" fill-rule="evenodd">
        <path d="M28.6396379,8.47384438 C29.3241879,8.47384438 29.9436201,8.74766069 30.3921192,9.18939846 C30.8432278,9.63370643 31.1216119,10.2476879 31.1216119,10.9255033 C31.1216119,11.6033187 30.8432278,12.2173001 30.3921192,12.6616081 C29.9436201,13.1033459 29.3241879,13.3771622 28.6396379,13.3771622 L28.6396379,13.3771622 L16.7887363,13.3771622 C15.8074025,13.3771622 14.91866,13.7683993 14.2754553,14.4019074 C13.6348602,15.0328454 13.2380115,15.9043023 13.2380115,16.8672569 L13.2380115,16.8672569 L13.2380115,56.4789474 C13.2380115,57.4038016 13.6115961,58.2904456 14.2754553,58.9442969 C14.9420189,59.6008118 15.8462301,59.9690422 16.7887363,59.9690422 L16.7887363,59.9690422 L28.6396379,59.9690422 C29.3241879,59.9690422 29.9436201,60.2428585 30.3921192,60.6845962 C30.8432278,61.1289042 31.1216119,61.7428856 31.1216119,62.4207011 C31.1216119,63.0985165 30.8432278,63.7124979 30.3921192,64.1568059 C29.9436201,64.5985437 29.3241879,64.87236 28.6396379,64.87236 L28.6396379,64.87236 L16.7860668,64.87236 C14.453923,64.8462854 12.3499845,63.897777 10.829097,62.3821349 C9.30624205,60.8645322 8.36790554,58.7785233 8.36790554,56.4789474 L8.36790554,56.4789474 L8.36790554,16.8672894 C8.36790554,14.567681 9.30624208,12.4816721 10.829097,10.9640695 C12.3499846,9.44842735 14.453923,8.4999189 16.7860668,8.47384438 L16.7860668,8.47384438 L28.6396379,8.47384438 Z M56.5689701,8.47384438 C58.9027922,8.49685475 61.0091991,9.4438661 62.5323293,10.9591877 C64.0580297,12.4770665 64.9985672,14.5649777 64.9985672,16.8672569 L64.9985672,16.8672569 L64.9985672,56.4789235 C64.9985672,58.7812266 64.0580297,60.8691379 62.5323293,62.3870166 C61.0091991,63.9023382 58.9027922,64.8493496 56.5643303,64.87236 L56.5643303,64.87236 L44.7134288,64.87236 C44.056636,64.87236 43.4272985,64.6137412 42.9645455,64.1549054 C42.4990857,63.6933858 42.2404507,63.067864 42.2447614,62.4207011 C42.2447614,61.7460616 42.5206935,61.1343293 42.9684757,60.6903476 C43.4136747,60.2489273 44.0290009,59.9735262 44.7134288,59.9690422 L44.7134288,59.9690422 L56.5643304,59.9690422 C57.5068366,59.9690422 58.4110478,59.6008118 59.0776114,58.9442969 C59.7414707,58.2904456 60.1150552,57.4038016 60.1150552,56.4789474 L60.1150552,56.4789474 L60.1150552,16.8672569 C60.1150552,15.9424027 59.7414706,15.0557587 59.0776114,14.4019074 C58.4110478,13.7453926 57.5068366,13.3771622 56.5643303,13.3771622 L56.5643303,13.3771622 L44.7103356,13.377152 C44.0290009,13.3726782 43.4136747,13.097277 42.9684757,12.6558567 C42.5206935,12.211875 42.2447614,11.6001427 42.2447614,10.9255033 C42.2447614,10.2508639 42.5206935,9.63913156 42.9684757,9.19514984 C43.4136747,8.75372953 44.0290009,8.47832839 44.7134288,8.47384438 L44.7134288,8.47384438 L56.5689701,8.47384438 Z M36.5759884,57.8828264 C37.2605383,57.8828264 37.8799705,58.1566427 38.3284696,58.5983805 C38.7795782,59.0426885 39.0579623,59.6566699 39.0579623,60.3344853 L39.0579623,60.3344853 L39.0579623,62.2694182 C39.0740912,62.9322015 38.8179114,63.5736755 38.3463878,64.0473175 C37.8787426,64.5170637 37.2386781,64.7815243 36.5708357,64.7799787 C35.8952645,64.805332 35.2494656,64.5326614 34.7820296,64.0506431 C34.3174733,63.5715944 34.069868,62.9279719 34.0940144,62.2664008 L34.0940144,62.2664008 L34.0940144,60.3344853 C34.0940144,59.6566699 34.3723985,59.0426885 34.8235071,58.5983805 C35.2720062,58.1566427 35.8914384,57.8828264 36.5759884,57.8828264 L36.5759884,57.8828264 Z M36.5759884,47.5045635 C37.2605383,47.5045635 37.8799705,47.7783798 38.3284696,48.2201176 C38.7795782,48.6644255 39.0579623,49.278407 39.0579623,49.9562224 L39.0579623,49.9562224 L39.0579623,54.2738967 C39.0579623,54.9277269 38.7937054,55.5548769 38.3226211,56.0157867 C37.8555812,56.4727395 37.2233583,56.7284429 36.5649889,56.725578 C35.8840144,56.7358204 35.2689488,56.468888 34.8228284,56.032442 C34.3723222,55.5917053 34.0940144,54.9778314 34.0940144,54.3003045 L34.0940144,54.3003045 L34.0940144,49.9562224 C34.0940144,49.278407 34.3723985,48.6644255 34.8235071,48.2201176 C35.2720062,47.7783798 35.8914384,47.5045635 36.5759884,47.5045635 L36.5759884,47.5045635 Z M36.5759884,37.1130967 C37.2605383,37.1130967 37.8799705,37.386913 38.3284696,37.8286508 C38.7795782,38.2729587 39.0580074,38.8869402 39.0580074,39.5647556 L39.0580074,39.5647556 L39.0579515,43.8792306 C39.0624114,44.5359117 38.8001006,45.1673061 38.3285146,45.6317829 C37.86239,46.0908805 37.2300511,46.3486519 36.5709924,46.3473356 C35.9099485,46.3723402 35.2769118,46.1108761 34.8117844,45.6466115 C34.34739,45.1830785 34.0896039,44.5566652 34.0940144,43.9088376 L34.0940144,43.9088376 L34.0940144,39.5647556 C34.0940144,38.8869402 34.3723985,38.2729587 34.8235071,37.8286508 C35.2720062,37.386913 35.8914384,37.1130967 36.5759884,37.1130967 L36.5759884,37.1130967 Z M50.5952852,28.9815779 L50.7174535,28.9836309 C51.3214002,29.0080048 51.9160639,29.2492949 52.3727604,29.7012383 C52.8320259,30.155724 53.0744609,30.7461634 53.0964654,31.3441949 C53.118664,31.9475008 52.9165647,32.559053 52.4843397,33.0473147 L52.4843397,33.0473147 L49.1855749,36.3565167 L52.6861067,39.8746392 C53.2440016,39.9767894 53.731913,40.259472 54.0902454,40.655576 C54.4868372,41.0939723 54.7248899,41.6712034 54.7248899,42.2979622 C54.7248899,42.9247211 54.4868372,43.5019522 54.0902454,43.9403485 C53.6958113,44.3763596 53.1443731,44.6749438 52.5154144,44.7465939 C51.8521391,44.7585673 51.2576948,44.5365935 50.8026379,44.1336114 C50.2219283,44.0851618 49.6752219,43.8349572 49.2626513,43.4258161 L49.2626513,43.4258161 L43.8978396,38.1418638 C43.4169547,37.6613443 43.177123,37.0350284 43.177123,36.4090242 C43.177123,35.7830201 43.4169547,35.1567042 43.8976269,34.6763974 L43.8976269,34.6763974 L48.9922896,29.5791002 C49.4875754,29.1560007 50.1070144,28.958995 50.7174535,28.9836309 L50.5952852,28.9815779 Z M22.6002362,28.842559 C23.2305152,28.842559 23.8605009,29.0784013 24.3473158,29.5528467 L24.3473158,29.5528467 L29.4439686,34.6387328 C29.9198373,35.1204287 30.1571798,35.7450705 30.1571798,36.3694125 C30.1571798,36.9937546 29.9198373,37.6183964 29.4394083,38.1046457 L29.4394083,38.1046457 L24.0834283,43.3798823 C23.633872,43.8559964 23.0067339,44.1318223 22.346208,44.1421839 C21.6838654,44.1391372 21.0593395,43.8807135 20.5982162,43.4234225 C20.1173314,42.942903 19.8774997,42.3165871 19.8774997,41.690583 C19.8774997,41.0645789 20.1173314,40.4382629 20.5972558,39.9587059 L20.5972558,39.9587059 L24.2052676,36.3325634 L20.8507827,33.016592 C20.374914,32.5348961 20.1375715,31.9102543 20.1375715,31.2859123 C20.1375715,30.6615702 20.374914,30.0369284 20.8507827,29.5552325 C21.3399715,29.0784013 21.9699572,28.842559 22.6002362,28.842559 Z M36.5759884,26.7348338 C37.2605383,26.7348338 37.8799705,27.0086501 38.3284696,27.4503878 C38.7795782,27.8946958 39.0579623,28.5086773 39.0579623,29.1864927 L39.0579623,29.1864927 L39.0579623,33.5041669 C39.0579623,34.1788088 38.7820939,34.7905417 38.3343225,35.2345227 C37.8895972,35.6754833 37.2750994,35.9507701 36.5946872,35.9558023 C35.9002965,35.9668397 35.2801352,35.7009349 34.8313237,35.2676718 C34.3741189,34.8263061 34.0940144,34.210489 34.0940144,33.5305747 L34.0940144,33.5305747 L34.0940144,29.1864927 C34.0940144,28.5086773 34.3723985,27.8946958 34.8235071,27.4503878 C35.2720062,27.0086501 35.8914384,26.7348338 36.5759884,26.7348338 Z M36.5759884,16.3433669 C37.2605383,16.3433669 37.8799705,16.6171832 38.3284696,17.058921 C38.7795782,17.5032289 39.0579623,18.1172104 39.0579623,18.7950258 L39.0579623,18.7950258 L39.0579623,23.1127001 C39.0579623,23.7873419 38.7820939,24.3990749 38.3343225,24.8430559 C37.8920971,25.2815378 37.2820023,25.5562033 36.605993,25.5642281 C35.9108807,25.605101 35.2774979,25.3417313 34.8117845,24.8768817 C34.34739,24.4133487 34.089604,23.7869355 34.0940144,23.1391079 L34.0940144,23.1391079 L34.0940144,18.7950258 C34.0940144,18.1172104 34.3723985,17.5032289 34.8235071,17.058921 C35.2720062,16.6171832 35.8914384,16.3433669 36.5759884,16.3433669 Z M36.5759884,8.32860153 C37.2605383,8.32860153 37.8799705,8.60241784 38.3284696,9.0441556 C38.7795782,9.48846358 39.0579623,10.102445 39.0579623,10.7802604 L39.0579623,10.7802604 L39.0579623,12.7314152 C39.0659768,13.3897314 38.8057275,14.0240157 38.3344398,14.4912726 C37.865113,14.9565854 37.2255681,15.2169154 36.5594699,15.2125931 C35.878138,15.2080371 35.2628288,14.9326226 34.8176454,14.4911976 C34.3698786,14.0472111 34.0940144,13.4354819 34.0940144,12.760845 L34.0940144,12.760845 L34.0940144,10.7802604 C34.0940144,10.102445 34.3723985,9.48846358 34.8235071,9.0441556 C35.2720062,8.60241784 35.8914384,8.32860153 36.5759884,8.32860153 L36.5759884,8.32860153 Z" id="形状" fill="#60759C" fill-rule="nonzero"></path>
    </g>
</svg>