<?xml version="1.0" encoding="UTF-8"?>
<svg width="72px" height="72px" viewBox="0 0 72 72" version="1.1" xmlns="http://www.w3.org/2000/svg" xmlns:xlink="http://www.w3.org/1999/xlink">
    <title>初始设置</title>
    <g id="初始设置" stroke="none" stroke-width="1" fill="none" fill-rule="evenodd">
        <path d="M30,7.5 C31.3807119,7.5 32.5,8.61928813 32.5,10 C32.5,11.3254834 31.4684641,12.4100387 30.1643757,12.4946823 L30,12.5 L17.7037037,12.5 C14.9034679,12.5 12.6198335,14.7118335 12.5045651,17.4837358 L12.5,17.7037037 L12.5,54.2962963 C12.5,57.0965321 14.7118335,59.3801665 17.4837358,59.4954349 L17.7037037,59.5 L54.2962963,59.5 C57.0965321,59.5 59.3801665,57.2881665 59.4954349,54.5162642 L59.5,54.2962963 L59.5,41.6045476 C59.5,40.2238358 60.6192881,39.1045476 62,39.1045476 C63.3254834,39.1045476 64.4100387,40.1360836 64.4946823,41.440172 L64.5,41.6045476 L64.5,54.2962963 C64.5,59.8377237 60.0826557,64.3474252 54.5771584,64.4962092 L54.2962963,64.5 L17.7037037,64.5 C12.1622763,64.5 7.65257485,60.0826557 7.50379075,54.5771584 L7.5,54.2962963 L7.5,17.7037037 C7.5,12.1622763 11.9173443,7.65257485 17.4228416,7.50379075 L17.7037037,7.5 L30,7.5 Z" id="路径" fill="#60759C" fill-rule="nonzero" transform="translate(36.000000, 36.000000) scale(1, -1) translate(-36.000000, -36.000000) "></path>
        <path d="M33.5,40.0933449 C34.8807119,40.0933449 36,41.212633 36,42.5933449 C36,43.9740567 34.8807119,45.0933449 33.5,45.0933449 L22.5,45.0933449 C21.1192881,45.0933449 20,43.9740567 20,42.5933449 C20,41.212633 21.1192881,40.0933449 22.5,40.0933449 L33.5,40.0933449 Z" id="矩形" fill="#60759C" fill-rule="nonzero" transform="translate(28.000000, 42.593345) scale(1, -1) translate(-28.000000, -42.593345) "></path>
        <path d="M49.5,25.0933449 C50.8807119,25.0933449 52,26.212633 52,27.5933449 C52,28.9740567 50.8807119,30.0933449 49.5,30.0933449 L22.5,30.0933449 C21.1192881,30.0933449 20,28.9740567 20,27.5933449 C20,26.212633 21.1192881,25.0933449 22.5,25.0933449 L49.5,25.0933449 Z" id="矩形备份" fill="#60759C" fill-rule="nonzero" transform="translate(36.000000, 27.593345) scale(1, -1) translate(-36.000000, -27.593345) "></path>
        <path d="M58.475,56.6437609 C59.3208333,55.2013525 60.7708333,54.4801483 62.2208333,54.6003491 C62.4625,53.7589442 62.5833333,52.7973386 62.5833333,51.835733 C62.5833333,50.9943281 62.4625,50.1529232 62.3416666,49.431719 C60.8916666,49.6721204 59.3208333,48.8307155 58.475,47.3883072 C57.6291667,45.9458988 57.75,44.1428883 58.7166667,43.061082 C57.3875,41.859075 55.9375,41.0176702 54.2458333,40.4166667 C53.7625,41.859075 52.3125,42.8206806 50.5,42.8206806 C48.6875,42.8206806 47.3583333,41.859075 46.7541667,40.4166667 C45.0625,41.0176701 43.6125,41.9792758 42.2833333,43.1812827 C43.25,44.3832897 43.3708333,46.0660995 42.525,47.5085078 C41.6791667,48.9509162 40.1083334,49.6721204 38.6583334,49.431719 C38.5375,50.2731239 38.4166667,51.1145288 38.4166667,51.9559337 C38.4166667,52.9175393 38.5375,53.7589442 38.7791667,54.6003491 C40.2291667,54.4801483 41.6791667,55.2013525 42.525,56.6437609 C43.25,58.0861693 43.25,59.6487784 42.4041667,60.8507853 C43.7333333,62.0527923 45.1833333,62.8941972 46.875,63.375 C47.4791667,62.0527923 48.8083333,61.2113874 50.5,61.2113874 C52.1916667,61.2113874 53.5208333,62.0527923 54.125,63.375 C55.8166667,62.8941972 57.2666667,61.9325916 58.5958333,60.8507853 C57.75,59.6487783 57.6291667,58.0861693 58.475,56.6437609 Z M50.5,57.1245637 C47.6,57.1245637 45.3041667,54.8407504 45.3041667,51.9559337 C45.3041667,49.0711169 47.6,46.7873037 50.5,46.7873037 C53.4,46.7873037 55.6958333,49.0711169 55.6958333,51.9559337 C55.6958333,54.8407504 53.4,57.1245637 50.5,57.1245637 Z" id="形状" fill="#60759C" fill-rule="nonzero"></path>
    </g>
</svg>