<?xml version="1.0" encoding="UTF-8"?>
<svg width="72px" height="72px" viewBox="0 0 72 72" version="1.1" xmlns="http://www.w3.org/2000/svg" xmlns:xlink="http://www.w3.org/1999/xlink">
    <title>凭证单管理</title>
    <g id="凭证单管理" stroke="none" stroke-width="1" fill="none" fill-rule="evenodd">
        <path d="M53.5,11.5 C59.2039245,11.5 63.8455734,16.048142 63.9962258,21.7157049 L64,22 L64,29.3576359 L59,29.3576359 L59,22 C59,19.0365209 56.65622,16.6204609 53.7212071,16.5043672 L53.5,16.5 L17.5,16.5 C14.5365209,16.5 12.1204609,18.84378 12.0043672,21.7787929 L12,22 L12,26.373 L12.0636253,26.4020937 C15.808233,28.1930596 17.8554447,31.3816867 17.953081,35.675868 L17.9567444,36 C17.9567444,40.45356 15.9069803,43.7644473 12.075432,45.6230563 L12,45.658 L12,50 C12,52.9634791 14.34378,55.3795391 17.2787929,55.4956328 L17.5,55.5 L33.2089615,55.5 L33.2089615,60.5 L17.5,60.5 C11.7960755,60.5 7.15442656,55.951858 7.00377424,50.2842951 L7,50 L7,42.1587887 L8.7203464,41.5941175 C11.6791739,40.6229382 12.9567444,38.9136963 12.9567444,36 C12.9567444,33.1795424 11.7617708,31.5035737 8.99880446,30.5400144 L8.73517126,30.4517547 L7,29.8941773 L7,22 C7,16.2960755 11.548142,11.6544266 17.2157049,11.5037742 L17.5,11.5 L53.5,11.5 Z" id="路径" fill="#60759C" fill-rule="nonzero"></path>
        <path d="M61.41,54.6701571 C62.355,53.0994764 63.975,52.3141361 65.595,52.4450262 C65.865,51.5287958 66,50.4816754 66,49.434555 C66,48.5183246 65.865,47.6020942 65.73,46.8167539 C64.11,47.078534 62.355,46.1623037 61.41,44.591623 C60.465,43.0209424 60.6,41.0575916 61.68,39.8795812 C60.195,38.5706806 58.575,37.6544503 56.685,37 C56.145,38.5706806 54.525,39.617801 52.5,39.617801 C50.475,39.617801 48.99,38.5706806 48.315,37 C46.425,37.6544503 44.805,38.7015707 43.32,40.0104712 C44.4,41.3193717 44.535,43.1518325 43.59,44.7225131 C42.645,46.2931937 40.89,47.078534 39.27,46.8167539 C39.135,47.7329843 39,48.6492147 39,49.565445 C39,50.6125654 39.135,51.5287958 39.405,52.4450262 C41.025,52.3141361 42.645,53.0994764 43.59,54.6701571 C44.4,56.2408377 44.4,57.9424084 43.455,59.2513089 C44.94,60.5602094 46.56,61.4764398 48.45,62 C49.125,60.5602094 50.61,59.6439791 52.5,59.6439791 C54.39,59.6439791 55.875,60.5602094 56.55,62 C58.44,61.4764398 60.06,60.4293194 61.545,59.2513089 C60.6,57.9424084 60.465,56.2408377 61.41,54.6701571 Z M52.5,55.1937173 C49.26,55.1937173 46.695,52.7068063 46.695,49.565445 C46.695,46.4240838 49.26,43.9371728 52.5,43.9371728 C55.74,43.9371728 58.305,46.4240838 58.305,49.565445 C58.305,52.7068063 55.74,55.1937173 52.5,55.1937173 Z" id="形状" fill="#60759C" fill-rule="nonzero"></path>
        <path d="M38.5293067,35.8640896 C38.758107,36.153609 38.8892263,36.4994499 38.9182667,36.9016099 C38.8892267,37.3196104 38.7581066,37.6689704 38.5293067,37.9488111 C38.2996256,38.2304115 37.9872252,38.3861712 37.5877056,38.4196117 L33.1806536,38.3958516 L33.1806536,40.9513781 C33.1208135,42.3171392 32.4080123,43.0000209 31.0457703,43.0000209 C30.3725695,43.0000209 29.8489689,42.8328207 29.4740876,42.4940203 C29.0974467,42.1569795 28.8950465,41.6430597 28.866006,40.9513781 L28.866006,38.4433751 L24.4343114,38.4433751 C24.0224705,38.4116951 23.7039106,38.2304149 23.4830294,37.9012937 L23.4830294,37.9012936 C23.2614758,37.5740325 23.123127,37.1976537 23.0799885,36.8048115 C23.1266286,36.4035301 23.2603887,36.0744106 23.4830294,35.8165699 C23.7030297,35.55961 24.0224705,35.4144098 24.4343114,35.3818502 L28.866006,35.3818502 L28.866006,32.9829666 L24.4343114,32.9592066 C24.0224705,32.9266465 23.7039105,32.7744063 23.4830294,32.501606 C23.2603887,32.2270461 23.126629,31.8812053 23.0799885,31.4632048 C23.1266286,31.0619235 23.2603887,30.732804 23.4830294,30.4749632 C23.7030297,30.2180034 24.0224705,30.0736819 24.4343114,30.0411223 L27.7404812,30.0411223 L24.6640011,24.3528051 L24.6640011,24.3528051 C24.4902379,24.1254916 24.3437439,23.8785778 24.2275197,23.6171234 L24.2275197,23.6171233 C24.0886222,23.3110501 24.0258231,22.9759192 24.0444795,22.6403222 C24.1201596,22.1897621 24.2741606,21.8245616 24.50208,21.5429613 C24.7326398,21.2622418 25.1620808,21.0809608 25.7886411,21.0008798 C26.1556011,21.0325599 26.4856014,21.16632 26.7760018,21.3995207 C27.0664021,21.6318401 27.3040024,21.8852809 27.4888026,22.1580812 L30.9771172,28.8610421 L34.8104068,22.1105577 C34.993447,21.8377574 35.2319265,21.5957571 35.5232077,21.3871973 C35.813608,21.1759972 36.1418488,21.0483969 36.5088088,20.9999968 C36.7393686,21.0158368 36.9488093,21.0483969 37.14065,21.0959169 C37.3298502,21.145197 37.4996908,21.2252771 37.6457697,21.3387981 C37.7900899,21.4505582 37.9132892,21.6115984 38.0127297,21.8201582 C38.1121698,22.0287184 38.1834499,22.3023992 38.2300895,22.6403187 C38.2300895,23.1067193 38.0778493,23.5484794 37.7716081,23.9664798 L34.21377,30.0420103 L37.5885825,30.0420103 C37.9863426,30.0736904 38.3005025,30.2188906 38.5284241,30.4758513 C38.7572243,30.733692 38.8883436,31.0628115 38.9191436,31.4640929 C38.8883436,31.8829742 38.7545835,32.2367342 38.5178623,32.525375 C38.280262,32.8140157 37.9634617,32.9741755 37.5648208,33.0076159 L33.1797688,33.031376 L33.1797688,35.3818553 L37.5868208,35.3818553 C37.9863404,35.4144153 38.2987408,35.5754555 38.5284219,35.8640963 L38.5293067,35.8640896 Z" id="路径" fill="#60759C" fill-rule="nonzero"></path>
    </g>
</svg>