<?xml version="1.0" encoding="UTF-8"?>
<svg width="72px" height="72px" viewBox="0 0 72 72" version="1.1" xmlns="http://www.w3.org/2000/svg" xmlns:xlink="http://www.w3.org/1999/xlink">
    <title>自定义转账</title>
    <g id="自定义转账" stroke="none" stroke-width="1" fill="none" fill-rule="evenodd">
        <path d="M54.5769231,11.5 C59.7782374,11.5 63.8595964,16.1143657 63.9964534,21.7097285 L64,22 L64,50 C64,55.6281101 60.0067989,60.3378676 54.8449433,60.4959036 L54.5769231,60.5 L23.4230769,60.5 C18.9115948,60.5 15.1531715,56.9934981 14.2207433,52.2713935 C13.9532721,50.9168365 14.8345292,49.6019229 16.1890861,49.3344517 C17.543643,49.0669805 18.8585566,49.9482376 19.1260278,51.3027945 C19.6032274,53.7194808 21.3250577,55.3894953 23.2318232,55.4947234 L23.4230769,55.5 L54.5769231,55.5 C56.8709498,55.5 58.8910078,53.2354706 58.995738,50.2441055 L59,50 L59,22 C59,18.9704697 57.0403111,16.6262159 54.7622925,16.5049321 L54.5769231,16.5 L23.4230769,16.5 C21.4524195,16.5 19.6449051,18.1807731 19.137839,20.6383519 L19.092866,20.8785767 C18.8636642,22.2401317 17.574101,23.1580852 16.2125461,22.9288834 C14.8509912,22.6996816 13.9330376,21.4101185 14.1622394,20.0485636 C14.9666607,15.2699634 18.655449,11.6418371 23.1573377,11.5040611 L23.4230769,11.5 L54.5769231,11.5 Z" id="形状结合" fill="#60759C" fill-rule="nonzero"></path>
        <path d="M26,35.6699532 C26,36.3081725 25.7147295,36.8866076 25.2652699,37.2828732 L17.9315985,43.7824428 C17.5404609,44.1248713 17.0228533,44.3333333 16.4583347,44.3333333 C15.2399125,44.3333333 14.2531934,43.3655188 14.2531934,42.1692098 C14.2531934,41.5237915 14.538464,40.9525555 14.9879235,40.5562899 L18.0609211,37.8343897 L8.1984849,37.8343897 C6.98386637,37.8343897 6,36.8665752 6,35.6633801 C6,34.4670712 6.98386637,33.4992566 8.1984849,33.4992566 L18.0609211,33.4992566 L14.9879235,30.7770434 C14.538464,30.3804648 14.2531934,29.8057858 14.2531934,29.1644365 C14.2531934,27.9678146 15.2399125,27 16.4583347,27 C17.0228533,27 17.5404609,27.208462 17.9315985,27.5577767 L25.2652699,34.0570333 C25.7144125,34.4532989 26,35.031421 26,35.6699532" id="路径" fill="#60759C"></path>
        <path d="M45.7058167,37.7833257 C45.8488169,37.9544053 45.9307664,38.1587658 45.9489167,38.3964059 C45.9307667,38.6434061 45.8488166,38.8498461 45.7058167,39.0152066 C45.562266,39.1816068 45.3670158,39.2736466 45.117316,39.2934069 L42.3629085,39.2793669 L42.3629085,40.7894507 C42.3255085,41.5964914 41.8800077,42.0000123 41.0286064,42.0000123 C40.6078559,42.0000123 40.2806056,41.9012122 40.0463047,41.701012 C39.8109042,41.5018515 39.6844041,41.1981717 39.6662538,40.7894507 L39.6662538,39.3074489 L36.8964446,39.3074489 C36.6390441,39.2887289 36.4399441,39.1816088 36.3018934,38.9871281 L36.3018934,38.987128 C36.1634224,38.7937465 36.0769544,38.5713408 36.0499928,38.3392068 C36.0791428,38.102086 36.1627429,37.9076063 36.3018934,37.7552458 C36.4393935,37.6034059 36.639044,37.5176058 36.8964446,37.498366 L39.6662537,37.498366 L39.6662537,36.0808439 L36.8964446,36.0668039 C36.639044,36.0475638 36.4399441,35.9576037 36.3018934,35.7964036 C36.1627429,35.6341636 36.0791431,35.4298031 36.0499928,35.1828028 C36.0791428,34.9456821 36.1627429,34.7512023 36.3018934,34.5988419 C36.4393935,34.447002 36.639044,34.3617211 36.8964446,34.3424814 L38.9628008,34.3424814 L37.0400007,30.981203 L37.0400007,30.981203 C36.9313987,30.8468814 36.8398399,30.7009778 36.7671998,30.546482 L36.7671998,30.5464819 C36.6803889,30.3656205 36.6411394,30.1675886 36.6527997,29.9692813 C36.7000997,29.7030412 36.7963504,29.487241 36.9388,29.3208408 C37.0828999,29.1549611 37.3513005,29.0478405 37.7429007,29.0005199 C37.9722507,29.0192399 38.1785009,29.09828 38.3600011,29.2360804 C38.5415013,29.3733601 38.6900015,29.5231205 38.8055016,29.6843207 L40.9856983,33.6451612 L43.3815043,29.6562386 C43.4959044,29.4950384 43.644954,29.3520383 43.8270048,29.2287984 C44.008505,29.1039984 44.2136555,29.0285982 44.4430055,28.9999981 C44.5871054,29.0093581 44.7180058,29.0285982 44.8379062,29.0566782 C44.9561564,29.0857982 45.0623068,29.1331183 45.1536061,29.2001989 C45.2438062,29.2662389 45.3208057,29.361399 45.3829561,29.4846389 C45.4451061,29.6078791 45.4896562,29.7695995 45.518806,29.9692792 C45.518806,30.2448796 45.4236558,30.5059196 45.2322551,30.7529199 L43.0086063,34.3430061 L45.1178641,34.3430061 C45.3664641,34.3617261 45.5628141,34.4475262 45.705265,34.5993667 C45.8482652,34.7517271 45.9302148,34.9462068 45.9494648,35.1833276 C45.9302148,35.4308484 45.8466147,35.6398884 45.6986639,35.8104488 C45.5501638,35.9810093 45.3521635,36.0756491 45.103013,36.0954094 L42.3623555,36.1094494 L42.3623555,37.498369 L45.116763,37.498369 C45.3664628,37.517609 45.561713,37.6127692 45.7052637,37.7833296 L45.7058167,37.7833257 Z" id="路径" fill="#60759C" fill-rule="nonzero"></path>
        <path d="M30,34.5 C30.8284271,34.5 31.5,35.1715729 31.5,36 C31.5,41.2467051 35.7532949,45.5 41,45.5 C43.5230331,45.5 45.8866092,44.5140736 47.6519638,42.7824361 C48.2433707,42.2023246 49.1930741,42.2114813 49.7731856,42.8028883 C50.353297,43.3942952 50.3441403,44.3439985 49.7527333,44.92411 C47.4320418,47.200478 44.3166781,48.5 41,48.5 C34.0964406,48.5 28.5,42.9035594 28.5,36 C28.5,35.1715729 29.1715729,34.5 30,34.5 Z M41,23.5 C47.9035594,23.5 53.5,29.0964406 53.5,36 C53.5,37.1869128 53.3868856,38.1601669 53.1102285,39.1766234 C52.8926636,39.9759712 52.068293,40.4475995 51.2689451,40.2300347 C50.4695972,40.0124698 49.9979689,39.1880991 50.2155338,38.3887512 C50.4172316,37.6476999 50.5,36.9355482 50.5,36 C50.5,30.7532949 46.2467051,26.5 41,26.5 C37.6504826,26.5 34.6039942,28.2461446 32.8881288,31.0525173 C32.4559878,31.7593028 31.5327055,31.9819461 30.82592,31.5498051 C30.1191346,31.1176641 29.8964913,30.1943818 30.3286323,29.4875963 C32.5840385,25.7987813 36.5947087,23.5 41,23.5 Z" id="形状" fill="#60759C" fill-rule="nonzero" transform="translate(41.000000, 36.000000) rotate(-23.000000) translate(-41.000000, -36.000000) "></path>
    </g>
</svg>