<?xml version="1.0" encoding="UTF-8"?>
<svg width="72px" height="72px" viewBox="0 0 72 72" version="1.1" xmlns="http://www.w3.org/2000/svg" xmlns:xlink="http://www.w3.org/1999/xlink">
    <title>总账分析</title>
    <g id="总账分析" stroke="none" stroke-width="1" fill="none" fill-rule="evenodd">
        <path d="M36,33 C37.6568542,33 39,34.3431458 39,36 C39,37.6568542 37.6568542,39 36,39 L-10,39 C-11.6568542,39 -13,37.6568542 -13,36 C-13,34.3431458 -11.6568542,33 -10,33 L36,33 Z" id="矩形备份-2" fill="#60759C" fill-rule="nonzero" transform="translate(13.000000, 36.000000) scale(1, -1) rotate(90.000000) translate(-13.000000, -36.000000) "></path>
        <path d="M60,56 C61.6568542,56 63,57.3431458 63,59 C63,60.6568542 61.6568542,62 60,62 L14,62 C12.3431458,62 11,60.6568542 11,59 C11,57.3431458 12.3431458,56 14,56 L60,56 Z" id="矩形备份-2" fill="#60759C" fill-rule="nonzero" transform="translate(37.000000, 59.000000) scale(1, -1) rotate(180.000000) translate(-37.000000, -59.000000) "></path>
        <path d="M40.5,44.5 C42.1568542,44.5 43.5,45.8431458 43.5,47.5 C43.5,49.1568542 42.1568542,50.5 40.5,50.5 L17.5,50.5 C15.8431458,50.5 14.5,49.1568542 14.5,47.5 C14.5,45.8431458 15.8431458,44.5 17.5,44.5 L40.5,44.5 Z" id="矩形备份" fill="#60759C" fill-rule="nonzero" transform="translate(29.000000, 47.500000) scale(1, -1) rotate(90.000000) translate(-29.000000, -47.500000) "></path>
        <path d="M57.749306,17.377201 C58.9448162,16.6864618 60.4739235,17.0956595 61.1646627,18.2911697 C61.8266211,19.4368669 61.4783944,20.8889407 60.3960147,21.6159022 L60.250694,21.7065264 L46.2668965,29.7860538 C44.5495081,30.7783226 42.4376255,30.7661414 40.7373134,29.7706563 L40.5179338,29.6352358 L29.5017826,22.4747374 C29.394001,22.4046795 29.2645373,22.3794771 29.1403501,22.4019263 L29.0486202,22.4277415 L14.9033409,27.9093039 C13.6159161,28.4082053 12.1678125,27.7689808 11.6689111,26.481556 C11.1907973,25.2477739 11.7579415,23.866424 12.9391425,23.3143524 L13.0966591,23.2471262 L27.2419384,17.7655638 C28.8076637,17.1588157 30.5597789,17.3020655 32.0017024,18.1438144 L32.2267243,18.2825194 L43.2428756,25.4430177 C43.374338,25.5284683 43.536501,25.5463894 43.6811827,25.4955171 L43.7655085,25.4567284 L57.749306,17.377201 Z" id="路径-12" fill="#60759C" fill-rule="nonzero" transform="translate(36.499872, 23.782623) scale(-1, -1) translate(-36.499872, -23.782623) "></path>
        <path d="M56.5293067,47.7929695 C56.758107,48.0811037 56.8892263,48.4252898 56.9182667,48.8255257 C56.8892267,49.2415261 56.7581066,49.5892145 56.5293067,49.8677163 C56.2996256,50.1479693 55.9872252,50.3029838 55.5877056,50.3362643 L51.1806536,50.3126179 L51.1806536,52.8559169 C51.1208135,54.2151433 50.4080123,54.8947576 49.0457703,54.8947576 C48.3725695,54.8947576 47.8489689,54.7283574 47.4740876,54.3911781 C47.0974467,54.0557499 46.8950465,53.5442891 46.866006,52.8559169 L46.866006,50.359914 L42.4343114,50.359914 C42.0224705,50.3283856 41.7039106,50.1479727 41.4830294,49.8204262 L41.4830294,49.8204262 C41.2614758,49.4947309 41.123127,49.120153 41.0799885,48.7291904 C41.1266286,48.329829 41.2603887,48.0022842 41.4830294,47.7456772 C41.7030297,47.4899468 42.0224705,47.3454414 42.4343114,47.3130376 L46.866006,47.3130376 L46.866006,44.9256318 L42.4343114,44.9019855 C42.0224705,44.8695812 41.7039105,44.7180695 41.4830294,44.4465744 C41.2603887,44.1733282 41.126629,43.8291421 41.0799885,43.4131416 C41.1266286,43.0137803 41.2603887,42.6862355 41.4830294,42.4296285 C41.7030297,42.1738981 42.0224705,42.0302672 42.4343114,41.9978633 L45.7404812,41.9978633 L42.6640011,36.336763 L42.6640011,36.336763 C42.4902379,36.1105371 42.3437439,35.8648047 42.2275197,35.6046013 L42.2275197,35.6046012 C42.0886222,35.2999924 42.0258231,34.9664651 42.0444795,34.6324737 C42.1201596,34.1840694 42.2741606,33.8206164 42.50208,33.5403634 C42.7326398,33.2609871 43.1620808,33.0805734 43.7886411,33.0008756 C44.1556011,33.0324041 44.4856014,33.1655242 44.7760018,33.3976091 C45.0664021,33.628817 45.3040024,33.8810451 45.4888026,34.1525401 L48.9771172,40.8234295 L52.8104068,34.105244 C52.993447,33.833749 53.2319265,33.5929066 53.5232077,33.3853446 C53.813608,33.1751551 54.1418488,33.0481653 54.5088088,32.9999968 C54.7393686,33.0157611 54.9488093,33.0481653 55.14065,33.095458 C55.3298502,33.1445023 55.4996908,33.2241992 55.6457697,33.337177 C55.7900899,33.4484024 55.9132892,33.6086721 56.0127297,33.816234 C56.1121698,34.0237963 56.1834499,34.2961676 56.2300895,34.6324703 C56.2300895,35.0966393 56.0778493,35.5362857 55.7716081,35.9522862 L52.21377,41.9987471 L55.5885825,41.9987471 C55.9863426,42.0302756 56.3005025,42.174781 56.5284241,42.4305123 C56.7572243,42.6871193 56.8883436,43.0146641 56.9191436,43.4140254 C56.8883436,43.8309026 56.7545835,44.1829699 56.5178623,44.4702296 C56.280262,44.7574893 55.9634617,44.9168828 55.5648208,44.9501632 L51.1797688,44.9738096 L51.1797688,47.3130426 L55.5868208,47.3130426 C55.9863404,47.3454468 56.2987408,47.5057165 56.5284219,47.7929762 L56.5293067,47.7929695 Z" id="路径" fill="#60759C" fill-rule="nonzero"></path>
    </g>
</svg>