<?xml version="1.0" encoding="UTF-8"?>
<svg width="72px" height="72px" viewBox="0 0 72 72" version="1.1" xmlns="http://www.w3.org/2000/svg" xmlns:xlink="http://www.w3.org/1999/xlink">
    <title>账簿查询</title>
    <g id="账簿查询" stroke="none" stroke-width="1" fill="none" fill-rule="evenodd">
        <path d="M46.059764,8.99413611 C46.7984589,8.99413611 47.5253979,9.17287056 48.1764645,9.51401238 L48.4169327,9.64952152 L48.5412328,9.72465907 L58.5154865,17.462114 L58.5521126,17.4853985 C59.6984641,18.2612612 60.4210236,19.5207956 60.493907,20.8990298 L60.5,21.1297719 L60.5,56.8559212 C60.5,60.3076765 57.6948513,63.0820087 54.2318198,63.2010006 L54,63.2049778 L39.4364937,63.2049778 C38.0557818,63.2049778 36.9364937,62.0856897 36.9364937,60.7049778 C36.9364937,59.3794944 37.9680296,58.2949392 39.272118,58.2102955 L39.4364937,58.2049778 L54,58.2049778 C54.7995155,58.2049778 55.4227804,57.650488 55.4933392,56.9824095 L55.5,56.8559212 L55.4994865,21.450114 L45.8874865,13.994114 L18.4864865,13.9941361 C17.6869709,13.9941361 17.0637061,14.5486259 16.9931473,15.2167045 L16.9864865,15.3431927 L16.9864865,35.2179819 C16.9864865,36.5986938 15.8671984,37.7179819 14.4864865,37.7179819 C13.1610031,37.7179819 12.0764478,36.686446 11.9918042,35.3823576 L11.9864865,35.2179819 L11.9864865,15.3431927 C11.9864865,11.8914375 14.7916352,9.11710524 18.2546666,8.99811336 L18.4864865,8.99413611 L46.059764,8.99413611 Z" id="路径" fill="#60759C" fill-rule="nonzero" transform="translate(36.243243, 36.099557) scale(-1, -1) translate(-36.243243, -36.099557) "></path>
        <path d="M19.8918919,47.9528302 L19.8918919,54.5 C19.8918919,55.8254834 20.9234278,56.9100387 22.2275162,56.9946823 L22.3918919,57 L31.3918919,57 L31.3918919,62 L22.3918919,62 C18.3309746,62 15.0238744,58.7725256 14.8957455,54.7427311 L14.8918919,54.5 L14.8918919,47.9528302 L19.8918919,47.9528302 Z" id="路径-6" fill="#60759C" fill-rule="nonzero" transform="translate(23.141892, 54.976415) scale(-1, -1) translate(-23.141892, -54.976415) "></path>
        <path d="M30.7,24 C32.0807119,24 33.2,25.1192881 33.2,26.5 C33.2,27.8807119 32.0807119,29 30.7,29 L26.5,29 C25.1192881,29 24,27.8807119 24,26.5 C24,25.1192881 25.1192881,24 26.5,24 L30.7,24 Z" id="矩形备份" fill="#60759C" fill-rule="nonzero" transform="translate(28.600000, 26.500000) scale(-1, -1) translate(-28.600000, -26.500000) "></path>
        <path d="M43.5,36 C44.8807119,36 46,37.1192881 46,38.5 C46,39.8807119 44.8807119,41 43.5,41 L26.5,41 C25.1192881,41 24,39.8807119 24,38.5 C24,37.1192881 25.1192881,36 26.5,36 L43.5,36 Z" id="矩形备份" fill="#60759C" fill-rule="nonzero" transform="translate(35.000000, 38.500000) scale(-1, -1) translate(-35.000000, -38.500000) "></path>
        <path d="M59,19.2533182 C59,19.8976741 58.7147295,20.4816711 58.2652699,20.8817469 L50.9315985,27.4438124 C50.5404609,27.7895336 50.0228533,28 49.4583347,28 C48.2399125,28 47.2531934,27.0228795 47.2531934,25.8150676 C47.2531934,25.1634433 47.538464,24.5867147 47.9879235,24.1866389 L51.0609211,21.4385666 L41.1984849,21.4385666 C39.9838664,21.4385666 39,20.4614461 39,19.2466818 C39,18.0388699 39.9838664,17.0617495 41.1984849,17.0617495 L51.0609211,17.0617495 L47.9879235,14.3133611 C47.538464,13.9129693 47.2531934,13.3327645 47.2531934,12.6852484 C47.2531934,11.4771205 48.2399125,10.5 49.4583347,10.5 C50.0228533,10.5 50.5404609,10.7104664 50.9315985,11.0631399 L58.2652699,17.6248894 C58.7144125,18.0249652 59,18.6086462 59,19.2533182" id="路径" fill="#60759C" transform="translate(49.000000, 19.250000) scale(-1, 1) translate(-49.000000, -19.250000) "></path>
    </g>
</svg>