<?xml version="1.0" encoding="UTF-8"?>
<svg width="72px" height="72px" viewBox="0 0 72 72" version="1.1" xmlns="http://www.w3.org/2000/svg" xmlns:xlink="http://www.w3.org/1999/xlink">
    <title>科目交叉检验规则备份 8</title>
    <g id="科目交叉检验规则备份-8" stroke="none" stroke-width="1" fill="none" fill-rule="evenodd">
        <path d="M53.5,11.5 L17.5,11.5 C11.7010101,11.5 6.99996194,16.2010101 6.99996194,22 L6.99996194,30.10274 L7.97086688,30.8533627 C9.55628375,32.0790748 10.5,33.9590632 10.5,36 C10.5,38.0409368 9.55628375,39.9209252 7.97086688,41.1466373 L6.99996194,41.89726 L6.99996194,50.0000117 C6.99996194,55.7989899 11.7010101,60.5 17.5,60.5 L53.5,60.5 C59.2989899,60.5 64,55.7989899 64,50 L64.0007726,41.221395 L63.3058157,40.4960875 C62.1527413,39.2926552 61.5,37.7008762 61.5,36 C61.5,34.2991238 62.1527413,32.7073448 63.3058157,31.5039125 L64.0007726,30.778605 L64,21.99978 C64,16.2010101 59.2989899,11.5 53.5,11.5 Z M17.5,16.5 L53.5,16.5 C56.5375661,16.5 59,18.9624339 59,22 L59.000879,28.8391957 C57.397776,30.8509256 56.5,33.357364 56.5,36 L56.5055467,36.3594816 C56.5793815,38.7499485 57.3879506,41.0143878 58.786664,42.8834448 L59,43.16 L59,49.99978 C59,53.0375661 56.5375661,55.5 53.5,55.5 L17.5,55.5 L17.2787929,55.4956328 C14.34378,55.3795391 12,52.9634791 12,50 L11.999,44.26 L12.0546144,44.2085738 C14.2304772,42.0747257 15.5,39.1404719 15.5,36 L15.4947941,35.6519375 C15.404718,32.6432739 14.1498896,29.8462429 12.0546144,27.7914262 L11.999,27.738 L12,22.0000117 C12,18.9624339 14.4624339,16.5 17.5,16.5 Z" id="形状结合" fill="#60759C" fill-rule="nonzero"></path>
        <path d="M46.0336914,31.7954102 C45.8939453,31.7637695 45.7805664,31.6662109 45.7304688,31.534375 C44.6177734,28.665625 42.334375,26.3822266 39.465625,25.2695312 C39.3337891,25.2167969 39.2362305,25.103418 39.2045898,24.9663086 C38.8275391,23.2682617 37.3114258,22 35.5,22 C33.6885742,22 32.1724609,23.2682617 31.7927734,24.9663086 C31.7611328,25.1060547 31.6635742,25.2167969 31.5317383,25.2695312 C28.665625,26.3822266 26.3822266,28.665625 25.2695312,31.534375 C25.2194336,31.6662109 25.103418,31.7637695 24.9663086,31.7954102 C23.2682617,32.1724609 22,33.6885742 22,35.5 C22,37.3905273 23.3816406,38.9567383 25.187793,39.2494141 C26.2688477,42.2183594 28.5944336,44.5887695 31.534375,45.7304688 C31.6662109,45.7832031 31.7637695,45.896582 31.7954102,46.0336914 C32.1724609,47.7317383 33.6885742,49 35.5,49 C37.3114258,49 38.8275391,47.7317383 39.2072266,46.0336914 C39.2388672,45.8939453 39.3364258,45.7832031 39.4682617,45.7304688 C42.334375,44.6177734 44.6177734,42.334375 45.7304688,39.465625 C45.7805664,39.3337891 45.896582,39.2362305 46.0336914,39.2045898 C47.7317383,38.8275391 49,37.3114258 49,35.5 C49,33.6885742 47.7317383,32.1724609 46.0336914,31.7954102 Z M43.6500977,38.9646484 C43.8689453,39.062207 43.9665039,39.3179687 43.8610352,39.5341797 C43.4101562,40.4702148 42.8063477,41.3192383 42.062793,42.062793 C41.3192383,42.8063477 40.4702148,43.4101562 39.5341797,43.8610352 C39.3179687,43.9638672 39.062207,43.8663086 38.9646484,43.6500977 C38.3713867,42.3264648 37.0424805,41.40625 35.5,41.40625 C33.9575195,41.40625 32.6286133,42.3264648 32.0353516,43.6500977 C31.937793,43.8689453 31.6820313,43.9665039 31.4658203,43.8610352 C30.5297852,43.4075195 29.6807617,42.8063477 28.937207,42.062793 C28.0855469,41.2111328 27.418457,40.2197266 26.9491211,39.1175781 C28.4836914,38.6297852 29.59375,37.1954102 29.59375,35.5 C29.59375,33.9575195 28.6735352,32.6286133 27.3499023,32.0353516 C27.1310547,31.937793 27.0334961,31.6820313 27.1389648,31.4658203 C27.5924805,30.5297852 28.1936523,29.6807617 28.937207,28.937207 C29.6807617,28.1936523 30.5297852,27.5898438 31.4658203,27.1389648 C31.6820312,27.0361328 31.937793,27.1336914 32.0353516,27.3499023 C32.6286133,28.6735352 33.9575195,29.59375 35.5,29.59375 C37.0424805,29.59375 38.3713867,28.6735352 38.9646484,27.3499023 C39.062207,27.1310547 39.3179687,27.0334961 39.5341797,27.1389648 C40.4702148,27.5898438 41.3192383,28.1936523 42.062793,28.937207 C42.8063477,29.6807617 43.4101562,30.5297852 43.8610352,31.4658203 C43.9638672,31.6820313 43.8663086,31.937793 43.6500977,32.0353516 C42.3264648,32.6286133 41.40625,33.9575195 41.40625,35.5 C41.40625,37.0424805 42.3264648,38.3713867 43.6500977,38.9646484 Z" id="形状" fill="#60759C" fill-rule="nonzero"></path>
    </g>
</svg>