<?xml version="1.0" encoding="UTF-8"?>
<svg width="72px" height="72px" viewBox="0 0 72 72" version="1.1" xmlns="http://www.w3.org/2000/svg" xmlns:xlink="http://www.w3.org/1999/xlink">
    <title>现金流量表</title>
    <g id="现金流量表" stroke="none" stroke-width="1" fill="none" fill-rule="evenodd">
        <path d="M57,11.5 C61.0609173,11.5 64.3680175,14.7274744 64.4961464,18.7572689 L64.5,19 L64.5,33.0926594 L59.5,33.0926594 L59.5,19 C59.5,17.6745166 58.4684641,16.5899613 57.1643757,16.5053177 L57,16.5 L15,16.5 C13.6745166,16.5 12.5899613,17.5315359 12.5053177,18.8356243 L12.5,19 L12.5,53 C12.5,54.3254834 13.5315359,55.4100387 14.8356243,55.4946823 L15,55.5 L34.0284055,55.5 L34.0284055,60.5 L15,60.5 C10.9390827,60.5 7.63198248,57.2725256 7.50385357,53.2427311 L7.5,53 L7.5,19 C7.5,14.9390827 10.7274744,11.6319825 14.7572689,11.5038536 L15,11.5 L57,11.5 Z" id="路径" fill="#60759C" fill-rule="nonzero"></path>
        <polygon id="路径-11" fill="#60759C" fill-rule="nonzero" points="59.5910986 24.8173636 59.5910986 29.8173636 12 29.8173636 12 24.8173636"></polygon>
        <polygon id="路径-11备份" fill="#60759C" fill-rule="nonzero" points="34 35 34 40 12 40 12 35"></polygon>
        <polygon id="路径-11备份-2" fill="#60759C" fill-rule="nonzero" points="34 45 34 50 12 50 12 45"></polygon>
        <polygon id="直线" fill="#60759C" fill-rule="nonzero" points="29 27.5 29 57.5 24 57.5 24 27.5"></polygon>
        <polygon id="直线备份" fill="#60759C" fill-rule="nonzero" points="47.5 27.5 47.5 33.5 42.5 33.5 42.5 27.5"></polygon>
        <path d="M52,35 C44.2680135,35 38,41.2680135 38,49 C38,56.7319865 44.2680135,63 52,63 C59.7319865,63 66,56.7319865 66,49 C66,41.2680135 59.7319865,35 52,35 Z M52,39 C57.5228475,39 62,43.4771525 62,49 C62,54.5228475 57.5228475,59 52,59 C46.4771525,59 42,54.5228475 42,49 C42,43.4771525 46.4771525,39 52,39 Z" id="椭圆形" fill="#60759C" fill-rule="nonzero"></path>
        <path d="M56.7058167,50.7833257 C56.8488169,50.9544053 56.9307664,51.1587658 56.9489167,51.3964059 C56.9307667,51.6434061 56.8488166,51.8498461 56.7058167,52.0152066 C56.562266,52.1816068 56.3670158,52.2736466 56.117316,52.2934069 L53.3629085,52.2793669 L53.3629085,53.7894507 C53.3255085,54.5964914 52.8800077,55.0000123 52.0286064,55.0000123 C51.6078559,55.0000123 51.2806056,54.9012122 51.0463047,54.701012 C50.8109042,54.5018515 50.6844041,54.1981717 50.6662538,53.7894507 L50.6662538,52.3074489 L47.8964446,52.3074489 C47.6390441,52.2887289 47.4399441,52.1816088 47.3018934,51.9871281 L47.3018934,51.987128 C47.1634224,51.7937465 47.0769544,51.5713408 47.0499928,51.3392068 C47.0791428,51.102086 47.1627429,50.9076063 47.3018934,50.7552458 C47.4393935,50.6034059 47.639044,50.5176058 47.8964446,50.498366 L50.6662537,50.498366 L50.6662537,49.0808439 L47.8964446,49.0668039 C47.639044,49.0475638 47.4399441,48.9576037 47.3018934,48.7964036 C47.1627429,48.6341636 47.0791431,48.4298031 47.0499928,48.1828028 C47.0791428,47.9456821 47.1627429,47.7512023 47.3018934,47.5988419 C47.4393935,47.447002 47.639044,47.3617211 47.8964446,47.3424814 L49.9628008,47.3424814 L48.0400007,43.981203 L48.0400007,43.981203 C47.9313987,43.8468814 47.8398399,43.7009778 47.7671998,43.546482 L47.7671998,43.5464819 C47.6803889,43.3656205 47.6411394,43.1675886 47.6527997,42.9692813 C47.7000997,42.7030412 47.7963504,42.487241 47.9388,42.3208408 C48.0828999,42.1549611 48.3513005,42.0478405 48.7429007,42.0005199 C48.9722507,42.0192399 49.1785009,42.09828 49.3600011,42.2360804 C49.5415013,42.3733601 49.6900015,42.5231205 49.8055016,42.6843207 L51.9856983,46.6451612 L54.3815043,42.6562386 C54.4959044,42.4950384 54.644954,42.3520383 54.8270048,42.2287984 C55.008505,42.1039984 55.2136555,42.0285982 55.4430055,41.9999981 C55.5871054,42.0093581 55.7180058,42.0285982 55.8379062,42.0566782 C55.9561564,42.0857982 56.0623068,42.1331183 56.1536061,42.2001989 C56.2438062,42.2662389 56.3208057,42.361399 56.3829561,42.4846389 C56.4451061,42.6078791 56.4896562,42.7695995 56.518806,42.9692792 C56.518806,43.2448796 56.4236558,43.5059196 56.2322551,43.7529199 L54.0086063,47.3430061 L56.1178641,47.3430061 C56.3664641,47.3617261 56.5628141,47.4475262 56.705265,47.5993667 C56.8482652,47.7517271 56.9302148,47.9462068 56.9494648,48.1833276 C56.9302148,48.4308484 56.8466147,48.6398884 56.6986639,48.8104488 C56.5501638,48.9810093 56.3521635,49.0756491 56.103013,49.0954094 L53.3623555,49.1094494 L53.3623555,50.498369 L56.116763,50.498369 C56.3664628,50.517609 56.561713,50.6127692 56.7052637,50.7833296 L56.7058167,50.7833257 Z" id="路径" fill="#60759C" fill-rule="nonzero"></path>
    </g>
</svg>