<?xml version="1.0" encoding="UTF-8"?>
<svg width="72px" height="72px" viewBox="0 0 72 72" version="1.1" xmlns="http://www.w3.org/2000/svg" xmlns:xlink="http://www.w3.org/1999/xlink">
    <title>内部交易对账</title>
    <g id="内部交易对账" stroke="none" stroke-width="1" fill="none" fill-rule="evenodd">
        <path d="M53.5,11.5 L17.5,11.5 C11.7010101,11.5 6.99996194,16.2010101 6.99996194,22 L6.99996194,30.10274 L7.97086688,30.8533627 C9.55628375,32.0790748 10.5,33.9590632 10.5,36 C10.5,38.0409368 9.55628375,39.9209252 7.97086688,41.1466373 L6.99996194,41.89726 L6.99996194,50.0000117 C6.99996194,55.7989899 11.7010101,60.5 17.5,60.5 L53.5,60.5 C59.2989899,60.5 64,55.7989899 64,50 L64.0007726,41.221395 L63.3058157,40.4960875 C62.1527413,39.2926552 61.5,37.7008762 61.5,36 C61.5,34.2991238 62.1527413,32.7073448 63.3058157,31.5039125 L64.0007726,30.778605 L64,21.99978 C64,16.2010101 59.2989899,11.5 53.5,11.5 Z M17.5,16.5 L53.5,16.5 C56.5375661,16.5 59,18.9624339 59,22 L59.000879,28.8391957 C57.397776,30.8509256 56.5,33.357364 56.5,36 L56.5055467,36.3594816 C56.5793815,38.7499485 57.3879506,41.0143878 58.786664,42.8834448 L59,43.16 L59,49.99978 C59,53.0375661 56.5375661,55.5 53.5,55.5 L17.5,55.5 L17.2787929,55.4956328 C14.34378,55.3795391 12,52.9634791 12,50 L11.999,44.26 L12.0546144,44.2085738 C14.2304772,42.0747257 15.5,39.1404719 15.5,36 L15.4947941,35.6519375 C15.404718,32.6432739 14.1498896,29.8462429 12.0546144,27.7914262 L11.999,27.738 L12,22.0000117 C12,18.9624339 14.4624339,16.5 17.5,16.5 Z" id="形状结合" fill="#60759C" fill-rule="nonzero"></path>
        <path d="M41.7058167,38.7833257 C41.8488169,38.9544053 41.9307664,39.1587658 41.9489167,39.3964059 C41.9307667,39.6434061 41.8488166,39.8498461 41.7058167,40.0152066 C41.562266,40.1816068 41.3670158,40.2736466 41.117316,40.2934069 L38.3629085,40.2793669 L38.3629085,41.7894507 C38.3255085,42.5964914 37.8800077,43.0000123 37.0286064,43.0000123 C36.6078559,43.0000123 36.2806056,42.9012122 36.0463047,42.701012 C35.8109042,42.5018515 35.6844041,42.1981717 35.6662538,41.7894507 L35.6662538,40.3074489 L32.8964446,40.3074489 C32.6390441,40.2887289 32.4399441,40.1816088 32.3018934,39.9871281 L32.3018934,39.987128 C32.1634224,39.7937465 32.0769544,39.5713408 32.0499928,39.3392068 C32.0791428,39.102086 32.1627429,38.9076063 32.3018934,38.7552458 C32.4393935,38.6034059 32.639044,38.5176058 32.8964446,38.498366 L35.6662537,38.498366 L35.6662537,37.0808439 L32.8964446,37.0668039 C32.639044,37.0475638 32.4399441,36.9576037 32.3018934,36.7964036 C32.1627429,36.6341636 32.0791431,36.4298031 32.0499928,36.1828028 C32.0791428,35.9456821 32.1627429,35.7512023 32.3018934,35.5988419 C32.4393935,35.447002 32.639044,35.3617211 32.8964446,35.3424814 L34.9628008,35.3424814 L33.0400007,31.981203 L33.0400007,31.981203 C32.9313987,31.8468814 32.8398399,31.7009778 32.7671998,31.546482 L32.7671998,31.5464819 C32.6803889,31.3656205 32.6411394,31.1675886 32.6527997,30.9692813 C32.7000997,30.7030412 32.7963504,30.487241 32.9388,30.3208408 C33.0828999,30.1549611 33.3513005,30.0478405 33.7429007,30.0005199 C33.9722507,30.0192399 34.1785009,30.09828 34.3600011,30.2360804 C34.5415013,30.3733601 34.6900015,30.5231205 34.8055016,30.6843207 L36.9856983,34.6451612 L39.3815043,30.6562386 C39.4959044,30.4950384 39.644954,30.3520383 39.8270048,30.2287984 C40.008505,30.1039984 40.2136555,30.0285982 40.4430055,29.9999981 C40.5871054,30.0093581 40.7180058,30.0285982 40.8379062,30.0566782 C40.9561564,30.0857982 41.0623068,30.1331183 41.1536061,30.2001989 C41.2438062,30.2662389 41.3208057,30.361399 41.3829561,30.4846389 C41.4451061,30.6078791 41.4896562,30.7695995 41.518806,30.9692792 C41.518806,31.2448796 41.4236558,31.5059196 41.2322551,31.7529199 L39.0086063,35.3430061 L41.1178641,35.3430061 C41.3664641,35.3617261 41.5628141,35.4475262 41.705265,35.5993667 C41.8482652,35.7517271 41.9302148,35.9462068 41.9494648,36.1833276 C41.9302148,36.4308484 41.8466147,36.6398884 41.6986639,36.8104488 C41.5501638,36.9810093 41.3521635,37.0756491 41.103013,37.0954094 L38.3623555,37.1094494 L38.3623555,38.498369 L41.116763,38.498369 C41.3664628,38.517609 41.561713,38.6127692 41.7052637,38.7833296 L41.7058167,38.7833257 Z" id="路径" fill="#60759C" fill-rule="nonzero"></path>
        <path d="M23,35 C23.8284271,35 24.5,35.6715729 24.5,36.5 C24.5,43.127417 29.872583,48.5 36.5,48.5 C39.6866366,48.5 42.6728196,47.2543636 44.9024976,45.0672708 C45.4939045,44.4871594 46.4436078,44.4963161 47.0237193,45.0877231 C47.6038308,45.67913 47.594674,46.6288333 47.0032671,47.2089448 C44.2182522,49.940768 40.4802816,51.5 36.5,51.5 C28.2157288,51.5 21.5,44.7842712 21.5,36.5 C21.5,35.6715729 22.1715729,35 23,35 Z M36.5,21.5 C44.7842712,21.5 51.5,28.2157288 51.5,36.5 C51.5,37.9281016 51.3646261,39.0928791 51.0336106,40.3090523 C50.8160457,41.1084002 49.991675,41.5800285 49.1923272,41.3624636 C48.3929793,41.1448987 47.921351,40.3205281 48.1389159,39.5211802 C48.3949722,38.580412 48.5,37.676737 48.5,36.5 C48.5,29.872583 43.127417,24.5 36.5,24.5 C32.2692543,24.5 28.4208161,26.7057953 26.2536698,30.2502575 C25.8215288,30.957043 24.8982465,31.1796863 24.191461,30.7475453 C23.4846756,30.3154043 23.2620323,29.392122 23.6941733,28.6853365 C26.4008604,24.2584319 31.2134804,21.5 36.5,21.5 Z" id="形状" fill="#60759C" fill-rule="nonzero" transform="translate(36.500000, 36.500000) rotate(-23.000000) translate(-36.500000, -36.500000) "></path>
    </g>
</svg>