<?xml version="1.0" encoding="UTF-8"?>
<svg width="72px" height="72px" viewBox="0 0 72 72" version="1.1" xmlns="http://www.w3.org/2000/svg" xmlns:xlink="http://www.w3.org/1999/xlink">
    <title>银行对账</title>
    <g id="银行对账" stroke="none" stroke-width="1" fill="none" fill-rule="evenodd">
        <path d="M17.3578884,42.5729092 C16.6624439,42.7527343 15.8947933,42.9865319 15.0602045,43.2677293 L14.6373563,43.4122475 C14.2121071,43.559571 13.7739909,43.7171864 13.3253156,43.8837219 C12.3990875,44.2275114 11.4690607,44.5936272 10.5767975,44.9596629 L9.39191067,45.4563733 L7.05694646,46.4674545 L6.97914859,49.1983436 L6.97591169,49.7796257 C6.9778155,50.2953116 6.99193394,50.8865414 7.0236037,51.533315 C7.08977617,52.8847178 7.22176755,54.2243796 7.43931463,55.5062863 C8.15772817,59.7395729 9.56783525,62.7751798 12.7468287,64.0717 C13.4589625,64.37002 14.0214106,64.4719884 15.3009672,64.5781339 L17.7368592,64.7551317 C18.2543134,64.7934121 18.7012116,64.8304414 19.1175846,64.8706099 L19.4247663,64.9013934 C20.2789108,64.990302 20.9939861,65.0944408 21.5766307,65.2179986 L24.6535962,65.8461927 L29.5683982,66.8098535 C30.0851134,66.9134402 30.5687343,67.0121886 31.0813089,67.1187416 L33.1039721,67.5723625 C33.9584988,67.7592924 34.6166114,67.8746441 35.3083773,67.9418065 C36.7641051,68.0831406 38.1580087,67.9702168 39.7131793,67.56496 C42.403932,66.8686271 47.9364459,63.8291315 50.3248133,62.1134673 L51.469267,61.2664799 C52.688375,60.3556511 54.2736519,59.1497804 55.7505398,58.0001413 L56.6803671,57.2722903 C60.7967571,54.0303345 62.6630948,52.4116066 63.4042585,50.9831733 C64.8285251,48.0876736 63.5376951,45.444525 61.2411652,43.8874751 C59.7579919,42.881882 57.8185613,42.3139674 56.0035792,42.3784745 C54.2092836,42.4299297 51.5343359,43.1396181 47.789018,44.3924985 L46.6876718,44.7666938 L46.1220419,44.9630117 C44.8986416,45.3904303 43.652633,45.8431272 42.3720496,46.3212752 L39.9955234,47.2206958 L38.514969,47.783 L37.9650796,47.7087104 L37.0805429,47.5993815 C36.8344085,47.5681681 36.6346529,47.5405929 36.4516125,47.5120881 C36.1146044,47.4596061 35.84837,47.4056478 35.6441153,47.349323 C34.1294179,46.9388465 33.0245389,46.4024985 31.5593446,45.1688099 L31.2612734,44.9126049 C27.9806351,42.0130237 22.355148,41.3838864 17.7047853,42.4869407 L17.3578884,42.5729092 Z M18.3592567,46.445539 C21.3016626,45.6847041 26.1473347,45.7310965 28.6248624,47.9208165 C31.0969209,50.0873404 33.0056563,50.7785867 34.5807732,51.2053966 C36.1285443,51.6322064 38.0646255,51.6322064 38.8904681,51.9662315 C39.7163106,52.3048958 41.6523918,55.2508116 38.4255898,56.1693806 C35.1987878,57.0833103 29.9648056,55.9884503 28.3131205,55.6544252 C26.6614354,55.3157609 25.2941464,54.8240017 25.0097503,54.7358562 L24.9602314,54.7311425 C24.6522792,54.7381122 24.1635938,55.376568 29.2155312,57.5982657 C33.1150394,59.0271508 38.0372797,58.3776576 39.6123967,57.7977529 C41.4172181,57.1297027 42.604025,56.0116465 42.7571613,54.6245145 C42.992335,52.4997438 42.1391467,51.9430353 41.4172181,50.959517 L43.9230377,50.0119588 C47.6142472,48.6367061 53.7955471,46.4434662 56.145655,46.3759505 C58.1036129,46.3063619 60.5537947,47.7166901 59.8537428,49.1409359 C59.1099376,50.5744603 49.4896923,57.7699175 47.9911435,58.8647775 L47.742448,59.0370306 C46.1589451,60.104306 41.1384474,63.0643477 38.7045168,63.6942236 C36.1230752,64.366913 34.7339096,63.8055653 31.8954176,63.2024645 L30.2129893,62.8596094 C28.2355593,62.4641845 26.4869801,62.1384568 24.3034633,61.6964148 L22.4064321,61.3050164 C19.3655814,60.6601624 15.1105781,60.7251117 14.2573897,60.3678904 C10.6969692,58.9158091 10.9813653,49.1270182 10.9813653,49.1270182 L11.655679,48.8419564 C13.0088596,48.2781745 16.1174236,47.0252228 18.3592567,46.445539 Z" id="形状" fill="#60759C" fill-rule="nonzero" transform="translate(35.487985, 54.988130) scale(-1, 1) translate(-35.487985, -54.988130) "></path>
        <path d="M39.7257983,8.66216216 C40.5962882,8.66216216 41.4441821,8.91452778 42.1690562,9.38319886 L42.298,9.473 L57.3117128,16.8289045 L57.5382923,17.0157111 C58.5103248,17.8171173 59.0989028,18.9864671 59.1686781,20.2367525 L59.1756757,20.4878036 L59.1756757,45 C59.1756757,46.3807119 58.0563876,47.5 56.6756757,47.5 C55.3501923,47.5 54.265637,46.4684641 54.1809934,45.1643757 L54.1756757,45 L54.175,20.86 L39.6343093,13.7347569 L39.547,13.662 L20,13.6621622 C19.2203039,13.6621622 18.5795513,14.2570502 18.5068666,15.0177022 L18.5,15.1621622 L18.5,42.2753718 C18.5,43.6560837 17.3807119,44.7753718 16,44.7753718 C14.6745166,44.7753718 13.5899613,43.7438359 13.5053177,42.4397475 L13.5,42.2753718 L13.5,15.1621622 C13.5,11.6503515 16.2849962,8.78901161 19.7668659,8.66626517 L20,8.66216216 L39.7257983,8.66216216 Z" id="路径" fill="#60759C" fill-rule="nonzero"></path>
        <path d="M42.9054054,10 L42.9054054,17 C42.9054054,18.3254834 43.9369413,19.4100387 45.2410297,19.4946823 L45.4054054,19.5 L59,19.5 L59,24.5 L45.4054054,24.5 C41.3444881,24.5 38.0373879,21.2725256 37.909259,17.2427311 L37.9054054,17 L37.9054054,10 L42.9054054,10 Z" id="路径-6" fill="#60759C" fill-rule="nonzero"></path>
        <path d="M46,32.5369486 C46,33.2389897 45.6862024,33.8752683 45.1917969,34.3111605 L37.1247583,41.460687 C36.694507,41.8373585 36.1251387,42.0666667 35.5041681,42.0666667 C34.1639038,42.0666667 33.0785128,41.0020707 33.0785128,39.6861308 C33.0785128,38.9761706 33.3923104,38.3478111 33.8867159,37.9119189 L37.2670132,34.9178287 L26.4183334,34.9178287 C25.082253,34.9178287 24,33.8532327 24,32.5297181 C24,31.2137783 25.082253,30.1491823 26.4183334,30.1491823 L37.2670132,30.1491823 L33.8867159,27.1547478 C33.3923104,26.7185113 33.0785128,26.0863644 33.0785128,25.3808801 C33.0785128,24.064596 34.1639038,23 35.5041681,23 C36.1251387,23 36.694507,23.2293082 37.1247583,23.6135544 L45.1917969,30.7627366 C45.6858538,31.1986288 46,31.8345631 46,32.5369486" id="路径" fill="#60759C"></path>
    </g>
</svg>