<?xml version="1.0" encoding="UTF-8"?>
<svg width="72px" height="72px" viewBox="0 0 72 72" version="1.1" xmlns="http://www.w3.org/2000/svg" xmlns:xlink="http://www.w3.org/1999/xlink">
    <title>汇兑损益</title>
    <g id="汇兑损益" stroke="none" stroke-width="1" fill="none" fill-rule="evenodd">
        <path d="M50.8974471,8.91741728 C56.0221181,8.91741728 60.3431377,12.4834448 60.4958257,17.1501719 L60.5,17.4057974 L60.5,27.5933449 C60.5,28.9740567 59.3807119,30.0933449 58,30.0933449 C56.6745166,30.0933449 55.5899613,29.0618089 55.5053177,27.7577206 L55.5,27.5933449 L55.5,17.4057974 C55.5,15.6379603 53.642755,14.0184893 51.1344694,13.9219629 L50.8974471,13.9174173 L19.1025529,13.9174173 C16.5547552,13.9174173 14.6203042,15.4833174 14.5054043,17.2405393 L14.5,17.4057974 L14.5,55.937 L18.752,58.858 L27.2704756,54.9778871 C27.9028679,54.6897651 28.6237904,54.6789553 29.2609617,54.9420544 L29.4325298,55.0205972 L37.039,58.856 L39.6819359,57.2167655 C40.8062773,56.5191499 42.2685717,56.8215985 43.0291697,57.8806119 L43.1243133,58.0230146 C43.8219289,59.1473561 43.5194803,60.6096505 42.4604669,61.3702485 L42.3180641,61.4653921 L38.4842814,63.8441239 C37.797035,64.2705369 36.9497084,64.3362689 36.2094718,64.0295137 L36.0406706,63.9521064 L28.251,60.025 L19.5391583,63.9948166 C18.79784,64.332566 17.9425003,64.2865452 17.2451211,63.8805311 L17.0871153,63.7804559 L10.5844645,59.3135384 C9.9578412,58.8830871 9.56402016,58.193247 9.50714014,57.4418974 L9.5,57.2528931 L9.5,17.4057974 C9.5,12.6998599 13.7295076,9.04979776 18.8238427,8.92093902 L19.1025529,8.91741728 L50.8974471,8.91741728 Z" id="路径" fill="#60759C" fill-rule="nonzero"></path>
        <path d="M30.5,34.0933449 C31.8807119,34.0933449 33,35.212633 33,36.5933449 C33,37.9740567 31.8807119,39.0933449 30.5,39.0933449 L22.5,39.0933449 C21.1192881,39.0933449 20,37.9740567 20,36.5933449 C20,35.212633 21.1192881,34.0933449 22.5,34.0933449 L30.5,34.0933449 Z" id="矩形" fill="#60759C" fill-rule="nonzero" transform="translate(26.500000, 36.593345) scale(1, -1) translate(-26.500000, -36.593345) "></path>
        <path d="M42.5,23.0933449 C43.8807119,23.0933449 45,24.212633 45,25.5933449 C45,26.9740567 43.8807119,28.0933449 42.5,28.0933449 L22.5,28.0933449 C21.1192881,28.0933449 20,26.9740567 20,25.5933449 C20,24.212633 21.1192881,23.0933449 22.5,23.0933449 L42.5,23.0933449 Z" id="矩形备份" fill="#60759C" fill-rule="nonzero" transform="translate(32.500000, 25.593345) scale(1, -1) translate(-32.500000, -25.593345) "></path>
        <path d="M60.9534629,39.1545753 C61.9726628,38.2231265 63.553976,38.2942629 64.4854247,39.3134629 C65.3763757,40.2883498 65.3500276,41.7775331 64.4540952,42.7203456 L64.3265371,42.8454247 L55.1748026,51.209212 C53.0443462,53.1562402 49.785884,53.1177868 47.7024757,51.1616148 L47.5217536,50.9840363 L41.1791471,44.4629514 C41.0365146,44.3163053 40.821625,44.2732751 40.6365964,44.3466602 L40.5594244,44.3852758 L31.3064919,50.056946 C30.1293246,50.7785015 28.5901056,50.4091552 27.86855,49.2319879 C27.1770593,48.1038692 27.4874559,46.6432413 28.5505901,45.8884138 L28.6935081,45.7940461 L37.9464407,40.1223759 C40.0683282,38.8217454 42.7883003,39.1121296 44.5866804,40.8030533 L44.7633901,40.9768071 L51.1059966,47.497892 C51.2707735,47.6673056 51.5272145,47.6954216 51.7223153,47.577738 L51.8017284,47.5183626 L60.9534629,39.1545753 Z" id="路径-12" fill="#60759C" fill-rule="nonzero"></path>
    </g>
</svg>