<?xml version="1.0" encoding="UTF-8"?>
<svg width="72px" height="72px" viewBox="0 0 72 72" version="1.1" xmlns="http://www.w3.org/2000/svg" xmlns:xlink="http://www.w3.org/1999/xlink">
    <title>周期凭证</title>
    <g id="周期凭证" stroke="none" stroke-width="1" fill="none" fill-rule="evenodd">
        <path d="M30,12.5 C31.3807119,12.5 32.5,13.6192881 32.5,15 C32.5,16.3254834 31.4684641,17.4100387 30.1643757,17.4946823 L30,17.5 L17.7037037,17.5 C14.9034679,17.5 12.6198335,19.7118335 12.5045651,22.4837358 L12.5,22.7037037 L12.5,54.2962963 C12.5,57.0965321 14.7118335,59.3801665 17.4837358,59.4954349 L17.7037037,59.5 L54.2962963,59.5 C57.0965321,59.5 59.3801665,57.2881665 59.4954349,54.5162642 L59.5,54.2962963 L59.5,46.6045476 C59.5,45.2238358 60.6192881,44.1045476 62,44.1045476 C63.3254834,44.1045476 64.4100387,45.1360836 64.4946823,46.440172 L64.5,46.6045476 L64.5,54.2962963 C64.5,59.8377237 60.0826557,64.3474252 54.5771584,64.4962092 L54.2962963,64.5 L17.7037037,64.5 C12.1622763,64.5 7.65257485,60.0826557 7.50379075,54.5771584 L7.5,54.2962963 L7.5,22.7037037 C7.5,17.1622763 11.9173443,12.6525748 17.4228416,12.5037908 L17.7037037,12.5 L30,12.5 Z" id="路径" fill="#60759C" fill-rule="nonzero" transform="translate(36.000000, 38.500000) scale(1, -1) translate(-36.000000, -38.500000) "></path>
        <path d="M30.5,40.0933449 C31.8807119,40.0933449 33,41.212633 33,42.5933449 C33,43.9740567 31.8807119,45.0933449 30.5,45.0933449 L19.5,45.0933449 C18.1192881,45.0933449 17,43.9740567 17,42.5933449 C17,41.212633 18.1192881,40.0933449 19.5,40.0933449 L30.5,40.0933449 Z" id="矩形" fill="#60759C" fill-rule="nonzero" transform="translate(25.000000, 42.593345) scale(1, -1) translate(-25.000000, -42.593345) "></path>
        <path d="M29.5,12 C30.8807119,12 32,13.1192881 32,14.5 C32,15.8807119 30.8807119,17 29.5,17 L20.5,17 C19.1192881,17 18,15.8807119 18,14.5 C18,13.1192881 19.1192881,12 20.5,12 L29.5,12 Z" id="矩形备份-2" fill="#60759C" fill-rule="nonzero" transform="translate(25.000000, 14.500000) scale(1, -1) rotate(90.000000) translate(-25.000000, -14.500000) "></path>
        <path d="M51.5,12 C52.8807119,12 54,13.1192881 54,14.5 C54,15.8807119 52.8807119,17 51.5,17 L42.5,17 C41.1192881,17 40,15.8807119 40,14.5 C40,13.1192881 41.1192881,12 42.5,12 L51.5,12 Z" id="矩形备份-3" fill="#60759C" fill-rule="nonzero" transform="translate(47.000000, 14.500000) scale(1, -1) rotate(90.000000) translate(-47.000000, -14.500000) "></path>
        <path d="M59.5,25.0933449 C60.8807119,25.0933449 62,26.212633 62,27.5933449 C62,28.9740567 60.8807119,30.0933449 59.5,30.0933449 L12.5,30.0933449 C11.1192881,30.0933449 10,28.9740567 10,27.5933449 C10,26.212633 11.1192881,25.0933449 12.5,25.0933449 L59.5,25.0933449 Z" id="矩形备份" fill="#60759C" fill-rule="nonzero" transform="translate(36.000000, 27.593345) scale(1, -1) translate(-36.000000, -27.593345) "></path>
        <path d="M57.754717,38 L44.245283,38 C39.827005,38 36.245283,41.581722 36.245283,46 L36.2457707,48.4286013 L36.9992144,49.0289666 C37.7114339,49.5964832 38.1320755,50.4502842 38.1320755,51.3773585 C38.1320755,52.3044328 37.7114339,53.1582337 36.9992144,53.7257504 L36.246538,54.3255043 L36.245283,55.5829111 C36.245283,60.0031837 39.827005,63.5849057 44.245283,63.5849057 L57.754717,63.5849057 C62.0896312,63.5849057 65.6192598,60.1370679 65.7509102,55.834085 L65.754717,55.5363987 L65.7537329,54.4682951 L64.8655372,53.8750372 C64.0350527,53.3203267 63.5283019,52.393367 63.5283019,51.3773585 C63.5283019,50.36135 64.0350527,49.4343902 64.8655372,48.8796798 L65.754717,48.2858163 L65.754717,46.0000678 C65.754717,41.581722 62.172995,38 57.754717,38 Z M57.754717,42 L57.9543573,42.0048953 C60.0707485,42.1089211 61.754717,43.8578046 61.754717,46 L61.754,46.258 L61.6160296,46.3898956 C60.3015901,47.6839309 59.5283019,49.4660131 59.5283019,51.3773585 L59.5335373,51.6494897 C59.6031755,53.4573193 60.3641824,55.1324068 61.6160296,56.3648213 L61.668,56.413 L61.6361542,56.556556 C61.2024295,58.2956173 59.629138,59.5849057 57.754717,59.5849057 L44.245283,59.5849057 L44.0456427,59.5800104 C42.1276632,59.485737 40.5648277,58.0405599 40.2886533,56.1759963 L40.281,56.119 L40.2928942,56.1070298 C41.4596387,54.8350426 42.1320755,53.1601138 42.1320755,51.3773585 L42.1265133,51.0968099 C42.0599234,49.4194111 41.3982311,47.8527277 40.2928942,46.6476872 L40.245,46.598 L40.245283,45.9995983 C40.245283,43.790861 42.036144,42 44.245283,42 L57.754717,42 Z" id="形状结合" fill="#60759C" fill-rule="nonzero"></path>
        <path d="M55.8767424,53.5232629 C56.0100293,53.6911147 56.0864125,53.8916193 56.1033299,54.1247756 C56.0864127,54.3671155 56.0100291,54.5696604 55.8767424,54.7319008 C55.7429423,54.8951614 55.5609543,54.9854646 55.3282153,55.0048521 L52.7608996,54.9910769 L52.7608996,56.4726686 C52.72604,57.2644821 52.3107996,57.6603895 51.5172294,57.6603895 C51.1250582,57.6603895 50.8200361,57.5634535 50.6016501,57.3670306 C50.382239,57.1716279 50.2643313,56.8736779 50.2474139,56.4726686 L50.2474139,55.0186292 L47.6657427,55.0186292 C47.425826,55.0002623 47.2402498,54.8951634 47.1115761,54.7043521 L47.1115761,54.704352 C46.9825107,54.5146192 46.901916,54.2964099 46.8767858,54.0686557 C46.9039558,53.8360089 46.9818774,53.6451986 47.1115761,53.4957129 C47.2397366,53.3467379 47.425826,53.2625566 47.6657427,53.2436799 L50.2474139,53.2436799 L50.2474139,51.8529034 L47.6657427,51.8391283 C47.425826,51.8202513 47.2402498,51.7319886 47.1115761,51.5738299 C46.9818774,51.4146511 46.903956,51.2141465 46.8767858,50.9718066 C46.9039558,50.7391598 46.9818774,50.5483495 47.1115761,50.3988638 C47.2397366,50.2498887 47.425826,50.166217 47.6657427,50.1473402 L49.5917426,50.1473402 L47.7995478,46.8494822 L47.7995478,46.8494822 C47.6983225,46.717695 47.6129829,46.5745443 47.5452768,46.4229635 L47.5452768,46.4229634 C47.4643624,46.2455145 47.427779,46.051219 47.4386472,45.8566533 C47.4827345,45.5954367 47.5724473,45.3837081 47.7052211,45.2204476 C47.8395331,45.0576977 48.0897027,44.9525982 48.4547036,44.9061705 C48.6684751,44.9245373 48.8607159,45.002086 49.0298878,45.1372865 C49.1990597,45.2719759 49.3374731,45.4189107 49.4451279,45.5770694 L51.4772357,49.4631771 L53.7103078,45.5495171 C53.8169373,45.3913585 53.9558628,45.2510564 54.1255479,45.1301418 C54.2947198,45.0076965 54.4859355,44.9337189 54.699707,44.9056585 C54.834019,44.9148419 54.9560281,44.9337189 55.0677843,44.9612692 C55.1780024,44.9898398 55.2769425,45.036267 55.3620404,45.1020819 C55.4461137,45.1668759 55.5178831,45.2602406 55.5758119,45.3811552 C55.6337404,45.50207 55.6752644,45.6607392 55.7024342,45.8566513 C55.7024342,46.1270517 55.6137471,46.3831664 55.4353472,46.6255063 L53.3627387,50.1478551 L55.3287261,50.1478551 C55.5604401,50.1662219 55.7434531,50.2504031 55.8762282,50.3993786 C56.0095151,50.5488643 56.0858983,50.7396746 56.1038408,50.9723214 C56.0858983,51.215172 56.0079767,51.4202678 55.8700755,51.5876102 C55.7316621,51.7549525 55.5471109,51.8478067 55.3148838,51.8671941 L52.7603842,51.8809693 L52.7603842,53.2436828 L55.3276999,53.2436828 C55.5604389,53.2625598 55.7424268,53.3559245 55.8762269,53.5232668 L55.8767424,53.5232629 Z" id="路径" fill="#60759C" fill-rule="nonzero"></path>
    </g>
</svg>