<?xml version="1.0" encoding="UTF-8"?>
<svg width="72px" height="72px" viewBox="0 0 72 72" version="1.1" xmlns="http://www.w3.org/2000/svg" xmlns:xlink="http://www.w3.org/1999/xlink">
    <title>管理报表</title>
    <g id="管理报表" stroke="none" stroke-width="1" fill="none" fill-rule="evenodd">
        <path d="M59.8309091,55.0995558 C60.6306061,53.7358242 62.0015152,53.0539584 63.3724242,53.1676027 C63.6009091,52.3720927 63.7151515,51.4629383 63.7151515,50.5537839 C63.7151515,49.7582738 63.6009091,48.9627638 63.4866666,48.280898 C62.1157576,48.5081866 60.630606,47.7126765 59.8309091,46.348945 C59.0312121,44.9852134 59.1454545,43.280549 60.0593939,42.2577503 C58.8027273,41.1213073 57.4318182,40.3257973 55.8324242,39.7575758 C55.3754545,41.1213073 54.0045455,42.0304617 52.2909091,42.0304617 C50.5772727,42.0304617 49.3206061,41.1213073 48.7493939,39.7575758 C47.15,40.3257972 45.7790909,41.2349516 44.5224243,42.3713946 C45.4363636,43.5078375 45.5506061,45.0988577 44.7509091,46.4625892 C43.9512121,47.8263208 42.4660606,48.5081866 41.0951515,48.280898 C40.9809091,49.0764081 40.8666667,49.8719181 40.8666667,50.6674282 C40.8666667,51.5765826 40.9809091,52.3720927 41.2093939,53.1676027 C42.580303,53.0539584 43.9512121,53.7358242 44.7509091,55.0995558 C45.4363636,56.4632873 45.4363636,57.9406632 44.6366667,59.0771061 C45.8933333,60.2135491 47.2642424,61.0090592 48.8636364,61.4636364 C49.4348485,60.2135491 50.6915152,59.418039 52.2909091,59.418039 C53.890303,59.418039 55.1469697,60.2135491 55.7181818,61.4636364 C57.3175757,61.0090592 58.6884848,60.0999048 59.9451515,59.0771061 C59.1454545,57.9406632 59.0312121,56.4632873 59.8309091,55.0995558 Z M52.2909091,55.554133 C49.5490909,55.554133 47.3784848,53.3948913 47.3784848,50.6674282 C47.3784848,47.9399651 49.5490909,45.7807235 52.2909091,45.7807235 C55.0327273,45.7807235 57.2033333,47.9399651 57.2033333,50.6674282 C57.2033333,53.3948913 55.0327273,55.554133 52.2909091,55.554133 Z" id="形状" fill="#60759C" fill-rule="nonzero"></path>
        <path d="M57,11.5 C61.0609173,11.5 64.3680175,14.7274744 64.4961464,18.7572689 L64.5,19 L64.5,33.0926594 L59.5,33.0926594 L59.5,19 C59.5,17.6745166 58.4684641,16.5899613 57.1643757,16.5053177 L57,16.5 L15,16.5 C13.6745166,16.5 12.5899613,17.5315359 12.5053177,18.8356243 L12.5,19 L12.5,53 C12.5,54.3254834 13.5315359,55.4100387 14.8356243,55.4946823 L15,55.5 L37,55.5 L37,60.5 L15,60.5 C10.9390827,60.5 7.63198248,57.2725256 7.50385357,53.2427311 L7.5,53 L7.5,19 C7.5,14.9390827 10.7274744,11.6319825 14.7572689,11.5038536 L15,11.5 L57,11.5 Z" id="路径" fill="#60759C" fill-rule="nonzero"></path>
        <polygon id="路径-11" fill="#60759C" fill-rule="nonzero" points="59.5910986 24.8173636 59.5910986 29.8173636 12 29.8173636 12 24.8173636"></polygon>
        <polygon id="路径-11备份" fill="#60759C" fill-rule="nonzero" points="37 35 37 40 12 40 12 35"></polygon>
        <polygon id="路径-11备份-2" fill="#60759C" fill-rule="nonzero" points="37 45 37 50 12 50 12 45"></polygon>
        <polygon id="直线" fill="#60759C" fill-rule="nonzero" points="29 27.5 29 57.5 24 57.5 24 27.5"></polygon>
        <polygon id="直线备份" fill="#60759C" fill-rule="nonzero" points="47.5 27.5 47.5 33.5 42.5 33.5 42.5 27.5"></polygon>
    </g>
</svg>