<?xml version="1.0" encoding="UTF-8"?>
<svg width="72px" height="72px" viewBox="0 0 72 72" version="1.1" xmlns="http://www.w3.org/2000/svg" xmlns:xlink="http://www.w3.org/1999/xlink">
    <title>往来核销</title>
    <g id="往来核销" stroke="none" stroke-width="1" fill="none" fill-rule="evenodd">
        <path d="M30,7.5 C31.3807119,7.5 32.5,8.61928813 32.5,10 C32.5,11.3254834 31.4684641,12.4100387 30.1643757,12.4946823 L30,12.5 L17.7037037,12.5 C14.9034679,12.5 12.6198335,14.7118335 12.5045651,17.4837358 L12.5,17.7037037 L12.5,54.2962963 C12.5,57.0965321 14.7118335,59.3801665 17.4837358,59.4954349 L17.7037037,59.5 L54.2962963,59.5 C57.0965321,59.5 59.3801665,57.2881665 59.4954349,54.5162642 L59.5,54.2962963 L59.5,41.6045476 C59.5,40.2238358 60.6192881,39.1045476 62,39.1045476 C63.3254834,39.1045476 64.4100387,40.1360836 64.4946823,41.440172 L64.5,41.6045476 L64.5,54.2962963 C64.5,59.8377237 60.0826557,64.3474252 54.5771584,64.4962092 L54.2962963,64.5 L17.7037037,64.5 C12.1622763,64.5 7.65257485,60.0826557 7.50379075,54.5771584 L7.5,54.2962963 L7.5,17.7037037 C7.5,12.1622763 11.9173443,7.65257485 17.4228416,7.50379075 L17.7037037,7.5 L30,7.5 Z" id="路径" fill="#60759C" fill-rule="nonzero" transform="translate(36.000000, 36.000000) scale(1, -1) translate(-36.000000, -36.000000) "></path>
        <path d="M40.3822151,35.8910109 C40.6825154,36.2200103 40.8546095,36.6130112 40.8927251,37.0700113 C40.8546101,37.5450118 40.6825149,37.9420118 40.3822151,38.2600126 C40.0807586,38.580013 39.6707331,38.7570127 39.1463636,38.7950133 L33.3621079,38.7680132 L33.3621079,41.6720205 C33.2835678,43.2240218 32.3480161,44.0000237 30.5600735,44.0000237 C29.6764975,44.0000237 28.9892717,43.8100235 28.49724,43.4250231 C28.0028988,43.0420221 27.7372485,42.4580224 27.6991329,41.6720205 L27.6991329,38.8220172 L21.8825337,38.8220172 C21.3419925,38.7860172 20.9238826,38.5800169 20.6339761,38.2060155 L20.6339761,38.2060154 C20.343187,37.8341278 20.1616042,37.4064247 20.1049849,36.960013 C20.1662,36.5040115 20.3417602,36.1300121 20.6339761,35.8370112 C20.9227264,35.5450114 21.3419925,35.3800112 21.8825337,35.3430116 L27.6991328,35.3430116 L27.6991328,32.6170075 L21.8825337,32.5900074 C21.3419925,32.5530074 20.9238826,32.3800072 20.6339761,32.0700068 C20.3417602,31.758007 20.1662005,31.365006 20.1049849,30.8900055 C20.1662,30.434004 20.3417602,30.0600045 20.6339761,29.7670037 C20.9227264,29.4750038 21.3419925,29.3110022 21.8825337,29.2740026 L26.2218816,29.2740026 L22.1840014,22.8100058 L22.1840014,22.8100058 C21.9559372,22.551695 21.7636639,22.2711112 21.6111197,21.9740039 L21.6111196,21.9740037 C21.4288166,21.6261933 21.3463928,21.2453628 21.3708793,20.8640025 C21.4702094,20.3520023 21.6723358,19.9370019 21.97148,19.6170015 C22.2740898,19.2980021 22.837731,19.0920009 23.6600914,19.0009998 C24.1417264,19.0369998 24.5748519,19.189 24.9560023,19.4540008 C25.3371528,19.7180001 25.6490031,20.006001 25.8915534,20.3160013 L30.4699663,27.9330024 L35.501159,20.2619974 C35.7413992,19.951997 36.0544035,19.6769967 36.4367101,19.4399969 C36.8178605,19.1999969 37.2486766,19.0549964 37.7303116,18.9999964 C38.0329214,19.0179964 38.3078122,19.0549964 38.5596031,19.1089965 C38.8079284,19.1649966 39.0308442,19.2559967 39.2225727,19.3849978 C39.411993,19.511998 39.573692,19.6949982 39.7042077,19.931998 C39.8347229,20.1689982 39.928278,20.4799991 39.9894925,20.8639986 C39.9894925,21.3939992 39.7896773,21.8959993 39.3877357,22.3709998 L34.7180731,29.2750118 L39.1475146,29.2750118 C39.6695746,29.3110118 40.0819095,29.476012 40.3810566,29.7680128 C40.6813569,30.0610136 40.853451,30.4350131 40.893876,30.8910146 C40.853451,31.3670161 40.6778908,31.7690161 40.3671943,32.097017 C40.0553439,32.4250179 39.6395434,32.6070176 39.1163273,32.6450181 L33.3609466,32.6720182 L33.3609466,35.3430174 L39.1452023,35.3430174 C39.6695718,35.3800174 40.0795973,35.5630176 40.3810537,35.8910185 L40.3822151,35.8910109 Z" id="路径" fill="#60759C" fill-rule="nonzero"></path>
        <path d="M51.2951801,41.5541454 L51.3980469,41.7149542 C51.9788422,42.7209211 51.6341725,44.007246 50.6282056,44.5880413 L48.0938678,46.0504577 L62.8182995,46.0508761 C63.97989,46.0508761 64.9215452,46.9925313 64.9215452,48.1541219 C64.9215452,49.3157124 63.97989,50.2573676 62.8182995,50.2573676 L40.8151135,50.2573676 C39.653523,50.2573676 38.7118678,49.3157124 38.7118678,48.1541219 C38.7118678,47.8388668 38.7812279,47.5398117 38.9055205,47.2713842 C39.0205914,46.8950668 39.2552355,46.5520669 39.5997544,46.3054493 C39.6418325,46.2753285 39.685155,46.2469851 39.7296077,46.2204939 L48.539679,40.9702048 C49.4769465,40.411648 50.6764404,40.6774629 51.2951801,41.5541454 Z" id="形状结合" fill="#60759C" fill-rule="nonzero"></path>
        <path d="M50.7451004,56.4406995 L50.8479673,56.6015084 C51.4287625,57.6074753 51.0840928,58.8938002 50.0781259,59.4745955 L47.5437881,60.9370119 L62.2682198,60.9374303 C63.4298104,60.9374303 64.3714656,61.8790855 64.3714656,63.040676 C64.3714656,64.2022666 63.4298104,65.1439218 62.2682198,65.1439218 L40.2650339,65.1439218 C39.1034433,65.1439218 38.1617881,64.2022666 38.1617881,63.040676 C38.1617881,62.725421 38.2311483,62.4263659 38.3554408,62.1579383 C38.4705117,61.781621 38.7051558,61.4386211 39.0496748,61.1920035 C39.0917529,61.1618827 39.1350753,61.1335393 39.179528,61.1070481 L47.9895993,55.8567589 C48.9268668,55.2982021 50.1263607,55.5640171 50.7451004,56.4406995 Z" id="形状结合" fill="#60759C" fill-rule="nonzero" transform="translate(51.266627, 60.353970) scale(-1, -1) translate(-51.266627, -60.353970) "></path>
    </g>
</svg>