<?xml version="1.0" encoding="UTF-8"?>
<svg width="72px" height="72px" viewBox="0 0 72 72" version="1.1" xmlns="http://www.w3.org/2000/svg" xmlns:xlink="http://www.w3.org/1999/xlink">
    <title>财务折算</title>
    <g id="财务折算" stroke="none" stroke-width="1" fill="none" fill-rule="evenodd">
        <path d="M18.3819193,42.5729092 C17.6864748,42.7527343 16.9188243,42.9865319 16.0842355,43.2677293 L15.6613872,43.4122475 C15.2361381,43.559571 14.7980219,43.7171864 14.3493466,43.8837219 C13.4231185,44.2275114 12.4930917,44.5936272 11.6008285,44.9596629 L10.4159416,45.4563733 L8.08097743,46.4674545 L8.00317956,49.1983436 L7.99994265,49.7796257 C8.00184646,50.2953116 8.0159649,50.8865414 8.04763466,51.533315 C8.11380714,52.8847178 8.24579851,54.2243796 8.46334559,55.5062863 C9.18175914,59.7395729 10.5918662,62.7751798 13.7708596,64.0717 C14.4829935,64.37002 15.0454416,64.4719884 16.3249981,64.5781339 L18.7608902,64.7551317 C19.2783443,64.7934121 19.7252426,64.8304414 20.1416156,64.8706099 L20.4487972,64.9013934 C21.3029417,64.990302 22.0180171,65.0944408 22.6006616,65.2179986 L25.6776271,65.8461927 L30.5924292,66.8098535 C31.1091444,66.9134402 31.5927653,67.0121886 32.1053399,67.1187416 L34.1280031,67.5723625 C34.9825297,67.7592924 35.6406424,67.8746441 36.3324083,67.9418065 C37.788136,68.0831406 39.1820397,67.9702168 40.7372103,67.56496 C43.427963,66.8686271 48.9604769,63.8291315 51.3488443,62.1134673 L52.4932979,61.2664799 C53.712406,60.3556511 55.2976828,59.1497804 56.7745707,58.0001413 L57.7043981,57.2722903 C61.820788,54.0303345 63.6871258,52.4116066 64.4282894,50.9831733 C65.8525561,48.0876736 64.5617261,45.444525 62.2651962,43.8874751 C60.7820229,42.881882 58.8425923,42.3139674 57.0276101,42.3784745 C55.2333146,42.4299297 52.5583668,43.1396181 48.813049,44.3924985 L47.7117028,44.7666938 L47.1460728,44.9630117 C45.9226725,45.3904303 44.6766639,45.8431272 43.3960806,46.3212752 L41.0195544,47.2206958 L39.539,47.783 L38.9891106,47.7087104 L38.1045739,47.5993815 C37.8584395,47.5681681 37.6586839,47.5405929 37.4756435,47.5120881 C37.1386354,47.4596061 36.872401,47.4056478 36.6681462,47.349323 C35.1534488,46.9388465 34.0485699,46.4024985 32.5833756,45.1688099 L32.2853044,44.9126049 C29.004666,42.0130237 23.3791789,41.3838864 18.7288163,42.4869407 L18.3819193,42.5729092 Z M19.3832877,46.445539 C22.3256936,45.6847041 27.1713657,45.7310965 29.6488934,47.9208165 C32.1209518,50.0873404 34.0296873,50.7785867 35.6048042,51.2053966 C37.1525753,51.6322064 39.0886565,51.6322064 39.914499,51.9662315 C40.7403416,52.3048958 42.6764228,55.2508116 39.4496208,56.1693806 C36.2228188,57.0833103 30.9888366,55.9884503 29.3371515,55.6544252 C27.6854664,55.3157609 26.3181774,54.8240017 26.0337813,54.7358562 L25.9842623,54.7311425 C25.6763102,54.7381122 25.1876247,55.376568 30.2395622,57.5982657 C34.1390704,59.0271508 39.0613107,58.3776576 40.6364276,57.7977529 C42.4412491,57.1297027 43.6280559,56.0116465 43.7811923,54.6245145 C44.016366,52.4997438 43.1631777,51.9430353 42.4412491,50.959517 L44.9470686,50.0119588 C48.6382781,48.6367061 54.8195781,46.4434662 57.169686,46.3759505 C59.1276438,46.3063619 61.5778257,47.7166901 60.8777737,49.1409359 C60.1339685,50.5744603 50.5137232,57.7699175 49.0151745,58.8647775 L48.766479,59.0370306 C47.182976,60.104306 42.1624784,63.0643477 39.7285477,63.6942236 C37.1471061,64.366913 35.7579405,63.8055653 32.9194486,63.2024645 L31.2370202,62.8596094 C29.2595903,62.4641845 27.5110111,62.1384568 25.3274943,61.6964148 L23.4304631,61.3050164 C20.3896124,60.6601624 16.134609,60.7251117 15.2814207,60.3678904 C11.7210002,58.9158091 12.0053963,49.1270182 12.0053963,49.1270182 L12.67971,48.8419564 C14.0328905,48.2781745 17.1414546,47.0252228 19.3832877,46.445539 Z" id="形状" fill="#60759C" fill-rule="nonzero"></path>
        <path d="M36.5,10 C27.3873016,10 20,17.3873016 20,26.5 C20,35.6126984 27.3873016,43 36.5,43 C45.6126984,43 53,35.6126984 53,26.5 C53,17.3873016 45.6126984,10 36.5,10 Z M36.5,14 C43.4035594,14 49,19.5964406 49,26.5 C49,33.4035594 43.4035594,39 36.5,39 C29.5964406,39 24,33.4035594 24,26.5 C24,19.5964406 29.5964406,14 36.5,14 Z" id="椭圆形" fill="#60759C" fill-rule="nonzero"></path>
        <path d="M42.6175617,29.1346065 C42.8034619,29.3320062 42.9099964,29.5678067 42.9335917,29.8420068 C42.9099967,30.1270071 42.8034616,30.3652071 42.6175617,30.5560076 C42.4309458,30.7480078 42.1771205,30.8542076 41.8525108,30.877008 L38.2717811,30.8608079 L38.2717811,32.6032123 C38.223161,33.5344131 37.64401,34.0000142 36.5371883,34.0000142 C35.9902127,34.0000142 35.5647872,33.8860141 35.2601962,33.6550138 C34.9541755,33.4252133 34.7897253,33.0748134 34.7661299,32.6032123 L34.7661299,30.8932103 L31.165378,30.8932103 C30.8307573,30.8716103 30.5719273,30.7480102 30.3924614,30.5236093 L30.3924614,30.5236093 C30.2124491,30.3004767 30.1000407,30.0438548 30.0649907,29.7760078 C30.1028857,29.5024069 30.2115658,29.2780072 30.3924614,29.1022067 C30.5712116,28.9270068 30.8307572,28.8280067 31.165378,28.805807 L34.7661299,28.805807 L34.7661299,27.1702045 L31.165378,27.1540045 C30.8307572,27.1318044 30.5719273,27.0280043 30.3924614,26.8420041 C30.2115658,26.6548042 30.1028861,26.4190036 30.0649907,26.1340033 C30.1028857,25.8604024 30.2115658,25.6360027 30.3924614,25.4602022 C30.5712116,25.2850023 30.8307572,25.1866013 31.165378,25.1644016 L33.851641,25.1644016 L31.3520009,21.2860035 L31.3520009,21.2860035 C31.2108183,21.131017 31.0917919,20.9626667 30.9973598,20.7844023 L30.9973597,20.7844022 C30.8845055,20.575716 30.8334812,20.3472177 30.8486396,20.1184015 C30.9101296,19.8112014 31.0352555,19.5622011 31.22044,19.3702009 C31.4077699,19.1788013 31.7566906,19.0552005 32.2657709,19.0005999 C32.5639259,19.0221999 32.8320512,19.1134 33.0680014,19.2724005 C33.3039517,19.4308001 33.4970019,19.6036006 33.6471521,19.7896008 L36.4814077,24.3598014 L39.5959556,19.7571984 C39.7446757,19.5711982 39.9384403,19.406198 40.1751062,19.2639981 C40.4110565,19.1199981 40.6777522,19.0329979 40.9759072,18.9999978 C41.163237,19.0107978 41.3334076,19.0329979 41.4892781,19.0653979 C41.6430033,19.0989979 41.7809988,19.153598 41.8996879,19.2309987 C42.016948,19.3071988 42.1170474,19.4169989 42.1978429,19.5591988 C42.278638,19.7013989 42.336553,19.8879994 42.3744477,20.1183991 C42.3744477,20.4363995 42.2507526,20.7375996 42.0019316,21.0225999 L39.1111881,25.1650071 L41.8532233,25.1650071 C42.1764033,25.1866071 42.4316583,25.2856072 42.6168445,25.4608077 C42.8027448,25.6366082 42.9092792,25.8610079 42.9343042,26.1346088 C42.9092792,26.4202097 42.8005991,26.6614097 42.6082631,26.8582102 C42.4152129,27.0550107 42.1578126,27.1642106 41.8339169,27.1870109 L38.2710622,27.2032109 L38.2710622,28.8058104 L41.8517919,28.8058104 C42.1764016,28.8280104 42.4302269,28.9378106 42.6168428,29.1346111 L42.6175617,29.1346065 Z" id="路径" fill="#60759C" fill-rule="nonzero"></path>
    </g>
</svg>