<?xml version="1.0" encoding="UTF-8"?>
<svg width="72px" height="72px" viewBox="0 0 72 72" version="1.1" xmlns="http://www.w3.org/2000/svg" xmlns:xlink="http://www.w3.org/1999/xlink">
    <title>付款合同</title>
    <g id="付款合同" stroke="none" stroke-width="1" fill="none" fill-rule="evenodd">
        <path d="M62.1183239,53.3394478 L53.3179182,61.1389313 C52.848553,61.5498456 52.227424,61.8 51.5500016,61.8 C50.087895,61.8 48.9038321,60.6386225 48.9038321,59.2030518 C48.9038321,58.4285498 49.2461568,57.7430666 49.7855083,57.2675479 L53.4731053,54.0012677 L39.6381819,54.0012677 C38.1806396,54.0012677 37,52.8398902 37,51.3960561 C37,49.9604854 38.1806396,48.7991079 39.6381819,48.7991079 L53.4731053,48.7991079 L49.7855083,45.5324521 C49.2461568,45.0565578 48.9038321,44.366943 48.9038321,43.5973238 C48.9038321,42.1613775 50.087895,41 51.5500016,41 C52.227424,41 52.848553,41.2501544 53.3179182,41.669332 L62.1183239,49.46844 C62.657295,49.9439587 63,50.6377052 63,51.4039439 C63,52.169807 62.6576754,52.8639291 62.1183239,53.3394478 Z" id="路径" fill="#60759C"></path>
        <path d="M33.5,8 C34.8807119,8 36,9.11928813 36,10.5 C36,11.8254834 34.9684641,12.9100387 33.6643757,12.9946823 L33.5,13 L21.2037037,13 C18.4034679,13 16.1198335,15.2118335 16.0045651,17.9837358 L16,18.2037037 L16,53.7962963 C16,56.5965321 18.2118335,58.8801665 20.9837358,58.9954349 L21.2037037,59 L50.7962963,59 C53.5965321,59 55.8801665,56.7881665 55.9954349,54.0162642 L56,53.7962963 L56,38.1045476 C56,36.7238358 57.1192881,35.6045476 58.5,35.6045476 C59.8254834,35.6045476 60.9100387,36.6360836 60.9946823,37.940172 L61,38.1045476 L61,53.7962963 C61,59.3377237 56.5826557,63.8474252 51.0771584,63.9962092 L50.7962963,64 L21.2037037,64 C15.6622763,64 11.1525748,59.5826557 11.0037908,54.0771584 L11,53.7962963 L11,18.2037037 C11,12.6622763 15.4173443,8.15257485 20.9228416,8.00379075 L21.2037037,8 L33.5,8 Z" id="路径" fill="#60759C" fill-rule="nonzero" transform="translate(36.000000, 36.000000) scale(1, -1) translate(-36.000000, -36.000000) "></path>
        <path d="M32.552571,46.1346087 C32.7384713,46.3320083 32.8450057,46.5678089 32.8686011,46.8420089 C32.845006,47.1270093 32.7384709,47.3652092 32.552571,47.5560098 C32.3659551,47.74801 32.1121298,47.8542098 31.7875202,47.8770101 L28.2067904,47.8608101 L28.2067904,49.6032145 C28.1581703,50.5344153 27.5790193,51.0000164 26.4721977,51.0000164 C25.9252221,51.0000164 25.4997966,50.8860163 25.1952055,50.655016 C24.8891848,50.4252154 24.7247346,50.0748156 24.7011392,49.6032145 L24.7011392,47.8932125 L21.1003874,47.8932125 C20.7657666,47.8716125 20.5069367,47.7480123 20.3274708,47.5236115 L20.3274707,47.5236114 C20.1474584,47.3004789 20.0350501,47.043857 20,46.77601 C20.037895,46.5024091 20.1465752,46.2780094 20.3274707,46.1022089 C20.5062209,45.927009 20.7657666,45.8280089 21.1003873,45.8058091 L24.7011392,45.8058091 L24.7011392,44.1702067 L21.1003873,44.1540066 C20.7657666,44.1318066 20.5069366,44.0280065 20.3274707,43.8420063 C20.1465752,43.6548064 20.0378954,43.4190058 20,43.1340055 C20.037895,42.8604045 20.1465752,42.6360049 20.3274707,42.4602044 C20.5062209,42.2850045 20.7657666,42.1866035 21.1003873,42.1644037 L23.7866503,42.1644037 L21.2870102,38.2860057 L21.2870102,38.2860057 C21.1458276,38.1310192 21.0268013,37.9626689 20.9323691,37.7844045 L20.9323691,37.7844044 C20.8195149,37.5757181 20.7684906,37.3472198 20.7836489,37.1184036 C20.845139,36.8112036 20.9702648,36.5622033 21.1554493,36.3702031 C21.3427792,36.1788034 21.6917,36.0552027 22.2007802,36.0006021 C22.4989352,36.0222021 22.7670605,36.1134022 23.0030108,36.2724027 C23.2389611,36.4308023 23.4320113,36.6036028 23.5821615,36.789603 L26.4164171,41.3598036 L29.5309649,36.7572006 C29.6796851,36.5712004 29.8734496,36.4062002 30.1101156,36.2640003 C30.3460658,36.1200003 30.6127615,36.033 30.9109165,36 C31.0982464,36.0108 31.2684169,36.033 31.4242874,36.0654001 C31.5780126,36.0990001 31.7160081,36.1536002 31.8346972,36.2310009 C31.9519574,36.3072009 32.0520568,36.4170011 32.1328522,36.5592009 C32.2136473,36.7014011 32.2715624,36.8880016 32.3094571,37.1184013 C32.3094571,37.4364017 32.1857619,37.7376017 31.9369409,38.0226021 L29.0461975,42.1650092 L31.7882326,42.1650092 C32.1114127,42.1866092 32.3666676,42.2856094 32.5518539,42.4608099 C32.7377541,42.6366104 32.8442885,42.86101 32.8693136,43.1346109 C32.8442885,43.4202119 32.7356084,43.6614118 32.5432725,43.8582124 C32.3502222,44.0550129 32.0928219,44.1642127 31.7689262,44.187013 L28.2060715,44.2032131 L28.2060715,45.8058126 L31.7868012,45.8058126 C32.1114109,45.8280126 32.3652362,45.9378127 32.5518521,46.1346133 L32.552571,46.1346087 Z" id="路径" fill="#60759C" fill-rule="nonzero"></path>
        <path d="M29.5,24 C30.8807119,24 32,25.1192881 32,26.5 C32,27.8807119 30.8807119,29 29.5,29 L16.5,29 C15.1192881,29 14,27.8807119 14,26.5 C14,25.1192881 15.1192881,24 16.5,24 L29.5,24 Z" id="矩形" fill="#60759C" fill-rule="nonzero"></path>
        <path d="M55.5,24 C56.8807119,24 58,25.1192881 58,26.5 C58,27.8807119 56.8807119,29 55.5,29 L43.5,29 C42.1192881,29 41,27.8807119 41,26.5 C41,25.1192881 42.1192881,24 43.5,24 L55.5,24 Z" id="矩形备份" fill="#60759C" fill-rule="nonzero"></path>
        <path d="M36,17.5 C31.3055796,17.5 27.5,21.3055796 27.5,26 C27.5,30.6944204 31.3055796,34.5 36,34.5 C40.6944204,34.5 44.5,30.6944204 44.5,26 C44.5,21.3055796 40.6944204,17.5 36,17.5 Z M36,22.5 C37.9329966,22.5 39.5,24.0670034 39.5,26 C39.5,27.9329966 37.9329966,29.5 36,29.5 C34.0670034,29.5 32.5,27.9329966 32.5,26 C32.5,24.0670034 34.0670034,22.5 36,22.5 Z" id="椭圆形" fill="#60759C" fill-rule="nonzero"></path>
    </g>
</svg>