<?xml version="1.0" encoding="UTF-8"?>
<svg width="72px" height="72px" viewBox="0 0 72 72" version="1.1" xmlns="http://www.w3.org/2000/svg" xmlns:xlink="http://www.w3.org/1999/xlink">
    <title>基础档案归档</title>
    <g id="基础档案归档" stroke="none" stroke-width="1" fill="none" fill-rule="evenodd">
        <g id="编组" transform="translate(11.000000, 8.000000)" fill="#60759C" fill-rule="nonzero">
            <path d="M42,0 C46.418278,0 50,3.581722 50,8 L50,48 C50,52.418278 46.418278,56 42,56 L8,56 C3.581722,56 0,52.418278 0,48 L0,8 C0,3.581722 3.581722,0 8,0 L42,0 Z M42,5 L8,5 C6.40231912,5 5.09633912,6.24891996 5.00509269,7.82372721 L5,8 L5,48 C5,49.5976809 6.24891996,50.9036609 7.82372721,50.9949073 L8,51 L42,51 C43.5976809,51 44.9036609,49.75108 44.9949073,48.1762728 L45,48 L45,8 C45,6.40231912 43.75108,5.09633912 42.1762728,5.00509269 L42,5 Z" id="Rectangle-5"></path>
            <path d="M23.5,12 C24.8807119,12 26,13.1192881 26,14.5 C26,15.8807119 24.8807119,17 23.5,17 L14.5,17 C13.1192881,17 12,15.8807119 12,14.5 C12,13.1192881 13.1192881,12 14.5,12 L23.5,12 Z" id="矩形"></path>
            <path d="M35.5,25 C36.8807119,25 38,26.1192881 38,27.5 C38,28.8807119 36.8807119,30 35.5,30 L14.5,30 C13.1192881,30 12,28.8807119 12,27.5 C12,26.1192881 13.1192881,25 14.5,25 L35.5,25 Z" id="矩形"></path>
            <path d="M35.5,38 C36.8807119,38 38,39.1192881 38,40.5 C38,41.8807119 36.8807119,43 35.5,43 L14.5,43 C13.1192881,43 12,41.8807119 12,40.5 C12,39.1192881 13.1192881,38 14.5,38 L35.5,38 Z" id="矩形备份"></path>
        </g>
    </g>
</svg>