<?xml version="1.0" encoding="UTF-8"?>
<svg width="72px" height="72px" viewBox="0 0 72 72" version="1.1" xmlns="http://www.w3.org/2000/svg" xmlns:xlink="http://www.w3.org/1999/xlink">
    <title>应收日常业务</title>
    <g id="应收日常业务" stroke="none" stroke-width="1" fill="none" fill-rule="evenodd">
        <path d="M53.5,11.5 L17.5,11.5 C11.7010101,11.5 6.99996194,16.2010101 6.99996194,22 L6.99996194,30.10274 L7.97086688,30.8533627 C9.55628375,32.0790748 10.5,33.9590632 10.5,36 C10.5,38.0409368 9.55628375,39.9209252 7.97086688,41.1466373 L6.99996194,41.89726 L6.99996194,50.0000117 C6.99996194,55.7989899 11.7010101,60.5 17.5,60.5 L53.5,60.5 C59.2989899,60.5 64,55.7989899 64,50 L64.0007726,41.221395 L63.3058157,40.4960875 C62.1527413,39.2926552 61.5,37.7008762 61.5,36 C61.5,34.2991238 62.1527413,32.7073448 63.3058157,31.5039125 L64.0007726,30.778605 L64,21.99978 C64,16.2010101 59.2989899,11.5 53.5,11.5 Z M17.5,16.5 L53.5,16.5 C56.5375661,16.5 59,18.9624339 59,22 L59.000879,28.8391957 C57.397776,30.8509256 56.5,33.357364 56.5,36 L56.5055467,36.3594816 C56.5793815,38.7499485 57.3879506,41.0143878 58.786664,42.8834448 L59,43.16 L59,49.99978 C59,53.0375661 56.5375661,55.5 53.5,55.5 L17.5,55.5 L17.2787929,55.4956328 C14.34378,55.3795391 12,52.9634791 12,50 L11.999,44.26 L12.0546144,44.2085738 C14.2304772,42.0747257 15.5,39.1404719 15.5,36 L15.4947941,35.6519375 C15.404718,32.6432739 14.1498896,29.8462429 12.0546144,27.7914262 L11.999,27.738 L12,22.0000117 C12,18.9624339 14.4624339,16.5 17.5,16.5 Z" id="形状结合" fill="#60759C" fill-rule="nonzero"></path>
        <path d="M47,35.5369486 C47,36.2389897 46.6862024,36.8752683 46.1917969,37.3111605 L38.1247583,44.460687 C37.694507,44.8373585 37.1251387,45.0666667 36.5041681,45.0666667 C35.1639038,45.0666667 34.0785128,44.0020707 34.0785128,42.6861308 C34.0785128,41.9761706 34.3923104,41.3478111 34.8867159,40.9119189 L38.2670132,37.9178287 L27.4183334,37.9178287 C26.082253,37.9178287 25,36.8532327 25,35.5297181 C25,34.2137783 26.082253,33.1491823 27.4183334,33.1491823 L38.2670132,33.1491823 L34.8867159,30.1547478 C34.3923104,29.7185113 34.0785128,29.0863644 34.0785128,28.3808801 C34.0785128,27.064596 35.1639038,26 36.5041681,26 C37.1251387,26 37.694507,26.2293082 38.1247583,26.6135544 L46.1917969,33.7627366 C46.6858538,34.1986288 47,34.8345631 47,35.5369486" id="路径" fill="#60759C" transform="translate(36.000000, 35.533333) rotate(90.000000) translate(-36.000000, -35.533333) "></path>
    </g>
</svg>