<?xml version="1.0" encoding="UTF-8"?>
<svg width="72px" height="72px" viewBox="0 0 72 72" version="1.1" xmlns="http://www.w3.org/2000/svg" xmlns:xlink="http://www.w3.org/1999/xlink">
    <title>查询</title>
    <g id="查询" stroke="none" stroke-width="1" fill="none" fill-rule="evenodd">
        <path d="M42.059764,10.9941361 C42.7984589,10.9941361 43.5253979,11.1728706 44.1764645,11.5140124 L44.4169327,11.6495215 L44.5412328,11.7246591 L54.5154865,19.462114 L54.5521126,19.4853985 C55.6984641,20.2612612 56.4210236,21.5207956 56.493907,22.8990298 L56.5,23.1297719 L56.5,58.8559212 C56.5,62.3076765 53.6948513,65.0820087 50.2318198,65.2010006 L50,65.2049778 L35.4364937,65.2049778 C34.0557818,65.2049778 32.9364937,64.0856897 32.9364937,62.7049778 C32.9364937,61.3794944 33.9680296,60.2949392 35.272118,60.2102955 L35.4364937,60.2049778 L50,60.2049778 C50.7995155,60.2049778 51.4227804,59.650488 51.4933392,58.9824095 L51.5,58.8559212 L51.4994865,23.450114 L41.8874865,15.994114 L14.4864865,15.9941361 C13.6869709,15.9941361 13.0637061,16.5486259 12.9931473,17.2167045 L12.9864865,17.3431927 L12.9864865,37.2179819 C12.9864865,38.5986938 11.8671984,39.7179819 10.4864865,39.7179819 C9.16100309,39.7179819 8.07644781,38.686446 7.99180417,37.3823576 L7.98648649,37.2179819 L7.98648649,17.3431927 C7.98648649,13.8914375 10.7916352,11.1171052 14.2546666,10.9981134 L14.4864865,10.9941361 L42.059764,10.9941361 Z" id="路径" fill="#60759C" fill-rule="nonzero" transform="translate(32.243243, 38.099557) scale(-1, -1) translate(-32.243243, -38.099557) "></path>
        <path d="M15.8918919,49.9528302 L15.8918919,56.5 C15.8918919,57.8254834 16.9234278,58.9100387 18.2275162,58.9946823 L18.3918919,59 L27.3918919,59 L27.3918919,64 L18.3918919,64 C14.3309746,64 11.0238744,60.7725256 10.8957455,56.7427311 L10.8918919,56.5 L10.8918919,49.9528302 L15.8918919,49.9528302 Z" id="路径-6" fill="#60759C" fill-rule="nonzero" transform="translate(19.141892, 56.976415) scale(-1, -1) translate(-19.141892, -56.976415) "></path>
        <path d="M26.7,26 C28.0807119,26 29.2,27.1192881 29.2,28.5 C29.2,29.8807119 28.0807119,31 26.7,31 L22.5,31 C21.1192881,31 20,29.8807119 20,28.5 C20,27.1192881 21.1192881,26 22.5,26 L26.7,26 Z" id="矩形备份" fill="#60759C" fill-rule="nonzero" transform="translate(24.600000, 28.500000) scale(-1, -1) translate(-24.600000, -28.500000) "></path>
        <path d="M39.5,38 C40.8807119,38 42,39.1192881 42,40.5 C42,41.8807119 40.8807119,43 39.5,43 L22.5,43 C21.1192881,43 20,41.8807119 20,40.5 C20,39.1192881 21.1192881,38 22.5,38 L39.5,38 Z" id="矩形备份" fill="#60759C" fill-rule="nonzero" transform="translate(31.000000, 40.500000) scale(-1, -1) translate(-31.000000, -40.500000) "></path>
        <path d="M55.7842305,23.184367 C56.9195631,23.1948861 57.8373884,24.1126118 57.8480308,25.2479432 L57.9133184,32.2128563 C57.923708,33.3212222 57.0336223,34.2281528 55.9252564,34.2385424 C55.9127879,34.2386593 55.9003186,34.2386599 55.8878501,34.2385444 C54.7525176,34.2280253 53.8346922,33.3102995 53.8240499,32.1749681 L53.7587622,25.2100551 C53.7483726,24.1016892 54.6384583,23.1947586 55.7468243,23.184369 C55.7592927,23.1842521 55.771762,23.1842514 55.7842305,23.184367 Z" id="矩形" fill="#60759C" transform="translate(55.836040, 28.711456) rotate(-46.000000) translate(-55.836040, -28.711456) "></path>
        <path d="M45.7549802,8.85197728 C40.0039086,8.85197728 35.3241461,13.4300058 35.3241461,19.0995324 C35.3241461,24.769059 40.0039086,29.3470875 45.7549802,29.3470875 C51.5060519,29.3470875 56.1858144,24.769059 56.1858144,19.0995324 C56.1858144,13.4300058 51.5060519,8.85197728 45.7549802,8.85197728 Z M45.7549802,12.8519773 C49.3163509,12.8519773 52.1858144,15.6590611 52.1858144,19.0995324 C52.1858144,22.5400037 49.3163509,25.3470875 45.7549802,25.3470875 C42.1936096,25.3470875 39.3241461,22.5400037 39.3241461,19.0995324 C39.3241461,15.6590611 42.1936096,12.8519773 45.7549802,12.8519773 Z" id="椭圆形" fill="#60759C" fill-rule="nonzero" transform="translate(45.754980, 19.099532) rotate(-17.000000) translate(-45.754980, -19.099532) "></path>
    </g>
</svg>