<?xml version="1.0" encoding="UTF-8"?>
<svg width="72px" height="72px" viewBox="0 0 72 72" version="1.1" xmlns="http://www.w3.org/2000/svg" xmlns:xlink="http://www.w3.org/1999/xlink">
    <title>核销处理</title>
    <g id="核销处理" stroke="none" stroke-width="1" fill="none" fill-rule="evenodd">
        <path d="M30,7.5 C31.3807119,7.5 32.5,8.61928813 32.5,10 C32.5,11.3254834 31.4684641,12.4100387 30.1643757,12.4946823 L30,12.5 L17.7037037,12.5 C14.9034679,12.5 12.6198335,14.7118335 12.5045651,17.4837358 L12.5,17.7037037 L12.5,54.2962963 C12.5,57.0965321 14.7118335,59.3801665 17.4837358,59.4954349 L17.7037037,59.5 L54.2962963,59.5 C57.0965321,59.5 59.3801665,57.2881665 59.4954349,54.5162642 L59.5,54.2962963 L59.5,41.6045476 C59.5,40.2238358 60.6192881,39.1045476 62,39.1045476 C63.3254834,39.1045476 64.4100387,40.1360836 64.4946823,41.440172 L64.5,41.6045476 L64.5,54.2962963 C64.5,59.8377237 60.0826557,64.3474252 54.5771584,64.4962092 L54.2962963,64.5 L17.7037037,64.5 C12.1622763,64.5 7.65257485,60.0826557 7.50379075,54.5771584 L7.5,54.2962963 L7.5,17.7037037 C7.5,12.1622763 11.9173443,7.65257485 17.4228416,7.50379075 L17.7037037,7.5 L30,7.5 Z" id="路径" fill="#60759C" fill-rule="nonzero" transform="translate(36.000000, 36.000000) scale(1, -1) translate(-36.000000, -36.000000) "></path>
        <path d="M42.3822151,37.8910109 C42.6825154,38.2200103 42.8546095,38.6130112 42.8927251,39.0700113 C42.8546101,39.5450118 42.6825149,39.9420118 42.3822151,40.2600126 C42.0807586,40.580013 41.6707331,40.7570127 41.1463636,40.7950133 L35.3621079,40.7680132 L35.3621079,43.6720205 C35.2835678,45.2240218 34.3480161,46.0000237 32.5600735,46.0000237 C31.6764975,46.0000237 30.9892717,45.8100235 30.49724,45.4250231 C30.0028988,45.0420221 29.7372485,44.4580224 29.6991329,43.6720205 L29.6991329,40.8220172 L23.8825337,40.8220172 C23.3419925,40.7860172 22.9238826,40.5800169 22.6339761,40.2060155 L22.6339761,40.2060154 C22.343187,39.8341278 22.1616042,39.4064247 22.1049849,38.960013 C22.1662,38.5040115 22.3417602,38.1300121 22.6339761,37.8370112 C22.9227264,37.5450114 23.3419925,37.3800112 23.8825337,37.3430116 L29.6991328,37.3430116 L29.6991328,34.6170075 L23.8825337,34.5900074 C23.3419925,34.5530074 22.9238826,34.3800072 22.6339761,34.0700068 C22.3417602,33.758007 22.1662005,33.365006 22.1049849,32.8900055 C22.1662,32.434004 22.3417602,32.0600045 22.6339761,31.7670037 C22.9227264,31.4750038 23.3419925,31.3110022 23.8825337,31.2740026 L28.2218816,31.2740026 L24.1840014,24.8100058 L24.1840014,24.8100058 C23.9559372,24.551695 23.7636639,24.2711112 23.6111197,23.9740039 L23.6111196,23.9740037 C23.4288166,23.6261933 23.3463928,23.2453628 23.3708793,22.8640025 C23.4702094,22.3520023 23.6723358,21.9370019 23.97148,21.6170015 C24.2740898,21.2980021 24.837731,21.0920009 25.6600914,21.0009998 C26.1417264,21.0369998 26.5748519,21.189 26.9560023,21.4540008 C27.3371528,21.7180001 27.6490031,22.006001 27.8915534,22.3160013 L32.4699663,29.9330024 L37.501159,22.2619974 C37.7413992,21.951997 38.0544035,21.6769967 38.4367101,21.4399969 C38.8178605,21.1999969 39.2486766,21.0549964 39.7303116,20.9999964 C40.0329214,21.0179964 40.3078122,21.0549964 40.5596031,21.1089965 C40.8079284,21.1649966 41.0308442,21.2559967 41.2225727,21.3849978 C41.411993,21.511998 41.573692,21.6949982 41.7042077,21.931998 C41.8347229,22.1689982 41.928278,22.4799991 41.9894925,22.8639986 C41.9894925,23.3939992 41.7896773,23.8959993 41.3877357,24.3709998 L36.7180731,31.2750118 L41.1475146,31.2750118 C41.6695746,31.3110118 42.0819095,31.476012 42.3810566,31.7680128 C42.6813569,32.0610136 42.853451,32.4350131 42.893876,32.8910146 C42.853451,33.3670161 42.6778908,33.7690161 42.3671943,34.097017 C42.0553439,34.4250179 41.6395434,34.6070176 41.1163273,34.6450181 L35.3609466,34.6720182 L35.3609466,37.3430174 L41.1452023,37.3430174 C41.6695718,37.3800174 42.0795973,37.5630176 42.3810537,37.8910185 L42.3822151,37.8910109 Z" id="路径" fill="#60759C" fill-rule="nonzero"></path>
        <path d="M60.5455319,44.2885715 C61.4907278,43.2821074 63.0728608,43.2324396 64.079325,44.1776355 C65.0420298,45.0817359 65.1293292,46.5685916 64.3079086,47.5769856 L64.190261,47.7114285 L50.7628011,62.0092658 C49.5204255,63.3321731 47.4837365,63.4793092 46.0673789,62.3797478 L45.9126305,62.2524403 L38.357957,55.6719208 C37.3168314,54.7650454 37.2080001,53.1858787 38.1148754,52.1447531 C38.9823214,51.1488939 40.4648695,51.0060222 41.5032923,51.7891368 L41.642043,51.9016716 L48.107,57.533 L60.5455319,44.2885715 Z" id="路径-2" fill="#60759C" fill-rule="nonzero"></path>
    </g>
</svg>