<?xml version="1.0" encoding="UTF-8"?>
<svg width="72px" height="72px" viewBox="0 0 72 72" version="1.1" xmlns="http://www.w3.org/2000/svg" xmlns:xlink="http://www.w3.org/1999/xlink">
    <title>坏账管理</title>
    <g id="坏账管理" stroke="none" stroke-width="1" fill="none" fill-rule="evenodd">
        <path d="M11,14.216 C11,10.7844444 13.7881621,8 17.211838,8 L54.6323988,8 C58.0623053,8 60.8442368,10.7595556 60.8442368,14.216 L60.8442368,32.8888889 L57.728972,32.8888889 L54.6137072,26.6666667 L48.3831776,26.6666667 L45.2679128,32.8888889 L42.152648,32.8888889 L39.0373832,26.6666667 L32.8068536,26.6666667 L29.6915888,32.8888889 L26.576324,32.8888889 L23.4610593,26.6666667 L17.2305296,26.6666667 L14.1152649,32.8888889 L11,32.8888889 L11,14.216 Z M16.7632399,16.8666667 C16.7632399,18.9424 18.4722119,20.6 20.5758568,20.6 L51.2683801,20.6 C53.3375389,20.6 55.0809969,18.9274667 55.0809969,16.8666667 C55.0809969,14.7909333 53.3720249,13.1333333 51.2683801,13.1333333 L20.5758568,13.1333333 C18.5066979,13.1333333 16.7632399,14.8058666 16.7632399,16.8666667 Z M11,57.784 L11,39.1111111 L14.1152649,39.1111111 L17.2305296,45.3333333 L23.4610593,45.3333333 L26.576324,39.1111111 L29.6915888,39.1111111 L32.8068536,45.3333333 L39.0373832,45.3333333 L42.152648,39.1111111 L45.2679128,39.1111111 L48.3831776,45.3333333 L54.6137072,45.3333333 L57.728972,39.1111111 L60.8442752,39.1111111 L60.8442752,57.784 C60.8500412,59.4321986 60.1978453,61.0147437 59.0319997,62.1813705 C57.866154,63.3479973 56.2828062,64.0024937 54.6323988,64.0000071 L17.211838,64.0000071 C13.7850467,64.0000071 11,61.2155556 11,57.784 Z M16.7632399,55.1333333 C16.7632399,57.4685333 18.4722119,59.3333333 20.5758568,59.3333333 L51.2683801,59.3333333 C53.3375389,59.3333333 55.0809969,57.4517334 55.0809969,55.1333333 C55.0809969,52.7981334 53.3720249,50.9333333 51.2683801,50.9333333 L20.5758568,50.9333333 C18.5066979,50.9333333 16.7632399,52.8149333 16.7632399,55.1333333 Z" id="形状" fill="#60759C" fill-rule="nonzero"></path>
    </g>
</svg>