<?xml version="1.0" encoding="UTF-8"?>
<svg width="72px" height="72px" viewBox="0 0 72 72" version="1.1" xmlns="http://www.w3.org/2000/svg" xmlns:xlink="http://www.w3.org/1999/xlink">
    <title>催款</title>
    <g id="催款" stroke="none" stroke-width="1" fill="none" fill-rule="evenodd">
        <path d="M43.3319644,62.6283973 C40.5682234,65.3921383 30.266193,62.7734333 20.0832354,52.5913709 C9.90117304,42.4084133 7.28157271,32.1063829 10.046209,29.3417466 C12.4419884,26.9459672 15.3615088,22.7614108 19.7403417,28.2118984 C24.1209653,33.6605955 21.968703,35.1852637 19.4959293,37.6571423 C17.7698221,39.3841446 21.37513,43.7513389 25.1478557,47.52496 C28.9196863,51.2976859 33.2886711,54.9038889 35.0147782,53.1768865 C37.487552,50.705008 39.011325,48.5518505 44.4609173,52.9315788 C49.9123002,57.3130975 45.7268485,60.2326179 43.3319644,62.6283973 Z" id="路径" fill="#60759C" fill-rule="nonzero"></path>
        <path d="M46.7985352,9.02324943 C56.2921243,9.02324943 63.9879837,15.1129696 63.9879837,22.626191 C63.9879837,30.1394124 56.2930197,36.2300279 46.7994305,36.2300279 C45.8504297,36.2300279 44.9256016,36.1539288 44.0186791,36.0366466 C41.4357854,38.6804196 37.4902699,39.9651518 33.0084793,40.299988 C34.843811,38.463761 36.1571923,35.8011871 36.5690228,33.5405955 C32.3531315,31.0615547 29.609982,27.1026099 29.609982,22.6270863 C29.609982,15.1138649 37.304946,9.02324943 46.7985352,9.02324943 Z M46.7985352,13.0232494 C39.3359946,13.0232494 33.609982,17.5551924 33.609982,22.6270863 C33.609982,25.3729935 35.2907906,28.0380769 38.2920457,29.9082025 L38.5965593,30.0925387 L41.005014,31.5087653 L40.596,33.754 L40.7810289,33.5979519 L40.9738666,33.422127 L41.157501,33.2413542 L42.5522752,31.8137049 L44.5316828,32.0696796 C45.3559767,32.1762764 46.0951051,32.2300279 46.7994305,32.2300279 C54.2619712,32.2300279 59.9879837,27.6980849 59.9879837,22.626191 C59.9879837,17.554778 54.2615621,13.0232494 46.7985352,13.0232494 Z" id="路径" fill="#60759C" fill-rule="nonzero"></path>
        <path d="M50.1699204,20.5875518 C49.6991524,20.7269573 49.1929999,20.5014484 49.0360773,20.0859654 C48.839924,19.5652449 48.1314643,18.9577377 46.7814679,18.9577377 C45.6699324,18.9577377 45.0122418,19.618547 44.9353189,20.2718394 C44.8399346,21.0870881 45.598394,21.7253465 46.9645443,21.9795565 C49.7406908,22.4961768 50.5545348,24.149225 50.4076121,25.4079745 C50.256074,26.7138758 49.1376155,27.7402828 47.6760809,28.0464282 L47.6760809,28.9628142 C47.6760809,29.4022148 47.2753127,29.7582454 46.7806986,29.7582454 C46.2860846,29.7582454 45.8853164,29.4022148 45.8853164,28.9628142 L45.8853164,28.0799128 C44.148398,27.8168192 43.1591698,26.8150131 42.8276322,25.9362119 C42.6707095,25.5193622 42.9237858,25.0683445 43.3922461,24.928939 C43.8637833,24.7902169 44.3691666,25.0150424 44.5260892,25.4305254 C44.7222425,25.9512459 45.4307022,26.5587531 46.7806986,26.5587531 C47.8922342,26.5587531 48.5499247,25.8979438 48.6268476,25.2446514 C48.7222319,24.4294027 47.9630032,23.7911443 46.5976222,23.5369343 C43.8214757,23.020314 43.0076317,21.3672658 43.1545544,20.1085163 C43.3068617,18.802615 44.4245511,17.776208 45.8860857,17.4700626 L45.8860857,16.5536766 C45.8860857,16.114276 46.2868538,15.7582454 46.7814679,15.7582454 C47.2760819,15.7582454 47.6768501,16.114276 47.6768501,16.5536766 L47.6768501,17.436578 C49.4137686,17.6989883 50.4029967,18.7014777 50.7345343,19.5802789 C50.8914569,19.9971286 50.6391499,20.447463 50.1699204,20.5875518 Z" id="路径" fill="#60759C" fill-rule="nonzero"></path>
    </g>
</svg>