<?xml version="1.0" encoding="UTF-8"?>
<svg width="72px" height="72px" viewBox="0 0 72 72" version="1.1" xmlns="http://www.w3.org/2000/svg" xmlns:xlink="http://www.w3.org/1999/xlink">
    <title>期末处理</title>
    <g id="期末处理" stroke="none" stroke-width="1" fill="none" fill-rule="evenodd">
        <path d="M30,12.5 C31.3807119,12.5 32.5,13.6192881 32.5,15 C32.5,16.3254834 31.4684641,17.4100387 30.1643757,17.4946823 L30,17.5 L17.7037037,17.5 C14.9034679,17.5 12.6198335,19.7118335 12.5045651,22.4837358 L12.5,22.7037037 L12.5,54.2962963 C12.5,57.0965321 14.7118335,59.3801665 17.4837358,59.4954349 L17.7037037,59.5 L54.2962963,59.5 C57.0965321,59.5 59.3801665,57.2881665 59.4954349,54.5162642 L59.5,54.2962963 L59.5,46.6045476 C59.5,45.2238358 60.6192881,44.1045476 62,44.1045476 C63.3254834,44.1045476 64.4100387,45.1360836 64.4946823,46.440172 L64.5,46.6045476 L64.5,54.2962963 C64.5,59.8377237 60.0826557,64.3474252 54.5771584,64.4962092 L54.2962963,64.5 L17.7037037,64.5 C12.1622763,64.5 7.65257485,60.0826557 7.50379075,54.5771584 L7.5,54.2962963 L7.5,22.7037037 C7.5,17.1622763 11.9173443,12.6525748 17.4228416,12.5037908 L17.7037037,12.5 L30,12.5 Z" id="路径" fill="#60759C" fill-rule="nonzero" transform="translate(36.000000, 38.500000) scale(1, -1) translate(-36.000000, -38.500000) "></path>
        <path d="M33.5,40.0933449 C34.8807119,40.0933449 36,41.212633 36,42.5933449 C36,43.9740567 34.8807119,45.0933449 33.5,45.0933449 L22.5,45.0933449 C21.1192881,45.0933449 20,43.9740567 20,42.5933449 C20,41.212633 21.1192881,40.0933449 22.5,40.0933449 L33.5,40.0933449 Z" id="路径" fill="#60759C" fill-rule="nonzero" transform="translate(28.000000, 42.593345) scale(1, -1) translate(-28.000000, -42.593345) "></path>
        <path d="M29.5,12 C30.8807119,12 32,13.1192881 32,14.5 C32,15.8807119 30.8807119,17 29.5,17 L20.5,17 C19.1192881,17 18,15.8807119 18,14.5 C18,13.1192881 19.1192881,12 20.5,12 L29.5,12 Z" id="路径" fill="#60759C" fill-rule="nonzero" transform="translate(25.000000, 14.500000) scale(1, -1) rotate(90.000000) translate(-25.000000, -14.500000) "></path>
        <path d="M51.5,12 C52.8807119,12 54,13.1192881 54,14.5 C54,15.8807119 52.8807119,17 51.5,17 L42.5,17 C41.1192881,17 40,15.8807119 40,14.5 C40,13.1192881 41.1192881,12 42.5,12 L51.5,12 Z" id="路径" fill="#60759C" fill-rule="nonzero" transform="translate(47.000000, 14.500000) scale(1, -1) rotate(90.000000) translate(-47.000000, -14.500000) "></path>
        <path d="M59.5,25.0933449 C60.8807119,25.0933449 62,26.212633 62,27.5933449 C62,28.9740567 60.8807119,30.0933449 59.5,30.0933449 L12.5,30.0933449 C11.1192881,30.0933449 10,28.9740567 10,27.5933449 C10,26.212633 11.1192881,25.0933449 12.5,25.0933449 L59.5,25.0933449 Z" id="路径" fill="#60759C" fill-rule="nonzero" transform="translate(36.000000, 27.593345) scale(1, -1) translate(-36.000000, -27.593345) "></path>
        <path d="M57.2485767,55.041998 C57.1742908,55.024998 57.0685766,54.922998 56.937148,54.7388313 C56.8071478,54.5546645 56.6942909,54.2699135 56.5985764,53.8845813 C56.502862,53.5006636 56.560005,53.0345814 56.7685764,52.4905814 L56.7685761,52.4905816 C57.5877105,51.6793762 58.2569118,50.7318886 58.7457212,49.6912496 C59.2714347,48.5961674 59.5371491,47.4954174 59.5371491,46.3904175 C59.5371491,44.7074176 59,43.3899177 57.9271493,42.4336677 C56.8528641,41.476 55.5471469,41 54,41 C52.474278,41 51.1957047,41.4731677 50.157145,42.4194999 C49.1242873,43.3672499 48.6042859,44.691832 48.6042859,46.3904275 C48.6042859,47.5110096 48.8557145,48.6216773 49.3528566,49.7167496 L49.3528567,49.7167497 C49.8133569,50.7565785 50.4594387,51.7053877 51.2600006,52.5174995 C51.468572,52.9906673 51.5142865,53.4142495 51.4014292,53.7924995 C51.2871436,54.1707494 51.1500006,54.4625817 50.9914301,54.6736672 C50.8328586,54.8847504 50.694287,55.0051672 50.581431,55.0419994 C49.4914293,55.4259172 48.467143,55.8608316 47.5171436,56.3439171 L47.5171437,56.343917 C46.6220249,56.7884969 45.7908503,57.3497459 45.0457149,58.0127492 C44.3499991,58.6445814 44,59.2594169 44,59.8544169 L44,60.5372491 C44,62.6254167 47.342859,63.6666667 54.028577,63.6666667 C60.6771633,63.6666667 64,62.6254167 64,60.5372491 L64,59.8544169 C64,59.2395847 63.6500009,58.6148347 62.9542851,57.9730847 L62.954285,57.9730846 C62.2036183,57.2970757 61.3563823,56.734731 60.439999,56.3042525 L60.4399997,56.3042528 C59.4061442,55.8125345 58.3398947,55.3908216 57.2485705,55.0420029 L57.2485767,55.041998 Z" id="路径" fill="#60759C" fill-rule="nonzero"></path>
    </g>
</svg>