<?xml version="1.0" encoding="UTF-8"?>
<svg width="72px" height="72px" viewBox="0 0 72 72" version="1.1" xmlns="http://www.w3.org/2000/svg" xmlns:xlink="http://www.w3.org/1999/xlink">
    <title>收入确认</title>
    <g id="收入确认" stroke="none" stroke-width="1" fill="none" fill-rule="evenodd">
        <path d="M34.4704701,32.4780093 C34.7278704,32.7600088 34.8753796,33.0968668 34.9080501,33.4885811 C34.87538,33.8957244 34.7278699,34.2360101 34.4704701,34.5085823 C34.2120788,34.7828683 33.8606284,34.9345823 33.4111688,34.9671542 L28.4532353,34.9440113 L28.4532353,37.4331604 C28.3859152,38.7634473 27.5840138,39.4285918 26.0514916,39.4285918 C25.2941407,39.4285918 24.70509,39.2657344 24.2833485,38.935734 C23.8596276,38.6074475 23.6319273,38.1068764 23.5992568,37.4331604 L23.5992568,34.9903005 L18.6136003,34.9903005 C18.1502793,34.9594433 17.7918994,34.7828716 17.5434081,34.462299 L17.5434081,34.462299 C17.2941603,34.1435381 17.1385179,33.7769354 17.0899871,33.3942969 C17.1424571,33.0034384 17.2929373,32.6828675 17.5434081,32.4317239 C17.7909084,32.1814383 18.1502793,32.0400096 18.6136003,32.0082957 L23.5992567,32.0082957 L23.5992567,29.6717207 L18.6136003,29.6485778 C18.1502793,29.6168635 17.7918993,29.4685776 17.5434081,29.202863 C17.2929373,28.9354345 17.1424576,28.5985766 17.0899871,28.1914333 C17.1424571,27.8005748 17.2929373,27.4800039 17.5434081,27.2288603 C17.7909084,26.9785747 18.1502793,26.8380019 18.6136003,26.806288 L22.3330414,26.806288 L18.8720012,21.2657193 L18.8720012,21.2657193 C18.6765176,21.04431 18.5117119,20.8038096 18.3809597,20.5491462 L18.3809596,20.5491461 C18.2246999,20.2510228 18.1540509,19.9245967 18.1750394,19.5977164 C18.2601795,19.1588592 18.4334307,18.8031445 18.68984,18.5288584 C18.9492198,18.2554304 19.4323409,18.0788579 20.1372212,18.000857 C20.5500512,18.0317142 20.9213016,18.162 21.248002,18.3891436 C21.5747024,18.6154287 21.8420027,18.8622865 22.0499029,19.1280011 L25.9742569,25.6568592 L30.2867077,19.081712 C30.4926279,18.8159974 30.7609173,18.5802829 31.0886086,18.3771402 C31.415309,18.1714259 31.7845799,18.0471398 32.1974099,17.9999969 C32.4567897,18.0154255 32.6924105,18.0471398 32.9082312,18.0934256 C33.1210815,18.1414256 33.3121522,18.2194257 33.4764909,18.3299981 C33.6388511,18.4388554 33.7774503,18.5957127 33.8893209,18.7988554 C34.001191,19.0019985 34.0813811,19.2685706 34.1338507,19.597713 C34.1338507,20.0519993 33.9625805,20.4822851 33.6180591,20.8894284 L29.6154913,26.8071529 L33.4121553,26.8071529 C33.8596354,26.8380101 34.2130653,26.9794388 34.4694771,27.2297253 C34.7268774,27.4808688 34.8743866,27.8014398 34.9090366,28.1922982 C34.8743866,28.6002996 34.7239064,28.944871 34.4575951,29.2260146 C34.1902948,29.5071582 33.8338944,29.6631579 33.3854234,29.6957298 L28.4522399,29.7188727 L28.4522399,32.0083006 L33.4101734,32.0083006 C33.859633,32.0400149 34.2110834,32.1968722 34.4694746,32.4780158 L34.4704701,32.4780093 Z" id="路径" fill="#60759C" fill-rule="nonzero"></path>
        <path d="M53.480074,36.2565967 L52.5934827,35.7581894 L51.6684747,36.1810537 C49.3129713,37.2578643 47.4916028,37.9792357 46.2345132,38.3405215 C45.1369729,38.6559532 43.5882073,38.9495504 41.6056476,39.2124401 C40.114272,39.4102005 39,40.6819806 39,42.1864083 L39,54.3789613 C39,57.1513494 40.2110605,59.7854143 42.3155316,61.5902327 C43.2382023,62.3815255 44.0888502,63.0282194 44.8738724,63.5315129 C46.2488819,64.4130592 48.306934,65.4194868 51.078074,66.5763461 L51.5345325,66.765619 C52.175321,67.029495 52.8914695,67.017662 53.5187505,66.734769 L54.4531056,66.3079346 C56.7205008,65.258062 58.4748546,64.3367364 59.7308181,63.5315129 C60.5144411,63.0291165 61.4073215,62.3777977 62.4156988,61.5752971 C64.6804618,59.7729241 66,57.0363873 66,54.1419603 L66,42.2298083 C66,40.702697 64.8528395,39.4193036 63.3353215,39.2486147 L62.4735081,39.1457382 C60.6635076,38.9164534 59.2263883,38.6460301 58.1753967,38.341653 C56.8327814,37.952819 55.2634764,37.2591566 53.480074,36.2565967 Z M52.0467223,40.3948977 L52.415,40.231 L52.4449378,40.2476429 C54.1162371,41.1292989 55.6529427,41.7754966 57.0626832,42.1837707 L57.3617163,42.2674751 C58.4720066,42.5679514 59.8323249,42.8259788 61.4504989,43.0458029 L62,43.117 L62,54.1419603 C62,55.8176811 61.236057,57.4019915 59.9248785,58.4454705 C59.0155982,59.1691065 58.2292018,59.7427496 57.5719282,60.1641409 L57.3480246,60.3051834 C56.3473447,60.9250122 54.9513027,61.6570118 53.1694358,62.4930811 L52.463,62.819 L51.7838291,62.531471 C49.6376085,61.609173 48.0458444,60.8136482 47.0327624,60.1641409 C46.4169787,59.7693496 45.7104312,59.2322062 44.9195171,58.5539093 L44.7212749,58.3753835 C43.6253988,57.339325 43,55.8948613 43,54.3789653 L43,43.056 L43.0316103,43.0523151 C44.77926,42.796322 46.2115259,42.5090469 47.3393831,42.1849022 C48.56163,41.83363 50.1251312,41.2378269 52.0467223,40.3948977 Z" id="路径-4" fill="#60759C" fill-rule="nonzero"></path>
        <path d="M57.0905295,46.4731429 C57.657647,45.8692644 58.6069269,45.8394638 59.2108053,46.4065813 C59.7769414,46.938254 59.8385169,47.8058115 59.3767119,48.4097599 L59.2773669,48.5268571 L52.563637,55.6757758 C51.866163,56.4184605 50.7305819,56.5126437 49.9234588,55.9198917 L49.7921109,55.8147326 L46.0147742,52.5244728 C45.3900988,51.9803476 45.3248001,51.0328476 45.8689253,50.4081723 C46.3790426,49.8225391 47.2436887,49.7285456 47.8644934,50.1674293 L47.9852258,50.2623234 L51.036,52.919 L57.0905295,46.4731429 Z" id="路径-2" fill="#60759C" fill-rule="nonzero"></path>
        <path d="M29,6.5 C30.3807119,6.5 31.5,7.61928813 31.5,9 C31.5,10.3254834 30.4684641,11.4100387 29.1643757,11.4946823 L29,11.5 L16.7037037,11.5 C13.9034679,11.5 11.6198335,13.7118335 11.5045651,16.4837358 L11.5,16.7037037 L11.5,53.2962963 C11.5,56.0965321 13.7118335,58.3801665 16.4837358,58.4954349 L16.7037037,58.5 L53.2962963,58.5 C56.0965321,58.5 58.3801665,56.2881665 58.4954349,53.5162642 L58.5,53.2962963 L58.5,40.6045476 C58.5,39.2238358 59.6192881,38.1045476 61,38.1045476 C62.3254834,38.1045476 63.4100387,39.1360836 63.4946823,40.440172 L63.5,40.6045476 L63.5,53.2962963 C63.5,58.8377237 59.0826557,63.3474252 53.5771584,63.4962092 L53.2962963,63.5 L16.7037037,63.5 C11.1622763,63.5 6.65257485,59.0826557 6.50379075,53.5771584 L6.5,53.2962963 L6.5,16.7037037 C6.5,11.1622763 10.9173443,6.65257485 16.4228416,6.50379075 L16.7037037,6.5 L29,6.5 Z" id="路径" fill="#60759C" fill-rule="nonzero" transform="translate(35.000000, 35.000000) scale(1, -1) translate(-35.000000, -35.000000) "></path>
    </g>
</svg>