<?xml version="1.0" encoding="UTF-8"?>
<svg width="72px" height="72px" viewBox="0 0 72 72" version="1.1" xmlns="http://www.w3.org/2000/svg" xmlns:xlink="http://www.w3.org/1999/xlink">
    <title>收入合同</title>
    <g id="收入合同" stroke="none" stroke-width="1" fill="none" fill-rule="evenodd">
        <path d="M29.9807187,59.0043356 C29.993755,62.3347785 29.993755,64 29.9807187,64 C27.5277272,64 23.8674877,64 19,64 C14.581722,64 11,60.418278 11,56 L11,16 C11,11.581722 14.581722,8 19,8 L53,8 C57.418278,8 61,11.581722 61,16 C61,22.0565418 61,29.0741147 61,37.0527187 L56,37.0254905 L29.9807187,59.0043356 Z M56,37.0272552 C56,32.3545318 56,25.3454467 56,16 C56,14.4023191 54.75108,13.0963391 53.1762728,13.0050927 L53,13 L19,13 C17.4023191,13 16.0963391,14.24892 16.0050927,15.8237272 L16,16 L16,56 C16,57.5976809 17.24892,58.9036609 18.8237272,58.9949073 L19,59 C23.8915393,59 27.5601938,59 30.0059634,59 L56,37.0272552 Z" id="Rectangle-5" fill="#60759C" fill-rule="nonzero"></path>
        <path d="M32.552571,46.1346087 C32.7384713,46.3320083 32.8450057,46.5678089 32.8686011,46.8420089 C32.845006,47.1270093 32.7384709,47.3652092 32.552571,47.5560098 C32.3659551,47.74801 32.1121298,47.8542098 31.7875202,47.8770101 L28.2067904,47.8608101 L28.2067904,49.6032145 C28.1581703,50.5344153 27.5790193,51.0000164 26.4721977,51.0000164 C25.9252221,51.0000164 25.4997966,50.8860163 25.1952055,50.655016 C24.8891848,50.4252154 24.7247346,50.0748156 24.7011392,49.6032145 L24.7011392,47.8932125 L21.1003874,47.8932125 C20.7657666,47.8716125 20.5069367,47.7480123 20.3274708,47.5236115 L20.3274707,47.5236114 C20.1474584,47.3004789 20.0350501,47.043857 20,46.77601 C20.037895,46.5024091 20.1465752,46.2780094 20.3274707,46.1022089 C20.5062209,45.927009 20.7657666,45.8280089 21.1003873,45.8058091 L24.7011392,45.8058091 L24.7011392,44.1702067 L21.1003873,44.1540066 C20.7657666,44.1318066 20.5069366,44.0280065 20.3274707,43.8420063 C20.1465752,43.6548064 20.0378954,43.4190058 20,43.1340055 C20.037895,42.8604045 20.1465752,42.6360049 20.3274707,42.4602044 C20.5062209,42.2850045 20.7657666,42.1866035 21.1003873,42.1644037 L23.7866503,42.1644037 L21.2870102,38.2860057 L21.2870102,38.2860057 C21.1458276,38.1310192 21.0268013,37.9626689 20.9323691,37.7844045 L20.9323691,37.7844044 C20.8195149,37.5757181 20.7684906,37.3472198 20.7836489,37.1184036 C20.845139,36.8112036 20.9702648,36.5622033 21.1554493,36.3702031 C21.3427792,36.1788034 21.6917,36.0552027 22.2007802,36.0006021 C22.4989352,36.0222021 22.7670605,36.1134022 23.0030108,36.2724027 C23.2389611,36.4308023 23.4320113,36.6036028 23.5821615,36.789603 L26.4164171,41.3598036 L29.5309649,36.7572006 C29.6796851,36.5712004 29.8734496,36.4062002 30.1101156,36.2640003 C30.3460658,36.1200003 30.6127615,36.033 30.9109165,36 C31.0982464,36.0108 31.2684169,36.033 31.4242874,36.0654001 C31.5780126,36.0990001 31.7160081,36.1536002 31.8346972,36.2310009 C31.9519574,36.3072009 32.0520568,36.4170011 32.1328522,36.5592009 C32.2136473,36.7014011 32.2715624,36.8880016 32.3094571,37.1184013 C32.3094571,37.4364017 32.1857619,37.7376017 31.9369409,38.0226021 L29.0461975,42.1650092 L31.7882326,42.1650092 C32.1114127,42.1866092 32.3666676,42.2856094 32.5518539,42.4608099 C32.7377541,42.6366104 32.8442885,42.86101 32.8693136,43.1346109 C32.8442885,43.4202119 32.7356084,43.6614118 32.5432725,43.8582124 C32.3502222,44.0550129 32.0928219,44.1642127 31.7689262,44.187013 L28.2060715,44.2032131 L28.2060715,45.8058126 L31.7868012,45.8058126 C32.1114109,45.8280126 32.3652362,45.9378127 32.5518521,46.1346133 L32.552571,46.1346087 Z" id="路径" fill="#60759C" fill-rule="nonzero"></path>
        <path d="M29.5,24 C30.8807119,24 32,25.1192881 32,26.5 C32,27.8807119 30.8807119,29 29.5,29 L16.5,29 C15.1192881,29 14,27.8807119 14,26.5 C14,25.1192881 15.1192881,24 16.5,24 L29.5,24 Z" id="矩形" fill="#60759C" fill-rule="nonzero"></path>
        <path d="M55.5,24 C56.8807119,24 58,25.1192881 58,26.5 C58,27.8807119 56.8807119,29 55.5,29 L43.5,29 C42.1192881,29 41,27.8807119 41,26.5 C41,25.1192881 42.1192881,24 43.5,24 L55.5,24 Z" id="矩形备份" fill="#60759C" fill-rule="nonzero"></path>
        <path d="M36,17.5 C31.3055796,17.5 27.5,21.3055796 27.5,26 C27.5,30.6944204 31.3055796,34.5 36,34.5 C40.6944204,34.5 44.5,30.6944204 44.5,26 C44.5,21.3055796 40.6944204,17.5 36,17.5 Z M36,22.5 C37.9329966,22.5 39.5,24.0670034 39.5,26 C39.5,27.9329966 37.9329966,29.5 36,29.5 C34.0670034,29.5 32.5,27.9329966 32.5,26 C32.5,24.0670034 34.0670034,22.5 36,22.5 Z" id="椭圆形" fill="#60759C" fill-rule="nonzero"></path>
        <path d="M61.1675842,42.2993377 C62.1068341,41.2873224 63.688647,41.2283343 64.7006623,42.1675842 C65.668677,43.0659971 65.7647347,44.5523127 64.9492693,45.5655286 L64.8324158,45.7006623 L47.8615613,63.9862807 C46.6165377,65.3277586 44.5592683,65.4766227 43.1372251,64.3602737 L42.9819079,64.2310246 L33.3469491,55.7387545 C32.3111505,54.8257997 32.2115659,53.2460229 33.1245207,52.2102243 C33.9977818,51.2194604 35.4811409,51.0852703 36.5149613,51.8744507 L36.6530509,51.9877958 L45.19,59.513 L61.1675842,42.2993377 Z" id="路径-2" fill="#60759C" fill-rule="nonzero"></path>
    </g>
</svg>