<?xml version="1.0" encoding="UTF-8"?>
<svg width="72px" height="72px" viewBox="0 0 72 72" version="1.1" xmlns="http://www.w3.org/2000/svg" xmlns:xlink="http://www.w3.org/1999/xlink">
    <title>8</title>
    <g id="8" stroke="none" stroke-width="1" fill="none" fill-rule="evenodd">
        <path d="M26.5958127,11.5 L17,11.5 C12.8578644,11.5 9.5,14.8578644 9.5,19 L9.5,53 C9.5,57.1421356 12.8578644,60.5 17,60.5 L55,60.5 C59.1421356,60.5 62.5,57.1421356 62.5,53 L62.5,32.2405797 L62.4956328,32.0193726 C62.3795391,29.0843597 59.9634791,26.7405797 57,26.7405797 L37.487,26.74 L31.5356872,14.5818107 C30.6124094,12.6957398 28.6957425,11.5 26.5958127,11.5 Z M17,16.5 L26.5958127,16.5 C26.7867154,16.5 26.9609578,16.6087036 27.0448922,16.7801646 L34.3683809,31.7405797 L57,31.7405797 C57.2761424,31.7405797 57.5,31.9644373 57.5,32.2405797 L57.5,53 C57.5,54.3807119 56.3807119,55.5 55,55.5 L17,55.5 C15.6192881,55.5 14.5,54.3807119 14.5,53 L14.5,19 C14.5,17.6192881 15.6192881,16.5 17,16.5 Z" id="路径-13" fill="#60759C" fill-rule="nonzero"></path>
        <path d="M50.2738662,15.1686771 C52.6881395,15.1686771 54.6583553,17.0699137 54.7689682,19.4568414 L54.7738662,19.6686771 L54.7738662,28.6686771 L49.7738662,28.6686771 L49.773,20.168 L31.2738662,20.1686771 L31.2738662,15.1686771 L50.2738662,15.1686771 Z" id="路径-14" fill="#60759C" fill-rule="nonzero"></path>
    </g>
</svg>