<?xml version="1.0" encoding="UTF-8"?>
<svg width="72px" height="72px" viewBox="0 0 72 72" version="1.1" xmlns="http://www.w3.org/2000/svg" xmlns:xlink="http://www.w3.org/1999/xlink">
    <title>查询</title>
    <g id="查询" stroke="none" stroke-width="1" fill="none" fill-rule="evenodd">
        <path d="M57,11.5 C61.0609173,11.5 64.3680175,14.7274744 64.4961464,18.7572689 L64.5,19 L64.5,33.0926594 L59.5,33.0926594 L59.5,19 C59.5,17.6745166 58.4684641,16.5899613 57.1643757,16.5053177 L57,16.5 L15,16.5 C13.6745166,16.5 12.5899613,17.5315359 12.5053177,18.8356243 L12.5,19 L12.5,53 C12.5,54.3254834 13.5315359,55.4100387 14.8356243,55.4946823 L15,55.5 L37,55.5 L37,60.5 L15,60.5 C10.9390827,60.5 7.63198248,57.2725256 7.50385357,53.2427311 L7.5,53 L7.5,19 C7.5,14.9390827 10.7274744,11.6319825 14.7572689,11.5038536 L15,11.5 L57,11.5 Z" id="路径" fill="#60759C" fill-rule="nonzero"></path>
        <polygon id="路径-11" fill="#60759C" fill-rule="nonzero" points="59.5910986 24.8173636 59.5910986 29.8173636 12 29.8173636 12 24.8173636"></polygon>
        <polygon id="路径-11备份" fill="#60759C" fill-rule="nonzero" points="37 35 37 40 12 40 12 35"></polygon>
        <polygon id="路径-11备份-2" fill="#60759C" fill-rule="nonzero" points="37 45 37 50 12 50 12 45"></polygon>
        <polygon id="直线" fill="#60759C" fill-rule="nonzero" points="29 27.5 29 57.5 24 57.5 24 27.5"></polygon>
        <polygon id="直线备份" fill="#60759C" fill-rule="nonzero" points="47.5 27.5 47.5 33.5 42.5 33.5 42.5 27.5"></polygon>
        <path d="M60.7842301,51.0374399 C61.9195626,51.0479591 62.8373879,51.9656848 62.8480303,53.1010162 L62.913318,60.0659292 C62.9237076,61.1742952 62.0336219,62.0812257 60.9252559,62.0916153 C60.9127874,62.0917322 60.9003182,62.0917329 60.8878497,62.0916174 C59.7525171,62.0810982 58.8346918,61.1633725 58.8240494,60.0280411 L58.7587617,53.0631281 C58.7483722,51.9547621 59.6384579,51.0478315 60.7468238,51.0374419 C60.7592923,51.0373251 60.7717616,51.0373244 60.7842301,51.0374399 Z" id="矩形" fill="#60759C" transform="translate(60.836040, 56.564529) rotate(-46.000000) translate(-60.836040, -56.564529) "></path>
        <path d="M50.7549798,36.7050502 C45.0039082,36.7050502 40.3241457,41.2830788 40.3241457,46.9526054 C40.3241457,52.6221319 45.0039082,57.2001605 50.7549798,57.2001605 C56.5060514,57.2001605 61.1858139,52.6221319 61.1858139,46.9526054 C61.1858139,41.2830788 56.5060514,36.7050502 50.7549798,36.7050502 Z M50.7549798,40.7050502 C54.3163504,40.7050502 57.1858139,43.5121341 57.1858139,46.9526054 C57.1858139,50.3930766 54.3163504,53.2001605 50.7549798,53.2001605 C47.1936092,53.2001605 44.3241457,50.3930766 44.3241457,46.9526054 C44.3241457,43.5121341 47.1936092,40.7050502 50.7549798,40.7050502 Z" id="椭圆形" fill="#60759C" fill-rule="nonzero" transform="translate(50.754980, 46.952605) rotate(-17.000000) translate(-50.754980, -46.952605) "></path>
    </g>
</svg>