<?xml version="1.0" encoding="UTF-8"?>
<svg width="72px" height="72px" viewBox="0 0 72 72" version="1.1" xmlns="http://www.w3.org/2000/svg" xmlns:xlink="http://www.w3.org/1999/xlink">
    <title>还款单</title>
    <g id="还款单" stroke="none" stroke-width="1" fill="none" fill-rule="evenodd">
        <path d="M35.5,7.5 C51.5162577,7.5 64.5,20.4837423 64.5,36.5 C64.5,52.3560952 51.7746342,65.2400219 35.979568,65.4961148 L35.5,65.5 L35.5,60.5 C48.754834,60.5 59.5,49.754834 59.5,36.5 C59.5,23.245166 48.754834,12.5 35.5,12.5 C22.3777143,12.5 11.7151543,23.0313372 11.5032153,36.1031161 L11.5,36.5 L6.5,36.5 C6.5,20.4837423 19.4837423,7.5 35.5,7.5 Z" id="椭圆形" fill="#60759C" fill-rule="nonzero" transform="translate(35.500000, 36.500000) rotate(-90.000000) translate(-35.500000, -36.500000) "></path>
        <path d="M40.4704701,36.4780093 C40.7278704,36.7600088 40.8753796,37.0968668 40.9080501,37.4885811 C40.87538,37.8957244 40.7278699,38.2360101 40.4704701,38.5085823 C40.2120788,38.7828683 39.8606284,38.9345823 39.4111688,38.9671542 L34.4532353,38.9440113 L34.4532353,41.4331604 C34.3859152,42.7634473 33.5840138,43.4285918 32.0514916,43.4285918 C31.2941407,43.4285918 30.70509,43.2657344 30.2833485,42.935734 C29.8596276,42.6074475 29.6319273,42.1068764 29.5992568,41.4331604 L29.5992568,38.9903005 L24.6136003,38.9903005 C24.1502793,38.9594433 23.7918994,38.7828716 23.5434081,38.462299 L23.5434081,38.462299 C23.2941603,38.1435381 23.1385179,37.7769354 23.0899871,37.3942969 C23.1424571,37.0034384 23.2929373,36.6828675 23.5434081,36.4317239 C23.7909084,36.1814383 24.1502793,36.0400096 24.6136003,36.0082957 L29.5992567,36.0082957 L29.5992567,33.6717207 L24.6136003,33.6485778 C24.1502793,33.6168635 23.7918993,33.4685776 23.5434081,33.202863 C23.2929373,32.9354345 23.1424576,32.5985766 23.0899871,32.1914333 C23.1424571,31.8005748 23.2929373,31.4800039 23.5434081,31.2288603 C23.7909084,30.9785747 24.1502793,30.8380019 24.6136003,30.806288 L28.3330414,30.806288 L24.8720012,25.2657193 L24.8720012,25.2657193 C24.6765176,25.04431 24.5117119,24.8038096 24.3809597,24.5491462 L24.3809596,24.5491461 C24.2246999,24.2510228 24.1540509,23.9245967 24.1750394,23.5977164 C24.2601795,23.1588592 24.4334307,22.8031445 24.68984,22.5288584 C24.9492198,22.2554304 25.4323409,22.0788579 26.1372212,22.000857 C26.5500512,22.0317142 26.9213016,22.162 27.248002,22.3891436 C27.5747024,22.6154287 27.8420027,22.8622865 28.0499029,23.1280011 L31.9742569,29.6568592 L36.2867077,23.081712 C36.4926279,22.8159974 36.7609173,22.5802829 37.0886086,22.3771402 C37.415309,22.1714259 37.7845799,22.0471398 38.1974099,21.9999969 C38.4567897,22.0154255 38.6924105,22.0471398 38.9082312,22.0934256 C39.1210815,22.1414256 39.3121522,22.2194257 39.4764909,22.3299981 C39.6388511,22.4388554 39.7774503,22.5957127 39.8893209,22.7988554 C40.001191,23.0019985 40.0813811,23.2685706 40.1338507,23.597713 C40.1338507,24.0519993 39.9625805,24.4822851 39.6180591,24.8894284 L35.6154913,30.8071529 L39.4121553,30.8071529 C39.8596354,30.8380101 40.2130653,30.9794388 40.4694771,31.2297253 C40.7268774,31.4808688 40.8743866,31.8014398 40.9090366,32.1922982 C40.8743866,32.6002996 40.7239064,32.944871 40.4575951,33.2260146 C40.1902948,33.5071582 39.8338944,33.6631579 39.3854234,33.6957298 L34.4522399,33.7188727 L34.4522399,36.0083006 L39.4101734,36.0083006 C39.859633,36.0400149 40.2110834,36.1968722 40.4694746,36.4780158 L40.4704701,36.4780093 Z" id="路径" fill="#60759C" fill-rule="nonzero"></path>
        <path d="M55.7916455,43.6276445 L63.3721923,51.2015742 C63.807208,51.6361602 64.016208,52.2114258 63.9990205,52.7811055 L63.9990205,52.7832539 C64.0157783,53.339957 63.8165751,53.9019883 63.401497,54.3329648 L63.3721923,54.3627852 L55.7916455,61.9367148 C54.9541845,62.7735742 53.5970595,62.7735742 52.7595126,61.9367148 L52.7582236,61.9354258 C51.9306455,61.1072461 51.922997,59.7701445 52.7346767,58.9324258 L52.7595986,58.9071602 L58.8897783,52.7821367 L52.7595126,46.6571992 C51.9229111,45.8212852 51.9223095,44.4655352 52.7582236,43.6289336 L52.7595126,43.6276445 C53.5970595,42.7907852 54.9541845,42.7907852 55.7917314,43.6276445 L55.7916455,43.6276445 Z" id="路径" fill="#60759C" transform="translate(58.065836, 52.782180) scale(-1, 1) translate(-58.065836, -52.782180) "></path>
        <path d="M45.706293,43.6276445 L53.2868399,51.2015742 C53.7218555,51.6361602 53.9307695,52.2114258 53.913668,52.7811055 L53.913668,52.7832539 C53.9304258,53.339957 53.7312227,53.9019883 53.3161445,54.3329648 L53.2868399,54.3627852 L45.706293,61.9367148 C44.868832,62.7735742 43.5116211,62.7735742 42.6741602,61.9367148 L42.6727852,61.9354258 C41.845293,61.1072461 41.8376445,59.7701445 42.6493242,58.9324258 L42.6741602,58.9071602 L48.8043399,52.7821367 L42.6741602,46.6571992 C41.8375586,45.8212852 41.836957,44.4655352 42.6727852,43.6289336 L42.6741602,43.6276445 C43.5116211,42.7907852 44.868832,42.7907852 45.706293,43.6276445 L45.706293,43.6276445 Z" id="路径" fill="#60759C" transform="translate(47.980477, 52.782180) scale(-1, 1) translate(-47.980477, -52.782180) "></path>
    </g>
</svg>