<?xml version="1.0" encoding="UTF-8"?>
<svg width="72px" height="72px" viewBox="0 0 72 72" version="1.1" xmlns="http://www.w3.org/2000/svg" xmlns:xlink="http://www.w3.org/1999/xlink">
    <title>费用申请单</title>
    <g id="费用申请单" stroke="none" stroke-width="1" fill="none" fill-rule="evenodd">
        <path d="M45.059764,8.99413611 C45.7984589,8.99413611 46.5253979,9.17287056 47.1764645,9.51401238 L47.4169327,9.64952152 L47.5412328,9.72465907 L57.5154865,17.462114 L57.5521126,17.4853985 C58.6984641,18.2612612 59.4210236,19.5207956 59.493907,20.8990298 L59.5,21.1297719 L59.5,56.8559212 C59.5,60.3076765 56.6948513,63.0820087 53.2318198,63.2010006 L53,63.2049778 L38.4364937,63.2049778 C37.0557818,63.2049778 35.9364937,62.0856897 35.9364937,60.7049778 C35.9364937,59.3794944 36.9680296,58.2949392 38.272118,58.2102955 L38.4364937,58.2049778 L53,58.2049778 C53.7995155,58.2049778 54.4227804,57.650488 54.4933392,56.9824095 L54.5,56.8559212 L54.4994865,21.450114 L44.8874865,13.994114 L17.4864865,13.9941361 C16.6869709,13.9941361 16.0637061,14.5486259 15.9931473,15.2167045 L15.9864865,15.3431927 L15.9864865,35.2179819 C15.9864865,36.5986938 14.8671984,37.7179819 13.4864865,37.7179819 C12.1610031,37.7179819 11.0764478,36.686446 10.9918042,35.3823576 L10.9864865,35.2179819 L10.9864865,15.3431927 C10.9864865,11.8914375 13.7916352,9.11710524 17.2546666,8.99811336 L17.4864865,8.99413611 L45.059764,8.99413611 Z" id="路径" fill="#60759C" fill-rule="nonzero" transform="translate(35.243243, 36.099557) scale(-1, -1) translate(-35.243243, -36.099557) "></path>
        <path d="M18.8918919,47.9528302 L18.8918919,54.5 C18.8918919,55.8254834 19.9234278,56.9100387 21.2275162,56.9946823 L21.3918919,57 L30.3918919,57 L30.3918919,62 L21.3918919,62 C17.3309746,62 14.0238744,58.7725256 13.8957455,54.7427311 L13.8918919,54.5 L13.8918919,47.9528302 L18.8918919,47.9528302 Z" id="路径-6" fill="#60759C" fill-rule="nonzero" transform="translate(22.141892, 54.976415) scale(-1, -1) translate(-22.141892, -54.976415) "></path>
        <path d="M29.7,24 C31.0807119,24 32.2,25.1192881 32.2,26.5 C32.2,27.8807119 31.0807119,29 29.7,29 L25.5,29 C24.1192881,29 23,27.8807119 23,26.5 C23,25.1192881 24.1192881,24 25.5,24 L29.7,24 Z" id="矩形备份" fill="#60759C" fill-rule="nonzero" transform="translate(27.600000, 26.500000) scale(-1, -1) translate(-27.600000, -26.500000) "></path>
        <path d="M46.4014932,47.810247 C46.5989434,48.0208066 46.7120968,48.2723272 46.7371582,48.5648072 C46.7120972,48.8688076 46.598943,49.1228875 46.4014932,49.3264081 C46.2032828,49.5312083 45.9336873,49.6444882 45.5889095,49.6688085 L41.7857084,49.6515285 L41.7857084,51.5100931 C41.7340675,52.503374 41.1189338,53.0000152 39.9433451,53.0000152 C39.3623857,53.0000152 38.9105285,52.878415 38.5870131,52.6320148 C38.2619793,52.3868942 38.0873118,52.0131343 38.0622504,51.5100931 L38.0622504,49.686091 L34.2377832,49.686091 C33.8823724,49.663051 33.6074613,49.5312108 33.4168451,49.2918499 L33.4168451,49.2918499 C33.2256486,49.0538418 33.1062563,48.7801118 33.0690285,48.4944083 C33.109278,48.2025674 33.2247105,47.9632077 33.4168451,47.7756872 C33.6067011,47.5888073 33.8823724,47.4832072 34.2377831,47.4595274 L38.0622504,47.4595274 L38.0622504,45.7148848 L34.2377831,45.6976048 C33.8823724,45.6739247 33.6074612,45.5632046 33.4168451,45.3648044 C33.2247105,45.1651245 33.1092784,44.9136039 33.0690285,44.6096035 C33.109278,44.3177625 33.2247105,44.0784029 33.4168451,43.8908824 C33.6067011,43.7040024 33.8823724,43.5990414 34.2377831,43.5753617 L37.0909442,43.5753617 L34.436001,39.4384037 L34.436001,39.4384037 C34.2860466,39.2730848 34.1596251,39.0935112 34.0593259,38.9033625 L34.0593259,38.9033624 C33.93946,38.6807637 33.8852656,38.4370322 33.9013657,38.1929616 C33.9666762,37.8652815 34.0995761,37.5996812 34.2962662,37.394881 C34.4952349,37.1907213 34.8658341,37.0588806 35.4065436,37.0006399 C35.7232231,37.0236799 36.008007,37.12096 36.2586169,37.2905605 C36.5092269,37.4595201 36.7142713,37.6438406 36.8737504,37.8422409 L39.8840988,42.7171215 L43.1921541,37.8076783 C43.3501142,37.6092781 43.5559174,37.4332779 43.8072875,37.281598 C44.0578974,37.127998 44.3411629,37.0351977 44.6578423,36.9999977 C44.856811,37.0115177 45.0375543,37.0351977 45.2031091,37.0697578 C45.3663852,37.1055978 45.5129544,37.1638379 45.6390177,37.2463986 C45.7635632,37.3276787 45.8698819,37.4447988 45.9556971,37.5964787 C46.041512,37.7481589 46.1030254,37.9471994 46.1432745,38.1929591 C46.1432745,38.5321595 46.0118941,38.8534395 45.7476139,39.1574399 L42.6772679,43.5760075 L45.5896663,43.5760075 C45.9329255,43.5990476 46.2040395,43.7046477 46.4007314,43.8915282 C46.5981817,44.0790487 46.7113351,44.3184084 46.7379149,44.6102494 C46.7113351,44.9148903 46.5959027,45.1721703 46.3916169,45.3820909 C46.1865724,45.5920114 45.9131798,45.7084913 45.5691603,45.7328116 L41.7849448,45.7500916 L41.7849448,47.4595311 L45.5881459,47.4595311 C45.9329237,47.4832111 46.2025192,47.6003313 46.4007296,47.8102518 L46.4014932,47.810247 Z" id="路径" fill="#60759C" fill-rule="nonzero"></path>
        <path d="M58.2262794,21.1227355 L52.7997056,21.1227355 C52.5630661,21.1227355 52.3721411,20.9318105 52.3721411,20.695171 L52.3721411,19.3775192 C52.3721411,19.2027287 52.4823936,19.0494509 52.6464278,18.9849128 C54.7331578,18.1432292 56.2094656,16.1075917 56.2175328,13.7223732 C56.2256001,10.6595052 53.665591,8.0537817 50.6054121,8.00806726 C47.4215353,7.96235281 44.8265682,10.5304291 44.8265682,13.7035496 C44.8265682,16.0672554 46.2679178,18.0867584 48.3170007,18.9499547 C48.4783458,19.0171818 48.5859092,19.1677706 48.5859092,19.3425611 L48.5859092,20.695171 C48.5859092,20.9318105 48.3949841,21.1227355 48.1583447,21.1227355 L42.7290817,21.1227355 C41.7771456,21.1227355 41.0080673,21.8945029 41.0080673,22.84375 L41.0080673,24.4840919 C41.0080673,24.7207314 41.1989923,24.9116565 41.4356318,24.9116565 L59.5197294,24.9116565 C59.7563689,24.9116565 59.9473009,24.7207314 59.9473009,24.4840919 L59.9473009,22.84375 C59.949983,21.8918139 59.1782156,21.1227355 58.2262794,21.1227355 Z M59.5224185,26.0114923 L41.4356318,26.0114923 C41.1989923,26.0114923 41.0080673,26.2024173 41.0080673,26.4390568 L41.0080673,27.4797328 C41.0080673,27.7163723 41.1989923,27.9072973 41.4356318,27.9072973 L59.5224185,27.9072973 C59.759058,27.9072973 59.949983,27.7163723 59.949983,27.4797328 L59.949983,26.4390568 C59.949983,26.2024173 59.759058,26.0114923 59.5224185,26.0114923 Z" id="形状" fill="#60759C" fill-rule="nonzero"></path>
    </g>
</svg>