<?xml version="1.0" encoding="UTF-8"?>
<svg width="72px" height="72px" viewBox="0 0 72 72" version="1.1" xmlns="http://www.w3.org/2000/svg" xmlns:xlink="http://www.w3.org/1999/xlink">
    <title>费用预提单</title>
    <g id="费用预提单" stroke="none" stroke-width="1" fill="none" fill-rule="evenodd">
        <path d="M45.059764,8.99413611 C45.7984589,8.99413611 46.5253979,9.17287056 47.1764645,9.51401238 L47.4169327,9.64952152 L47.5412328,9.72465907 L57.5154865,17.462114 L57.5521126,17.4853985 C58.6984641,18.2612612 59.4210236,19.5207956 59.493907,20.8990298 L59.5,21.1297719 L59.5,56.8559212 C59.5,60.3076765 56.6948513,63.0820087 53.2318198,63.2010006 L53,63.2049778 L38.4364937,63.2049778 C37.0557818,63.2049778 35.9364937,62.0856897 35.9364937,60.7049778 C35.9364937,59.3794944 36.9680296,58.2949392 38.272118,58.2102955 L38.4364937,58.2049778 L53,58.2049778 C53.7995155,58.2049778 54.4227804,57.650488 54.4933392,56.9824095 L54.5,56.8559212 L54.4994865,21.450114 L44.8874865,13.994114 L17.4864865,13.9941361 C16.6869709,13.9941361 16.0637061,14.5486259 15.9931473,15.2167045 L15.9864865,15.3431927 L15.9864865,35.2179819 C15.9864865,36.5986938 14.8671984,37.7179819 13.4864865,37.7179819 C12.1610031,37.7179819 11.0764478,36.686446 10.9918042,35.3823576 L10.9864865,35.2179819 L10.9864865,15.3431927 C10.9864865,11.8914375 13.7916352,9.11710524 17.2546666,8.99811336 L17.4864865,8.99413611 L45.059764,8.99413611 Z" id="路径" fill="#60759C" fill-rule="nonzero" transform="translate(35.243243, 36.099557) scale(-1, -1) translate(-35.243243, -36.099557) "></path>
        <path d="M18.8918919,47.9528302 L18.8918919,54.5 C18.8918919,55.8254834 19.9234278,56.9100387 21.2275162,56.9946823 L21.3918919,57 L30.3918919,57 L30.3918919,62 L21.3918919,62 C17.3309746,62 14.0238744,58.7725256 13.8957455,54.7427311 L13.8918919,54.5 L13.8918919,47.9528302 L18.8918919,47.9528302 Z" id="路径-6" fill="#60759C" fill-rule="nonzero" transform="translate(22.141892, 54.976415) scale(-1, -1) translate(-22.141892, -54.976415) "></path>
        <path d="M29.7,24 C31.0807119,24 32.2,25.1192881 32.2,26.5 C32.2,27.8807119 31.0807119,29 29.7,29 L25.5,29 C24.1192881,29 23,27.8807119 23,26.5 C23,25.1192881 24.1192881,24 25.5,24 L29.7,24 Z" id="矩形备份" fill="#60759C" fill-rule="nonzero" transform="translate(27.600000, 26.500000) scale(-1, -1) translate(-27.600000, -26.500000) "></path>
        <path d="M47.5293067,46.7929695 C47.758107,47.0811037 47.8892263,47.4252898 47.9182667,47.8255257 C47.8892267,48.2415261 47.7581066,48.5892145 47.5293067,48.8677163 C47.2996256,49.1479693 46.9872252,49.3029838 46.5877056,49.3362643 L42.1806536,49.3126179 L42.1806536,51.8559169 C42.1208135,53.2151433 41.4080123,53.8947576 40.0457703,53.8947576 C39.3725695,53.8947576 38.8489689,53.7283574 38.4740876,53.3911781 C38.0974467,53.0557499 37.8950465,52.5442891 37.866006,51.8559169 L37.866006,49.359914 L33.4343114,49.359914 C33.0224705,49.3283856 32.7039106,49.1479727 32.4830294,48.8204262 L32.4830294,48.8204262 C32.2614758,48.4947309 32.123127,48.120153 32.0799885,47.7291904 C32.1266286,47.329829 32.2603887,47.0022842 32.4830294,46.7456772 C32.7030297,46.4899468 33.0224705,46.3454414 33.4343114,46.3130376 L37.866006,46.3130376 L37.866006,43.9256318 L33.4343114,43.9019855 C33.0224705,43.8695812 32.7039105,43.7180695 32.4830294,43.4465744 C32.2603887,43.1733282 32.126629,42.8291421 32.0799885,42.4131416 C32.1266286,42.0137803 32.2603887,41.6862355 32.4830294,41.4296285 C32.7030297,41.1738981 33.0224705,41.0302672 33.4343114,40.9978633 L36.7404812,40.9978633 L33.6640011,35.336763 L33.6640011,35.336763 C33.4902379,35.1105371 33.3437439,34.8648047 33.2275197,34.6046013 L33.2275197,34.6046012 C33.0886222,34.2999924 33.0258231,33.9664651 33.0444795,33.6324737 C33.1201596,33.1840694 33.2741606,32.8206164 33.50208,32.5403634 C33.7326398,32.2609871 34.1620808,32.0805734 34.7886411,32.0008756 C35.1556011,32.0324041 35.4856014,32.1655242 35.7760018,32.3976091 C36.0664021,32.628817 36.3040024,32.8810451 36.4888026,33.1525401 L39.9771172,39.8234295 L43.8104068,33.105244 C43.993447,32.833749 44.2319265,32.5929066 44.5232077,32.3853446 C44.813608,32.1751551 45.1418488,32.0481653 45.5088088,31.9999968 C45.7393686,32.0157611 45.9488093,32.0481653 46.14065,32.095458 C46.3298502,32.1445023 46.4996908,32.2241992 46.6457697,32.337177 C46.7900899,32.4484024 46.9132892,32.6086721 47.0127297,32.816234 C47.1121698,33.0237963 47.1834499,33.2961676 47.2300895,33.6324703 C47.2300895,34.0966393 47.0778493,34.5362857 46.7716081,34.9522862 L43.21377,40.9987471 L46.5885825,40.9987471 C46.9863426,41.0302756 47.3005025,41.174781 47.5284241,41.4305123 C47.7572243,41.6871193 47.8883436,42.0146641 47.9191436,42.4140254 C47.8883436,42.8309026 47.7545835,43.1829699 47.5178623,43.4702296 C47.280262,43.7574893 46.9634617,43.9168828 46.5648208,43.9501632 L42.1797688,43.9738096 L42.1797688,46.3130426 L46.5868208,46.3130426 C46.9863404,46.3454468 47.2987408,46.5057165 47.5284219,46.7929762 L47.5293067,46.7929695 Z" id="路径" fill="#60759C" fill-rule="nonzero"></path>
        <path d="M59,18.7533182 C59,19.3976741 58.7147295,19.9816711 58.2652699,20.3817469 L50.9315985,26.9438124 C50.5404609,27.2895336 50.0228533,27.5 49.4583347,27.5 C48.2399125,27.5 47.2531934,26.5228795 47.2531934,25.3150676 C47.2531934,24.6634433 47.538464,24.0867147 47.9879235,23.6866389 L51.0609211,20.9385666 L41.1984849,20.9385666 C39.9838664,20.9385666 39,19.9614461 39,18.7466818 C39,17.5388699 39.9838664,16.5617495 41.1984849,16.5617495 L51.0609211,16.5617495 L47.9879235,13.8133611 C47.538464,13.4129693 47.2531934,12.8327645 47.2531934,12.1852484 C47.2531934,10.9771205 48.2399125,10 49.4583347,10 C50.0228533,10 50.5404609,10.2104664 50.9315985,10.5631399 L58.2652699,17.1248894 C58.7144125,17.5249652 59,18.1086462 59,18.7533182" id="路径" fill="#60759C" transform="translate(49.000000, 18.750000) scale(-1, -1) translate(-49.000000, -18.750000) "></path>
    </g>
</svg>