<?xml version="1.0" encoding="UTF-8"?>
<svg width="72px" height="72px" viewBox="0 0 72 72" version="1.1" xmlns="http://www.w3.org/2000/svg" xmlns:xlink="http://www.w3.org/1999/xlink">
    <title>借款单</title>
    <g id="借款单" stroke="none" stroke-width="1" fill="none" fill-rule="evenodd">
        <path d="M32,7.5 C33.3807119,7.5 34.5,8.61928813 34.5,10 C34.5,11.3254834 33.4684641,12.4100387 32.1643757,12.4946823 L32,12.5 L17.7037037,12.5 C14.9034679,12.5 12.6198335,14.7118335 12.5045651,17.4837358 L12.5,17.7037037 L12.5,54.2962963 C12.5,57.0965321 14.7118335,59.3801665 17.4837358,59.4954349 L17.7037037,59.5 L54.2962963,59.5 C57.0965321,59.5 59.3801665,57.2881665 59.4954349,54.5162642 L59.5,54.2962963 L59.5,39.6045476 C59.5,38.2238358 60.6192881,37.1045476 62,37.1045476 C63.3254834,37.1045476 64.4100387,38.1360836 64.4946823,39.440172 L64.5,39.6045476 L64.5,54.2962963 C64.5,59.8377237 60.0826557,64.3474252 54.5771584,64.4962092 L54.2962963,64.5 L17.7037037,64.5 C12.1622763,64.5 7.65257485,60.0826557 7.50379075,54.5771584 L7.5,54.2962963 L7.5,17.7037037 C7.5,12.1622763 11.9173443,7.65257485 17.4228416,7.50379075 L17.7037037,7.5 L32,7.5 Z" id="路径" fill="#60759C" fill-rule="nonzero" transform="translate(36.000000, 36.000000) scale(1, -1) translate(-36.000000, -36.000000) "></path>
        <path d="M40.3822151,35.8910109 C40.6825154,36.2200103 40.8546095,36.6130112 40.8927251,37.0700113 C40.8546101,37.5450118 40.6825149,37.9420118 40.3822151,38.2600126 C40.0807586,38.580013 39.6707331,38.7570127 39.1463636,38.7950133 L33.3621079,38.7680132 L33.3621079,41.6720205 C33.2835678,43.2240218 32.3480161,44.0000237 30.5600735,44.0000237 C29.6764975,44.0000237 28.9892717,43.8100235 28.49724,43.4250231 C28.0028988,43.0420221 27.7372485,42.4580224 27.6991329,41.6720205 L27.6991329,38.8220172 L21.8825337,38.8220172 C21.3419925,38.7860172 20.9238826,38.5800169 20.6339761,38.2060155 L20.6339761,38.2060154 C20.343187,37.8341278 20.1616042,37.4064247 20.1049849,36.960013 C20.1662,36.5040115 20.3417602,36.1300121 20.6339761,35.8370112 C20.9227264,35.5450114 21.3419925,35.3800112 21.8825337,35.3430116 L27.6991328,35.3430116 L27.6991328,32.6170075 L21.8825337,32.5900074 C21.3419925,32.5530074 20.9238826,32.3800072 20.6339761,32.0700068 C20.3417602,31.758007 20.1662005,31.365006 20.1049849,30.8900055 C20.1662,30.434004 20.3417602,30.0600045 20.6339761,29.7670037 C20.9227264,29.4750038 21.3419925,29.3110022 21.8825337,29.2740026 L26.2218816,29.2740026 L22.1840014,22.8100058 L22.1840014,22.8100058 C21.9559372,22.551695 21.7636639,22.2711112 21.6111197,21.9740039 L21.6111196,21.9740037 C21.4288166,21.6261933 21.3463928,21.2453628 21.3708793,20.8640025 C21.4702094,20.3520023 21.6723358,19.9370019 21.97148,19.6170015 C22.2740898,19.2980021 22.837731,19.0920009 23.6600914,19.0009998 C24.1417264,19.0369998 24.5748519,19.189 24.9560023,19.4540008 C25.3371528,19.7180001 25.6490031,20.006001 25.8915534,20.3160013 L30.4699663,27.9330024 L35.501159,20.2619974 C35.7413992,19.951997 36.0544035,19.6769967 36.4367101,19.4399969 C36.8178605,19.1999969 37.2486766,19.0549964 37.7303116,18.9999964 C38.0329214,19.0179964 38.3078122,19.0549964 38.5596031,19.1089965 C38.8079284,19.1649966 39.0308442,19.2559967 39.2225727,19.3849978 C39.411993,19.511998 39.573692,19.6949982 39.7042077,19.931998 C39.8347229,20.1689982 39.928278,20.4799991 39.9894925,20.8639986 C39.9894925,21.3939992 39.7896773,21.8959993 39.3877357,22.3709998 L34.7180731,29.2750118 L39.1475146,29.2750118 C39.6695746,29.3110118 40.0819095,29.476012 40.3810566,29.7680128 C40.6813569,30.0610136 40.853451,30.4350131 40.893876,30.8910146 C40.853451,31.3670161 40.6778908,31.7690161 40.3671943,32.097017 C40.0553439,32.4250179 39.6395434,32.6070176 39.1163273,32.6450181 L33.3609466,32.6720182 L33.3609466,35.3430174 L39.1452023,35.3430174 C39.6695718,35.3800174 40.0795973,35.5630176 40.3810537,35.8910185 L40.3822151,35.8910109 Z" id="路径" fill="#60759C" fill-rule="nonzero"></path>
        <path d="M46.6599726,42.6276445 L54.2405195,50.2015742 C54.6755351,50.6361602 54.8845351,51.2114258 54.8673476,51.7811055 L54.8673476,51.7832539 C54.8841055,52.339957 54.6849023,52.9019883 54.2698242,53.3329648 L54.2405195,53.3627852 L46.6599726,60.9367148 C45.8225117,61.7735742 44.4653867,61.7735742 43.6278398,60.9367148 L43.6265508,60.9354258 C42.7989726,60.1072461 42.7913242,58.7701445 43.6030039,57.9324258 L43.6279258,57.9071602 L49.7581055,51.7821367 L43.6278398,45.6571992 C42.7912383,44.8212852 42.7906367,43.4655352 43.6265508,42.6289336 L43.6278398,42.6276445 C44.4653867,41.7907852 45.8225117,41.7907852 46.6600586,42.6276445 L46.6599726,42.6276445 Z" id="路径" fill="#60759C"></path>
        <path d="M56.7453398,42.6276445 L64.3258867,50.2015742 C64.7609023,50.6361602 64.9698164,51.2114258 64.9527148,51.7811055 L64.9527148,51.7832539 C64.9694726,52.339957 64.7702695,52.9019883 64.3551914,53.3329648 L64.3258867,53.3627852 L56.7453398,60.9367148 C55.9078789,61.7735742 54.550668,61.7735742 53.713207,60.9367148 L53.711832,60.9354258 C52.8843398,60.1072461 52.8766914,58.7701445 53.6883711,57.9324258 L53.713207,57.9071602 L59.8433867,51.7821367 L53.713207,45.6571992 C52.8766055,44.8212852 52.8760039,43.4655352 53.711832,42.6289336 L53.713207,42.6276445 C54.550668,41.7907852 55.9078789,41.7907852 56.7453398,42.6276445 L56.7453398,42.6276445 Z" id="路径" fill="#60759C"></path>
    </g>
</svg>