<?xml version="1.0" encoding="UTF-8"?>
<svg width="72px" height="72px" viewBox="0 0 72 72" version="1.1" xmlns="http://www.w3.org/2000/svg" xmlns:xlink="http://www.w3.org/1999/xlink">
    <title>财务处理</title>
    <g id="财务处理" stroke="none" stroke-width="1" fill="none" fill-rule="evenodd">
        <path d="M56,16.5 L16,16.5 C10.2010101,16.5 5.5,21.2010101 5.5,27 L5.5,53 C5.5,58.7989899 10.2010101,63.5 16,63.5 L56,63.5 C61.7989899,63.5 66.5,58.7989899 66.5,53 L66.5,27 C66.5,21.2010101 61.7989899,16.5 56,16.5 Z M16,21.5 L56,21.5 C59.0375661,21.5 61.5,23.9624339 61.5,27 L61.5,53 C61.5,56.0375661 59.0375661,58.5 56,58.5 L16,58.5 C12.9624339,58.5 10.5,56.0375661 10.5,53 L10.5,27 C10.5,23.9624339 12.9624339,21.5 16,21.5 Z" id="Rectangle-5" fill="#60759C" fill-rule="nonzero"></path>
        <polygon id="路径-2" fill="#60759C" fill-rule="nonzero" points="20.9008221 17.8679181 36.5 7.60603817 52.0991779 17.8679181 49.9008221 21.209659 36.5 12.393 23.0991779 21.209659"></polygon>
        <path d="M35.9724852,52.9280901 C28.8126408,52.9280901 23.0084401,47.1238894 23.0084401,39.964045 C23.0084401,32.8042007 28.8126408,27 35.9724852,27 C43.1323295,27 48.9365302,32.8042007 48.9365302,39.964045 C48.9365302,47.1238894 43.1323295,52.9280901 35.9724852,52.9280901 Z M35.9724852,29.7781949 C30.3469954,29.7781949 25.786635,34.3385553 25.786635,39.964045 C25.786635,45.5895348 30.3469954,50.1498952 35.9724852,50.1498952 C41.5979749,50.1498952 46.1583353,45.5895348 46.1583353,39.964045 C46.1583353,34.3385553 41.5979749,29.7781949 35.9724852,29.7781949 Z M37.9369701,44.5476992 C36.852066,45.6323698 35.0933365,45.6323698 34.0084323,44.5476992 L31.3892631,41.92853 C30.3045925,40.8436258 30.3045925,39.0848964 31.3892631,37.9999922 L34.0084323,35.380823 C35.0933365,34.2961524 36.852066,34.2961524 37.9369701,35.380823 L40.5561394,37.9999922 C41.6408099,39.0848964 41.6408099,40.8436258 40.5561394,41.92853 L37.9369701,44.5476992 Z M38.5916544,39.3093608 L36.6271694,37.3448758 C36.4534926,37.1711599 36.2179128,37.0735641 35.9722691,37.0735641 C35.7266254,37.0735641 35.4910456,37.1711599 35.3173688,37.3448758 L33.3528838,39.3093608 C33.1791679,39.4830376 33.0815721,39.7186174 33.0815721,39.9642611 C33.0815721,40.2099048 33.1791679,40.4454846 33.3528838,40.6191614 L35.3173688,42.5836464 C35.4910456,42.7573622 35.7266254,42.8549581 35.9722691,42.8549581 C36.2179128,42.8549581 36.4534926,42.7573622 36.6271694,42.5836464 L38.5916544,40.6191614 C38.7653703,40.4454846 38.8629661,40.2099048 38.8629661,39.9642611 C38.8629661,39.7186174 38.7653703,39.4830376 38.5916544,39.3093608 L38.5916544,39.3093608 Z" id="形状" fill="#60759C" fill-rule="nonzero"></path>
    </g>
</svg>