<?xml version="1.0" encoding="UTF-8"?>
<svg width="72px" height="72px" viewBox="0 0 72 72" version="1.1" xmlns="http://www.w3.org/2000/svg" xmlns:xlink="http://www.w3.org/1999/xlink">
    <title>费用查询</title>
    <g id="费用查询" stroke="none" stroke-width="1" fill="none" fill-rule="evenodd">
        <path d="M25.4967608,7.5 C26.8774727,7.5 27.9967608,8.61928813 27.9967608,10 C27.9967608,11.3254834 26.9652249,12.4100387 25.6611365,12.4946823 L25.4967608,12.5 L18.2592593,12.5 C15.7018326,12.5 13.6155415,14.5171714 13.5046371,17.0472632 L13.5,17.2592593 L13.5,51.7407407 C13.5,54.2981674 15.5171714,56.3844585 18.0472632,56.4953629 L18.2592593,56.5 L52.7407407,56.5 C55.2981674,56.5 57.3844585,54.4828286 57.4953629,51.9527368 L57.5,51.7407407 L57.5,43.2249371 C57.5,41.8442252 58.6192881,40.7249371 60,40.7249371 C61.3254834,40.7249371 62.4100387,41.756473 62.4946823,43.0605614 L62.5,43.2249371 L62.5,51.7407407 C62.5,57.0392767 58.2774898,61.3515926 53.0139071,61.4962507 L52.7407407,61.5 L18.2592593,61.5 C12.9607233,61.5 8.64840738,57.2774898 8.50374931,52.0139071 L8.5,51.7407407 L8.5,17.2592593 C8.5,11.9607233 12.7225102,7.64840738 17.9860929,7.50374931 L18.2592593,7.5 L25.4967608,7.5 Z" id="路径" fill="#60759C" fill-rule="nonzero" transform="translate(35.500000, 34.500000) scale(1, -1) translate(-35.500000, -34.500000) "></path>
        <path d="M35.4998884,32.6736755 C35.7429887,32.9400083 35.8823029,33.2581519 35.9131584,33.6281044 C35.8823034,34.0126286 35.7429882,34.3340095 35.4998884,34.5914388 C35.2558522,34.8504867 34.9239268,34.9937722 34.4994372,35.0245346 L29.8169445,35.0026774 L29.8169445,37.3535404 C29.7533644,38.6099224 28.9960131,39.2381144 27.5486309,39.2381144 C26.8333551,39.2381144 26.2770294,39.0843047 25.8787181,38.7726377 C25.4785371,38.4625893 25.2634869,37.9898277 25.2326314,37.3535404 L25.2326314,35.0463949 L20.5239559,35.0463949 C20.0863749,35.017252 19.747905,34.8504899 19.5132188,34.5477268 L19.5132187,34.5477268 C19.2778181,34.2466749 19.1308225,33.900439 19.0849878,33.5390582 C19.1345428,33.1699141 19.276663,32.8671526 19.5132187,32.6299615 C19.746969,32.3935806 20.0863749,32.2600091 20.5239558,32.230057 L25.2326314,32.230057 L25.2326314,30.0232918 L20.5239558,30.0014346 C20.0863749,29.9714822 19.7479049,29.8314344 19.5132187,29.5804817 C19.276663,29.3279104 19.1345433,29.0097668 19.0849878,28.6252425 C19.1345428,28.2560984 19.276663,27.953337 19.5132187,27.7161458 C19.746969,27.479765 20.0863749,27.3470018 20.5239558,27.3170497 L24.0367613,27.3170497 L20.7680012,22.0842904 L20.7680012,22.0842904 C20.5833777,21.8751817 20.4277279,21.6480424 20.3042397,21.407527 L20.3042397,21.4075268 C20.1566611,21.125966 20.089937,20.8176746 20.1097594,20.5089544 C20.1901695,20.0944781 20.3537956,19.7585253 20.59596,19.4994774 C20.8409298,19.2412398 21.2972108,19.0744769 21.9629311,19.0008094 C22.3528261,19.0299523 22.7034515,19.153 23.0120019,19.3675245 C23.3205523,19.5812382 23.5730025,19.8143817 23.7693528,20.0653344 L27.475687,26.2314781 L31.5485573,20.0216169 C31.7430375,19.7706642 31.9964219,19.5480449 32.3059081,19.356188 C32.6144585,19.1619022 32.9632144,19.0445209 33.3531094,18.9999971 C33.5980792,19.0145685 33.8206099,19.0445209 34.0244406,19.0882353 C34.2254658,19.1335687 34.4059215,19.2072354 34.5611303,19.3116649 C34.7144705,19.4144745 34.8453697,19.5626176 34.9510253,19.7544745 C35.0566804,19.9463319 35.1324155,20.1980945 35.1819701,20.5089512 C35.1819701,20.9379993 35.0202149,21.3443804 34.6948336,21.7289046 L30.9146306,27.3178667 L34.5003689,27.3178667 C34.922989,27.3470096 35.2567839,27.4805811 35.4989506,27.7169628 C35.7420508,27.9541539 35.8813651,28.2569154 35.9140901,28.6260594 C35.8813651,29.011394 35.7392449,29.3368226 35.4877287,29.6023471 C35.2352784,29.8678716 34.898678,30.0152047 34.4751221,30.045967 L29.8160044,30.0678242 L29.8160044,32.2300617 L34.4984971,32.2300617 C34.9229867,32.2600141 35.2549121,32.4081571 35.4989483,32.6736816 L35.4998884,32.6736755 Z" id="路径" fill="#60759C" fill-rule="nonzero"></path>
        <path d="M57.7842301,52.0374399 C58.9195626,52.0479591 59.8373879,52.9656848 59.8480303,54.1010162 L59.913318,61.0659292 C59.9237076,62.1742952 59.0336219,63.0812257 57.9252559,63.0916153 C57.9127874,63.0917322 57.9003182,63.0917329 57.8878497,63.0916174 C56.7525171,63.0810982 55.8346918,62.1633725 55.8240494,61.0280411 L55.7587617,54.0631281 C55.7483722,52.9547621 56.6384579,52.0478315 57.7468238,52.0374419 C57.7592923,52.0373251 57.7717616,52.0373244 57.7842301,52.0374399 Z" id="矩形" fill="#60759C" transform="translate(57.836040, 57.564529) rotate(-46.000000) translate(-57.836040, -57.564529) "></path>
        <path d="M47.7549798,37.7050502 C42.0039082,37.7050502 37.3241457,42.2830788 37.3241457,47.9526054 C37.3241457,53.6221319 42.0039082,58.2001605 47.7549798,58.2001605 C53.5060514,58.2001605 58.1858139,53.6221319 58.1858139,47.9526054 C58.1858139,42.2830788 53.5060514,37.7050502 47.7549798,37.7050502 Z M47.7549798,41.7050502 C51.3163504,41.7050502 54.1858139,44.5121341 54.1858139,47.9526054 C54.1858139,51.3930766 51.3163504,54.2001605 47.7549798,54.2001605 C44.1936092,54.2001605 41.3241457,51.3930766 41.3241457,47.9526054 C41.3241457,44.5121341 44.1936092,41.7050502 47.7549798,41.7050502 Z" id="椭圆形" fill="#60759C" fill-rule="nonzero" transform="translate(47.754980, 47.952605) rotate(-17.000000) translate(-47.754980, -47.952605) "></path>
    </g>
</svg>