<?xml version="1.0" encoding="UTF-8"?>
<svg width="72px" height="72px" viewBox="0 0 72 72" version="1.1" xmlns="http://www.w3.org/2000/svg" xmlns:xlink="http://www.w3.org/1999/xlink">
    <title>借款查询</title>
    <g id="借款查询" stroke="none" stroke-width="1" fill="none" fill-rule="evenodd">
        <path d="M25.4967608,7.5 C26.8774727,7.5 27.9967608,8.61928813 27.9967608,10 C27.9967608,11.3254834 26.9652249,12.4100387 25.6611365,12.4946823 L25.4967608,12.5 L18.2592593,12.5 C15.7018326,12.5 13.6155415,14.5171714 13.5046371,17.0472632 L13.5,17.2592593 L13.5,51.7407407 C13.5,54.2981674 15.5171714,56.3844585 18.0472632,56.4953629 L18.2592593,56.5 L52.7407407,56.5 C55.2981674,56.5 57.3844585,54.4828286 57.4953629,51.9527368 L57.5,51.7407407 L57.5,43.2249371 C57.5,41.8442252 58.6192881,40.7249371 60,40.7249371 C61.3254834,40.7249371 62.4100387,41.756473 62.4946823,43.0605614 L62.5,43.2249371 L62.5,51.7407407 C62.5,57.0392767 58.2774898,61.3515926 53.0139071,61.4962507 L52.7407407,61.5 L18.2592593,61.5 C12.9607233,61.5 8.64840738,57.2774898 8.50374931,52.0139071 L8.5,51.7407407 L8.5,17.2592593 C8.5,11.9607233 12.7225102,7.64840738 17.9860929,7.50374931 L18.2592593,7.5 L25.4967608,7.5 Z" id="路径" fill="#60759C" fill-rule="nonzero" transform="translate(35.500000, 34.500000) scale(1, -1) translate(-35.500000, -34.500000) "></path>
        <path d="M57.7842301,52.0374399 C58.9195626,52.0479591 59.8373879,52.9656848 59.8480303,54.1010162 L59.913318,61.0659292 C59.9237076,62.1742952 59.0336219,63.0812257 57.9252559,63.0916153 C57.9127874,63.0917322 57.9003182,63.0917329 57.8878497,63.0916174 C56.7525171,63.0810982 55.8346918,62.1633725 55.8240494,61.0280411 L55.7587617,54.0631281 C55.7483722,52.9547621 56.6384579,52.0478315 57.7468238,52.0374419 C57.7592923,52.0373251 57.7717616,52.0373244 57.7842301,52.0374399 Z" id="矩形" fill="#60759C" transform="translate(57.836040, 57.564529) rotate(-46.000000) translate(-57.836040, -57.564529) "></path>
        <path d="M47.7549798,37.7050502 C42.0039082,37.7050502 37.3241457,42.2830788 37.3241457,47.9526054 C37.3241457,53.6221319 42.0039082,58.2001605 47.7549798,58.2001605 C53.5060514,58.2001605 58.1858139,53.6221319 58.1858139,47.9526054 C58.1858139,42.2830788 53.5060514,37.7050502 47.7549798,37.7050502 Z M47.7549798,41.7050502 C51.3163504,41.7050502 54.1858139,44.5121341 54.1858139,47.9526054 C54.1858139,51.3930766 51.3163504,54.2001605 47.7549798,54.2001605 C44.1936092,54.2001605 41.3241457,51.3930766 41.3241457,47.9526054 C41.3241457,44.5121341 44.1936092,41.7050502 47.7549798,41.7050502 Z" id="椭圆形" fill="#60759C" fill-rule="nonzero" transform="translate(47.754980, 47.952605) rotate(-17.000000) translate(-47.754980, -47.952605) "></path>
        <path d="M50.7542728,49.2343191 C50.8394921,49.336272 50.8883289,49.4580582 50.8991454,49.5996769 C50.8883291,49.7468738 50.8394919,49.8698992 50.7542728,49.9684438 C50.6687255,50.067608 50.5523685,50.122458 50.4035629,50.1342339 L48.7621067,50.125867 L48.7621067,51.0257833 C48.7398185,51.5067296 48.4743277,51.7472031 47.9669453,51.7472031 C47.716204,51.7472031 47.5211831,51.6883244 47.3815543,51.5690174 C47.2412702,51.4503301 47.1658839,51.2693557 47.1550675,51.0257833 L47.1550675,50.1426021 L45.5044328,50.1426021 C45.3510381,50.1314462 45.2323868,50.0676092 45.1501171,49.9517107 L45.1501171,49.9517107 C45.067597,49.8364673 45.0160674,49.7039273 45,49.5655898 C45.0173716,49.4242805 45.0671921,49.3083826 45.1501171,49.2175852 C45.2320587,49.127098 45.351038,49.0759665 45.5044328,49.0645008 L47.1550675,49.0645008 L47.1550675,48.2197454 L45.5044328,48.2113784 C45.351038,48.1999126 45.2323868,48.1463019 45.1501171,48.0502366 C45.0671921,47.9535516 45.0173718,47.8317654 45,47.6845686 C45.0173716,47.5432593 45.0671921,47.4273614 45.1501171,47.336564 C45.2320587,47.2460769 45.351038,47.1952547 45.5044328,47.183789 L46.7358531,47.183789 L45.5899834,45.1806754 L45.5899834,45.1806754 C45.5252633,45.100628 45.4706999,45.0136785 45.427411,44.9216086 L45.4274109,44.9216086 C45.375677,44.8138263 45.3522867,44.6958116 45.3592355,44.5776327 C45.3874234,44.4189701 45.4447829,44.2903666 45.529674,44.1912023 C45.6155486,44.0923483 45.7754987,44.0285111 46.0088682,44.0003109 C46.1455466,44.0114669 46.268459,44.0585699 46.3766218,44.1406904 C46.4847847,44.2225006 46.5732816,44.3117485 46.6421125,44.4078139 L47.9413747,46.7682294 L49.3691266,44.3910787 C49.437302,44.2950134 49.5261264,44.2097941 49.6346173,44.1363508 C49.7427802,44.0619777 49.8650372,44.0170438 50.0017156,44 C50.0875902,44.005578 50.1655988,44.0170438 50.237052,44.0337778 C50.3075217,44.0511315 50.3707808,44.0793314 50.4251895,44.1193072 C50.4789432,44.158663 50.5248301,44.2153726 50.5618679,44.2888159 C50.5989055,44.3622594 50.6254546,44.4586348 50.642826,44.5776315 C50.642826,44.7418722 50.5861224,44.8974359 50.4720595,45.0446328 L49.1469025,47.1841018 L50.4038895,47.1841018 C50.5520397,47.1952577 50.6690521,47.2463893 50.7539441,47.3368768 C50.8391633,47.4276741 50.8880002,47.543572 50.899472,47.6848813 C50.8880002,47.8323884 50.8381797,47.9569632 50.7500102,48.0586067 C50.6615133,48.1602502 50.5435175,48.2166497 50.3950392,48.2284256 L48.7617771,48.2367925 L48.7617771,49.0645026 L50.4032333,49.0645026 C50.5520389,49.0759684 50.668396,49.132678 50.7539433,49.2343214 L50.7542728,49.2343191 Z" id="路径" fill="#60759C" fill-rule="nonzero" transform="translate(47.949736, 47.873602) rotate(-360.000000) translate(-47.949736, -47.873602) "></path>
        <path d="M42.6028985,20 C43.1588885,20 43.7169615,20.1831569 44.1838292,20.5562828 L44.1838292,20.5562828 L50.0861989,26.4355402 C50.592063,26.9414043 50.8405797,27.5906602 50.8405797,28.2376812 C50.8405797,28.8847021 50.592063,29.533958 50.0861989,30.0398221 C49.5803348,30.5456863 48.9310789,30.7942029 48.2840579,30.7942029 C47.728068,30.7942029 47.169995,30.611046 46.7031273,30.2379201 L46.7031273,30.2379201 L40.8007576,24.3586627 C40.2948934,23.8527986 40.0463768,23.2035427 40.0463768,22.5565218 C40.0463768,21.9095008 40.2948934,21.2602449 40.8007576,20.7543808 C41.3066217,20.2485166 41.9558776,20 42.6028985,20 Z" id="路径" fill="#60759C" fill-rule="nonzero"></path>
        <path d="M48.2637681,25.6811594 C48.9612319,25.6811594 49.5958714,25.9655025 50.0557642,26.4253953 C50.515657,26.885288 50.8,27.5199275 50.8,28.2173913 C50.8,28.9148551 50.515657,29.5494946 50.0557642,30.0093874 C49.6587662,30.4063853 49.1316167,30.6727835 48.5460741,30.7380144 L48.5460741,30.7380144 L22.5362318,30.7536232 C21.8070652,30.7536232 21.1788488,30.4744352 20.7290184,30.0246048 C20.279188,29.5747743 20,28.946558 20,28.2173913 C20,27.5199275 20.284343,26.8852881 20.7442358,26.4253953 C21.1412337,26.0283973 21.6683832,25.7619992 22.2539258,25.6967682 L22.2539258,25.6967682 L48.2637681,25.6811594 Z" id="路径" fill="#60759C" fill-rule="nonzero"></path>
    </g>
</svg>