<?xml version="1.0" encoding="UTF-8"?>
<svg width="72px" height="72px" viewBox="0 0 72 72" version="1.1" xmlns="http://www.w3.org/2000/svg" xmlns:xlink="http://www.w3.org/1999/xlink">
    <title>报销单</title>
    <g id="报销单" stroke="none" stroke-width="1" fill="none" fill-rule="evenodd">
        <path d="M51.8590413,6.53840572 L20.0641472,6.53840572 C14.8463003,6.53840572 10.4615943,10.2352858 10.4615943,15.0267859 L10.4615943,55.8738815 C10.4615943,56.6974608 10.8672169,57.4682046 11.5460588,57.9345269 L18.0487096,62.4014444 L18.2067154,62.5015195 C18.9040945,62.9075336 19.7594343,62.9535544 20.5007525,62.615805 L29.21253,58.646 L37.0022649,62.5730949 L37.1824642,62.6551776 C37.7306405,62.8791141 38.3429497,62.9019414 38.9094809,62.7154554 L46.76253,60.13 L58.2852674,63.3683726 C59.8799208,63.8164849 61.4615943,62.6180133 61.4615943,60.9615943 L61.4615943,15.0267859 C61.4615943,10.2352858 57.0768882,6.53840572 51.8590413,6.53840572 Z M51.8590413,11.5384057 L52.0960636,11.5429514 C54.6043493,11.6394778 56.4615943,13.2589488 56.4615943,15.0267859 L56.4615943,57.662 L47.3814155,55.110625 L47.1747916,55.0619223 C46.7587228,54.9823307 46.3279955,55.0095719 45.9234192,55.1427469 L38.32853,57.642 L30.394124,53.6415857 L30.222556,53.5630428 C29.5853847,53.2999437 28.8644622,53.3107535 28.2320699,53.5988755 L19.71353,57.479 L15.46153,54.558 L15.46153,15.0267859 C15.46153,13.2037039 17.4367308,11.5384057 20.0641472,11.5384057 L51.8590413,11.5384057 Z" id="路径" fill="#60759C" fill-rule="nonzero" transform="translate(35.961594, 35.000741) rotate(-90.000000) translate(-35.961594, -35.000741) "></path>
        <path d="M45.38453,33.5 C46.7652419,33.5 47.88453,34.6192881 47.88453,36 C47.88453,37.3807119 46.7652419,38.5 45.38453,38.5 L2.38452998,38.5 C1.00381811,38.5 -0.115470018,37.3807119 -0.115470018,36 C-0.115470018,34.6192881 1.00381811,33.5 2.38452998,33.5 L45.38453,33.5 Z" id="矩形备份" fill="#60759C" fill-rule="nonzero" transform="translate(23.884530, 36.000000) scale(1, -1) rotate(-270.000000) translate(-23.884530, -36.000000) "></path>
        <path d="M49.2305954,40.1487917 C49.5022957,40.4909511 49.6579998,40.8996721 49.6924854,41.3749522 C49.6580003,41.8689527 49.5022952,42.2818327 49.2305954,42.6125536 C48.957849,42.945354 48.5868736,43.1294337 48.1124441,43.1689542 L42.8790698,43.1408742 L42.8790698,46.1610418 C42.8080097,47.7751232 41.9615582,48.5821651 40.3438958,48.5821651 C39.5444699,48.5821651 38.9226942,48.3845649 38.4775226,47.9841644 C38.0302616,47.5858434 37.7899113,46.9784838 37.7554258,46.1610418 L37.7554258,43.1970383 L32.4927884,43.1970383 C32.0037274,43.1595983 31.6254374,42.945358 31.3631411,42.5563966 L31.363141,42.5563965 C31.1000462,42.1696334 30.935757,41.7248221 30.88453,41.260554 C30.939915,40.7863124 31.0987552,40.397353 31.363141,40.0926321 C31.6243914,39.7889523 32.0037273,39.6173521 32.4927884,39.5788725 L37.7554257,39.5788725 L37.7554257,36.7438282 L32.4927884,36.7157482 C32.0037273,36.6772681 31.6254374,36.4973479 31.363141,36.1749476 C31.0987552,35.8504677 30.9399156,35.4417467 30.88453,34.9477461 C30.939915,34.4735046 31.0987552,34.0845451 31.363141,33.7798243 C31.6243914,33.4761444 32.0037273,33.3055827 32.4927884,33.2671032 L36.4188651,33.2671032 L32.7655449,26.5445465 L32.7655449,26.5445465 C32.5592011,26.2759032 32.3852395,25.9840961 32.2472233,25.6751045 L32.2472232,25.6751043 C32.0822825,25.3133815 32.0077085,24.9173177 32.029863,24.520703 C32.1197331,23.9882229 32.3026093,23.5566224 32.5732636,23.223822 C32.8470534,22.8920626 33.3570145,22.6778214 34.1010549,22.5831802 C34.5368199,22.6206203 34.9286953,22.7787005 35.2735457,23.0543013 C35.6183961,23.3288606 35.9005465,23.6283815 36.1199967,23.9507818 L40.2623703,31.8724629 L44.8144017,23.8946177 C45.031762,23.5722173 45.3149563,23.286217 45.6608527,23.0397372 C46.0057031,22.7901372 46.3954891,22.6393368 46.8312541,22.5821367 C47.1050439,22.6008567 47.3537547,22.6393368 47.5815655,22.6954968 C47.8062407,22.7537369 48.0079265,22.848377 48.1813952,22.9825382 C48.3527754,23.1146183 48.4990745,23.3049385 48.6171602,23.5514183 C48.7352453,23.7978986 48.8198904,24.1213395 48.8752749,24.5206989 C48.8752749,25.0718996 48.6944897,25.5939797 48.3308283,26.0879803 L44.1058955,33.2681527 L48.1134854,33.2681527 C48.5858254,33.3055927 48.9588903,33.4771929 49.2295472,33.7808738 C49.5012475,34.0855946 49.6569517,34.4745541 49.6935267,34.9487956 C49.6569517,35.4438372 49.4981115,35.8619172 49.2170051,36.2030381 C48.9348548,36.544159 48.5586544,36.7334387 48.0852683,36.7729593 L42.8780191,36.8010393 L42.8780191,39.5788785 L48.1113933,39.5788785 C48.5858229,39.6173585 48.9567983,39.8076788 49.2295446,40.1487997 L49.2305954,40.1487917 Z" id="路径" fill="#60759C" fill-rule="nonzero"></path>
    </g>
</svg>