<?xml version="1.0" encoding="UTF-8"?>
<svg width="72px" height="72px" viewBox="0 0 72 72" version="1.1" xmlns="http://www.w3.org/2000/svg" xmlns:xlink="http://www.w3.org/1999/xlink">
    <title>固定资产信息</title>
    <g id="固定资产信息" stroke="none" stroke-width="1" fill="none" fill-rule="evenodd">
        <path d="M13.65,19.5 C14.9754834,19.5 16.0600387,20.5315359 16.1446823,21.8356243 L16.15,22 L16.15,54.3337231 C16.15,54.5791829 16.3268752,54.7833314 16.5601244,54.8256674 L16.65,54.8337231 L43.0379119,54.8337231 C44.4186238,54.8337231 45.5379119,55.9530112 45.5379119,57.3337231 C45.5379119,58.6592065 44.506376,59.7437617 43.2022876,59.8284054 L43.0379119,59.8337231 L16.65,59.8337231 C13.6865209,59.8337231 11.2704609,57.489943 11.1543672,54.5549302 L11.15,54.3337231 L11.15,22 C11.15,20.6192881 12.2692881,19.5 13.65,19.5 Z" id="路径-4" fill="#60759C" fill-rule="nonzero"></path>
        <path d="M42.3150135,8.5 L26,8.5 C22.4101491,8.5 19.5,11.4101491 19.5,15 L19.5,45 C19.5,48.5898509 22.4101491,51.5 26,51.5 L53,51.5 C56.5898509,51.5 59.5,48.5898509 59.5,45 L59.5,23.4583196 C59.5,22.1145317 58.8994513,20.8410604 57.8626166,19.9862271 L45.1776301,9.52790752 C44.3716511,8.8634065 43.3596014,8.5 42.3150135,8.5 Z M42.135,13.5 L54.5,23.695 L54.5,45 C54.5,45.8284271 53.8284271,46.5 53,46.5 L26,46.5 C25.1715729,46.5 24.5,45.8284271 24.5,45 L24.5,15 C24.5,14.1715729 25.1715729,13.5 26,13.5 L42.135,13.5 Z" id="路径-5" fill="#60759C" fill-rule="nonzero"></path>
        <path d="M45.5,10 L45.5,20 C45.5,21.3254834 46.5315359,22.4100387 47.8356243,22.4946823 L48,22.5 L59,22.5 L59,27.5 L48,27.5 C43.9390827,27.5 40.6319825,24.2725256 40.5038536,20.2427311 L40.5,20 L40.5,10 L45.5,10 Z" id="路径-6" fill="#60759C" fill-rule="nonzero"></path>
        <rect id="矩形" stroke="#60759C" stroke-width="4" fill="#D8D8D8" x="30" y="39" width="18" height="1" rx="0.5"></rect>
        <rect id="矩形备份" stroke="#60759C" stroke-width="4" fill="#D8D8D8" x="30" y="27" width="5" height="1" rx="0.5"></rect>
    </g>
</svg>