<?xml version="1.0" encoding="UTF-8"?>
<svg width="72px" height="72px" viewBox="0 0 72 72" version="1.1" xmlns="http://www.w3.org/2000/svg" xmlns:xlink="http://www.w3.org/1999/xlink">
    <title>期初数据导入</title>
    <g id="期初数据导入" stroke="none" stroke-width="1" fill="none" fill-rule="evenodd">
        <path d="M30,12.5 C31.3807119,12.5 32.5,13.6192881 32.5,15 C32.5,16.3254834 31.4684641,17.4100387 30.1643757,17.4946823 L30,17.5 L17.7037037,17.5 C14.9034679,17.5 12.6198335,19.7118335 12.5045651,22.4837358 L12.5,22.7037037 L12.5,54.2962963 C12.5,57.0965321 14.7118335,59.3801665 17.4837358,59.4954349 L17.7037037,59.5 L54.2962963,59.5 C57.0965321,59.5 59.3801665,57.2881665 59.4954349,54.5162642 L59.5,54.2962963 L59.5,46.6045476 C59.5,45.2238358 60.6192881,44.1045476 62,44.1045476 C63.3254834,44.1045476 64.4100387,45.1360836 64.4946823,46.440172 L64.5,46.6045476 L64.5,54.2962963 C64.5,59.8377237 60.0826557,64.3474252 54.5771584,64.4962092 L54.2962963,64.5 L17.7037037,64.5 C12.1622763,64.5 7.65257485,60.0826557 7.50379075,54.5771584 L7.5,54.2962963 L7.5,22.7037037 C7.5,17.1622763 11.9173443,12.6525748 17.4228416,12.5037908 L17.7037037,12.5 L30,12.5 Z" id="路径" fill="#60759C" fill-rule="nonzero" transform="translate(36.000000, 38.500000) scale(1, -1) translate(-36.000000, -38.500000) "></path>
        <path d="M32.5,36.0933449 C33.8807119,36.0933449 35,37.212633 35,38.5933449 C35,39.9740567 33.8807119,41.0933449 32.5,41.0933449 L21.5,41.0933449 C20.1192881,41.0933449 19,39.9740567 19,38.5933449 C19,37.212633 20.1192881,36.0933449 21.5,36.0933449 L32.5,36.0933449 Z" id="路径" fill="#60759C" fill-rule="nonzero" transform="translate(27.000000, 38.593345) scale(1, -1) translate(-27.000000, -38.593345) "></path>
        <path d="M29.5,12 C30.8807119,12 32,13.1192881 32,14.5 C32,15.8807119 30.8807119,17 29.5,17 L20.5,17 C19.1192881,17 18,15.8807119 18,14.5 C18,13.1192881 19.1192881,12 20.5,12 L29.5,12 Z" id="路径" fill="#60759C" fill-rule="nonzero" transform="translate(25.000000, 14.500000) scale(1, -1) rotate(90.000000) translate(-25.000000, -14.500000) "></path>
        <path d="M51.5,12 C52.8807119,12 54,13.1192881 54,14.5 C54,15.8807119 52.8807119,17 51.5,17 L42.5,17 C41.1192881,17 40,15.8807119 40,14.5 C40,13.1192881 41.1192881,12 42.5,12 L51.5,12 Z" id="路径" fill="#60759C" fill-rule="nonzero" transform="translate(47.000000, 14.500000) scale(1, -1) rotate(90.000000) translate(-47.000000, -14.500000) "></path>
        <path d="M59.5,25.0933449 C60.8807119,25.0933449 62,26.212633 62,27.5933449 C62,28.9740567 60.8807119,30.0933449 59.5,30.0933449 L12.5,30.0933449 C11.1192881,30.0933449 10,28.9740567 10,27.5933449 C10,26.212633 11.1192881,25.0933449 12.5,25.0933449 L59.5,25.0933449 Z" id="路径" fill="#60759C" fill-rule="nonzero" transform="translate(36.000000, 27.593345) scale(1, -1) translate(-36.000000, -27.593345) "></path>
        <path d="M52.2951801,40.8766812 L52.3980469,41.0374901 C52.9788422,42.043457 52.6341725,43.3297819 51.6282056,43.9105771 L49.0938678,45.3729935 L63.8182995,45.373412 C64.97989,45.373412 65.9215452,46.3150672 65.9215452,47.4766577 C65.9215452,48.6382483 64.97989,49.5799034 63.8182995,49.5799034 L41.8151135,49.5799034 C40.653523,49.5799034 39.7118678,48.6382483 39.7118678,47.4766577 C39.7118678,47.1614027 39.7812279,46.8623476 39.9055205,46.59392 C40.0205914,46.2176027 40.2552355,45.8746028 40.5997544,45.6279852 C40.6418325,45.5978643 40.685155,45.569521 40.7296077,45.5430298 L49.539679,40.2927406 C50.4769465,39.7341838 51.6764404,39.9999987 52.2951801,40.8766812 Z" id="形状结合" fill="#60759C" fill-rule="nonzero"></path>
        <path d="M51.7451004,55.7632354 L51.8479673,55.9240442 C52.4287625,56.9300111 52.0840928,58.216336 51.0781259,58.7971313 L48.5437881,60.2595477 L63.2682198,60.2599662 C64.4298104,60.2599662 65.3714656,61.2016214 65.3714656,62.3632119 C65.3714656,63.5248024 64.4298104,64.4664576 63.2682198,64.4664576 L41.2650339,64.4664576 C40.1034433,64.4664576 39.1617881,63.5248024 39.1617881,62.3632119 C39.1617881,62.0479569 39.2311483,61.7489017 39.3554408,61.4804742 C39.4705117,61.1041568 39.7051558,60.761157 40.0496748,60.5145393 C40.0917529,60.4844185 40.1350753,60.4560752 40.179528,60.4295839 L48.9895993,55.1792948 C49.9268668,54.620738 51.1263607,54.8865529 51.7451004,55.7632354 Z" id="形状结合" fill="#60759C" fill-rule="nonzero" transform="translate(52.266627, 59.676506) scale(-1, -1) translate(-52.266627, -59.676506) "></path>
    </g>
</svg>