<?xml version="1.0" encoding="UTF-8"?>
<svg width="72px" height="72px" viewBox="0 0 72 72" version="1.1" xmlns="http://www.w3.org/2000/svg" xmlns:xlink="http://www.w3.org/1999/xlink">
    <title>固定资产变动</title>
    <g id="固定资产变动" stroke="none" stroke-width="1" fill="none" fill-rule="evenodd">
        <path d="M61.9317336,44.3561644 C63.2068612,44.8857066 63.8112775,46.3486805 63.2817353,47.6238081 C60.3889273,54.5896345 54.9150108,60.1877426 47.8312027,63.1946408 C33.0881597,69.4526912 16.0634097,62.5742457 9.80535925,47.8312027 C9.26587214,46.5602507 9.85884158,45.0925999 11.1297936,44.5531128 C12.4007455,44.0136257 13.8683964,44.6065951 14.4078835,45.8775471 C19.5869598,58.0786861 33.6764081,63.7711927 45.8775471,58.5921165 C51.743765,56.1020547 56.2685272,51.4746352 58.6640899,45.7061661 C59.1936321,44.4310385 60.656606,43.8266222 61.9317336,44.3561644 Z M48.3703704,39.2592593 C49.6999448,39.2592593 50.7777778,40.3370923 50.7777778,41.6666667 C50.7777778,42.0307954 50.696936,42.3760424 50.5522213,42.685439 C50.420962,43.1128258 50.1533047,43.5022116 49.761489,43.7826857 C49.7133258,43.8171625 49.6637383,43.8496047 49.612857,43.879927 L39.5287139,49.8894887 C38.4022625,50.5607881 36.9448976,50.1918145 36.2735983,49.0653631 L36.256982,49.037037 C35.5921948,47.8855918 35.986709,46.4132446 37.1381542,45.7484574 L40.0387778,44.0745715 L23.1851852,44.0740741 C21.8556108,44.0740741 20.7777778,42.9962411 20.7777778,41.6666667 C20.7777778,40.3370923 21.8556108,39.2592593 23.1851852,39.2592593 L48.3703704,39.2592593 Z M63.1946408,25.1687973 C64.2754309,27.7149793 64.9132193,29.8861025 65.2421754,32.2956161 C65.428943,33.6636377 64.4713474,34.9240434 63.1033258,35.110811 C61.7353042,35.2975786 60.4748985,34.339983 60.2881309,32.9719614 C60.0235232,31.0337822 59.5092133,29.2829977 58.5921165,27.1224529 C53.4130402,14.9213139 39.3235919,9.22880727 27.1224529,14.4078835 C19.3338698,17.7139409 13.9723897,24.7825226 12.7526094,33.0008241 C12.5499014,34.3665747 11.2784144,35.309407 9.91266379,35.106699 C8.54691318,34.9039909 7.60408088,33.632504 7.80678892,32.2667534 C9.27965619,22.3432721 15.7604726,13.7989562 25.1687973,9.80535925 C39.9118403,3.54730879 56.9365903,10.4257543 63.1946408,25.1687973 Z M35.9115869,23.3790813 L35.9282032,23.4074074 C36.5929904,24.5588526 36.1984762,26.0311999 35.047031,26.6959871 L32.1464074,28.3698729 L49,28.3703704 C50.3295744,28.3703704 51.4074074,29.4482034 51.4074074,30.7777778 C51.4074074,32.1073522 50.3295744,33.1851852 49,33.1851852 L23.8148148,33.1851852 C22.4852404,33.1851852 21.4074074,32.1073522 21.4074074,30.7777778 C21.4074074,30.4136491 21.4882492,30.068402 21.6329639,29.7590055 C21.7642232,29.3316187 22.0318805,28.9422328 22.4236961,28.6617587 C22.4718594,28.627282 22.5214469,28.5948397 22.5723282,28.5645175 L32.6564713,22.5549558 C33.7829226,21.8836564 35.2402875,22.25263 35.9115869,23.3790813 Z" id="形状结合" fill="#60759C" fill-rule="nonzero"></path>
    </g>
</svg>