<?xml version="1.0" encoding="UTF-8"?>
<svg width="72px" height="72px" viewBox="0 0 72 72" version="1.1" xmlns="http://www.w3.org/2000/svg" xmlns:xlink="http://www.w3.org/1999/xlink">
    <title>固定资产维护</title>
    <g id="固定资产维护" stroke="none" stroke-width="1" fill="none" fill-rule="evenodd">
        <path d="M29,6.5 C30.3807119,6.5 31.5,7.61928813 31.5,9 C31.5,10.3254834 30.4684641,11.4100387 29.1643757,11.4946823 L29,11.5 L16.7037037,11.5 C13.9034679,11.5 11.6198335,13.7118335 11.5045651,16.4837358 L11.5,16.7037037 L11.5,53.2962963 C11.5,56.0965321 13.7118335,58.3801665 16.4837358,58.4954349 L16.7037037,58.5 L53.2962963,58.5 C56.0965321,58.5 58.3801665,56.2881665 58.4954349,53.5162642 L58.5,53.2962963 L58.5,40.6045476 C58.5,39.2238358 59.6192881,38.1045476 61,38.1045476 C62.3254834,38.1045476 63.4100387,39.1360836 63.4946823,40.440172 L63.5,40.6045476 L63.5,53.2962963 C63.5,58.8377237 59.0826557,63.3474252 53.5771584,63.4962092 L53.2962963,63.5 L16.7037037,63.5 C11.1622763,63.5 6.65257485,59.0826557 6.50379075,53.5771584 L6.5,53.2962963 L6.5,16.7037037 C6.5,11.1622763 10.9173443,6.65257485 16.4228416,6.50379075 L16.7037037,6.5 L29,6.5 Z" id="路径" fill="#60759C" fill-rule="nonzero" transform="translate(35.000000, 35.000000) scale(1, -1) translate(-35.000000, -35.000000) "></path>
        <path d="M23.5556719,29 C24.0140221,29 24.4382986,29.2029164 24.766002,29.5508623 C25.0686852,29.8722425 25.2887964,30.3189048 25.3688119,30.8390901 L25.3768463,30.8951032 L25.973374,35.3683589 C26.0696656,36.0467161 25.9021438,36.7390533 25.513631,37.268043 C25.1887082,37.7160841 24.7079173,37.9823254 24.1963914,37.9991746 L24.1536958,38 L17.8464016,38 C17.3177859,37.9969916 16.8180877,37.7273409 16.4840506,37.264887 C16.1071376,36.7498563 15.9392435,36.0807129 16.0197329,35.4204809 L16.0266041,35.3683788 L16.6231408,30.8950556 C16.6957326,30.3510673 16.920714,29.8837896 17.2342521,29.550884 C17.5510111,29.2145585 17.9579306,29.0136918 18.3986038,29.0006744 L18.4443088,29 L23.5556719,29 Z M23.4030552,31 L18.5943915,31 L18,35 L24,34.9890028 L23.4030552,31 Z M35.5557698,29 C36.0140922,29 36.4383088,29.2029038 36.7659821,29.5508316 C37.0686387,29.8721965 37.288748,30.3188458 37.3688296,30.8390841 L37.3768713,30.8951032 L37.9733752,35.3683589 C38.069663,36.0467161 37.9021479,36.7390533 37.5136286,37.268073 C37.188622,37.716176 36.7077241,37.9824117 36.1961146,37.9991814 L36.153412,38 L29.8462879,38 C29.3177052,37.9969718 28.8180412,37.7273304 28.4840304,37.2649291 C28.1071792,36.7498652 27.9392889,36.0807478 28.0197015,35.4205142 L28.0265664,35.3684119 L28.6230837,30.8950556 C28.6956726,30.3510673 28.9206451,29.8837896 29.2341706,29.550884 C29.550917,29.2145585 29.9578202,29.0136918 30.3984758,29.0006744 L30.4441789,29 L35.5557698,29 Z M35.4030496,32 L30.5944134,32 L30,36 L36,35.9890621 L35.4030496,32 Z" id="形状" fill="#60759C" fill-rule="nonzero"></path>
        <path d="M30.5568485,16 C31.0143718,16 31.4377456,16.2026403 31.7648435,16.5496703 C32.0678595,16.8711509 32.2880987,17.3180156 32.3683277,17.8384411 L32.3763854,17.8944801 L32.9733491,22.3677157 C33.0697324,23.0471681 32.9020199,23.7407579 32.5135104,24.2691049 C32.1878694,24.7172021 31.7078788,24.9829065 31.1976652,24.9992193 L31.1550801,25 L24.8444858,25 C24.3175964,24.9974439 23.8191077,24.7285854 23.4844273,24.2664883 C23.1070225,23.7517232 22.9388896,23.0806873 23.0199524,22.418825 L23.0266802,22.3679334 L23.623505,17.8956659 C23.695959,17.3511438 23.9209039,16.8833794 24.2346985,16.550167 C24.5508774,16.2144227 24.9570774,16.0136835 25.3971088,16.000674 L25.4427477,16 L30.5568485,16 Z M25.5938008,19 L25.0015842,22.9894482 L25.0006535,22.9947173 L25.0006535,22.9947173 L25,23 L31,23 L30.9993452,22.9947481 L30.9993452,22.9947481 L30.9984164,22.9895099 L30.4063113,19.0001093 L25.5938008,19 Z" id="形状" fill="#60759C" fill-rule="nonzero"></path>
        <path d="M48.6042927,54.4543628 L46.9730732,54.7977774 L44.0515958,59.2351851 L45.1529756,60.3390179 L49.5952892,57.4126346 L49.9362509,55.786321 L52.6835679,53.0169273 L51.3516098,51.6825161 L48.6042927,54.4543628 Z M54.9010453,53.8411224 L63.1307317,45.6384186 C64.2762648,44.4977914 64.2762648,42.6482583 63.1331847,41.5076311 C61.9901045,40.364551 60.1405714,40.364551 58.9999443,41.5076311 L50.7702578,49.707882 L54.9010453,53.8411224 Z M61.5902718,43.8305858 C61.8036794,43.6171781 62.1421881,43.6171781 62.3531429,43.8305858 C62.5640976,44.0390875 62.5640976,44.3825022 62.3506899,44.588551 L55.946007,50.9981398 C55.7350523,51.2115475 55.3916376,51.2115475 55.1831359,50.9981398 C54.9697282,50.7871851 54.9697282,50.4437705 55.1831359,50.2328158 L61.5902718,43.8305858 Z M60.0277352,42.2631433 C60.2386899,42.0521886 60.5821045,42.0521886 60.7906063,42.2631433 C61.0040139,42.476551 61.0040139,42.8150597 60.7906063,43.0284673 L54.3834704,49.4331503 C54.1700627,49.6490109 53.8291011,49.6490109 53.6205993,49.4331503 C53.4096446,49.2221955 53.4096446,48.8787809 53.6205993,48.6727321 L60.0277352,42.2631433 Z M58.4578397,51.6800631 L54.660655,55.4772478 C56.4169756,57.3807461 57.864223,58.9629064 58.5952056,59.691436 C59.7260209,60.8247043 61.5559303,60.8320631 62.6744808,59.7110597 C63.7954843,58.5900562 63.7856725,56.7625997 62.6548571,55.6293314 L58.4578397,51.6800631 Z M61.4749826,58.5115614 C61.0211847,58.9629064 60.2877491,58.9629064 59.8339512,58.5115614 C59.3826063,58.0602165 59.3801533,57.324328 59.8339512,56.87053 C60.2852962,56.4191851 61.0211847,56.4191851 61.4749826,56.87053 C61.9287805,57.3267809 61.9287805,58.0602165 61.4749826,58.5115614 Z M52.7228153,44.3702374 C52.7228153,41.4095126 50.3262718,39.0105161 47.368,39.0105161 C46.6419233,39.0105161 45.9477352,39.1552409 45.317324,39.4177078 L48.1872892,42.2876729 C48.7048641,42.8052478 48.7048641,43.6539726 48.1872892,44.1740004 L47.0981742,45.2680214 C46.5805993,45.7855963 45.7318746,45.7855963 45.2118467,45.2680214 L42.378676,42.4348506 C42.1456446,43.0358262 42.0107317,43.6858611 42.0107317,44.3702374 C42.0107317,47.3260562 44.4097282,49.7250527 47.368,49.7250527 C50.3262718,49.7250527 52.7228153,47.3260562 52.7228153,44.3702374 Z" id="形状" fill="#60759C" fill-rule="nonzero"></path>
    </g>
</svg>