<?xml version="1.0" encoding="UTF-8"?>
<svg width="72px" height="72px" viewBox="0 0 72 72" version="1.1" xmlns="http://www.w3.org/2000/svg" xmlns:xlink="http://www.w3.org/1999/xlink">
    <title>固定资产调拨</title>
    <g id="固定资产调拨" stroke="none" stroke-width="1" fill="none" fill-rule="evenodd">
        <path d="M50.8974471,8.91741728 C56.0221181,8.91741728 60.3431377,12.4834448 60.4958257,17.1501719 L60.5,17.4057974 L60.5,27.5933449 C60.5,28.9740567 59.3807119,30.0933449 58,30.0933449 C56.6745166,30.0933449 55.5899613,29.0618089 55.5053177,27.7577206 L55.5,27.5933449 L55.5,17.4057974 C55.5,15.6379603 53.642755,14.0184893 51.1344694,13.9219629 L50.8974471,13.9174173 L19.1025529,13.9174173 C16.5547552,13.9174173 14.6203042,15.4833174 14.5054043,17.2405393 L14.5,17.4057974 L14.5,55.937 L18.752,58.858 L27.2704756,54.9778871 C27.9028679,54.6897651 28.6237904,54.6789553 29.2609617,54.9420544 L29.4325298,55.0205972 L37.039,58.856 L39.6819359,57.2167655 C40.8062773,56.5191499 42.2685717,56.8215985 43.0291697,57.8806119 L43.1243133,58.0230146 C43.8219289,59.1473561 43.5194803,60.6096505 42.4604669,61.3702485 L42.3180641,61.4653921 L38.4842814,63.8441239 C37.797035,64.2705369 36.9497084,64.3362689 36.2094718,64.0295137 L36.0406706,63.9521064 L28.251,60.025 L19.5391583,63.9948166 C18.79784,64.332566 17.9425003,64.2865452 17.2451211,63.8805311 L17.0871153,63.7804559 L10.5844645,59.3135384 C9.9578412,58.8830871 9.56402016,58.193247 9.50714014,57.4418974 L9.5,57.2528931 L9.5,17.4057974 C9.5,12.6998599 13.7295076,9.04979776 18.8238427,8.92093902 L19.1025529,8.91741728 L50.8974471,8.91741728 Z" id="路径" fill="#60759C" fill-rule="nonzero"></path>
        <path d="M30.5,38.0933449 C31.8807119,38.0933449 33,39.212633 33,40.5933449 C33,41.9740567 31.8807119,43.0933449 30.5,43.0933449 L22.5,43.0933449 C21.1192881,43.0933449 20,41.9740567 20,40.5933449 C20,39.212633 21.1192881,38.0933449 22.5,38.0933449 L30.5,38.0933449 Z" id="矩形" fill="#60759C" fill-rule="nonzero" transform="translate(26.500000, 40.593345) scale(1, -1) translate(-26.500000, -40.593345) "></path>
        <path d="M42.5,25.0933449 C43.8807119,25.0933449 45,26.212633 45,27.5933449 C45,28.9740567 43.8807119,30.0933449 42.5,30.0933449 L22.5,30.0933449 C21.1192881,30.0933449 20,28.9740567 20,27.5933449 C20,26.212633 21.1192881,25.0933449 22.5,25.0933449 L42.5,25.0933449 Z" id="矩形备份" fill="#60759C" fill-rule="nonzero" transform="translate(32.500000, 27.593345) scale(1, -1) translate(-32.500000, -27.593345) "></path>
        <path d="M51.2951801,34.5541454 L51.3980469,34.7149542 C51.9788422,35.7209211 51.6341725,37.007246 50.6282056,37.5880413 L48.0938678,39.0504577 L62.8182995,39.0508761 C63.97989,39.0508761 64.9215452,39.9925313 64.9215452,41.1541219 C64.9215452,42.3157124 63.97989,43.2573676 62.8182995,43.2573676 L40.8151135,43.2573676 C39.653523,43.2573676 38.7118678,42.3157124 38.7118678,41.1541219 C38.7118678,40.8388668 38.7812279,40.5398117 38.9055205,40.2713842 C39.0205914,39.8950668 39.2552355,39.5520669 39.5997544,39.3054493 C39.6418325,39.2753285 39.685155,39.2469851 39.7296077,39.2204939 L48.539679,33.9702048 C49.4769465,33.411648 50.6764404,33.6774629 51.2951801,34.5541454 Z" id="形状结合" fill="#60759C" fill-rule="nonzero"></path>
        <path d="M50.7451004,49.4406995 L50.8479673,49.6015084 C51.4287625,50.6074753 51.0840928,51.8938002 50.0781259,52.4745955 L47.5437881,53.9370119 L62.2682198,53.9374303 C63.4298104,53.9374303 64.3714656,54.8790855 64.3714656,56.040676 C64.3714656,57.2022666 63.4298104,58.1439218 62.2682198,58.1439218 L40.2650339,58.1439218 C39.1034433,58.1439218 38.1617881,57.2022666 38.1617881,56.040676 C38.1617881,55.725421 38.2311483,55.4263659 38.3554408,55.1579383 C38.4705117,54.781621 38.7051558,54.4386211 39.0496748,54.1920035 C39.0917529,54.1618827 39.1350753,54.1335393 39.179528,54.1070481 L47.9895993,48.8567589 C48.9268668,48.2982021 50.1263607,48.5640171 50.7451004,49.4406995 Z" id="形状结合" fill="#60759C" fill-rule="nonzero" transform="translate(51.266627, 53.353970) scale(-1, -1) translate(-51.266627, -53.353970) "></path>
    </g>
</svg>