<?xml version="1.0" encoding="UTF-8"?>
<svg width="72px" height="72px" viewBox="0 0 72 72" version="1.1" xmlns="http://www.w3.org/2000/svg" xmlns:xlink="http://www.w3.org/1999/xlink">
    <title>存货查询</title>
    <g id="存货查询" stroke="none" stroke-width="1" fill="none" fill-rule="evenodd">
        <path d="M28.9090909,8.5 C30.2898028,8.5 31.4090909,9.61928813 31.4090909,11 C31.4090909,12.3254834 30.377555,13.4100387 29.0734666,13.4946823 L28.9090909,13.5 L17.2835017,13.5 C14.7130481,13.5 12.6161301,15.5274464 12.5046608,18.0704258 L12.5,18.2835017 L12.5,47.537 L15.2524463,51.7573874 L15.3510399,52.030069 C16.5398544,55.317992 18.7559879,57.5305306 21.0726453,57.6578357 L21.2835017,57.6636364 L49.8801347,57.6636364 C52.0074498,57.6636364 53.4457854,56.0856899 54.676861,52.4380228 L54.8402462,51.939851 L56.663,48.225 L56.6636364,36.8806632 C56.6636364,35.5551798 57.6951723,34.4706246 58.9992607,34.3859809 L59.1636364,34.3806632 C60.4891198,34.3806632 61.573675,35.4121992 61.6583187,36.7162875 L61.6636364,36.8806632 L61.6636364,49.3859555 L59.485,53.822 L59.4302683,53.9891328 C57.6173474,59.3771397 54.8284396,62.5331065 50.1735058,62.6596774 L49.8801347,62.6636364 L21.2835017,62.6636364 C16.6008362,62.6636364 12.8269728,59.1845091 10.8824333,54.3424086 L10.754,54.013 L7.5,49.0230592 L7.5,18.2835017 C7.5,12.9718039 11.7329991,8.64877603 17.0096567,8.50375862 L17.2835017,8.5 L28.9090909,8.5 Z" id="路径" fill="#60759C" fill-rule="nonzero" transform="translate(34.581818, 35.581818) scale(1, -1) translate(-34.581818, -35.581818) "></path>
        <path d="M56.6363636,21 C57.941764,21 59,22.058236 59,23.3636364 C59,24.6690367 57.941764,25.7272727 56.6363636,25.7272727 L13.3636364,25.7272727 C12.058236,25.7272727 11,24.6690367 11,23.3636364 C11,22.058236 12.058236,21 13.3636364,21 L56.6363636,21 Z" id="矩形备份" fill="#60759C" fill-rule="nonzero" transform="translate(35.000000, 23.363636) scale(1, -1) translate(-35.000000, -23.363636) "></path>
        <path d="M53.7842305,50.184367 C54.9195631,50.1948861 55.8373884,51.1126118 55.8480308,52.2479432 L55.9133184,59.2128563 C55.923708,60.3212222 55.0336223,61.2281528 53.9252564,61.2385424 C53.9127879,61.2386593 53.9003186,61.2386599 53.8878501,61.2385444 C52.7525176,61.2280253 51.8346922,60.3102995 51.8240499,59.1749681 L51.7587622,52.2100551 C51.7483726,51.1016892 52.6384583,50.1947586 53.7468243,50.184369 C53.7592927,50.1842521 53.771762,50.1842514 53.7842305,50.184367 Z" id="矩形" fill="#60759C" transform="translate(53.836040, 55.711456) rotate(-46.000000) translate(-53.836040, -55.711456) "></path>
        <path d="M43.7549802,35.8519773 C38.0039086,35.8519773 33.3241461,40.4300058 33.3241461,46.0995324 C33.3241461,51.769059 38.0039086,56.3470875 43.7549802,56.3470875 C49.5060519,56.3470875 54.1858144,51.769059 54.1858144,46.0995324 C54.1858144,40.4300058 49.5060519,35.8519773 43.7549802,35.8519773 Z M43.7549802,39.8519773 C47.3163509,39.8519773 50.1858144,42.6590611 50.1858144,46.0995324 C50.1858144,49.5400037 47.3163509,52.3470875 43.7549802,52.3470875 C40.1936096,52.3470875 37.3241461,49.5400037 37.3241461,46.0995324 C37.3241461,42.6590611 40.1936096,39.8519773 43.7549802,39.8519773 Z" id="椭圆形" fill="#60759C" fill-rule="nonzero" transform="translate(43.754980, 46.099532) rotate(-17.000000) translate(-43.754980, -46.099532) "></path>
    </g>
</svg>