<?xml version="1.0" encoding="UTF-8"?>
<svg width="72px" height="72px" viewBox="0 0 72 72" version="1.1" xmlns="http://www.w3.org/2000/svg" xmlns:xlink="http://www.w3.org/1999/xlink">
    <title>入库业务</title>
    <g id="入库业务" stroke="none" stroke-width="1" fill="none" fill-rule="evenodd">
        <path d="M34.1574276,9.03598279 C35.5271897,9.03598279 36.8969161,9.38134074 38.1255719,10.0698374 L38.1255719,10.0698374 L38.2697299,10.1525345 L38.4093625,10.2363257 L56.2616166,21.1099631 C58.6059451,22.5269307 60.0924827,25.0571718 60.1847537,27.787924 L60.1847537,27.787924 L60.1893116,30.3910553 C60.1893116,31.088519 59.9049685,31.7231585 59.4450758,32.1830513 C58.985183,32.6429441 58.3505435,32.9272871 57.6530797,32.9272871 C56.9556159,32.9272871 56.3209765,32.6429441 55.8610837,32.1830513 C55.4428213,31.7647889 55.1696505,31.2020183 55.1237358,30.5788085 L55.1237358,30.5788085 L55.1168478,27.8548234 C55.1168478,27.0176523 54.7248585,26.2604623 54.042978,25.7732361 L54.042978,25.7732361 L35.5096649,14.4729627 C35.0889688,14.2175401 34.6234966,14.0881567 34.1574276,14.0881567 C33.7588261,14.0881567 33.3607543,14.1827508 32.9900074,14.3703039 L32.9900074,14.3703039 L14.3408896,25.6733009 C13.6425755,26.0906885 13.1815182,26.8482552 13.1231556,27.6757422 L13.1231556,27.6757422 L13.1168478,55.1243886 C13.1168478,55.8434988 13.3989816,56.4891969 13.8639163,56.9541317 C14.2836188,57.3738341 14.8504713,57.6442598 15.4855971,57.693215 L15.4855971,57.693215 L49.496558,57.7012002 C50.2118011,57.7012002 50.7885005,58.0215868 51.1900197,58.4939205 C51.6837895,59.0747748 51.9308136,59.8702535 51.8778016,60.628762 C51.835795,61.2298036 51.5979983,61.8166627 51.0946055,62.2217858 C50.6496893,62.5798477 50.0225153,62.784686 49.2176231,62.8121091 L49.2176231,62.8121091 L16.2211957,62.8148419 C13.9599939,62.8148419 11.9160082,61.9002947 10.4371706,60.4214571 C9.02307752,59.007364 8.12539461,57.0765124 8.04960149,54.9330876 L8.04960149,54.9330876 L8.04438408,28.0983016 C8.04438408,25.311399 9.45886499,22.7397969 11.7464921,21.2514854 L11.7464921,21.2514854 L29.9104706,10.2332795 C31.2122437,9.43516195 32.6848137,9.03598279 34.1574276,9.03598279 Z" id="路径" fill="#60759C" fill-rule="nonzero"></path>
        <path d="M34.5565218,39.0434783 C35.1125117,39.0434783 35.6705847,39.2266351 36.1374524,39.5997611 L36.1374524,39.5997611 L42.0398221,45.4790184 C42.5456863,45.9848826 42.7942029,46.6341385 42.7942029,47.2811594 C42.7942029,47.9281803 42.5456863,48.5774362 42.0398221,49.0833004 C41.533958,49.5891645 40.8847021,49.8376812 40.2376812,49.8376812 C39.6816912,49.8376812 39.1236182,49.6545243 38.6567505,49.2813983 L38.6567505,49.2813983 L32.7543808,43.402141 C32.2485166,42.8962768 32,42.2470209 32,41.6 C32,40.9529791 32.2485166,40.3037232 32.7543808,39.797859 C33.2602449,39.2919949 33.9095008,39.0434783 34.5565218,39.0434783 Z" id="路径" fill="#60759C" fill-rule="nonzero" transform="translate(37.397101, 44.440580) scale(-1, 1) translate(-37.397101, -44.440580) "></path>
        <path d="M60.2202898,44.7246377 C60.9177536,44.7246377 61.5523931,45.0089807 62.0122859,45.4688735 C62.4721787,45.9287663 62.7565217,46.5634058 62.7565217,47.2608696 C62.7565217,47.9583334 62.4721787,48.5929729 62.0122859,49.0528656 C61.615288,49.4498636 61.0881385,49.7162617 60.5025958,49.7814927 L60.5025958,49.7814927 L34.4927536,49.7971015 C33.7635869,49.7971015 33.1353706,49.5179134 32.6855402,49.068083 C32.2357098,48.6182526 31.9565217,47.9900362 31.9565217,47.2608696 C31.9565217,46.5634058 32.2408648,45.9287663 32.7007575,45.4688735 C33.0977555,45.0718756 33.6249049,44.8054774 34.2104476,44.7402465 L34.2104476,44.7402465 L60.2202898,44.7246377 Z" id="路径" fill="#60759C" fill-rule="nonzero"></path>
    </g>
</svg>