<?xml version="1.0" encoding="UTF-8"?>
<svg width="72px" height="72px" viewBox="0 0 72 72" version="1.1" xmlns="http://www.w3.org/2000/svg" xmlns:xlink="http://www.w3.org/1999/xlink">
    <title>存货基础设置</title>
    <g id="存货基础设置" stroke="none" stroke-width="1" fill="none" fill-rule="evenodd">
        <path d="M28.9090909,8.5 C30.2898028,8.5 31.4090909,9.61928813 31.4090909,11 C31.4090909,12.3254834 30.377555,13.4100387 29.0734666,13.4946823 L28.9090909,13.5 L17.2835017,13.5 C14.7130481,13.5 12.6161301,15.5274464 12.5046608,18.0704258 L12.5,18.2835017 L12.5,47.537 L15.2524463,51.7573874 L15.3510399,52.030069 C16.5398544,55.317992 18.7559879,57.5305306 21.0726453,57.6578357 L21.2835017,57.6636364 L49.8801347,57.6636364 C52.0074498,57.6636364 53.4457854,56.0856899 54.676861,52.4380228 L54.8402462,51.939851 L56.663,48.225 L56.6636364,36.8806632 C56.6636364,35.5551798 57.6951723,34.4706246 58.9992607,34.3859809 L59.1636364,34.3806632 C60.4891198,34.3806632 61.573675,35.4121992 61.6583187,36.7162875 L61.6636364,36.8806632 L61.6636364,49.3859555 L59.485,53.822 L59.4302683,53.9891328 C57.6173474,59.3771397 54.8284396,62.5331065 50.1735058,62.6596774 L49.8801347,62.6636364 L21.2835017,62.6636364 C16.6008362,62.6636364 12.8269728,59.1845091 10.8824333,54.3424086 L10.754,54.013 L7.5,49.0230592 L7.5,18.2835017 C7.5,12.9718039 11.7329991,8.64877603 17.0096567,8.50375862 L17.2835017,8.5 L28.9090909,8.5 Z" id="路径" fill="#60759C" fill-rule="nonzero" transform="translate(34.581818, 35.581818) scale(1, -1) translate(-34.581818, -35.581818) "></path>
        <path d="M56.6363636,21 C57.941764,21 59,22.058236 59,23.3636364 C59,24.6690367 57.941764,25.7272727 56.6363636,25.7272727 L13.3636364,25.7272727 C12.058236,25.7272727 11,24.6690367 11,23.3636364 C11,22.058236 12.058236,21 13.3636364,21 L56.6363636,21 Z" id="矩形备份" fill="#60759C" fill-rule="nonzero" transform="translate(35.000000, 23.363636) scale(1, -1) translate(-35.000000, -23.363636) "></path>
        <path d="M55.8309091,55.0995558 C56.6306061,53.7358242 58.0015152,53.0539584 59.3724242,53.1676027 C59.6009091,52.3720927 59.7151515,51.4629383 59.7151515,50.5537839 C59.7151515,49.7582738 59.6009091,48.9627638 59.4866666,48.280898 C58.1157576,48.5081866 56.630606,47.7126765 55.8309091,46.348945 C55.0312121,44.9852134 55.1454545,43.280549 56.0593939,42.2577503 C54.8027273,41.1213073 53.4318182,40.3257973 51.8324242,39.7575758 C51.3754545,41.1213073 50.0045455,42.0304617 48.2909091,42.0304617 C46.5772727,42.0304617 45.3206061,41.1213073 44.7493939,39.7575758 C43.15,40.3257972 41.7790909,41.2349516 40.5224243,42.3713946 C41.4363636,43.5078375 41.5506061,45.0988577 40.7509091,46.4625892 C39.9512121,47.8263208 38.4660606,48.5081866 37.0951515,48.280898 C36.9809091,49.0764081 36.8666667,49.8719181 36.8666667,50.6674282 C36.8666667,51.5765826 36.9809091,52.3720927 37.2093939,53.1676027 C38.580303,53.0539584 39.9512121,53.7358242 40.7509091,55.0995558 C41.4363636,56.4632873 41.4363636,57.9406632 40.6366667,59.0771061 C41.8933333,60.2135491 43.2642424,61.0090592 44.8636364,61.4636364 C45.4348485,60.2135491 46.6915152,59.418039 48.2909091,59.418039 C49.890303,59.418039 51.1469697,60.2135491 51.7181818,61.4636364 C53.3175757,61.0090592 54.6884848,60.0999048 55.9451515,59.0771061 C55.1454545,57.9406632 55.0312121,56.4632873 55.8309091,55.0995558 Z M48.2909091,55.554133 C45.5490909,55.554133 43.3784848,53.3948913 43.3784848,50.6674282 C43.3784848,47.9399651 45.5490909,45.7807235 48.2909091,45.7807235 C51.0327273,45.7807235 53.2033333,47.9399651 53.2033333,50.6674282 C53.2033333,53.3948913 51.0327273,55.554133 48.2909091,55.554133 Z" id="形状" fill="#60759C" fill-rule="nonzero"></path>
    </g>
</svg>