<?xml version="1.0" encoding="UTF-8"?>
<svg width="72px" height="72px" viewBox="0 0 72 72" version="1.1" xmlns="http://www.w3.org/2000/svg" xmlns:xlink="http://www.w3.org/1999/xlink">
    <title>调整业务</title>
    <g id="调整业务" stroke="none" stroke-width="1" fill="none" fill-rule="evenodd">
        <path d="M48.5,26.7407407 C49.7784369,26.7407407 50.8148148,27.7771186 50.8148148,29.0555556 C50.8148148,30.3339925 49.7784369,31.3703704 48.5,31.3703704 L23.5,31.3703704 C22.2215631,31.3703704 21.1851852,30.3339925 21.1851852,29.0555556 C21.1851852,27.7771186 22.2215631,26.7407407 23.5,26.7407407 L48.5,26.7407407 Z" id="矩形" fill="#60759C" fill-rule="nonzero"></path>
        <circle id="椭圆形" fill="#60759C" cx="44.0037037" cy="29.1888889" r="4.3"></circle>
        <path d="M48.5,41.5555556 C49.7784369,41.5555556 50.8148148,42.5919334 50.8148148,43.8703704 C50.8148148,45.1488073 49.7784369,46.1851852 48.5,46.1851852 L23.5,46.1851852 C22.2215631,46.1851852 21.1851852,45.1488073 21.1851852,43.8703704 C21.1851852,42.5919334 22.2215631,41.5555556 23.5,41.5555556 L48.5,41.5555556 Z" id="矩形备份" fill="#60759C" fill-rule="nonzero"></path>
        <circle id="椭圆形备份" fill="#60759C" cx="29.1888889" cy="44.0037037" r="4.3"></circle>
        <path d="M53,8.5 L19,8.5 C13.2010101,8.5 8.5,13.2010101 8.5,19 L8.5,53 C8.5,58.7989899 13.2010101,63.5 19,63.5 L53,63.5 C58.7989899,63.5 63.5,58.7989899 63.5,53 L63.5,19 C63.5,13.2010101 58.7989899,8.5 53,8.5 Z M19,13.5 L53,13.5 C56.0375661,13.5 58.5,15.9624339 58.5,19 L58.5,53 C58.5,56.0375661 56.0375661,58.5 53,58.5 L19,58.5 C15.9624339,58.5 13.5,56.0375661 13.5,53 L13.5,19 C13.5,15.9624339 15.9624339,13.5 19,13.5 Z" id="Rectangle-5" fill="#60759C" fill-rule="nonzero"></path>
    </g>
</svg>