<?xml version="1.0" encoding="UTF-8"?>
<svg width="72px" height="72px" viewBox="0 0 72 72" version="1.1" xmlns="http://www.w3.org/2000/svg" xmlns:xlink="http://www.w3.org/1999/xlink">
    <title>月末处理</title>
    <g id="月末处理" stroke="none" stroke-width="1" fill="none" fill-rule="evenodd">
        <path d="M30,12.5 C31.3807119,12.5 32.5,13.6192881 32.5,15 C32.5,16.3254834 31.4684641,17.4100387 30.1643757,17.4946823 L30,17.5 L17.7037037,17.5 C14.9034679,17.5 12.6198335,19.7118335 12.5045651,22.4837358 L12.5,22.7037037 L12.5,54.2962963 C12.5,57.0965321 14.7118335,59.3801665 17.4837358,59.4954349 L17.7037037,59.5 L54.2962963,59.5 C57.0965321,59.5 59.3801665,57.2881665 59.4954349,54.5162642 L59.5,54.2962963 L59.5,46.6045476 C59.5,45.2238358 60.6192881,44.1045476 62,44.1045476 C63.3254834,44.1045476 64.4100387,45.1360836 64.4946823,46.440172 L64.5,46.6045476 L64.5,54.2962963 C64.5,59.8377237 60.0826557,64.3474252 54.5771584,64.4962092 L54.2962963,64.5 L17.7037037,64.5 C12.1622763,64.5 7.65257485,60.0826557 7.50379075,54.5771584 L7.5,54.2962963 L7.5,22.7037037 C7.5,17.1622763 11.9173443,12.6525748 17.4228416,12.5037908 L17.7037037,12.5 L30,12.5 Z" id="路径" fill="#60759C" fill-rule="nonzero" transform="translate(36.000000, 38.500000) scale(1, -1) translate(-36.000000, -38.500000) "></path>
        <path d="M33.5,40.0933449 C34.8807119,40.0933449 36,41.212633 36,42.5933449 C36,43.9740567 34.8807119,45.0933449 33.5,45.0933449 L22.5,45.0933449 C21.1192881,45.0933449 20,43.9740567 20,42.5933449 C20,41.212633 21.1192881,40.0933449 22.5,40.0933449 L33.5,40.0933449 Z" id="矩形" fill="#60759C" fill-rule="nonzero" transform="translate(28.000000, 42.593345) scale(1, -1) translate(-28.000000, -42.593345) "></path>
        <path d="M29.5,12 C30.8807119,12 32,13.1192881 32,14.5 C32,15.8807119 30.8807119,17 29.5,17 L20.5,17 C19.1192881,17 18,15.8807119 18,14.5 C18,13.1192881 19.1192881,12 20.5,12 L29.5,12 Z" id="矩形备份-2" fill="#60759C" fill-rule="nonzero" transform="translate(25.000000, 14.500000) scale(1, -1) rotate(90.000000) translate(-25.000000, -14.500000) "></path>
        <path d="M51.5,12 C52.8807119,12 54,13.1192881 54,14.5 C54,15.8807119 52.8807119,17 51.5,17 L42.5,17 C41.1192881,17 40,15.8807119 40,14.5 C40,13.1192881 41.1192881,12 42.5,12 L51.5,12 Z" id="矩形备份-3" fill="#60759C" fill-rule="nonzero" transform="translate(47.000000, 14.500000) scale(1, -1) rotate(90.000000) translate(-47.000000, -14.500000) "></path>
        <path d="M59.5,25.0933449 C60.8807119,25.0933449 62,26.212633 62,27.5933449 C62,28.9740567 60.8807119,30.0933449 59.5,30.0933449 L12.5,30.0933449 C11.1192881,30.0933449 10,28.9740567 10,27.5933449 C10,26.212633 11.1192881,25.0933449 12.5,25.0933449 L59.5,25.0933449 Z" id="矩形备份" fill="#60759C" fill-rule="nonzero" transform="translate(36.000000, 27.593345) scale(1, -1) translate(-36.000000, -27.593345) "></path>
        <path d="M48.6042927,54.4543628 L46.9730732,54.7977774 L44.0515958,59.2351851 L45.1529756,60.3390179 L49.5952892,57.4126346 L49.9362509,55.786321 L52.6835679,53.0169273 L51.3516098,51.6825161 L48.6042927,54.4543628 Z M54.9010453,53.8411224 L63.1307317,45.6384186 C64.2762648,44.4977914 64.2762648,42.6482583 63.1331847,41.5076311 C61.9901045,40.364551 60.1405714,40.364551 58.9999443,41.5076311 L50.7702578,49.707882 L54.9010453,53.8411224 Z M61.5902718,43.8305858 C61.8036794,43.6171781 62.1421881,43.6171781 62.3531429,43.8305858 C62.5640976,44.0390875 62.5640976,44.3825022 62.3506899,44.588551 L55.946007,50.9981398 C55.7350523,51.2115475 55.3916376,51.2115475 55.1831359,50.9981398 C54.9697282,50.7871851 54.9697282,50.4437705 55.1831359,50.2328158 L61.5902718,43.8305858 Z M60.0277352,42.2631433 C60.2386899,42.0521886 60.5821045,42.0521886 60.7906063,42.2631433 C61.0040139,42.476551 61.0040139,42.8150597 60.7906063,43.0284673 L54.3834704,49.4331503 C54.1700627,49.6490109 53.8291011,49.6490109 53.6205993,49.4331503 C53.4096446,49.2221955 53.4096446,48.8787809 53.6205993,48.6727321 L60.0277352,42.2631433 Z M58.4578397,51.6800631 L54.660655,55.4772478 C56.4169756,57.3807461 57.864223,58.9629064 58.5952056,59.691436 C59.7260209,60.8247043 61.5559303,60.8320631 62.6744808,59.7110597 C63.7954843,58.5900562 63.7856725,56.7625997 62.6548571,55.6293314 L58.4578397,51.6800631 Z M61.4749826,58.5115614 C61.0211847,58.9629064 60.2877491,58.9629064 59.8339512,58.5115614 C59.3826063,58.0602165 59.3801533,57.324328 59.8339512,56.87053 C60.2852962,56.4191851 61.0211847,56.4191851 61.4749826,56.87053 C61.9287805,57.3267809 61.9287805,58.0602165 61.4749826,58.5115614 Z M52.7228153,44.3702374 C52.7228153,41.4095126 50.3262718,39.0105161 47.368,39.0105161 C46.6419233,39.0105161 45.9477352,39.1552409 45.317324,39.4177078 L48.1872892,42.2876729 C48.7048641,42.8052478 48.7048641,43.6539726 48.1872892,44.1740004 L47.0981742,45.2680214 C46.5805993,45.7855963 45.7318746,45.7855963 45.2118467,45.2680214 L42.378676,42.4348506 C42.1456446,43.0358262 42.0107317,43.6858611 42.0107317,44.3702374 C42.0107317,47.3260562 44.4097282,49.7250527 47.368,49.7250527 C50.3262718,49.7250527 52.7228153,47.3260562 52.7228153,44.3702374 Z" id="形状" fill="#60759C" fill-rule="nonzero"></path>
    </g>
</svg>