<?xml version="1.0" encoding="UTF-8"?>
<svg width="72px" height="72px" viewBox="0 0 72 72" version="1.1" xmlns="http://www.w3.org/2000/svg" xmlns:xlink="http://www.w3.org/1999/xlink">
    <title>期初处理</title>
    <g id="期初处理" stroke="none" stroke-width="1" fill="none" fill-rule="evenodd">
        <path d="M29,12.5 C30.3807119,12.5 31.5,13.6192881 31.5,15 C31.5,16.3254834 30.4684641,17.4100387 29.1643757,17.4946823 L29,17.5 L16.7037037,17.5 C13.9034679,17.5 11.6198335,19.7118335 11.5045651,22.4837358 L11.5,22.7037037 L11.5,54.2962963 C11.5,57.0965321 13.7118335,59.3801665 16.4837358,59.4954349 L16.7037037,59.5 L53.2962963,59.5 C56.0965321,59.5 58.3801665,57.2881665 58.4954349,54.5162642 L58.5,54.2962963 L58.5,46.6045476 C58.5,45.2238358 59.6192881,44.1045476 61,44.1045476 C62.3254834,44.1045476 63.4100387,45.1360836 63.4946823,46.440172 L63.5,46.6045476 L63.5,54.2962963 C63.5,59.8377237 59.0826557,64.3474252 53.5771584,64.4962092 L53.2962963,64.5 L16.7037037,64.5 C11.1622763,64.5 6.65257485,60.0826557 6.50379075,54.5771584 L6.5,54.2962963 L6.5,22.7037037 C6.5,17.1622763 10.9173443,12.6525748 16.4228416,12.5037908 L16.7037037,12.5 L29,12.5 Z" id="路径" fill="#60759C" fill-rule="nonzero" transform="translate(35.000000, 38.500000) scale(1, -1) translate(-35.000000, -38.500000) "></path>
        <path d="M32.5,40.0933449 C33.8807119,40.0933449 35,41.212633 35,42.5933449 C35,43.9740567 33.8807119,45.0933449 32.5,45.0933449 L21.5,45.0933449 C20.1192881,45.0933449 19,43.9740567 19,42.5933449 C19,41.212633 20.1192881,40.0933449 21.5,40.0933449 L32.5,40.0933449 Z" id="矩形" fill="#60759C" fill-rule="nonzero" transform="translate(27.000000, 42.593345) scale(1, -1) translate(-27.000000, -42.593345) "></path>
        <path d="M28.5,12 C29.8807119,12 31,13.1192881 31,14.5 C31,15.8807119 29.8807119,17 28.5,17 L19.5,17 C18.1192881,17 17,15.8807119 17,14.5 C17,13.1192881 18.1192881,12 19.5,12 L28.5,12 Z" id="矩形备份-2" fill="#60759C" fill-rule="nonzero" transform="translate(24.000000, 14.500000) scale(1, -1) rotate(90.000000) translate(-24.000000, -14.500000) "></path>
        <path d="M50.5,12 C51.8807119,12 53,13.1192881 53,14.5 C53,15.8807119 51.8807119,17 50.5,17 L41.5,17 C40.1192881,17 39,15.8807119 39,14.5 C39,13.1192881 40.1192881,12 41.5,12 L50.5,12 Z" id="矩形备份-3" fill="#60759C" fill-rule="nonzero" transform="translate(46.000000, 14.500000) scale(1, -1) rotate(90.000000) translate(-46.000000, -14.500000) "></path>
        <path d="M58.5,25.0933449 C59.8807119,25.0933449 61,26.212633 61,27.5933449 C61,28.9740567 59.8807119,30.0933449 58.5,30.0933449 L11.5,30.0933449 C10.1192881,30.0933449 9,28.9740567 9,27.5933449 C9,26.212633 10.1192881,25.0933449 11.5,25.0933449 L58.5,25.0933449 Z" id="矩形备份" fill="#60759C" fill-rule="nonzero" transform="translate(35.000000, 27.593345) scale(1, -1) translate(-35.000000, -27.593345) "></path>
        <path d="M52,38 C44.2680135,38 38,44.2680135 38,52 C38,59.7319865 44.2680135,66 52,66 C59.7319865,66 66,59.7319865 66,52 C66,44.2680135 59.7319865,38 52,38 Z M52,42 C57.5228475,42 62,46.4771525 62,52 C62,57.5228475 57.5228475,62 52,62 C46.4771525,62 42,57.5228475 42,52 C42,46.4771525 46.4771525,42 52,42 Z" id="椭圆形" fill="#60759C" fill-rule="nonzero"></path>
        <path d="M56.7058167,53.7833257 C56.8488169,53.9544053 56.9307664,54.1587658 56.9489167,54.3964059 C56.9307667,54.6434061 56.8488166,54.8498461 56.7058167,55.0152066 C56.562266,55.1816068 56.3670158,55.2736466 56.117316,55.2934069 L53.3629085,55.2793669 L53.3629085,56.7894507 C53.3255085,57.5964914 52.8800077,58.0000123 52.0286064,58.0000123 C51.6078559,58.0000123 51.2806056,57.9012122 51.0463047,57.701012 C50.8109042,57.5018515 50.6844041,57.1981717 50.6662538,56.7894507 L50.6662538,55.3074489 L47.8964446,55.3074489 C47.6390441,55.2887289 47.4399441,55.1816088 47.3018934,54.9871281 L47.3018934,54.987128 C47.1634224,54.7937465 47.0769544,54.5713408 47.0499928,54.3392068 C47.0791428,54.102086 47.1627429,53.9076063 47.3018934,53.7552458 C47.4393935,53.6034059 47.639044,53.5176058 47.8964446,53.498366 L50.6662537,53.498366 L50.6662537,52.0808439 L47.8964446,52.0668039 C47.639044,52.0475638 47.4399441,51.9576037 47.3018934,51.7964036 C47.1627429,51.6341636 47.0791431,51.4298031 47.0499928,51.1828028 C47.0791428,50.9456821 47.1627429,50.7512023 47.3018934,50.5988419 C47.4393935,50.447002 47.639044,50.3617211 47.8964446,50.3424814 L49.9628008,50.3424814 L48.0400007,46.981203 L48.0400007,46.981203 C47.9313987,46.8468814 47.8398399,46.7009778 47.7671998,46.546482 L47.7671998,46.5464819 C47.6803889,46.3656205 47.6411394,46.1675886 47.6527997,45.9692813 C47.7000997,45.7030412 47.7963504,45.487241 47.9388,45.3208408 C48.0828999,45.1549611 48.3513005,45.0478405 48.7429007,45.0005199 C48.9722507,45.0192399 49.1785009,45.09828 49.3600011,45.2360804 C49.5415013,45.3733601 49.6900015,45.5231205 49.8055016,45.6843207 L51.9856983,49.6451612 L54.3815043,45.6562386 C54.4959044,45.4950384 54.644954,45.3520383 54.8270048,45.2287984 C55.008505,45.1039984 55.2136555,45.0285982 55.4430055,44.9999981 C55.5871054,45.0093581 55.7180058,45.0285982 55.8379062,45.0566782 C55.9561564,45.0857982 56.0623068,45.1331183 56.1536061,45.2001989 C56.2438062,45.2662389 56.3208057,45.361399 56.3829561,45.4846389 C56.4451061,45.6078791 56.4896562,45.7695995 56.518806,45.9692792 C56.518806,46.2448796 56.4236558,46.5059196 56.2322551,46.7529199 L54.0086063,50.3430061 L56.1178641,50.3430061 C56.3664641,50.3617261 56.5628141,50.4475262 56.705265,50.5993667 C56.8482652,50.7517271 56.9302148,50.9462068 56.9494648,51.1833276 C56.9302148,51.4308484 56.8466147,51.6398884 56.6986639,51.8104488 C56.5501638,51.9810093 56.3521635,52.0756491 56.103013,52.0954094 L53.3623555,52.1094494 L53.3623555,53.498369 L56.116763,53.498369 C56.3664628,53.517609 56.561713,53.6127692 56.7052637,53.7833296 L56.7058167,53.7833257 Z" id="路径" fill="#60759C" fill-rule="nonzero"></path>
    </g>
</svg>