<?xml version="1.0" encoding="UTF-8"?>
<svg width="72px" height="72px" viewBox="0 0 72 72" version="1.1" xmlns="http://www.w3.org/2000/svg" xmlns:xlink="http://www.w3.org/1999/xlink">
    <title>自出分析结果</title>
    <g id="自出分析结果" stroke="none" stroke-width="1" fill="none" fill-rule="evenodd">
        <path d="M30,12.5 C31.3807119,12.5 32.5,13.6192881 32.5,15 C32.5,16.3254834 31.4684641,17.4100387 30.1643757,17.4946823 L30,17.5 L17.7037037,17.5 C14.9034679,17.5 12.6198335,19.7118335 12.5045651,22.4837358 L12.5,22.7037037 L12.5,54.2962963 C12.5,57.0965321 14.7118335,59.3801665 17.4837358,59.4954349 L17.7037037,59.5 L54.2962963,59.5 C57.0965321,59.5 59.3801665,57.2881665 59.4954349,54.5162642 L59.5,54.2962963 L59.5,46.6045476 C59.5,45.2238358 60.6192881,44.1045476 62,44.1045476 C63.3254834,44.1045476 64.4100387,45.1360836 64.4946823,46.440172 L64.5,46.6045476 L64.5,54.2962963 C64.5,59.8377237 60.0826557,64.3474252 54.5771584,64.4962092 L54.2962963,64.5 L17.7037037,64.5 C12.1622763,64.5 7.65257485,60.0826557 7.50379075,54.5771584 L7.5,54.2962963 L7.5,22.7037037 C7.5,17.1622763 11.9173443,12.6525748 17.4228416,12.5037908 L17.7037037,12.5 L30,12.5 Z" id="路径" fill="#60759C" fill-rule="nonzero" transform="translate(36.000000, 38.500000) scale(1, -1) translate(-36.000000, -38.500000) "></path>
        <path d="M29.5,12 C30.8807119,12 32,13.1192881 32,14.5 C32,15.8807119 30.8807119,17 29.5,17 L20.5,17 C19.1192881,17 18,15.8807119 18,14.5 C18,13.1192881 19.1192881,12 20.5,12 L29.5,12 Z" id="矩形备份-2" fill="#60759C" fill-rule="nonzero" transform="translate(25.000000, 14.500000) scale(1, -1) rotate(90.000000) translate(-25.000000, -14.500000) "></path>
        <path d="M51.5,12 C52.8807119,12 54,13.1192881 54,14.5 C54,15.8807119 52.8807119,17 51.5,17 L42.5,17 C41.1192881,17 40,15.8807119 40,14.5 C40,13.1192881 41.1192881,12 42.5,12 L51.5,12 Z" id="矩形备份-3" fill="#60759C" fill-rule="nonzero" transform="translate(47.000000, 14.500000) scale(1, -1) rotate(90.000000) translate(-47.000000, -14.500000) "></path>
        <path d="M59.5,25.0933449 C60.8807119,25.0933449 62,26.212633 62,27.5933449 C62,28.9740567 60.8807119,30.0933449 59.5,30.0933449 L12.5,30.0933449 C11.1192881,30.0933449 10,28.9740567 10,27.5933449 C10,26.212633 11.1192881,25.0933449 12.5,25.0933449 L59.5,25.0933449 Z" id="矩形备份" fill="#60759C" fill-rule="nonzero" transform="translate(36.000000, 27.593345) scale(1, -1) translate(-36.000000, -27.593345) "></path>
        <path d="M22.3157583,37.8775081 C24.1742454,35.4748359 27.6285975,35.0336867 30.0312697,36.8921738 C30.4725402,37.2335001 30.8588796,37.6396383 31.177394,38.0963352 L31.3309394,38.3288309 L34.0448005,42.6735543 C34.174039,42.8804571 34.4300476,42.9603881 34.6497049,42.8749095 L34.7300537,42.8350264 L45.6940786,36.1185627 C46.871439,35.3973222 48.4105591,35.7670805 49.1317996,36.9444409 C49.8229883,38.0727446 49.5122008,39.5332894 48.4488647,40.2878323 L48.3059214,40.3821618 L37.3418965,47.0986255 C34.835385,48.634092 31.5799541,47.9229367 29.9339939,45.5208874 L29.8041112,45.3224322 L27.0902501,40.9777089 C27.0589042,40.9275259 27.0188998,40.883305 26.9720984,40.8471037 C26.777943,40.6969229 26.5082462,40.7119236 26.3320491,40.8705179 L26.2706882,40.9366795 L21.9774649,46.4870051 C21.1326981,47.5791288 19.562538,47.7796512 18.4704143,46.9348843 C17.4257742,46.1268465 17.1968904,44.6551218 17.9182634,43.5728967 L18.0225351,43.4278337 L22.3157583,37.8775081 Z" id="路径-12" fill="#60759C" fill-rule="nonzero" transform="translate(33.500118, 41.825871) scale(-1, -1) translate(-33.500118, -41.825871) "></path>
        <path d="M60.5455319,44.2885715 C61.4907278,43.2821074 63.0728608,43.2324396 64.079325,44.1776355 C65.0420298,45.0817359 65.1293292,46.5685916 64.3079086,47.5769856 L64.190261,47.7114285 L50.7628011,62.0092658 C49.5204255,63.3321731 47.4837365,63.4793092 46.0673789,62.3797478 L45.9126305,62.2524403 L38.357957,55.6719208 C37.3168314,54.7650454 37.2080001,53.1858787 38.1148754,52.1447531 C38.9823214,51.1488939 40.4648695,51.0060222 41.5032923,51.7891368 L41.642043,51.9016716 L48.107,57.533 L60.5455319,44.2885715 Z" id="路径-2" fill="#60759C" fill-rule="nonzero"></path>
    </g>
</svg>