<?xml version="1.0" encoding="UTF-8"?>
<svg width="72px" height="72px" viewBox="0 0 72 72" version="1.1" xmlns="http://www.w3.org/2000/svg" xmlns:xlink="http://www.w3.org/1999/xlink">
    <title>自助分析</title>
    <g id="自助分析" stroke="none" stroke-width="1" fill="none" fill-rule="evenodd">
        <path d="M56,9.5 L16,9.5 C11.8578644,9.5 8.5,12.8578644 8.5,17 L8.5,45 C8.5,49.1421356 11.8578644,52.5 16,52.5 L56,52.5 C60.1421356,52.5 63.5,49.1421356 63.5,45 L63.5,17 C63.5,12.8578644 60.1421356,9.5 56,9.5 Z M16,14.5 L56,14.5 C57.3807119,14.5 58.5,15.6192881 58.5,17 L58.5,45 C58.5,46.3807119 57.3807119,47.5 56,47.5 L16,47.5 C14.6192881,47.5 13.5,46.3807119 13.5,45 L13.5,17 C13.5,15.6192881 14.6192881,14.5 16,14.5 Z" id="Rectangle-5" fill="#60759C" fill-rule="nonzero"></path>
        <rect id="Rectangle-5" fill="#60759C" transform="translate(36.000000, 53.500000) scale(1, -1) rotate(90.000000) translate(-36.000000, -53.500000) " x="30" y="51" width="12" height="5" rx="2.5"></rect>
        <path d="M35.9612513,54.0078131 C36.7397494,53.946239 37.5353936,54.2492799 38.0756137,54.8930892 C38.3071367,55.1690074 38.4688737,55.4802589 38.5627021,55.8053877 L44.7674717,61.0128232 C45.8251583,61.9003277 45.9631182,63.4772167 45.0756137,64.5349033 C44.1881093,65.59259 42.6112203,65.7305499 41.5535336,64.8430454 L35.83,60.04 L30.1070272,64.8430454 C29.0953269,65.6919627 27.6085909,65.602648 26.7045188,64.6676379 L26.5849471,64.5349033 C25.6974426,63.4772167 25.8354025,61.9003277 26.8930892,61.0128232 L26.8930892,61.0128232 L33.0975729,55.806379 C33.1913585,55.4808916 33.3531889,55.1692878 33.5849471,54.8930892 C34.1556185,54.2129895 35.0113213,53.9131579 35.8307452,54.0217055 Z" id="形状结合" fill="#60759C"></path>
        <path d="M52.5362736,22.9733019 C53.6555881,22.1649082 55.2183043,22.4169592 56.0266981,23.5362736 C56.8014088,24.60895 56.602204,26.0888478 55.5991097,26.9218067 L55.4637264,27.0266981 L44.8660477,34.6805771 C42.9194993,36.0864176 40.2959578,36.0622328 38.3800907,34.6473794 L38.1775902,34.4904683 L30.3666422,28.144073 C30.2410901,28.042062 30.0757897,28.0082936 29.9230738,28.0488454 L29.833373,28.0821435 L19.0898641,33.2862839 C17.8472607,33.8881992 16.3519828,33.3688189 15.7500675,32.1262155 C15.173232,30.9353872 15.6261975,29.5125021 16.7586061,28.8662284 L16.9101359,28.7864189 L27.6536449,23.5822785 C29.4985458,22.6886112 31.6799499,22.8976248 33.3177723,24.1071135 L33.5196053,24.263503 L41.3305534,30.6098983 C41.4809514,30.7320968 41.6855948,30.7547596 41.8564126,30.6753837 L41.938595,30.627181 L52.5362736,22.9733019 Z" id="路径-12" fill="#60759C" fill-rule="nonzero" transform="translate(35.999806, 29.110832) scale(-1, -1) translate(-35.999806, -29.110832) "></path>
    </g>
</svg>