<?xml version="1.0" encoding="UTF-8"?>
<svg width="72px" height="72px" viewBox="0 0 72 72" version="1.1" xmlns="http://www.w3.org/2000/svg" xmlns:xlink="http://www.w3.org/1999/xlink">
    <title>财务会计</title>
    <defs>
        <linearGradient x1="50%" y1="-5.81532713%" x2="50%" y2="94.1846729%" id="linearGradient-1">
            <stop stop-color="#0077FF" offset="0%"></stop>
            <stop stop-color="#5B92FF" offset="100%"></stop>
        </linearGradient>
    </defs>
    <g id="财务会计" stroke="none" stroke-width="1" fill="none" fill-rule="evenodd">
        <g id="编组" transform="translate(8.500000, 6.392000)" fill="url(#linearGradient-1)">
            <path d="M51,11.2508571 C53.209139,11.2508571 55,13.0417181 55,15.2508571 L55,50.2508571 C55,52.4599961 53.209139,54.2508571 51,54.2508571 L4,54.2508571 C1.790861,54.2508571 -1.73547709e-16,52.4599961 0,50.2508571 L0,15.2508571 C-7.1463071e-16,13.0417181 1.790861,11.2508571 4,11.2508571 L51,11.2508571 Z M35.3043478,21.608 C34.8173913,21.6650776 34.3811594,21.8172846 33.9956522,22.064621 C33.6101449,22.3119574 33.2956522,22.5973455 33.0521739,22.9207854 L33.0521739,22.9207854 L27.9695652,30.911653 L23.3434783,22.977863 C23.1,22.6544231 22.7855072,22.3547656 22.4,22.0788904 C22.0144928,21.8030152 21.5782609,21.6460518 21.0913043,21.608 C20.2594203,21.7031294 19.6913043,21.9171705 19.3869565,22.2501233 C19.0826087,22.5830761 18.8797101,23.0159148 18.7782609,23.5486393 C18.757971,23.9672085 18.8391304,24.3524825 19.0217391,24.7044612 C19.2043478,25.0564399 19.3971014,25.3465845 19.6,25.574895 L19.6,25.574895 L23.6782609,32.3100548 L19.2956522,32.3100548 C18.7478261,32.3481065 18.3268116,32.5193394 18.0326087,32.8237534 C17.7384058,33.1281674 17.5608696,33.5181979 17.5,33.9938447 C17.5608696,34.4885175 17.7384058,34.8975738 18.0326087,35.2210137 C18.3268116,35.5444536 18.7478261,35.7251994 19.2956522,35.7632511 L19.2956522,35.7632511 L25.1695652,35.79179 L25.1695652,37.5897352 L19.2956522,37.5897352 C18.7478261,37.6277869 18.3268116,37.7990198 18.0326087,38.1034338 C17.7384058,38.4078478 17.5608696,38.7978782 17.5,39.2735251 C17.5608696,39.749172 17.7384058,40.1820107 18.0326087,40.5720411 C18.3268116,40.9620715 18.7478261,41.1761126 19.2956522,41.2141644 L19.2956522,41.2141644 L25.1695652,41.2141644 L25.1695652,44.1822009 C25.2101449,45.0003135 25.4789855,45.6091416 25.976087,46.0086849 C26.4731884,46.4082283 27.1681159,46.608 28.0608696,46.608 C29.8666667,46.608 30.8101449,45.7994003 30.8913043,44.1822009 L30.8913043,44.1822009 L30.8913043,41.1570868 L36.7347826,41.1856256 C37.2623188,41.1475738 37.6782609,40.9620715 37.9826087,40.6291187 C38.2869565,40.2961659 38.4594203,39.8823531 38.5,39.3876804 C38.4594203,38.9120335 38.2869565,38.5029772 37.9826087,38.1605114 C37.6782609,37.8180457 37.2623188,37.6277869 36.7347826,37.5897352 L36.7347826,37.5897352 L30.8913043,37.5897352 L30.8913043,35.8488676 L36.7043478,35.8203288 C37.2318841,35.782277 37.6528986,35.5920183 37.9673913,35.2495525 C38.2818841,34.9070868 38.4594203,34.4885175 38.5,33.9938447 C38.4594203,33.5181979 38.2869565,33.1281674 37.9826087,32.8237534 C37.6782609,32.5193394 37.2623188,32.3481065 36.7347826,32.3100548 L36.7347826,32.3100548 L32.2608696,32.3100548 L36.9782609,25.118274 C37.384058,24.6236012 37.5869565,24.1003896 37.5869565,23.5486393 C37.526087,23.1490959 37.4297101,22.825656 37.2978261,22.5783196 C37.165942,22.3309833 37.0036232,22.1407245 36.8108696,22.0075434 C36.6181159,21.8743623 36.3949275,21.7792329 36.1413043,21.7221553 C35.8876812,21.6650776 35.6086957,21.6270259 35.3043478,21.608 Z M45.9737954,2.81696044 L49.5441176,9 L24,9 L38.2802857,0.755490703 C40.9740489,-0.799754212 44.4185505,0.123197225 45.9737954,2.81696044 Z" id="形状结合"></path>
        </g>
    </g>
</svg>