<?xml version="1.0" encoding="UTF-8"?>
<svg width="72px" height="72px" viewBox="0 0 72 72" version="1.1" xmlns="http://www.w3.org/2000/svg" xmlns:xlink="http://www.w3.org/1999/xlink">
    <!-- Generator: Sketch 63.1 (92452) - https://sketch.com -->
    <title>数据交换管理</title>
    <desc>Created with Sketch.</desc>
    <g id="数据交换管理" stroke="none" stroke-width="1" fill="none" fill-rule="evenodd">
        <g id="编组-2" transform="translate(10.000000, 10.000000)" stroke="#60759C" stroke-width="5">
            <rect id="Rectangle-5" x="0" y="0" width="22" height="22" rx="11"></rect>
            <rect id="Rectangle-5" x="30" y="30" width="22" height="22" rx="3"></rect>
        </g>
        <path d="M54,11.5 C56.4852814,11.5 58.5,13.5147186 58.5,16 L58.5,16 L58.5,26.425 L61.0394754,23.358308 C61.7086401,22.5500165 62.8799275,22.4024566 63.7248664,22.9936424 L63.855445,23.0931381 C64.7062782,23.797522 64.8249988,25.0582745 64.1206149,25.9091077 L64.1206149,25.9091077 L58.2618785,32.9859411 C58.1834876,33.0806304 58.0993508,33.170412 58.0099441,33.254778 C56.8048937,34.3918882 54.9061974,34.3368119 53.7690872,33.1317616 L53.7690872,33.1317616 L47.0453756,26.0063214 C46.2873021,25.2029545 46.3240196,23.9371569 47.1273865,23.1790834 C47.9307534,22.42101 49.1965509,22.4577275 49.9546244,23.2610944 L49.9546244,23.2610944 L53.5,27.018 L53.5,16.5 L41,16.5 C39.6192881,16.5 38.5,15.3807119 38.5,14 C38.5,12.6192881 39.6192881,11.5 41,11.5 L41,11.5 Z" id="形状结合" fill="#60759C" fill-rule="nonzero"></path>
        <path d="M22.5,38 C24.9852814,38 27,40.0147186 27,42.5 L27,42.5 L27,52.925 L29.5394754,49.858308 C30.2086401,49.0500165 31.3799275,48.9024566 32.2248664,49.4936424 L32.355445,49.5931381 C33.2062782,50.297522 33.3249988,51.5582745 32.6206149,52.4091077 L32.6206149,52.4091077 L26.7618785,59.4859411 C26.6834876,59.5806304 26.5993508,59.670412 26.5099441,59.754778 C25.3048937,60.8918882 23.4061974,60.8368119 22.2690872,59.6317616 L22.2690872,59.6317616 L15.5453756,52.5063214 C14.7873021,51.7029545 14.8240196,50.4371569 15.6273865,49.6790834 C16.4307534,48.92101 17.6965509,48.9577275 18.4546244,49.7610944 L18.4546244,49.7610944 L22,53.518 L22,43 L9.5,43 C8.11928813,43 7,41.8807119 7,40.5 C7,39.1192881 8.11928813,38 9.5,38 L9.5,38 Z" id="形状结合" fill="#60759C" fill-rule="nonzero" transform="translate(20.040049, 49.286425) scale(-1, -1) translate(-20.040049, -49.286425) "></path>
    </g>
</svg>