<?xml version="1.0" encoding="UTF-8"?>
<svg width="72px" height="72px" viewBox="0 0 72 72" version="1.1" xmlns="http://www.w3.org/2000/svg" xmlns:xlink="http://www.w3.org/1999/xlink">
    <!-- Generator: Sketch 63.1 (92452) - https://sketch.com -->
    <title>资金基础知识</title>
    <desc>Created with Sketch.</desc>
    <g id="资金基础知识" stroke="none" stroke-width="1" fill="none" fill-rule="evenodd">
        <g id="编组" transform="translate(12.000000, 11.000000)" stroke="#60759C" stroke-width="5">
            <path d="M26.568119,1.2972973 L4,1.2972973 C1.790861,1.2972973 -1.60280913e-15,3.0881583 0,5.2972973 L0,46.5945946 C2.705415e-16,48.8037336 1.790861,50.5945946 4,50.5945946 L41.4054054,50.5945946 C43.6145444,50.5945946 45.4054054,48.8037336 45.4054054,46.5945946 L45.4054054,17.1790403 C45.4054054,16.5818012 45.1384949,16.015814 44.6776794,15.6358881 L27.840393,1.75414508 C27.4821801,1.4588113 27.0323803,1.2972973 26.568119,1.2972973 Z" id="路径-5"></path>
            <path d="M27.2432432,0 L27.2432432,14.4594595 C27.2432432,17.2208832 29.4818195,19.4594595 32.2432432,19.4594595 L48,19.4594595 L48,19.4594595" id="路径-6"></path>
        </g>
        <path d="M25.5,42 L42.5,42 C43.8807119,42 45,43.1192881 45,44.5 C45,45.8807119 43.8807119,47 42.5,47 L25.5,47 C24.1192881,47 23,45.8807119 23,44.5 C23,43.1192881 24.1192881,42 25.5,42 Z M25.5,46 C26.3284271,46 27,45.3284271 27,44.5 C27,43.6715729 26.3284271,43 25.5,43 L42.5,43 C41.6715729,43 41,43.6715729 41,44.5 C41,45.3284271 41.6715729,46 42.5,46 L25.5,46 Z" id="矩形" fill="#60759C" fill-rule="nonzero"></path>
        <path d="M25.5,30 L29.5,30 C30.8807119,30 32,31.1192881 32,32.5 C32,33.8807119 30.8807119,35 29.5,35 L25.5,35 C24.1192881,35 23,33.8807119 23,32.5 C23,31.1192881 24.1192881,30 25.5,30 Z M25.5,34 C26.3284271,34 27,33.3284271 27,32.5 C27,31.6715729 26.3284271,31 25.5,31 L29.5,31 C28.6715729,31 28,31.6715729 28,32.5 C28,33.3284271 28.6715729,34 29.5,34 L25.5,34 Z" id="矩形备份" fill="#60759C" fill-rule="nonzero"></path>
    </g>
</svg>