<?xml version="1.0" encoding="UTF-8"?>
<svg width="72px" height="72px" viewBox="0 0 72 72" version="1.1" xmlns="http://www.w3.org/2000/svg" xmlns:xlink="http://www.w3.org/1999/xlink">
    <!-- Generator: Sketch 63.1 (92452) - https://sketch.com -->
    <title>银行账户管理</title>
    <desc>Created with Sketch.</desc>
    <g id="银行账户管理" stroke="none" stroke-width="1" fill="none" fill-rule="evenodd">
        <g id="编组-2" transform="translate(11.000000, 11.000000)" fill="#60759C">
            <g id="编组" transform="translate(10.576923, 17.307692)">
                <rect id="矩形" x="0" y="0.89031339" width="8.65384615" height="4.62962963" rx="2.31481481"></rect>
                <path d="M2.31481481,15.7051282 L27.3148148,15.7051282 C28.5932517,15.7051282 29.6296296,16.7415061 29.6296296,18.019943 C29.6296296,19.2983799 28.5932517,20.3347578 27.3148148,20.3347578 L2.31481481,20.3347578 C1.03637789,20.3347578 0,19.2983799 0,18.019943 C0,16.7415061 1.03637789,15.7051282 2.31481481,15.7051282 Z M2.31481481,20.7051282 C3.79780164,20.7051282 5,19.5029298 5,18.019943 C5,16.5369562 3.79780164,15.3347578 2.31481481,15.3347578 L27.3148148,15.3347578 C25.831828,15.3347578 24.6296296,16.5369562 24.6296296,18.019943 C24.6296296,19.5029298 25.831828,20.7051282 27.3148148,20.7051282 L2.31481481,20.7051282 Z" id="矩形备份" fill-rule="nonzero"></path>
            </g>
            <g id="账户-选中" transform="translate(25.000000, 9.615385)" fill-rule="nonzero">
                <path d="M10.794139,11.6342979 C10.7342029,11.6204665 10.6489095,11.5374782 10.542869,11.3876382 C10.437981,11.2377982 10.3469246,11.0061218 10.2696993,10.6926115 C10.1924741,10.380252 10.2385787,10.0010427 10.4068604,9.55843862 L10.4068602,9.55843883 C11.0677623,8.89843361 11.6076939,8.12754775 12.0020799,7.28087297 C12.4262413,6.38990267 12.6406276,5.49432101 12.6406276,4.5952815 C12.6406276,3.22597517 12.2072435,2.15404345 11.3416317,1.37602849 C10.4748663,0.596860019 9.42137459,0.209581461 8.17308471,0.209581461 C6.94209215,0.209581461 5.91050105,0.59455569 5.07256002,1.36450144 C4.23921956,2.13560071 3.81966689,3.21329461 3.81966689,4.5952896 C3.81966689,5.50700697 4.02252699,6.41065784 4.42363612,7.30162004 L4.42363616,7.30162014 C4.79518153,8.14763577 5.31645965,8.9195968 5.96237686,9.58033951 C6.13065852,9.96531374 6.16754237,10.3099446 6.07648572,10.6176928 C5.98427663,10.9254409 5.87362561,11.1628787 5.74568618,11.3346201 C5.61774595,11.5063596 5.50594223,11.6043319 5.41488665,11.634299 C4.53544069,11.9466585 3.70901592,12.3005094 2.942528,12.6935529 L2.94252811,12.6935528 C2.22031952,13.0552676 1.54970304,13.5119057 0.948505487,14.0513321 C0.387181202,14.5653974 0.104791488,15.065634 0.104791488,15.5497322 L0.104791488,16.1052916 C0.104791488,17.8042466 2.80191001,18.6514185 8.19614706,18.6514185 C13.5604251,18.6514185 16.241389,17.8042466 16.241389,16.1052916 L16.241389,15.5497322 C16.241389,15.0494983 15.9589993,14.5411952 15.397675,14.0190607 L15.3976749,14.0190606 C14.7920146,13.4690526 14.1084393,13.0115231 13.3690739,12.6612813 L13.3690744,12.6612816 C12.5349289,12.2612144 11.674647,11.9181044 10.794134,11.6343018 L10.794139,11.6342979 Z" id="路径"></path>
            </g>
            <path d="M8,-2.5 L42,-2.5 C47.7989899,-2.5 52.5,2.20101013 52.5,8 L52.5,42 C52.5,47.7989899 47.7989899,52.5 42,52.5 L8,52.5 C2.20101013,52.5 -2.5,47.7989899 -2.5,42 L-2.5,8 C-2.5,2.20101013 2.20101013,-2.5 8,-2.5 Z M8,2.5 C4.96243388,2.5 2.5,4.96243388 2.5,8 L2.5,42 C2.5,45.0375661 4.96243388,47.5 8,47.5 L42,47.5 C45.0375661,47.5 47.5,45.0375661 47.5,42 L47.5,8 C47.5,4.96243388 45.0375661,2.5 42,2.5 L8,2.5 Z" id="Rectangle-5" fill-rule="nonzero"></path>
        </g>
    </g>
</svg>