<?xml version="1.0" encoding="UTF-8"?>
<svg width="72px" height="72px" viewBox="0 0 72 72" version="1.1" xmlns="http://www.w3.org/2000/svg" xmlns:xlink="http://www.w3.org/1999/xlink">
    <!-- Generator: Sketch 63.1 (92452) - https://sketch.com -->
    <title>业务申请</title>
    <desc>Created with Sketch.</desc>
    <g id="业务申请" stroke="none" stroke-width="1" fill="none" fill-rule="evenodd">
        <path d="M15,11.5 L57,11.5 C61.1421356,11.5 64.5,14.8578644 64.5,19 L64.5,53 C64.5,57.1421356 61.1421356,60.5 57,60.5 L15,60.5 C10.8578644,60.5 7.5,57.1421356 7.5,53 L7.5,19 C7.5,14.8578644 10.8578644,11.5 15,11.5 Z M15,16.5 C13.6192881,16.5 12.5,17.6192881 12.5,19 L12.5,53 C12.5,54.3807119 13.6192881,55.5 15,55.5 L57,55.5 C58.3807119,55.5 59.5,54.3807119 59.5,53 L59.5,19 C59.5,17.6192881 58.3807119,16.5 57,16.5 L15,16.5 Z" id="Rectangle-5" fill="#60759C" fill-rule="nonzero"></path>
        <polygon id="路径-11" fill="#60759C" fill-rule="nonzero" points="12 29.8173636 59.5910986 29.8173636 59.5910986 24.8173636 12 24.8173636"></polygon>
        <path d="M26.642043,40.9016716 C25.6009175,39.9947963 24.0217508,40.1036276 23.1148754,41.1447531 C22.2080001,42.1858787 22.3168314,43.7650454 23.357957,44.6719208 L30.9126305,51.2524403 C32.331781,52.4885953 34.4744116,52.3811696 35.7628011,51.0092658 L49.190261,36.7114285 C50.1354568,35.7049644 50.0857891,34.1228314 49.079325,33.1776355 C48.0728608,32.2324396 46.4907278,32.2821074 45.5455319,33.2885715 L33.1072001,46.5331648 L26.642043,40.9016716 Z" id="路径-2" fill="#60759C" fill-rule="nonzero"></path>
    </g>
</svg>