<?xml version="1.0" encoding="UTF-8"?>
<svg width="72px" height="72px" viewBox="0 0 72 72" version="1.1" xmlns="http://www.w3.org/2000/svg" xmlns:xlink="http://www.w3.org/1999/xlink">
    <title>数据迁移</title>
    <g id="数据迁移" stroke="none" stroke-width="1" fill="none" fill-rule="evenodd">
        <g id="编组-25" transform="translate(34.500000, 33.000000) scale(1, -1) rotate(90.000000) translate(-34.500000, -33.000000) translate(8.500000, 6.500000)" fill="#60759C" fill-rule="nonzero">
            <path d="M3,47 L49,47 C50.6568542,47 52,48.3431458 52,50 C52,51.6568542 50.6568542,53 49,53 L3,53 C1.34314575,53 0,51.6568542 0,50 C0,48.3431458 1.34314575,47 3,47 Z M3,51 C3.55228475,51 4,50.5522847 4,50 C4,49.4477153 3.55228475,49 3,49 L49,49 C48.4477153,49 48,49.4477153 48,50 C48,50.5522847 48.4477153,51 49,51 L3,51 Z" id="矩形备份-2"></path>
            <path d="M-20,23 L26,23 C27.6568542,23 29,24.3431458 29,26 C29,27.6568542 27.6568542,29 26,29 L-20,29 C-21.6568542,29 -23,27.6568542 -23,26 C-23,24.3431458 -21.6568542,23 -20,23 Z M-20,27 C-19.4477153,27 -19,26.5522847 -19,26 C-19,25.4477153 -19.4477153,25 -20,25 L26,25 C25.4477153,25 25,25.4477153 25,26 C25,26.5522847 25.4477153,27 26,27 L-20,27 Z" id="矩形备份-2" transform="translate(3.000000, 26.000000) rotate(90.000000) translate(-3.000000, -26.000000) "></path>
            <path d="M3,31 L26,31 C27.6568542,31 29,32.3431458 29,34 C29,35.6568542 27.6568542,37 26,37 L3,37 C1.34314575,37 0,35.6568542 0,34 C0,32.3431458 1.34314575,31 3,31 Z M3,35 C3.55228475,35 4,34.5522847 4,34 C4,33.4477153 3.55228475,33 3,33 L26,33 C25.4477153,33 25,33.4477153 25,34 C25,34.5522847 25.4477153,35 26,35 L3,35 Z" id="矩形备份"></path>
        </g>
        <path d="M12.9033409,24.9093039 L27.0486202,19.4277415 C27.1984504,19.3696795 27.3670557,19.387165 27.5017826,19.4747374 L38.5179338,26.6352358 C40.2532378,27.7631834 42.4748391,27.8214648 44.2668965,26.7860538 L58.250694,18.7065264 C59.4462042,18.0157871 59.8554019,16.4866799 59.1646627,15.2911697 C58.4739235,14.0956595 56.9448162,13.6864618 55.749306,14.377201 L41.7655085,22.4567284 C41.6025942,22.5508567 41.4006305,22.5455584 41.2428756,22.4430177 L30.2267243,15.2825194 C28.7447284,14.319222 26.8900703,14.1268816 25.2419384,14.7655638 L11.0966591,20.2471262 C9.80923429,20.7460276 9.17000975,22.1941312 9.66891115,23.481556 C10.1678125,24.7689808 11.6159161,25.4082053 12.9033409,24.9093039 Z" id="路径-12" fill="#60759C" fill-rule="nonzero" transform="translate(34.499872, 20.782623) scale(-1, -1) translate(-34.499872, -20.782623) "></path>
        <g id="编组-3" transform="translate(40.527877, 32.502361)" fill="#60759C" fill-rule="nonzero">
            <g id="编组">
                <path d="M6.95758348,3.9845964 L17.875846,3.9845964 C18.73721,3.9845964 19.4354835,4.68286992 19.4354835,5.54423397 C19.4354835,6.40559801 18.73721,7.10387154 17.875846,7.10387154 L1.55963757,7.10387154 C0.698273524,7.10387154 0,6.40559801 0,5.54423397 C0,5.3091002 0.0520333876,5.08611948 0.145213692,4.88617828 C0.230374756,4.60848817 0.403987339,4.35549035 0.658402101,4.17337219 C0.689604611,4.15103644 0.721729881,4.13001875 0.754693274,4.11037449 L7.28769988,0.217083228 C8.01747076,-0.217817697 8.96162381,0.0212216365 9.39652474,0.750992522 C9.40015529,0.757084648 9.40374367,0.763201808 9.40728961,0.769343565 C9.83797163,1.51530671 9.58238578,2.46916608 8.83642264,2.8998481 L6.95758348,3.9845964 Z" id="形状结合"></path>
            </g>
        </g>
        <g id="编组-3" transform="translate(50.245619, 46.054297) scale(-1, -1) translate(-50.245619, -46.054297) translate(40.527877, 42.502361)" fill="#60759C" fill-rule="nonzero">
            <g id="编组">
                <path d="M6.95758348,3.9845964 L17.875846,3.9845964 C18.73721,3.9845964 19.4354835,4.68286992 19.4354835,5.54423397 C19.4354835,6.40559801 18.73721,7.10387154 17.875846,7.10387154 L1.55963757,7.10387154 C0.698273524,7.10387154 0,6.40559801 0,5.54423397 C0,5.3091002 0.0520333876,5.08611948 0.145213692,4.88617828 C0.230374756,4.60848817 0.403987339,4.35549035 0.658402101,4.17337219 C0.689604611,4.15103644 0.721729881,4.13001875 0.754693274,4.11037449 L7.28769988,0.217083228 C8.01747076,-0.217817697 8.96162381,0.0212216365 9.39652474,0.750992522 C9.40015529,0.757084648 9.40374367,0.763201808 9.40728961,0.769343565 C9.83797163,1.51530671 9.58238578,2.46916608 8.83642264,2.8998481 L6.95758348,3.9845964 Z" id="形状结合"></path>
            </g>
        </g>
        <g id="编组-3" transform="translate(40.527877, 32.502361)" fill="#60759C" fill-rule="nonzero">
            <g id="编组">
                <path d="M6.95758348,3.9845964 L17.875846,3.9845964 C18.73721,3.9845964 19.4354835,4.68286992 19.4354835,5.54423397 C19.4354835,6.40559801 18.73721,7.10387154 17.875846,7.10387154 L1.55963757,7.10387154 C0.698273524,7.10387154 0,6.40559801 0,5.54423397 C0,5.3091002 0.0520333876,5.08611948 0.145213692,4.88617828 C0.230374756,4.60848817 0.403987339,4.35549035 0.658402101,4.17337219 C0.689604611,4.15103644 0.721729881,4.13001875 0.754693274,4.11037449 L7.28769988,0.217083228 C8.01747076,-0.217817697 8.96162381,0.0212216365 9.39652474,0.750992522 C9.40015529,0.757084648 9.40374367,0.763201808 9.40728961,0.769343565 C9.83797163,1.51530671 9.58238578,2.46916608 8.83642264,2.8998481 L6.95758348,3.9845964 Z" id="形状结合"></path>
            </g>
        </g>
    </g>
</svg>