<?xml version="1.0" encoding="UTF-8"?>
<svg width="72px" height="72px" viewBox="0 0 72 72" version="1.1" xmlns="http://www.w3.org/2000/svg" xmlns:xlink="http://www.w3.org/1999/xlink">
    <title>支付工厂</title>
    <g id="支付工厂" stroke="none" stroke-width="1" fill="none" fill-rule="evenodd">
        <path d="M32.1059627,14.5 C32.7963186,14.5 33.4213186,14.779822 33.8737296,15.232233 C34.3261406,15.6846441 34.6059627,16.3096441 34.6059627,17 L34.6059627,17 L34.6059627,23 L59,23 C59.6903559,23 60.3153559,23.279822 60.767767,23.732233 C61.220178,24.1846441 61.5,24.8096441 61.5,25.5 L61.5,25.5 L61.5,54 C61.5,54.9664983 61.1082492,55.8414983 60.4748737,56.4748737 C59.8414983,57.1082492 58.9664983,57.5 58,57.5 L58,57.5 L14,57.5 C13.0335017,57.5 12.1585017,57.1082492 11.5251263,56.4748737 C10.8917508,55.8414983 10.5,54.9664983 10.5,54 L10.5,54 L10.5,17 C10.5,16.3096441 10.779822,15.6846441 11.232233,15.232233 C11.6846441,14.779822 12.3096441,14.5 13,14.5 L13,14.5 Z" id="矩形" stroke="#60759C" stroke-width="5"></path>
        <rect id="矩形备份-2" fill="#60759C" x="20" y="22" width="6" height="4"></rect>
        <rect id="矩形备份" fill="#60759C" x="20" y="31" width="6" height="4"></rect>
        <g id="现金" transform="translate(38.000000, 29.000000)" fill="#60759C" fill-rule="nonzero">
            <g id="时间轴-羊角标">
                <path d="M15.5293067,14.7929695 C15.758107,15.0811037 15.8892263,15.4252898 15.9182667,15.8255257 C15.8892267,16.2415261 15.7581066,16.5892145 15.5293067,16.8677163 C15.2996256,17.1479693 14.9872252,17.3029838 14.5877056,17.3362643 L10.1806536,17.3126179 L10.1806536,19.8559169 C10.1208135,21.2151433 9.40801229,21.8947576 8.04577028,21.8947576 C7.37256949,21.8947576 6.84896888,21.7283574 6.47408759,21.3911781 C6.09744672,21.0557499 5.89504648,20.5442891 5.86600602,19.8559169 L5.86600602,17.359914 L1.43431141,17.359914 C1.0224705,17.3283856 0.70391056,17.1479727 0.483029444,16.8204262 L0.483029404,16.8204262 C0.261475826,16.4947309 0.123127032,16.120153 0.0799885053,15.7291904 C0.12662856,15.329829 0.260388715,15.0022842 0.483029404,14.7456772 C0.70302966,14.4899468 1.02247046,14.3454414 1.43431137,14.3130376 L5.86600598,14.3130376 L5.86600598,11.9256318 L1.43431137,11.9019855 C1.02247046,11.8695812 0.70391052,11.7180695 0.483029404,11.4465744 C0.260388715,11.1733282 0.126628989,10.8291421 0.0799885053,10.4131416 C0.12662856,10.0137803 0.260388715,9.68623552 0.483029404,9.42962848 C0.70302966,9.17389808 1.02247046,9.03026716 1.43431137,8.99786334 L4.74048123,8.99786334 L1.66400109,3.336763 L1.6640011,3.33676302 C1.49023785,3.1105371 1.34374389,2.86480474 1.22751974,2.60460131 L1.22751967,2.60460118 C1.08862217,2.29999244 1.02582305,1.96646507 1.04447946,1.63247373 C1.12015955,1.18406943 1.27416059,0.820616372 1.50207999,0.540363414 C1.73263983,0.260987102 2.16208076,0.0805734054 2.78864106,0.0008756153 C3.15560106,0.032404073 3.48560144,0.165524228 3.77600178,0.397609136 C4.06640212,0.628816971 4.3040024,0.881045061 4.48880261,1.15254011 L7.97711722,7.82342945 L11.8104068,1.10524401 C11.993447,0.833748953 12.2319265,0.592906567 12.5232077,0.385344648 C12.813608,0.175155144 13.1418488,0.0481653085 13.5088088,-3.16861715e-06 C13.7393686,0.0157610603 13.9488093,0.0481653085 14.14065,0.0954579951 C14.3298502,0.144502263 14.4996908,0.224199198 14.6457697,0.337177026 C14.7900899,0.448402419 14.9132892,0.608672079 15.0127297,0.816233998 C15.1121698,1.02379635 15.1834499,1.29616762 15.2300895,1.63247031 C15.2300895,2.09663927 15.0778493,2.53628567 14.7716081,2.95228615 L11.21377,8.99874714 L14.5885825,8.99874714 C14.9863426,9.0302756 15.3005025,9.17478103 15.5284241,9.43051228 C15.7572243,9.68711932 15.8883436,10.0146641 15.9191436,10.4140254 C15.8883436,10.8309026 15.7545835,11.1829699 15.5178623,11.4702296 C15.280262,11.7574893 14.9634617,11.9168828 14.5648208,11.9501632 L10.1797688,11.9738096 L10.1797688,14.3130426 L14.5868208,14.3130426 C14.9863404,14.3454468 15.2987408,14.5057165 15.5284219,14.7929762 L15.5293067,14.7929695 Z" id="路径"></path>
            </g>
        </g>
    </g>
</svg>