<?xml version="1.0" encoding="UTF-8"?>
<svg width="72px" height="72px" viewBox="0 0 72 72" version="1.1" xmlns="http://www.w3.org/2000/svg" xmlns:xlink="http://www.w3.org/1999/xlink">
    <title>退票服务</title>
    <g id="退票服务" stroke="none" stroke-width="1" fill="none" fill-rule="evenodd">
        <g id="编组-2" transform="translate(9.000000, 14.000000)" fill="#60759C" fill-rule="nonzero">
            <path d="M-1.02910976,16.8533808 L-2,16.1027624 L-2,8 C-2,2.20101013 2.70101013,-2.5 8.5,-2.5 L44.5,-2.5 C50.2989899,-2.5 55,2.20101013 55,8 L55,16.7792528 L54.3053204,17.5044295 C53.1525485,18.7078092 52.5,20.2993726 52.5,22 C52.5,23.7006274 53.1525485,25.2921908 54.3053204,26.4955705 L55,27.2207472 L55,36 C55,41.7989899 50.2989899,46.5 44.5,46.5 L8.5,46.5 C2.70101013,46.5 -2,41.7989899 -2,36 L-2,27.8972376 L-1.02910976,27.1466192 C0.556293457,25.9209063 1.5,24.0409264 1.5,22 C1.5,19.9590736 0.556293457,18.0790937 -1.02910976,16.8533808 Z M3,13.7382188 C5.20921935,15.8763588 6.5,18.833344 6.5,22 C6.5,25.166656 5.20921935,28.1236412 3,30.2617812 L3,36 C3,39.0375661 5.46243388,41.5 8.5,41.5 L44.5,41.5 C47.5375661,41.5 50,39.0375661 50,36 L50,29.1597006 C48.3974411,27.1481486 47.5,24.6421443 47.5,22 C47.5,19.3578557 48.3974411,16.8518514 50,14.8402994 L50,8 C50,4.96243388 47.5375661,2.5 44.5,2.5 L8.5,2.5 C5.46243388,2.5 3,4.96243388 3,8 L3,13.7382188 Z" id="形状结合"></path>
        </g>
        <path d="M33.5,43 L50.5,43 C51.8807119,43 53,44.1192881 53,45.5 C53,46.8807119 51.8807119,48 50.5,48 L33.5,48 C32.1192881,48 31,46.8807119 31,45.5 C31,44.1192881 32.1192881,43 33.5,43 Z M33.5,47 C34.3284271,47 35,46.3284271 35,45.5 C35,44.6715729 34.3284271,44 33.5,44 L50.5,44 C49.6715729,44 49,44.6715729 49,45.5 C49,46.3284271 49.6715729,47 50.5,47 L33.5,47 Z" id="矩形" fill="#60759C" fill-rule="nonzero"></path>
        <path d="M37,28.9359626 C37,29.446538 36.7717836,29.909286 36.4122159,30.2262985 L30.5452788,35.4259542 C30.2323687,35.6998971 29.8182827,35.8666667 29.3666677,35.8666667 C28.39193,35.8666667 27.6025548,35.092415 27.6025548,34.1353679 C27.6025548,33.6190332 27.8307712,33.1620444 28.1903388,32.8450319 L30.6487369,30.6675118 L22.7587879,30.6675118 C21.7870931,30.6675118 21,29.8932601 21,28.9307041 C21,27.9736569 21.7870931,27.1994053 22.7587879,27.1994053 L30.6487369,27.1994053 L28.1903388,25.0216347 C27.8307712,24.7043719 27.6025548,24.2446286 27.6025548,23.7315492 C27.6025548,22.7742516 28.39193,22 29.3666677,22 C29.8182827,22 30.2323687,22.1667696 30.5452788,22.4462214 L36.4122159,27.6456266 C36.77153,27.9626391 37,28.4251368 37,28.9359626" id="路径" fill="#60759C"></path>
    </g>
</svg>