<?xml version="1.0" encoding="UTF-8"?>
<svg width="72px" height="72px" viewBox="0 0 72 72" version="1.1" xmlns="http://www.w3.org/2000/svg" xmlns:xlink="http://www.w3.org/1999/xlink">
    <!-- Generator: Sketch 63.1 (92452) - https://sketch.com -->
    <title>账户申请</title>
    <desc>Created with Sketch.</desc>
    <g id="账户申请" stroke="none" stroke-width="1" fill="none" fill-rule="evenodd">
        <g id="编组" transform="translate(23.000000, 28.000000)" fill="#60759C">
            <rect id="矩形" x="0" y="0.925925926" width="17" height="4.81481481" rx="2.40740741"></rect>
            <path d="M2.40740741,14.3333333 L23.5925926,14.3333333 C24.922167,14.3333333 26,15.4111663 26,16.7407407 C26,18.0703151 24.922167,19.1481481 23.5925926,19.1481481 L2.40740741,19.1481481 C1.07783301,19.1481481 0,18.0703151 0,16.7407407 C0,15.4111663 1.07783301,14.3333333 2.40740741,14.3333333 Z M2.40740741,19.3333333 C3.83925676,19.3333333 5,18.1725901 5,16.7407407 C5,15.3088914 3.83925676,14.1481481 2.40740741,14.1481481 L23.5925926,14.1481481 C22.1607432,14.1481481 21,15.3088914 21,16.7407407 C21,18.1725901 22.1607432,19.3333333 23.5925926,19.3333333 L2.40740741,19.3333333 Z" id="矩形备份" fill-rule="nonzero"></path>
        </g>
        <path d="M28.72,9 L44.32,9 C46.6788744,9 48.7320427,10.308883 49.7928562,12.24 L54,12.24 C58.418278,12.24 62,15.821722 62,20.24 L62,56.24 C62,60.658278 58.418278,64.24 54,64.24 L18,64.24 C13.581722,64.24 10,60.658278 10,56.24 L10,20.24 C10,15.821722 13.581722,12.24 18,12.24 L23.2471438,12.24 C24.3079573,10.308883 26.3611256,9 28.72,9 Z M18,17.24 C16.3431458,17.24 15,18.5831458 15,20.24 L15,56.24 C15,57.8968542 16.3431458,59.24 18,59.24 L54,59.24 C55.6568542,59.24 57,57.8968542 57,56.24 L57,20.24 C57,18.5831458 55.6568542,17.24 54,17.24 L46.8347543,17.24 L45.4105307,14.6473269 C45.1916171,14.2488142 44.7799597,14 44.32,14 L28.72,14 C28.2600403,14 27.8483829,14.2488142 27.6294693,14.6473269 L26.2052457,17.24 L18,17.24 Z" id="形状结合" fill="#60759C" fill-rule="nonzero"></path>
    </g>
</svg>