<?xml version="1.0" encoding="UTF-8"?>
<svg width="72px" height="72px" viewBox="0 0 72 72" version="1.1" xmlns="http://www.w3.org/2000/svg" xmlns:xlink="http://www.w3.org/1999/xlink">
    <!-- Generator: Sketch 63.1 (92452) - https://sketch.com -->
    <title>内部账户通知书</title>
    <desc>Created with Sketch.</desc>
    <g id="内部账户通知书" stroke="none" stroke-width="1" fill="none" fill-rule="evenodd">
        <path d="M14,53.0827077 C10.4101491,53.0827077 7.5,50.1725586 7.5,46.5827077 L7.5,24.7408507 C7.5,21.1509998 10.4101491,18.2408507 14,18.2408507 L20.3242904,18.2408507 L31.6810994,9.64664761 C34.1032883,7.81366943 37.5527828,8.29131909 39.3857609,10.713508 C40.1087583,11.6689127 40.5,12.8342752 40.5,14.0324085 L40.5,57.0597515 C40.5,60.0973176 38.0375661,62.5597515 35,62.5597515 C33.8250698,62.5597515 32.6810167,62.1834979 31.7354416,61.486111 L20.3414095,53.0827077 L14,53.0827077 Z M14,23.2408507 C13.1715729,23.2408507 12.5,23.9124235 12.5,24.7408507 L12.5,46.5827077 C12.5,47.4111348 13.1715729,48.0827077 14,48.0827077 L21.1636038,48.0827077 C21.697663,48.0827077 22.2176871,48.253732 22.647494,48.5707261 L34.703222,57.4621478 C34.7891833,57.5255466 34.8931882,57.5597515 35,57.5597515 C35.2761424,57.5597515 35.5,57.3358939 35.5,57.0597515 L35.5,14.0324085 C35.5,13.9234873 35.4644326,13.8175453 35.3987055,13.7306903 C35.2320712,13.5104913 34.9184808,13.4670686 34.6982818,13.633703 L22.6721949,22.7343784 C22.23792,23.0630135 21.7082098,23.2408507 21.1636038,23.2408507 L14,23.2408507 Z" id="路径-8" fill="#60759C" fill-rule="nonzero"></path>
        <path d="M55.263456,52.9250319 C59.5473334,48.6411545 62,42.8423993 62,36.6615759 C62,29.1609311 58.3810341,22.2622015 52.4043615,17.9694772 C51.2829347,17.1640163 49.7208836,17.4201573 48.9154227,18.541584 C48.1099618,19.6630108 48.3661028,21.2250619 49.4875296,22.0305228 C54.1700207,25.3937058 57,30.7884131 57,36.6615759 C57,41.5026865 55.0834131,46.034007 51.7279221,49.389498 C50.7516113,50.3658087 50.7516113,51.9487212 51.7279221,52.9250319 C52.7042328,53.9013426 54.2871452,53.9013426 55.263456,52.9250319 Z" id="形状" fill="#60759C" fill-rule="nonzero" transform="translate(55.222878, 35.578538) rotate(4.000000) translate(-55.222878, -35.578538) "></path>
        <path d="M46.934209,47.3839554 C49.5222828,44.6838984 51,41.0390132 51,37.1603893 C51,32.4513116 48.8173571,28.1105733 45.1993077,25.399481 C44.3153655,24.7371217 43.0618404,24.91675 42.399481,25.8006923 C41.7371217,26.6846345 41.91675,27.9381596 42.8006923,28.600519 C45.4131175,30.5580727 47,33.7139905 47,37.1603893 C47,40.0030469 45.9238092,42.6575412 44.0465336,44.6160446 C43.2821961,45.4134541 43.3090063,46.6795002 44.1064159,47.4438377 C44.9038254,48.2081752 46.1698716,48.181365 46.934209,47.3839554 Z" id="形状备份" fill="#60759C" fill-rule="nonzero" transform="translate(46.499941, 36.499942) rotate(4.000000) translate(-46.499941, -36.499942) "></path>
    </g>
</svg>