<?xml version="1.0" encoding="UTF-8"?>
<svg width="72px" height="72px" viewBox="0 0 72 72" version="1.1" xmlns="http://www.w3.org/2000/svg" xmlns:xlink="http://www.w3.org/1999/xlink">
    <!-- Generator: Sketch 63.1 (92452) - https://sketch.com -->
    <title>内部账户办理</title>
    <desc>Created with Sketch.</desc>
    <g id="内部账户办理" stroke="none" stroke-width="1" fill="none" fill-rule="evenodd">
        <g id="编组-2" transform="translate(7.000000, 9.000000)" fill="#60759C" fill-rule="nonzero">
            <path d="M49.8559322,19.8079505 L49.8559322,44.789705 C49.8559322,47.4472936 47.7015309,49.6016949 45.0439422,49.6016949 L10.31199,49.6016949 C7.65440129,49.6016949 5.5,47.4472936 5.5,44.789705 L5.5,10.0577527 C5.5,7.400164 7.65440129,5.24576271 10.31199,5.24576271 L37.2986002,5.24576271 C38.6793121,5.24576271 39.7986002,4.12647459 39.7986002,2.74576271 C39.7986002,1.36505084 38.6793121,0.245762712 37.2986002,0.245762712 L10.31199,0.245762712 C4.89297754,0.245762712 0.5,4.63874025 0.5,10.0577527 L0.5,44.789705 C0.5,50.2087174 4.89297754,54.6016949 10.31199,54.6016949 L45.0439422,54.6016949 C50.4629547,54.6016949 54.8559322,50.2087174 54.8559322,44.789705 L54.8559322,19.8079505 C54.8559322,18.4272386 53.7366441,17.3079505 52.3559322,17.3079505 C50.9752203,17.3079505 49.8559322,18.4272386 49.8559322,19.8079505 Z" id="路径"></path>
            <path d="M14.8644068,18.7927574 L25.3050847,18.7927574 C26.6155909,18.7927574 27.6779661,19.8551326 27.6779661,21.1656388 C27.6779661,22.4761449 26.6155909,23.5385201 25.3050847,23.5385201 L14.8644068,23.5385201 C13.5539006,23.5385201 12.4915254,22.4761449 12.4915254,21.1656388 C12.4915254,19.8551326 13.5539006,18.7927574 14.8644068,18.7927574 Z M14.8644068,22.7927574 C15.7630396,22.7927574 16.4915254,22.0642716 16.4915254,21.1656388 C16.4915254,20.267006 15.7630396,19.5385201 14.8644068,19.5385201 L25.3050847,19.5385201 C24.4064519,19.5385201 23.6779661,20.267006 23.6779661,21.1656388 C23.6779661,22.0642716 24.4064519,22.7927574 25.3050847,22.7927574 L14.8644068,22.7927574 Z" id="矩形"></path>
            <path d="M14.8644068,33.0300455 L40.4915254,33.0300455 C41.8020316,33.0300455 42.8644068,34.0924207 42.8644068,35.4029269 C42.8644068,36.7134331 41.8020316,37.7758083 40.4915254,37.7758083 L14.8644068,37.7758083 C13.5539006,37.7758083 12.4915254,36.7134331 12.4915254,35.4029269 C12.4915254,34.0924207 13.5539006,33.0300455 14.8644068,33.0300455 Z M14.8644068,37.0300455 C15.7630396,37.0300455 16.4915254,36.3015597 16.4915254,35.4029269 C16.4915254,34.5042941 15.7630396,33.7758083 14.8644068,33.7758083 L40.4915254,33.7758083 C39.5928926,33.7758083 38.8644068,34.5042941 38.8644068,35.4029269 C38.8644068,36.3015597 39.5928926,37.0300455 40.4915254,37.0300455 L14.8644068,37.0300455 Z" id="矩形备份"></path>
            <path d="M34.860751,10.6824946 L54.1149883,10.6824946 C55.4254945,10.6824946 56.4878696,11.7448698 56.4878696,13.055376 C56.4878696,14.3658822 55.4254945,15.4282573 54.1149883,15.4282573 L34.860751,15.4282573 C33.5502448,15.4282573 32.4878696,14.3658822 32.4878696,13.055376 C32.4878696,11.7448698 33.5502448,10.6824946 34.860751,10.6824946 Z" id="矩形备份-2" transform="translate(44.487870, 13.055376) scale(-1, 1) rotate(47.000000) translate(-44.487870, -13.055376) "></path>
        </g>
    </g>
</svg>