<?xml version="1.0" encoding="UTF-8"?>
<svg width="72px" height="72px" viewBox="0 0 72 72" version="1.1" xmlns="http://www.w3.org/2000/svg" xmlns:xlink="http://www.w3.org/1999/xlink">
    <!-- Generator: Sketch 63.1 (92452) - https://sketch.com -->
    <title>外币兑换业务</title>
    <desc>Created with Sketch.</desc>
    <g id="外币兑换业务" stroke="none" stroke-width="1" fill="none" fill-rule="evenodd">
        <g id="兑换" transform="translate(36.000000, 36.000000) rotate(-45.000000) translate(-36.000000, -36.000000) translate(7.000000, 7.000000)" fill="#60759C" fill-rule="nonzero">
            <path d="M48.3340603,42.7402231 L22.3134307,16.7180139 C21.9229183,16.3274777 21.9229375,15.6943127 22.3134736,15.3038003 C22.5010083,15.116277 22.755353,15.0109285 23.020559,15.0109285 L36.8463375,15.0109285 C37.3986222,15.0109285 37.8463375,15.4586438 37.8463375,16.0109285 C37.8463375,16.2761494 37.7409772,16.5305072 37.5534353,16.7180443 L33.6636064,20.6077746 L33.6636064,20.6077746 L50.9641908,37.9079207 C54.4406043,29.3371604 52.7408414,19.1652598 45.7878851,12.2124667 C37.4717763,3.89656853 24.5348304,3.06713385 15.2617669,9.66643355 L11.4919632,5.89679013 C22.8638422,-2.74127761 39.1378328,-1.89747538 49.5191672,8.48361543 C59.8982363,18.8622922 60.73973,35.1358706 52.1038769,46.5074784 L48.3340603,42.7402231 Z M22.3136095,39.4174903 L26.2010293,35.5302185 L26.2010293,35.5302185 L8.24411609,17.5713008 C3.26736252,26.5915972 4.5632576,38.1410997 12.211019,45.788648 C21.169024,54.746426 35.4860661,55.022969 44.8071521,46.6733718 L48.5384795,50.4046047 C37.1497732,60.8072921 19.4982105,60.5356031 8.48216392,49.5198808 C-2.53621262,38.5017187 -2.80803799,20.8505384 7.59741766,9.46457998 L8.48216392,10.3493038 L37.5533092,39.4174608 C37.9438536,39.807965 37.9438861,40.44113 37.5533819,40.8316743 C37.3658427,41.0192328 37.1114734,41.1246038 36.8462392,41.1246039 L23.0207033,41.1246106 C22.4684186,41.1246108 22.0207031,40.6768958 22.0207028,40.124611 C22.0207027,39.8593878 22.1260648,39.6050279 22.3136095,39.4174903 Z" id="形状"></path>
        </g>
    </g>
</svg>