<?xml version="1.0" encoding="UTF-8"?>
<svg width="72px" height="72px" viewBox="0 0 72 72" version="1.1" xmlns="http://www.w3.org/2000/svg" xmlns:xlink="http://www.w3.org/1999/xlink">
    <!-- Generator: Sketch 63.1 (92452) - https://sketch.com -->
    <title>初始设置</title>
    <desc>Created with Sketch.</desc>
    <g id="初始设置" stroke="none" stroke-width="1" fill="none" fill-rule="evenodd">
        <g id="编组" transform="translate(10.000000, 11.000000)" fill-rule="nonzero">
            <path d="M46.6636364,29.8806632 L46.6636364,41.8801347 C46.6636364,44.5219897 44.5219897,46.6636364 41.8801347,46.6636364 L7.28350168,46.6636364 C4.64164665,46.6636364 2.5,44.5219897 2.5,41.8801347 L2.5,7.28350168 C2.5,4.64164665 4.64164665,2.5 7.28350168,2.5 L18.9090909,2.5 C20.2898028,2.5 21.4090909,1.38071187 21.4090909,0 C21.4090909,-1.38071187 20.2898028,-2.5 18.9090909,-2.5 L7.28350168,-2.5 C1.8802229,-2.5 -2.5,1.8802229 -2.5,7.28350168 L-2.5,41.8801347 C-2.5,47.2834135 1.8802229,51.6636364 7.28350168,51.6636364 L41.8801347,51.6636364 C47.2834135,51.6636364 51.6636364,47.2834135 51.6636364,41.8801347 L51.6636364,29.8806632 C51.6636364,28.4999514 50.5443482,27.3806632 49.1636364,27.3806632 C47.7829245,27.3806632 46.6636364,28.4999514 46.6636364,29.8806632 Z" id="路径" fill="#60759C" transform="translate(24.581818, 24.581818) scale(1, -1) translate(-24.581818, -24.581818) "></path>
            <path d="M11.8181818,28.4518897 L22.2181818,28.4518897 C23.5235821,28.4518897 24.5818182,29.5101257 24.5818182,30.8155261 C24.5818182,32.1209264 23.5235821,33.1791624 22.2181818,33.1791624 L11.8181818,33.1791624 C10.5127815,33.1791624 9.45454545,32.1209264 9.45454545,30.8155261 C9.45454545,29.5101257 10.5127815,28.4518897 11.8181818,28.4518897 Z M11.8181818,32.4518897 C12.7219205,32.4518897 13.4545455,31.7192647 13.4545455,30.8155261 C13.4545455,29.9117874 12.7219205,29.1791624 11.8181818,29.1791624 L22.2181818,29.1791624 C21.3144431,29.1791624 20.5818182,29.9117874 20.5818182,30.8155261 C20.5818182,31.7192647 21.3144431,32.4518897 22.2181818,32.4518897 L11.8181818,32.4518897 Z" id="矩形" fill="#60759C" transform="translate(17.018182, 30.815526) scale(1, -1) translate(-17.018182, -30.815526) "></path>
            <path d="M11.8181818,14.2700715 L37.3454545,14.2700715 C38.6508549,14.2700715 39.7090909,15.3283076 39.7090909,16.6337079 C39.7090909,17.9391082 38.6508549,18.9973442 37.3454545,18.9973442 L11.8181818,18.9973442 C10.5127815,18.9973442 9.45454545,17.9391082 9.45454545,16.6337079 C9.45454545,15.3283076 10.5127815,14.2700715 11.8181818,14.2700715 Z M11.8181818,18.2700715 C12.7219205,18.2700715 13.4545455,17.5374466 13.4545455,16.6337079 C13.4545455,15.7299692 12.7219205,14.9973442 11.8181818,14.9973442 L37.3454545,14.9973442 C36.4417159,14.9973442 35.7090909,15.7299692 35.7090909,16.6337079 C35.7090909,17.5374466 36.4417159,18.2700715 37.3454545,18.2700715 L11.8181818,18.2700715 Z" id="矩形备份" fill="#60759C" transform="translate(24.581818, 16.633708) scale(1, -1) translate(-24.581818, -16.633708) "></path>
            <g id="设置备份" transform="translate(24.581818, 26.472727)">
                <rect id="矩形" fill="#000000" opacity="0" x="0" y="0" width="27.4181818" height="27.4181818"></rect>
                <path d="M21.2490909,17.6268285 C22.0487879,16.2630969 23.419697,15.5812312 24.7906061,15.6948755 C25.0190909,14.8993654 25.1333333,13.990211 25.1333333,13.0810566 C25.1333333,12.2855466 25.0190909,11.4900365 24.9048485,10.8081707 C23.5339394,11.0354593 22.0487879,10.2399492 21.2490909,8.87621769 C20.4493939,7.51248613 20.5636364,5.80782168 21.4775757,4.78502301 C20.2209091,3.64858004 18.85,2.85306998 17.2506061,2.28484848 C16.7936364,3.64858004 15.4227273,4.5577344 13.7090909,4.5577344 C11.9954545,4.5577344 10.7387879,3.64858004 10.1675758,2.28484848 C8.56818182,2.85306996 7.19727273,3.76222435 5.94060608,4.89866729 C6.85454546,6.03511027 6.96878789,7.62613041 6.16909091,8.98986196 C5.36939394,10.3535935 3.88424244,11.0354593 2.51333335,10.8081707 C2.39909092,11.6036808 2.28484848,12.3991909 2.28484848,13.1947009 C2.28484848,14.1038553 2.39909092,14.8993654 2.62757576,15.6948755 C3.99848485,15.5812312 5.36939394,16.2630969 6.16909091,17.6268285 C6.85454546,18.9905601 6.85454546,20.4679359 6.05484848,21.6043789 C7.31151514,22.7408218 8.68242423,23.5363319 10.2818182,23.9909091 C10.8530303,22.7408218 12.109697,21.9453118 13.7090909,21.9453118 C15.3084848,21.9453118 16.5651515,22.7408218 17.1363636,23.9909091 C18.7357576,23.5363319 20.1066667,22.6271775 21.3633333,21.6043789 C20.5636364,20.4679359 20.449394,18.9905601 21.2490909,17.6268285 Z M13.7090909,18.0814057 C10.9672727,18.0814057 8.79666666,15.9221641 8.79666666,13.1947009 C8.79666666,10.4672378 10.9672727,8.30799619 13.7090909,8.30799619 C16.4509091,8.30799619 18.6215152,10.4672378 18.6215152,13.1947009 C18.6215152,15.9221641 16.4509091,18.0814057 13.7090909,18.0814057 Z" id="形状" fill="#60759C"></path>
            </g>
        </g>
    </g>
</svg>