<?xml version="1.0" encoding="UTF-8"?>
<svg width="72px" height="72px" viewBox="0 0 72 72" version="1.1" xmlns="http://www.w3.org/2000/svg" xmlns:xlink="http://www.w3.org/1999/xlink">
    <!-- Generator: Sketch 63.1 (92452) - https://sketch.com -->
    <title>期末处理</title>
    <desc>Created with Sketch.</desc>
    <g id="期末处理" stroke="none" stroke-width="1" fill="none" fill-rule="evenodd">
        <path d="M55.5,43.5 L55.5,50.1851852 C55.5,52.5681916 53.5681916,54.5 51.1851852,54.5 L18.8148148,54.5 C16.4318084,54.5 14.5,52.5681916 14.5,50.1851852 L14.5,17.8148148 C14.5,15.4318084 16.4318084,13.5 18.8148148,13.5 L27.8020247,13.5 C29.1827366,13.5 30.3020247,12.3807119 30.3020247,11 C30.3020247,9.61928813 29.1827366,8.5 27.8020247,8.5 L18.8148148,8.5 C13.6703846,8.5 9.5,12.6703846 9.5,17.8148148 L9.5,50.1851852 C9.5,55.3296154 13.6703846,59.5 18.8148148,59.5 L51.1851852,59.5 C56.3296154,59.5 60.5,55.3296154 60.5,50.1851852 L60.5,43.5 C60.5,42.1192881 59.3807119,41 58,41 C56.6192881,41 55.5,42.1192881 55.5,43.5 Z" id="路径" fill="#60759C" fill-rule="nonzero" transform="translate(35.000000, 34.000000) scale(1, -1) translate(-35.000000, -34.000000) "></path>
        <path d="M23.5,22 L40.5,22 C41.8807119,22 43,23.1192881 43,24.5 C43,25.8807119 41.8807119,27 40.5,27 L23.5,27 C22.1192881,27 21,25.8807119 21,24.5 C21,23.1192881 22.1192881,22 23.5,22 Z M23.5,26 C24.3284271,26 25,25.3284271 25,24.5 C25,23.6715729 24.3284271,23 23.5,23 L40.5,23 C39.6715729,23 39,23.6715729 39,24.5 C39,25.3284271 39.6715729,26 40.5,26 L23.5,26 Z" id="矩形" fill="#60759C" fill-rule="nonzero"></path>
        <path d="M23.5,35 L27.5,35 C28.8807119,35 30,36.1192881 30,37.5 C30,38.8807119 28.8807119,40 27.5,40 L23.5,40 C22.1192881,40 21,38.8807119 21,37.5 C21,36.1192881 22.1192881,35 23.5,35 Z M23.5,39 C24.3284271,39 25,38.3284271 25,37.5 C25,36.6715729 24.3284271,36 23.5,36 L27.5,36 C26.6715729,36 26,36.6715729 26,37.5 C26,38.3284271 26.6715729,39 27.5,39 L23.5,39 Z" id="矩形备份" fill="#60759C" fill-rule="nonzero"></path>
        <path d="M48,59 C55.7319865,59 62,52.7319865 62,45 C62,37.2680135 55.7319865,31 48,31 C40.2680135,31 34,37.2680135 34,45 C34,52.7319865 40.2680135,59 48,59 Z M48,55 C42.4771525,55 38,50.5228475 38,45 C38,39.4771525 42.4771525,35 48,35 C53.5228475,35 58,39.4771525 58,45 C58,50.5228475 53.5228475,55 48,55 Z" id="椭圆形" fill="#60759C" fill-rule="nonzero"></path>
        <path d="M49,41 C49,39.8954305 48.1045695,39 47,39 C45.8954305,39 45,39.8954305 45,41 L45,45.8333333 C45,47.4901876 46.3431458,48.8333333 48,48.8333333 L52,48.8333333 C53.1045695,48.8333333 54,47.9379028 54,46.8333333 C54,45.7287638 53.1045695,44.8333333 52,44.8333333 L49,44.8333333 L49,41 Z" id="路径-9" fill="#60759C" fill-rule="nonzero"></path>
    </g>
</svg>