<?xml version="1.0" encoding="UTF-8"?>
<svg width="72px" height="72px" viewBox="0 0 72 72" version="1.1" xmlns="http://www.w3.org/2000/svg" xmlns:xlink="http://www.w3.org/1999/xlink">
    <!-- Generator: Sketch 63.1 (92452) - https://sketch.com -->
    <title>现金管理查询</title>
    <desc>Created with Sketch.</desc>
    <g id="现金管理查询" stroke="none" stroke-width="1" fill="none" fill-rule="evenodd">
        <g id="编组-2" transform="translate(11.000000, 13.000000)" fill="#60759C">
            <path d="M44.75,32.0383322 L44.75,40.25 C44.75,42.7352814 42.7352814,44.75 40.25,44.75 L7,44.75 C4.51471863,44.75 2.5,42.7352814 2.5,40.25 L2.5,7 C2.5,4.51471863 4.51471863,2.5 7,2.5 L13.9790194,2.5 C15.3597312,2.5 16.4790194,1.38071187 16.4790194,0 C16.4790194,-1.38071187 15.3597312,-2.5 13.9790194,-2.5 L7,-2.5 C1.75329488,-2.5 -2.5,1.75329488 -2.5,7 L-2.5,40.25 C-2.5,45.4967051 1.75329488,49.75 7,49.75 L40.25,49.75 C45.4967051,49.75 49.75,45.4967051 49.75,40.25 L49.75,32.0383322 C49.75,30.6576203 48.6307119,29.5383322 47.25,29.5383322 C45.8692881,29.5383322 44.75,30.6576203 44.75,32.0383322 Z" id="路径" fill-rule="nonzero" transform="translate(23.625000, 23.625000) scale(1, -1) translate(-23.625000, -23.625000) "></path>
            <g id="编组" transform="translate(34.667129, 37.328476) rotate(-17.000000) translate(-34.667129, -37.328476) translate(21.167129, 18.328476)">
                <path d="M21.2827624,22.0414309 C22.4853179,22.0414309 23.4601818,23.0162947 23.4601818,24.2188502 L23.4601818,35.5414309 C23.4601818,36.7439864 22.4853179,37.7188502 21.2827624,37.7188502 C20.0802069,37.7188502 19.105343,36.7439864 19.105343,35.5414309 L19.105343,24.2188502 C19.105343,23.0162947 20.0802069,22.0414309 21.2827624,22.0414309 Z" id="矩形" transform="translate(21.282762, 29.880141) rotate(-29.000000) translate(-21.282762, -29.880141) "></path>
                <path d="M12.4456427,26.8318402 C20.3201543,26.8318402 26.7037072,20.4482873 26.7037072,12.5737757 C26.7037072,4.69926414 20.3201543,-1.68428878 12.4456427,-1.68428878 C4.57113107,-1.68428878 -1.81242185,4.69926414 -1.81242185,12.5737757 C-1.81242185,20.4482873 4.57113107,26.8318402 12.4456427,26.8318402 Z M12.4456427,21.8318402 C7.33255482,21.8318402 3.18757815,17.6868636 3.18757815,12.5737757 C3.18757815,7.46068789 7.33255482,3.31571122 12.4456427,3.31571122 C17.5587305,3.31571122 21.7037072,7.46068789 21.7037072,12.5737757 C21.7037072,17.6868636 17.5587305,21.8318402 12.4456427,21.8318402 Z" id="椭圆形" fill-rule="nonzero"></path>
            </g>
        </g>
    </g>
</svg>