<?xml version="1.0" encoding="UTF-8"?>
<svg width="72px" height="72px" viewBox="0 0 72 72" version="1.1" xmlns="http://www.w3.org/2000/svg" xmlns:xlink="http://www.w3.org/1999/xlink">
    <!-- Generator: Sketch 63.1 (92452) - https://sketch.com -->
    <title>银企直连管理</title>
    <desc>Created with Sketch.</desc>
    <g id="银企直连管理" stroke="none" stroke-width="1" fill="none" fill-rule="evenodd">
        <path d="M59.5,41.6045476 L59.5,54.2962963 C59.5,57.1702225 57.1702225,59.5 54.2962963,59.5 L17.7037037,59.5 C14.8297775,59.5 12.5,57.1702225 12.5,54.2962963 L12.5,17.7037037 C12.5,14.8297775 14.8297775,12.5 17.7037037,12.5 L30,12.5 C31.3807119,12.5 32.5,11.3807119 32.5,10 C32.5,8.61928813 31.3807119,7.5 30,7.5 L17.7037037,7.5 C12.0683538,7.5 7.5,12.0683538 7.5,17.7037037 L7.5,54.2962963 C7.5,59.9316462 12.0683538,64.5 17.7037037,64.5 L54.2962963,64.5 C59.9316462,64.5 64.5,59.9316462 64.5,54.2962963 L64.5,41.6045476 C64.5,40.2238358 63.3807119,39.1045476 62,39.1045476 C60.6192881,39.1045476 59.5,40.2238358 59.5,41.6045476 Z" id="路径" fill="#60759C" fill-rule="nonzero" transform="translate(36.000000, 36.000000) scale(1, -1) translate(-36.000000, -36.000000) "></path>
        <path d="M22.5,40.0933449 L33.5,40.0933449 C34.8807119,40.0933449 36,41.212633 36,42.5933449 C36,43.9740567 34.8807119,45.0933449 33.5,45.0933449 L22.5,45.0933449 C21.1192881,45.0933449 20,43.9740567 20,42.5933449 C20,41.212633 21.1192881,40.0933449 22.5,40.0933449 Z M22.5,44.0933449 C23.3284271,44.0933449 24,43.421772 24,42.5933449 C24,41.7649177 23.3284271,41.0933449 22.5,41.0933449 L33.5,41.0933449 C32.6715729,41.0933449 32,41.7649177 32,42.5933449 C32,43.421772 32.6715729,44.0933449 33.5,44.0933449 L22.5,44.0933449 Z" id="矩形" fill="#60759C" fill-rule="nonzero" transform="translate(28.000000, 42.593345) scale(1, -1) translate(-28.000000, -42.593345) "></path>
        <path d="M22.5,25.0933449 L49.5,25.0933449 C50.8807119,25.0933449 52,26.212633 52,27.5933449 C52,28.9740567 50.8807119,30.0933449 49.5,30.0933449 L22.5,30.0933449 C21.1192881,30.0933449 20,28.9740567 20,27.5933449 C20,26.212633 21.1192881,25.0933449 22.5,25.0933449 Z M22.5,29.0933449 C23.3284271,29.0933449 24,28.421772 24,27.5933449 C24,26.7649177 23.3284271,26.0933449 22.5,26.0933449 L49.5,26.0933449 C48.6715729,26.0933449 48,26.7649177 48,27.5933449 C48,28.421772 48.6715729,29.0933449 49.5,29.0933449 L22.5,29.0933449 Z" id="矩形备份" fill="#60759C" fill-rule="nonzero" transform="translate(36.000000, 27.593345) scale(1, -1) translate(-36.000000, -27.593345) "></path>
        <g id="编组-3" transform="translate(38.000000, 40.000000)" fill="#60759C" fill-rule="nonzero">
            <g id="编组">
                <path d="M10.0945013,6.05087614 L24.8182995,6.05087614 C25.97989,6.05087614 26.9215452,6.99253133 26.9215452,8.15412186 C26.9215452,9.3157124 25.97989,10.2573676 24.8182995,10.2573676 L2.8151135,10.2573676 C1.65352296,10.2573676 0.711867782,9.3157124 0.711867782,8.15412186 C0.711867782,7.83703275 0.782037289,7.53633261 0.907695378,7.26670236 C1.02253914,6.89222398 1.256664,6.55104434 1.59975445,6.30544931 C1.64183252,6.27532849 1.68515498,6.24698513 1.72960769,6.2204939 L10.539679,0.970204772 C11.5238099,0.383720113 12.7970453,0.706076066 13.38353,1.69020694 C13.388426,1.69842247 13.3932651,1.70667175 13.3980469,1.7149542 C13.9788422,2.72092111 13.6341725,4.00724602 12.6282056,4.58804128 L10.0945013,6.05087614 Z M13.0993295,5.26534031 L4.2892582,10.5156294 C4.36486111,10.4705745 4.43854174,10.4223696 4.510106,10.3711416 C5.07495418,9.96680536 5.48731505,9.38692887 5.68795309,8.73269559 L5.58624069,9.06435571 L5.43970135,9.37879181 C5.61799464,8.99621983 5.71186778,8.57692006 5.71186778,8.15412186 C5.71186778,6.55428865 4.41494671,5.25736758 2.8151135,5.25736758 L10.0894652,5.25736758 C10.9842132,5.79636943 12.1393032,5.83746001 13.0993295,5.26534031 Z" id="形状结合"></path>
            </g>
            <g id="编组" transform="translate(13.583333, 20.321386) scale(-1, -1) translate(-13.583333, -20.321386) translate(0.083333, 14.821386)">
                <path d="M10.0945013,6.05087614 L24.8182995,6.05087614 C25.97989,6.05087614 26.9215452,6.99253133 26.9215452,8.15412186 C26.9215452,9.3157124 25.97989,10.2573676 24.8182995,10.2573676 L2.8151135,10.2573676 C1.65352296,10.2573676 0.711867782,9.3157124 0.711867782,8.15412186 C0.711867782,7.83703275 0.782037289,7.53633261 0.907695378,7.26670236 C1.02253914,6.89222398 1.256664,6.55104434 1.59975445,6.30544931 C1.64183252,6.27532849 1.68515498,6.24698513 1.72960769,6.2204939 L10.539679,0.970204772 C11.5238099,0.383720113 12.7970453,0.706076066 13.38353,1.69020694 C13.388426,1.69842247 13.3932651,1.70667175 13.3980469,1.7149542 C13.9788422,2.72092111 13.6341725,4.00724602 12.6282056,4.58804128 L10.0945013,6.05087614 Z M13.0993295,5.26534031 L4.2892582,10.5156294 C4.36486111,10.4705745 4.43854174,10.4223696 4.510106,10.3711416 C5.07495418,9.96680536 5.48731505,9.38692887 5.68795309,8.73269559 L5.58624069,9.06435571 L5.43970135,9.37879181 C5.61799464,8.99621983 5.71186778,8.57692006 5.71186778,8.15412186 C5.71186778,6.55428865 4.41494671,5.25736758 2.8151135,5.25736758 L10.0894652,5.25736758 C10.9842132,5.79636943 12.1393032,5.83746001 13.0993295,5.26534031 Z" id="形状结合"></path>
            </g>
        </g>
    </g>
</svg>