<?xml version="1.0" encoding="UTF-8"?>
<svg width="72px" height="72px" viewBox="0 0 72 72" version="1.1" xmlns="http://www.w3.org/2000/svg" xmlns:xlink="http://www.w3.org/1999/xlink">
    <!-- Generator: Sketch 63.1 (92452) - https://sketch.com -->
    <title>付款计划</title>
    <desc>Created with Sketch.</desc>
    <g id="付款计划" stroke="none" stroke-width="1" fill="none" fill-rule="evenodd">
        <path d="M55.5,43.5 L55.5,50.1851852 C55.5,52.5681916 53.5681916,54.5 51.1851852,54.5 L18.8148148,54.5 C16.4318084,54.5 14.5,52.5681916 14.5,50.1851852 L14.5,17.8148148 C14.5,15.4318084 16.4318084,13.5 18.8148148,13.5 L27.8020247,13.5 C29.1827366,13.5 30.3020247,12.3807119 30.3020247,11 C30.3020247,9.61928813 29.1827366,8.5 27.8020247,8.5 L18.8148148,8.5 C13.6703846,8.5 9.5,12.6703846 9.5,17.8148148 L9.5,50.1851852 C9.5,55.3296154 13.6703846,59.5 18.8148148,59.5 L51.1851852,59.5 C56.3296154,59.5 60.5,55.3296154 60.5,50.1851852 L60.5,43.5 C60.5,42.1192881 59.3807119,41 58,41 C56.6192881,41 55.5,42.1192881 55.5,43.5 Z" id="路径" fill="#60759C" fill-rule="nonzero" transform="translate(35.000000, 34.000000) scale(1, -1) translate(-35.000000, -34.000000) "></path>
        <path d="M43.5,20 L47.5,20 C48.8807119,20 50,21.1192881 50,22.5 C50,23.8807119 48.8807119,25 47.5,25 L43.5,25 C42.1192881,25 41,23.8807119 41,22.5 C41,21.1192881 42.1192881,20 43.5,20 Z M43.5,24 C44.3284271,24 45,23.3284271 45,22.5 C45,21.6715729 44.3284271,21 43.5,21 L47.5,21 C46.6715729,21 46,21.6715729 46,22.5 C46,23.3284271 46.6715729,24 47.5,24 L43.5,24 Z" id="矩形备份" fill="#60759C" fill-rule="nonzero"></path>
        <path d="M50,61 C57.7319865,61 64,54.7319865 64,47 C64,39.2680135 57.7319865,33 50,33 C42.2680135,33 36,39.2680135 36,47 C36,54.7319865 42.2680135,61 50,61 Z M50,57 C44.4771525,57 40,52.5228475 40,47 C40,41.4771525 44.4771525,37 50,37 C55.5228475,37 60,41.4771525 60,47 C60,52.5228475 55.5228475,57 50,57 Z" id="椭圆形" fill="#60759C" fill-rule="nonzero"></path>
        <path d="M51,43 C51,41.8954305 50.1045695,41 49,41 C47.8954305,41 47,41.8954305 47,43 L47,47.8333333 C47,49.4901876 48.3431458,50.8333333 50,50.8333333 L54,50.8333333 C55.1045695,50.8333333 56,49.9379028 56,48.8333333 C56,47.7287638 55.1045695,46.8333333 54,46.8333333 L51,46.8333333 L51,43 Z" id="路径-9" fill="#60759C" fill-rule="nonzero"></path>
        <path d="M22.3136344,22.7974588 C21.480734,22.0719585 20.2174006,22.1590236 19.4919003,22.991924 C18.7664001,23.8248245 18.8534651,25.0881578 19.6863656,25.8136581 L23.53885,29.1693755 C24.7552647,30.2289369 26.5918052,30.1368577 27.6961391,28.9609402 L34.8257876,21.3691428 C35.5819443,20.5639715 35.5422101,19.2982651 34.7370388,18.5421084 C33.9318675,17.7859517 32.6661611,17.8256859 31.9100044,18.6308572 L25.4397745,25.5204919 L22.3136344,22.7974588 Z" id="路径-2" fill="#60759C" fill-rule="nonzero"></path>
        <path d="M22.3136344,36.7974588 C21.480734,36.0719585 20.2174006,36.1590236 19.4919003,36.991924 C18.7664001,37.8248245 18.8534651,39.0881578 19.6863656,39.8136581 L23.53885,43.1693755 C24.7552647,44.2289369 26.5918052,44.1368577 27.6961391,42.9609402 L34.8257876,35.3691428 C35.5819443,34.5639715 35.5422101,33.2982651 34.7370388,32.5421084 C33.9318675,31.7859517 32.6661611,31.8256859 31.9100044,32.6308572 L25.4397745,39.5204919 L22.3136344,36.7974588 Z" id="路径-2" fill="#60759C" fill-rule="nonzero"></path>
    </g>
</svg>