<?xml version="1.0" encoding="UTF-8"?>
<svg width="72px" height="72px" viewBox="0 0 72 72" version="1.1" xmlns="http://www.w3.org/2000/svg" xmlns:xlink="http://www.w3.org/1999/xlink">
    <!-- Generator: Sketch 63.1 (92452) - https://sketch.com -->
    <title>定期存款管理</title>
    <desc>Created with Sketch.</desc>
    <g id="定期存款管理" stroke="none" stroke-width="1" fill="none" fill-rule="evenodd">
        <g id="编组-2" transform="translate(16.000000, 14.000000)" fill="#60759C" fill-rule="nonzero">
            <path d="M3.09286597,6.87857674 C3.52846106,4.29095903 5.38884994,2.5 7.42307692,2.5 L38.5769231,2.5 C40.9329505,2.5 43,4.88859052 43,8 L43,36 C43,39.1114095 40.9329505,41.5 38.5769231,41.5 L7.42307692,41.5 C5.4412293,41.5 3.61913407,39.800037 3.12602784,37.3027945 C2.85855664,35.9482376 1.54364304,35.0669805 0.189086128,35.3344517 C-1.16547079,35.6019229 -2.04672788,36.9168365 -1.77925667,38.2713935 C-0.846828512,42.9934981 2.91159476,46.5 7.42307692,46.5 L38.5769231,46.5 C43.8679153,46.5 48,41.7251465 48,36 L48,8 C48,2.27485348 43.8679153,-2.5 38.5769231,-2.5 L7.42307692,-2.5 C2.80121628,-2.5 -1.01756632,1.17626534 -1.83776058,6.0485636 C-2.06696238,7.41011852 -1.1490088,8.69968164 0.212546121,8.92888344 C1.57410105,9.15808524 2.86366417,8.24013167 3.09286597,6.87857674 Z" id="形状结合"></path>
        </g>
        <path d="M26,35.6699532 C26,36.3081725 25.7147295,36.8866076 25.2652699,37.2828732 L17.9315985,43.7824428 C17.5404609,44.1248713 17.0228533,44.3333333 16.4583347,44.3333333 C15.2399125,44.3333333 14.2531934,43.3655188 14.2531934,42.1692098 C14.2531934,41.5237915 14.538464,40.9525555 14.9879235,40.5562899 L18.0609211,37.8343897 L8.1984849,37.8343897 C6.98386637,37.8343897 6,36.8665752 6,35.6633801 C6,34.4670712 6.98386637,33.4992566 8.1984849,33.4992566 L18.0609211,33.4992566 L14.9879235,30.7770434 C14.538464,30.3804648 14.2531934,29.8057858 14.2531934,29.1644365 C14.2531934,27.9678146 15.2399125,27 16.4583347,27 C17.0228533,27 17.5404609,27.208462 17.9315985,27.5577767 L25.2652699,34.0570333 C25.7144125,34.4532989 26,35.031421 26,35.6699532" id="路径" fill="#60759C"></path>
        <g id="编组-4" transform="translate(30.000000, 24.000000)" fill="#60759C">
            <path d="M3.46079931,8.5 L3.47671797,6.98424764 C3.47865197,6.80009503 3.48123459,6.62275879 3.48527506,6.38079548 C3.49577059,5.75227187 3.49644773,5.7054726 3.49644773,5.52631579 C3.49644773,1.64578873 6.64223646,-1.5 10.5227635,-1.5 C14.4032906,-1.5 17.5490793,1.64578873 17.5490793,5.52631579 C17.5490793,5.74094041 17.5743974,6.04668147 17.6546401,6.85111261 L17.819118,8.5 L3.46079931,8.5 Z M14.5489951,5.5 C14.53484,3.28843828 12.7376578,1.5 10.5227635,1.5 C8.30786923,1.5 6.51068708,3.28843828 6.49653192,5.5 L14.5489951,5.5 Z" id="形状结合" fill-rule="nonzero"></path>
            <path d="M3,5.63157895 L18,5.63157895 C19.6568542,5.63157895 21,6.9747247 21,8.63157895 L21,19.2105263 C21,20.8673806 19.6568542,22.2105263 18,22.2105263 L3,22.2105263 C1.34314575,22.2105263 0,20.8673806 0,19.2105263 L0,8.63157895 C0,6.9747247 1.34314575,5.63157895 3,5.63157895 Z M3,8.63157895 L3,19.2105263 L18,19.2105263 L18,8.63157895 L3,8.63157895 Z" id="矩形" fill-rule="nonzero"></path>
            <rect id="矩形" x="9.39473684" y="10.0526316" width="2.21052632" height="6.63157895" rx="1.10526316"></rect>
        </g>
    </g>
</svg>