<?xml version="1.0" encoding="UTF-8"?>
<svg width="72px" height="72px" viewBox="0 0 72 72" version="1.1" xmlns="http://www.w3.org/2000/svg" xmlns:xlink="http://www.w3.org/1999/xlink">
    <!-- Generator: Sketch 63.1 (92452) - https://sketch.com -->
    <title>活期存款设置</title>
    <desc>Created with Sketch.</desc>
    <g id="活期存款设置" stroke="none" stroke-width="1" fill="none" fill-rule="evenodd">
        <g id="编组-2" transform="translate(16.000000, 14.000000)" fill="#60759C" fill-rule="nonzero">
            <path d="M3.09286597,6.87857674 C3.52846106,4.29095903 5.38884994,2.5 7.42307692,2.5 L38.5769231,2.5 C40.9329505,2.5 43,4.88859052 43,8 L43,36 C43,39.1114095 40.9329505,41.5 38.5769231,41.5 L7.42307692,41.5 C5.4412293,41.5 3.61913407,39.800037 3.12602784,37.3027945 C2.85855664,35.9482376 1.54364304,35.0669805 0.189086128,35.3344517 C-1.16547079,35.6019229 -2.04672788,36.9168365 -1.77925667,38.2713935 C-0.846828512,42.9934981 2.91159476,46.5 7.42307692,46.5 L38.5769231,46.5 C43.8679153,46.5 48,41.7251465 48,36 L48,8 C48,2.27485348 43.8679153,-2.5 38.5769231,-2.5 L7.42307692,-2.5 C2.80121628,-2.5 -1.01756632,1.17626534 -1.83776058,6.0485636 C-2.06696238,7.41011852 -1.1490088,8.69968164 0.212546121,8.92888344 C1.57410105,9.15808524 2.86366417,8.24013167 3.09286597,6.87857674 Z" id="形状结合"></path>
        </g>
        <path d="M26,35.6699532 C26,36.3081725 25.7147295,36.8866076 25.2652699,37.2828732 L17.9315985,43.7824428 C17.5404609,44.1248713 17.0228533,44.3333333 16.4583347,44.3333333 C15.2399125,44.3333333 14.2531934,43.3655188 14.2531934,42.1692098 C14.2531934,41.5237915 14.538464,40.9525555 14.9879235,40.5562899 L18.0609211,37.8343897 L8.1984849,37.8343897 C6.98386637,37.8343897 6,36.8665752 6,35.6633801 C6,34.4670712 6.98386637,33.4992566 8.1984849,33.4992566 L18.0609211,33.4992566 L14.9879235,30.7770434 C14.538464,30.3804648 14.2531934,29.8057858 14.2531934,29.1644365 C14.2531934,27.9678146 15.2399125,27 16.4583347,27 C17.0228533,27 17.5404609,27.208462 17.9315985,27.5577767 L25.2652699,34.0570333 C25.7144125,34.4532989 26,35.031421 26,35.6699532" id="路径" fill="#60759C"></path>
        <g id="现金" transform="translate(36.000000, 29.000000)" fill="#60759C" fill-rule="nonzero">
            <g id="时间轴-羊角标">
                <path d="M9.7058167,8.78332565 C9.84881686,8.95440534 9.93076642,9.15876583 9.94891671,9.39640586 C9.93076669,9.64340614 9.8488166,9.84984613 9.7058167,10.0152066 C9.56226599,10.1816068 9.36701577,10.2736466 9.11731601,10.2934069 L6.36290851,10.2793669 L6.36290851,11.7894507 C6.32550847,12.5964914 5.88000768,13.0000123 5.02860642,13.0000123 C4.60785593,13.0000123 4.28060555,12.9012122 4.04630474,12.701012 C3.8109042,12.5018515 3.68440405,12.1981717 3.66625376,11.7894507 L3.66625376,10.3074489 L0.896444631,10.3074489 C0.639044063,10.2887289 0.4399441,10.1816088 0.301893402,9.98712807 L0.301893378,9.98712803 C0.163422391,9.79374646 0.0769543951,9.57134083 0.0499928158,9.33920677 C0.0791428498,9.10208599 0.162742947,8.90760627 0.301893378,8.75524584 C0.439393538,8.60340591 0.639044038,8.51760581 0.896444606,8.49836605 L3.66625374,8.49836605 L3.66625374,7.08084389 L0.896444606,7.06680387 C0.639044038,7.04756385 0.439944075,6.95760375 0.301893378,6.79640356 C0.162742947,6.63416362 0.0791431183,6.42980313 0.0499928158,6.18280284 C0.0791428498,5.94568206 0.162742947,5.75120234 0.301893378,5.59884191 C0.439393538,5.44700199 0.639044038,5.36172113 0.896444606,5.34248136 L2.96280077,5.34248136 L1.04000068,1.98120303 L1.04000069,1.98120304 C0.931398658,1.8468814 0.839839934,1.70097781 0.767199835,1.54648203 L0.767199797,1.54648195 C0.680388856,1.36562051 0.641139408,1.16758864 0.652799664,0.969281278 C0.700099719,0.703041222 0.796350368,0.487240971 0.938799997,0.320840777 C1.0828999,0.154961092 1.35130048,0.0478404595 1.74290066,0.000519896584 C1.97225066,0.0192399184 2.1785009,0.0982800103 2.36000111,0.236080425 C2.54150132,0.373360077 2.6900015,0.523120505 2.80550163,0.684320692 L4.98569826,4.64516124 L7.38150427,0.656238628 C7.4959044,0.495038441 7.64495404,0.352038274 7.82700479,0.228798385 C8.008505,0.103998367 8.21365551,0.0285981519 8.44300551,-1.88136643e-06 C8.58710541,0.00935812953 8.71800583,0.0285981519 8.83790623,0.0566781846 C8.95615637,0.0857982185 9.06230676,0.133118274 9.15360606,0.200198859 C9.24380617,0.266238936 9.32080572,0.361399047 9.38295606,0.484638936 C9.44510613,0.60787908 9.48965619,0.769599522 9.51880595,0.969279247 C9.51880595,1.24487957 9.42365584,1.50591962 9.23225508,1.7529199 L7.00860625,5.34300611 L9.11786408,5.34300611 C9.3664641,5.36172614 9.56281406,5.44752623 9.70526503,5.59936667 C9.8482652,5.7517271 9.93021476,5.94620682 9.94946478,6.1833276 C9.93021476,6.43084839 9.84661466,6.63988838 9.69866395,6.81044884 C9.55016378,6.98100929 9.35216355,7.07564915 9.10301299,7.09540942 L6.3623555,7.10944944 L6.3623555,8.49836902 L9.116763,8.49836902 C9.36646276,8.51760905 9.56171298,8.61276916 9.70526369,8.78332961 L9.7058167,8.78332565 Z" id="路径"></path>
            </g>
        </g>
        <path d="M53.1102285,39.1766234 C52.8926636,39.9759712 52.068293,40.4475995 51.2689451,40.2300347 C50.4695972,40.0124698 49.9979689,39.1880991 50.2155338,38.3887512 C50.4172316,37.6476999 50.5,36.9355482 50.5,36 C50.5,30.7532949 46.2467051,26.5 41,26.5 C37.6504826,26.5 34.6039942,28.2461446 32.8881288,31.0525173 C32.4559878,31.7593028 31.5327055,31.9819461 30.82592,31.5498051 C30.1191346,31.1176641 29.8964913,30.1943818 30.3286323,29.4875963 C32.5840385,25.7987813 36.5947087,23.5 41,23.5 C47.9035594,23.5 53.5,29.0964406 53.5,36 C53.5,37.1869128 53.3868856,38.1601669 53.1102285,39.1766234 Z M28.5,36 C28.5,35.1715729 29.1715729,34.5 30,34.5 C30.8284271,34.5 31.5,35.1715729 31.5,36 C31.5,41.2467051 35.7532949,45.5 41,45.5 C43.5230331,45.5 45.8866092,44.5140736 47.6519638,42.7824361 C48.2433707,42.2023246 49.1930741,42.2114813 49.7731856,42.8028883 C50.353297,43.3942952 50.3441403,44.3439985 49.7527333,44.92411 C47.4320418,47.200478 44.3166781,48.5 41,48.5 C34.0964406,48.5 28.5,42.9035594 28.5,36 Z" id="形状" fill="#60759C" fill-rule="nonzero" transform="translate(41.000000, 36.000000) rotate(-23.000000) translate(-41.000000, -36.000000) "></path>
    </g>
</svg>