<?xml version="1.0" encoding="UTF-8"?>
<svg width="72px" height="72px" viewBox="0 0 72 72" version="1.1" xmlns="http://www.w3.org/2000/svg" xmlns:xlink="http://www.w3.org/1999/xlink">
    <!-- Generator: Sketch 63.1 (92452) - https://sketch.com -->
    <title>收证业务</title>
    <desc>Created with Sketch.</desc>
    <g id="收证业务" stroke="none" stroke-width="1" fill="none" fill-rule="evenodd">
        <g id="证" transform="translate(12.000000, 9.000000)" fill="#60759C" fill-rule="nonzero">
            <path d="M23.4825268,-2.20403201 L-1.17993343,10.9990708 C-1.99266662,11.4341693 -2.5,12.2812319 -2.5,13.2031028 L-2.5,40.857631 C-2.5,41.750628 -2.02367931,42.5758177 -1.25040468,43.0224608 L22.7495614,56.8848298 C23.5232688,57.3317228 24.4766602,57.3317234 25.2503681,56.8848313 L49.250402,43.0224623 C50.0236782,42.5758196 50.5,41.7506291 50.5,40.857631 L50.5,13.2997591 C50.5,12.4015776 50.0181799,11.5724259 49.2378223,11.1277103 L25.9002824,-2.17204882 C25.1534561,-2.59765542 24.2403501,-2.60973441 23.4825268,-2.20403201 Z M24.6246805,2.85593742 L45.5,14.7525093 L45.5,39.4145648 L23.9999678,51.8329381 L2.5,39.4145668 L2.5,14.7004342 L24.6246805,2.85593742 Z" id="路径-10"></path>
        </g>
        <path d="M46,24.6699532 C46,25.3081725 45.7147295,25.8866076 45.2652699,26.2828732 L37.9315985,32.7824428 C37.5404609,33.1248713 37.0228533,33.3333333 36.4583347,33.3333333 C35.2399125,33.3333333 34.2531934,32.3655188 34.2531934,31.1692098 C34.2531934,30.5237915 34.538464,29.9525555 34.9879235,29.5562899 L38.0609211,26.8343897 L28.1984849,26.8343897 C26.9838664,26.8343897 26,25.8665752 26,24.6633801 C26,23.4670712 26.9838664,22.4992566 28.1984849,22.4992566 L38.0609211,22.4992566 L34.9879235,19.7770434 C34.538464,19.3804648 34.2531934,18.8057858 34.2531934,18.1644365 C34.2531934,16.9678146 35.2399125,16 36.4583347,16 C37.0228533,16 37.5404609,16.208462 37.9315985,16.5577767 L45.2652699,23.0570333 C45.7144125,23.4532989 46,24.031421 46,24.6699532" id="路径" fill="#60759C" transform="translate(36.000000, 24.666667) rotate(90.000000) translate(-36.000000, -24.666667) "></path>
        <path d="M30.5,48 L41.5,48 C42.8807119,48 44,49.1192881 44,50.5 C44,51.8807119 42.8807119,53 41.5,53 L30.5,53 C29.1192881,53 28,51.8807119 28,50.5 C28,49.1192881 29.1192881,48 30.5,48 Z M30.5,52 C31.3284271,52 32,51.3284271 32,50.5 C32,49.6715729 31.3284271,49 30.5,49 L41.5,49 C40.6715729,49 40,49.6715729 40,50.5 C40,51.3284271 40.6715729,52 41.5,52 L30.5,52 Z" id="矩形" fill="#60759C" fill-rule="nonzero" transform="translate(36.000000, 50.500000) scale(1, -1) translate(-36.000000, -50.500000) "></path>
        <path d="M22.5,38 L49.5,38 C50.8807119,38 52,39.1192881 52,40.5 C52,41.8807119 50.8807119,43 49.5,43 L22.5,43 C21.1192881,43 20,41.8807119 20,40.5 C20,39.1192881 21.1192881,38 22.5,38 Z M22.5,42 C23.3284271,42 24,41.3284271 24,40.5 C24,39.6715729 23.3284271,39 22.5,39 L49.5,39 C48.6715729,39 48,39.6715729 48,40.5 C48,41.3284271 48.6715729,42 49.5,42 L22.5,42 Z" id="矩形备份" fill="#60759C" fill-rule="nonzero" transform="translate(36.000000, 40.500000) scale(1, -1) translate(-36.000000, -40.500000) "></path>
    </g>
</svg>