<?xml version="1.0" encoding="UTF-8"?>
<svg width="72px" height="72px" viewBox="0 0 72 72" version="1.1" xmlns="http://www.w3.org/2000/svg" xmlns:xlink="http://www.w3.org/1999/xlink">
    <!-- Generator: Sketch 63.1 (92452) - https://sketch.com -->
    <title>开证业务</title>
    <desc>Created with Sketch.</desc>
    <g id="开证业务" stroke="none" stroke-width="1" fill="none" fill-rule="evenodd">
        <g id="证" transform="translate(12.000000, 9.000000)" fill="#60759C" fill-rule="nonzero">
            <path d="M23.4825268,-2.20403201 L-1.17993343,10.9990708 C-1.99266662,11.4341693 -2.5,12.2812319 -2.5,13.2031028 L-2.5,40.857631 C-2.5,41.750628 -2.02367931,42.5758177 -1.25040468,43.0224608 L22.7495614,56.8848298 C23.5232688,57.3317228 24.4766602,57.3317234 25.2503681,56.8848313 L49.250402,43.0224623 C50.0236782,42.5758196 50.5,41.7506291 50.5,40.857631 L50.5,13.2997591 C50.5,12.4015776 50.0181799,11.5724259 49.2378223,11.1277103 L25.9002824,-2.17204882 C25.1534561,-2.59765542 24.2403501,-2.60973441 23.4825268,-2.20403201 Z M24.6246805,2.85593742 L45.5,14.7525093 L45.5,39.4145648 L23.9999678,51.8329381 L2.5,39.4145668 L2.5,14.7004342 L24.6246805,2.85593742 Z" id="路径-10"></path>
            <path d="M15.784285,14.3000918 C14.5539662,14.4788824 14.0627134,15.9908276 14.9529801,16.858627 L18.3687077,20.1881533 L17.5617683,24.8897669 C17.3514568,26.1151419 18.6375813,27.049732 19.7380901,26.4712381 L23.961012,24.2514155 L28.1839339,26.4712381 C29.2844427,27.049732 30.5705672,26.1151419 30.3602557,24.8897669 L29.553317,20.1881572 L32.9690394,16.8586641 C33.8593118,15.9908665 33.3680607,14.4789155 32.137739,14.3001245 L27.4169276,13.6140937 L25.3061759,9.33627262 C24.7560014,8.22124408 23.1660273,8.22124201 22.6158498,9.33626912 L20.5050989,13.6140606 L15.784285,14.3000918 Z M25.075575,15.6488102 C25.2940465,16.0915823 25.7164185,16.3984864 26.205024,16.4694908 L28.698607,16.8318596 L26.8945026,18.5904197 C26.5409289,18.9350675 26.3796118,19.4316448 26.4631343,19.9182868 L26.8893265,22.4014859 L24.6589501,21.2290654 C24.2220034,20.9993799 23.7000206,20.9993799 23.2630739,21.2290654 L21.0326975,22.4014859 L21.4588897,19.9182868 C21.5424118,19.431647 21.3810966,18.9350719 21.0275259,18.5904241 L19.223401,16.8318292 L21.717,16.4694581 C22.2056042,16.3984539 22.6279752,16.0915513 22.8464472,15.648781 L23.9610076,13.3899371 L25.075575,15.6488102 Z" id="路径"></path>
        </g>
        <path d="M30.5,48 L41.5,48 C42.8807119,48 44,49.1192881 44,50.5 C44,51.8807119 42.8807119,53 41.5,53 L30.5,53 C29.1192881,53 28,51.8807119 28,50.5 C28,49.1192881 29.1192881,48 30.5,48 Z M30.5,52 C31.3284271,52 32,51.3284271 32,50.5 C32,49.6715729 31.3284271,49 30.5,49 L41.5,49 C40.6715729,49 40,49.6715729 40,50.5 C40,51.3284271 40.6715729,52 41.5,52 L30.5,52 Z" id="矩形" fill="#60759C" fill-rule="nonzero" transform="translate(36.000000, 50.500000) scale(1, -1) translate(-36.000000, -50.500000) "></path>
        <path d="M22.5,38 L49.5,38 C50.8807119,38 52,39.1192881 52,40.5 C52,41.8807119 50.8807119,43 49.5,43 L22.5,43 C21.1192881,43 20,41.8807119 20,40.5 C20,39.1192881 21.1192881,38 22.5,38 Z M22.5,42 C23.3284271,42 24,41.3284271 24,40.5 C24,39.6715729 23.3284271,39 22.5,39 L49.5,39 C48.6715729,39 48,39.6715729 48,40.5 C48,41.3284271 48.6715729,42 49.5,42 L22.5,42 Z" id="矩形备份" fill="#60759C" fill-rule="nonzero" transform="translate(36.000000, 40.500000) scale(1, -1) translate(-36.000000, -40.500000) "></path>
    </g>
</svg>