<?xml version="1.0" encoding="UTF-8"?>
<svg width="72px" height="73px" viewBox="0 0 72 73" version="1.1" xmlns="http://www.w3.org/2000/svg" xmlns:xlink="http://www.w3.org/1999/xlink">
    <!-- Generator: Sketch 63.1 (92452) - https://sketch.com -->
    <title>信用证融资</title>
    <desc>Created with Sketch.</desc>
    <g id="信用证融资" stroke="none" stroke-width="1" fill="none" fill-rule="evenodd" transform="translate(0.000000, 1.000000)">
        <g id="编组-25" transform="translate(34.500000, 33.000000) scale(1, -1) rotate(90.000000) translate(-34.500000, -33.000000) translate(8.500000, 6.500000)" fill="#60759C" fill-rule="nonzero">
            <path d="M3,47 L49,47 C50.6568542,47 52,48.3431458 52,50 C52,51.6568542 50.6568542,53 49,53 L3,53 C1.34314575,53 0,51.6568542 0,50 C0,48.3431458 1.34314575,47 3,47 Z M3,51 C3.55228475,51 4,50.5522847 4,50 C4,49.4477153 3.55228475,49 3,49 L49,49 C48.4477153,49 48,49.4477153 48,50 C48,50.5522847 48.4477153,51 49,51 L3,51 Z" id="矩形备份-2"></path>
            <path d="M-20,23 L26,23 C27.6568542,23 29,24.3431458 29,26 C29,27.6568542 27.6568542,29 26,29 L-20,29 C-21.6568542,29 -23,27.6568542 -23,26 C-23,24.3431458 -21.6568542,23 -20,23 Z M-20,27 C-19.4477153,27 -19,26.5522847 -19,26 C-19,25.4477153 -19.4477153,25 -20,25 L26,25 C25.4477153,25 25,25.4477153 25,26 C25,26.5522847 25.4477153,27 26,27 L-20,27 Z" id="矩形备份-2" transform="translate(3.000000, 26.000000) rotate(90.000000) translate(-3.000000, -26.000000) "></path>
            <path d="M3,31 L26,31 C27.6568542,31 29,32.3431458 29,34 C29,35.6568542 27.6568542,37 26,37 L3,37 C1.34314575,37 0,35.6568542 0,34 C0,32.3431458 1.34314575,31 3,31 Z M3,35 C3.55228475,35 4,34.5522847 4,34 C4,33.4477153 3.55228475,33 3,33 L26,33 C25.4477153,33 25,33.4477153 25,34 C25,34.5522847 25.4477153,35 26,35 L3,35 Z" id="矩形备份"></path>
        </g>
        <path d="M12.9033409,24.9093039 L27.0486202,19.4277415 C27.1984504,19.3696795 27.3670557,19.387165 27.5017826,19.4747374 L38.5179338,26.6352358 C40.2532378,27.7631834 42.4748391,27.8214648 44.2668965,26.7860538 L58.250694,18.7065264 C59.4462042,18.0157871 59.8554019,16.4866799 59.1646627,15.2911697 C58.4739235,14.0956595 56.9448162,13.6864618 55.749306,14.377201 L41.7655085,22.4567284 C41.6025942,22.5508567 41.4006305,22.5455584 41.2428756,22.4430177 L30.2267243,15.2825194 C28.7447284,14.319222 26.8900703,14.1268816 25.2419384,14.7655638 L11.0966591,20.2471262 C9.80923429,20.7460276 9.17000975,22.1941312 9.66891115,23.481556 C10.1678125,24.7689808 11.6159161,25.4082053 12.9033409,24.9093039 Z" id="路径-12" fill="#60759C" fill-rule="nonzero" transform="translate(34.499872, 20.782623) scale(-1, -1) translate(-34.499872, -20.782623) "></path>
        <g id="现金" transform="translate(39.000000, 30.000000)" fill="#60759C" fill-rule="nonzero">
            <g id="时间轴-羊角标">
                <path d="M15.5293067,14.7929695 C15.758107,15.0811037 15.8892263,15.4252898 15.9182667,15.8255257 C15.8892267,16.2415261 15.7581066,16.5892145 15.5293067,16.8677163 C15.2996256,17.1479693 14.9872252,17.3029838 14.5877056,17.3362643 L10.1806536,17.3126179 L10.1806536,19.8559169 C10.1208135,21.2151433 9.40801229,21.8947576 8.04577028,21.8947576 C7.37256949,21.8947576 6.84896888,21.7283574 6.47408759,21.3911781 C6.09744672,21.0557499 5.89504648,20.5442891 5.86600602,19.8559169 L5.86600602,17.359914 L1.43431141,17.359914 C1.0224705,17.3283856 0.70391056,17.1479727 0.483029444,16.8204262 L0.483029404,16.8204262 C0.261475826,16.4947309 0.123127032,16.120153 0.0799885053,15.7291904 C0.12662856,15.329829 0.260388715,15.0022842 0.483029404,14.7456772 C0.70302966,14.4899468 1.02247046,14.3454414 1.43431137,14.3130376 L5.86600598,14.3130376 L5.86600598,11.9256318 L1.43431137,11.9019855 C1.02247046,11.8695812 0.70391052,11.7180695 0.483029404,11.4465744 C0.260388715,11.1733282 0.126628989,10.8291421 0.0799885053,10.4131416 C0.12662856,10.0137803 0.260388715,9.68623552 0.483029404,9.42962848 C0.70302966,9.17389808 1.02247046,9.03026716 1.43431137,8.99786334 L4.74048123,8.99786334 L1.66400109,3.336763 L1.6640011,3.33676302 C1.49023785,3.1105371 1.34374389,2.86480474 1.22751974,2.60460131 L1.22751967,2.60460118 C1.08862217,2.29999244 1.02582305,1.96646507 1.04447946,1.63247373 C1.12015955,1.18406943 1.27416059,0.820616372 1.50207999,0.540363414 C1.73263983,0.260987102 2.16208076,0.0805734054 2.78864106,0.0008756153 C3.15560106,0.032404073 3.48560144,0.165524228 3.77600178,0.397609136 C4.06640212,0.628816971 4.3040024,0.881045061 4.48880261,1.15254011 L7.97711722,7.82342945 L11.8104068,1.10524401 C11.993447,0.833748953 12.2319265,0.592906567 12.5232077,0.385344648 C12.813608,0.175155144 13.1418488,0.0481653085 13.5088088,-3.16861715e-06 C13.7393686,0.0157610603 13.9488093,0.0481653085 14.14065,0.0954579951 C14.3298502,0.144502263 14.4996908,0.224199198 14.6457697,0.337177026 C14.7900899,0.448402419 14.9132892,0.608672079 15.0127297,0.816233998 C15.1121698,1.02379635 15.1834499,1.29616762 15.2300895,1.63247031 C15.2300895,2.09663927 15.0778493,2.53628567 14.7716081,2.95228615 L11.21377,8.99874714 L14.5885825,8.99874714 C14.9863426,9.0302756 15.3005025,9.17478103 15.5284241,9.43051228 C15.7572243,9.68711932 15.8883436,10.0146641 15.9191436,10.4140254 C15.8883436,10.8309026 15.7545835,11.1829699 15.5178623,11.4702296 C15.280262,11.7574893 14.9634617,11.9168828 14.5648208,11.9501632 L10.1797688,11.9738096 L10.1797688,14.3130426 L14.5868208,14.3130426 C14.9863404,14.3454468 15.2987408,14.5057165 15.5284219,14.7929762 L15.5293067,14.7929695 Z" id="路径"></path>
            </g>
        </g>
    </g>
</svg>