<?xml version="1.0" encoding="UTF-8"?>
<svg width="72px" height="73px" viewBox="0 0 72 73" version="1.1" xmlns="http://www.w3.org/2000/svg" xmlns:xlink="http://www.w3.org/1999/xlink">
    <!-- Generator: Sketch 63.1 (92452) - https://sketch.com -->
    <title>代理发票</title>
    <desc>Created with Sketch.</desc>
    <g id="代理发票" stroke="none" stroke-width="1" fill="none" fill-rule="evenodd" transform="translate(0.000000, 1.000000)">
        <g id="编组-2" transform="translate(10.000000, 13.000000)" fill="#60759C" fill-rule="nonzero">
            <path d="M5.95228833,14.5 L3,14.5 C2.84269782,14.5 2.5,14.0838669 2.5,13.3571429 L2.5,3.64285714 C2.5,2.91613307 2.84269782,2.5 3,2.5 L49,2.5 C49.1573022,2.5 49.5,2.91613307 49.5,3.64285714 L49.5,13.3571429 C49.5,14.0838669 49.1573022,14.5 49,14.5 L45,14.5 C43.6192881,14.5 42.5,15.6192881 42.5,17 C42.5,18.3807119 43.6192881,19.5 45,19.5 L49,19.5 C52.1564063,19.5 54.5,16.6542077 54.5,13.3571429 L54.5,3.64285714 C54.5,0.345792329 52.1564063,-2.5 49,-2.5 L3,-2.5 C-0.156406317,-2.5 -2.5,0.345792329 -2.5,3.64285714 L-2.5,13.3571429 C-2.5,16.6542077 -0.156406317,19.5 3,19.5 L5.95228833,19.5 C7.33300021,19.5 8.45228833,18.3807119 8.45228833,17 C8.45228833,15.6192881 7.33300021,14.5 5.95228833,14.5 Z" id="形状结合"></path>
            <path d="M22.0294888,45.9053348 C21.3982589,46.1755328 20.5604755,46.6557544 19.5723926,47.3219872 C17.3065026,48.9004671 15.5073735,49.7301432 13.8943047,49.7301432 C12.8513994,49.7301432 11.3116045,49.3541753 8.98921285,48.5986822 C6.3121746,47.7278163 4.5,45.232649 4.5,42.4175219 L4.5,14 C4.5,10.4101491 7.41014913,7.5 11,7.5 L41,7.5 C44.5898509,7.5 47.5,10.4101491 47.5,14 L47.5,42.4516587 C47.5,45.198748 45.7730161,47.6492367 43.1859279,48.5730735 L37.609822,50.5642741 L37.5018806,50.600073 C33.3615855,51.8694321 30.2161679,51.8694321 28.0481239,50.1833343 C27.5819232,49.8207679 25.9048188,47.9028879 25.5146093,47.5217669 C24.5116624,46.5421801 23.5618403,45.9364953 22.5853159,45.7113886 C22.454989,45.7405147 22.2665255,45.8038712 22.0294888,45.9053348 Z M41.5044449,43.8642929 C42.1014652,43.6510998 42.5,43.0856024 42.5,42.4516587 L42.5,14 C42.5,13.1715729 41.8284271,12.5 41,12.5 L11,12.5 C10.1715729,12.5 9.5,13.1715729 9.5,14 L9.5,42.4175219 C9.5,43.0671665 9.91819468,43.6429751 10.5359713,43.8439437 C12.3484502,44.433558 13.5631295,44.7301432 13.8943047,44.7301432 C13.9581564,44.7301432 14.219972,44.6581058 14.6277815,44.4700427 C15.1877218,44.2118238 15.8886559,43.7945555 16.7452569,43.1981659 C19.5683755,41.2936609 21.5953645,40.4260079 23.3910747,40.7720218 C25.5286966,41.1839184 27.3187396,42.2946713 29.0082416,43.9448223 C29.7010269,44.6214716 31.1038788,46.2257257 31.117647,46.2364333 C31.3111809,46.3869455 31.7136112,46.5 32.3953935,46.5 C33.3043599,46.5 34.5086384,46.2843879 35.9831823,45.8359092 L41.5044449,43.8642929 Z" id="形状结合"></path>
        </g>
        <path d="M28.5,44 L43.5,44 C44.8807119,44 46,45.1192881 46,46.5 C46,47.8807119 44.8807119,49 43.5,49 L28.5,49 C27.1192881,49 26,47.8807119 26,46.5 C26,45.1192881 27.1192881,44 28.5,44 Z M28.5,48 C29.3284271,48 30,47.3284271 30,46.5 C30,45.6715729 29.3284271,45 28.5,45 L43.5,45 C42.6715729,45 42,45.6715729 42,46.5 C42,47.3284271 42.6715729,48 43.5,48 L28.5,48 Z" id="矩形" fill="#60759C" fill-rule="nonzero" transform="translate(36.000000, 46.500000) scale(1, -1) translate(-36.000000, -46.500000) "></path>
        <path d="M28.5,34 L43.5,34 C44.8807119,34 46,35.1192881 46,36.5 C46,37.8807119 44.8807119,39 43.5,39 L28.5,39 C27.1192881,39 26,37.8807119 26,36.5 C26,35.1192881 27.1192881,34 28.5,34 Z M28.5,38 C29.3284271,38 30,37.3284271 30,36.5 C30,35.6715729 29.3284271,35 28.5,35 L43.5,35 C42.6715729,35 42,35.6715729 42,36.5 C42,37.3284271 42.6715729,38 43.5,38 L28.5,38 Z" id="矩形备份" fill="#60759C" fill-rule="nonzero" transform="translate(36.000000, 36.500000) scale(1, -1) translate(-36.000000, -36.500000) "></path>
    </g>
</svg>