<?xml version="1.0" encoding="UTF-8"?>
<svg width="72px" height="72px" viewBox="0 0 72 72" version="1.1" xmlns="http://www.w3.org/2000/svg" xmlns:xlink="http://www.w3.org/1999/xlink">
    <!-- Generator: Sketch 63.1 (92452) - https://sketch.com -->
    <title>账簿查询</title>
    <desc>Created with Sketch.</desc>
    <g id="账簿查询" stroke="none" stroke-width="1" fill="none" fill-rule="evenodd">
        <g id="编组-3" transform="translate(10.000000, 7.000000)" fill="#60759C">
            <g id="编组" transform="translate(0.000000, 0.000000)" fill-rule="nonzero">
                <path d="M7,0.845807333 C3.41014913,0.845807333 0.5,3.75595646 0.5,7.34580733 L0.5,50.486486 C0.5,54.0763369 3.41014913,56.986486 7,56.986486 L42.5135135,56.986486 C46.1033644,56.986486 49.0135135,54.0763369 49.0135135,50.486486 L49.0135135,15.3593112 C49.0135135,13.8114218 48.2179695,12.3721776 46.9072448,11.5487928 L30.9670087,1.5352889 C30.2498748,1.08479222 29.4201708,0.845807333 28.5732775,0.845807333 L7,0.845807333 Z M28.4292593,5.84580733 L44.0135135,15.6356869 L44.0135135,50.486486 C44.0135135,51.3149131 43.3419406,51.986486 42.5135135,51.986486 L7,51.986486 C6.17157288,51.986486 5.5,51.3149131 5.5,50.486486 L5.5,7.34580733 C5.5,6.51738021 6.17157288,5.84580733 7,5.84580733 L28.4292593,5.84580733 Z" id="路径-5"></path>
                <path d="M26.6081081,2 L26.6081081,12 C26.6081081,16.1421356 29.9659725,19.5 34.1081081,19.5 L46.1081081,19.5 L46.1081081,14.5 L34.1081081,14.5 C32.7273962,14.5 31.6081081,13.3807119 31.6081081,12 L31.6081081,2 L26.6081081,2 Z" id="路径-6"></path>
            </g>
            <path d="M12.6555556,16 L16.8555556,16 C18.2362674,16 19.3555556,17.1192881 19.3555556,18.5 C19.3555556,19.8807119 18.2362674,21 16.8555556,21 L12.6555556,21 C11.2748437,21 10.1555556,19.8807119 10.1555556,18.5 C10.1555556,17.1192881 11.2748437,16 12.6555556,16 Z" id="矩形备份" fill-rule="nonzero"></path>
            <g id="编组-2" transform="translate(11.177778, 22.000000)">
                <g id="编组" transform="translate(14.799257, 16.659613) rotate(-17.000000) translate(-14.799257, -16.659613) translate(4.299257, 2.659613)">
                    <path d="M16.2505283,15.9707249 C17.4254962,15.9816113 18.3753636,16.9313755 18.3863775,18.1063422 L18.4539444,25.314406 C18.4646967,26.4614659 17.5435374,27.4000581 16.3964775,27.4108104 C16.3835737,27.4109314 16.3706691,27.4109321 16.3577653,27.4108125 C15.1827974,27.3999261 14.2329301,26.4501619 14.2219162,25.2751951 L14.1543493,18.0671314 C14.143597,16.9200715 15.0647563,15.9814793 16.2118162,15.970727 C16.2247199,15.970606 16.2376245,15.9706053 16.2505283,15.9707249 Z" id="矩形" transform="translate(16.304147, 21.690769) rotate(-29.000000) translate(-16.304147, -21.690769) "></path>
                    <path d="M9.23538389,19.6631137 C15.1490079,19.6631137 19.9605452,14.956175 19.9605452,9.12762979 C19.9605452,3.29908455 15.1490079,-1.40785408 9.23538389,-1.40785408 C3.32175987,-1.40785408 -1.4897774,3.29908455 -1.4897774,9.12762979 C-1.4897774,14.956175 3.32175987,19.6631137 9.23538389,19.6631137 Z M9.23538389,15.6631137 C5.51146087,15.6631137 2.5102226,12.7271197 2.5102226,9.12762979 C2.5102226,5.52813988 5.51146087,2.59214592 9.23538389,2.59214592 C12.9593069,2.59214592 15.9605452,5.52813988 15.9605452,9.12762979 C15.9605452,12.7271197 12.9593069,15.6631137 9.23538389,15.6631137 Z" id="椭圆形" fill-rule="nonzero"></path>
                </g>
            </g>
        </g>
    </g>
</svg>