<?xml version="1.0" encoding="UTF-8"?>
<svg width="72px" height="73px" viewBox="0 0 72 73" version="1.1" xmlns="http://www.w3.org/2000/svg" xmlns:xlink="http://www.w3.org/1999/xlink">
    <!-- Generator: Sketch 63.1 (92452) - https://sketch.com -->
    <title>应收票据</title>
    <desc>Created with Sketch.</desc>
    <g id="应收票据" stroke="none" stroke-width="1" fill="none" fill-rule="evenodd" transform="translate(0.000000, 1.000000)">
        <g id="编组-2" transform="translate(9.000000, 14.000000)" fill="#60759C" fill-rule="nonzero">
            <path d="M-1.02910976,16.8533808 L-2,16.1027624 L-2,8 C-2,2.20101013 2.70101013,-2.5 8.5,-2.5 L44.5,-2.5 C50.2989899,-2.5 55,2.20101013 55,8 L55,16.7792528 L54.3053204,17.5044295 C53.1525485,18.7078092 52.5,20.2993726 52.5,22 C52.5,23.7006274 53.1525485,25.2921908 54.3053204,26.4955705 L55,27.2207472 L55,36 C55,41.7989899 50.2989899,46.5 44.5,46.5 L8.5,46.5 C2.70101013,46.5 -2,41.7989899 -2,36 L-2,27.8972376 L-1.02910976,27.1466192 C0.556293457,25.9209063 1.5,24.0409264 1.5,22 C1.5,19.9590736 0.556293457,18.0790937 -1.02910976,16.8533808 Z M3,13.7382188 C5.20921935,15.8763588 6.5,18.833344 6.5,22 C6.5,25.166656 5.20921935,28.1236412 3,30.2617812 L3,36 C3,39.0375661 5.46243388,41.5 8.5,41.5 L44.5,41.5 C47.5375661,41.5 50,39.0375661 50,36 L50,29.1597006 C48.3974411,27.1481486 47.5,24.6421443 47.5,22 C47.5,19.3578557 48.3974411,16.8518514 50,14.8402994 L50,8 C50,4.96243388 47.5375661,2.5 44.5,2.5 L8.5,2.5 C5.46243388,2.5 3,4.96243388 3,8 L3,13.7382188 Z" id="形状结合"></path>
        </g>
        <path d="M47,35.5369486 C47,36.2389897 46.6862024,36.8752683 46.1917969,37.3111605 L38.1247583,44.460687 C37.694507,44.8373585 37.1251387,45.0666667 36.5041681,45.0666667 C35.1639038,45.0666667 34.0785128,44.0020707 34.0785128,42.6861308 C34.0785128,41.9761706 34.3923104,41.3478111 34.8867159,40.9119189 L38.2670132,37.9178287 L27.4183334,37.9178287 C26.082253,37.9178287 25,36.8532327 25,35.5297181 C25,34.2137783 26.082253,33.1491823 27.4183334,33.1491823 L38.2670132,33.1491823 L34.8867159,30.1547478 C34.3923104,29.7185113 34.0785128,29.0863644 34.0785128,28.3808801 C34.0785128,27.064596 35.1639038,26 36.5041681,26 C37.1251387,26 37.694507,26.2293082 38.1247583,26.6135544 L46.1917969,33.7627366 C46.6858538,34.1986288 47,34.8345631 47,35.5369486" id="路径" fill="#60759C" transform="translate(36.000000, 35.533333) rotate(90.000000) translate(-36.000000, -35.533333) "></path>
    </g>
</svg>