<?xml version="1.0" encoding="UTF-8"?>
<svg width="72px" height="73px" viewBox="0 0 72 73" version="1.1" xmlns="http://www.w3.org/2000/svg" xmlns:xlink="http://www.w3.org/1999/xlink">
    <!-- Generator: Sketch 63.1 (92452) - https://sketch.com -->
    <title>收到保函</title>
    <desc>Created with Sketch.</desc>
    <g id="收到保函" stroke="none" stroke-width="1" fill="none" fill-rule="evenodd" transform="translate(0.000000, 1.000000)">
        <path d="M29.4325298,55.0205972 C28.7555989,54.6792817 27.9603581,54.6635722 27.2704756,54.9778871 L18.752781,58.8586041 L14.5,55.9372075 L14.5,17.4057974 C14.5,15.5827154 16.4751365,13.9174173 19.1025529,13.9174173 L50.8974471,13.9174173 C53.5248635,13.9174173 55.5,15.5827154 55.5,17.4057974 L55.5,27.5933449 C55.5,28.9740567 56.6192881,30.0933449 58,30.0933449 C59.3807119,30.0933449 60.5,28.9740567 60.5,27.5933449 L60.5,17.4057974 C60.5,12.6142974 56.1152939,8.91741728 50.8974471,8.91741728 L19.1025529,8.91741728 C13.8847061,8.91741728 9.5,12.6142974 9.5,17.4057974 L9.5,57.2528931 C9.5,58.0764724 9.90562259,58.8472162 10.5844645,59.3135384 L17.0871153,63.7804559 C17.8102348,64.2771942 18.7408155,64.3585467 19.5391583,63.9948166 L28.25222,60.025089 L36.0406706,63.9521064 C36.8184033,64.3442473 37.7441698,64.3033379 38.4842814,63.8441239 L42.3180641,61.4653921 C43.49129,60.7374453 43.85226,59.1962405 43.1243133,58.0230146 C42.3963666,56.8497888 40.8551617,56.4888188 39.6819359,57.2167655 L37.0396749,58.8561985 L29.4325298,55.0205972 Z" id="路径" fill="#60759C" fill-rule="nonzero"></path>
        <path d="M22.5,38.0933449 L30.5,38.0933449 C31.8807119,38.0933449 33,39.212633 33,40.5933449 C33,41.9740567 31.8807119,43.0933449 30.5,43.0933449 L22.5,43.0933449 C21.1192881,43.0933449 20,41.9740567 20,40.5933449 C20,39.212633 21.1192881,38.0933449 22.5,38.0933449 Z M22.5,42.0933449 C23.3284271,42.0933449 24,41.421772 24,40.5933449 C24,39.7649177 23.3284271,39.0933449 22.5,39.0933449 L30.5,39.0933449 C29.6715729,39.0933449 29,39.7649177 29,40.5933449 C29,41.421772 29.6715729,42.0933449 30.5,42.0933449 L22.5,42.0933449 Z" id="矩形" fill="#60759C" fill-rule="nonzero" transform="translate(26.500000, 40.593345) scale(1, -1) translate(-26.500000, -40.593345) "></path>
        <path d="M22.5,25.0933449 L42.5,25.0933449 C43.8807119,25.0933449 45,26.212633 45,27.5933449 C45,28.9740567 43.8807119,30.0933449 42.5,30.0933449 L22.5,30.0933449 C21.1192881,30.0933449 20,28.9740567 20,27.5933449 C20,26.212633 21.1192881,25.0933449 22.5,25.0933449 Z M22.5,29.0933449 C23.3284271,29.0933449 24,28.421772 24,27.5933449 C24,26.7649177 23.3284271,26.0933449 22.5,26.0933449 L42.5,26.0933449 C41.6715729,26.0933449 41,26.7649177 41,27.5933449 C41,28.421772 41.6715729,29.0933449 42.5,29.0933449 L22.5,29.0933449 Z" id="矩形备份" fill="#60759C" fill-rule="nonzero" transform="translate(32.500000, 27.593345) scale(1, -1) translate(-32.500000, -27.593345) "></path>
        <path d="M66,49.5369486 C66,50.2389897 65.6862024,50.8752683 65.1917969,51.3111605 L57.1247583,58.460687 C56.694507,58.8373585 56.1251387,59.0666667 55.5041681,59.0666667 C54.1639038,59.0666667 53.0785128,58.0020707 53.0785128,56.6861308 C53.0785128,55.9761706 53.3923104,55.3478111 53.8867159,54.9119189 L57.2670132,51.9178287 L46.4183334,51.9178287 C45.082253,51.9178287 44,50.8532327 44,49.5297181 C44,48.2137783 45.082253,47.1491823 46.4183334,47.1491823 L57.2670132,47.1491823 L53.8867159,44.1547478 C53.3923104,43.7185113 53.0785128,43.0863644 53.0785128,42.3808801 C53.0785128,41.064596 54.1639038,40 55.5041681,40 C56.1251387,40 56.694507,40.2293082 57.1247583,40.6135544 L65.1917969,47.7627366 C65.6858538,48.1986288 66,48.8345631 66,49.5369486" id="路径" fill="#60759C" transform="translate(55.000000, 49.533333) rotate(90.000000) translate(-55.000000, -49.533333) "></path>
    </g>
</svg>