<?xml version="1.0" encoding="UTF-8"?>
<svg width="72px" height="72px" viewBox="0 0 72 72" version="1.1" xmlns="http://www.w3.org/2000/svg" xmlns:xlink="http://www.w3.org/1999/xlink">
    <!-- Generator: Sketch 63.1 (92452) - https://sketch.com -->
    <title>银行票据池</title>
    <desc>Created with Sketch.</desc>
    <g id="银行票据池" stroke="none" stroke-width="1" fill="none" fill-rule="evenodd">
        <g id="编组-2" transform="translate(9.000000, 14.000000)" fill="#60759C" fill-rule="nonzero">
            <path d="M-1.02910976,16.8533808 L-2,16.1027624 L-2,8 C-2,2.20101013 2.70101013,-2.5 8.5,-2.5 L44.5,-2.5 C50.2989899,-2.5 55,2.20101013 55,8 L55,16.7792528 L54.3053204,17.5044295 C53.1525485,18.7078092 52.5,20.2993726 52.5,22 C52.5,23.7006274 53.1525485,25.2921908 54.3053204,26.4955705 L55,27.2207472 L55,36 C55,41.7989899 50.2989899,46.5 44.5,46.5 L8.5,46.5 C2.70101013,46.5 -2,41.7989899 -2,36 L-2,27.8972376 L-1.02910976,27.1466192 C0.556293457,25.9209063 1.5,24.0409264 1.5,22 C1.5,19.9590736 0.556293457,18.0790937 -1.02910976,16.8533808 Z M3,13.7382188 C5.20921935,15.8763588 6.5,18.833344 6.5,22 C6.5,25.166656 5.20921935,28.1236412 3,30.2617812 L3,36 C3,39.0375661 5.46243388,41.5 8.5,41.5 L44.5,41.5 C47.5375661,41.5 50,39.0375661 50,36 L50,29.1597006 C48.3974411,27.1481486 47.5,24.6421443 47.5,22 C47.5,19.3578557 48.3974411,16.8518514 50,14.8402994 L50,8 C50,4.96243388 47.5375661,2.5 44.5,2.5 L8.5,2.5 C5.46243388,2.5 3,4.96243388 3,8 L3,13.7382188 Z" id="形状结合"></path>
        </g>
        <g id="现金" transform="translate(32.000000, 30.000000)" fill="#60759C" fill-rule="nonzero">
            <g id="时间轴-羊角标">
                <path d="M9.7058167,8.78332565 C9.84881686,8.95440534 9.93076642,9.15876583 9.94891671,9.39640586 C9.93076669,9.64340614 9.8488166,9.84984613 9.7058167,10.0152066 C9.56226599,10.1816068 9.36701577,10.2736466 9.11731601,10.2934069 L6.36290851,10.2793669 L6.36290851,11.7894507 C6.32550847,12.5964914 5.88000768,13.0000123 5.02860642,13.0000123 C4.60785593,13.0000123 4.28060555,12.9012122 4.04630474,12.701012 C3.8109042,12.5018515 3.68440405,12.1981717 3.66625376,11.7894507 L3.66625376,10.3074489 L0.896444631,10.3074489 C0.639044063,10.2887289 0.4399441,10.1816088 0.301893402,9.98712807 L0.301893378,9.98712803 C0.163422391,9.79374646 0.0769543951,9.57134083 0.0499928158,9.33920677 C0.0791428498,9.10208599 0.162742947,8.90760627 0.301893378,8.75524584 C0.439393538,8.60340591 0.639044038,8.51760581 0.896444606,8.49836605 L3.66625374,8.49836605 L3.66625374,7.08084389 L0.896444606,7.06680387 C0.639044038,7.04756385 0.439944075,6.95760375 0.301893378,6.79640356 C0.162742947,6.63416362 0.0791431183,6.42980313 0.0499928158,6.18280284 C0.0791428498,5.94568206 0.162742947,5.75120234 0.301893378,5.59884191 C0.439393538,5.44700199 0.639044038,5.36172113 0.896444606,5.34248136 L2.96280077,5.34248136 L1.04000068,1.98120303 L1.04000069,1.98120304 C0.931398658,1.8468814 0.839839934,1.70097781 0.767199835,1.54648203 L0.767199797,1.54648195 C0.680388856,1.36562051 0.641139408,1.16758864 0.652799664,0.969281278 C0.700099719,0.703041222 0.796350368,0.487240971 0.938799997,0.320840777 C1.0828999,0.154961092 1.35130048,0.0478404595 1.74290066,0.000519896584 C1.97225066,0.0192399184 2.1785009,0.0982800103 2.36000111,0.236080425 C2.54150132,0.373360077 2.6900015,0.523120505 2.80550163,0.684320692 L4.98569826,4.64516124 L7.38150427,0.656238628 C7.4959044,0.495038441 7.64495404,0.352038274 7.82700479,0.228798385 C8.008505,0.103998367 8.21365551,0.0285981519 8.44300551,-1.88136643e-06 C8.58710541,0.00935812953 8.71800583,0.0285981519 8.83790623,0.0566781846 C8.95615637,0.0857982185 9.06230676,0.133118274 9.15360606,0.200198859 C9.24380617,0.266238936 9.32080572,0.361399047 9.38295606,0.484638936 C9.44510613,0.60787908 9.48965619,0.769599522 9.51880595,0.969279247 C9.51880595,1.24487957 9.42365584,1.50591962 9.23225508,1.7529199 L7.00860625,5.34300611 L9.11786408,5.34300611 C9.3664641,5.36172614 9.56281406,5.44752623 9.70526503,5.59936667 C9.8482652,5.7517271 9.93021476,5.94620682 9.94946478,6.1833276 C9.93021476,6.43084839 9.84661466,6.63988838 9.69866395,6.81044884 C9.55016378,6.98100929 9.35216355,7.07564915 9.10301299,7.09540942 L6.3623555,7.10944944 L6.3623555,8.49836902 L9.116763,8.49836902 C9.36646276,8.51760905 9.56171298,8.61276916 9.70526369,8.78332961 L9.7058167,8.78332565 Z" id="路径"></path>
            </g>
        </g>
        <path d="M51.0336106,40.3090523 C50.8160457,41.1084002 49.991675,41.5800285 49.1923272,41.3624636 C48.3929793,41.1448987 47.921351,40.3205281 48.1389159,39.5211802 C48.3949722,38.580412 48.5,37.676737 48.5,36.5 C48.5,29.872583 43.127417,24.5 36.5,24.5 C32.2692543,24.5 28.4208161,26.7057953 26.2536698,30.2502575 C25.8215288,30.957043 24.8982465,31.1796863 24.191461,30.7475453 C23.4846756,30.3154043 23.2620323,29.392122 23.6941733,28.6853365 C26.4008604,24.2584319 31.2134804,21.5 36.5,21.5 C44.7842712,21.5 51.5,28.2157288 51.5,36.5 C51.5,37.9281016 51.3646261,39.0928791 51.0336106,40.3090523 Z M21.5,36.5 C21.5,35.6715729 22.1715729,35 23,35 C23.8284271,35 24.5,35.6715729 24.5,36.5 C24.5,43.127417 29.872583,48.5 36.5,48.5 C39.6866366,48.5 42.6728196,47.2543636 44.9024976,45.0672708 C45.4939045,44.4871594 46.4436078,44.4963161 47.0237193,45.0877231 C47.6038308,45.67913 47.594674,46.6288333 47.0032671,47.2089448 C44.2182522,49.940768 40.4802816,51.5 36.5,51.5 C28.2157288,51.5 21.5,44.7842712 21.5,36.5 Z" id="形状" fill="#60759C" fill-rule="nonzero" transform="translate(36.500000, 36.500000) rotate(-23.000000) translate(-36.500000, -36.500000) "></path>
    </g>
</svg>