<?xml version="1.0" encoding="UTF-8"?>
<svg width="72px" height="72px" viewBox="0 0 72 72" version="1.1" xmlns="http://www.w3.org/2000/svg" xmlns:xlink="http://www.w3.org/1999/xlink">
    <!-- Generator: Sketch 63.1 (92452) - https://sketch.com -->
    <title>内部转账业务</title>
    <desc>Created with Sketch.</desc>
    <g id="内部转账业务" stroke="none" stroke-width="1" fill="none" fill-rule="evenodd">
        <path d="M15,11.5 L57,11.5 C61.1421356,11.5 64.5,14.8578644 64.5,19 L64.5,53 C64.5,57.1421356 61.1421356,60.5 57,60.5 L15,60.5 C10.8578644,60.5 7.5,57.1421356 7.5,53 L7.5,19 C7.5,14.8578644 10.8578644,11.5 15,11.5 Z M15,16.5 C13.6192881,16.5 12.5,17.6192881 12.5,19 L12.5,53 C12.5,54.3807119 13.6192881,55.5 15,55.5 L57,55.5 C58.3807119,55.5 59.5,54.3807119 59.5,53 L59.5,19 C59.5,17.6192881 58.3807119,16.5 57,16.5 L15,16.5 Z" id="Rectangle-5" fill="#60759C" fill-rule="nonzero"></path>
        <polygon id="路径-11" fill="#60759C" fill-rule="nonzero" points="12 29.8173636 59.5910986 29.8173636 59.5910986 24.8173636 12 24.8173636"></polygon>
        <g id="编组-3" transform="translate(24.000000, 32.000000)" fill="#60759C" fill-rule="nonzero">
            <g id="编组">
                <path d="M8.60362095,5.15720821 L21.1528273,5.15720821 C22.1428598,5.15720821 22.9454397,5.95978815 22.9454397,6.94982069 C22.9454397,7.93985322 22.1428598,8.74243317 21.1528273,8.74243317 L2.39934286,8.74243317 C1.40931032,8.74243317 0.606730378,7.93985322 0.606730378,6.94982069 C0.606730378,6.6795632 0.666536388,6.42327416 0.773635742,6.19346623 C0.87151796,5.87429543 1.07106437,5.5835054 1.363483,5.37418287 C1.39934647,5.34851066 1.43627053,5.3243534 1.47415792,5.30177473 L8.98304934,0.826912979 C9.82183165,0.327047599 10.90702,0.601794054 11.4068854,1.44057636 C11.4110583,1.44757851 11.4151827,1.45460944 11.4192583,1.46166864 C11.9142746,2.31906196 11.6205099,3.41540656 10.7631166,3.91042282 L8.60362095,5.15720821 Z M7.08913127,3.96166864 L7.11174985,4.00022687 C8.02554041,5.53358242 10.0093443,6.03583908 11.5426998,5.12204852 L4.03380842,9.59691027 C4.11597666,9.54794279 4.19605569,9.49555175 4.27383455,9.43987517 C4.88807691,9.000181 5.33581823,8.37055127 5.55389346,7.65945946 L5.45218106,7.99111958 L5.30564172,8.30555568 C5.50289857,7.88229272 5.60673038,7.41851093 5.60673038,6.94982069 C5.60673038,5.17842947 4.17073407,3.74243317 2.39934286,3.74243317 L6.97343701,3.74243317 C7.008905,3.81635384 7.04745577,3.88948454 7.08913127,3.96166864 Z" id="形状结合"></path>
            </g>
            <g id="编组" transform="translate(11.583333, 17.507766) scale(-1, -1) translate(-11.583333, -17.507766) translate(0.083333, 13.007766)">
                <path d="M8.60362095,5.15720821 L21.1528273,5.15720821 C22.1428598,5.15720821 22.9454397,5.95978815 22.9454397,6.94982069 C22.9454397,7.93985322 22.1428598,8.74243317 21.1528273,8.74243317 L2.39934286,8.74243317 C1.40931032,8.74243317 0.606730378,7.93985322 0.606730378,6.94982069 C0.606730378,6.6795632 0.666536388,6.42327416 0.773635742,6.19346623 C0.87151796,5.87429543 1.07106437,5.5835054 1.363483,5.37418287 C1.39934647,5.34851066 1.43627053,5.3243534 1.47415792,5.30177473 L8.98304934,0.826912979 C9.82183165,0.327047599 10.90702,0.601794054 11.4068854,1.44057636 C11.4110583,1.44757851 11.4151827,1.45460944 11.4192583,1.46166864 C11.9142746,2.31906196 11.6205099,3.41540656 10.7631166,3.91042282 L8.60362095,5.15720821 Z M7.08913127,3.96166864 L7.11174985,4.00022687 C8.02554041,5.53358242 10.0093443,6.03583908 11.5426998,5.12204852 L4.03380842,9.59691027 C4.11597666,9.54794279 4.19605569,9.49555175 4.27383455,9.43987517 C4.88807691,9.000181 5.33581823,8.37055127 5.55389346,7.65945946 L5.45218106,7.99111958 L5.30564172,8.30555568 C5.50289857,7.88229272 5.60673038,7.41851093 5.60673038,6.94982069 C5.60673038,5.17842947 4.17073407,3.74243317 2.39934286,3.74243317 L6.97343701,3.74243317 C7.008905,3.81635384 7.04745577,3.88948454 7.08913127,3.96166864 Z" id="形状结合"></path>
            </g>
        </g>
    </g>
</svg>