<?xml version="1.0" encoding="UTF-8"?>
<svg width="72px" height="72px" viewBox="0 0 72 72" version="1.1" xmlns="http://www.w3.org/2000/svg" xmlns:xlink="http://www.w3.org/1999/xlink">
    <!-- Generator: Sketch 63.1 (92452) - https://sketch.com -->
    <title>外币兑换业务</title>
    <desc>Created with Sketch.</desc>
    <g id="外币兑换业务" stroke="none" stroke-width="1" fill="none" fill-rule="evenodd">
        <path d="M64.1000956,44.3603068 C63.7374875,45.6925533 62.3635364,46.4786004 61.0312899,46.1159923 C59.6990435,45.7533842 58.9129963,44.3794331 59.2756044,43.0471866 C59.7893387,41.1596927 60,39.3471303 60,37 C60,23.745166 49.254834,13 36,13 C27.5387919,13 19.8416086,17.4117666 15.5076486,24.5001469 C14.7874136,25.6781226 13.2486098,26.0491948 12.0706341,25.3289598 C10.8926583,24.6087248 10.5215862,23.0699209 11.2418212,21.8919452 C16.4750157,13.3328276 25.7791688,8 36,8 C52.0162577,8 65,20.9837423 65,37 C65,39.7660713 64.7387619,42.0138045 64.1000956,44.3603068 Z M7,37 C7,35.6192881 8.11928813,34.5 9.5,34.5 C10.8807119,34.5 12,35.6192881 12,37 C12,50.254834 22.745166,61 36,61 C42.3728267,61 48.3459692,58.5084033 52.8050167,54.1345204 C53.7906949,53.1676679 55.3735338,53.1829292 56.3403862,54.1686074 C57.3072387,55.1542856 57.2919774,56.7371245 56.3062992,57.703977 C50.9216902,62.9857439 43.6955684,66 36,66 C19.9837423,66 7,53.0162577 7,37 Z" id="形状" fill="#60759C" fill-rule="nonzero" transform="translate(36.000000, 37.000000) rotate(-23.000000) translate(-36.000000, -37.000000) "></path>
        <g id="外币" transform="translate(22.000000, 23.000000)" fill="#60759C" fill-rule="nonzero">
            <path d="M14.5,0 L14.5,0 C6.49186523,0 0,6.49186523 0,14.5 C0,22.5081348 6.49186523,29 14.5,29 C22.5081348,29 29,22.5081348 29,14.5 L29,14.5 C29,6.49186523 22.5081348,0 14.5,0 L14.5,0 Z M19.8323756,20.81475 L19.8323757,20.8147499 C18.9054264,21.8714572 17.597229,22.5174096 16.1946882,22.6109374 C16.0025632,22.6435624 15.8104382,22.6544374 15.6183132,22.6689374 L15.6183132,24.7243124 L13.8058132,24.7243124 L13.8058132,22.6199999 L13.8058129,22.6199999 C12.8228715,22.5471071 11.8618443,22.2933307 10.9710629,21.8714374 L10.9710635,21.8714378 C10.3940994,21.491804 9.90069726,20.9984018 9.52106347,20.4214378 L9.52106369,20.4214381 C9.12616525,19.7870886 8.85552218,19.0834195 8.72356369,18.3479381 L8.65106369,17.2749381 L11.2610637,17.2749381 L11.2610637,17.2749378 C11.3368972,18.286579 11.7812427,19.2352471 12.5098762,19.9411253 L12.5098762,19.9411253 C13.3158213,20.3487565 14.2207714,20.5196923 15.1198762,20.4341253 L15.1198761,20.4341253 C16.090266,20.3740851 17.0022763,19.9501198 17.6736886,19.2469378 L17.6736886,19.2469378 C18.2362263,18.3519763 17.9667415,17.1704415 17.07178,16.6079038 C17.0127072,16.5707731 16.9516484,16.5369003 16.8888767,16.5064372 L16.888879,16.5064384 C15.390709,15.7291591 13.814794,15.1119179 12.187254,14.6649384 L12.1872545,14.6649386 C11.1987623,14.3460972 10.2965706,13.8047827 9.55006696,13.0826261 L9.55006689,13.082626 C9.04605878,12.3587135 8.7684829,11.5013812 8.75256689,10.6194385 L8.75256674,10.6194369 C8.61636586,9.17630744 9.36038578,7.79261095 10.6393707,7.11043693 L10.6393713,7.1104366 C11.5926188,6.51039715 12.6829565,6.16296072 13.8076213,6.1008741 L13.8076213,4.4279366 L15.6201213,4.4279366 L15.6201213,6.1624991 L15.6201213,6.1624991 C16.8835216,6.16768469 18.0972282,6.65524422 19.0131213,7.5254991 L19.0131213,7.52549908 C19.9697503,8.34740835 20.5028547,9.55821783 20.4631213,10.8188116 L17.9256213,10.8188116 L17.9256212,10.8188115 C17.7150733,10.0181056 17.2516544,9.30676733 16.6043087,8.79062397 L16.6043087,8.79062395 C15.6807777,8.15983147 14.5112111,8.00891819 13.4578087,8.38462395 L13.4578087,8.38462395 C12.3193775,8.49747246 11.4739142,9.49025178 11.5438087,10.6321239 C11.7250587,11.4459364 11.8609962,11.9661239 14.1411212,12.8361239 L14.1411214,12.836124 C16.076339,13.2873317 17.9137269,14.0856587 19.5641214,15.192374 L19.5641217,15.1923743 C21.0736737,16.7241038 21.1869662,19.1470227 19.8269336,20.8129368 L19.8323756,20.81475 Z" id="形状"></path>
        </g>
    </g>
</svg>