<?xml version="1.0" encoding="UTF-8"?>
<svg width="72px" height="72px" viewBox="0 0 72 72" version="1.1" xmlns="http://www.w3.org/2000/svg" xmlns:xlink="http://www.w3.org/1999/xlink">
    <!-- Generator: Sketch 63.1 (92452) - https://sketch.com -->
    <title>业务回单</title>
    <desc>Created with Sketch.</desc>
    <g id="业务回单" stroke="none" stroke-width="1" fill="none" fill-rule="evenodd">
        <g id="编组" transform="translate(12.000000, 11.000000)" fill="#60759C" fill-rule="nonzero">
            <path d="M26.568119,-1.2027027 L4,-1.2027027 C0.410149126,-1.2027027 -2.5,1.70744642 -2.5,5.2972973 L-2.5,46.5945946 C-2.5,50.1844455 0.410149126,53.0945946 4,53.0945946 L41.4054054,53.0945946 C44.9952563,53.0945946 47.9054054,50.1844455 47.9054054,46.5945946 L47.9054054,17.1790403 C47.9054054,15.8352524 47.3048567,14.5617811 46.268022,13.7069478 L29.4307356,-0.174795185 C28.6247565,-0.839296206 27.6127069,-1.2027027 26.568119,-1.2027027 Z M26.3885791,3.7972973 L42.9054054,17.4148323 L42.9054054,46.5945946 C42.9054054,47.4230217 42.2338325,48.0945946 41.4054054,48.0945946 L4,48.0945946 C3.17157288,48.0945946 2.5,47.4230217 2.5,46.5945946 L2.5,5.2972973 C2.5,4.46887017 3.17157288,3.7972973 4,3.7972973 L26.3885791,3.7972973 Z" id="路径-5"></path>
            <path d="M24.7432432,0 L24.7432432,14.4594595 C24.7432432,18.6015951 28.1011076,21.9594595 32.2432432,21.9594595 L48,21.9594595 L48,16.9594595 L32.2432432,16.9594595 C30.8625314,16.9594595 29.7432432,15.8401713 29.7432432,14.4594595 L29.7432432,0 L24.7432432,0 Z" id="路径-6"></path>
        </g>
        <path d="M25.5,42 L42.5,42 C43.8807119,42 45,43.1192881 45,44.5 C45,45.8807119 43.8807119,47 42.5,47 L25.5,47 C24.1192881,47 23,45.8807119 23,44.5 C23,43.1192881 24.1192881,42 25.5,42 Z M25.5,46 C26.3284271,46 27,45.3284271 27,44.5 C27,43.6715729 26.3284271,43 25.5,43 L42.5,43 C41.6715729,43 41,43.6715729 41,44.5 C41,45.3284271 41.6715729,46 42.5,46 L25.5,46 Z" id="矩形" fill="#60759C" fill-rule="nonzero"></path>
        <path d="M25.5,30 L29.5,30 C30.8807119,30 32,31.1192881 32,32.5 C32,33.8807119 30.8807119,35 29.5,35 L25.5,35 C24.1192881,35 23,33.8807119 23,32.5 C23,31.1192881 24.1192881,30 25.5,30 Z M25.5,34 C26.3284271,34 27,33.3284271 27,32.5 C27,31.6715729 26.3284271,31 25.5,31 L29.5,31 C28.6715729,31 28,31.6715729 28,32.5 C28,33.3284271 28.6715729,34 29.5,34 L25.5,34 Z" id="矩形备份" fill="#60759C" fill-rule="nonzero"></path>
    </g>
</svg>