<?xml version="1.0" encoding="UTF-8"?>
<svg width="72px" height="72px" viewBox="0 0 72 72" version="1.1" xmlns="http://www.w3.org/2000/svg" xmlns:xlink="http://www.w3.org/1999/xlink">
    <title>投资管理</title>
    <defs>
        <linearGradient x1="50%" y1="-3.03576608e-14%" x2="50%" y2="97.0412796%" id="linearGradient-1">
            <stop stop-color="#2EB1F3" offset="0%"></stop>
            <stop stop-color="#33CCF8" offset="100%"></stop>
        </linearGradient>
        <linearGradient x1="50%" y1="-3.03576608e-14%" x2="50%" y2="97.0412796%" id="linearGradient-2">
            <stop stop-color="#2EB1F3" offset="0%"></stop>
            <stop stop-color="#33CCF8" offset="100%"></stop>
        </linearGradient>
    </defs>
    <g id="投资管理" stroke="none" stroke-width="1" fill="none" fill-rule="evenodd">
        <g id="编组-19" transform="translate(9.500000, 9.298456)">
            <g id="编组-28">
                <path d="M38.9798768,1.61957657 C38.9932744,1.71076859 39,1.80281666 39,1.89498759 L39,50.5081007 C39,51.554535 38.1516974,52.4028375 37.1052632,52.4028375 C37.0130922,52.4028375 36.9210442,52.396112 36.8298521,52.3827144 L1.61932582,47.2097195 C0.689252836,47.0730768 -1.06920836e-16,46.2751627 0,45.3351058 L0,7.06798245 C1.38594831e-15,6.12792553 0.689252836,5.3300115 1.61932582,5.19336876 L36.8298521,0.0203739041 C37.8651727,-0.131731402 38.8277715,0.58425602 38.9798768,1.61957657 Z M10.9898821,27.9531569 L9.80262284,27.9531569 C8.75618858,27.9531569 7.907886,28.8014595 7.907886,29.8478937 L7.907886,29.8478937 L7.907886,34.9715008 C7.907886,36.0179351 8.75618858,36.8662377 9.80262284,36.8662377 L9.80262284,36.8662377 L10.9898821,36.8662377 C12.0363164,36.8662377 12.884619,36.0179351 12.884619,34.9715008 L12.884619,34.9715008 L12.884619,29.8478937 C12.884619,28.8014595 12.0363164,27.9531569 10.9898821,27.9531569 L10.9898821,27.9531569 Z M20.2529528,24.98213 L19.0656935,24.98213 C18.0192593,24.98213 17.1709567,25.8304325 17.1709567,26.8768668 L17.1709567,26.8768668 L17.1709567,34.9715008 C17.1709567,36.0179351 18.0192593,36.8662377 19.0656935,36.8662377 L19.0656935,36.8662377 L20.2529528,36.8662377 C21.2993871,36.8662377 22.1476897,36.0179351 22.1476897,34.9715008 L22.1476897,34.9715008 L22.1476897,26.8768668 C22.1476897,25.8304325 21.2993871,24.98213 20.2529528,24.98213 L20.2529528,24.98213 Z M29.5160235,20.2284869 L28.3287642,20.2284869 C27.28233,20.2284869 26.4340274,21.0767895 26.4340274,22.1232237 L26.4340274,22.1232237 L26.4340274,34.9715008 C26.4340274,36.0179351 27.28233,36.8662377 28.3287642,36.8662377 L28.3287642,36.8662377 L29.5160235,36.8662377 C30.5624578,36.8662377 31.4107604,36.0179351 31.4107604,34.9715008 L31.4107604,34.9715008 L31.4107604,22.1232237 C31.4107604,21.0767895 30.5624578,20.2284869 29.5160235,20.2284869 L29.5160235,20.2284869 Z M23.2486117,13.5733866 L18.0831232,13.5733866 L17.9802806,13.5805051 C17.5760221,13.6368826 17.2632538,14.0212506 17.2632538,14.4870235 C17.2632538,14.9916109 17.6303222,15.4006605 18.0831232,15.4006605 L18.0831232,15.4006605 L21.5309386,15.4006605 C20.3912706,16.8110387 19.0727067,18.0281945 17.6170757,19.0135215 L17.6170757,19.0135215 L17.2262278,19.2681807 C15.3896038,20.4294992 13.3779745,21.2105877 11.288807,21.5720522 L11.288807,21.5720522 L11.2672928,21.575307 L11.2458685,21.5792203 C10.8170301,21.6643201 10.5312943,22.120707 10.6076592,22.5985915 L10.6099864,22.6182355 L10.6127072,22.6378164 C10.6847356,23.1204257 11.0942051,23.4465901 11.5272838,23.3663241 L11.5272838,23.3663241 L12.0167701,23.2758454 C14.2946277,22.8206654 16.4801414,21.9052816 18.4649994,20.5733047 L18.4649994,20.5733047 L18.8989124,20.2721254 C20.1890264,19.3492815 21.3735109,18.2535804 22.4256224,17.0090787 L22.4256224,17.0090787 L22.4271837,17.0090784 L22.4271837,20.2380729 L22.4335716,20.3526775 C22.484163,20.8031706 22.8290829,21.1517099 23.247053,21.1517099 C23.699854,21.1517099 24.0669223,20.7426603 24.0669223,20.2380729 L24.0669223,20.2380729 L24.0669223,14.4800757 C24.0669223,13.9850443 23.7021896,13.5733866 23.2486117,13.5733866 L23.2486117,13.5733866 Z" id="形状结合" fill="url(#linearGradient-1)"></path>
                <path d="M41,4.70154414 L51.1052632,4.70154414 C52.1516974,4.70154414 53,5.54984672 53,6.59628098 L53,46.8068073 C53,47.8532416 52.1516974,48.7015441 51.1052632,48.7015441 L41,48.7015441 L41,48.7015441 L41,4.70154414 Z" id="矩形备份-26" fill="url(#linearGradient-2)" opacity="0.8"></path>
            </g>
            <g id="编组-29" transform="translate(7.907886, 13.573387)">
                <g id="业务" transform="translate(-0.000000, 0.000000)"></g>
            </g>
        </g>
    </g>
</svg>