<?xml version="1.0" encoding="UTF-8"?>
<svg width="72px" height="72px" viewBox="0 0 72 72" version="1.1" xmlns="http://www.w3.org/2000/svg" xmlns:xlink="http://www.w3.org/1999/xlink">
    <!-- Generator: Sketch 63.1 (92452) - https://sketch.com -->
    <title>转存处理</title>
    <desc>Created with Sketch.</desc>
    <g id="转存处理" stroke="none" stroke-width="1" fill="none" fill-rule="evenodd">
        <path d="M15,11.5 L57,11.5 C61.1421356,11.5 64.5,14.8578644 64.5,19 L64.5,53 C64.5,57.1421356 61.1421356,60.5 57,60.5 L15,60.5 C10.8578644,60.5 7.5,57.1421356 7.5,53 L7.5,19 C7.5,14.8578644 10.8578644,11.5 15,11.5 Z M15,16.5 C13.6192881,16.5 12.5,17.6192881 12.5,19 L12.5,53 C12.5,54.3807119 13.6192881,55.5 15,55.5 L57,55.5 C58.3807119,55.5 59.5,54.3807119 59.5,53 L59.5,19 C59.5,17.6192881 58.3807119,16.5 57,16.5 L15,16.5 Z" id="Rectangle-5" fill="#60759C" fill-rule="nonzero"></path>
        <polygon id="路径-11" fill="#60759C" fill-rule="nonzero" points="12 29.8173636 59.5910986 29.8173636 59.5910986 24.8173636 12 24.8173636"></polygon>
        <path d="M47,42.5369486 C47,43.2389897 46.6862024,43.8752683 46.1917969,44.3111605 L38.1247583,51.460687 C37.694507,51.8373585 37.1251387,52.0666667 36.5041681,52.0666667 C35.1639038,52.0666667 34.0785128,51.0020707 34.0785128,49.6861308 C34.0785128,48.9761706 34.3923104,48.3478111 34.8867159,47.9119189 L38.2670132,44.9178287 L27.4183334,44.9178287 C26.082253,44.9178287 25,43.8532327 25,42.5297181 C25,41.2137783 26.082253,40.1491823 27.4183334,40.1491823 L38.2670132,40.1491823 L34.8867159,37.1547478 C34.3923104,36.7185113 34.0785128,36.0863644 34.0785128,35.3808801 C34.0785128,34.064596 35.1639038,33 36.5041681,33 C37.1251387,33 37.694507,33.2293082 38.1247583,33.6135544 L46.1917969,40.7627366 C46.6858538,41.1986288 47,41.8345631 47,42.5369486" id="路径" fill="#60759C"></path>
    </g>
</svg>