<?xml version="1.0" encoding="UTF-8"?>
<svg width="72px" height="72px" viewBox="0 0 72 72" version="1.1" xmlns="http://www.w3.org/2000/svg" xmlns:xlink="http://www.w3.org/1999/xlink">
    <!-- Generator: Sketch 63.1 (92452) - https://sketch.com -->
    <title>通知存款设置</title>
    <desc>Created with Sketch.</desc>
    <g id="通知存款设置" stroke="none" stroke-width="1" fill="none" fill-rule="evenodd">
        <path d="M55.5,48.4698513 L55.5,53.037037 C55.5,55.5018634 53.5018634,57.5 51.037037,57.5 L17.962963,57.5 C15.4981366,57.5 13.5,55.5018634 13.5,53.037037 L13.5,19.962963 C13.5,17.4981366 15.4981366,15.5 17.962963,15.5 L26.8547904,15.5 C28.2355023,15.5 29.3547904,14.3807119 29.3547904,13 C29.3547904,11.6192881 28.2355023,10.5 26.8547904,10.5 L17.962963,10.5 C12.7367128,10.5 8.5,14.7367128 8.5,19.962963 L8.5,53.037037 C8.5,58.2632872 12.7367128,62.5 17.962963,62.5 L51.037037,62.5 C56.2632872,62.5 60.5,58.2632872 60.5,53.037037 L60.5,48.4698513 C60.5,47.0891394 59.3807119,45.9698513 58,45.9698513 C56.6192881,45.9698513 55.5,47.0891394 55.5,48.4698513 Z" id="路径" fill="#60759C" fill-rule="nonzero" transform="translate(34.500000, 36.500000) scale(1, -1) translate(-34.500000, -36.500000) "></path>
        <g id="编组" transform="translate(30.000000, 27.274510)" fill="#60759C" fill-rule="nonzero">
            <path d="M6.13131291,26.8519664 L4,26.8519664 C0.686291501,26.8519664 -2,24.1656749 -2,20.8519664 L-2,11.8892266 C-2,8.57551808 0.686291501,5.88922657 4,5.88922657 L6.11801207,5.88922657 L11.0493276,2.3843361 C13.3001575,0.784577978 16.4216758,1.3123759 18.0214339,3.56320576 C18.6228307,4.40935981 18.9459459,5.42172257 18.9459459,6.45982409 L18.9459459,26.1827027 C18.9459459,28.9441264 16.7073697,31.1827027 13.9459459,31.1827027 C12.9284807,31.1827027 11.93523,30.872293 11.0988285,30.2929244 L6.13131291,26.8519664 Z M4,9.88922657 C2.8954305,9.88922657 2,10.7846571 2,11.8892266 L2,20.8519664 C2,21.9565359 2.8954305,22.8519664 4,22.8519664 L6.75635093,22.8519664 C7.16333701,22.8519664 7.56063729,22.9761303 7.8951979,23.2078777 L13.3765225,27.004747 C13.5438028,27.1206208 13.7424529,27.1827027 13.9459459,27.1827027 C14.4982307,27.1827027 14.9459459,26.7349875 14.9459459,26.1827027 L14.9459459,6.45982409 C14.9459459,6.25220378 14.8813229,6.04973123 14.7610435,5.88050042 C14.4410919,5.43033445 13.8167883,5.32477486 13.3666223,5.64472649 L7.91499826,9.51942177 C7.57653664,9.75998048 7.17159153,9.88922657 6.75635093,9.88922657 L4,9.88922657 Z" id="路径-8"></path>
            <path d="M30.075576,27.5542868 C32.7146826,24.8911883 34.2251087,21.2876758 34.2251087,17.4490734 C34.2251087,12.7901761 31.9960877,8.50242983 28.3126116,5.83273457 C27.4182454,5.18451939 26.1677361,5.38406421 25.5195209,6.27843039 C24.8713058,7.17279657 25.0708506,8.42330583 25.9652167,9.07152101 C28.6196217,10.9953701 30.2251087,14.083686 30.2251087,17.4490734 C30.2251087,20.2236313 29.1376003,22.8181641 27.2343797,24.7386868 C26.4568732,25.5232615 26.4626031,26.7895785 27.2471779,27.5670849 C28.0317526,28.3445914 29.2980696,28.3388615 30.075576,27.5542868 Z" id="形状" transform="translate(29.681940, 16.799235) rotate(4.000000) translate(-29.681940, -16.799235) "></path>
            <path d="M25.228137,24.1774153 C26.9076703,22.4092811 27.8648649,20.0268352 27.8648649,17.4962336 C27.8648649,14.4223903 26.4500312,11.5830556 24.0981478,9.8047111 C23.2170941,9.13851435 21.9627997,9.31269036 21.296603,10.1937441 C20.6304062,11.0747978 20.8045823,12.3290922 21.685636,12.9952889 C23.0383591,14.018132 23.8648649,15.6767909 23.8648649,17.4962336 C23.8648649,18.9984008 23.3035196,20.3955826 22.3279803,21.4225847 C21.5672548,22.2234409 21.5997872,23.4893529 22.4006434,24.2500783 C23.2014995,25.0108038 24.4674115,24.9782714 25.228137,24.1774153 Z" id="形状备份" transform="translate(24.378323, 17.099946) rotate(4.000000) translate(-24.378323, -17.099946) "></path>
        </g>
    </g>
</svg>