<?xml version="1.0" encoding="UTF-8"?>
<svg width="72px" height="72px" viewBox="0 0 72 72" version="1.1" xmlns="http://www.w3.org/2000/svg" xmlns:xlink="http://www.w3.org/1999/xlink">
    <!-- Generator: Sketch 63.1 (92452) - https://sketch.com -->
    <title>业务回单</title>
    <desc>Created with Sketch.</desc>
    <g id="业务回单" stroke="none" stroke-width="1" fill="none" fill-rule="evenodd">
        <g id="编组" transform="translate(15.000000, 13.000000)" fill="#60759C" fill-rule="nonzero">
            <path d="M4,-1.33783784 C0.410149126,-1.33783784 -2.5,1.57231129 -2.5,5.16216216 L-2.5,41.3243243 C-2.5,44.9141752 0.410149126,47.8243243 4,47.8243243 L36.6756757,47.8243243 C40.2655265,47.8243243 43.1756757,44.9141752 43.1756757,41.3243243 L43.1756757,15.4878036 C43.1756757,14.1440157 42.5751269,12.8705444 41.5382923,12.0157111 L26.5884149,-0.30993032 C25.7824359,-0.974431341 24.7703862,-1.33783784 23.7257983,-1.33783784 L4,-1.33783784 Z M23.5462585,3.66216216 L38.1756757,15.7235956 L38.1756757,41.3243243 C38.1756757,42.1527514 37.5041028,42.8243243 36.6756757,42.8243243 L4,42.8243243 C3.17157288,42.8243243 2.5,42.1527514 2.5,41.3243243 L2.5,5.16216216 C2.5,4.33373504 3.17157288,3.66216216 4,3.66216216 L23.5462585,3.66216216 Z" id="路径-5"></path>
            <path d="M21.9054054,0 L21.9054054,12.4324324 C21.9054054,16.5745681 25.2632698,19.9324324 29.4054054,19.9324324 L43,19.9324324 L43,14.9324324 L29.4054054,14.9324324 C28.0246935,14.9324324 26.9054054,13.8131443 26.9054054,12.4324324 L26.9054054,0 L21.9054054,0 Z" id="路径-6"></path>
        </g>
        <path d="M25.5,42 L42.5,42 C43.8807119,42 45,43.1192881 45,44.5 C45,45.8807119 43.8807119,47 42.5,47 L25.5,47 C24.1192881,47 23,45.8807119 23,44.5 C23,43.1192881 24.1192881,42 25.5,42 Z M25.5,46 C26.3284271,46 27,45.3284271 27,44.5 C27,43.6715729 26.3284271,43 25.5,43 L42.5,43 C41.6715729,43 41,43.6715729 41,44.5 C41,45.3284271 41.6715729,46 42.5,46 L25.5,46 Z" id="矩形" fill="#60759C" fill-rule="nonzero"></path>
        <path d="M25.5,30 L29.5,30 C30.8807119,30 32,31.1192881 32,32.5 C32,33.8807119 30.8807119,35 29.5,35 L25.5,35 C24.1192881,35 23,33.8807119 23,32.5 C23,31.1192881 24.1192881,30 25.5,30 Z M25.5,34 C26.3284271,34 27,33.3284271 27,32.5 C27,31.6715729 26.3284271,31 25.5,31 L29.5,31 C28.6715729,31 28,31.6715729 28,32.5 C28,33.3284271 28.6715729,34 29.5,34 L25.5,34 Z" id="矩形备份" fill="#60759C" fill-rule="nonzero"></path>
    </g>
</svg>