<?xml version="1.0" encoding="UTF-8"?>
<svg width="72px" height="72px" viewBox="0 0 72 72" version="1.1" xmlns="http://www.w3.org/2000/svg" xmlns:xlink="http://www.w3.org/1999/xlink">
    <!-- Generator: Sketch 63.1 (92452) - https://sketch.com -->
    <title>业务处理</title>
    <desc>Created with Sketch.</desc>
    <g id="业务处理" stroke="none" stroke-width="1" fill="none" fill-rule="evenodd">
        <g id="编组" transform="translate(15.000000, 13.000000)" fill="#60759C" fill-rule="nonzero">
            <path d="M4,-1.33783784 C0.410149126,-1.33783784 -2.5,1.57231129 -2.5,5.16216216 L-2.5,41.3243243 C-2.5,44.9141752 0.410149126,47.8243243 4,47.8243243 L36.6756757,47.8243243 C40.2655265,47.8243243 43.1756757,44.9141752 43.1756757,41.3243243 L43.1756757,15.4878036 C43.1756757,14.1440157 42.5751269,12.8705444 41.5382923,12.0157111 L26.5884149,-0.30993032 C25.7824359,-0.974431341 24.7703862,-1.33783784 23.7257983,-1.33783784 L4,-1.33783784 Z M23.5462585,3.66216216 L38.1756757,15.7235956 L38.1756757,41.3243243 C38.1756757,42.1527514 37.5041028,42.8243243 36.6756757,42.8243243 L4,42.8243243 C3.17157288,42.8243243 2.5,42.1527514 2.5,41.3243243 L2.5,5.16216216 C2.5,4.33373504 3.17157288,3.66216216 4,3.66216216 L23.5462585,3.66216216 Z" id="路径-5"></path>
            <path d="M21.9054054,0 L21.9054054,12.4324324 C21.9054054,16.5745681 25.2632698,19.9324324 29.4054054,19.9324324 L43,19.9324324 L43,14.9324324 L29.4054054,14.9324324 C28.0246935,14.9324324 26.9054054,13.8131443 26.9054054,12.4324324 L26.9054054,0 L21.9054054,0 Z" id="路径-6"></path>
        </g>
        <path d="M25.5,44 L42.5,44 C43.8807119,44 45,45.1192881 45,46.5 C45,47.8807119 43.8807119,49 42.5,49 L25.5,49 C24.1192881,49 23,47.8807119 23,46.5 C23,45.1192881 24.1192881,44 25.5,44 Z M25.5,48 C26.3284271,48 27,47.3284271 27,46.5 C27,45.6715729 26.3284271,45 25.5,45 L42.5,45 C41.6715729,45 41,45.6715729 41,46.5 C41,47.3284271 41.6715729,48 42.5,48 L25.5,48 Z" id="矩形" fill="#60759C" fill-rule="nonzero"></path>
        <path d="M38,34.0026545 C38,34.5181393 37.7717836,34.9853369 37.4122159,35.3053975 L31.5452788,40.5550499 C31.2323687,40.8316268 30.8182827,41 30.3666677,41 C29.39193,41 28.6025548,40.2183036 28.6025548,39.2520541 C28.6025548,38.7307546 28.8307712,38.2693718 29.1903388,37.9493111 L31.6487369,35.7508532 L23.7587879,35.7508532 C22.7870931,35.7508532 22,34.9691569 22,33.9973455 C22,33.0310959 22.7870931,32.2493996 23.7587879,32.2493996 L31.6487369,32.2493996 L29.1903388,30.0506889 C28.8307712,29.7303754 28.6025548,29.2662116 28.6025548,28.7481987 C28.6025548,27.7816964 29.39193,27 30.3666677,27 C30.8182827,27 31.2323687,27.1683732 31.5452788,27.4505119 L37.4122159,32.6999115 C37.77153,33.0199722 38,33.486917 38,34.0026545" id="路径" fill="#60759C" transform="translate(30.000000, 34.000000) scale(1, -1) translate(-30.000000, -34.000000) "></path>
    </g>
</svg>