<?xml version="1.0" encoding="UTF-8"?>
<svg width="72px" height="72px" viewBox="0 0 72 72" version="1.1" xmlns="http://www.w3.org/2000/svg" xmlns:xlink="http://www.w3.org/1999/xlink">
    <!-- Generator: Sketch 63.1 (92452) - https://sketch.com -->
    <title>内部授信</title>
    <desc>Created with Sketch.</desc>
    <g id="内部授信" stroke="none" stroke-width="1" fill="none" fill-rule="evenodd">
        <path d="M34.9605934,6.72631711 C30.1876556,8.90824981 26.4826821,10.375642 23.8833526,11.1226858 C21.606412,11.7770755 18.4408553,12.3771655 14.408471,12.9118644 C12.1714081,13.2085049 10.5,15.1161751 10.5,17.3728167 L10.5,41.757935 C10.5,46.8649711 12.7309128,51.7171902 16.6075661,55.0418511 C18.4034955,56.5820601 20.0507508,57.8343641 21.5573286,58.8002614 C24.3640071,60.5996794 28.713901,62.7038049 34.6492434,65.1479125 C35.5397579,65.5147894 36.5425319,65.4982595 37.4208367,65.1021591 C42.8099382,62.6717672 46.8781236,60.578683 49.6520525,58.8002614 C51.1719174,57.8258454 52.9177468,56.5523362 54.8973397,54.9769094 C59.0692717,51.6567485 61.5,46.6157597 61.5,41.2839207 L61.5,17.4596166 C61.5,15.1689545 59.7792582,13.2438631 57.5029819,12.9878299 C52.9846577,12.4796136 49.4530269,11.8537714 46.9335258,11.1241002 C44.1270047,10.3113051 40.8856134,8.87854928 37.2250924,6.82074588 L36.1168533,6.1977367 L34.9605934,6.72631711 Z M45.5426339,15.9267473 C48.2875361,16.7216969 51.9322817,17.3772087 56.5,17.905828 L56.5,41.2839207 C56.5,45.092377 54.7637658,48.6930827 51.7838144,51.0646262 C49.9280926,52.5414721 48.3153684,53.7178867 46.95344,54.5910464 C44.5194664,56.1515158 40.8454301,58.0536077 35.9550448,60.2771792 C30.5816407,58.044259 26.6694213,56.1383772 24.255941,54.5910464 C22.9609112,53.7607767 21.4937811,52.6454106 19.8625473,51.2464464 C17.0935092,48.8716886 15.5,45.4058176 15.5,41.7579346 L15.5,17.8102122 C19.5536809,17.2598972 22.8019534,16.635877 25.26444,15.9281616 C27.9220102,15.1643795 31.4540772,13.7880639 35.8901499,11.7946667 C39.4214508,13.706064 42.6350493,15.0846834 45.5426339,15.9267473 Z" id="路径-4" fill="#60759C" fill-rule="nonzero"></path>
        <path d="M26.642043,33.9016716 C25.6009175,32.9947963 24.0217508,33.1036276 23.1148754,34.1447531 C22.2080001,35.1858787 22.3168314,36.7650454 23.357957,37.6719208 L30.9126305,44.2524403 C32.331781,45.4885953 34.4744116,45.3811696 35.7628011,44.0092658 L49.190261,29.7114285 C50.1354568,28.7049644 50.0857891,27.1228314 49.079325,26.1776355 C48.0728608,25.2324396 46.4907278,25.2821074 45.5455319,26.2885715 L33.1072001,39.5331648 L26.642043,33.9016716 Z" id="路径-2" fill="#60759C" fill-rule="nonzero"></path>
    </g>
</svg>