<?xml version="1.0" encoding="UTF-8"?>
<svg width="72px" height="72px" viewBox="0 0 72 72" version="1.1" xmlns="http://www.w3.org/2000/svg" xmlns:xlink="http://www.w3.org/1999/xlink">
    <!-- Generator: Sketch 63.1 (92452) - https://sketch.com -->
    <title>内部借款</title>
    <desc>Created with Sketch.</desc>
    <g id="内部借款" stroke="none" stroke-width="1" fill="none" fill-rule="evenodd">
        <g id="编组-3" transform="translate(35.000000, 36.500000) scale(-1, -1) translate(-35.000000, -36.500000) translate(13.000000, 11.000000)" fill="#60759C" fill-rule="nonzero">
            <g id="编组">
                <path d="M34.0547463,-0.474454892 L33.9304463,-0.549592444 C33.2204625,-0.978767067 32.4043092,-1.20497785 31.5732775,-1.20497785 L4,-1.20497785 C0.431207263,-1.20497785 -2.5,1.61561782 -2.5,5.14407875 L-2.5,25.0188679 C-2.5,26.3995798 -1.38071187,27.5188679 0,27.5188679 C1.38071187,27.5188679 2.5,26.3995798 2.5,25.0188679 L2.5,5.14407875 C2.5,4.42098916 3.15051474,3.79502215 4,3.79502215 L31.4010435,3.79502215 L41.0135135,11.2518662 L41.0135135,46.6568073 C41.0135135,47.3798969 40.3629988,48.0058639 39.5135135,48.0058639 L24.9500072,48.0058639 C23.5692953,48.0058639 22.4500072,49.125152 22.4500072,50.5058639 C22.4500072,51.8865758 23.5692953,53.0058639 24.9500072,53.0058639 L39.5135135,53.0058639 C43.0823063,53.0058639 46.0135135,50.1852682 46.0135135,46.6568073 L46.0135135,10.930658 C46.0135135,9.44390345 45.2562111,8.0697034 44.0178428,7.25438652 L34.0547463,-0.474454892 Z" id="路径"></path>
                <path d="M26.6081081,0 L26.6081081,6.54716981 C26.6081081,10.6893054 29.9659725,14.0471698 34.1081081,14.0471698 L43.1081081,14.0471698 L43.1081081,9.04716981 L34.1081081,9.04716981 C32.7273962,9.04716981 31.6081081,7.92788169 31.6081081,6.54716981 L31.6081081,0 L26.6081081,0 Z" id="路径-6"></path>
            </g>
            <path d="M27.3,33 L31.5,33 C32.8807119,33 34,34.1192881 34,35.5 C34,36.8807119 32.8807119,38 31.5,38 L27.3,38 C25.9192881,38 24.8,36.8807119 24.8,35.5 C24.8,34.1192881 25.9192881,33 27.3,33 Z M27.3,37 C28.1284271,37 28.8,36.3284271 28.8,35.5 C28.8,34.6715729 28.1284271,34 27.3,34 L31.5,34 C30.6715729,34 30,34.6715729 30,35.5 C30,36.3284271 30.6715729,37 31.5,37 L27.3,37 Z" id="矩形备份"></path>
        </g>
        <g id="现金" transform="translate(32.000000, 32.000000)" fill="#60759C" fill-rule="nonzero">
            <g id="时间轴-羊角标">
                <path d="M15.5293067,14.7929695 C15.758107,15.0811037 15.8892263,15.4252898 15.9182667,15.8255257 C15.8892267,16.2415261 15.7581066,16.5892145 15.5293067,16.8677163 C15.2996256,17.1479693 14.9872252,17.3029838 14.5877056,17.3362643 L10.1806536,17.3126179 L10.1806536,19.8559169 C10.1208135,21.2151433 9.40801229,21.8947576 8.04577028,21.8947576 C7.37256949,21.8947576 6.84896888,21.7283574 6.47408759,21.3911781 C6.09744672,21.0557499 5.89504648,20.5442891 5.86600602,19.8559169 L5.86600602,17.359914 L1.43431141,17.359914 C1.0224705,17.3283856 0.70391056,17.1479727 0.483029444,16.8204262 L0.483029404,16.8204262 C0.261475826,16.4947309 0.123127032,16.120153 0.0799885053,15.7291904 C0.12662856,15.329829 0.260388715,15.0022842 0.483029404,14.7456772 C0.70302966,14.4899468 1.02247046,14.3454414 1.43431137,14.3130376 L5.86600598,14.3130376 L5.86600598,11.9256318 L1.43431137,11.9019855 C1.02247046,11.8695812 0.70391052,11.7180695 0.483029404,11.4465744 C0.260388715,11.1733282 0.126628989,10.8291421 0.0799885053,10.4131416 C0.12662856,10.0137803 0.260388715,9.68623552 0.483029404,9.42962848 C0.70302966,9.17389808 1.02247046,9.03026716 1.43431137,8.99786334 L4.74048123,8.99786334 L1.66400109,3.336763 L1.6640011,3.33676302 C1.49023785,3.1105371 1.34374389,2.86480474 1.22751974,2.60460131 L1.22751967,2.60460118 C1.08862217,2.29999244 1.02582305,1.96646507 1.04447946,1.63247373 C1.12015955,1.18406943 1.27416059,0.820616372 1.50207999,0.540363414 C1.73263983,0.260987102 2.16208076,0.0805734054 2.78864106,0.0008756153 C3.15560106,0.032404073 3.48560144,0.165524228 3.77600178,0.397609136 C4.06640212,0.628816971 4.3040024,0.881045061 4.48880261,1.15254011 L7.97711722,7.82342945 L11.8104068,1.10524401 C11.993447,0.833748953 12.2319265,0.592906567 12.5232077,0.385344648 C12.813608,0.175155144 13.1418488,0.0481653085 13.5088088,-3.16861715e-06 C13.7393686,0.0157610603 13.9488093,0.0481653085 14.14065,0.0954579951 C14.3298502,0.144502263 14.4996908,0.224199198 14.6457697,0.337177026 C14.7900899,0.448402419 14.9132892,0.608672079 15.0127297,0.816233998 C15.1121698,1.02379635 15.1834499,1.29616762 15.2300895,1.63247031 C15.2300895,2.09663927 15.0778493,2.53628567 14.7716081,2.95228615 L11.21377,8.99874714 L14.5885825,8.99874714 C14.9863426,9.0302756 15.3005025,9.17478103 15.5284241,9.43051228 C15.7572243,9.68711932 15.8883436,10.0146641 15.9191436,10.4140254 C15.8883436,10.8309026 15.7545835,11.1829699 15.5178623,11.4702296 C15.280262,11.7574893 14.9634617,11.9168828 14.5648208,11.9501632 L10.1797688,11.9738096 L10.1797688,14.3130426 L14.5868208,14.3130426 C14.9863404,14.3454468 15.2987408,14.5057165 15.5284219,14.7929762 L15.5293067,14.7929695 Z" id="路径"></path>
            </g>
        </g>
        <path d="M59,18.7533182 C59,19.3976741 58.7147295,19.9816711 58.2652699,20.3817469 L50.9315985,26.9438124 C50.5404609,27.2895336 50.0228533,27.5 49.4583347,27.5 C48.2399125,27.5 47.2531934,26.5228795 47.2531934,25.3150676 C47.2531934,24.6634433 47.538464,24.0867147 47.9879235,23.6866389 L51.0609211,20.9385666 L41.1984849,20.9385666 C39.9838664,20.9385666 39,19.9614461 39,18.7466818 C39,17.5388699 39.9838664,16.5617495 41.1984849,16.5617495 L51.0609211,16.5617495 L47.9879235,13.8133611 C47.538464,13.4129693 47.2531934,12.8327645 47.2531934,12.1852484 C47.2531934,10.9771205 48.2399125,10 49.4583347,10 C50.0228533,10 50.5404609,10.2104664 50.9315985,10.5631399 L58.2652699,17.1248894 C58.7144125,17.5249652 59,18.1086462 59,18.7533182" id="路径" fill="#60759C" transform="translate(49.000000, 18.750000) scale(-1, -1) translate(-49.000000, -18.750000) "></path>
    </g>
</svg>