<?xml version="1.0" encoding="UTF-8"?>
<svg width="72px" height="72px" viewBox="0 0 72 72" version="1.1" xmlns="http://www.w3.org/2000/svg" xmlns:xlink="http://www.w3.org/1999/xlink">
    <!-- Generator: Sketch 63.1 (92452) - https://sketch.com -->
    <title>内部授信查询</title>
    <desc>Created with Sketch.</desc>
    <g id="内部授信查询" stroke="none" stroke-width="1" fill="none" fill-rule="evenodd">
        <path d="M34.9605934,6.72631711 C30.1876556,8.90824981 26.4826821,10.375642 23.8833526,11.1226858 C21.606412,11.7770755 18.4408553,12.3771655 14.408471,12.9118644 C12.1714081,13.2085049 10.5,15.1161751 10.5,17.3728167 L10.5,41.757935 C10.5,46.8649711 12.7309128,51.7171902 16.6075661,55.0418511 C18.4034955,56.5820601 20.0507508,57.8343641 21.5573286,58.8002614 C24.3640071,60.5996794 28.713901,62.7038049 34.6492434,65.1479125 C35.5397579,65.5147894 36.5425319,65.4982595 37.4208367,65.1021591 C42.8099382,62.6717672 46.8781236,60.578683 49.6520525,58.8002614 C51.1719174,57.8258454 52.9177468,56.5523362 54.8973397,54.9769094 C59.0692717,51.6567485 61.5,46.6157597 61.5,41.2839207 L61.5,17.4596166 C61.5,15.1689545 59.7792582,13.2438631 57.5029819,12.9878299 C52.9846577,12.4796136 49.4530269,11.8537714 46.9335258,11.1241002 C44.1270047,10.3113051 40.8856134,8.87854928 37.2250924,6.82074588 L36.1168533,6.1977367 L34.9605934,6.72631711 Z M45.5426339,15.9267473 C48.2875361,16.7216969 51.9322817,17.3772087 56.5,17.905828 L56.5,41.2839207 C56.5,45.092377 54.7637658,48.6930827 51.7838144,51.0646262 C49.9280926,52.5414721 48.3153684,53.7178867 46.95344,54.5910464 C44.5194664,56.1515158 40.8454301,58.0536077 35.9550448,60.2771792 C30.5816407,58.044259 26.6694213,56.1383772 24.255941,54.5910464 C22.9609112,53.7607767 21.4937811,52.6454106 19.8625473,51.2464464 C17.0935092,48.8716886 15.5,45.4058176 15.5,41.7579346 L15.5,17.8102122 C19.5536809,17.2598972 22.8019534,16.635877 25.26444,15.9281616 C27.9220102,15.1643795 31.4540772,13.7880639 35.8901499,11.7946667 C39.4214508,13.706064 42.6350493,15.0846834 45.5426339,15.9267473 Z" id="路径-4" fill="#60759C" fill-rule="nonzero"></path>
        <path d="M23.5,20 L27.7,20 C29.0807119,20 30.2,21.1192881 30.2,22.5 C30.2,23.8807119 29.0807119,25 27.7,25 L23.5,25 C22.1192881,25 21,23.8807119 21,22.5 C21,21.1192881 22.1192881,20 23.5,20 Z M23.5,24 C24.3284271,24 25,23.3284271 25,22.5 C25,21.6715729 24.3284271,21 23.5,21 L27.7,21 C26.8715729,21 26.2,21.6715729 26.2,22.5 C26.2,23.3284271 26.8715729,24 27.7,24 L23.5,24 Z" id="矩形备份" fill="#60759C" fill-rule="nonzero"></path>
        <g id="编组-2" transform="translate(25.022222, 23.000000)" fill="#60759C">
            <g id="编组" transform="translate(14.799257, 16.659613) rotate(-17.000000) translate(-14.799257, -16.659613) translate(4.299257, 2.659613)">
                <path d="M16.2505283,15.9707249 C17.4254962,15.9816113 18.3753636,16.9313755 18.3863775,18.1063422 L18.4539444,25.314406 C18.4646967,26.4614659 17.5435374,27.4000581 16.3964775,27.4108104 C16.3835737,27.4109314 16.3706691,27.4109321 16.3577653,27.4108125 C15.1827974,27.3999261 14.2329301,26.4501619 14.2219162,25.2751951 L14.1543493,18.0671314 C14.143597,16.9200715 15.0647563,15.9814793 16.2118162,15.970727 C16.2247199,15.970606 16.2376245,15.9706053 16.2505283,15.9707249 Z" id="矩形" transform="translate(16.304147, 21.690769) rotate(-29.000000) translate(-16.304147, -21.690769) "></path>
                <path d="M9.23538389,19.6631137 C15.1490079,19.6631137 19.9605452,14.956175 19.9605452,9.12762979 C19.9605452,3.29908455 15.1490079,-1.40785408 9.23538389,-1.40785408 C3.32175987,-1.40785408 -1.4897774,3.29908455 -1.4897774,9.12762979 C-1.4897774,14.956175 3.32175987,19.6631137 9.23538389,19.6631137 Z M9.23538389,15.6631137 C5.51146087,15.6631137 2.5102226,12.7271197 2.5102226,9.12762979 C2.5102226,5.52813988 5.51146087,2.59214592 9.23538389,2.59214592 C12.9593069,2.59214592 15.9605452,5.52813988 15.9605452,9.12762979 C15.9605452,12.7271197 12.9593069,15.6631137 9.23538389,15.6631137 Z" id="椭圆形" fill-rule="nonzero"></path>
            </g>
        </g>
    </g>
</svg>