<?xml version="1.0" encoding="UTF-8"?>
<svg width="72px" height="72px" viewBox="0 0 72 72" version="1.1" xmlns="http://www.w3.org/2000/svg" xmlns:xlink="http://www.w3.org/1999/xlink">
    <!-- Generator: Sketch 63.1 (92452) - https://sketch.com -->
    <title>票据池内部计价</title>
    <desc>Created with Sketch.</desc>
    <g id="票据池内部计价" stroke="none" stroke-width="1" fill="none" fill-rule="evenodd">
        <g id="编组-2" transform="translate(9.000000, 14.000000)" fill="#60759C" fill-rule="nonzero">
            <path d="M-1.02910976,16.8533808 L-2,16.1027624 L-2,8 C-2,2.20101013 2.70101013,-2.5 8.5,-2.5 L44.5,-2.5 C50.2989899,-2.5 55,2.20101013 55,8 L55,16.7792528 L54.3053204,17.5044295 C53.1525485,18.7078092 52.5,20.2993726 52.5,22 C52.5,23.7006274 53.1525485,25.2921908 54.3053204,26.4955705 L55,27.2207472 L55,36 C55,41.7989899 50.2989899,46.5 44.5,46.5 L8.5,46.5 C2.70101013,46.5 -2,41.7989899 -2,36 L-2,27.8972376 L-1.02910976,27.1466192 C0.556293457,25.9209063 1.5,24.0409264 1.5,22 C1.5,19.9590736 0.556293457,18.0790937 -1.02910976,16.8533808 Z M3,13.7382188 C5.20921935,15.8763588 6.5,18.833344 6.5,22 C6.5,25.166656 5.20921935,28.1236412 3,30.2617812 L3,36 C3,39.0375661 5.46243388,41.5 8.5,41.5 L44.5,41.5 C47.5375661,41.5 50,39.0375661 50,36 L50,29.1597006 C48.3974411,27.1481486 47.5,24.6421443 47.5,22 C47.5,19.3578557 48.3974411,16.8518514 50,14.8402994 L50,8 C50,4.96243388 47.5375661,2.5 44.5,2.5 L8.5,2.5 C5.46243388,2.5 3,4.96243388 3,8 L3,13.7382188 Z" id="形状结合"></path>
        </g>
        <path d="M27.5,22 C28.3284271,22 29,22.6715729 29,23.5 L29,27 L32.5,27 C33.3284271,27 34,27.6715729 34,28.5 C34,29.3284271 33.3284271,30 32.5,30 L29,30 L29,33.5 C29,34.3284271 28.3284271,35 27.5,35 C26.6715729,35 26,34.3284271 26,33.5 L26,30 L22.5,30 C21.6715729,30 21,29.3284271 21,28.5 C21,27.6715729 21.6715729,27 22.5,27 L26,27 L26,23.5 C26,22.6715729 26.6715729,22 27.5,22 Z" id="形状结合" fill="#60759C"></path>
        <path d="M43.5,37 C44.3284271,37 45,37.6715729 45,38.5 L45,42 L48.5,42 C49.3284271,42 50,42.6715729 50,43.5 C50,44.3284271 49.3284271,45 48.5,45 L45,45 L45,48.5 C45,49.3284271 44.3284271,50 43.5,50 C42.6715729,50 42,49.3284271 42,48.5 L42,45 L38.5,45 C37.6715729,45 37,44.3284271 37,43.5 C37,42.6715729 37.6715729,42 38.5,42 L42,42 L42,38.5 C42,37.6715729 42.6715729,37 43.5,37 Z" id="形状结合" fill="#60759C" transform="translate(43.500000, 43.500000) rotate(45.000000) translate(-43.500000, -43.500000) "></path>
        <rect id="矩形备份" fill="#60759C" x="37" y="27" width="13" height="3" rx="1.5"></rect>
        <rect id="矩形备份-2" fill="#60759C" x="21" y="44" width="13" height="3" rx="1.5"></rect>
        <rect id="矩形备份-3" fill="#60759C" x="21" y="39" width="13" height="3" rx="1.5"></rect>
    </g>
</svg>