<?xml version="1.0" encoding="UTF-8"?>
<svg width="72px" height="72px" viewBox="0 0 72 72" version="1.1" xmlns="http://www.w3.org/2000/svg" xmlns:xlink="http://www.w3.org/1999/xlink">
    <!-- Generator: Sketch 63.1 (92452) - https://sketch.com -->
    <title>内部票据池</title>
    <desc>Created with Sketch.</desc>
    <g id="内部票据池" stroke="none" stroke-width="1" fill="none" fill-rule="evenodd">
        <g id="编组-2" transform="translate(9.000000, 14.000000)" fill="#60759C" fill-rule="nonzero">
            <path d="M-1.02910976,16.8533808 L-2,16.1027624 L-2,8 C-2,2.20101013 2.70101013,-2.5 8.5,-2.5 L44.5,-2.5 C50.2989899,-2.5 55,2.20101013 55,8 L55,16.7792528 L54.3053204,17.5044295 C53.1525485,18.7078092 52.5,20.2993726 52.5,22 C52.5,23.7006274 53.1525485,25.2921908 54.3053204,26.4955705 L55,27.2207472 L55,36 C55,41.7989899 50.2989899,46.5 44.5,46.5 L8.5,46.5 C2.70101013,46.5 -2,41.7989899 -2,36 L-2,27.8972376 L-1.02910976,27.1466192 C0.556293457,25.9209063 1.5,24.0409264 1.5,22 C1.5,19.9590736 0.556293457,18.0790937 -1.02910976,16.8533808 Z M3,13.7382188 C5.20921935,15.8763588 6.5,18.833344 6.5,22 C6.5,25.166656 5.20921935,28.1236412 3,30.2617812 L3,36 C3,39.0375661 5.46243388,41.5 8.5,41.5 L44.5,41.5 C47.5375661,41.5 50,39.0375661 50,36 L50,29.1597006 C48.3974411,27.1481486 47.5,24.6421443 47.5,22 C47.5,19.3578557 48.3974411,16.8518514 50,14.8402994 L50,8 C50,4.96243388 47.5375661,2.5 44.5,2.5 L8.5,2.5 C5.46243388,2.5 3,4.96243388 3,8 L3,13.7382188 Z" id="形状结合"></path>
        </g>
        <path d="M28.5,39 L45.5,39 C46.8807119,39 48,40.1192881 48,41.5 C48,42.8807119 46.8807119,44 45.5,44 L28.5,44 C27.1192881,44 26,42.8807119 26,41.5 C26,40.1192881 27.1192881,39 28.5,39 Z M28.5,43 C29.3284271,43 30,42.3284271 30,41.5 C30,40.6715729 29.3284271,40 28.5,40 L45.5,40 C44.6715729,40 44,40.6715729 44,41.5 C44,42.3284271 44.6715729,43 45.5,43 L28.5,43 Z" id="矩形" fill="#60759C" fill-rule="nonzero"></path>
        <path d="M28.5,27 L32.5,27 C33.8807119,27 35,28.1192881 35,29.5 C35,30.8807119 33.8807119,32 32.5,32 L28.5,32 C27.1192881,32 26,30.8807119 26,29.5 C26,28.1192881 27.1192881,27 28.5,27 Z M28.5,31 C29.3284271,31 30,30.3284271 30,29.5 C30,28.6715729 29.3284271,28 28.5,28 L32.5,28 C31.6715729,28 31,28.6715729 31,29.5 C31,30.3284271 31.6715729,31 32.5,31 L28.5,31 Z" id="矩形备份" fill="#60759C" fill-rule="nonzero"></path>
    </g>
</svg>