<?xml version="1.0" encoding="UTF-8"?>
<svg width="72px" height="72px" viewBox="0 0 72 72" version="1.1" xmlns="http://www.w3.org/2000/svg" xmlns:xlink="http://www.w3.org/1999/xlink">
    <!-- Generator: Sketch 63.1 (92452) - https://sketch.com -->
    <title>计划编制</title>
    <desc>Created with Sketch.</desc>
    <g id="计划编制" stroke="none" stroke-width="1" fill="none" fill-rule="evenodd">
        <path d="M59.5,46.6045476 L59.5,54.2962963 C59.5,57.1702225 57.1702225,59.5 54.2962963,59.5 L17.7037037,59.5 C14.8297775,59.5 12.5,57.1702225 12.5,54.2962963 L12.5,22.7037037 C12.5,19.8297775 14.8297775,17.5 17.7037037,17.5 L30,17.5 C31.3807119,17.5 32.5,16.3807119 32.5,15 C32.5,13.6192881 31.3807119,12.5 30,12.5 L17.7037037,12.5 C12.0683538,12.5 7.5,17.0683538 7.5,22.7037037 L7.5,54.2962963 C7.5,59.9316462 12.0683538,64.5 17.7037037,64.5 L54.2962963,64.5 C59.9316462,64.5 64.5,59.9316462 64.5,54.2962963 L64.5,46.6045476 C64.5,45.2238358 63.3807119,44.1045476 62,44.1045476 C60.6192881,44.1045476 59.5,45.2238358 59.5,46.6045476 Z" id="路径" fill="#60759C" fill-rule="nonzero" transform="translate(36.000000, 38.500000) scale(1, -1) translate(-36.000000, -38.500000) "></path>
        <path d="M22.5,40.0933449 L33.5,40.0933449 C34.8807119,40.0933449 36,41.212633 36,42.5933449 C36,43.9740567 34.8807119,45.0933449 33.5,45.0933449 L22.5,45.0933449 C21.1192881,45.0933449 20,43.9740567 20,42.5933449 C20,41.212633 21.1192881,40.0933449 22.5,40.0933449 Z M22.5,44.0933449 C23.3284271,44.0933449 24,43.421772 24,42.5933449 C24,41.7649177 23.3284271,41.0933449 22.5,41.0933449 L33.5,41.0933449 C32.6715729,41.0933449 32,41.7649177 32,42.5933449 C32,43.421772 32.6715729,44.0933449 33.5,44.0933449 L22.5,44.0933449 Z" id="矩形" fill="#60759C" fill-rule="nonzero" transform="translate(28.000000, 42.593345) scale(1, -1) translate(-28.000000, -42.593345) "></path>
        <path d="M20.5,12 L29.5,12 C30.8807119,12 32,13.1192881 32,14.5 C32,15.8807119 30.8807119,17 29.5,17 L20.5,17 C19.1192881,17 18,15.8807119 18,14.5 C18,13.1192881 19.1192881,12 20.5,12 Z M20.5,16 C21.3284271,16 22,15.3284271 22,14.5 C22,13.6715729 21.3284271,13 20.5,13 L29.5,13 C28.6715729,13 28,13.6715729 28,14.5 C28,15.3284271 28.6715729,16 29.5,16 L20.5,16 Z" id="矩形备份-2" fill="#60759C" fill-rule="nonzero" transform="translate(25.000000, 14.500000) scale(1, -1) rotate(90.000000) translate(-25.000000, -14.500000) "></path>
        <path d="M42.5,12 L51.5,12 C52.8807119,12 54,13.1192881 54,14.5 C54,15.8807119 52.8807119,17 51.5,17 L42.5,17 C41.1192881,17 40,15.8807119 40,14.5 C40,13.1192881 41.1192881,12 42.5,12 Z M42.5,16 C43.3284271,16 44,15.3284271 44,14.5 C44,13.6715729 43.3284271,13 42.5,13 L51.5,13 C50.6715729,13 50,13.6715729 50,14.5 C50,15.3284271 50.6715729,16 51.5,16 L42.5,16 Z" id="矩形备份-3" fill="#60759C" fill-rule="nonzero" transform="translate(47.000000, 14.500000) scale(1, -1) rotate(90.000000) translate(-47.000000, -14.500000) "></path>
        <path d="M12.5,25.0933449 L59.5,25.0933449 C60.8807119,25.0933449 62,26.212633 62,27.5933449 C62,28.9740567 60.8807119,30.0933449 59.5,30.0933449 L12.5,30.0933449 C11.1192881,30.0933449 10,28.9740567 10,27.5933449 C10,26.212633 11.1192881,25.0933449 12.5,25.0933449 Z M12.5,29.0933449 C13.3284271,29.0933449 14,28.421772 14,27.5933449 C14,26.7649177 13.3284271,26.0933449 12.5,26.0933449 L59.5,26.0933449 C58.6715729,26.0933449 58,26.7649177 58,27.5933449 C58,28.421772 58.6715729,29.0933449 59.5,29.0933449 L12.5,29.0933449 Z" id="矩形备份" fill="#60759C" fill-rule="nonzero" transform="translate(36.000000, 27.593345) scale(1, -1) translate(-36.000000, -27.593345) "></path>
        <g id="编辑" transform="translate(39.000000, 36.000000)" fill-rule="nonzero">
            <rect id="矩形" fill="#000000" opacity="0" x="0" y="0" width="27" height="27"></rect>
            <path d="M6.64571932,16.7024978 L17.6839807,5.55751488 C18.4612628,4.77271782 19.7275781,4.7666257 20.5123751,5.54390774 C20.5169167,5.54840581 20.5214366,5.55292563 20.5259349,5.55746703 L22.4574427,7.50751803 C23.2295049,8.28699224 23.2295049,9.54292675 22.4574427,10.322401 L11.3922865,21.4937865 L11.3922865,21.4937865 L6.64571932,16.7024978 Z M3,25 L10.2075326,22.6916086 L5.46264355,17.9011671 L3,25 Z" id="形状" fill="#60759C"></path>
        </g>
    </g>
</svg>