<?xml version="1.0" encoding="UTF-8"?>
<svg width="72px" height="72px" viewBox="0 0 72 72" version="1.1" xmlns="http://www.w3.org/2000/svg" xmlns:xlink="http://www.w3.org/1999/xlink">
    <!-- Generator: Sketch 63.1 (92452) - https://sketch.com -->
    <title>合并准备备份</title>
    <desc>Created with Sketch.</desc>
    <g id="合并准备备份" stroke="none" stroke-width="1" fill="none" fill-rule="evenodd">
        <g id="编组" transform="translate(12.000000, 11.000000)" fill="#60759C" fill-rule="nonzero">
            <path d="M26.568119,-1.2027027 L4,-1.2027027 C0.410149126,-1.2027027 -2.5,1.70744642 -2.5,5.2972973 L-2.5,46.5945946 C-2.5,50.1844455 0.410149126,53.0945946 4,53.0945946 L41.4054054,53.0945946 C44.9952563,53.0945946 47.9054054,50.1844455 47.9054054,46.5945946 L47.9054054,17.1790403 C47.9054054,15.8352524 47.3048567,14.5617811 46.268022,13.7069478 L29.4307356,-0.174795185 C28.6247565,-0.839296206 27.6127069,-1.2027027 26.568119,-1.2027027 Z M26.3885791,3.7972973 L42.9054054,17.4148323 L42.9054054,46.5945946 C42.9054054,47.4230217 42.2338325,48.0945946 41.4054054,48.0945946 L4,48.0945946 C3.17157288,48.0945946 2.5,47.4230217 2.5,46.5945946 L2.5,5.2972973 C2.5,4.46887017 3.17157288,3.7972973 4,3.7972973 L26.3885791,3.7972973 Z" id="路径-5"></path>
            <path d="M24.7432432,0 L24.7432432,14.4594595 C24.7432432,18.6015951 28.1011076,21.9594595 32.2432432,21.9594595 L48,21.9594595 L48,16.9594595 L32.2432432,16.9594595 C30.8625314,16.9594595 29.7432432,15.8401713 29.7432432,14.4594595 L29.7432432,0 L24.7432432,0 Z" id="路径-6"></path>
        </g>
        <path d="M34,32 C35.3807119,32 36.5,33.1192881 36.5,34.5 L36.5,40.5 L42.5,40.5 C43.8807119,40.5 45,41.6192881 45,43 C45,44.3807119 43.8807119,45.5 42.5,45.5 L36.5,45.5 L36.5,51.5 C36.5,52.8807119 35.3807119,54 34,54 C32.6192881,54 31.5,52.8807119 31.5,51.5 L31.5,45.5 L25.5,45.5 C24.1192881,45.5 23,44.3807119 23,43 C23,41.6192881 24.1192881,40.5 25.5,40.5 L31.5,40.5 L31.5,34.5 C31.5,33.1192881 32.6192881,32 34,32 Z" id="形状结合" fill="#60759C" fill-rule="nonzero" transform="translate(34.000000, 43.000000) rotate(45.000000) translate(-34.000000, -43.000000) "></path>
    </g>
</svg>