<?xml version="1.0" encoding="UTF-8"?>
<svg width="72px" height="72px" viewBox="0 0 72 72" version="1.1" xmlns="http://www.w3.org/2000/svg" xmlns:xlink="http://www.w3.org/1999/xlink">
    <!-- Generator: Sketch 63.1 (92452) - https://sketch.com -->
    <title>计划监控</title>
    <desc>Created with Sketch.</desc>
    <g id="计划监控" stroke="none" stroke-width="1" fill="none" fill-rule="evenodd">
        <path d="M59.5,46.6045476 L59.5,54.2962963 C59.5,57.1702225 57.1702225,59.5 54.2962963,59.5 L17.7037037,59.5 C14.8297775,59.5 12.5,57.1702225 12.5,54.2962963 L12.5,22.7037037 C12.5,19.8297775 14.8297775,17.5 17.7037037,17.5 L30,17.5 C31.3807119,17.5 32.5,16.3807119 32.5,15 C32.5,13.6192881 31.3807119,12.5 30,12.5 L17.7037037,12.5 C12.0683538,12.5 7.5,17.0683538 7.5,22.7037037 L7.5,54.2962963 C7.5,59.9316462 12.0683538,64.5 17.7037037,64.5 L54.2962963,64.5 C59.9316462,64.5 64.5,59.9316462 64.5,54.2962963 L64.5,46.6045476 C64.5,45.2238358 63.3807119,44.1045476 62,44.1045476 C60.6192881,44.1045476 59.5,45.2238358 59.5,46.6045476 Z" id="路径" fill="#60759C" fill-rule="nonzero" transform="translate(36.000000, 38.500000) scale(1, -1) translate(-36.000000, -38.500000) "></path>
        <path d="M22.5,40.0933449 L33.5,40.0933449 C34.8807119,40.0933449 36,41.212633 36,42.5933449 C36,43.9740567 34.8807119,45.0933449 33.5,45.0933449 L22.5,45.0933449 C21.1192881,45.0933449 20,43.9740567 20,42.5933449 C20,41.212633 21.1192881,40.0933449 22.5,40.0933449 Z M22.5,44.0933449 C23.3284271,44.0933449 24,43.421772 24,42.5933449 C24,41.7649177 23.3284271,41.0933449 22.5,41.0933449 L33.5,41.0933449 C32.6715729,41.0933449 32,41.7649177 32,42.5933449 C32,43.421772 32.6715729,44.0933449 33.5,44.0933449 L22.5,44.0933449 Z" id="矩形" fill="#60759C" fill-rule="nonzero" transform="translate(28.000000, 42.593345) scale(1, -1) translate(-28.000000, -42.593345) "></path>
        <g id="编组" transform="translate(43.000000, 39.000000)" fill="#60759C">
            <path d="M7.21647059,20.46 L10.8635294,20.46 C11.7894186,20.46 12.54,21.2105814 12.54,22.1364706 C12.54,23.0623597 11.7894186,23.8129412 10.8635294,23.8129412 L7.21647059,23.8129412 C6.29058145,23.8129412 5.54,23.0623597 5.54,22.1364706 C5.54,21.2105814 6.29058145,20.46 7.21647059,20.46 Z" id="矩形备份-4" transform="translate(9.040000, 22.136471) scale(1, -1) rotate(90.000000) translate(-9.040000, -22.136471) "></path>
            <path d="M3.68,23 L13.7317647,23 C14.6596031,23 15.4117647,23.7521616 15.4117647,24.68 C15.4117647,25.6078384 14.6596031,26.36 13.7317647,26.36 L3.68,26.36 C2.75216162,26.36 2,25.6078384 2,24.68 C2,23.7521616 2.75216162,23 3.68,23 Z M3.68,27.4 C5.18221452,27.4 6.4,26.1822145 6.4,24.68 C6.4,23.1777855 5.18221452,21.96 3.68,21.96 L13.7317647,21.96 C12.2295502,21.96 11.0117647,23.1777855 11.0117647,24.68 C11.0117647,26.1822145 12.2295502,27.4 13.7317647,27.4 L3.68,27.4 Z" id="矩形备份-4" fill-rule="nonzero" transform="translate(8.705882, 24.680000) scale(1, -1) translate(-8.705882, -24.680000) "></path>
            <path d="M9,20 C15.0751322,20 20,15.0751322 20,9 C20,2.92486775 15.0751322,-2 9,-2 C2.92486775,-2 -2,2.92486775 -2,9 C-2,15.0751322 2.92486775,20 9,20 Z M9,16 C5.13400675,16 2,12.8659932 2,9 C2,5.13400675 5.13400675,2 9,2 C12.8659932,2 16,5.13400675 16,9 C16,12.8659932 12.8659932,16 9,16 Z" id="椭圆形" fill-rule="nonzero"></path>
            <path d="M9,12.0534211 C10.6821996,12.0534211 12.045,10.6877516 12.045,9.00421053 C12.045,7.32066945 10.6821996,5.955 9,5.955 C7.3178004,5.955 5.955,7.32066945 5.955,9.00421053 C5.955,10.6877516 7.3178004,12.0534211 9,12.0534211 Z M9,9.96342105 C8.4730606,9.96342105 8.045,9.53445927 8.045,9.00421053 C8.045,8.47396178 8.4730606,8.045 9,8.045 C9.5269394,8.045 9.955,8.47396178 9.955,9.00421053 C9.955,9.53445927 9.5269394,9.96342105 9,9.96342105 Z" id="椭圆形" fill-rule="nonzero"></path>
        </g>
        <path d="M20.5,12 L29.5,12 C30.8807119,12 32,13.1192881 32,14.5 C32,15.8807119 30.8807119,17 29.5,17 L20.5,17 C19.1192881,17 18,15.8807119 18,14.5 C18,13.1192881 19.1192881,12 20.5,12 Z M20.5,16 C21.3284271,16 22,15.3284271 22,14.5 C22,13.6715729 21.3284271,13 20.5,13 L29.5,13 C28.6715729,13 28,13.6715729 28,14.5 C28,15.3284271 28.6715729,16 29.5,16 L20.5,16 Z" id="矩形备份-2" fill="#60759C" fill-rule="nonzero" transform="translate(25.000000, 14.500000) scale(1, -1) rotate(90.000000) translate(-25.000000, -14.500000) "></path>
        <path d="M42.5,12 L51.5,12 C52.8807119,12 54,13.1192881 54,14.5 C54,15.8807119 52.8807119,17 51.5,17 L42.5,17 C41.1192881,17 40,15.8807119 40,14.5 C40,13.1192881 41.1192881,12 42.5,12 Z M42.5,16 C43.3284271,16 44,15.3284271 44,14.5 C44,13.6715729 43.3284271,13 42.5,13 L51.5,13 C50.6715729,13 50,13.6715729 50,14.5 C50,15.3284271 50.6715729,16 51.5,16 L42.5,16 Z" id="矩形备份-3" fill="#60759C" fill-rule="nonzero" transform="translate(47.000000, 14.500000) scale(1, -1) rotate(90.000000) translate(-47.000000, -14.500000) "></path>
        <path d="M12.5,25.0933449 L59.5,25.0933449 C60.8807119,25.0933449 62,26.212633 62,27.5933449 C62,28.9740567 60.8807119,30.0933449 59.5,30.0933449 L12.5,30.0933449 C11.1192881,30.0933449 10,28.9740567 10,27.5933449 C10,26.212633 11.1192881,25.0933449 12.5,25.0933449 Z M12.5,29.0933449 C13.3284271,29.0933449 14,28.421772 14,27.5933449 C14,26.7649177 13.3284271,26.0933449 12.5,26.0933449 L59.5,26.0933449 C58.6715729,26.0933449 58,26.7649177 58,27.5933449 C58,28.421772 58.6715729,29.0933449 59.5,29.0933449 L12.5,29.0933449 Z" id="矩形备份" fill="#60759C" fill-rule="nonzero" transform="translate(36.000000, 27.593345) scale(1, -1) translate(-36.000000, -27.593345) "></path>
    </g>
</svg>