<?xml version="1.0" encoding="UTF-8"?>
<svg width="72px" height="72px" viewBox="0 0 72 72" version="1.1" xmlns="http://www.w3.org/2000/svg" xmlns:xlink="http://www.w3.org/1999/xlink">
    <!-- Generator: Sketch 63.1 (92452) - https://sketch.com -->
    <title>授信管理</title>
    <desc>Created with Sketch.</desc>
    <g id="授信管理" stroke="none" stroke-width="1" fill="none" fill-rule="evenodd">
        <g id="编组-2" transform="translate(10.000000, 10.000000)" fill="#60759C" fill-rule="nonzero">
            <g id="编组" transform="translate(30.254545, 27.418182)">
                <path d="M10.041202,-1.81894632 C7.81868459,-0.802929846 6.10118981,-0.122698699 4.91886147,0.217100897 C3.89560002,0.51118488 2.45146507,0.785776755 0.603570943,1.03213981 C-0.886831524,1.23076302 -2,2.50216294 -2,4.00582832 L-2,15.2964812 C-2,18.0960392 -0.765182409,20.7530691 1.37475452,22.5581212 C2.17312321,23.2315509 2.91436383,23.7887806 3.60369146,24.2307224 C4.9785474,25.1121702 7.06993107,26.1240852 9.91153259,27.2946193 C10.5480049,27.5567783 11.2643496,27.5449387 11.8917617,27.2619005 C14.4671632,26.1000847 16.418828,25.0957139 17.7680159,24.2307224 C18.462596,23.7854131 19.2462774,23.2178302 20.1243326,22.5261066 C22.4109216,20.7247566 23.7454545,17.9745205 23.7454545,15.0636158 L23.7454545,4.04780481 C23.7454545,2.52149767 22.5994792,1.23858208 21.0829579,1.06687998 C19.0114199,0.832338299 17.400065,0.545827374 16.2689036,0.218232356 C15.008343,-0.146837877 13.5321115,-0.799359976 11.8528012,-1.7434033 L10.9662099,-2.24181064 L10.041202,-1.81894632 Z M10.7886895,2.23150734 C12.3677126,3.06324925 13.8210325,3.67367583 15.1561901,4.06035008 C16.352733,4.4068802 17.8781484,4.69596992 19.7454545,4.9347009 L19.7454545,15.0636158 C19.7454545,16.7488762 18.9728306,18.3411174 17.6490161,19.3840041 C16.8659073,20.0009298 16.1841869,20.4946672 15.609126,20.8633504 C14.550387,21.5421292 12.9541608,22.3747364 10.8368257,23.3472543 C8.50692572,22.3680857 6.80667287,21.5327384 5.7625814,20.8633504 C5.23154631,20.5228931 4.62688234,20.0683353 3.95380457,19.5005894 C2.71489393,18.4555594 2,16.91728 2,15.2964835 L2,4.87535021 C3.62810741,4.63501204 4.96578971,4.36553257 6.02373137,4.06148154 C7.24785057,3.7096713 8.82958657,3.10069463 10.7886895,2.23150734 Z" id="路径-4"></path>
                <path d="M9.4830996,13.9926261 L6.6579531,11.5317744 C6.03327777,10.9876492 5.08577773,11.052948 4.54165253,11.6776233 C3.99752733,12.3022986 4.06282612,13.2497987 4.68750145,13.7939239 L8.23899227,16.8874599 C9.04993542,17.5938342 10.2742958,17.5324481 11.0105183,16.748503 L17.3400607,10.0086753 C17.9071782,9.40479681 17.8773776,8.45551699 17.2734991,7.88839947 C16.6696206,7.32128195 15.7203408,7.35108259 15.1532233,7.95496107 L9.4830996,13.9926261 Z" id="路径-2"></path>
            </g>
            <path d="M46.6636364,29.8806632 L46.6636364,41.8801347 C46.6636364,44.5219897 44.5219897,46.6636364 41.8801347,46.6636364 L7.28350168,46.6636364 C4.64164665,46.6636364 2.5,44.5219897 2.5,41.8801347 L2.5,7.28350168 C2.5,4.64164665 4.64164665,2.5 7.28350168,2.5 L18.9090909,2.5 C20.2898028,2.5 21.4090909,1.38071187 21.4090909,0 C21.4090909,-1.38071187 20.2898028,-2.5 18.9090909,-2.5 L7.28350168,-2.5 C1.8802229,-2.5 -2.5,1.8802229 -2.5,7.28350168 L-2.5,41.8801347 C-2.5,47.2834135 1.8802229,51.6636364 7.28350168,51.6636364 L41.8801347,51.6636364 C47.2834135,51.6636364 51.6636364,47.2834135 51.6636364,41.8801347 L51.6636364,29.8806632 C51.6636364,28.4999514 50.5443482,27.3806632 49.1636364,27.3806632 C47.7829245,27.3806632 46.6636364,28.4999514 46.6636364,29.8806632 Z" id="路径" transform="translate(24.581818, 24.581818) scale(1, -1) translate(-24.581818, -24.581818) "></path>
            <path d="M11.8181818,28.4518897 L22.2181818,28.4518897 C23.5235821,28.4518897 24.5818182,29.5101257 24.5818182,30.8155261 C24.5818182,32.1209264 23.5235821,33.1791624 22.2181818,33.1791624 L11.8181818,33.1791624 C10.5127815,33.1791624 9.45454545,32.1209264 9.45454545,30.8155261 C9.45454545,29.5101257 10.5127815,28.4518897 11.8181818,28.4518897 Z M11.8181818,32.4518897 C12.7219205,32.4518897 13.4545455,31.7192647 13.4545455,30.8155261 C13.4545455,29.9117874 12.7219205,29.1791624 11.8181818,29.1791624 L22.2181818,29.1791624 C21.3144431,29.1791624 20.5818182,29.9117874 20.5818182,30.8155261 C20.5818182,31.7192647 21.3144431,32.4518897 22.2181818,32.4518897 L11.8181818,32.4518897 Z" id="矩形" transform="translate(17.018182, 30.815526) scale(1, -1) translate(-17.018182, -30.815526) "></path>
            <path d="M11.8181818,14.2700715 L37.3454545,14.2700715 C38.6508549,14.2700715 39.7090909,15.3283076 39.7090909,16.6337079 C39.7090909,17.9391082 38.6508549,18.9973442 37.3454545,18.9973442 L11.8181818,18.9973442 C10.5127815,18.9973442 9.45454545,17.9391082 9.45454545,16.6337079 C9.45454545,15.3283076 10.5127815,14.2700715 11.8181818,14.2700715 Z M11.8181818,18.2700715 C12.7219205,18.2700715 13.4545455,17.5374466 13.4545455,16.6337079 C13.4545455,15.7299692 12.7219205,14.9973442 11.8181818,14.9973442 L37.3454545,14.9973442 C36.4417159,14.9973442 35.7090909,15.7299692 35.7090909,16.6337079 C35.7090909,17.5374466 36.4417159,18.2700715 37.3454545,18.2700715 L11.8181818,18.2700715 Z" id="矩形备份" transform="translate(24.581818, 16.633708) scale(1, -1) translate(-24.581818, -16.633708) "></path>
        </g>
    </g>
</svg>