<?xml version="1.0" encoding="UTF-8"?>
<svg width="72px" height="72px" viewBox="0 0 72 72" version="1.1" xmlns="http://www.w3.org/2000/svg" xmlns:xlink="http://www.w3.org/1999/xlink">
    <!-- Generator: Sketch 63.1 (92452) - https://sketch.com -->
    <title>统计管理</title>
    <desc>Created with Sketch.</desc>
    <g id="统计管理" stroke="none" stroke-width="1" fill="none" fill-rule="evenodd">
        <g id="编组-25" transform="translate(34.500000, 33.000000) scale(1, -1) rotate(90.000000) translate(-34.500000, -33.000000) translate(8.500000, 6.500000)" fill="#60759C" fill-rule="nonzero">
            <path d="M3,47 L49,47 C50.6568542,47 52,48.3431458 52,50 C52,51.6568542 50.6568542,53 49,53 L3,53 C1.34314575,53 0,51.6568542 0,50 C0,48.3431458 1.34314575,47 3,47 Z M3,51 C3.55228475,51 4,50.5522847 4,50 C4,49.4477153 3.55228475,49 3,49 L49,49 C48.4477153,49 48,49.4477153 48,50 C48,50.5522847 48.4477153,51 49,51 L3,51 Z" id="矩形备份-2"></path>
            <path d="M-20,23 L26,23 C27.6568542,23 29,24.3431458 29,26 C29,27.6568542 27.6568542,29 26,29 L-20,29 C-21.6568542,29 -23,27.6568542 -23,26 C-23,24.3431458 -21.6568542,23 -20,23 Z M-20,27 C-19.4477153,27 -19,26.5522847 -19,26 C-19,25.4477153 -19.4477153,25 -20,25 L26,25 C25.4477153,25 25,25.4477153 25,26 C25,26.5522847 25.4477153,27 26,27 L-20,27 Z" id="矩形备份-2" transform="translate(3.000000, 26.000000) rotate(90.000000) translate(-3.000000, -26.000000) "></path>
            <path d="M3,31 L26,31 C27.6568542,31 29,32.3431458 29,34 C29,35.6568542 27.6568542,37 26,37 L3,37 C1.34314575,37 0,35.6568542 0,34 C0,32.3431458 1.34314575,31 3,31 Z M3,35 C3.55228475,35 4,34.5522847 4,34 C4,33.4477153 3.55228475,33 3,33 L26,33 C25.4477153,33 25,33.4477153 25,34 C25,34.5522847 25.4477153,35 26,35 L3,35 Z" id="矩形备份"></path>
            <path d="M4.5,16.5 L17.5,16.5 C19.1568542,16.5 20.5,17.8431458 20.5,19.5 C20.5,21.1568542 19.1568542,22.5 17.5,22.5 L4.5,22.5 C2.84314575,22.5 1.5,21.1568542 1.5,19.5 C1.5,17.8431458 2.84314575,16.5 4.5,16.5 Z M4.5,20.5 C5.05228475,20.5 5.5,20.0522847 5.5,19.5 C5.5,18.9477153 5.05228475,18.5 4.5,18.5 L17.5,18.5 C16.9477153,18.5 16.5,18.9477153 16.5,19.5 C16.5,20.0522847 16.9477153,20.5 17.5,20.5 L4.5,20.5 Z" id="矩形备份-3"></path>
            <path d="M6.5,2.5 L23.5,2.5 C25.1568542,2.5 26.5,3.84314575 26.5,5.5 C26.5,7.15685425 25.1568542,8.5 23.5,8.5 L6.5,8.5 C4.84314575,8.5 3.5,7.15685425 3.5,5.5 C3.5,3.84314575 4.84314575,2.5 6.5,2.5 Z M6.5,6.5 C7.05228475,6.5 7.5,6.05228475 7.5,5.5 C7.5,4.94771525 7.05228475,4.5 6.5,4.5 L23.5,4.5 C22.9477153,4.5 22.5,4.94771525 22.5,5.5 C22.5,6.05228475 22.9477153,6.5 23.5,6.5 L6.5,6.5 Z" id="矩形备份-4"></path>
        </g>
        <path d="M12.9033409,26.9093039 L27.0486202,21.4277415 C27.1984504,21.3696795 27.3670557,21.387165 27.5017826,21.4747374 L38.5179338,28.6352358 C40.2532378,29.7631834 42.4748391,29.8214648 44.2668965,28.7860538 L58.250694,20.7065264 C59.4462042,20.0157871 59.8554019,18.4866799 59.1646627,17.2911697 C58.4739235,16.0956595 56.9448162,15.6864618 55.749306,16.377201 L41.7655085,24.4567284 C41.6025942,24.5508567 41.4006305,24.5455584 41.2428756,24.4430177 L30.2267243,17.2825194 C28.7447284,16.319222 26.8900703,16.1268816 25.2419384,16.7655638 L11.0966591,22.2471262 C9.80923429,22.7460276 9.17000975,24.1941312 9.66891115,25.481556 C10.1678125,26.7689808 11.6159161,27.4082053 12.9033409,26.9093039 Z" id="路径-12" fill="#60759C" fill-rule="nonzero" transform="translate(34.499872, 22.782623) scale(-1, -1) translate(-34.499872, -22.782623) "></path>
    </g>
</svg>