<?xml version="1.0" encoding="UTF-8"?>
<svg width="72px" height="72px" viewBox="0 0 72 72" version="1.1" xmlns="http://www.w3.org/2000/svg" xmlns:xlink="http://www.w3.org/1999/xlink">
    <!-- Generator: Sketch 63.1 (92452) - https://sketch.com -->
    <title>担保业务</title>
    <desc>Created with Sketch.</desc>
    <g id="担保业务" stroke="none" stroke-width="1" fill="none" fill-rule="evenodd">
        <path d="M34.9605934,6.72631711 C30.1876556,8.90824981 26.4826821,10.375642 23.8833526,11.1226858 C21.606412,11.7770755 18.4408553,12.3771655 14.408471,12.9118644 C12.1714081,13.2085049 10.5,15.1161751 10.5,17.3728167 L10.5,41.757935 C10.5,46.8649711 12.7309128,51.7171902 16.6075661,55.0418511 C18.4034955,56.5820601 20.0507508,57.8343641 21.5573286,58.8002614 C24.3640071,60.5996794 28.713901,62.7038049 34.6492434,65.1479125 C35.5397579,65.5147894 36.5425319,65.4982595 37.4208367,65.1021591 C42.8099382,62.6717672 46.8781236,60.578683 49.6520525,58.8002614 C51.1719174,57.8258454 52.9177468,56.5523362 54.8973397,54.9769094 C59.0692717,51.6567485 61.5,46.6157597 61.5,41.2839207 L61.5,17.4596166 C61.5,15.1689545 59.7792582,13.2438631 57.5029819,12.9878299 C52.9846577,12.4796136 49.4530269,11.8537714 46.9335258,11.1241002 C44.1270047,10.3113051 40.8856134,8.87854928 37.2250924,6.82074588 L36.1168533,6.1977367 L34.9605934,6.72631711 Z M45.5426339,15.9267473 C48.2875361,16.7216969 51.9322817,17.3772087 56.5,17.905828 L56.5,41.2839207 C56.5,45.092377 54.7637658,48.6930827 51.7838144,51.0646262 C49.9280926,52.5414721 48.3153684,53.7178867 46.95344,54.5910464 C44.5194664,56.1515158 40.8454301,58.0536077 35.9550448,60.2771792 C30.5816407,58.044259 26.6694213,56.1383772 24.255941,54.5910464 C22.9609112,53.7607767 21.4937811,52.6454106 19.8625473,51.2464464 C17.0935092,48.8716886 15.5,45.4058176 15.5,41.7579346 L15.5,17.8102122 C19.5536809,17.2598972 22.8019534,16.635877 25.26444,15.9281616 C27.9220102,15.1643795 31.4540772,13.7880639 35.8901499,11.7946667 C39.4214508,13.706064 42.6350493,15.0846834 45.5426339,15.9267473 Z" id="路径-4" fill="#60759C" fill-rule="nonzero"></path>
        <g id="赞" transform="translate(24.000000, 21.000000)" fill="#60759C" fill-rule="nonzero">
            <path d="M21.091517,10.493448 L18.8208459,19.8353336 C18.8036061,19.9062903 18.6686657,19.9999228 18.6026274,19.9999228 L7.11109539,19.9956805 L7.11109539,9.8713934 L7.19729458,9.8713934 L7.19729458,9.84356627 C9.86889213,9.58660676 11.8936378,7.59870922 11.8972399,5.22911379 L11.8972399,4.80706085 C11.92015,4.35566491 12.34204,3.99992277 12.8545368,3.99992277 C13.3670917,3.99992277 13.7888677,4.35566491 13.8116637,4.80706085 L13.8730054,4.80706085 C14.0624145,5.67227735 14.2309755,7.61613077 13.1588977,8.49730897 L13.1588977,8.49730897 C12.6303549,8.49776645 12.2023078,8.87594316 12.2028268,9.34199088 C12.2033457,9.80803861 12.6322343,10.1854734 13.160777,10.1850157 C13.4022815,10.1848066 13.6347674,10.1040943 13.8116069,9.95906617 C13.9504992,9.95906617 14.0854964,9.92366358 14.213737,9.87134251 L20.5027337,9.87134251 C20.7247324,9.87134251 20.902801,9.93290563 21.0062409,10.0451737 C21.1047543,10.1533006 21.1354538,10.3127389 21.0915237,10.4934389 L21.091517,10.493448 Z M3.03788402,8.99939044 L6.0793358,8.99939044 L6.0793358,20.9939498 L3.03168691,20.9939498 L3.03788687,8.99939044 L3.03788402,8.99939044 Z M21.3230983,6.99933109 L16.0853524,6.99933109 C16.8208379,4.89916359 16.2559729,2.46712854 16.2234535,2.33317262 C16.1933348,2.21334728 16.140252,2.10028484 16.0670565,2.00005935 C15.6395033,0.80445076 14.4938475,0.00347102671 13.2063894,0 C11.5925763,0.00412876874 10.262738,1.24772541 10.1759547,2.83413421 L10.1587529,2.83413421 L10.1587529,3.49916423 C10.1587529,5.42915325 8.56390382,6.99933821 6.60313083,6.99933821 L2.03790209,6.99933821 C0.914249553,6.99933821 0,7.8993509 0,9.00639805 L0,20.9929402 C0,22.1000481 0.909144653,23 2.02659771,23 L19.3065646,23 C20.3336918,23 21.307937,22.2199025 21.5252395,21.2250478 L23.9348472,10.1554645 C24.1097225,9.35035459 23.9288295,8.54638066 23.4371479,7.9472908 C22.9424413,7.34435114 22.1713379,6.99933109 21.3230983,6.99933109 Z" id="形状"></path>
        </g>
    </g>
</svg>