<?xml version="1.0" encoding="UTF-8"?>
<svg width="72px" height="72px" viewBox="0 0 72 72" version="1.1" xmlns="http://www.w3.org/2000/svg" xmlns:xlink="http://www.w3.org/1999/xlink">
    <!-- Generator: Sketch 63.1 (92452) - https://sketch.com -->
    <title>融资筹划</title>
    <desc>Created with Sketch.</desc>
    <g id="融资筹划" stroke="none" stroke-width="1" fill="none" fill-rule="evenodd">
        <g id="融资" transform="translate(12.000000, 46.000000)" fill="#60759C" fill-rule="nonzero">
            <path d="M36.813049,-1.6075015 C36.2726448,-1.42672596 35.7165396,-1.23629192 35.1460728,-1.03698828 C33.9226725,-0.609569671 32.6766639,-0.156872843 31.3960806,0.321275169 C30.9181886,0.499711882 30.4580206,0.673253347 29.9743365,0.857007562 C29.7159479,0.955170803 29.0584253,1.20591502 29.0195544,1.22069577 L27.5398856,1.78334296 C27.3193594,1.75102863 27.076826,1.71928993 26.8036369,1.68543071 C26.7746385,1.68183663 26.2529462,1.61819719 26.1045739,1.59938147 C25.8584395,1.56816813 25.6586839,1.54059288 25.4756435,1.51208812 C25.1386354,1.45960608 24.872401,1.4056478 24.6681462,1.34932297 C23.052469,0.911481377 21.9030741,0.33042604 20.2853044,-1.08739509 C16.9226501,-4.05946579 11.0964391,-4.64615143 6.38191935,-3.42709077 C5.57056742,-3.21729481 4.66093503,-2.93403634 3.66138725,-2.5877525 C3.23613811,-2.44042897 2.7980219,-2.2828136 2.34934657,-2.1162781 C1.42311849,-1.7724886 0.493091681,-1.40637275 -0.399171524,-1.04033706 C-0.711592887,-0.912171547 -0.997656586,-0.792887553 -1.25191911,-0.685347186 C-1.40749188,-0.619547661 -1.52004132,-0.571347174 -1.58405837,-0.543626652 L-3.91902257,0.467454475 L-3.99291658,3.01085428 C-3.99428926,3.05992916 -3.99428926,3.05992916 -3.99682044,3.19834362 C-4.00664008,3.83121478 -3.996703,4.62783204 -3.95236534,5.53331496 C-3.88619286,6.88471783 -3.75420149,8.22437957 -3.53665441,9.50628628 C-2.81824086,13.7395729 -1.40813378,16.7751798 1.77085964,18.0717 C2.61651858,18.425955 3.25109728,18.5033236 5.12609492,18.6396031 C5.3085937,18.6528676 6.42471002,18.7302616 6.76089021,18.7551317 C7.40770787,18.8029822 7.94428199,18.8488779 8.44879724,18.9013934 C9.30294172,18.990302 10.0180171,19.0944408 10.6006616,19.2179986 C12.4378555,19.6042579 13.3271001,19.7806558 16.3121538,20.3611388 L16.4820684,20.3941928 C17.9901475,20.6876828 18.9776758,20.8843248 20.1053399,21.1187416 C20.5416049,21.2114754 21.9567549,21.5349015 22.1280031,21.5723625 C22.9825297,21.7592924 23.6406424,21.8746441 24.3324083,21.9418065 C25.788136,22.0831406 27.1820397,21.9702168 28.7372103,21.56496 C31.427963,20.8686271 36.9604769,17.8291315 39.3488443,16.1134673 C40.7584607,15.0837429 43.4908137,13.0156485 45.7043981,11.2722903 C49.820788,8.0303345 51.6871258,6.41160662 52.4282894,4.98317326 C53.8525561,2.08767359 52.5617261,-0.555475008 50.2651962,-2.11252486 C48.7857271,-3.11560655 46.8522769,-3.68319309 45.0412112,-3.62199704 C43.2200194,-3.56654139 40.5490639,-2.85726988 36.813049,-1.6075015 Z M48.8777737,3.14093594 C48.1339685,4.57446029 38.5137232,11.7699175 37.0151745,12.8647775 C35.8010219,13.7369541 30.3099893,17.0261734 27.7285477,17.6942236 C25.1471061,18.366913 23.7579405,17.8055653 20.9194486,17.2024645 C17.5942018,16.5112181 15.2479339,16.1076044 11.4304631,15.3050164 C8.38961235,14.6601624 4.13460904,14.7251117 3.28142071,14.3678904 C-0.278999804,12.9158091 0.00539630422,3.12701823 0.00539630422,3.12701823 C0.00539630422,3.12701823 4.44088177,1.20637395 7.38328766,0.445539021 C10.3256936,-0.31529591 15.1713657,-0.268903536 17.6488934,1.92081651 C20.1209518,4.08734037 22.0296873,4.77858674 23.6048042,5.20539658 C25.1525753,5.63220642 27.0886565,5.63220642 27.914499,5.96623151 C28.7403416,6.30489584 30.6764228,9.25081158 27.4496208,10.1693806 C24.2228188,11.0833103 18.9888366,9.98845032 17.3371515,9.65442523 C15.6854664,9.3157609 14.3181774,8.82400174 14.0337813,8.73585623 C13.7493852,8.67090691 12.901666,9.25081158 18.2395622,11.5982657 C22.1390704,13.0271508 27.0613107,12.3776576 28.6364276,11.7977529 C30.4412491,11.1297027 31.6280559,10.0116465 31.7811923,8.62451453 C32.016366,6.49974381 31.1631777,5.94303532 30.4412491,4.959517 C32.5031209,4.17548588 42.1014895,0.464095971 45.169686,0.37595046 C47.1276438,0.306361899 49.5778257,1.71669006 48.8777737,3.14093594 Z" id="形状"></path>
        </g>
        <path d="M36.5,43 C45.6126984,43 53,35.6126984 53,26.5 C53,17.3873016 45.6126984,10 36.5,10 C27.3873016,10 20,17.3873016 20,26.5 C20,35.6126984 27.3873016,43 36.5,43 Z M36.5,39 C29.5964406,39 24,33.4035594 24,26.5 C24,19.5964406 29.5964406,14 36.5,14 C43.4035594,14 49,19.5964406 49,26.5 C49,33.4035594 43.4035594,39 36.5,39 Z" id="椭圆形" fill="#60759C" fill-rule="nonzero"></path>
        <g id="现金" transform="translate(30.000000, 19.000000)" fill="#60759C" fill-rule="nonzero">
            <g id="时间轴-羊角标">
                <path d="M12.6175617,10.1346065 C12.8034619,10.3320062 12.9099964,10.5678067 12.9335917,10.8420068 C12.9099967,11.1270071 12.8034616,11.3652071 12.6175617,11.5560076 C12.4309458,11.7480078 12.1771205,11.8542076 11.8525108,11.877008 L8.27178107,11.8608079 L8.27178107,13.6032123 C8.22316101,14.5344131 7.64400999,15.0000142 6.53718835,15.0000142 C5.99021271,15.0000142 5.56478722,14.8860141 5.26019616,14.6550138 C4.95417546,14.4252133 4.78972527,14.0748134 4.76612989,13.6032123 L4.76612989,11.8932103 L1.16537802,11.8932103 C0.830757282,11.8716103 0.57192733,11.7480102 0.392461423,11.5236093 L0.392461391,11.5236093 C0.212449109,11.3004767 0.100040714,11.0438548 0.0649906606,10.7760078 C0.102885705,10.5024069 0.211565831,10.2780072 0.392461391,10.1022067 C0.571211599,9.92700682 0.83075725,9.82800671 1.16537799,9.80580698 L4.76612986,9.80580698 L4.76612986,8.17020449 L1.16537799,8.15400447 C0.83075725,8.13180444 0.571927298,8.02800432 0.392461391,7.8420041 C0.211565831,7.65480418 0.102886054,7.41900361 0.0649906606,7.13400328 C0.102885705,6.86040238 0.211565831,6.6360027 0.392461391,6.4602022 C0.571211599,6.28500229 0.83075725,6.1866013 1.16537799,6.16440157 L3.851641,6.16440157 L1.35200089,2.2860035 L1.3520009,2.28600351 C1.21081826,2.131017 1.09179191,1.96266671 0.997359785,1.78440234 L0.997359736,1.78440225 C0.884505513,1.57571597 0.833481231,1.34721766 0.848639563,1.11840147 C0.910129634,0.81120141 1.03525548,0.56220112 1.22044,0.370200897 C1.40776986,0.17880126 1.75669062,0.0552005301 2.26577086,0.000599880674 C2.56392586,0.0221999058 2.83205117,0.113400012 3.06800145,0.27240049 C3.30395172,0.430800088 3.49700195,0.603600582 3.64715212,0.789600799 L6.48140774,5.35980143 L9.59595555,0.757198417 C9.74467573,0.571198201 9.93844025,0.406198009 10.1751062,0.263998136 C10.4110565,0.119998115 10.6777522,0.0329978676 10.9759072,-2.17080742e-06 C11.163237,0.0107978418 11.3334076,0.0329978676 11.4892781,0.0653979053 C11.6430033,0.0989979444 11.7809988,0.153598008 11.8996879,0.230998684 C12.016948,0.307198773 12.1170474,0.4169989 12.1978429,0.559198773 C12.278638,0.701398938 12.336553,0.887999448 12.3744477,1.11839913 C12.3744477,1.4363995 12.2507526,1.73759956 12.0019316,2.02259989 L9.11118813,6.16500705 L11.8532233,6.16500705 C12.1764033,6.18660708 12.4316583,6.28560719 12.6168445,6.46080769 C12.8027448,6.63660819 12.9092792,6.86100786 12.9343042,7.13460877 C12.9092792,7.42020969 12.8005991,7.66140967 12.6082631,7.8582102 C12.4152129,8.05501072 12.1578126,8.16421055 11.8339169,8.18701087 L8.27106215,8.20321089 L8.27106215,9.80581041 L11.8517919,9.80581041 C12.1764016,9.82801044 12.4302269,9.93781057 12.6168428,10.1346111 L12.6175617,10.1346065 Z" id="路径"></path>
            </g>
        </g>
    </g>
</svg>