<?xml version="1.0" encoding="UTF-8"?>
<svg width="72px" height="72px" viewBox="0 0 72 72" version="1.1" xmlns="http://www.w3.org/2000/svg" xmlns:xlink="http://www.w3.org/1999/xlink">
    <!-- Generator: Sketch 63.1 (92452) - https://sketch.com -->
    <title>委托贷款管理</title>
    <desc>Created with Sketch.</desc>
    <g id="委托贷款管理" stroke="none" stroke-width="1" fill="none" fill-rule="evenodd">
        <g id="融资" transform="translate(35.500000, 55.000000) scale(-1, 1) translate(-35.500000, -55.000000) translate(11.000000, 46.000000)" fill="#60759C" fill-rule="nonzero">
            <path d="M36.813049,-1.6075015 C36.2726448,-1.42672596 35.7165396,-1.23629192 35.1460728,-1.03698828 C33.9226725,-0.609569671 32.6766639,-0.156872843 31.3960806,0.321275169 C30.9181886,0.499711882 30.4580206,0.673253347 29.9743365,0.857007562 C29.7159479,0.955170803 29.0584253,1.20591502 29.0195544,1.22069577 L27.5398856,1.78334296 C27.3193594,1.75102863 27.076826,1.71928993 26.8036369,1.68543071 C26.7746385,1.68183663 26.2529462,1.61819719 26.1045739,1.59938147 C25.8584395,1.56816813 25.6586839,1.54059288 25.4756435,1.51208812 C25.1386354,1.45960608 24.872401,1.4056478 24.6681462,1.34932297 C23.052469,0.911481377 21.9030741,0.33042604 20.2853044,-1.08739509 C16.9226501,-4.05946579 11.0964391,-4.64615143 6.38191935,-3.42709077 C5.57056742,-3.21729481 4.66093503,-2.93403634 3.66138725,-2.5877525 C3.23613811,-2.44042897 2.7980219,-2.2828136 2.34934657,-2.1162781 C1.42311849,-1.7724886 0.493091681,-1.40637275 -0.399171524,-1.04033706 C-0.711592887,-0.912171547 -0.997656586,-0.792887553 -1.25191911,-0.685347186 C-1.40749188,-0.619547661 -1.52004132,-0.571347174 -1.58405837,-0.543626652 L-3.91902257,0.467454475 L-3.99291658,3.01085428 C-3.99428926,3.05992916 -3.99428926,3.05992916 -3.99682044,3.19834362 C-4.00664008,3.83121478 -3.996703,4.62783204 -3.95236534,5.53331496 C-3.88619286,6.88471783 -3.75420149,8.22437957 -3.53665441,9.50628628 C-2.81824086,13.7395729 -1.40813378,16.7751798 1.77085964,18.0717 C2.61651858,18.425955 3.25109728,18.5033236 5.12609492,18.6396031 C5.3085937,18.6528676 6.42471002,18.7302616 6.76089021,18.7551317 C7.40770787,18.8029822 7.94428199,18.8488779 8.44879724,18.9013934 C9.30294172,18.990302 10.0180171,19.0944408 10.6006616,19.2179986 C12.4378555,19.6042579 13.3271001,19.7806558 16.3121538,20.3611388 L16.4820684,20.3941928 C17.9901475,20.6876828 18.9776758,20.8843248 20.1053399,21.1187416 C20.5416049,21.2114754 21.9567549,21.5349015 22.1280031,21.5723625 C22.9825297,21.7592924 23.6406424,21.8746441 24.3324083,21.9418065 C25.788136,22.0831406 27.1820397,21.9702168 28.7372103,21.56496 C31.427963,20.8686271 36.9604769,17.8291315 39.3488443,16.1134673 C40.7584607,15.0837429 43.4908137,13.0156485 45.7043981,11.2722903 C49.820788,8.0303345 51.6871258,6.41160662 52.4282894,4.98317326 C53.8525561,2.08767359 52.5617261,-0.555475008 50.2651962,-2.11252486 C48.7857271,-3.11560655 46.8522769,-3.68319309 45.0412112,-3.62199704 C43.2200194,-3.56654139 40.5490639,-2.85726988 36.813049,-1.6075015 Z M48.8777737,3.14093594 C48.1339685,4.57446029 38.5137232,11.7699175 37.0151745,12.8647775 C35.8010219,13.7369541 30.3099893,17.0261734 27.7285477,17.6942236 C25.1471061,18.366913 23.7579405,17.8055653 20.9194486,17.2024645 C17.5942018,16.5112181 15.2479339,16.1076044 11.4304631,15.3050164 C8.38961235,14.6601624 4.13460904,14.7251117 3.28142071,14.3678904 C-0.278999804,12.9158091 0.00539630422,3.12701823 0.00539630422,3.12701823 C0.00539630422,3.12701823 4.44088177,1.20637395 7.38328766,0.445539021 C10.3256936,-0.31529591 15.1713657,-0.268903536 17.6488934,1.92081651 C20.1209518,4.08734037 22.0296873,4.77858674 23.6048042,5.20539658 C25.1525753,5.63220642 27.0886565,5.63220642 27.914499,5.96623151 C28.7403416,6.30489584 30.6764228,9.25081158 27.4496208,10.1693806 C24.2228188,11.0833103 18.9888366,9.98845032 17.3371515,9.65442523 C15.6854664,9.3157609 14.3181774,8.82400174 14.0337813,8.73585623 C13.7493852,8.67090691 12.901666,9.25081158 18.2395622,11.5982657 C22.1390704,13.0271508 27.0613107,12.3776576 28.6364276,11.7977529 C30.4412491,11.1297027 31.6280559,10.0116465 31.7811923,8.62451453 C32.016366,6.49974381 31.1631777,5.94303532 30.4412491,4.959517 C32.5031209,4.17548588 42.1014895,0.464095971 45.169686,0.37595046 C47.1276438,0.306361899 49.5778257,1.71669006 48.8777737,3.14093594 Z" id="形状"></path>
        </g>
        <g id="编组" transform="translate(16.000000, 10.000000)" fill="#60759C" fill-rule="nonzero">
            <path d="M23.7257983,-1.33783784 L4,-1.33783784 C0.410149126,-1.33783784 -2.5,1.57231129 -2.5,5.16216216 L-2.5,32.2753718 C-2.5,33.6560837 -1.38071187,34.7753718 0,34.7753718 C1.38071187,34.7753718 2.5,33.6560837 2.5,32.2753718 L2.5,5.16216216 C2.5,4.33373504 3.17157288,3.66216216 4,3.66216216 L23.5462585,3.66216216 L23.6343093,3.7347569 L38.1756757,10.8602225 L38.1756757,35 C38.1756757,36.3807119 39.2949638,37.5 40.6756757,37.5 C42.0563876,37.5 43.1756757,36.3807119 43.1756757,35 L43.1756757,10.4878036 C43.1756757,9.14401571 42.5751269,7.87054439 41.5382923,7.01571114 L41.3117128,6.82890445 L26.308645,-0.522801041 C25.5541737,-1.05164265 24.6527985,-1.33783784 23.7257983,-1.33783784 Z" id="路径"></path>
            <path d="M21.9054054,0 L21.9054054,7 C21.9054054,11.1421356 25.2632698,14.5 29.4054054,14.5 L43,14.5 L43,9.5 L29.4054054,9.5 C28.0246935,9.5 26.9054054,8.38071187 26.9054054,7 L26.9054054,0 L21.9054054,0 Z" id="路径-6"></path>
        </g>
        <g id="现金" transform="translate(29.000000, 25.000000)" fill="#60759C" fill-rule="nonzero">
            <g id="时间轴-羊角标">
                <path d="M14.558725,12.1615278 C14.7732253,12.3984074 14.8961496,12.6813681 14.9233751,13.0104081 C14.89615,13.3524085 14.7732249,13.6382485 14.558725,13.8672091 C14.343399,14.0976094 14.0505237,14.2250492 13.675974,14.2524096 L9.54436277,14.2329695 L9.54436277,16.3238548 C9.4882627,17.4412957 8.82001152,18.0000171 7.54290963,18.0000171 C6.9117839,18.0000171 6.42090833,17.8632169 6.06945711,17.5860166 C5.7163563,17.3102559 5.52660608,16.8897761 5.49938064,16.3238548 L5.49938064,14.2718524 L1.34466695,14.2718524 C0.958566095,14.2459324 0.65991615,14.0976122 0.452840103,13.8283312 L0.452840066,13.8283311 C0.245133587,13.560572 0.115431593,13.2526258 0.0749892238,12.9312094 C0.118714275,12.6028883 0.244114421,12.3336087 0.452840066,12.1226481 C0.659090306,11.9124082 0.958566058,11.7936081 1.34466691,11.7669684 L5.49938061,11.7669684 L5.49938061,9.80424538 L1.34466691,9.78480536 C0.958566058,9.75816533 0.659916113,9.63360519 0.452840066,9.41040493 C0.244114421,9.18576502 0.118714677,8.90280434 0.0749892238,8.56080394 C0.118714275,8.23248285 0.244114421,7.96320324 0.452840066,7.75224264 C0.659090306,7.54200275 0.958566058,7.42392156 1.34466691,7.39728188 L4.44420116,7.39728188 L1.56000102,2.7432042 L1.56000103,2.74320421 C1.39709799,2.5572204 1.2597599,2.35520005 1.15079975,2.14128281 L1.1507997,2.1412827 C1.02058328,1.89085917 0.961709113,1.61666119 0.979199496,1.34208177 C1.05014958,0.973441692 1.19452555,0.674641344 1.40819999,0.444241076 C1.62434984,0.214561512 2.02695071,0.0662406362 2.614351,0.000719856809 C2.95837599,0.026639887 3.26775135,0.136080014 3.54000167,0.326880588 C3.81225199,0.516960106 4.03500225,0.724320699 4.20825245,0.947520959 L7.47854739,6.43176172 L11.0722564,0.908638101 C11.2438566,0.685437841 11.4674311,0.487437611 11.7405072,0.316797764 C12.0127575,0.143997738 12.3204833,0.0395974411 12.6645083,-2.6049689e-06 C12.8806581,0.0129574101 13.0770087,0.0395974411 13.2568594,0.0784774864 C13.4342346,0.118797533 13.5934601,0.18431761 13.7304091,0.277198421 C13.8657093,0.368638527 13.9812086,0.50039868 14.0744341,0.671038527 C14.1676592,0.841678726 14.2344843,1.06559934 14.2782089,1.34207896 C14.2782089,1.7236794 14.1354838,2.08511947 13.8483826,2.42711987 L10.5129094,7.39800846 L13.6767961,7.39800846 C14.0496962,7.42392849 14.3442211,7.54272863 14.5578975,7.75296923 C14.7723978,7.96392983 14.8953221,8.23320944 14.9241972,8.56153052 C14.8953221,8.90425162 14.769922,9.19369161 14.5479959,9.42985224 C14.3252457,9.66601286 14.0282453,9.79705266 13.6545195,9.82441305 L9.54353325,9.84385307 L9.54353325,11.7669725 L13.6751445,11.7669725 C14.0496941,11.7936125 14.3425695,11.9253727 14.5578955,12.1615333 L14.558725,12.1615278 Z" id="路径"></path>
            </g>
        </g>
    </g>
</svg>