<?xml version="1.0" encoding="UTF-8"?>
<svg width="72px" height="72px" viewBox="0 0 72 72" version="1.1" xmlns="http://www.w3.org/2000/svg" xmlns:xlink="http://www.w3.org/1999/xlink">
    <!-- Generator: Sketch 63.1 (92452) - https://sketch.com -->
    <title>贷款管理</title>
    <desc>Created with Sketch.</desc>
    <g id="贷款管理" stroke="none" stroke-width="1" fill="none" fill-rule="evenodd">
        <g id="融资" transform="translate(12.000000, 10.000000)" fill="#60759C" fill-rule="nonzero">
            <path d="M44.5482587,21.8465807 C46.1826715,24.7284449 47.1816526,27.425936 49.6985276,35.5668015 C50.0930195,36.8427908 51,42.946499 51,44.6706601 C51,46.2184545 50.4735212,47.6994699 49.4699865,49.0743574 C47.1037227,53.1970002 40.6957314,55 30.2627889,55 C20.1880356,55 16.3093917,54.8986574 12.1567363,54.3563278 C6.44055337,53.6098043 2.76286906,52.0428607 0.923408835,49.0267039 C-5.44478957,38.5847904 -1.40123954,26.8603808 12.4224897,14.1812426 C7.94924843,5.76719839 8.25912596,0.134870031 14.4421607,-1.34161242 C18.9790188,-2.42499486 22.5021816,-1.7932593 24.6393473,0.670343216 C31.3940757,-2.98408286 36.4162828,-3.02214089 39.1602831,1.25883959 C41.5048319,4.91662627 40.4823041,8.94605488 36.570784,13.1453222 C39.6080592,14.6232085 42.1220841,17.5686493 44.5482587,21.8465807 Z M16.0795128,12.5436059 L20.2909521,12.5436059 L16.3337192,16.0420159 C2.77848057,28.0255873 -0.990041527,38.2069292 4.33842228,46.9439934 C6.34714261,50.2376854 12.1842391,51 30.2627889,51 C39.4292419,51 44.680316,49.4974411 46.0333143,47.0251865 L46.1026354,46.8985201 L46.1894327,46.783125 C46.7476824,46.0409444 47,45.3510182 47,44.6706601 C47,43.3438495 46.152207,37.6384559 45.8769975,36.7482869 C43.444521,28.8804093 42.5142152,26.3683582 41.0688726,23.8198705 C38.7735397,19.7726446 36.5024295,17.2754352 34.0770887,16.4328419 C33.3951153,16.1959159 32.8245158,16.0216282 32.3353304,15.8989957 L28.5857711,14.9590288 L31.5190598,12.4413812 C36.0612567,8.54280448 37.2214307,5.64639718 35.7926886,3.41738252 C34.3719048,1.20078374 31.0145859,1.45038522 25.0317839,5.05333416 L23.1361929,6.1948925 L22.1914479,4.19392339 C21.2724668,2.24752234 19.2200484,1.62991404 15.3712219,2.54899749 C12.6688304,3.19431709 12.5391369,6.06472851 16.0795128,12.5436059 Z" id="形状结合"></path>
        </g>
        <g id="现金" transform="translate(26.000000, 32.000000)" fill="#60759C" fill-rule="nonzero">
            <g id="时间轴-羊角标">
                <path d="M20.3822151,16.8910109 C20.6825154,17.2200103 20.8546095,17.6130112 20.8927251,18.0700113 C20.8546101,18.5450118 20.6825149,18.9420118 20.3822151,19.2600126 C20.0807586,19.580013 19.6707331,19.7570127 19.1463636,19.7950133 L13.3621079,19.7680132 L13.3621079,22.6720205 C13.2835678,24.2240218 12.3480161,25.0000237 10.5600735,25.0000237 C9.67649746,25.0000237 8.98927166,24.8100235 8.49723996,24.4250231 C8.00289882,24.0420221 7.73724851,23.4580224 7.6991329,22.6720205 L7.6991329,19.8220172 L1.88253373,19.8220172 C1.34199253,19.7860172 0.92388261,19.5800169 0.633976145,19.2060155 L0.633976093,19.2060154 C0.343187021,18.8341278 0.16160423,18.4064247 0.104984913,17.960013 C0.166199984,17.5040115 0.341760189,17.1300121 0.633976093,16.8370112 C0.922726429,16.5450114 1.34199248,16.3800112 1.88253367,16.3430116 L7.69913285,16.3430116 L7.69913285,13.6170075 L1.88253367,13.5900074 C1.34199248,13.5530074 0.923882558,13.3800072 0.633976093,13.0700068 C0.341760189,12.758007 0.166200548,12.365006 0.104984913,11.8900055 C0.166199984,11.434004 0.341760189,11.0600045 0.633976093,10.7670037 C0.922726429,10.4750038 1.34199248,10.3110022 1.88253367,10.2740026 L6.22188162,10.2740026 L2.18400143,3.81000583 L2.18400145,3.81000585 C1.95593718,3.551695 1.76366386,3.27111118 1.61111965,2.9740039 L1.61111957,2.97400375 C1.4288166,2.62619329 1.34639276,2.24536276 1.37087929,1.86400246 C1.47020941,1.35200235 1.67233577,0.937001867 1.97147999,0.617001494 C2.27408978,0.2980021 2.837731,0.0920008836 3.66009139,0.000999801124 C4.14172639,0.036999843 4.57485189,0.18900002 4.95600234,0.454000817 C5.33715278,0.718000147 5.64900314,1.00600097 5.89155343,1.31600133 L10.4699663,8.93300238 L15.501159,1.26199736 C15.7413992,0.951997001 16.0544035,0.676996681 16.4367101,0.439996894 C16.8178605,0.199996859 17.2486766,0.054996446 17.7303116,-3.61801237e-06 C18.0329214,0.0179964029 18.3078122,0.054996446 18.5596031,0.108996509 C18.8079284,0.164996574 19.0308442,0.25599668 19.2225727,0.384997807 C19.411993,0.511997954 19.573692,0.694998167 19.7042077,0.931997955 C19.8347229,1.16899823 19.928278,1.47999908 19.9894925,1.86399855 C19.9894925,2.39399917 19.7896773,2.89599926 19.3877357,3.37099982 L14.7180731,10.2750118 L19.1475146,10.2750118 C19.6695746,10.3110118 20.0819095,10.476012 20.3810566,10.7680128 C20.6813569,11.0610136 20.853451,11.4350131 20.893876,11.8910146 C20.853451,12.3670161 20.6778908,12.7690161 20.3671943,13.097017 C20.0553439,13.4250179 19.6395434,13.6070176 19.1163273,13.6450181 L13.3609466,13.6720182 L13.3609466,16.3430174 L19.1452023,16.3430174 C19.6695718,16.3800174 20.0795973,16.5630176 20.3810537,16.8910185 L20.3822151,16.8910109 Z" id="路径"></path>
            </g>
        </g>
    </g>
</svg>