<?xml version="1.0" encoding="UTF-8"?>
<svg width="72px" height="72px" viewBox="0 0 72 72" version="1.1" xmlns="http://www.w3.org/2000/svg" xmlns:xlink="http://www.w3.org/1999/xlink">
    <!-- Generator: Sketch 63.1 (92452) - https://sketch.com -->
    <title>发债管理</title>
    <desc>Created with Sketch.</desc>
    <g id="发债管理" stroke="none" stroke-width="1" fill="none" fill-rule="evenodd">
        <g id="编组" transform="translate(7.000000, 8.000000)" fill="#60759C" fill-rule="nonzero">
            <path d="M49.6636364,32.8806632 L49.6636364,44.8801347 C49.6636364,47.5219897 47.5219897,49.6636364 44.8801347,49.6636364 L10.2835017,49.6636364 C7.64164665,49.6636364 5.5,47.5219897 5.5,44.8801347 L5.5,10.2835017 C5.5,7.64164665 7.64164665,5.5 10.2835017,5.5 L21.9090909,5.5 C23.2898028,5.5 24.4090909,4.38071187 24.4090909,3 C24.4090909,1.61928813 23.2898028,0.5 21.9090909,0.5 L10.2835017,0.5 C4.8802229,0.5 0.5,4.8802229 0.5,10.2835017 L0.5,44.8801347 C0.5,50.2834135 4.8802229,54.6636364 10.2835017,54.6636364 L44.8801347,54.6636364 C50.2834135,54.6636364 54.6636364,50.2834135 54.6636364,44.8801347 L54.6636364,32.8806632 C54.6636364,31.4999514 53.5443482,30.3806632 52.1636364,30.3806632 C50.7829245,30.3806632 49.6636364,31.4999514 49.6636364,32.8806632 Z" id="路径" transform="translate(27.581818, 27.581818) scale(1, -1) translate(-27.581818, -27.581818) "></path>
            <path d="M14.8181818,31.4518897 L25.2181818,31.4518897 C26.5235821,31.4518897 27.5818182,32.5101257 27.5818182,33.8155261 C27.5818182,35.1209264 26.5235821,36.1791624 25.2181818,36.1791624 L14.8181818,36.1791624 C13.5127815,36.1791624 12.4545455,35.1209264 12.4545455,33.8155261 C12.4545455,32.5101257 13.5127815,31.4518897 14.8181818,31.4518897 Z M14.8181818,35.4518897 C15.7219205,35.4518897 16.4545455,34.7192647 16.4545455,33.8155261 C16.4545455,32.9117874 15.7219205,32.1791624 14.8181818,32.1791624 L25.2181818,32.1791624 C24.3144431,32.1791624 23.5818182,32.9117874 23.5818182,33.8155261 C23.5818182,34.7192647 24.3144431,35.4518897 25.2181818,35.4518897 L14.8181818,35.4518897 Z" id="矩形" transform="translate(20.018182, 33.815526) scale(1, -1) translate(-20.018182, -33.815526) "></path>
            <path d="M14.8181818,17.2700715 L40.3454545,17.2700715 C41.6508549,17.2700715 42.7090909,18.3283076 42.7090909,19.6337079 C42.7090909,20.9391082 41.6508549,21.9973442 40.3454545,21.9973442 L14.8181818,21.9973442 C13.5127815,21.9973442 12.4545455,20.9391082 12.4545455,19.6337079 C12.4545455,18.3283076 13.5127815,17.2700715 14.8181818,17.2700715 Z M14.8181818,21.2700715 C15.7219205,21.2700715 16.4545455,20.5374466 16.4545455,19.6337079 C16.4545455,18.7299692 15.7219205,17.9973442 14.8181818,17.9973442 L40.3454545,17.9973442 C39.4417159,17.9973442 38.7090909,18.7299692 38.7090909,19.6337079 C38.7090909,20.5374466 39.4417159,21.2700715 40.3454545,21.2700715 L14.8181818,21.2700715 Z" id="矩形备份" transform="translate(27.581818, 19.633708) scale(1, -1) translate(-27.581818, -19.633708) "></path>
        </g>
        <g id="现金" transform="translate(40.000000, 38.000000)" fill="#60759C" fill-rule="nonzero">
            <g id="时间轴-羊角标">
                <path d="M20.3822151,16.8910109 C20.6825154,17.2200103 20.8546095,17.6130112 20.8927251,18.0700113 C20.8546101,18.5450118 20.6825149,18.9420118 20.3822151,19.2600126 C20.0807586,19.580013 19.6707331,19.7570127 19.1463636,19.7950133 L13.3621079,19.7680132 L13.3621079,22.6720205 C13.2835678,24.2240218 12.3480161,25.0000237 10.5600735,25.0000237 C9.67649746,25.0000237 8.98927166,24.8100235 8.49723996,24.4250231 C8.00289882,24.0420221 7.73724851,23.4580224 7.6991329,22.6720205 L7.6991329,19.8220172 L1.88253373,19.8220172 C1.34199253,19.7860172 0.92388261,19.5800169 0.633976145,19.2060155 L0.633976093,19.2060154 C0.343187021,18.8341278 0.16160423,18.4064247 0.104984913,17.960013 C0.166199984,17.5040115 0.341760189,17.1300121 0.633976093,16.8370112 C0.922726429,16.5450114 1.34199248,16.3800112 1.88253367,16.3430116 L7.69913285,16.3430116 L7.69913285,13.6170075 L1.88253367,13.5900074 C1.34199248,13.5530074 0.923882558,13.3800072 0.633976093,13.0700068 C0.341760189,12.758007 0.166200548,12.365006 0.104984913,11.8900055 C0.166199984,11.434004 0.341760189,11.0600045 0.633976093,10.7670037 C0.922726429,10.4750038 1.34199248,10.3110022 1.88253367,10.2740026 L6.22188162,10.2740026 L2.18400143,3.81000583 L2.18400145,3.81000585 C1.95593718,3.551695 1.76366386,3.27111118 1.61111965,2.9740039 L1.61111957,2.97400375 C1.4288166,2.62619329 1.34639276,2.24536276 1.37087929,1.86400246 C1.47020941,1.35200235 1.67233577,0.937001867 1.97147999,0.617001494 C2.27408978,0.2980021 2.837731,0.0920008836 3.66009139,0.000999801124 C4.14172639,0.036999843 4.57485189,0.18900002 4.95600234,0.454000817 C5.33715278,0.718000147 5.64900314,1.00600097 5.89155343,1.31600133 L10.4699663,8.93300238 L15.501159,1.26199736 C15.7413992,0.951997001 16.0544035,0.676996681 16.4367101,0.439996894 C16.8178605,0.199996859 17.2486766,0.054996446 17.7303116,-3.61801237e-06 C18.0329214,0.0179964029 18.3078122,0.054996446 18.5596031,0.108996509 C18.8079284,0.164996574 19.0308442,0.25599668 19.2225727,0.384997807 C19.411993,0.511997954 19.573692,0.694998167 19.7042077,0.931997955 C19.8347229,1.16899823 19.928278,1.47999908 19.9894925,1.86399855 C19.9894925,2.39399917 19.7896773,2.89599926 19.3877357,3.37099982 L14.7180731,10.2750118 L19.1475146,10.2750118 C19.6695746,10.3110118 20.0819095,10.476012 20.3810566,10.7680128 C20.6813569,11.0610136 20.853451,11.4350131 20.893876,11.8910146 C20.853451,12.3670161 20.6778908,12.7690161 20.3671943,13.097017 C20.0553439,13.4250179 19.6395434,13.6070176 19.1163273,13.6450181 L13.3609466,13.6720182 L13.3609466,16.3430174 L19.1452023,16.3430174 C19.6695718,16.3800174 20.0795973,16.5630176 20.3810537,16.8910185 L20.3822151,16.8910109 Z" id="路径"></path>
            </g>
        </g>
    </g>
</svg>