<?xml version="1.0" encoding="UTF-8"?>
<svg width="72px" height="72px" viewBox="0 0 72 72" version="1.1" xmlns="http://www.w3.org/2000/svg" xmlns:xlink="http://www.w3.org/1999/xlink">
    <!-- Generator: Sketch 63.1 (92452) - https://sketch.com -->
    <title>融资分析</title>
    <desc>Created with Sketch.</desc>
    <g id="融资分析" stroke="none" stroke-width="1" fill="none" fill-rule="evenodd">
        <g id="融资" transform="translate(35.500000, 51.000000) scale(-1, 1) translate(-35.500000, -51.000000) translate(11.000000, 42.000000)" fill="#60759C" fill-rule="nonzero">
            <path d="M36.813049,-1.6075015 C36.2726448,-1.42672596 35.7165396,-1.23629192 35.1460728,-1.03698828 C33.9226725,-0.609569671 32.6766639,-0.156872843 31.3960806,0.321275169 C30.9181886,0.499711882 30.4580206,0.673253347 29.9743365,0.857007562 C29.7159479,0.955170803 29.0584253,1.20591502 29.0195544,1.22069577 L27.5398856,1.78334296 C27.3193594,1.75102863 27.076826,1.71928993 26.8036369,1.68543071 C26.7746385,1.68183663 26.2529462,1.61819719 26.1045739,1.59938147 C25.8584395,1.56816813 25.6586839,1.54059288 25.4756435,1.51208812 C25.1386354,1.45960608 24.872401,1.4056478 24.6681462,1.34932297 C23.052469,0.911481377 21.9030741,0.33042604 20.2853044,-1.08739509 C16.9226501,-4.05946579 11.0964391,-4.64615143 6.38191935,-3.42709077 C5.57056742,-3.21729481 4.66093503,-2.93403634 3.66138725,-2.5877525 C3.23613811,-2.44042897 2.7980219,-2.2828136 2.34934657,-2.1162781 C1.42311849,-1.7724886 0.493091681,-1.40637275 -0.399171524,-1.04033706 C-0.711592887,-0.912171547 -0.997656586,-0.792887553 -1.25191911,-0.685347186 C-1.40749188,-0.619547661 -1.52004132,-0.571347174 -1.58405837,-0.543626652 L-3.91902257,0.467454475 L-3.99291658,3.01085428 C-3.99428926,3.05992916 -3.99428926,3.05992916 -3.99682044,3.19834362 C-4.00664008,3.83121478 -3.996703,4.62783204 -3.95236534,5.53331496 C-3.88619286,6.88471783 -3.75420149,8.22437957 -3.53665441,9.50628628 C-2.81824086,13.7395729 -1.40813378,16.7751798 1.77085964,18.0717 C2.61651858,18.425955 3.25109728,18.5033236 5.12609492,18.6396031 C5.3085937,18.6528676 6.42471002,18.7302616 6.76089021,18.7551317 C7.40770787,18.8029822 7.94428199,18.8488779 8.44879724,18.9013934 C9.30294172,18.990302 10.0180171,19.0944408 10.6006616,19.2179986 C12.4378555,19.6042579 13.3271001,19.7806558 16.3121538,20.3611388 L16.4820684,20.3941928 C17.9901475,20.6876828 18.9776758,20.8843248 20.1053399,21.1187416 C20.5416049,21.2114754 21.9567549,21.5349015 22.1280031,21.5723625 C22.9825297,21.7592924 23.6406424,21.8746441 24.3324083,21.9418065 C25.788136,22.0831406 27.1820397,21.9702168 28.7372103,21.56496 C31.427963,20.8686271 36.9604769,17.8291315 39.3488443,16.1134673 C40.7584607,15.0837429 43.4908137,13.0156485 45.7043981,11.2722903 C49.820788,8.0303345 51.6871258,6.41160662 52.4282894,4.98317326 C53.8525561,2.08767359 52.5617261,-0.555475008 50.2651962,-2.11252486 C48.7857271,-3.11560655 46.8522769,-3.68319309 45.0412112,-3.62199704 C43.2200194,-3.56654139 40.5490639,-2.85726988 36.813049,-1.6075015 Z M48.8777737,3.14093594 C48.1339685,4.57446029 38.5137232,11.7699175 37.0151745,12.8647775 C35.8010219,13.7369541 30.3099893,17.0261734 27.7285477,17.6942236 C25.1471061,18.366913 23.7579405,17.8055653 20.9194486,17.2024645 C17.5942018,16.5112181 15.2479339,16.1076044 11.4304631,15.3050164 C8.38961235,14.6601624 4.13460904,14.7251117 3.28142071,14.3678904 C-0.278999804,12.9158091 0.00539630422,3.12701823 0.00539630422,3.12701823 C0.00539630422,3.12701823 4.44088177,1.20637395 7.38328766,0.445539021 C10.3256936,-0.31529591 15.1713657,-0.268903536 17.6488934,1.92081651 C20.1209518,4.08734037 22.0296873,4.77858674 23.6048042,5.20539658 C25.1525753,5.63220642 27.0886565,5.63220642 27.914499,5.96623151 C28.7403416,6.30489584 30.6764228,9.25081158 27.4496208,10.1693806 C24.2228188,11.0833103 18.9888366,9.98845032 17.3371515,9.65442523 C15.6854664,9.3157609 14.3181774,8.82400174 14.0337813,8.73585623 C13.7493852,8.67090691 12.901666,9.25081158 18.2395622,11.5982657 C22.1390704,13.0271508 27.0613107,12.3776576 28.6364276,11.7977529 C30.4412491,11.1297027 31.6280559,10.0116465 31.7811923,8.62451453 C32.016366,6.49974381 31.1631777,5.94303532 30.4412491,4.959517 C32.5031209,4.17548588 42.1014895,0.464095971 45.169686,0.37595046 C47.1276438,0.306361899 49.5778257,1.71669006 48.8777737,3.14093594 Z" id="形状"></path>
        </g>
        <path d="M22.5,17.5 L29.5,17.5 C31.1568542,17.5 32.5,18.8431458 32.5,20.5 C32.5,22.1568542 31.1568542,23.5 29.5,23.5 L22.5,23.5 C20.8431458,23.5 19.5,22.1568542 19.5,20.5 C19.5,18.8431458 20.8431458,17.5 22.5,17.5 Z M22.5,21.5 C23.0522847,21.5 23.5,21.0522847 23.5,20.5 C23.5,19.9477153 23.0522847,19.5 22.5,19.5 L29.5,19.5 C28.9477153,19.5 28.5,19.9477153 28.5,20.5 C28.5,21.0522847 28.9477153,21.5 29.5,21.5 L22.5,21.5 Z" id="矩形备份" fill="#60759C" fill-rule="nonzero" transform="translate(26.000000, 20.500000) rotate(90.000000) translate(-26.000000, -20.500000) "></path>
        <path d="M28,13 L44,13 C45.6568542,13 47,14.3431458 47,16 C47,17.6568542 45.6568542,19 44,19 L28,19 C26.3431458,19 25,17.6568542 25,16 C25,14.3431458 26.3431458,13 28,13 Z M28,17 C28.5522847,17 29,16.5522847 29,16 C29,15.4477153 28.5522847,15 28,15 L44,15 C43.4477153,15 43,15.4477153 43,16 C43,16.5522847 43.4477153,17 44,17 L28,17 Z" id="矩形备份-3" fill="#60759C" fill-rule="nonzero" transform="translate(36.000000, 16.000000) rotate(90.000000) translate(-36.000000, -16.000000) "></path>
        <path d="M41.5,16.5 L50.5,16.5 C52.1568542,16.5 53.5,17.8431458 53.5,19.5 C53.5,21.1568542 52.1568542,22.5 50.5,22.5 L41.5,22.5 C39.8431458,22.5 38.5,21.1568542 38.5,19.5 C38.5,17.8431458 39.8431458,16.5 41.5,16.5 Z M41.5,20.5 C42.0522847,20.5 42.5,20.0522847 42.5,19.5 C42.5,18.9477153 42.0522847,18.5 41.5,18.5 L50.5,18.5 C49.9477153,18.5 49.5,18.9477153 49.5,19.5 C49.5,20.0522847 49.9477153,20.5 50.5,20.5 L41.5,20.5 Z" id="矩形备份-4" fill="#60759C" fill-rule="nonzero" transform="translate(46.000000, 19.500000) rotate(90.000000) translate(-46.000000, -19.500000) "></path>
        <path d="M23,29 L49,29 C50.6568542,29 52,30.3431458 52,32 C52,33.6568542 50.6568542,35 49,35 L23,35 C21.3431458,35 20,33.6568542 20,32 C20,30.3431458 21.3431458,29 23,29 Z M23,33 C23.5522847,33 24,32.5522847 24,32 C24,31.4477153 23.5522847,31 23,31 L49,31 C48.4477153,31 48,31.4477153 48,32 C48,32.5522847 48.4477153,33 49,33 L23,33 Z" id="矩形备份-2" fill="#60759C" fill-rule="nonzero"></path>
    </g>
</svg>