<?xml version="1.0" encoding="UTF-8"?>
<svg width="72px" height="72px" viewBox="0 0 72 72" version="1.1" xmlns="http://www.w3.org/2000/svg" xmlns:xlink="http://www.w3.org/1999/xlink">
    <!-- Generator: Sketch 63.1 (92452) - https://sketch.com -->
    <title>管理驾驶舱</title>
    <desc>Created with Sketch.</desc>
    <g id="管理驾驶舱" stroke="none" stroke-width="1" fill="none" fill-rule="evenodd">
        <g id="编组-2" transform="translate(11.000000, 12.000000)" fill="#60759C">
            <path d="M5,-2.5 L45,-2.5 C49.1421356,-2.5 52.5,0.857864376 52.5,5 L52.5,33 C52.5,37.1421356 49.1421356,40.5 45,40.5 L5,40.5 C0.857864376,40.5 -2.5,37.1421356 -2.5,33 L-2.5,5 C-2.5,0.857864376 0.857864376,-2.5 5,-2.5 Z M5,2.5 C3.61928813,2.5 2.5,3.61928813 2.5,5 L2.5,33 C2.5,34.3807119 3.61928813,35.5 5,35.5 L45,35.5 C46.3807119,35.5 47.5,34.3807119 47.5,33 L47.5,5 C47.5,3.61928813 46.3807119,2.5 45,2.5 L5,2.5 Z" id="Rectangle-5" fill-rule="nonzero"></path>
            <rect id="Rectangle-5" transform="translate(25.000000, 41.500000) scale(1, -1) rotate(90.000000) translate(-25.000000, -41.500000) " x="19" y="39" width="12" height="5" rx="2.5"></rect>
            <path d="M24.9612513,42.0078131 C25.7397494,41.946239 26.5353936,42.2492799 27.0756137,42.8930892 C27.3071367,43.1690074 27.4688737,43.4802589 27.5627021,43.8053877 L33.7674717,49.0128232 C34.8251583,49.9003277 34.9631182,51.4772167 34.0756137,52.5349033 C33.1881093,53.59259 31.6112203,53.7305499 30.5535336,52.8430454 L24.83,48.04 L19.1070272,52.8430454 C18.0953269,53.6919627 16.6085909,53.602648 15.7045188,52.6676379 L15.5849471,52.5349033 C14.6974426,51.4772167 14.8354025,49.9003277 15.8930892,49.0128232 L15.8930892,49.0128232 L22.0975729,43.806379 C22.1913585,43.4808916 22.3531889,43.1692878 22.5849471,42.8930892 C23.1556185,42.2129895 24.0113213,41.9131579 24.8307452,42.0217055 Z" id="形状结合"></path>
        </g>
        <path d="M19.0898641,33.2862839 L29.833373,28.0821435 C30.0080796,27.9975159 30.2159797,28.0216598 30.3666422,28.144073 L38.1775902,34.4904683 C40.1076984,36.0586813 42.8499797,36.1366262 44.8660477,34.6805771 L55.4637264,27.0266981 C56.5830408,26.2183043 56.8350918,24.6555881 56.0266981,23.5362736 C55.2183043,22.4169592 53.6555881,22.1649082 52.5362736,22.9733019 L41.938595,30.627181 C41.755316,30.7595491 41.5060178,30.7524632 41.3305534,30.6098983 L33.5196053,24.263503 C31.8623178,22.916957 29.5754166,22.651375 27.6536449,23.5822785 L16.9101359,28.7864189 C15.6675325,29.3883342 15.1481522,30.8836121 15.7500675,32.1262155 C16.3519828,33.3688189 17.8472607,33.8881992 19.0898641,33.2862839 Z" id="路径-12" fill="#60759C" fill-rule="nonzero" transform="translate(35.999806, 29.110832) scale(-1, -1) translate(-35.999806, -29.110832) "></path>
    </g>
</svg>