<?xml version="1.0" encoding="UTF-8"?>
<svg width="72px" height="72px" viewBox="0 0 72 72" version="1.1" xmlns="http://www.w3.org/2000/svg" xmlns:xlink="http://www.w3.org/1999/xlink">
    <!-- Generator: Sketch 63.1 (92452) - https://sketch.com -->
    <title>账户全景分析</title>
    <desc>Created with Sketch.</desc>
    <g id="账户全景分析" stroke="none" stroke-width="1" fill="none" fill-rule="evenodd">
        <g id="编组-3" transform="translate(13.000000, 9.000000)" fill="#60759C" fill-rule="nonzero">
            <g id="编组" transform="translate(0.000000, 0.000000)">
                <path d="M4,-1.15419267 C0.410149126,-1.15419267 -2.5,1.75595646 -2.5,5.34580733 L-2.5,48.486486 C-2.5,52.0763369 0.410149126,54.986486 4,54.986486 L39.5135135,54.986486 C43.1033644,54.986486 46.0135135,52.0763369 46.0135135,48.486486 L46.0135135,13.3593112 C46.0135135,11.8114218 45.2179695,10.3721776 43.9072448,9.54879281 L27.9670087,-0.464711096 C27.2498748,-0.915207778 26.4201708,-1.15419267 25.5732775,-1.15419267 L4,-1.15419267 Z M25.4292593,3.84580733 L41.0135135,13.6356869 L41.0135135,48.486486 C41.0135135,49.3149131 40.3419406,49.986486 39.5135135,49.986486 L4,49.986486 C3.17157288,49.986486 2.5,49.3149131 2.5,48.486486 L2.5,5.34580733 C2.5,4.51738021 3.17157288,3.84580733 4,3.84580733 L25.4292593,3.84580733 Z" id="路径-5"></path>
                <path d="M23.6081081,-1.42108547e-14 L23.6081081,10 C23.6081081,14.1421356 26.9659725,17.5 31.1081081,17.5 L43.1081081,17.5 L43.1081081,12.5 L31.1081081,12.5 C29.7273962,12.5 28.6081081,11.3807119 28.6081081,10 L28.6081081,-1.42108547e-14 L23.6081081,-1.42108547e-14 Z" id="路径-6"></path>
            </g>
        </g>
        <g id="编辑" transform="translate(25.000000, 29.000000)" fill-rule="nonzero">
            <rect id="矩形" fill="#000000" opacity="0" x="0" y="0" width="27" height="27"></rect>
            <path d="M6.64571932,16.7024978 L17.6839807,5.55751488 C18.4612628,4.77271782 19.7275781,4.7666257 20.5123751,5.54390774 C20.5169167,5.54840581 20.5214366,5.55292563 20.5259349,5.55746703 L22.4574427,7.50751803 C23.2295049,8.28699224 23.2295049,9.54292675 22.4574427,10.322401 L11.3922865,21.4937865 L11.3922865,21.4937865 L6.64571932,16.7024978 Z M3,25 L10.2075326,22.6916086 L5.46264355,17.9011671 L3,25 Z" id="形状" fill="#60759C"></path>
        </g>
        <g id="编组" transform="translate(19.000000, 22.000000)" fill="#60759C" fill-rule="nonzero">
            <path d="M4.54545455,5.09090909 C4.54545455,3.8532948 5.19626648,2.76768577 6.17432381,2.15764856 C3.68691102,2.59950008 2,3.89581502 2,5.09090909 C2,6.28600317 3.68691102,7.5823181 6.17432381,8.02416963 C5.19626648,7.41413241 4.54545455,6.32852339 4.54545455,5.09090909 Z M11.4545455,5.09090909 C11.4545455,6.32852339 10.8037335,7.41413241 9.82567619,8.02416963 C12.313089,7.5823181 14,6.28600317 14,5.09090909 C14,3.89581502 12.313089,2.59950008 9.82567619,2.15764856 C10.8037335,2.76768577 11.4545455,3.8532948 11.4545455,5.09090909 Z M8,12.1818182 C2.61471065,12.1818182 -2,9.24518413 -2,5.09090909 C-2,0.936634047 2.61471065,-2 8,-2 C13.3852894,-2 18,0.936634047 18,5.09090909 C18,9.24518413 13.3852894,12.1818182 8,12.1818182 Z M8,4.54545455 C7.69875377,4.54545455 7.45454545,4.78966286 7.45454545,5.09090909 C7.45454545,5.39215532 7.69875377,5.63636364 8,5.63636364 C8.30124623,5.63636364 8.54545455,5.39215532 8.54545455,5.09090909 C8.54545455,4.78966286 8.30124623,4.54545455 8,4.54545455 Z" id="形状结合"></path>
        </g>
    </g>
</svg>