<?xml version="1.0" encoding="UTF-8"?>
<svg width="72px" height="72px" viewBox="0 0 72 72" version="1.1" xmlns="http://www.w3.org/2000/svg" xmlns:xlink="http://www.w3.org/1999/xlink">
    <!-- Generator: Sketch 63.1 (92452) - https://sketch.com -->
    <title>投资分析</title>
    <desc>Created with Sketch.</desc>
    <g id="投资分析" stroke="none" stroke-width="1" fill="none" fill-rule="evenodd">
        <path d="M16.5,41.5 L31.5,41.5 C33.1568542,41.5 34.5,42.8431458 34.5,44.5 C34.5,46.1568542 33.1568542,47.5 31.5,47.5 L16.5,47.5 C14.8431458,47.5 13.5,46.1568542 13.5,44.5 C13.5,42.8431458 14.8431458,41.5 16.5,41.5 Z M16.5,45.5 C17.0522847,45.5 17.5,45.0522847 17.5,44.5 C17.5,43.9477153 17.0522847,43.5 16.5,43.5 L31.5,43.5 C30.9477153,43.5 30.5,43.9477153 30.5,44.5 C30.5,45.0522847 30.9477153,45.5 31.5,45.5 L16.5,45.5 Z" id="矩形备份" fill="#60759C" fill-rule="nonzero" transform="translate(24.000000, 44.500000) scale(1, -1) rotate(90.000000) translate(-24.000000, -44.500000) "></path>
        <path d="M33,45 L41,45 C42.6568542,45 44,46.3431458 44,48 C44,49.6568542 42.6568542,51 41,51 L33,51 C31.3431458,51 30,49.6568542 30,48 C30,46.3431458 31.3431458,45 33,45 Z M33,49 C33.5522847,49 34,48.5522847 34,48 C34,47.4477153 33.5522847,47 33,47 L41,47 C40.4477153,47 40,47.4477153 40,48 C40,48.5522847 40.4477153,49 41,49 L33,49 Z" id="矩形备份-3" fill="#60759C" fill-rule="nonzero" transform="translate(37.000000, 48.000000) scale(1, -1) rotate(90.000000) translate(-37.000000, -48.000000) "></path>
        <path d="M44.5,43.5 L55.5,43.5 C57.1568542,43.5 58.5,44.8431458 58.5,46.5 C58.5,48.1568542 57.1568542,49.5 55.5,49.5 L44.5,49.5 C42.8431458,49.5 41.5,48.1568542 41.5,46.5 C41.5,44.8431458 42.8431458,43.5 44.5,43.5 Z M44.5,47.5 C45.0522847,47.5 45.5,47.0522847 45.5,46.5 C45.5,45.9477153 45.0522847,45.5 44.5,45.5 L55.5,45.5 C54.9477153,45.5 54.5,45.9477153 54.5,46.5 C54.5,47.0522847 54.9477153,47.5 55.5,47.5 L44.5,47.5 Z" id="矩形备份-4" fill="#60759C" fill-rule="nonzero" transform="translate(50.000000, 46.500000) scale(1, -1) rotate(90.000000) translate(-50.000000, -46.500000) "></path>
        <path d="M13.8052611,42.8028697 L10.2252009,49.3663133 C8.77065591,52.0329791 9.753274,55.3738806 12.4199399,56.8284257 C13.2278271,57.2690915 14.1333721,57.5 15.0536266,57.5 L59.3409875,57.5 C62.3785536,57.5 64.8409875,55.0375661 64.8409875,52 C64.8409875,51.2148702 64.6728921,50.4388397 64.3480031,49.7240838 L61.2759162,42.9654926 C60.7045736,41.7085388 59.2224464,41.1527412 57.9654926,41.7240838 C56.7085388,42.2954264 56.1527412,43.7775536 56.7240838,45.0345074 L59.7961707,51.7930985 C59.8257061,51.8580763 59.8409875,51.9286246 59.8409875,52 C59.8409875,52.2761424 59.6171298,52.5 59.3409875,52.5 L15.0536266,52.5 C14.9699671,52.5 14.8876448,52.4790083 14.8142005,52.4389478 C14.5717763,52.3067164 14.4824474,52.0029981 14.6146788,51.7605739 L18.1947389,45.1971303 C18.8558958,43.9850095 18.4092512,42.4664179 17.1971303,41.8052611 C15.9850095,41.1441042 14.4664179,41.5907488 13.8052611,42.8028697 Z" id="路径-15" fill="#60759C" fill-rule="nonzero"></path>
        <path d="M23.7034124,28.3762731 L39.0157353,38.4565517 L58.2245482,23.5812911 C59.0978712,22.9049918 59.2575904,21.6487748 58.5812911,20.7754518 C57.9049918,19.9021288 56.6487748,19.7424096 55.7754518,20.4187089 L38.8271326,33.5434483 L23.824037,23.6667376 L14.9872402,28.8560242 C14.0347583,29.415356 13.7160472,30.6409231 14.275379,31.593405 C14.8347108,32.5458868 16.0602779,32.864598 17.0127598,32.3052662 L23.7034124,28.3762731 Z" id="路径-18" fill="#60759C" fill-rule="nonzero"></path>
        <g id="现金" transform="translate(30.000000, 10.000000)" fill="#60759C" fill-rule="nonzero">
            <g id="时间轴-羊角标">
                <path d="M12.6175617,11.4858874 C12.8034619,11.709607 12.9099964,11.9768476 12.9335917,12.2876077 C12.9099967,12.610608 12.8034616,12.880568 12.6175617,13.0968086 C12.4309458,13.3144089 12.1771205,13.4347687 11.8525108,13.460609 L8.27178107,13.442249 L8.27178107,15.416974 C8.22316101,16.4723349 7.64400999,17.0000161 6.53718835,17.0000161 C5.99021271,17.0000161 5.56478722,16.870816 5.26019616,16.6090157 C4.95417546,16.348575 4.78972527,15.9514552 4.76612989,15.416974 L4.76612989,13.4789717 L1.16537802,13.4789717 C0.830757282,13.4544917 0.57192733,13.3144115 0.392461423,13.0600905 L0.392461391,13.0600905 C0.212449109,12.8072069 0.100040714,12.5163688 0.0649906606,12.2128089 C0.102885705,11.9027278 0.211565831,11.6484082 0.392461391,11.4491676 C0.571211599,11.2506077 0.83075725,11.1384076 1.16537799,11.1132479 L4.76612986,11.1132479 L4.76612986,9.25956509 L1.16537799,9.24120506 C0.83075725,9.21604503 0.571927298,9.0984049 0.392461391,8.88760465 C0.211565831,8.67544474 0.102886054,8.40820409 0.0649906606,8.08520372 C0.102885705,7.77512269 0.211565831,7.52080306 0.392461391,7.3215625 C0.571211599,7.1230026 0.83075725,7.01148147 1.16537799,6.98632178 L3.851641,6.98632178 L1.35200089,2.59080397 L1.3520009,2.59080398 C1.21081826,2.4151526 1.09179191,2.2243556 0.997359785,2.02232265 L0.997359736,2.02232255 C0.884505513,1.78581143 0.833481231,1.52684668 0.848639563,1.26752167 C0.910129634,0.919361598 1.03525548,0.637161269 1.22044,0.419561016 C1.40776986,0.202641428 1.75669062,0.0625606008 2.26577086,0.000679864764 C2.56392586,0.0251598933 2.83205117,0.128520014 3.06800145,0.308720555 C3.30395172,0.4882401 3.49700195,0.68408066 3.64715212,0.894880905 L6.48140774,6.07444162 L9.59595555,0.858158206 C9.74467573,0.647357961 9.93844025,0.460357743 10.1751062,0.299197888 C10.4110565,0.135997864 10.6777522,0.0373975833 10.9759072,-2.46024841e-06 C11.163237,0.012237554 11.3334076,0.0373975833 11.4892781,0.074117626 C11.6430033,0.11219767 11.7809988,0.174077742 11.8996879,0.261798508 C12.016948,0.348158609 12.1170474,0.472598754 12.1978429,0.633758609 C12.278638,0.794918797 12.336553,1.00639937 12.3744477,1.26751901 C12.3744477,1.62791943 12.2507526,1.9692795 12.0019316,2.29227988 L9.11118813,6.98700799 L11.8532233,6.98700799 C12.1764033,7.01148802 12.4316583,7.12368815 12.6168445,7.32224872 C12.8027448,7.52148928 12.9092792,7.77580891 12.9343042,8.08588994 C12.9092792,8.40957098 12.8005991,8.68293096 12.6082631,8.90597156 C12.4152129,9.12901215 12.1578126,9.25277196 11.8339169,9.27861232 L8.27106215,9.29697234 L8.27106215,11.1132518 L11.8517919,11.1132518 C12.1764016,11.1384118 12.4302269,11.262852 12.6168428,11.4858926 L12.6175617,11.4858874 Z" id="路径"></path>
            </g>
        </g>
    </g>
</svg>