<?xml version="1.0" encoding="UTF-8"?>
<svg width="72px" height="72px" viewBox="0 0 72 72" version="1.1" xmlns="http://www.w3.org/2000/svg" xmlns:xlink="http://www.w3.org/1999/xlink">
    <!-- Generator: Sketch 63.1 (92452) - https://sketch.com -->
    <title>账户余额分析</title>
    <desc>Created with Sketch.</desc>
    <g id="账户余额分析" stroke="none" stroke-width="1" fill="none" fill-rule="evenodd">
        <g id="编组-3" transform="translate(13.000000, 9.000000)" fill="#60759C" fill-rule="nonzero">
            <g id="编组" transform="translate(0.000000, 0.000000)">
                <path d="M4,-1.15419267 C0.410149126,-1.15419267 -2.5,1.75595646 -2.5,5.34580733 L-2.5,48.486486 C-2.5,52.0763369 0.410149126,54.986486 4,54.986486 L39.5135135,54.986486 C43.1033644,54.986486 46.0135135,52.0763369 46.0135135,48.486486 L46.0135135,13.3593112 C46.0135135,11.8114218 45.2179695,10.3721776 43.9072448,9.54879281 L27.9670087,-0.464711096 C27.2498748,-0.915207778 26.4201708,-1.15419267 25.5732775,-1.15419267 L4,-1.15419267 Z M25.4292593,3.84580733 L41.0135135,13.6356869 L41.0135135,48.486486 C41.0135135,49.3149131 40.3419406,49.986486 39.5135135,49.986486 L4,49.986486 C3.17157288,49.986486 2.5,49.3149131 2.5,48.486486 L2.5,5.34580733 C2.5,4.51738021 3.17157288,3.84580733 4,3.84580733 L25.4292593,3.84580733 Z" id="路径-5"></path>
                <path d="M23.6081081,-1.42108547e-14 L23.6081081,10 C23.6081081,14.1421356 26.9659725,17.5 31.1081081,17.5 L43.1081081,17.5 L43.1081081,12.5 L31.1081081,12.5 C29.7273962,12.5 28.6081081,11.3807119 28.6081081,10 L28.6081081,-1.42108547e-14 L23.6081081,-1.42108547e-14 Z" id="路径-6"></path>
            </g>
        </g>
        <g id="编辑" transform="translate(25.000000, 29.000000)" fill-rule="nonzero">
            <rect id="矩形" fill="#000000" opacity="0" x="0" y="0" width="27" height="27"></rect>
            <path d="M6.64571932,16.7024978 L17.6839807,5.55751488 C18.4612628,4.77271782 19.7275781,4.7666257 20.5123751,5.54390774 C20.5169167,5.54840581 20.5214366,5.55292563 20.5259349,5.55746703 L22.4574427,7.50751803 C23.2295049,8.28699224 23.2295049,9.54292675 22.4574427,10.322401 L11.3922865,21.4937865 L11.3922865,21.4937865 L6.64571932,16.7024978 Z M3,25 L10.2075326,22.6916086 L5.46264355,17.9011671 L3,25 Z" id="形状" fill="#60759C"></path>
        </g>
        <g id="账户-选中" transform="translate(20.000000, 19.000000)" fill="#60759C" fill-rule="nonzero">
            <path d="M9.9364325,10.5314985 C9.88071809,10.5187485 9.80143242,10.4422485 9.70286102,10.3041234 C9.60536088,10.1659984 9.52071814,9.95243514 9.44893231,9.66343598 C9.37714647,9.37549767 9.42000372,9.02593602 9.57643229,8.61793604 L9.5764321,8.61793623 C10.1907829,8.00953216 10.6926838,7.29891642 11.0592909,6.51843716 C11.453576,5.69712554 11.6528618,4.87156308 11.6528618,4.04281312 C11.6528618,2.78056319 11.2500036,1.79243824 10.445362,1.07525077 C9.6396481,0.356999982 8.66036016,0 7.5,0 C6.35570849,0 5.39677854,0.354875812 4.61785874,1.06462495 C3.84321545,1.77543741 3.4532144,2.76887403 3.4532144,4.04282059 C3.4532144,4.88325722 3.64178585,5.71625801 4.01464245,6.53756216 L4.01464249,6.53756226 C4.36001768,7.3174339 4.84457906,8.02904074 5.44500043,8.63812465 C5.601429,8.99300046 5.63571491,9.31068711 5.55107192,9.5943746 C5.46535767,9.87806208 5.36250047,10.0969362 5.24357258,10.2552504 C5.12464394,10.4135628 5.02071523,10.5038754 4.93607325,10.5314996 C4.11857195,10.8194379 3.35035724,11.1456237 2.63785768,11.5079378 L2.63785778,11.5079378 C1.96651868,11.8413727 1.34313775,12.2623094 0.784286152,12.7595619 C0.262499309,13.233436 0,13.6945627 0,14.1408126 L0,14.6529368 C0,16.2190625 2.50714426,17 7.52143277,17 C12.5078725,17 15,16.2190625 15,14.6529368 L15,14.1408126 C15,13.6796885 14.7375007,13.211126 14.2157138,12.7298135 L14.2157138,12.7298135 C13.6527137,12.2228068 13.0172868,11.8010482 12.3299993,11.4781894 L12.3299998,11.4781896 C11.5546082,11.1094009 10.7549211,10.7931162 9.93642786,10.5315022 L9.9364325,10.5314985 Z" id="路径"></path>
        </g>
    </g>
</svg>