<?xml version="1.0" encoding="UTF-8"?>
<svg width="72px" height="72px" viewBox="0 0 72 72" version="1.1" xmlns="http://www.w3.org/2000/svg" xmlns:xlink="http://www.w3.org/1999/xlink">
    <!-- Generator: Sketch 63.1 (92452) - https://sketch.com -->
    <title>流动性分析</title>
    <desc>Created with Sketch.</desc>
    <g id="流动性分析" stroke="none" stroke-width="1" fill="none" fill-rule="evenodd">
        <g id="编组-25" transform="translate(34.500000, 33.000000) scale(1, -1) rotate(90.000000) translate(-34.500000, -33.000000) translate(8.500000, 6.500000)" fill="#60759C" fill-rule="nonzero">
            <path d="M3,47 L49,47 C50.6568542,47 52,48.3431458 52,50 C52,51.6568542 50.6568542,53 49,53 L3,53 C1.34314575,53 0,51.6568542 0,50 C0,48.3431458 1.34314575,47 3,47 Z M3,51 C3.55228475,51 4,50.5522847 4,50 C4,49.4477153 3.55228475,49 3,49 L49,49 C48.4477153,49 48,49.4477153 48,50 C48,50.5522847 48.4477153,51 49,51 L3,51 Z" id="矩形备份-2"></path>
            <path d="M-20,23 L26,23 C27.6568542,23 29,24.3431458 29,26 C29,27.6568542 27.6568542,29 26,29 L-20,29 C-21.6568542,29 -23,27.6568542 -23,26 C-23,24.3431458 -21.6568542,23 -20,23 Z M-20,27 C-19.4477153,27 -19,26.5522847 -19,26 C-19,25.4477153 -19.4477153,25 -20,25 L26,25 C25.4477153,25 25,25.4477153 25,26 C25,26.5522847 25.4477153,27 26,27 L-20,27 Z" id="矩形备份-2" transform="translate(3.000000, 26.000000) rotate(90.000000) translate(-3.000000, -26.000000) "></path>
            <path d="M3,31 L26,31 C27.6568542,31 29,32.3431458 29,34 C29,35.6568542 27.6568542,37 26,37 L3,37 C1.34314575,37 0,35.6568542 0,34 C0,32.3431458 1.34314575,31 3,31 Z M3,35 C3.55228475,35 4,34.5522847 4,34 C4,33.4477153 3.55228475,33 3,33 L26,33 C25.4477153,33 25,33.4477153 25,34 C25,34.5522847 25.4477153,35 26,35 L3,35 Z" id="矩形备份"></path>
        </g>
        <path d="M12.9033409,26.9093039 L27.0486202,21.4277415 C27.1984504,21.3696795 27.3670557,21.387165 27.5017826,21.4747374 L38.5179338,28.6352358 C40.2532378,29.7631834 42.4748391,29.8214648 44.2668965,28.7860538 L58.250694,20.7065264 C59.4462042,20.0157871 59.8554019,18.4866799 59.1646627,17.2911697 C58.4739235,16.0956595 56.9448162,15.6864618 55.749306,16.377201 L41.7655085,24.4567284 C41.6025942,24.5508567 41.4006305,24.5455584 41.2428756,24.4430177 L30.2267243,17.2825194 C28.7447284,16.319222 26.8900703,16.1268816 25.2419384,16.7655638 L11.0966591,22.2471262 C9.80923429,22.7460276 9.17000975,24.1941312 9.66891115,25.481556 C10.1678125,26.7689808 11.6159161,27.4082053 12.9033409,26.9093039 Z" id="路径-12" fill="#60759C" fill-rule="nonzero" transform="translate(34.499872, 22.782623) scale(-1, -1) translate(-34.499872, -22.782623) "></path>
        <g id="编组-3" transform="translate(37.000000, 31.000000)" fill="#60759C" fill-rule="nonzero">
            <g id="编组">
                <path d="M7.48546081,4.48695731 L18.4037233,4.48695731 C19.2650874,4.48695731 19.9633609,5.18523084 19.9633609,6.04659488 C19.9633609,6.90795893 19.2650874,7.60623245 18.4037233,7.60623245 L2.0875149,7.60623245 C1.22615086,7.60623245 0.527877331,6.90795893 0.527877331,6.04659488 C0.527877331,5.81146111 0.579910719,5.5884804 0.673091023,5.3885392 C0.758252087,5.11084908 0.93186467,4.85785126 1.18627943,4.6757331 C1.21748194,4.65339736 1.24960721,4.63237967 1.2825706,4.6127354 L7.81557721,0.719444142 C8.54534809,0.284543218 9.48950114,0.523582551 9.92440207,1.25335344 C9.92803262,1.25944556 9.931621,1.26556272 9.93516694,1.27170448 C10.365849,2.01766762 10.1102631,2.971527 9.36429997,3.40220902 L7.48546081,4.48695731 Z M5.60503992,3.77170448 L5.62926653,3.81300394 C6.60802154,5.45537091 8.73286074,5.99333469 10.3752277,5.01457968 L3.84222111,8.90787094 C3.92931334,8.85596905 4.01419116,8.80043844 4.09663098,8.7414254 C4.74791898,8.27521279 5.22219563,7.60826814 5.45334874,6.85453243 L5.35163634,7.18619255 L5.205097,7.50062865 C5.41657652,7.04684745 5.52787733,6.54970416 5.52787733,6.04659488 C5.52787733,4.14653518 3.9875746,2.60623245 2.0875149,2.60623245 L5.18818956,2.60623245 C5.25336562,3.0057214 5.3906607,3.40038877 5.60503992,3.77170448 Z" id="形状结合"></path>
            </g>
            <g id="编组" transform="translate(10.083333, 15.147550) scale(-1, -1) translate(-10.083333, -15.147550) translate(0.083333, 11.147550)">
                <path d="M7.48546081,4.48695731 L18.4037233,4.48695731 C19.2650874,4.48695731 19.9633609,5.18523084 19.9633609,6.04659488 C19.9633609,6.90795893 19.2650874,7.60623245 18.4037233,7.60623245 L2.0875149,7.60623245 C1.22615086,7.60623245 0.527877331,6.90795893 0.527877331,6.04659488 C0.527877331,5.81146111 0.579910719,5.5884804 0.673091023,5.3885392 C0.758252087,5.11084908 0.93186467,4.85785126 1.18627943,4.6757331 C1.21748194,4.65339736 1.24960721,4.63237967 1.2825706,4.6127354 L7.81557721,0.719444142 C8.54534809,0.284543218 9.48950114,0.523582551 9.92440207,1.25335344 C9.92803262,1.25944556 9.931621,1.26556272 9.93516694,1.27170448 C10.365849,2.01766762 10.1102631,2.971527 9.36429997,3.40220902 L7.48546081,4.48695731 Z M5.60503992,3.77170448 L5.62926653,3.81300394 C6.60802154,5.45537091 8.73286074,5.99333469 10.3752277,5.01457968 L3.84222111,8.90787094 C3.92931334,8.85596905 4.01419116,8.80043844 4.09663098,8.7414254 C4.74791898,8.27521279 5.22219563,7.60826814 5.45334874,6.85453243 L5.35163634,7.18619255 L5.205097,7.50062865 C5.41657652,7.04684745 5.52787733,6.54970416 5.52787733,6.04659488 C5.52787733,4.14653518 3.9875746,2.60623245 2.0875149,2.60623245 L5.18818956,2.60623245 C5.25336562,3.0057214 5.3906607,3.40038877 5.60503992,3.77170448 Z" id="形状结合"></path>
            </g>
        </g>
    </g>
</svg>