<?xml version="1.0" encoding="UTF-8"?>
<svg width="72px" height="72px" viewBox="0 0 72 72" version="1.1" xmlns="http://www.w3.org/2000/svg" xmlns:xlink="http://www.w3.org/1999/xlink">
    <!-- Generator: Sketch 63.1 (92452) - https://sketch.com -->
    <title>线上票据融资备份</title>
    <desc>Created with Sketch.</desc>
    <g id="线上票据融资备份" stroke="none" stroke-width="1" fill="none" fill-rule="evenodd">
        <g id="编组-2" transform="translate(14.000000, 9.000000)" fill="#60759C" fill-rule="nonzero">
            <path d="M1.5,6 L41.5,6 C45.6421356,6 49,9.35786438 49,13.5 L49,41.5 C49,45.6421356 45.6421356,49 41.5,49 L1.5,49 C-2.64213562,49 -6,45.6421356 -6,41.5 L-6,13.5 C-6,9.35786438 -2.64213562,6 1.5,6 Z M1.5,11 C0.119288125,11 -1,12.1192881 -1,13.5 L-1,41.5 C-1,42.8807119 0.119288125,44 1.5,44 L41.5,44 C42.8807119,44 44,42.8807119 44,41.5 L44,13.5 C44,12.1192881 42.8807119,11 41.5,11 L1.5,11 Z" id="Rectangle-5" transform="translate(21.500000, 27.500000) rotate(90.000000) translate(-21.500000, -27.500000) "></path>
        </g>
        <circle id="椭圆形" fill="#60759C" cx="36" cy="50" r="4"></circle>
    </g>
</svg>