<?xml version="1.0" encoding="UTF-8"?>
<svg width="72px" height="72px" viewBox="0 0 72 72" version="1.1" xmlns="http://www.w3.org/2000/svg" xmlns:xlink="http://www.w3.org/1999/xlink">
    <title>财资管理</title>
    <defs>
        <linearGradient x1="50%" y1="-3.03576608e-14%" x2="50%" y2="97.0412796%" id="linearGradient-1">
            <stop stop-color="#2EB1F3" offset="0%"></stop>
            <stop stop-color="#33CCF8" offset="100%"></stop>
        </linearGradient>
    </defs>
    <g id="财资管理" stroke="none" stroke-width="1" fill="none" fill-rule="evenodd">
        <g id="编组" transform="translate(10.000000, 8.000000)">
            <path d="M47.999642,0 C50.208781,-8.49901461e-16 51.999642,1.790861 51.999642,4 L51.999642,51.999932 C51.999642,54.209071 50.208781,55.999932 47.999642,55.999932 L4,55.999932 C1.790861,55.999932 4.47468376e-13,54.209071 4.47641924e-13,51.999932 L4.47641924e-13,4 C4.46927293e-13,1.790861 1.790861,-3.82769592e-17 4,0 L47.999642,0 Z M41.8483357,36.2158748 C41.2051115,35.5726763 40.162272,35.5726763 39.5190478,36.2158748 L39.5190478,36.2158748 L32.448188,43.2867345 L28.6714525,39.5099733 C28.0282283,38.8667748 26.985363,38.8667748 26.3421645,39.5099733 C25.6989403,40.1531975 25.6989403,41.1960371 26.3421645,41.8392613 L26.3421645,41.8392613 L31.2832609,46.7808981 C31.6049502,47.1025617 32.0265691,47.2633034 32.4481622,47.2633034 C32.8697811,47.2633034 33.2914,47.1025617 33.6130636,46.7808981 C33.6163577,46.777604 33.6193944,46.7741298 33.6226628,46.7708099 L33.6226628,46.7708099 L41.84831,38.5451627 C42.4915342,37.9019642 42.4915342,36.859099 41.8483357,36.2158748 Z M21.5,22 L12.5,22 C11.6715728,22 11,22.6715729 11,23.5 C11,24.2796961 11.5948881,24.9204487 12.35554,24.9931334 L12.5,25 L21.5,25 C22.3284271,25 23,24.3284271 23,23.5 C23,22.6715729 22.3284271,22 21.5,22 Z M29.5,13 L12.5,13 C11.6715728,13 11,13.6715729 11,14.5 C11,15.2796961 11.5948881,15.9204487 12.35554,15.9931334 L12.5,16 L29.5,16 C30.3284271,16 31,15.3284271 31,14.5 C31,13.6715729 30.3284271,13 29.5,13 Z" id="形状结合" fill="url(#linearGradient-1)"></path>
            <g id="统计报表" opacity="0.95" transform="translate(25.859746, 35.733476)"></g>
        </g>
    </g>
</svg>