<?xml version="1.0" encoding="UTF-8"?>
<svg width="72px" height="72px" viewBox="0 0 72 72" version="1.1" xmlns="http://www.w3.org/2000/svg" xmlns:xlink="http://www.w3.org/1999/xlink">
    <title>作业价格</title>
    <g id="作业价格" stroke="none" stroke-width="1" fill="none" fill-rule="evenodd">
        <path d="M28.9090909,5.5 C30.2898028,5.5 31.4090909,6.61928813 31.4090909,8 C31.4090909,9.3254834 30.377555,10.4100387 29.0734666,10.4946823 L28.9090909,10.5 L17.2835017,10.5 C14.7130481,10.5 12.6161301,12.5274464 12.5046608,15.0704258 L12.5,15.2835017 L12.5,44.537 L15.2524463,48.7573874 L15.3510399,49.030069 C16.5398544,52.317992 18.7559879,54.5305306 21.0726453,54.6578357 L21.2835017,54.6636364 L49.8801347,54.6636364 C52.0074498,54.6636364 53.4457854,53.0856899 54.676861,49.4380228 L54.8402462,48.939851 L56.663,45.225 L56.6636364,33.8806632 C56.6636364,32.5551798 57.6951723,31.4706246 58.9992607,31.3859809 L59.1636364,31.3806632 C60.4891198,31.3806632 61.573675,32.4121992 61.6583187,33.7162875 L61.6636364,33.8806632 L61.6636364,46.3859555 L59.485,50.822 L59.4302683,50.9891328 C57.6173474,56.3771397 54.8284396,59.5331065 50.1735058,59.6596774 L49.8801347,59.6636364 L21.2835017,59.6636364 C16.6008362,59.6636364 12.8269728,56.1845091 10.8824333,51.3424086 L10.754,51.013 L7.5,46.0230592 L7.5,15.2835017 C7.5,9.9718039 11.7329991,5.64877603 17.0096567,5.50375862 L17.2835017,5.5 L28.9090909,5.5 Z" id="路径" fill="#60759C" fill-rule="nonzero" transform="translate(34.581818, 32.581818) scale(1, -1) translate(-34.581818, -32.581818) "></path>
        <path d="M56.6363636,18 C57.941764,18 59,19.058236 59,20.3636364 C59,21.6690367 57.941764,22.7272727 56.6363636,22.7272727 L13.3636364,22.7272727 C12.058236,22.7272727 11,21.6690367 11,20.3636364 C11,19.058236 12.058236,18 13.3636364,18 L56.6363636,18 Z" id="矩形备份" fill="#60759C" fill-rule="nonzero" transform="translate(35.000000, 20.363636) scale(1, -1) translate(-35.000000, -20.363636) "></path>
        <path d="M57.1940511,36.9999891 C58.355249,36.9925845 59.2843859,37.4515201 59.9792884,38.1464225 C60.6131495,38.7802836 60.9288559,39.5860233 60.976026,40.6238834 L60.9821671,40.8675375 L60.6945477,48.9797308 C60.685962,49.8054686 60.3142379,50.8112464 59.738124,51.4993579 L59.5899292,51.6644797 L49.4216172,61.833581 C48.5484339,62.5067361 47.6714441,62.9102065 46.5902424,62.9102065 C45.7592917,62.9102065 44.7380096,62.5371607 44.0414789,61.9546021 L43.87441,61.8046923 L36.0745877,54.0056278 C35.3768787,53.3079188 35,52.3271012 35,51.3020054 C35,50.4183618 35.2816391,49.5138734 35.8359353,48.7753656 L35.9938603,48.57821 L46.1314569,38.4337616 C46.7504378,37.8147808 47.5553864,37.3837146 48.5440213,37.3015672 L48.7950055,37.2883927 L57.1940511,36.9999891 Z M56.386,41.404 L49.2414746,41.7768293 L40.150973,51.5759794 L47.2617042,57.9759863 L56.4858336,48.5312448 L56.386,41.404 Z" id="形状" fill="#60759C" fill-rule="nonzero"></path>
        <path d="M52.1933553,42.3100868 C53.1872408,42.3100868 54.0130489,42.6455789 54.6747557,43.3072856 C55.3364624,43.9689924 55.6719545,44.8776243 55.6719545,45.788686 C55.6719545,46.6997477 55.3364624,47.6083796 54.6747557,48.2700864 C54.0130489,48.9317932 53.1812468,49.4109548 52.1933553,49.4109548 C51.1994698,49.4109548 50.3736617,49.0754627 49.7119549,48.413756 C49.0311525,47.5672717 48.5710865,46.7532675 48.5710865,45.788686 C48.5710865,44.8007945 49.0502481,43.9689924 49.7119549,43.3072856 C50.3736617,42.6455789 51.1994698,42.3100868 52.1933553,42.3100868 Z M52.1933553,44.6698593 C51.8882207,44.6698593 51.5761057,44.7599366 51.3703558,44.9656865 C51.1646059,45.1714364 50.930859,45.473062 50.930859,45.788686 C50.930859,46.0938206 51.0209363,46.4059357 51.2266862,46.6116855 C51.4324361,46.8174354 51.7445512,46.9075127 52.0496857,46.9075127 C52.3548203,46.9075127 52.6669354,46.8174354 52.8726852,46.6116855 C53.0784351,46.4059357 53.1685124,46.0938206 53.1685124,45.788686 C53.1685124,45.4835515 53.0784351,45.1714364 52.8726852,44.9656865 C52.8492395,44.9422408 52.8244126,44.9202971 52.7862297,44.8457358 C52.7620298,44.7973362 52.7035891,44.7748168 52.6486112,44.7512548 C52.5166469,44.6946987 52.3545165,44.6698593 52.1933553,44.6698593 Z" id="形状" fill="#60759C" fill-rule="nonzero"></path>
    </g>
</svg>