<?xml version="1.0" encoding="UTF-8"?>
<svg width="72px" height="72px" viewBox="0 0 72 72" version="1.1" xmlns="http://www.w3.org/2000/svg" xmlns:xlink="http://www.w3.org/1999/xlink">
    <title>查询</title>
    <g id="查询" stroke="none" stroke-width="1" fill="none" fill-rule="evenodd">
        <path d="M56,11.5 C60.0609173,11.5 63.3680175,14.7274744 63.4961464,18.7572689 L63.5,19 L63.5,33.0926594 L58.5,33.0926594 L58.5,19 C58.5,17.6745166 57.4684641,16.5899613 56.1643757,16.5053177 L56,16.5 L14,16.5 C12.6745166,16.5 11.5899613,17.5315359 11.5053177,18.8356243 L11.5,19 L11.5,53 C11.5,54.3254834 12.5315359,55.4100387 13.8356243,55.4946823 L14,55.5 L36,55.5 L36,60.5 L14,60.5 C9.93908272,60.5 6.63198248,57.2725256 6.50385357,53.2427311 L6.5,53 L6.5,19 C6.5,14.9390827 9.72747441,11.6319825 13.7572689,11.5038536 L14,11.5 L56,11.5 Z" id="路径" fill="#60759C" fill-rule="nonzero"></path>
        <polygon id="路径-11" fill="#60759C" fill-rule="nonzero" points="58.5910986 24.8173636 58.5910986 29.8173636 11 29.8173636 11 24.8173636"></polygon>
        <polygon id="路径-11备份" fill="#60759C" fill-rule="nonzero" points="36 35 36 40 11 40 11 35"></polygon>
        <polygon id="路径-11备份-2" fill="#60759C" fill-rule="nonzero" points="36 45 36 50 11 50 11 45"></polygon>
        <polygon id="直线" fill="#60759C" fill-rule="nonzero" points="28 27.5 28 57.5 23 57.5 23 27.5"></polygon>
        <polygon id="直线备份" fill="#60759C" fill-rule="nonzero" points="46.5 27.5 46.5 33.5 41.5 33.5 41.5 27.5"></polygon>
        <path d="M59.7842301,51.0374399 C60.9195626,51.0479591 61.8373879,51.9656848 61.8480303,53.1010162 L61.913318,60.0659292 C61.9237076,61.1742952 61.0336219,62.0812257 59.9252559,62.0916153 C59.9127874,62.0917322 59.9003182,62.0917329 59.8878497,62.0916174 C58.7525171,62.0810982 57.8346918,61.1633725 57.8240494,60.0280411 L57.7587617,53.0631281 C57.7483722,51.9547621 58.6384579,51.0478315 59.7468238,51.0374419 C59.7592923,51.0373251 59.7717616,51.0373244 59.7842301,51.0374399 Z" id="矩形" fill="#60759C" transform="translate(59.836040, 56.564529) rotate(-46.000000) translate(-59.836040, -56.564529) "></path>
        <path d="M49.7549798,36.7050502 C44.0039082,36.7050502 39.3241457,41.2830788 39.3241457,46.9526054 C39.3241457,52.6221319 44.0039082,57.2001605 49.7549798,57.2001605 C55.5060514,57.2001605 60.1858139,52.6221319 60.1858139,46.9526054 C60.1858139,41.2830788 55.5060514,36.7050502 49.7549798,36.7050502 Z M49.7549798,40.7050502 C53.3163504,40.7050502 56.1858139,43.5121341 56.1858139,46.9526054 C56.1858139,50.3930766 53.3163504,53.2001605 49.7549798,53.2001605 C46.1936092,53.2001605 43.3241457,50.3930766 43.3241457,46.9526054 C43.3241457,43.5121341 46.1936092,40.7050502 49.7549798,40.7050502 Z" id="椭圆形" fill="#60759C" fill-rule="nonzero" transform="translate(49.754980, 46.952605) rotate(-17.000000) translate(-49.754980, -46.952605) "></path>
    </g>
</svg>