<?xml version="1.0" encoding="UTF-8"?>
<svg width="72px" height="72px" viewBox="0 0 72 72" version="1.1" xmlns="http://www.w3.org/2000/svg" xmlns:xlink="http://www.w3.org/1999/xlink">
    <title>统计指标</title>
    <g id="统计指标" stroke="none" stroke-width="1" fill="none" fill-rule="evenodd">
        <path d="M31.5,41.5 C33.1568542,41.5 34.5,42.8431458 34.5,44.5 C34.5,46.1568542 33.1568542,47.5 31.5,47.5 L16.5,47.5 C14.8431458,47.5 13.5,46.1568542 13.5,44.5 C13.5,42.8431458 14.8431458,41.5 16.5,41.5 L31.5,41.5 Z" id="矩形备份" fill="#60759C" fill-rule="nonzero" transform="translate(24.000000, 44.500000) scale(1, -1) rotate(90.000000) translate(-24.000000, -44.500000) "></path>
        <path d="M41,45 C42.6568542,45 44,46.3431458 44,48 C44,49.6568542 42.6568542,51 41,51 L33,51 C31.3431458,51 30,49.6568542 30,48 C30,46.3431458 31.3431458,45 33,45 L41,45 Z" id="矩形备份-3" fill="#60759C" fill-rule="nonzero" transform="translate(37.000000, 48.000000) scale(1, -1) rotate(90.000000) translate(-37.000000, -48.000000) "></path>
        <path d="M55.5,43.5 C57.1568542,43.5 58.5,44.8431458 58.5,46.5 C58.5,48.1568542 57.1568542,49.5 55.5,49.5 L44.5,49.5 C42.8431458,49.5 41.5,48.1568542 41.5,46.5 C41.5,44.8431458 42.8431458,43.5 44.5,43.5 L55.5,43.5 Z" id="矩形备份-4" fill="#60759C" fill-rule="nonzero" transform="translate(50.000000, 46.500000) scale(1, -1) rotate(90.000000) translate(-50.000000, -46.500000) "></path>
        <path d="M13.8052611,42.8028697 C14.4664179,41.5907488 15.9850095,41.1441042 17.1971303,41.8052611 C18.3587461,42.4388697 18.8173464,43.8599488 18.2716385,45.0441032 L18.1947389,45.1971303 L14.6146788,51.7605739 C14.4824474,52.0029981 14.5717763,52.3067164 14.8142005,52.4389478 C14.8631634,52.4656548 14.916072,52.4838868 14.9706921,52.493074 L15.0536266,52.5 L59.3409875,52.5 C59.6171298,52.5 59.8409875,52.2761424 59.8409875,52 C59.8409875,51.9524164 59.8341957,51.9052004 59.8209167,51.8597575 L59.7961707,51.7930985 L56.7240838,45.0345074 C56.1527412,43.7775536 56.7085388,42.2954264 57.9654926,41.7240838 C59.1700734,41.1765471 60.5814539,41.6641792 61.1998369,42.8120561 L61.2759162,42.9654926 L64.3480031,49.7240838 C64.6728921,50.4388397 64.8409875,51.2148702 64.8409875,52 C64.8409875,54.9634791 62.4972074,57.3795391 59.5621946,57.4956328 L59.3409875,57.5 L15.0536266,57.5 C14.1333721,57.5 13.2278271,57.2690915 12.4199399,56.8284257 C9.82165004,55.4111767 8.82215378,52.2030672 10.1181072,49.5727281 L10.2252009,49.3663133 L13.8052611,42.8028697 Z" id="路径-15" fill="#60759C" fill-rule="nonzero"></path>
        <path d="M55.7754518,20.4187089 C56.6487748,19.7424096 57.9049918,19.9021288 58.5812911,20.7754518 C59.2237755,21.6051086 59.1117531,22.7803274 58.3501793,23.4756172 L58.2245482,23.5812911 L39.0157353,38.4565517 L23.703,28.376 L17.0127598,32.3052662 C16.1056342,32.8379631 14.9508122,32.5742492 14.3597143,31.7251361 L14.275379,31.593405 C13.7426821,30.6862794 14.0063959,29.5314574 14.8555091,28.9403595 L14.9872402,28.8560242 L23.824037,23.6667376 L38.826,33.543 L55.7754518,20.4187089 Z" id="路径-18" fill="#60759C" fill-rule="nonzero"></path>
        <path d="M42.6175617,21.4858874 C42.8034619,21.709607 42.9099964,21.9768476 42.9335917,22.2876077 C42.9099967,22.610608 42.8034616,22.880568 42.6175617,23.0968086 C42.4309458,23.3144089 42.1771205,23.4347687 41.8525108,23.460609 L38.2717811,23.442249 L38.2717811,25.416974 C38.223161,26.4723349 37.64401,27.0000161 36.5371883,27.0000161 C35.9902127,27.0000161 35.5647872,26.870816 35.2601962,26.6090157 C34.9541755,26.348575 34.7897253,25.9514552 34.7661299,25.416974 L34.7661299,23.4789717 L31.165378,23.4789717 C30.8307573,23.4544917 30.5719273,23.3144115 30.3924614,23.0600905 L30.3924614,23.0600905 C30.2124491,22.8072069 30.1000407,22.5163688 30.0649907,22.2128089 C30.1028857,21.9027278 30.2115658,21.6484082 30.3924614,21.4491676 C30.5712116,21.2506077 30.8307572,21.1384076 31.165378,21.1132479 L34.7661299,21.1132479 L34.7661299,19.2595651 L31.165378,19.2412051 C30.8307572,19.216045 30.5719273,19.0984049 30.3924614,18.8876047 C30.2115658,18.6754447 30.1028861,18.4082041 30.0649907,18.0852037 C30.1028857,17.7751227 30.2115658,17.5208031 30.3924614,17.3215625 C30.5712116,17.1230026 30.8307572,17.0114815 31.165378,16.9863218 L33.851641,16.9863218 L31.3520009,12.590804 L31.3520009,12.590804 C31.2108183,12.4151526 31.0917919,12.2243556 30.9973598,12.0223227 L30.9973597,12.0223225 C30.8845055,11.7858114 30.8334812,11.5268467 30.8486396,11.2675217 C30.9101296,10.9193616 31.0352555,10.6371613 31.22044,10.419561 C31.4077699,10.2026414 31.7566906,10.0625606 32.2657709,10.0006799 C32.5639259,10.0251599 32.8320512,10.12852 33.0680014,10.3087206 C33.3039517,10.4882401 33.4970019,10.6840807 33.6471521,10.8948809 L36.4814077,16.0744416 L39.5959556,10.8581582 C39.7446757,10.647358 39.9384403,10.4603577 40.1751062,10.2991979 C40.4110565,10.1359979 40.6777522,10.0373976 40.9759072,9.99999754 C41.163237,10.0122376 41.3334076,10.0373976 41.4892781,10.0741176 C41.6430033,10.1121977 41.7809988,10.1740777 41.8996879,10.2617985 C42.016948,10.3481586 42.1170474,10.4725988 42.1978429,10.6337586 C42.278638,10.7949188 42.336553,11.0063994 42.3744477,11.267519 C42.3744477,11.6279194 42.2507526,11.9692795 42.0019316,12.2922799 L39.1111881,16.987008 L41.8532233,16.987008 C42.1764033,17.011488 42.4316583,17.1236882 42.6168445,17.3222487 C42.8027448,17.5214893 42.9092792,17.7758089 42.9343042,18.0858899 C42.9092792,18.409571 42.8005991,18.682931 42.6082631,18.9059716 C42.4152129,19.1290121 42.1578126,19.252772 41.8339169,19.2786123 L38.2710622,19.2969723 L38.2710622,21.1132518 L41.8517919,21.1132518 C42.1764016,21.1384118 42.4302269,21.262852 42.6168428,21.4858926 L42.6175617,21.4858874 Z" id="路径" fill="#60759C" fill-rule="nonzero"></path>
    </g>
</svg>