<?xml version="1.0" encoding="UTF-8"?>
<svg width="72px" height="72px" viewBox="0 0 72 72" version="1.1" xmlns="http://www.w3.org/2000/svg" xmlns:xlink="http://www.w3.org/1999/xlink">
    <title>作业分割</title>
    <g id="作业分割" stroke="none" stroke-width="1" fill="none" fill-rule="evenodd">
        <path d="M8,32 L16,32 L16,40 L8,40 L8,32 Z M56,32 L64,32 L64,40 L56,40 L56,32 Z M20,32 L28,32 L28,40 L20,40 L20,32 Z M32,32 L40,32 L40,40 L32,40 L32,32 Z M44,32 L52,32 L52,40 L44,40 L44,32 Z" id="形状" fill="#60759C" fill-rule="nonzero"></path>
        <path d="M53.8738271,19.622137 L54.3240888,19.6173848 C56.1596602,19.57583 56.5209217,19.2569638 56.5002033,18.4734524 L56.5002033,18.4734524 L56.4993297,8 L61.4993297,8 L61.4993297,18.4073681 L61.502062,18.6525675 C61.4840935,22.5382601 58.514136,24.622137 53.8738271,24.622137 L53.8738271,24.622137 L18.1261729,24.622137 C13.485864,24.622137 10.5159065,22.5382601 10.497938,18.6525675 L10.5006703,18.4073681 L10.5006703,8 L15.5006703,8 L15.4997967,18.4734524 C15.4790783,19.2569638 15.8403398,19.57583 17.6759112,19.6173848 L18.1261729,19.622137 L53.8738271,19.622137 Z" id="形状结合" fill="#60759C" fill-rule="nonzero"></path>
        <path d="M53.8738271,59.622137 L54.3240888,59.6173848 C56.1596602,59.57583 56.5209217,59.2569638 56.5002033,58.4734524 L56.5002033,58.4734524 L56.4993297,48 L61.4993297,48 L61.4993297,58.4073681 L61.502062,58.6525675 C61.4840935,62.5382601 58.514136,64.622137 53.8738271,64.622137 L53.8738271,64.622137 L18.1261729,64.622137 C13.485864,64.622137 10.5159065,62.5382601 10.497938,58.6525675 L10.5006703,58.4073681 L10.5006703,48 L15.5006703,48 L15.4997967,58.4734524 C15.4790783,59.2569638 15.8403398,59.57583 17.6759112,59.6173848 L18.1261729,59.622137 L53.8738271,59.622137 Z" id="形状结合备份" fill="#60759C" fill-rule="nonzero" transform="translate(36.000000, 56.311068) scale(1, -1) translate(-36.000000, -56.311068) "></path>
    </g>
</svg>