<?xml version="1.0" encoding="UTF-8"?>
<svg width="72px" height="72px" viewBox="0 0 72 72" version="1.1" xmlns="http://www.w3.org/2000/svg" xmlns:xlink="http://www.w3.org/1999/xlink">
    <title>成本中预算</title>
    <g id="成本中预算" stroke="none" stroke-width="1" fill="none" fill-rule="evenodd">
        <path d="M27,9.5 L17,9.5 C12.8578644,9.5 9.5,12.8578644 9.5,17 L9.5,27 C9.5,31.1421356 12.8578644,34.5 17,34.5 L27,34.5 C31.1421356,34.5 34.5,31.1421356 34.5,27 L34.5,17 C34.5,12.8578644 31.1421356,9.5 27,9.5 Z M17,14.5 L27,14.5 C28.3807119,14.5 29.5,15.6192881 29.5,17 L29.5,27 C29.5,28.3807119 28.3807119,29.5 27,29.5 L17,29.5 C15.6192881,29.5 14.5,28.3807119 14.5,27 L14.5,17 C14.5,15.6192881 15.6192881,14.5 17,14.5 Z" id="Rectangle-5" fill="#60759C" fill-rule="nonzero"></path>
        <path d="M55,9.5 L45,9.5 C40.8578644,9.5 37.5,12.8578644 37.5,17 L37.5,27 C37.5,31.1421356 40.8578644,34.5 45,34.5 L55,34.5 C59.1421356,34.5 62.5,31.1421356 62.5,27 L62.5,17 C62.5,12.8578644 59.1421356,9.5 55,9.5 Z M45,14.5 L55,14.5 C56.3807119,14.5 57.5,15.6192881 57.5,17 L57.5,27 C57.5,28.3807119 56.3807119,29.5 55,29.5 L45,29.5 C43.6192881,29.5 42.5,28.3807119 42.5,27 L42.5,17 C42.5,15.6192881 43.6192881,14.5 45,14.5 Z" id="Rectangle-5" fill="#60759C" fill-rule="nonzero"></path>
        <path d="M27,37.5 L17,37.5 C12.8578644,37.5 9.5,40.8578644 9.5,45 L9.5,55 C9.5,59.1421356 12.8578644,62.5 17,62.5 L27,62.5 C31.1421356,62.5 34.5,59.1421356 34.5,55 L34.5,45 C34.5,40.8578644 31.1421356,37.5 27,37.5 Z M17,42.5 L27,42.5 C28.3807119,42.5 29.5,43.6192881 29.5,45 L29.5,55 C29.5,56.3807119 28.3807119,57.5 27,57.5 L17,57.5 C15.6192881,57.5 14.5,56.3807119 14.5,55 L14.5,45 C14.5,43.6192881 15.6192881,42.5 17,42.5 Z" id="Rectangle-5" fill="#60759C" fill-rule="nonzero"></path>
        <path d="M59.3822151,54.8910109 C59.6825154,55.2200103 59.8546095,55.6130112 59.8927251,56.0700113 C59.8546101,56.5450118 59.6825149,56.9420118 59.3822151,57.2600126 C59.0807586,57.580013 58.6707331,57.7570127 58.1463636,57.7950133 L52.3621079,57.7680132 L52.3621079,60.6720205 C52.2835678,62.2240218 51.3480161,63.0000237 49.5600735,63.0000237 C48.6764975,63.0000237 47.9892717,62.8100235 47.49724,62.4250231 C47.0028988,62.0420221 46.7372485,61.4580224 46.6991329,60.6720205 L46.6991329,57.8220172 L40.8825337,57.8220172 C40.3419925,57.7860172 39.9238826,57.5800169 39.6339761,57.2060155 L39.6339761,57.2060154 C39.343187,56.8341278 39.1616042,56.4064247 39.1049849,55.960013 C39.1662,55.5040115 39.3417602,55.1300121 39.6339761,54.8370112 C39.9227264,54.5450114 40.3419925,54.3800112 40.8825337,54.3430116 L46.6991328,54.3430116 L46.6991328,51.6170075 L40.8825337,51.5900074 C40.3419925,51.5530074 39.9238826,51.3800072 39.6339761,51.0700068 C39.3417602,50.758007 39.1662005,50.365006 39.1049849,49.8900055 C39.1662,49.434004 39.3417602,49.0600045 39.6339761,48.7670037 C39.9227264,48.4750038 40.3419925,48.3110022 40.8825337,48.2740026 L45.2218816,48.2740026 L41.1840014,41.8100058 L41.1840014,41.8100058 C40.9559372,41.551695 40.7636639,41.2711112 40.6111197,40.9740039 L40.6111196,40.9740037 C40.4288166,40.6261933 40.3463928,40.2453628 40.3708793,39.8640025 C40.4702094,39.3520023 40.6723358,38.9370019 40.97148,38.6170015 C41.2740898,38.2980021 41.837731,38.0920009 42.6600914,38.0009998 C43.1417264,38.0369998 43.5748519,38.189 43.9560023,38.4540008 C44.3371528,38.7180001 44.6490031,39.006001 44.8915534,39.3160013 L49.4699663,46.9330024 L54.501159,39.2619974 C54.7413992,38.951997 55.0544035,38.6769967 55.4367101,38.4399969 C55.8178605,38.1999969 56.2486766,38.0549964 56.7303116,37.9999964 C57.0329214,38.0179964 57.3078122,38.0549964 57.5596031,38.1089965 C57.8079284,38.1649966 58.0308442,38.2559967 58.2225727,38.3849978 C58.411993,38.511998 58.573692,38.6949982 58.7042077,38.931998 C58.8347229,39.1689982 58.928278,39.4799991 58.9894925,39.8639986 C58.9894925,40.3939992 58.7896773,40.8959993 58.3877357,41.3709998 L53.7180731,48.2750118 L58.1475146,48.2750118 C58.6695746,48.3110118 59.0819095,48.476012 59.3810566,48.7680128 C59.6813569,49.0610136 59.853451,49.4350131 59.893876,49.8910146 C59.853451,50.3670161 59.6778908,50.7690161 59.3671943,51.097017 C59.0553439,51.4250179 58.6395434,51.6070176 58.1163273,51.6450181 L52.3609466,51.6720182 L52.3609466,54.3430174 L58.1452023,54.3430174 C58.6695718,54.3800174 59.0795973,54.5630176 59.3810537,54.8910185 L59.3822151,54.8910109 Z" id="路径" fill="#60759C" fill-rule="nonzero"></path>
    </g>
</svg>