<?xml version="1.0" encoding="UTF-8"?>
<svg width="72px" height="72px" viewBox="0 0 72 72" version="1.1" xmlns="http://www.w3.org/2000/svg" xmlns:xlink="http://www.w3.org/1999/xlink">
    <title>成本凭证单管理</title>
    <g id="成本凭证单管理" stroke="none" stroke-width="1" fill="none" fill-rule="evenodd">
        <path d="M53.5,11.5 L17.5,11.5 C11.7010101,11.5 6.99996194,16.2010101 6.99996194,22 L6.99996194,30.10274 L7.97086688,30.8533627 C9.55628375,32.0790748 10.5,33.9590632 10.5,36 C10.5,38.0409368 9.55628375,39.9209252 7.97086688,41.1466373 L6.99996194,41.89726 L6.99996194,50.0000117 C6.99996194,55.7989899 11.7010101,60.5 17.5,60.5 L53.5,60.5 C59.2989899,60.5 64,55.7989899 64,50 L64.0007726,41.221395 L63.3058157,40.4960875 C62.1527413,39.2926552 61.5,37.7008762 61.5,36 C61.5,34.2991238 62.1527413,32.7073448 63.3058157,31.5039125 L64.0007726,30.778605 L64,21.99978 C64,16.2010101 59.2989899,11.5 53.5,11.5 Z M17.5,16.5 L53.5,16.5 C56.5375661,16.5 59,18.9624339 59,22 L59.000879,28.8391957 C57.397776,30.8509256 56.5,33.357364 56.5,36 L56.5055467,36.3594816 C56.5793815,38.7499485 57.3879506,41.0143878 58.786664,42.8834448 L59,43.16 L59,49.99978 C59,53.0375661 56.5375661,55.5 53.5,55.5 L17.5,55.5 L17.2787929,55.4956328 C14.34378,55.3795391 12,52.9634791 12,50 L11.999,44.26 L12.0546144,44.2085738 C14.2304772,42.0747257 15.5,39.1404719 15.5,36 L15.4947941,35.6519375 C15.404718,32.6432739 14.1498896,29.8462429 12.0546144,27.7914262 L11.999,27.738 L12,22.0000117 C12,18.9624339 14.4624339,16.5 17.5,16.5 Z" id="形状结合" fill="#60759C" fill-rule="nonzero"></path>
        <path d="M45.4410517,41.5666513 C45.712752,41.9088107 45.8684562,42.3175317 45.9029418,42.7928117 C45.8684567,43.2868123 45.7127515,43.6996923 45.4410517,44.0304132 C45.1683054,44.3632135 44.79733,44.5472932 44.3229004,44.5868138 L39.0895262,44.5587338 L39.0895262,47.5789013 C39.0184661,49.1929827 38.1720146,50.0000247 36.5543522,50.0000247 C35.7549263,50.0000247 35.1331505,49.8024244 34.687979,49.402024 C34.240718,49.003703 34.0003677,48.3963433 33.9658821,47.5789013 L33.9658821,44.6148979 L28.7032448,44.6148979 C28.2141837,44.5774579 27.8358938,44.3632176 27.5735975,43.9742561 L27.5735974,43.9742561 C27.3105025,43.5874929 27.1462134,43.1426817 27.0949864,42.6784135 C27.1503714,42.204172 27.3092116,41.8152125 27.5735974,41.5104917 C27.8348477,41.2068118 28.2141837,41.0352116 28.7032448,40.9967321 L33.9658821,40.9967321 L33.9658821,38.1616878 L28.7032448,38.1336077 C28.2141837,38.0951277 27.8358937,37.9152075 27.5735974,37.5928071 C27.3092116,37.2683272 27.1503719,36.8596063 27.0949864,36.3656057 C27.1503714,35.8913641 27.3092116,35.5024047 27.5735974,35.1976838 C27.8348477,34.894004 28.2141837,34.7234423 28.7032448,34.6849627 L32.6293215,34.6849627 L28.9760013,27.9624061 L28.9760013,27.9624061 C28.7696575,27.6937628 28.5956959,27.4019556 28.4576797,27.0929641 L28.4576796,27.0929639 C28.2927388,26.731241 28.2181649,26.3351773 28.2403194,25.9385626 C28.3301895,25.4060824 28.5130657,24.9744819 28.78372,24.6416816 C29.0575098,24.3099222 29.5674709,24.0956809 30.3115113,24.0010398 C30.7472763,24.0384798 31.1391517,24.19656 31.4840021,24.4721608 C31.8288525,24.7467202 32.1110028,25.046241 32.3304531,25.3686414 L36.4728267,33.2903225 L41.0248581,25.3124773 C41.2422184,24.9900769 41.5254127,24.7040765 41.8713091,24.4575968 C42.2161595,24.2079967 42.6059455,24.0571963 43.0417105,23.9999962 C43.3155003,24.0187163 43.5642111,24.0571963 43.7920218,24.1133564 C44.0166971,24.1715964 44.2183829,24.2662365 44.3918515,24.4003977 C44.5632317,24.5324779 44.7095309,24.7227981 44.8276165,24.9692779 C44.9457017,25.2157582 45.0303468,25.539199 45.0857313,25.9385585 C45.0857313,26.4897591 44.9049461,27.0118392 44.5412847,27.5058398 L40.3163519,34.6860122 L44.3239418,34.6860122 C44.7962818,34.7234523 45.1693467,34.8950525 45.4400036,35.1987333 C45.7117039,35.5034542 45.867408,35.8924136 45.9039831,36.3666552 C45.867408,36.8616968 45.7085679,37.2797768 45.4274615,37.6208977 C45.1453112,37.9620186 44.7691107,38.1512983 44.2957247,38.1908188 L39.0884755,38.2188989 L39.0884755,40.996738 L44.3218497,40.996738 C44.7962792,41.0352181 45.1672547,41.2255383 45.440001,41.5666592 L45.4410517,41.5666513 Z" id="路径" fill="#60759C" fill-rule="nonzero"></path>
    </g>
</svg>