<?xml version="1.0" encoding="UTF-8"?>
<svg width="72px" height="72px" viewBox="0 0 72 72" version="1.1" xmlns="http://www.w3.org/2000/svg" xmlns:xlink="http://www.w3.org/1999/xlink">
    <title>利润中心预算</title>
    <g id="利润中心预算" stroke="none" stroke-width="1" fill="none" fill-rule="evenodd">
        <path d="M49.819,33.835 L49.7705293,33.7797054 C48.6974895,32.5939777 46.9550728,32.2957259 44.7210804,32.8291938 L44.6020255,32.8590302 C41.7041947,33.6203153 41.5120957,36.292558 43.5419465,40.2658903 L43.711,40.5905 L43.6888638,40.6111634 C36.7950173,46.9428567 34.7810441,52.798034 37.9617044,58.013352 C38.8572311,59.4817441 40.624132,60.263165 43.3548451,60.6478379 L43.5783681,60.6781639 C45.6546959,60.9493287 47.5940178,61 52.6313944,61 L52.8976154,60.9992056 C57.922173,60.9689935 61.0291335,60.0756294 62.2106958,58.0788683 L62.236,58.034 L62.1930462,58.0937862 C62.7220797,57.3904478 63,56.6305147 63,55.83533 C63,54.9732495 62.5465097,51.9213954 62.3492638,51.2834007 L61.8796815,49.7806695 C60.9505907,46.8481737 60.4813272,45.6702508 59.7741294,44.4232904 L59.6497086,44.2065255 C58.4868524,42.2051847 57.2770553,40.8148932 55.8300909,40.0946602 L55.785,40.073 L55.9029778,39.9446042 C57.761257,37.8911214 58.2285619,35.9210979 57.0801415,34.1294198 C55.7366929,32.0334735 53.3010575,32.0081018 50.0293962,33.7234502 L49.819,33.835 Z M54.5075278,37.102032 C55.0672757,38.0372902 54.6339268,39.2467183 52.9095859,40.8650093 L51.6258664,42.0461466 L53.1234532,42.4502865 L53.3000737,42.5012106 C53.454282,42.5482894 53.626593,42.6071909 53.8210644,42.679548 C54.7591682,43.0285887 55.6396053,44.0401998 56.5268751,45.673892 L56.6186887,45.845112 C57.1970139,46.9372157 57.5692574,48.0137052 58.5425648,51.3853275 C58.6526845,51.7667917 58.9919121,54.2117245 58.9919121,54.7803028 C58.9919121,55.0718567 58.8909522,55.3675108 58.6675796,55.6855576 L58.6328494,55.7350078 L58.6051119,55.7892882 C58.0637364,56.8487237 55.9626228,57.4926154 52.2948477,57.4926154 L50.8040335,57.4872267 C44.7994214,57.440344 42.7138438,57.0723928 41.9470748,55.7978025 L41.9217244,55.7544945 C39.8113702,52.0485511 41.2671937,47.7362362 46.5568238,42.6688078 L48.3176253,41.0007894 L46.6182843,41.0100625 L46.4767836,40.7279634 C45.2079515,38.1518427 45.2926923,36.9967952 46.3362813,36.7299029 C47.8763132,36.336048 48.6975479,36.6007117 49.06526,37.4348031 L49.4432811,38.2922786 L50.2017643,37.8030865 C52.5513329,36.2877066 53.8889147,36.1566071 54.4751456,37.0503506 L54.5075278,37.102032 Z" id="形状结合" fill="#60759C" fill-rule="nonzero"></path>
        <path d="M53.8031022,51.7563984 C53.918664,51.887998 53.9848894,52.0451982 53.9995571,52.227998 C53.9848896,52.4179981 53.9186638,52.5767979 53.8031022,52.7039981 C53.6870954,52.8319981 53.529309,52.9027979 53.3275207,52.9179981 L51.1016181,52.9071981 L51.1016181,54.0687997 C51.0713943,54.6895996 50.7113744,55 50.0233367,55 C49.6833182,55 49.4188593,54.924 49.2295152,54.77 C49.0392824,54.6167998 48.9370546,54.3832002 48.9223869,54.0687997 L48.9223869,52.9287997 L46.684038,52.9287997 C46.4760264,52.9143997 46.315129,52.8319997 46.2035669,52.6823993 L46.2035669,52.6823992 C46.0916652,52.5336443 46.0217883,52.3625633 46,52.1839988 C46.0235568,52.0015984 46.0911161,51.8519988 46.2035669,51.7347986 C46.314684,51.6179988 46.4760264,51.5519988 46.6840379,51.5371989 L48.9223869,51.5371989 L48.9223869,50.4467985 L46.6840379,50.4359985 C46.4760264,50.4211985 46.3151289,50.3519985 46.2035669,50.2279985 C46.0911161,50.1031987 46.0235571,49.9459984 46,49.7559984 C46.0235568,49.573598 46.0911161,49.4239984 46.2035669,49.3067982 C46.314684,49.1899984 46.4760264,49.1243978 46.6840379,49.109598 L48.3539098,49.109598 L46.800049,46.5240021 L46.800049,46.5240021 C46.7122851,46.4206779 46.6382943,46.3084445 46.5795921,46.1896017 L46.5795921,46.1896016 C46.5094381,46.0504776 46.4777197,45.8981456 46.4871426,45.7456016 C46.5253669,45.5408018 46.6031494,45.3748018 46.7182663,45.2468018 C46.8347169,45.1192022 47.0516178,45.0368018 47.3680793,45.0004014 C47.5534225,45.0148014 47.7200983,45.0756014 47.8667729,45.1816016 C48.0134476,45.2872012 48.1334541,45.4024014 48.2267926,45.5264014 L49.9886616,48.5731985 L51.9247697,45.5047998 C52.0172192,45.3807998 52.1376698,45.2707998 52.2847893,45.176 C52.431464,45.0800001 52.597251,45.022 52.7825942,45 C52.8990448,45.0072 53.0048286,45.022 53.101723,45.0436 C53.1972837,45.066 53.2830664,45.1024 53.3568475,45.1540004 C53.4297404,45.2048004 53.4919656,45.2780004 53.5421908,45.3728002 C53.5924157,45.4676002 53.6284177,45.5920004 53.6519743,45.7456001 C53.6519743,45.9576001 53.5750812,46.1583999 53.4204057,46.3483999 L51.6234219,49.1100017 L53.3279636,49.1100017 C53.5288632,49.1244017 53.6875383,49.1904017 53.8026563,49.3072019 C53.9182182,49.4244021 53.9844436,49.5740017 54,49.7564021 C53.9844436,49.9468025 53.9168844,50.1076023 53.7973219,50.2388025 C53.6773153,50.3700027 53.5173066,50.4428025 53.3159621,50.4580027 L51.1011712,50.4688027 L51.1011712,51.5372012 L53.3270738,51.5372012 C53.5288621,51.5520012 53.6866485,51.6252012 53.8026553,51.7564015 L53.8031022,51.7563984 Z" id="路径" fill="#60759C" fill-rule="nonzero"></path>
        <path d="M24,9.5 C25.3807119,9.5 26.5,10.6192881 26.5,12 C26.5,13.3254834 25.4684641,14.4100387 24.1643757,14.4946823 L24,14.5 L15.8148148,14.5 C13.5018968,14.5 11.6140261,16.3198437 11.5049757,18.6057581 L11.5,18.8148148 L11.5,51.1851852 C11.5,53.4981032 13.3198437,55.3859739 15.6057581,55.4950243 L15.8148148,55.5 L54.1851852,55.5 C56.4981032,55.5 58.3859739,53.6801563 58.4950243,51.3942419 L58.5,51.1851852 L58.5,44.2307692 C58.5,42.8500574 59.6192881,41.7307692 61,41.7307692 C62.3254834,41.7307692 63.4100387,42.7623052 63.4946823,44.0663935 L63.5,44.2307692 L63.5,51.1851852 C63.5,56.2393622 59.4746611,60.3533709 54.455028,60.4961665 L54.1851852,60.5 L15.8148148,60.5 C10.7606378,60.5 6.64662908,56.4746611 6.50383351,51.455028 L6.5,51.1851852 L6.5,18.8148148 C6.5,13.7606378 10.5253389,9.64662908 15.544972,9.50383351 L15.8148148,9.5 L24,9.5 Z" id="路径" fill="#60759C" fill-rule="nonzero" transform="translate(35.000000, 35.000000) scale(1, -1) translate(-35.000000, -35.000000) "></path>
        <path d="M37.868421,19 C39.2491329,19 40.368421,19.7748918 40.368421,20.7307692 L40.368421,32.2692308 C40.368421,33.2251082 39.2491329,34 37.868421,34 C36.4877092,34 35.368421,33.2251082 35.368421,32.2692308 L35.368421,20.7307692 C35.368421,19.7748918 36.4877092,19 37.868421,19 Z M18.5,25.9230769 C19.8807119,25.9230769 21,26.6979687 21,27.6538461 L21,32.2692308 C21,33.225097 19.8806957,33.9999713 18.5,33.9999713 C17.1193043,33.9999713 16,33.225097 16,32.2692308 L16,27.6538461 C16,26.6979687 17.1192881,25.9230769 18.5,25.9230769 Z M28.1842106,22.4615385 C29.5649224,22.4615385 30.6842106,23.2364302 30.6842106,24.1923077 L30.6842106,32.2692308 C30.6842106,33.225097 29.5649062,33.9999713 28.1842106,33.9999713 C26.8035149,33.9999713 25.6842106,33.225097 25.6842106,32.2692308 L25.6842106,24.1923077 C25.6842106,23.2364302 26.8034987,22.4615385 28.1842106,22.4615385 Z" id="形状结合" fill="#60759C"></path>
    </g>
</svg>