<?xml version="1.0" encoding="UTF-8"?>
<svg width="72px" height="72px" viewBox="0 0 72 72" version="1.1" xmlns="http://www.w3.org/2000/svg" xmlns:xlink="http://www.w3.org/1999/xlink">
    <title>分摊管理</title>
    <g id="分摊管理" stroke="none" stroke-width="1" fill="none" fill-rule="evenodd">
        <path d="M17.3578884,38.5729092 C16.6624439,38.7527343 15.8947933,38.9865319 15.0602045,39.2677293 L14.6373563,39.4122475 C14.2121071,39.559571 13.7739909,39.7171864 13.3253156,39.8837219 C12.3990875,40.2275114 11.4690607,40.5936272 10.5767975,40.9596629 L9.39191067,41.4563733 L7.05694646,42.4674545 L6.97914859,45.1983436 L6.97591169,45.7796257 C6.9778155,46.2953116 6.99193394,46.8865414 7.0236037,47.533315 C7.08977617,48.8847178 7.22176755,50.2243796 7.43931463,51.5062863 C8.15772817,55.7395729 9.56783525,58.7751798 12.7468287,60.0717 C13.4589625,60.37002 14.0214106,60.4719884 15.3009672,60.5781339 L17.7368592,60.7551317 C18.2543134,60.7934121 18.7012116,60.8304414 19.1175846,60.8706099 L19.4247663,60.9013934 C20.2789108,60.990302 20.9939861,61.0944408 21.5766307,61.2179986 L24.6535962,61.8461927 L29.5683982,62.8098535 C30.0851134,62.9134402 30.5687343,63.0121886 31.0813089,63.1187416 L33.1039721,63.5723625 C33.9584988,63.7592924 34.6166114,63.8746441 35.3083773,63.9418065 C36.7641051,64.0831406 38.1580087,63.9702168 39.7131793,63.56496 C42.403932,62.8686271 47.9364459,59.8291315 50.3248133,58.1134673 L51.469267,57.2664799 C52.688375,56.3556511 54.2736519,55.1497804 55.7505398,54.0001413 L56.6803671,53.2722903 C60.7967571,50.0303345 62.6630948,48.4116066 63.4042585,46.9831733 C64.8285251,44.0876736 63.5376951,41.444525 61.2411652,39.8874751 C59.7579919,38.881882 57.8185613,38.3139674 56.0035792,38.3784745 C54.2092836,38.4299297 51.5343359,39.1396181 47.789018,40.3924985 L46.6876718,40.7666938 L46.1220419,40.9630117 C44.8986416,41.3904303 43.652633,41.8431272 42.3720496,42.3212752 L39.9955234,43.2206958 L38.514969,43.783 L37.9650796,43.7087104 L37.0805429,43.5993815 C36.8344085,43.5681681 36.6346529,43.5405929 36.4516125,43.5120881 C36.1146044,43.4596061 35.84837,43.4056478 35.6441153,43.349323 C34.1294179,42.9388465 33.0245389,42.4024985 31.5593446,41.1688099 L31.2612734,40.9126049 C27.9806351,38.0130237 22.355148,37.3838864 17.7047853,38.4869407 L17.3578884,38.5729092 Z M18.3592567,42.445539 C21.3016626,41.6847041 26.1473347,41.7310965 28.6248624,43.9208165 C31.0969209,46.0873404 33.0056563,46.7785867 34.5807732,47.2053966 C36.1285443,47.6322064 38.0646255,47.6322064 38.8904681,47.9662315 C39.7163106,48.3048958 41.6523918,51.2508116 38.4255898,52.1693806 C35.1987878,53.0833103 29.9648056,51.9884503 28.3131205,51.6544252 C26.6614354,51.3157609 25.2941464,50.8240017 25.0097503,50.7358562 L24.9602314,50.7311425 C24.6522792,50.7381122 24.1635938,51.376568 29.2155312,53.5982657 C33.1150394,55.0271508 38.0372797,54.3776576 39.6123967,53.7977529 C41.4172181,53.1297027 42.604025,52.0116465 42.7571613,50.6245145 C42.992335,48.4997438 42.1391467,47.9430353 41.4172181,46.959517 L43.9230377,46.0119588 C47.6142472,44.6367061 53.7955471,42.4434662 56.145655,42.3759505 C58.1036129,42.3063619 60.5537947,43.7166901 59.8537428,45.1409359 C59.1099376,46.5744603 49.4896923,53.7699175 47.9911435,54.8647775 L47.742448,55.0370306 C46.1589451,56.104306 41.1384474,59.0643477 38.7045168,59.6942236 C36.1230752,60.366913 34.7339096,59.8055653 31.8954176,59.2024645 L30.2129893,58.8596094 C28.2355593,58.4641845 26.4869801,58.1384568 24.3034633,57.6964148 L22.4064321,57.3050164 C19.3655814,56.6601624 15.1105781,56.7251117 14.2573897,56.3678904 C10.6969692,54.9158091 10.9813653,45.1270182 10.9813653,45.1270182 L11.655679,44.8419564 C13.0088596,44.2781745 16.1174236,43.0252228 18.3592567,42.445539 Z" id="形状" fill="#60759C" fill-rule="nonzero" transform="translate(35.487985, 50.988130) scale(-1, 1) translate(-35.487985, -50.988130) "></path>
        <path d="M27.5,19 C29.1568542,19 30.5,20.3431458 30.5,22 C30.5,23.6568542 29.1568542,25 27.5,25 L20.5,25 C18.8431458,25 17.5,23.6568542 17.5,22 C17.5,20.3431458 18.8431458,19 20.5,19 L27.5,19 Z" id="矩形备份" fill="#60759C" fill-rule="nonzero" transform="translate(24.000000, 22.000000) rotate(90.000000) translate(-24.000000, -22.000000) "></path>
        <path d="M48.5,19 C50.1568542,19 51.5,20.3431458 51.5,22 C51.5,23.6568542 50.1568542,25 48.5,25 L22.5,25 C20.8431458,25 19.5,23.6568542 19.5,22 C19.5,20.3431458 20.8431458,19 22.5,19 L48.5,19 Z" id="矩形备份-3" fill="#60759C" fill-rule="nonzero" transform="translate(35.500000, 22.000000) rotate(90.000000) translate(-35.500000, -22.000000) "></path>
        <path d="M50.5,19 C52.1568542,19 53.5,20.3431458 53.5,22 C53.5,23.6568542 52.1568542,25 50.5,25 L43.5,25 C41.8431458,25 40.5,23.6568542 40.5,22 C40.5,20.3431458 41.8431458,19 43.5,19 L50.5,19 Z" id="矩形备份-4" fill="#60759C" fill-rule="nonzero" transform="translate(47.000000, 22.000000) rotate(90.000000) translate(-47.000000, -22.000000) "></path>
    </g>
</svg>