<?xml version="1.0" encoding="UTF-8"?>
<svg width="72px" height="72px" viewBox="0 0 72 72" version="1.1" xmlns="http://www.w3.org/2000/svg" xmlns:xlink="http://www.w3.org/1999/xlink">
    <title>查询</title>
    <g id="查询" stroke="none" stroke-width="1" fill="none" fill-rule="evenodd">
        <path d="M25.4967608,7.5 C26.8774727,7.5 27.9967608,8.61928813 27.9967608,10 C27.9967608,11.3254834 26.9652249,12.4100387 25.6611365,12.4946823 L25.4967608,12.5 L18.2592593,12.5 C15.7018326,12.5 13.6155415,14.5171714 13.5046371,17.0472632 L13.5,17.2592593 L13.5,51.7407407 C13.5,54.2981674 15.5171714,56.3844585 18.0472632,56.4953629 L18.2592593,56.5 L52.7407407,56.5 C55.2981674,56.5 57.3844585,54.4828286 57.4953629,51.9527368 L57.5,51.7407407 L57.5,43.2249371 C57.5,41.8442252 58.6192881,40.7249371 60,40.7249371 C61.3254834,40.7249371 62.4100387,41.756473 62.4946823,43.0605614 L62.5,43.2249371 L62.5,51.7407407 C62.5,57.0392767 58.2774898,61.3515926 53.0139071,61.4962507 L52.7407407,61.5 L18.2592593,61.5 C12.9607233,61.5 8.64840738,57.2774898 8.50374931,52.0139071 L8.5,51.7407407 L8.5,17.2592593 C8.5,11.9607233 12.7225102,7.64840738 17.9860929,7.50374931 L18.2592593,7.5 L25.4967608,7.5 Z" id="路径" fill="#60759C" fill-rule="nonzero" transform="translate(35.500000, 34.500000) scale(1, -1) translate(-35.500000, -34.500000) "></path>
        <path d="M57.9683064,49.0123348 C59.215401,49.0123348 60.226371,50.0233047 60.226371,51.2703993 L60.226371,63.0123348 C60.226371,64.2594294 59.215401,65.2703993 57.9683064,65.2703993 C56.7212118,65.2703993 55.7102419,64.2594294 55.7102419,63.0123348 L55.7102419,51.2703993 C55.7102419,50.0233047 56.7212118,49.0123348 57.9683064,49.0123348 Z" id="矩形" fill="#60759C" transform="translate(57.968306, 57.141367) rotate(-46.000000) translate(-57.968306, -57.141367) "></path>
        <path d="M43.9570328,27.9641081 C35.8420101,27.9641081 29.2634844,34.5426338 29.2634844,42.6576565 C29.2634844,50.7726792 35.8420101,57.3512049 43.9570328,57.3512049 C52.0720555,57.3512049 58.6505812,50.7726792 58.6505812,42.6576565 C58.6505812,34.5426338 52.0720555,27.9641081 43.9570328,27.9641081 Z M43.9570328,32.9641081 C49.3106317,32.9641081 53.6505812,37.3040575 53.6505812,42.6576565 C53.6505812,48.0112554 49.3106317,52.3512049 43.9570328,52.3512049 C38.6034339,52.3512049 34.2634844,48.0112554 34.2634844,42.6576565 C34.2634844,37.3040575 38.6034339,32.9641081 43.9570328,32.9641081 Z" id="椭圆形" fill="#60759C" fill-rule="nonzero" transform="translate(43.957033, 42.657656) rotate(-17.000000) translate(-43.957033, -42.657656) "></path>
    </g>
</svg>