<?xml version="1.0" encoding="UTF-8"?>
<svg width="72px" height="72px" viewBox="0 0 72 72" version="1.1" xmlns="http://www.w3.org/2000/svg" xmlns:xlink="http://www.w3.org/1999/xlink">
    <title>全成本计算设置</title>
    <g id="全成本计算设置" stroke="none" stroke-width="1" fill="none" fill-rule="evenodd">
        <path d="M28.9090909,9.5 C30.2898028,9.5 31.4090909,10.6192881 31.4090909,12 C31.4090909,13.3254834 30.377555,14.4100387 29.0734666,14.4946823 L28.9090909,14.5 L17.2835017,14.5 C14.7130481,14.5 12.6161301,16.5274464 12.5046608,19.0704258 L12.5,19.2835017 L12.5,53.8801347 C12.5,56.4505882 14.5274464,58.5475063 17.0704258,58.6589756 L17.2835017,58.6636364 L51.8801347,58.6636364 C54.4505882,58.6636364 56.5475063,56.63619 56.6589756,54.0932106 L56.6636364,53.8801347 L56.6636364,41.8806632 C56.6636364,40.4999514 57.7829245,39.3806632 59.1636364,39.3806632 C60.4891198,39.3806632 61.573675,40.4121992 61.6583187,41.7162875 L61.6636364,41.8806632 L61.6636364,53.8801347 C61.6636364,59.1918325 57.4306373,63.5148603 52.1539796,63.6598777 L51.8801347,63.6636364 L17.2835017,63.6636364 C11.9718039,63.6636364 7.64877603,59.4306373 7.50375862,54.1539796 L7.5,53.8801347 L7.5,19.2835017 C7.5,13.9718039 11.7329991,9.64877603 17.0096567,9.50375862 L17.2835017,9.5 L28.9090909,9.5 Z" id="路径" fill="#60759C" fill-rule="nonzero" transform="translate(34.581818, 36.581818) scale(1, -1) translate(-34.581818, -36.581818) "></path>
        <path d="M39.1891868,45.2278266 L41.228782,45.2278266 L41.228782,41.1486151 L39.1891868,41.1486151 L39.0363104,41.1535866 C37.9388317,41.2312678 37.1011186,42.1653054 37.1421342,43.2646484 C37.1831499,44.3639915 38.0886009,45.232777 39.1891868,45.2278266 L39.1891868,45.2278266 Z" id="路径" fill="#60759C"></path>
        <path d="M47.3475675,45.2278054 L47.5004439,45.2228338 C48.5979226,45.1451527 49.4362571,44.2111151 49.39462,43.111772 C49.3536044,42.012429 48.447532,41.1436435 47.3475675,41.1485938 L45.3079723,41.1485938 L45.3079723,45.2278054 L47.3475675,45.2278054 L47.3475675,45.2278054 Z" id="路径" fill="#60759C"></path>
        <path d="M60.9448686,59.5049716 L54.1468395,59.5049716 L54.0194425,59.5099432 C53.1400923,59.5882457 52.4465554,60.4694602 52.4465554,61.5445668 C52.4465554,62.6712536 53.2084517,63.5841619 54.1468395,63.5841619 L60.9448686,63.5841619 L61.0722656,63.5791903 C61.9516158,63.5008878 62.6445312,62.6196733 62.6445312,61.5445668 C62.6445312,60.41788 61.8826349,59.5049716 60.9448686,59.5049716 Z" id="路径" fill="#60759C"></path>
        <path d="M62.0367543,42.4356357 C62.8819247,41.4537464 62.7980291,39.9790483 61.8472124,39.0996982 C60.8957741,38.220348 59.4192116,38.2520419 58.5063033,39.1711648 L38.2800071,59.4664418 L38.1588246,59.5988104 C37.3136541,60.5806996 37.3975497,62.0553977 38.3483665,62.9347479 C39.2998047,63.814098 40.7763672,63.7824041 41.6886541,62.8626598 L61.9149503,42.5673828 L62.0367543,42.4356357 L62.0367543,42.4356357 Z" id="路径" fill="#60759C"></path>
        <path d="M60.9448686,53.3861861 L54.1468395,53.3861861 L54.0194425,53.3911577 C53.1400923,53.4700817 52.4465554,54.3512962 52.4465554,55.4257813 C52.4465554,56.552468 53.2084517,57.4653764 54.1468395,57.4653764 L60.9448686,57.4653764 L61.0722656,57.4604048 C61.9516158,57.3814808 62.6445312,56.5008878 62.6445312,55.4257813 C62.6445312,54.2990945 61.8826349,53.3861861 60.9448686,53.3861861 Z" id="路径" fill="#60759C"></path>
        <path d="M45.3079723,39.1090199 L45.3030007,38.9561435 C45.2253196,37.8586648 44.291282,37.0209517 43.1919389,37.0619673 C42.0925959,37.1036044 41.2238104,38.0090554 41.2287607,39.1096413 L41.2287607,41.1492365 L45.3079723,41.1492365 L45.3079723,39.1090199 L45.3079723,39.1090199 Z" id="路径" fill="#60759C"></path>
        <path d="M41.228782,47.2674006 L41.2337536,47.420277 C41.3114347,48.5177557 42.2454723,49.3560902 43.3448153,49.3144531 C44.4441584,49.2728161 45.3129439,48.3673651 45.3079935,47.2674006 L45.3079935,45.2278054 L41.228782,45.2278054 L41.228782,47.2674006 L41.228782,47.2674006 Z" id="路径" fill="#60759C"></path>
        <polygon id="路径" fill="#60759C" points="45.3079723 45.2278054 45.3079723 41.1486151 41.228782 41.1486151 41.228782 45.2278054"></polygon>
        <path d="M31.8685192,18.6549183 C31.0830078,17.8899148 29.8363814,17.8899148 29.05087,18.6549183 L24.5062145,23.08212 L19.7633168,18.6145241 C18.9778054,17.8905362 17.7125355,17.9079368 16.9630682,18.6729403 C16.2017933,19.4379439 16.2191939,20.67587 17.0289418,21.4004794 L21.6518999,25.7574574 L18.5222834,25.7574574 C17.4248047,25.7574574 16.5255682,26.6162997 16.5255682,27.6845703 C16.5255682,28.7534624 17.4310192,29.6116832 18.5222834,29.6116832 L22.5150923,29.6116832 L22.5150923,31.5568182 L18.5222834,31.5568182 C17.4248047,31.5568182 16.5255682,32.4150391 16.5255682,33.4839311 C16.5255682,34.5528232 17.4310192,35.411044 18.5222834,35.411044 L22.5150923,35.411044 L22.5150923,39.3939098 C22.5150923,40.4628018 23.3963068,41.3210227 24.487571,41.3210227 C25.6030717,41.3210227 26.4842862,40.4565874 26.4842862,39.3939098 L26.4842862,35.411044 L30.4354581,35.411044 C31.5267223,35.411044 32.4315518,34.5522017 32.4315518,33.4839311 C32.4315518,32.4150391 31.5261009,31.5568182 30.4354581,31.5568182 L26.4842862,31.5568182 L26.4842862,29.6116832 L30.4292436,29.6116832 C31.5441229,29.6116832 32.4259588,28.7528409 32.4259588,27.6845703 C32.4259588,26.6162997 31.5205078,25.7574574 30.4292436,25.7574574 L27.3835227,25.7574574 L31.8685192,21.3830788 C32.6360085,20.6348544 32.6360085,19.4025213 31.8685192,18.6549183 L31.8685192,18.6549183 Z" id="路径" fill="#60759C"></path>
    </g>
</svg>