<?xml version="1.0" encoding="UTF-8"?>
<svg width="72px" height="72px" viewBox="0 0 72 72" version="1.1" xmlns="http://www.w3.org/2000/svg" xmlns:xlink="http://www.w3.org/1999/xlink">
    <title>成本还原</title>
    <g id="成本还原" stroke="none" stroke-width="1" fill="none" fill-rule="evenodd">
        <path d="M28.6396379,8.47384438 C29.3241879,8.47384438 29.9436201,8.74766069 30.3921192,9.18939846 C30.8432278,9.63370643 31.1216119,10.2476879 31.1216119,10.9255033 C31.1216119,11.6033187 30.8432278,12.2173001 30.3921192,12.6616081 C29.9436201,13.1033459 29.3241879,13.3771622 28.6396379,13.3771622 L28.6396379,13.3771622 L16.7887363,13.3771622 C15.8074025,13.3771622 14.91866,13.7683993 14.2754553,14.4019074 C13.6348602,15.0328454 13.2380115,15.9043023 13.2380115,16.8672569 L13.2380115,16.8672569 L13.2380115,56.4789474 C13.2380115,57.4038016 13.6115961,58.2904456 14.2754553,58.9442969 C14.9420189,59.6008118 15.8462301,59.9690422 16.7887363,59.9690422 L16.7887363,59.9690422 L28.6396379,59.9690422 C29.3241879,59.9690422 29.9436201,60.2428585 30.3921192,60.6845962 C30.8432278,61.1289042 31.1216119,61.7428856 31.1216119,62.4207011 C31.1216119,63.0985165 30.8432278,63.7124979 30.3921192,64.1568059 C29.9436201,64.5985437 29.3241879,64.87236 28.6396379,64.87236 L28.6396379,64.87236 L16.7860668,64.87236 C14.453923,64.8462854 12.3499845,63.897777 10.829097,62.3821349 C9.30624205,60.8645322 8.36790554,58.7785233 8.36790554,56.4789474 L8.36790554,56.4789474 L8.36790554,16.8672894 C8.36790554,14.567681 9.30624208,12.4816721 10.829097,10.9640695 C12.3499846,9.44842735 14.453923,8.4999189 16.7860668,8.47384438 L16.7860668,8.47384438 L28.6396379,8.47384438 Z M56.5689701,8.47384438 C58.9027922,8.49685475 61.0091991,9.4438661 62.5323293,10.9591877 C64.0580297,12.4770665 64.9985672,14.5649777 64.9985672,16.8672569 L64.9985672,16.8672569 L64.9985672,56.4789235 C64.9985672,58.7812266 64.0580297,60.8691379 62.5323293,62.3870166 C61.0091991,63.9023382 58.9027922,64.8493496 56.5643303,64.87236 L56.5643303,64.87236 L44.7134288,64.87236 C44.056636,64.87236 43.4272985,64.6137412 42.9645455,64.1549054 C42.4990857,63.6933858 42.2404507,63.067864 42.2447614,62.4207011 C42.2447614,61.7460616 42.5206935,61.1343293 42.9684757,60.6903476 C43.4136747,60.2489273 44.0290009,59.9735262 44.7134288,59.9690422 L44.7134288,59.9690422 L56.5643304,59.9690422 C57.5068366,59.9690422 58.4110478,59.6008118 59.0776114,58.9442969 C59.7414707,58.2904456 60.1150552,57.4038016 60.1150552,56.4789474 L60.1150552,56.4789474 L60.1150552,16.8672569 C60.1150552,15.9424027 59.7414706,15.0557587 59.0776114,14.4019074 C58.4110478,13.7453926 57.5068366,13.3771622 56.5643303,13.3771622 L56.5643303,13.3771622 L44.7103356,13.377152 C44.0290009,13.3726782 43.4136747,13.097277 42.9684757,12.6558567 C42.5206935,12.211875 42.2447614,11.6001427 42.2447614,10.9255033 C42.2447614,10.2508639 42.5206935,9.63913156 42.9684757,9.19514984 C43.4136747,8.75372953 44.0290009,8.47832839 44.7134288,8.47384438 L44.7134288,8.47384438 L56.5689701,8.47384438 Z M36.5759884,57.8828264 C37.2605383,57.8828264 37.8799705,58.1566427 38.3284696,58.5983805 C38.7795782,59.0426885 39.0579623,59.6566699 39.0579623,60.3344853 L39.0579623,60.3344853 L39.0579623,62.2694182 C39.0740912,62.9322015 38.8179114,63.5736755 38.3463878,64.0473175 C37.8787426,64.5170637 37.2386781,64.7815243 36.5708357,64.7799787 C35.8952645,64.805332 35.2494656,64.5326614 34.7820296,64.0506431 C34.3174733,63.5715944 34.069868,62.9279719 34.0940144,62.2664008 L34.0940144,62.2664008 L34.0940144,60.3344853 C34.0940144,59.6566699 34.3723985,59.0426885 34.8235071,58.5983805 C35.2720062,58.1566427 35.8914384,57.8828264 36.5759884,57.8828264 L36.5759884,57.8828264 Z M36.5759884,47.5045635 C37.2605383,47.5045635 37.8799705,47.7783798 38.3284696,48.2201176 C38.7795782,48.6644255 39.0579623,49.278407 39.0579623,49.9562224 L39.0579623,49.9562224 L39.0579623,54.2738967 C39.0579623,54.9277269 38.7937054,55.5548769 38.3226211,56.0157867 C37.8555812,56.4727395 37.2233583,56.7284429 36.5649889,56.725578 C35.8840144,56.7358204 35.2689488,56.468888 34.8228284,56.032442 C34.3723222,55.5917053 34.0940144,54.9778314 34.0940144,54.3003045 L34.0940144,54.3003045 L34.0940144,49.9562224 C34.0940144,49.278407 34.3723985,48.6644255 34.8235071,48.2201176 C35.2720062,47.7783798 35.8914384,47.5045635 36.5759884,47.5045635 L36.5759884,47.5045635 Z M36.5759884,37.1130967 C37.2605383,37.1130967 37.8799705,37.386913 38.3284696,37.8286508 C38.7795782,38.2729587 39.0580074,38.8869402 39.0580074,39.5647556 L39.0580074,39.5647556 L39.0579515,43.8792306 C39.0624114,44.5359117 38.8001006,45.1673061 38.3285146,45.6317829 C37.86239,46.0908805 37.2300511,46.3486519 36.5709924,46.3473356 C35.9099485,46.3723402 35.2769118,46.1108761 34.8117844,45.6466115 C34.34739,45.1830785 34.0896039,44.5566652 34.0940144,43.9088376 L34.0940144,43.9088376 L34.0940144,39.5647556 C34.0940144,38.8869402 34.3723985,38.2729587 34.8235071,37.8286508 C35.2720062,37.386913 35.8914384,37.1130967 36.5759884,37.1130967 L36.5759884,37.1130967 Z M36.5759884,26.7348338 C37.2605383,26.7348338 37.8799705,27.0086501 38.3284696,27.4503878 C38.7795782,27.8946958 39.0579623,28.5086773 39.0579623,29.1864927 L39.0579623,29.1864927 L39.0579623,33.5041669 C39.0579623,34.1788088 38.7820939,34.7905417 38.3343225,35.2345227 C37.8895972,35.6754833 37.2750994,35.9507701 36.5946872,35.9558023 C35.9002965,35.9668397 35.2801352,35.7009349 34.8313237,35.2676718 C34.3741189,34.8263061 34.0940144,34.210489 34.0940144,33.5305747 L34.0940144,33.5305747 L34.0940144,29.1864927 C34.0940144,28.5086773 34.3723985,27.8946958 34.8235071,27.4503878 C35.2720062,27.0086501 35.8914384,26.7348338 36.5759884,26.7348338 Z M36.5759884,16.3433669 C37.2605383,16.3433669 37.8799705,16.6171832 38.3284696,17.058921 C38.7795782,17.5032289 39.0579623,18.1172104 39.0579623,18.7950258 L39.0579623,18.7950258 L39.0579623,23.1127001 C39.0579623,23.7873419 38.7820939,24.3990749 38.3343225,24.8430559 C37.8920971,25.2815378 37.2820023,25.5562033 36.605993,25.5642281 C35.9108807,25.605101 35.2774979,25.3417313 34.8117845,24.8768817 C34.34739,24.4133487 34.089604,23.7869355 34.0940144,23.1391079 L34.0940144,23.1391079 L34.0940144,18.7950258 C34.0940144,18.1172104 34.3723985,17.5032289 34.8235071,17.058921 C35.2720062,16.6171832 35.8914384,16.3433669 36.5759884,16.3433669 Z M36.5759884,8.32860153 C37.2605383,8.32860153 37.8799705,8.60241784 38.3284696,9.0441556 C38.7795782,9.48846358 39.0579623,10.102445 39.0579623,10.7802604 L39.0579623,10.7802604 L39.0579623,12.7314152 C39.0659768,13.3897314 38.8057275,14.0240157 38.3344398,14.4912726 C37.865113,14.9565854 37.2255681,15.2169154 36.5594699,15.2125931 C35.878138,15.2080371 35.2628288,14.9326226 34.8176454,14.4911976 C34.3698786,14.0472111 34.0940144,13.4354819 34.0940144,12.760845 L34.0940144,12.760845 L34.0940144,10.7802604 C34.0940144,10.102445 34.3723985,9.48846358 34.8235071,9.0441556 C35.2720062,8.60241784 35.8914384,8.32860153 36.5759884,8.32860153 L36.5759884,8.32860153 Z" id="形状" fill="#60759C" fill-rule="nonzero"></path>
        <path d="M29.4691268,38.8969073 C29.668601,39.1481104 29.7829142,39.448181 29.8082325,39.7971172 C29.7829146,40.1597975 29.6686006,40.4629215 29.4691268,40.7057268 C29.2688847,40.9500588 28.9965257,41.0852045 28.6482139,41.1142193 L24.8060287,41.0936038 L24.8060287,43.3109196 C24.7538585,44.4959294 24.1324194,45.0884352 22.9447806,45.0884352 C22.3578662,45.0884352 21.9013772,44.943363 21.5745458,44.6494011 C21.2461802,44.3569659 21.0697223,43.9110608 21.0444041,43.3109196 L21.0444041,41.1348378 L17.1807348,41.1348378 C16.8216809,41.1073505 16.5439519,40.9500618 16.3513818,40.664498 L16.3513818,40.664498 C16.1582255,40.3805481 16.0376093,40.0539812 16,39.7131295 C16.040662,39.3649557 16.1572777,39.0793934 16.3513818,38.8556766 C16.5431839,38.632724 16.8216809,38.5067403 17.1807347,38.4784898 L21.044404,38.4784898 L21.044404,36.397086 L17.1807347,36.3764705 C16.8216809,36.3482196 16.5439518,36.2161276 16.3513818,35.979431 C16.1572777,35.7412077 16.0406624,35.4411371 16,35.0784568 C16.040662,34.7302829 16.1572777,34.4447207 16.3513818,34.2210038 C16.5431839,33.9980513 16.8216809,33.87283 17.1807347,33.8445795 L20.0631416,33.8445795 L17.3809843,28.9090816 L17.3809843,28.9090816 C17.2294929,28.7118518 17.1017756,28.4976158 17.0004483,28.2707635 L17.0004482,28.2707634 C16.8793537,28.0051974 16.8246037,27.7144193 16.8408689,27.4232368 C16.9068488,27.032306 17.041111,26.715438 17.2398172,26.471106 C17.4408254,26.2275383 17.8152234,26.0702488 18.3614754,26.0007661 C18.6814009,26.0282535 18.969104,26.1443112 19.2222827,26.346649 C19.4754615,26.5482221 19.6826077,26.7681213 19.8437215,27.0048179 L22.884927,32.8206768 L26.2268909,26.9635839 C26.3864702,26.7268873 26.5943829,26.5169145 26.8483296,26.3359565 C27.1015084,26.1527077 27.3876774,26.0419946 27.7076029,26 C27.9086111,26.0137437 28.0912071,26.0419946 28.2584589,26.0832256 C28.4234087,26.1259837 28.5714803,26.1954656 28.6988357,26.2939627 C28.8246579,26.3909319 28.9320663,26.5306593 29.0187612,26.7116173 C29.1054557,26.8925757 29.1675996,27.1300362 29.2082613,27.4232338 C29.2082613,27.8279087 29.0755342,28.2112041 28.808545,28.5738844 L25.706727,33.84535 L28.6489784,33.84535 C28.9957562,33.8728374 29.2696492,33.998821 29.4683573,34.2217744 C29.6678314,34.4454912 29.7821447,34.7310535 29.808997,35.0792273 C29.7821447,35.4426719 29.665529,35.7496136 29.4591493,36.0000542 C29.252003,36.2504949 28.975808,36.3894583 28.6282623,36.4184731 L24.8052573,36.4390886 L24.8052573,38.4784942 L28.6474425,38.4784942 C28.9957543,38.5067451 29.2681133,38.6464724 29.4683554,38.8969131 L29.4691268,38.8969073 Z" id="路径" fill="#60759C" fill-rule="nonzero"></path>
        <path d="M55.8081555,26 C55.9670491,26.013183 56.1128955,26.0364472 56.247569,26.0694331 C56.3515025,26.0966866 56.4458428,26.1389547 56.5271184,26.2016758 C56.6040944,26.260871 56.6645902,26.3499197 56.7171413,26.4593708 C56.7864848,26.6037972 56.8327787,26.7922701 56.8664955,27.0214899 C56.859016,27.337344 56.7436368,27.634536 56.5301846,27.9170556 L56.5301846,27.9170556 L52.8142427,34.2184664 L56.7582647,34.2184664 C56.9692188,34.2381087 57.1431114,34.3071116 57.2672176,34.4460574 C57.4005518,34.5952707 57.4727512,34.7859414 57.4958912,35.0124076 C57.4714168,35.2644122 57.3910111,35.4809127 57.2454376,35.6571822 C57.1171877,35.8118993 56.9450734,35.8937263 56.7338532,35.9148322 L56.7338532,35.9148322 L52.2428942,35.9389969 L52.2428942,39.0735577 L56.7558253,39.0735577 C56.9622116,39.093889 57.1285937,39.1733131 57.2494044,39.32408 C57.3913082,39.5017033 57.471911,39.7132371 57.4952957,39.9562302 C57.4724367,40.2060626 57.3952929,40.4189873 57.2544779,40.590019 C57.1324378,40.7386061 56.9644743,40.8143668 56.7573836,40.8352807 L56.7573836,40.8352807 L52.2437043,40.811115 L52.2437043,43.6260035 C52.2221609,44.0820395 52.1131713,44.4393556 51.8688439,44.6721836 C51.6218443,44.9075579 51.2538016,45 50.7891119,45 C50.3221152,45 49.9476815,44.9043816 49.6822826,44.6662016 C49.4263289,44.4387508 49.3141379,44.0827589 49.2934272,43.626465 L49.2934272,43.626465 L49.2934272,40.8570087 L44.7569208,40.8570087 C44.5691709,40.8391235 44.4164432,40.7645031 44.3067919,40.6225038 C44.1361712,40.3711765 44.0374325,40.1248794 44,39.8685242 C44.0342407,39.640508 44.1106829,39.4480655 44.2435342,39.2952732 C44.3627854,39.1569561 44.5407739,39.0931198 44.7567559,39.0735531 L44.7567559,39.0735531 L49.2934272,39.0735531 L49.2934272,35.894954 L44.7581279,35.8708075 C44.5449128,35.8513918 44.3703261,35.7833794 44.2521305,35.6384162 C44.1151291,35.4706408 44.035253,35.2602757 44,35.012057 C44.0341902,34.783942 44.110639,34.5914229 44.2435342,34.4385801 C44.3627753,34.3002748 44.5408602,34.2371805 44.756738,34.217659 L44.756738,34.217659 L48.6046237,34.217659 L45.3656075,28.2704437 C45.2408657,28.1127992 45.1334495,27.9425297 45.0451251,27.7624805 C44.9197391,27.4881355 44.8691449,27.2655811 44.8769249,27.0433775 C44.9309933,26.7440459 45.0305771,26.4968458 45.185466,26.3068474 C45.3313274,26.1331954 45.6123017,26.0524631 45.9826339,26.0015271 C46.1989519,26.0289509 46.3944531,26.1130564 46.5687208,26.2520252 C46.7844684,26.423423 46.9633632,26.6090482 47.1036344,26.8093094 L47.1036344,26.8093094 L50.7071317,33.6854713 L54.6602144,26.7724156 C54.7943004,26.578019 54.9682843,26.4061922 55.1783609,26.2568211 C55.3673641,26.1203366 55.5764424,26.0370433 55.8081555,26 Z" id="路径备份-2" fill="#60759C" fill-rule="nonzero"></path>
    </g>
</svg>