<?xml version="1.0" encoding="UTF-8"?>
<svg width="72px" height="72px" viewBox="0 0 72 72" version="1.1" xmlns="http://www.w3.org/2000/svg" xmlns:xlink="http://www.w3.org/1999/xlink">
    <title>期初维护</title>
    <g id="期初维护" stroke="none" stroke-width="1" fill="none" fill-rule="evenodd">
        <path d="M30,12.5 C31.3807119,12.5 32.5,13.6192881 32.5,15 C32.5,16.3254834 31.4684641,17.4100387 30.1643757,17.4946823 L30,17.5 L17.7037037,17.5 C14.9034679,17.5 12.6198335,19.7118335 12.5045651,22.4837358 L12.5,22.7037037 L12.5,54.2962963 C12.5,57.0965321 14.7118335,59.3801665 17.4837358,59.4954349 L17.7037037,59.5 L54.2962963,59.5 C57.0965321,59.5 59.3801665,57.2881665 59.4954349,54.5162642 L59.5,54.2962963 L59.5,46.6045476 C59.5,45.2238358 60.6192881,44.1045476 62,44.1045476 C63.3254834,44.1045476 64.4100387,45.1360836 64.4946823,46.440172 L64.5,46.6045476 L64.5,54.2962963 C64.5,59.8377237 60.0826557,64.3474252 54.5771584,64.4962092 L54.2962963,64.5 L17.7037037,64.5 C12.1622763,64.5 7.65257485,60.0826557 7.50379075,54.5771584 L7.5,54.2962963 L7.5,22.7037037 C7.5,17.1622763 11.9173443,12.6525748 17.4228416,12.5037908 L17.7037037,12.5 L30,12.5 Z" id="路径" fill="#60759C" fill-rule="nonzero" transform="translate(36.000000, 38.500000) scale(1, -1) translate(-36.000000, -38.500000) "></path>
        <path d="M33.5,40.0933449 C34.8807119,40.0933449 36,41.212633 36,42.5933449 C36,43.9740567 34.8807119,45.0933449 33.5,45.0933449 L22.5,45.0933449 C21.1192881,45.0933449 20,43.9740567 20,42.5933449 C20,41.212633 21.1192881,40.0933449 22.5,40.0933449 L33.5,40.0933449 Z" id="矩形" fill="#60759C" fill-rule="nonzero" transform="translate(28.000000, 42.593345) scale(1, -1) translate(-28.000000, -42.593345) "></path>
        <path d="M29.5,12 C30.8807119,12 32,13.1192881 32,14.5 C32,15.8807119 30.8807119,17 29.5,17 L20.5,17 C19.1192881,17 18,15.8807119 18,14.5 C18,13.1192881 19.1192881,12 20.5,12 L29.5,12 Z" id="矩形备份-2" fill="#60759C" fill-rule="nonzero" transform="translate(25.000000, 14.500000) scale(1, -1) rotate(90.000000) translate(-25.000000, -14.500000) "></path>
        <path d="M51.5,12 C52.8807119,12 54,13.1192881 54,14.5 C54,15.8807119 52.8807119,17 51.5,17 L42.5,17 C41.1192881,17 40,15.8807119 40,14.5 C40,13.1192881 41.1192881,12 42.5,12 L51.5,12 Z" id="矩形备份-3" fill="#60759C" fill-rule="nonzero" transform="translate(47.000000, 14.500000) scale(1, -1) rotate(90.000000) translate(-47.000000, -14.500000) "></path>
        <path d="M59.5,25.0933449 C60.8807119,25.0933449 62,26.212633 62,27.5933449 C62,28.9740567 60.8807119,30.0933449 59.5,30.0933449 L12.5,30.0933449 C11.1192881,30.0933449 10,28.9740567 10,27.5933449 C10,26.212633 11.1192881,25.0933449 12.5,25.0933449 L59.5,25.0933449 Z" id="矩形备份" fill="#60759C" fill-rule="nonzero" transform="translate(36.000000, 27.593345) scale(1, -1) translate(-36.000000, -27.593345) "></path>
        <path d="M64.0096547,41.8070052 L59.3845185,46.4552914 L57.4988803,44.560225 L62.1121617,39.9238528 C59.9943446,38.5986548 57.2861477,38.7071642 55.2800247,40.1975962 C53.2739018,41.6880281 52.3764828,44.2582804 53.01605,46.6817316 L47.7623678,51.9736451 C45.352757,51.329 42.7956873,52.2273375 41.3104663,54.2402965 C39.8252452,56.2532554 39.7126045,58.9732462 41.0262555,61.1032745 L45.6395369,56.4788407 L47.5251751,58.3739071 L42.9000146,63.022169 C45.0121827,64.3928988 47.7457642,64.3166451 49.7790242,62.830278 C51.8122841,61.3439109 52.7263116,58.7536653 52.0791583,56.3119708 L57.3328405,51.0439586 C59.7605524,51.6961207 62.3374221,50.7810861 63.8185831,48.7409011 C65.299744,46.7007162 65.3803693,43.9552566 64.0215094,41.8308333 L64.0096547,41.8070052 Z" id="路径" fill="#60759C" fill-rule="nonzero" transform="translate(52.550609, 51.499997) scale(-1, 1) translate(-52.550609, -51.499997) "></path>
    </g>
</svg>