<?xml version="1.0" encoding="UTF-8"?>
<svg width="72px" height="72px" viewBox="0 0 72 72" version="1.1" xmlns="http://www.w3.org/2000/svg" xmlns:xlink="http://www.w3.org/1999/xlink">
    <title>基础设置</title>
    <g id="基础设置" stroke="none" stroke-width="1" fill="none" fill-rule="evenodd">
        <path d="M28.9090909,8.5 C30.2898028,8.5 31.4090909,9.61928813 31.4090909,11 C31.4090909,12.3254834 30.377555,13.4100387 29.0734666,13.4946823 L28.9090909,13.5 L17.2835017,13.5 C14.7130481,13.5 12.6161301,15.5274464 12.5046608,18.0704258 L12.5,18.2835017 L12.5,52.8801347 C12.5,55.4505882 14.5274464,57.5475063 17.0704258,57.6589756 L17.2835017,57.6636364 L51.8801347,57.6636364 C54.4505882,57.6636364 56.5475063,55.63619 56.6589756,53.0932106 L56.6636364,52.8801347 L56.6636364,40.8806632 C56.6636364,39.4999514 57.7829245,38.3806632 59.1636364,38.3806632 C60.4891198,38.3806632 61.573675,39.4121992 61.6583187,40.7162875 L61.6636364,40.8806632 L61.6636364,52.8801347 C61.6636364,58.1918325 57.4306373,62.5148603 52.1539796,62.6598777 L51.8801347,62.6636364 L17.2835017,62.6636364 C11.9718039,62.6636364 7.64877603,58.4306373 7.50375862,53.1539796 L7.5,52.8801347 L7.5,18.2835017 C7.5,12.9718039 11.7329991,8.64877603 17.0096567,8.50375862 L17.2835017,8.5 L28.9090909,8.5 Z" id="路径" fill="#60759C" fill-rule="nonzero" transform="translate(34.581818, 35.581818) scale(1, -1) translate(-34.581818, -35.581818) "></path>
        <path d="M32.2181818,39.4518897 C33.5235821,39.4518897 34.5818182,40.5101257 34.5818182,41.8155261 C34.5818182,43.1209264 33.5235821,44.1791624 32.2181818,44.1791624 L21.8181818,44.1791624 C20.5127815,44.1791624 19.4545455,43.1209264 19.4545455,41.8155261 C19.4545455,40.5101257 20.5127815,39.4518897 21.8181818,39.4518897 L32.2181818,39.4518897 Z" id="路径" fill="#60759C" fill-rule="nonzero" transform="translate(27.018182, 41.815526) scale(1, -1) translate(-27.018182, -41.815526) "></path>
        <path d="M47.3454545,25.2700715 C48.6508549,25.2700715 49.7090909,26.3283076 49.7090909,27.6337079 C49.7090909,28.9391082 48.6508549,29.9973442 47.3454545,29.9973442 L21.8181818,29.9973442 C20.5127815,29.9973442 19.4545455,28.9391082 19.4545455,27.6337079 C19.4545455,26.3283076 20.5127815,25.2700715 21.8181818,25.2700715 L47.3454545,25.2700715 Z" id="路径" fill="#60759C" fill-rule="nonzero" transform="translate(34.581818, 27.633708) scale(1, -1) translate(-34.581818, -27.633708) "></path>
        <path d="M55.8309091,55.0995558 C56.6306061,53.7358242 58.0015152,53.0539584 59.3724242,53.1676027 C59.6009091,52.3720927 59.7151515,51.4629383 59.7151515,50.5537839 C59.7151515,49.7582738 59.6009091,48.9627638 59.4866666,48.280898 C58.1157576,48.5081866 56.630606,47.7126765 55.8309091,46.348945 C55.0312121,44.9852134 55.1454545,43.280549 56.0593939,42.2577503 C54.8027273,41.1213073 53.4318182,40.3257973 51.8324242,39.7575758 C51.3754545,41.1213073 50.0045455,42.0304617 48.2909091,42.0304617 C46.5772727,42.0304617 45.3206061,41.1213073 44.7493939,39.7575758 C43.15,40.3257972 41.7790909,41.2349516 40.5224243,42.3713946 C41.4363636,43.5078375 41.5506061,45.0988577 40.7509091,46.4625892 C39.9512121,47.8263208 38.4660606,48.5081866 37.0951515,48.280898 C36.9809091,49.0764081 36.8666667,49.8719181 36.8666667,50.6674282 C36.8666667,51.5765826 36.9809091,52.3720927 37.2093939,53.1676027 C38.580303,53.0539584 39.9512121,53.7358242 40.7509091,55.0995558 C41.4363636,56.4632873 41.4363636,57.9406632 40.6366667,59.0771061 C41.8933333,60.2135491 43.2642424,61.0090592 44.8636364,61.4636364 C45.4348485,60.2135491 46.6915152,59.418039 48.2909091,59.418039 C49.890303,59.418039 51.1469697,60.2135491 51.7181818,61.4636364 C53.3175757,61.0090592 54.6884848,60.0999048 55.9451515,59.0771061 C55.1454545,57.9406632 55.0312121,56.4632873 55.8309091,55.0995558 Z M48.2909091,55.554133 C45.5490909,55.554133 43.3784848,53.3948913 43.3784848,50.6674282 C43.3784848,47.9399651 45.5490909,45.7807235 48.2909091,45.7807235 C51.0327273,45.7807235 53.2033333,47.9399651 53.2033333,50.6674282 C53.2033333,53.3948913 51.0327273,55.554133 48.2909091,55.554133 Z" id="形状" fill="#60759C" fill-rule="nonzero"></path>
    </g>
</svg>