<?xml version="1.0" encoding="UTF-8"?>
<svg width="72px" height="72px" viewBox="0 0 72 72" version="1.1" xmlns="http://www.w3.org/2000/svg" xmlns:xlink="http://www.w3.org/1999/xlink">
    <title>分配事务设置</title>
    <g id="分配事务设置" stroke="none" stroke-width="1" fill="none" fill-rule="evenodd">
        <path d="M48.9010465,39.502984 L48.9139554,39.52499 C49.4304164,40.4195267 49.1239255,41.5633664 48.2293888,42.0798274 L45.9760147,43.3804162 L59.0691952,43.3806252 C60.1021173,43.3806252 60.939466,44.2179739 60.939466,45.250896 C60.939466,46.283818 60.1021173,47.1211667 59.0691952,47.1211667 L39.5032855,47.1211667 C38.4703635,47.1211667 37.6330147,46.283818 37.6330147,45.250896 C37.6330147,44.9716546 37.6942118,44.7067065 37.803926,44.4687319 C37.9064742,44.1328667 38.1154102,43.8268605 38.4225509,43.6069995 L38.5380204,43.5314545 L46.3722067,38.8627359 C47.2473262,38.3412157 48.3795263,38.6278646 48.9010465,39.502984 Z" id="形状结合" fill="#60759C" fill-rule="nonzero"></path>
        <path d="M48.4118988,52.7405716 L48.4248077,52.7625776 C48.9412687,53.6571143 48.6347778,54.800954 47.740241,55.317415 L45.486867,56.6180038 L58.5800475,56.6182128 C59.6129695,56.6182128 60.4503183,57.4555615 60.4503183,58.4884835 C60.4503183,59.5214056 59.6129695,60.3587543 58.5800475,60.3587543 L39.0141378,60.3587543 C37.9812157,60.3587543 37.143867,59.5214056 37.143867,58.4884835 C37.143867,58.2092422 37.2050641,57.9442941 37.3147783,57.7063194 C37.4173265,57.3704543 37.6262625,57.0644481 37.9334031,56.8445871 L38.0488726,56.7690421 L45.883059,52.1003235 C46.7581784,51.5788033 47.8903786,51.8654521 48.4118988,52.7405716 Z" id="形状结合" fill="#60759C" fill-rule="nonzero" transform="translate(48.797093, 56.099379) scale(-1, -1) translate(-48.797093, -56.099379) "></path>
        <path d="M25,8.5 L15,8.5 C10.8578644,8.5 7.5,11.8578644 7.5,16 L7.5,26 C7.5,30.1421356 10.8578644,33.5 15,33.5 L25,33.5 C29.1421356,33.5 32.5,30.1421356 32.5,26 L32.5,16 C32.5,11.8578644 29.1421356,8.5 25,8.5 Z M15,13.5 L25,13.5 C26.3807119,13.5 27.5,14.6192881 27.5,16 L27.5,26 C27.5,27.3807119 26.3807119,28.5 25,28.5 L15,28.5 C13.6192881,28.5 12.5,27.3807119 12.5,26 L12.5,16 C12.5,14.6192881 13.6192881,13.5 15,13.5 Z" id="Rectangle-5" fill="#60759C" fill-rule="nonzero"></path>
        <path d="M53,8.5 L43,8.5 C38.8578644,8.5 35.5,11.8578644 35.5,16 L35.5,26 C35.5,30.1421356 38.8578644,33.5 43,33.5 L53,33.5 C57.1421356,33.5 60.5,30.1421356 60.5,26 L60.5,16 C60.5,11.8578644 57.1421356,8.5 53,8.5 Z M43,13.5 L53,13.5 C54.3807119,13.5 55.5,14.6192881 55.5,16 L55.5,26 C55.5,27.3807119 54.3807119,28.5 53,28.5 L43,28.5 C41.6192881,28.5 40.5,27.3807119 40.5,26 L40.5,16 C40.5,14.6192881 41.6192881,13.5 43,13.5 Z" id="Rectangle-5" fill="#60759C" fill-rule="nonzero"></path>
        <path d="M25,36.5 L15,36.5 C10.8578644,36.5 7.5,39.8578644 7.5,44 L7.5,54 C7.5,58.1421356 10.8578644,61.5 15,61.5 L25,61.5 C29.1421356,61.5 32.5,58.1421356 32.5,54 L32.5,44 C32.5,39.8578644 29.1421356,36.5 25,36.5 Z M15,41.5 L25,41.5 C26.3807119,41.5 27.5,42.6192881 27.5,44 L27.5,54 C27.5,55.3807119 26.3807119,56.5 25,56.5 L15,56.5 C13.6192881,56.5 12.5,55.3807119 12.5,54 L12.5,44 C12.5,42.6192881 13.6192881,41.5 15,41.5 Z" id="Rectangle-5" fill="#60759C" fill-rule="nonzero"></path>
    </g>
</svg>