<?xml version="1.0" encoding="UTF-8"?>
<svg width="72px" height="72px" viewBox="0 0 72 72" version="1.1" xmlns="http://www.w3.org/2000/svg" xmlns:xlink="http://www.w3.org/1999/xlink">
    <title>实际成本处理</title>
    <g id="实际成本处理" stroke="none" stroke-width="1" fill="none" fill-rule="evenodd">
        <path d="M56,9.5 L16,9.5 C11.8578644,9.5 8.5,12.8578644 8.5,17 L8.5,45 C8.5,49.1421356 11.8578644,52.5 16,52.5 L56,52.5 C60.1421356,52.5 63.5,49.1421356 63.5,45 L63.5,17 C63.5,12.8578644 60.1421356,9.5 56,9.5 Z M16,14.5 L56,14.5 C57.3807119,14.5 58.5,15.6192881 58.5,17 L58.5,45 C58.5,46.3807119 57.3807119,47.5 56,47.5 L16,47.5 C14.6192881,47.5 13.5,46.3807119 13.5,45 L13.5,17 C13.5,15.6192881 14.6192881,14.5 16,14.5 Z" id="Rectangle-5" fill="#60759C" fill-rule="nonzero"></path>
        <rect id="Rectangle-5" fill="#60759C" transform="translate(36.000000, 59.500000) scale(1, -1) translate(-36.000000, -59.500000) " x="16" y="57" width="40" height="5" rx="2.5"></rect>
        <path d="M45.4410517,35.5666513 C45.712752,35.9088107 45.8684562,36.3175317 45.9029418,36.7928117 C45.8684567,37.2868123 45.7127515,37.6996923 45.4410517,38.0304132 C45.1683054,38.3632135 44.79733,38.5472932 44.3229004,38.5868138 L39.0895262,38.5587338 L39.0895262,41.5789013 C39.0184661,43.1929827 38.1720146,44.0000247 36.5543522,44.0000247 C35.7549263,44.0000247 35.1331505,43.8024244 34.687979,43.402024 C34.240718,43.003703 34.0003677,42.3963433 33.9658821,41.5789013 L33.9658821,38.6148979 L28.7032448,38.6148979 C28.2141837,38.5774579 27.8358938,38.3632176 27.5735975,37.9742561 L27.5735974,37.9742561 C27.3105025,37.5874929 27.1462134,37.1426817 27.0949864,36.6784135 C27.1503714,36.204172 27.3092116,35.8152125 27.5735974,35.5104917 C27.8348477,35.2068118 28.2141837,35.0352116 28.7032448,34.9967321 L33.9658821,34.9967321 L33.9658821,32.1616878 L28.7032448,32.1336077 C28.2141837,32.0951277 27.8358937,31.9152075 27.5735974,31.5928071 C27.3092116,31.2683272 27.1503719,30.8596063 27.0949864,30.3656057 C27.1503714,29.8913641 27.3092116,29.5024047 27.5735974,29.1976838 C27.8348477,28.894004 28.2141837,28.7234423 28.7032448,28.6849627 L32.6293215,28.6849627 L28.9760013,21.9624061 L28.9760013,21.9624061 C28.7696575,21.6937628 28.5956959,21.4019556 28.4576797,21.0929641 L28.4576796,21.0929639 C28.2927388,20.731241 28.2181649,20.3351773 28.2403194,19.9385626 C28.3301895,19.4060824 28.5130657,18.9744819 28.78372,18.6416816 C29.0575098,18.3099222 29.5674709,18.0956809 30.3115113,18.0010398 C30.7472763,18.0384798 31.1391517,18.19656 31.4840021,18.4721608 C31.8288525,18.7467202 32.1110028,19.046241 32.3304531,19.3686414 L36.4728267,27.2903225 L41.0248581,19.3124773 C41.2422184,18.9900769 41.5254127,18.7040765 41.8713091,18.4575968 C42.2161595,18.2079967 42.6059455,18.0571963 43.0417105,17.9999962 C43.3155003,18.0187163 43.5642111,18.0571963 43.7920218,18.1133564 C44.0166971,18.1715964 44.2183829,18.2662365 44.3918515,18.4003977 C44.5632317,18.5324779 44.7095309,18.7227981 44.8276165,18.9692779 C44.9457017,19.2157582 45.0303468,19.539199 45.0857313,19.9385585 C45.0857313,20.4897591 44.9049461,21.0118392 44.5412847,21.5058398 L40.3163519,28.6860122 L44.3239418,28.6860122 C44.7962818,28.7234523 45.1693467,28.8950525 45.4400036,29.1987333 C45.7117039,29.5034542 45.867408,29.8924136 45.9039831,30.3666552 C45.867408,30.8616968 45.7085679,31.2797768 45.4274615,31.6208977 C45.1453112,31.9620186 44.7691107,32.1512983 44.2957247,32.1908188 L39.0884755,32.2188989 L39.0884755,34.996738 L44.3218497,34.996738 C44.7962792,35.0352181 45.1672547,35.2255383 45.440001,35.5666592 L45.4410517,35.5666513 Z" id="路径" fill="#60759C" fill-rule="nonzero"></path>
    </g>
</svg>