<?xml version="1.0" encoding="UTF-8"?>
<svg width="72px" height="72px" viewBox="0 0 72 72" version="1.1" xmlns="http://www.w3.org/2000/svg" xmlns:xlink="http://www.w3.org/1999/xlink">
    <title>成本分析</title>
    <g id="成本分析" stroke="none" stroke-width="1" fill="none" fill-rule="evenodd">
        <path d="M34,30 C35.6568542,30 37,31.3431458 37,33 C37,34.6568542 35.6568542,36 34,36 L-12,36 C-13.6568542,36 -15,34.6568542 -15,33 C-15,31.3431458 -13.6568542,30 -12,30 L34,30 Z" id="矩形备份-2" fill="#60759C" fill-rule="nonzero" transform="translate(11.000000, 33.000000) scale(1, -1) rotate(90.000000) translate(-11.000000, -33.000000) "></path>
        <path d="M58,53 C59.6568542,53 61,54.3431458 61,56 C61,57.6568542 59.6568542,59 58,59 L12,59 C10.3431458,59 9,57.6568542 9,56 C9,54.3431458 10.3431458,53 12,53 L58,53 Z" id="矩形备份-2" fill="#60759C" fill-rule="nonzero" transform="translate(35.000000, 56.000000) scale(1, -1) rotate(180.000000) translate(-35.000000, -56.000000) "></path>
        <path d="M38.5,41.5 C40.1568542,41.5 41.5,42.8431458 41.5,44.5 C41.5,46.1568542 40.1568542,47.5 38.5,47.5 L15.5,47.5 C13.8431458,47.5 12.5,46.1568542 12.5,44.5 C12.5,42.8431458 13.8431458,41.5 15.5,41.5 L38.5,41.5 Z" id="矩形备份" fill="#60759C" fill-rule="nonzero" transform="translate(27.000000, 44.500000) scale(1, -1) rotate(90.000000) translate(-27.000000, -44.500000) "></path>
        <path d="M55.749306,14.377201 C56.9448162,13.6864618 58.4739235,14.0956595 59.1646627,15.2911697 C59.8266211,16.4368669 59.4783944,17.8889407 58.3960147,18.6159022 L58.250694,18.7065264 L44.2668965,26.7860538 C42.5495081,27.7783226 40.4376255,27.7661414 38.7373134,26.7706563 L38.5179338,26.6352358 L27.5017826,19.4747374 C27.394001,19.4046795 27.2645373,19.3794771 27.1403501,19.4019263 L27.0486202,19.4277415 L12.9033409,24.9093039 C11.6159161,25.4082053 10.1678125,24.7689808 9.66891115,23.481556 C9.19079731,22.2477739 9.75794149,20.866424 10.9391425,20.3143524 L11.0966591,20.2471262 L25.2419384,14.7655638 C26.8076637,14.1588157 28.5597789,14.3020655 30.0017024,15.1438144 L30.2267243,15.2825194 L41.2428756,22.4430177 C41.374338,22.5284683 41.536501,22.5463894 41.6811827,22.4955171 L41.7655085,22.4567284 L55.749306,14.377201 Z" id="路径-12" fill="#60759C" fill-rule="nonzero" transform="translate(34.499872, 20.782623) scale(-1, -1) translate(-34.499872, -20.782623) "></path>
        <path d="M54.5293067,44.7929695 C54.758107,45.0811037 54.8892263,45.4252898 54.9182667,45.8255257 C54.8892267,46.2415261 54.7581066,46.5892145 54.5293067,46.8677163 C54.2996256,47.1479693 53.9872252,47.3029838 53.5877056,47.3362643 L49.1806536,47.3126179 L49.1806536,49.8559169 C49.1208135,51.2151433 48.4080123,51.8947576 47.0457703,51.8947576 C46.3725695,51.8947576 45.8489689,51.7283574 45.4740876,51.3911781 C45.0974467,51.0557499 44.8950465,50.5442891 44.866006,49.8559169 L44.866006,47.359914 L40.4343114,47.359914 C40.0224705,47.3283856 39.7039106,47.1479727 39.4830294,46.8204262 L39.4830294,46.8204262 C39.2614758,46.4947309 39.123127,46.120153 39.0799885,45.7291904 C39.1266286,45.329829 39.2603887,45.0022842 39.4830294,44.7456772 C39.7030297,44.4899468 40.0224705,44.3454414 40.4343114,44.3130376 L44.866006,44.3130376 L44.866006,41.9256318 L40.4343114,41.9019855 C40.0224705,41.8695812 39.7039105,41.7180695 39.4830294,41.4465744 C39.2603887,41.1733282 39.126629,40.8291421 39.0799885,40.4131416 C39.1266286,40.0137803 39.2603887,39.6862355 39.4830294,39.4296285 C39.7030297,39.1738981 40.0224705,39.0302672 40.4343114,38.9978633 L43.7404812,38.9978633 L40.6640011,33.336763 L40.6640011,33.336763 C40.4902379,33.1105371 40.3437439,32.8648047 40.2275197,32.6046013 L40.2275197,32.6046012 C40.0886222,32.2999924 40.0258231,31.9664651 40.0444795,31.6324737 C40.1201596,31.1840694 40.2741606,30.8206164 40.50208,30.5403634 C40.7326398,30.2609871 41.1620808,30.0805734 41.7886411,30.0008756 C42.1556011,30.0324041 42.4856014,30.1655242 42.7760018,30.3976091 C43.0664021,30.628817 43.3040024,30.8810451 43.4888026,31.1525401 L46.9771172,37.8234295 L50.8104068,31.105244 C50.993447,30.833749 51.2319265,30.5929066 51.5232077,30.3853446 C51.813608,30.1751551 52.1418488,30.0481653 52.5088088,29.9999968 C52.7393686,30.0157611 52.9488093,30.0481653 53.14065,30.095458 C53.3298502,30.1445023 53.4996908,30.2241992 53.6457697,30.337177 C53.7900899,30.4484024 53.9132892,30.6086721 54.0127297,30.816234 C54.1121698,31.0237963 54.1834499,31.2961676 54.2300895,31.6324703 C54.2300895,32.0966393 54.0778493,32.5362857 53.7716081,32.9522862 L50.21377,38.9987471 L53.5885825,38.9987471 C53.9863426,39.0302756 54.3005025,39.174781 54.5284241,39.4305123 C54.7572243,39.6871193 54.8883436,40.0146641 54.9191436,40.4140254 C54.8883436,40.8309026 54.7545835,41.1829699 54.5178623,41.4702296 C54.280262,41.7574893 53.9634617,41.9168828 53.5648208,41.9501632 L49.1797688,41.9738096 L49.1797688,44.3130426 L53.5868208,44.3130426 C53.9863404,44.3454468 54.2987408,44.5057165 54.5284219,44.7929762 L54.5293067,44.7929695 Z" id="路径" fill="#60759C" fill-rule="nonzero"></path>
    </g>
</svg>