<?xml version="1.0" encoding="UTF-8"?>
<svg width="72px" height="72px" viewBox="0 0 72 72" version="1.1" xmlns="http://www.w3.org/2000/svg" xmlns:xlink="http://www.w3.org/1999/xlink">
    <title>成本处理</title>
    <g id="成本处理" stroke="none" stroke-width="1" fill="none" fill-rule="evenodd">
        <path d="M57,11.5 L15,11.5 C10.8578644,11.5 7.5,14.8578644 7.5,19 L7.5,53 C7.5,57.1421356 10.8578644,60.5 15,60.5 L57,60.5 C61.1421356,60.5 64.5,57.1421356 64.5,53 L64.5,19 C64.5,14.8578644 61.1421356,11.5 57,11.5 Z M15,16.5 L57,16.5 C58.3807119,16.5 59.5,17.6192881 59.5,19 L59.5,53 C59.5,54.3807119 58.3807119,55.5 57,55.5 L15,55.5 C13.6192881,55.5 12.5,54.3807119 12.5,53 L12.5,19 C12.5,17.6192881 13.6192881,16.5 15,16.5 Z" id="Rectangle-5" fill="#60759C" fill-rule="nonzero"></path>
        <path d="M23.6467317,42 C24.5725568,42 25.4109071,42.3753503 26.01778,42.9822181 C26.6246375,43.5890706 27,44.4273953 27,45.3532488 L27,45.3532488 L27,51.2351672 C27,51.9987978 26.6905162,52.6899333 26.1902417,53.1902035 C25.6898708,53.6905703 24.9986077,54 24.2351525,54 C23.4714358,54 22.7802931,53.6905668 22.2800458,53.1903002 C21.7798016,52.6900366 21.4703881,51.9988743 21.4703881,51.2351672 L21.4703881,51.2351672 L21.4703881,47.5296656 L17.7648475,47.5296656 C17.001129,47.5296656 16.3099522,47.2202277 15.8096789,46.7199351 C15.3094285,46.2196653 15,45.5284943 15,44.7647499 C15,44.0013872 15.3094366,43.3101112 15.8098528,42.8097227 C16.3101206,42.3094826 17.0012414,42 17.7648475,42 L17.7648475,42 L23.6467317,42 Z M53.2351671,42 C53.9985188,42 54.6897332,42.3094836 55.1901008,42.8098276 C55.6905142,43.3102175 56,44.0014618 56,44.7647499 C56,45.5284049 55.6905121,46.2195381 55.190264,46.7198098 C54.6898705,47.2202267 53.9985809,47.5296656 53.2351671,47.5296656 L53.2351671,47.5296656 L49.5291676,47.5296656 L49.5291676,51.2351672 C49.5291676,51.9988135 49.2197991,52.6899259 48.7196977,53.1901684 C48.2194607,53.6905467 47.5283463,54 46.7648328,54 C46.0011294,54 45.3099647,53.6905699 44.8096974,53.1903026 C44.30943,52.6900352 44,51.9988706 44,51.2351672 L44,51.2351672 L44,45.3532488 C44,44.4273651 44.375258,43.5890428 44.9819871,42.9822067 C45.5887294,42.3753573 46.4269364,42 47.3528337,42 L47.3528337,42 L53.2351671,42 Z M24.2351525,19 C24.9985425,19 25.6897559,19.3093947 26.1901077,19.8096302 C26.6904976,20.3099038 27,21.0010253 27,21.7644374 L27,21.7644374 L27,27.6471126 C27,28.5730345 26.6246321,29.411237 26.0177933,30.0179776 C25.4109341,30.6247386 24.5725845,31 23.6467317,31 L23.6467317,31 L17.7648475,31 C17.0011315,31 16.3099595,30.6905732 15.8096895,30.1903018 C15.3094314,29.6900424 15,28.998884 15,28.2351476 C15,27.4716619 15.3094509,26.78051 15.8098387,26.2802386 C16.3100888,25.7801047 17.0012062,25.4707103 17.7648475,25.4707103 L17.7648475,25.4707103 L21.4703881,25.4707103 L21.4703881,21.7644374 C21.4703881,21.0009488 21.7798202,20.3098005 22.2801798,19.8095336 C22.780408,19.3093982 23.471501,19 24.2351525,19 L24.2351525,19 Z M46.7648328,19 C47.528281,19 48.2193458,19.3094183 48.7195638,19.8096653 C49.2197805,20.3099112 49.5291676,21.0010096 49.5291676,21.7644374 L49.5291676,21.7644374 L49.5291676,25.4707103 L53.2351671,25.4707103 C53.9985037,25.4707103 54.6897339,25.7801057 55.1901042,26.2803638 C55.6904896,26.7806371 56,27.4717513 56,28.2351476 C56,28.9988093 55.6905194,29.6899361 55.1902641,30.1901969 C54.6898943,30.6905723 53.9986286,31 53.2351671,31 L53.2351671,31 L47.3528337,31 C46.4269087,31 45.5887024,30.6247315 44.9819738,30.017989 C44.3752635,29.4112649 44,28.5730648 44,27.6471126 L44,27.6471126 L44,21.7644374 C44,21.0009525 44.3094486,20.3098019 44.8098314,19.8095312 C45.3100797,19.309395 46.0011946,19 46.7648328,19 Z" id="形状" fill="#60759C" fill-rule="nonzero"></path>
        <path d="M37.3867921,29 L37.3867921,30.3113328 C38.2181004,30.4171107 39.0020562,30.7587908 39.6385283,31.2964845 C40.7854792,32.26338 41.2149059,33.5113031 40.9949934,34.7688395 L40.9949934,34.7688395 L38.1393489,34.7688393 C38.0895309,34.179734 37.8097963,33.641266 37.3696706,33.2545958 C36.7579357,32.8438576 36.1039109,32.7380769 35.4976142,32.9138268 C35.06298,32.9754034 34.7689287,33.1185945 34.569488,33.3325788 C34.3938157,33.5210616 34.2957317,33.7636291 34.3016614,34.025063 C34.4081842,34.4588218 34.5932094,34.7091731 35.7404818,35.1528628 C37.3047912,35.5347814 38.6468812,36.0874748 39.8672545,36.8432247 L39.8672545,36.8432247 L40.1681004,37.0344341 C40.8652715,37.7011964 41.2390237,38.5726139 41.2816092,39.4587773 C41.3233333,40.3270162 41.0472059,41.2099681 40.4436046,41.9293684 C39.647752,42.8192827 38.5364962,43.3581051 37.3432001,43.4421688 L37.4278317,43.4346667 L37.3639755,45 L34.9361876,45 L34.9361873,43.395461 C34.3823679,43.3137597 33.8411586,43.1635785 33.3257703,42.9483463 C32.5915238,42.5338522 32.2098548,42.1719949 31.900147,41.7563178 C31.4307279,41.0424203 31.2057651,40.4552926 31.0964037,39.8406211 L31.0964037,39.8406211 L31,38.4523554 L34.1008462,38.452355 C34.0102968,39.1766593 34.2467439,39.8878726 34.7272415,40.418004 C35.2629587,40.7099485 35.7654373,40.8121928 36.2701433,40.7893352 C36.9512523,40.7462782 37.4778717,40.5421799 37.8838906,40.1872844 C38.0288621,39.9594774 38.0834156,39.7194854 38.0455841,39.4994879 C38.007672,39.2790214 37.8764468,39.0856464 37.6765473,38.9580386 C36.5734917,38.3980569 35.5576766,37.9977826 34.5106563,37.6919806 L34.5106563,37.6919806 L34.0968518,37.5763177 C33.3367378,37.339027 32.6375547,36.9484668 32.0443034,36.4312288 C31.4020217,35.6391674 31.1691242,34.9690657 31.1228262,34.2783596 C31.0629726,33.5995161 31.1839681,32.9760052 31.4449004,32.4442612 C31.7196017,31.8844575 32.1499072,31.4243435 32.6989938,31.106766 C33.4431056,30.6587448 34.1832891,30.3922243 34.9375547,30.2822981 L34.9375547,30.2822981 L34.9375547,29 L37.3867921,29 Z" id="路径" fill="#60759C"></path>
    </g>
</svg>