<?xml version="1.0" encoding="UTF-8"?>
<svg width="72px" height="72px" viewBox="0 0 72 72" version="1.1" xmlns="http://www.w3.org/2000/svg" xmlns:xlink="http://www.w3.org/1999/xlink">
    <title>成本报表</title>
    <g id="成本报表" stroke="none" stroke-width="1" fill="none" fill-rule="evenodd">
        <path d="M57,9.5 C61.0609173,9.5 64.3680175,12.7274744 64.4961464,16.7572689 L64.5,17 L64.5,31.0926594 L59.5,31.0926594 L59.5,17 C59.5,15.6745166 58.4684641,14.5899613 57.1643757,14.5053177 L57,14.5 L15,14.5 C13.6745166,14.5 12.5899613,15.5315359 12.5053177,16.8356243 L12.5,17 L12.5,51 C12.5,52.3254834 13.5315359,53.4100387 14.8356243,53.4946823 L15,53.5 L37,53.5 L37,58.5 L15,58.5 C10.9390827,58.5 7.63198248,55.2725256 7.50385357,51.2427311 L7.5,51 L7.5,17 C7.5,12.9390827 10.7274744,9.63198248 14.7572689,9.50385357 L15,9.5 L57,9.5 Z" id="路径备份" fill="#60759C" fill-rule="nonzero"></path>
        <polygon id="路径-11备份-3" fill="#60759C" fill-rule="nonzero" points="59.5910986 22.8173636 59.5910986 27.8173636 12 27.8173636 12 22.8173636"></polygon>
        <polygon id="路径-11备份-4" fill="#60759C" fill-rule="nonzero" points="37 33 37 38 12 38 12 33"></polygon>
        <polygon id="路径-11备份-5" fill="#60759C" fill-rule="nonzero" points="37 43 37 48 12 48 12 43"></polygon>
        <polygon id="直线备份-2" fill="#60759C" fill-rule="nonzero" points="29 25.5 29 55.5 24 55.5 24 25.5"></polygon>
        <polygon id="直线备份-3" fill="#60759C" fill-rule="nonzero" points="47.5 25.5 47.5 31.5 42.5 31.5 42.5 25.5"></polygon>
        <path d="M62.4116334,52.086677 C62.6976337,52.4000098 62.8615328,52.7742964 62.8978334,53.2095345 C62.8615334,53.661916 62.6976332,54.0400112 62.4116334,54.3428692 C62.124532,54.6476314 61.7340315,54.8162026 61.234632,54.8523936 L55.725817,54.8266793 L55.725817,57.5924005 C55.6510169,59.070497 54.7600154,59.8095464 53.0572128,59.8095464 C52.2157119,59.8095464 51.5612111,59.6285938 51.0926095,59.2619267 C50.6218084,58.8971639 50.3688081,58.3409737 50.3325075,57.5924005 L50.3325075,54.8781116 L44.7928893,54.8781116 C44.2780881,54.8438259 43.8798882,54.6476352 43.6037868,54.2914433 L43.6037868,54.2914433 C43.3268448,53.9372646 43.1539088,53.5299283 43.0999856,53.1047743 C43.1582857,52.6704872 43.3254859,52.3142972 43.6037868,52.0352488 C43.8787871,51.7571537 44.2780881,51.6000106 44.7928892,51.564773 L50.3325075,51.564773 L50.3325075,48.9685786 L44.7928892,48.9428642 C44.2780881,48.9076261 43.8798882,48.742864 43.6037868,48.4476256 C43.3254859,48.1504828 43.1582862,47.7761962 43.0999856,47.3238147 C43.1582857,46.8895276 43.3254859,46.5333376 43.6037868,46.2542892 C43.8787871,45.9761941 44.2780881,45.8200021 44.7928892,45.7847644 L48.9256015,45.7847644 L45.0800014,39.628577 L45.0800014,39.628577 C44.8627973,39.3825667 44.6796799,39.115344 44.5343997,38.8323847 L44.5343996,38.8323845 C44.3607777,38.5011365 44.2822788,38.1384407 44.3055993,37.7752404 C44.4001994,37.2876213 44.5927007,36.8923827 44.8776,36.5876205 C45.1657998,36.2838115 45.702601,36.0876199 46.4858013,36.0009522 C46.9445013,36.0352379 47.3570018,36.18 47.7200022,36.4323817 C48.0830026,36.6838097 48.380003,36.9580962 48.6110033,37.2533346 L52.9713965,44.5076213 L57.7630085,37.2019022 C57.9918088,36.9066638 58.2899081,36.6447587 58.6540096,36.4190447 C59.01701,36.1904732 59.427311,36.0523776 59.886011,35.9999966 C60.1742108,36.0171394 60.4360117,36.0523776 60.6758125,36.1038062 C60.9123127,36.1571396 61.1246135,36.2438064 61.3072121,36.3666646 C61.4876123,36.4876171 61.6416114,36.661903 61.7659121,36.8876171 C61.8902123,37.1133316 61.9793124,37.4095229 62.0376119,37.7752367 C62.0376119,38.2799992 61.8473117,38.7580945 61.4645102,39.210476 L57.0172125,45.7857255 L61.2357282,45.7857255 C61.7329282,45.8200112 62.1256281,45.9771543 62.4105301,46.2552503 C62.6965304,46.5342987 62.8604295,46.8904887 62.8989296,47.3247758 C62.8604295,47.7781106 62.6932293,48.1609677 62.3973279,48.4733495 C62.1003276,48.7857313 61.7043271,48.9590644 61.206026,48.9952554 L55.724711,49.0209697 L55.724711,51.5647784 L61.233526,51.5647784 C61.7329255,51.6000166 62.123426,51.7743025 62.4105274,52.0866843 L62.4116334,52.086677 Z" id="路径" fill="#60759C" fill-rule="nonzero"></path>
    </g>
</svg>