<?xml version="1.0" encoding="UTF-8"?>
<svg width="72px" height="72px" viewBox="0 0 72 72" version="1.1" xmlns="http://www.w3.org/2000/svg" xmlns:xlink="http://www.w3.org/1999/xlink">
    <title>成本价表</title>
    <g id="成本价表" stroke="none" stroke-width="1" fill="none" fill-rule="evenodd">
        <path d="M57,9.5 C61.0609173,9.5 64.3680175,12.7274744 64.4961464,16.7572689 L64.5,17 L64.5,31.0926594 L59.5,31.0926594 L59.5,17 C59.5,15.6745166 58.4684641,14.5899613 57.1643757,14.5053177 L57,14.5 L15,14.5 C13.6745166,14.5 12.5899613,15.5315359 12.5053177,16.8356243 L12.5,17 L12.5,51 C12.5,52.3254834 13.5315359,53.4100387 14.8356243,53.4946823 L15,53.5 L37,53.5 L37,58.5 L15,58.5 C10.9390827,58.5 7.63198248,55.2725256 7.50385357,51.2427311 L7.5,51 L7.5,17 C7.5,12.9390827 10.7274744,9.63198248 14.7572689,9.50385357 L15,9.5 L57,9.5 Z" id="路径备份" fill="#60759C" fill-rule="nonzero"></path>
        <polygon id="路径-11备份-3" fill="#60759C" fill-rule="nonzero" points="59.5910986 22.8173636 59.5910986 27.8173636 12 27.8173636 12 22.8173636"></polygon>
        <polygon id="路径-11备份-4" fill="#60759C" fill-rule="nonzero" points="37 33 37 38 12 38 12 33"></polygon>
        <polygon id="路径-11备份-5" fill="#60759C" fill-rule="nonzero" points="37 43 37 48 12 48 12 43"></polygon>
        <polygon id="直线备份-2" fill="#60759C" fill-rule="nonzero" points="29 25.5 29 55.5 24 55.5 24 25.5"></polygon>
        <polygon id="直线备份-3" fill="#60759C" fill-rule="nonzero" points="47.5 25.5 47.5 31.5 42.5 31.5 42.5 25.5"></polygon>
        <path d="M55.1768948,32 L55.1768949,34.2948324 C56.6316843,34.4799438 58.003607,35.0778838 59.1174331,36.0188479 C61.1245972,37.7109151 61.876094,39.8947805 61.491247,42.0954691 L61.491247,42.0954691 L56.4938692,42.0954688 C56.4066876,41.0645345 55.9171522,40.1222156 55.1469322,39.4455427 C54.076396,38.7267508 52.9318527,38.5416346 51.8708335,38.8491969 C51.1102236,38.9569559 50.5956338,39.2075404 50.2466126,39.582013 C49.939186,39.9118578 49.767539,40.336351 49.7779161,40.7938602 C49.964331,41.5529381 50.288125,41.9910529 52.2958518,42.7675099 C55.0333932,43.4358675 57.3820508,44.4030809 59.5177039,45.7256432 L59.5177039,45.7256432 L60.0441842,46.0602597 C61.2642337,47.2270936 61.9183,48.7520744 61.9928247,50.3028602 C62.0658419,51.8222784 61.582619,53.3674442 60.5263167,54.6263947 C59.1335747,56.1837447 57.188877,57.1266839 55.1006088,57.2737954 L55.2487142,57.2606667 L55.1369657,60 L50.8883369,60 L50.8883364,57.1920568 C49.9191525,57.0490794 48.9720362,56.7862624 48.0701067,56.4096059 C46.7851752,55.6842414 46.1172545,55.050991 45.5752659,54.3235562 C44.7537825,53.0742355 44.3600975,52.046762 44.1687151,50.9710869 L44.1687151,50.9710869 L44.0000086,48.541622 L49.4264894,48.5416212 C49.268028,49.8091537 49.6818104,51.053777 50.5226812,51.981507 C51.4601863,52.4924099 52.3395238,52.6713374 53.2227595,52.6313366 C54.4147001,52.5559869 55.3362841,52.1988149 56.0468171,51.5777477 C56.3005174,51.1790855 56.3959859,50.7590995 56.3297808,50.3741038 C56.2634347,49.9882874 56.0337905,49.6498812 55.6839665,49.4265676 C53.7536192,48.4465995 51.9759426,47.7461196 50.1436571,47.210966 L50.1436571,47.210966 L49.4194992,47.008556 C48.0892998,46.5932972 46.8657293,45.9098169 45.8275395,45.0046505 C44.7035467,43.618543 44.295976,42.4458649 44.2149544,41.2371292 C44.1102107,40.0491531 44.3219529,38.9580091 44.7785842,38.027457 C45.2593116,37.0478007 46.0123463,36.2426012 46.9732478,35.6868405 C48.2754434,34.9028034 49.5707646,34.4363925 50.8907293,34.2440217 L50.8907293,34.2440217 L50.8907293,32 L55.1768948,32 Z" id="路径" fill="#60759C"></path>
    </g>
</svg>