<?xml version="1.0" encoding="UTF-8"?>
<svg width="72px" height="72px" viewBox="0 0 72 72" version="1.1" xmlns="http://www.w3.org/2000/svg" xmlns:xlink="http://www.w3.org/1999/xlink">
    <title>成本资料</title>
    <g id="成本资料" stroke="none" stroke-width="1" fill="none" fill-rule="evenodd">
        <path d="M13.65,19.5 C14.9754834,19.5 16.0600387,20.5315359 16.1446823,21.8356243 L16.15,22 L16.15,54.3337231 C16.15,54.5791829 16.3268752,54.7833314 16.5601244,54.8256674 L16.65,54.8337231 L43.0379119,54.8337231 C44.4186238,54.8337231 45.5379119,55.9530112 45.5379119,57.3337231 C45.5379119,58.6592065 44.506376,59.7437617 43.2022876,59.8284054 L43.0379119,59.8337231 L16.65,59.8337231 C13.6865209,59.8337231 11.2704609,57.489943 11.1543672,54.5549302 L11.15,54.3337231 L11.15,22 C11.15,20.6192881 12.2692881,19.5 13.65,19.5 Z" id="路径-4" fill="#60759C" fill-rule="nonzero"></path>
        <path d="M42.3150135,8.5 L26,8.5 C22.4101491,8.5 19.5,11.4101491 19.5,15 L19.5,45 C19.5,48.5898509 22.4101491,51.5 26,51.5 L53,51.5 C56.5898509,51.5 59.5,48.5898509 59.5,45 L59.5,23.4583196 C59.5,22.1145317 58.8994513,20.8410604 57.8626166,19.9862271 L45.1776301,9.52790752 C44.3716511,8.8634065 43.3596014,8.5 42.3150135,8.5 Z M42.135,13.5 L54.5,23.695 L54.5,45 C54.5,45.8284271 53.8284271,46.5 53,46.5 L26,46.5 C25.1715729,46.5 24.5,45.8284271 24.5,45 L24.5,15 C24.5,14.1715729 25.1715729,13.5 26,13.5 L42.135,13.5 Z" id="路径-5" fill="#60759C" fill-rule="nonzero"></path>
        <path d="M45.5,10 L45.5,20 C45.5,21.3254834 46.5315359,22.4100387 47.8356243,22.4946823 L48,22.5 L59,22.5 L59,27.5 L48,27.5 C43.9390827,27.5 40.6319825,24.2725256 40.5038536,20.2427311 L40.5,20 L40.5,10 L45.5,10 Z" id="路径-6" fill="#60759C" fill-rule="nonzero"></path>
        <path d="M40.5881434,38.2606739 C40.7883436,38.4800068 40.903073,38.7420075 40.9284834,39.0466742 C40.9030734,39.3633412 40.7883432,39.6280079 40.5881434,39.8400084 C40.3871724,40.053342 40.1138221,40.1713418 39.7642424,40.1966755 L35.9080719,40.1786755 L35.9080719,42.1146803 C35.8557119,43.1493479 35.2320108,43.6666825 34.040049,43.6666825 C33.4509983,43.6666825 32.9928478,43.5400157 32.6648266,43.2833487 C32.3352659,43.0280147 32.1581657,42.6386816 32.1327553,42.1146803 L32.1327553,40.2146781 L28.2550225,40.2146781 C27.8946617,40.1906781 27.6159217,40.0533446 27.4226508,39.8040103 L27.4226507,39.8040103 C27.2287913,39.5560852 27.1077362,39.2709498 27.0699899,38.973342 C27.1108,38.669341 27.2278401,38.420008 27.4226507,38.2246741 C27.615151,38.0300076 27.8946617,37.9200075 28.2550224,37.8953411 L32.1327552,37.8953411 L32.1327552,36.078005 L28.2550224,36.060005 C27.8946617,36.0353383 27.6159217,35.9200048 27.4226507,35.7133379 C27.2278401,35.505338 27.1108004,35.2433373 27.0699899,34.9266703 C27.1108,34.6226693 27.2278401,34.3733363 27.4226507,34.1780024 C27.615151,33.9833359 27.8946617,33.8740014 28.2550224,33.8493351 L31.1479211,33.8493351 L28.456001,29.5400039 L28.456001,29.5400039 C28.3039581,29.3677967 28.1757759,29.1807408 28.0740798,28.9826693 L28.0740797,28.9826692 C27.9525444,28.7507955 27.8975952,28.4969085 27.9139195,28.2426683 C27.9801396,27.9013349 28.1148905,27.6246679 28.31432,27.4113343 C28.5160599,27.1986681 28.8918207,27.0613339 29.4400609,27.0006665 C29.7611509,27.0246666 30.0499013,27.126 30.3040016,27.3026672 C30.5581019,27.4786668 30.7660021,27.6706673 30.9277023,27.8773342 L33.9799776,32.9553349 L37.334106,27.8413316 C37.4942662,27.6346647 37.7029357,27.4513311 37.9578067,27.2933313 C38.211907,27.1333312 38.4991177,27.0366643 38.8202077,26.9999976 C39.0219476,27.0119976 39.2052082,27.0366643 39.3730687,27.0726643 C39.5386189,27.1099977 39.6872295,27.1706645 39.8150485,27.2566652 C39.9413286,27.341332 40.049128,27.4633321 40.1361385,27.621332 C40.2231486,27.7793322 40.2855187,27.9866661 40.3263283,28.2426657 C40.3263283,28.5959994 40.1931182,28.9306662 39.9251571,29.2473332 L36.8120488,33.8500078 L39.7650097,33.8500078 C40.1130497,33.8740079 40.3879397,33.984008 40.587371,34.1786752 C40.7875713,34.3740091 40.9023007,34.6233421 40.9292507,34.9273431 C40.9023007,35.2446774 40.7852605,35.5126774 40.5781295,35.7313447 C40.3702293,35.9500119 40.093029,36.0713451 39.7442182,36.0966787 L35.9072977,36.1146788 L35.9072977,37.8953449 L39.7634682,37.8953449 C40.1130479,37.9200116 40.3863982,38.0420117 40.5873692,38.260679 L40.5881434,38.2606739 Z" id="路径" fill="#60759C" fill-rule="nonzero"></path>
    </g>
</svg>