<?xml version="1.0" encoding="UTF-8"?>
<svg width="72px" height="72px" viewBox="0 0 72 72" version="1.1" xmlns="http://www.w3.org/2000/svg" xmlns:xlink="http://www.w3.org/1999/xlink">
    <title>期末处理</title>
    <g id="期末处理" stroke="none" stroke-width="1" fill="none" fill-rule="evenodd">
        <path d="M29,13 C30.3807119,13 31.5,14.1192881 31.5,15.5 C31.5,16.8254834 30.4684641,17.9100387 29.1643757,17.9946823 L29,18 L16.7037037,18 C13.9034679,18 11.6198335,20.2118335 11.5045651,22.9837358 L11.5,23.2037037 L11.5,54.7962963 C11.5,57.5965321 13.7118335,59.8801665 16.4837358,59.9954349 L16.7037037,60 L53.2962963,60 C56.0965321,60 58.3801665,57.7881665 58.4954349,55.0162642 L58.5,54.7962963 L58.5,47.1045476 C58.5,45.7238358 59.6192881,44.6045476 61,44.6045476 C62.3254834,44.6045476 63.4100387,45.6360836 63.4946823,46.940172 L63.5,47.1045476 L63.5,54.7962963 C63.5,60.3377237 59.0826557,64.8474252 53.5771584,64.9962092 L53.2962963,65 L16.7037037,65 C11.1622763,65 6.65257485,60.5826557 6.50379075,55.0771584 L6.5,54.7962963 L6.5,23.2037037 C6.5,17.6622763 10.9173443,13.1525748 16.4228416,13.0037908 L16.7037037,13 L29,13 Z" id="路径" fill="#60759C" fill-rule="nonzero" transform="translate(35.000000, 39.000000) scale(1, -1) translate(-35.000000, -39.000000) "></path>
        <path d="M32.5,40.5933449 C33.8807119,40.5933449 35,41.712633 35,43.0933449 C35,44.4740567 33.8807119,45.5933449 32.5,45.5933449 L21.5,45.5933449 C20.1192881,45.5933449 19,44.4740567 19,43.0933449 C19,41.712633 20.1192881,40.5933449 21.5,40.5933449 L32.5,40.5933449 Z" id="矩形" fill="#60759C" fill-rule="nonzero" transform="translate(27.000000, 43.093345) scale(1, -1) translate(-27.000000, -43.093345) "></path>
        <path d="M28.5,12.5 C29.8807119,12.5 31,13.6192881 31,15 C31,16.3807119 29.8807119,17.5 28.5,17.5 L19.5,17.5 C18.1192881,17.5 17,16.3807119 17,15 C17,13.6192881 18.1192881,12.5 19.5,12.5 L28.5,12.5 Z" id="矩形备份-2" fill="#60759C" fill-rule="nonzero" transform="translate(24.000000, 15.000000) scale(1, -1) rotate(90.000000) translate(-24.000000, -15.000000) "></path>
        <path d="M50.5,12.5 C51.8807119,12.5 53,13.6192881 53,15 C53,16.3807119 51.8807119,17.5 50.5,17.5 L41.5,17.5 C40.1192881,17.5 39,16.3807119 39,15 C39,13.6192881 40.1192881,12.5 41.5,12.5 L50.5,12.5 Z" id="矩形备份-3" fill="#60759C" fill-rule="nonzero" transform="translate(46.000000, 15.000000) scale(1, -1) rotate(90.000000) translate(-46.000000, -15.000000) "></path>
        <path d="M58.5,25.5933449 C59.8807119,25.5933449 61,26.712633 61,28.0933449 C61,29.4740567 59.8807119,30.5933449 58.5,30.5933449 L11.5,30.5933449 C10.1192881,30.5933449 9,29.4740567 9,28.0933449 C9,26.712633 10.1192881,25.5933449 11.5,25.5933449 L58.5,25.5933449 Z" id="矩形备份" fill="#60759C" fill-rule="nonzero" transform="translate(35.000000, 28.093345) scale(1, -1) translate(-35.000000, -28.093345) "></path>
        <path d="M56.2485767,55.541998 C56.1742908,55.524998 56.0685766,55.422998 55.937148,55.2388313 C55.8071478,55.0546645 55.6942909,54.7699135 55.5985764,54.3845813 C55.502862,54.0006636 55.560005,53.5345814 55.7685764,52.9905814 L55.7685761,52.9905816 C56.5877105,52.1793762 57.2569118,51.2318886 57.7457212,50.1912496 C58.2714347,49.0961674 58.5371491,47.9954174 58.5371491,46.8904175 C58.5371491,45.2074176 58,43.8899177 56.9271493,42.9336677 C55.8528641,41.976 54.5471469,41.5 53,41.5 C51.474278,41.5 50.1957047,41.9731677 49.157145,42.9194999 C48.1242873,43.8672499 47.6042859,45.191832 47.6042859,46.8904275 C47.6042859,48.0110096 47.8557145,49.1216773 48.3528566,50.2167496 L48.3528567,50.2167497 C48.8133569,51.2565785 49.4594387,52.2053877 50.2600006,53.0174995 C50.468572,53.4906673 50.5142865,53.9142495 50.4014292,54.2924995 C50.2871436,54.6707494 50.1500006,54.9625817 49.9914301,55.1736672 C49.8328586,55.3847504 49.694287,55.5051672 49.581431,55.5419994 C48.4914293,55.9259172 47.467143,56.3608316 46.5171436,56.8439171 L46.5171437,56.843917 C45.6220249,57.2884969 44.7908503,57.8497459 44.0457149,58.5127492 C43.3499991,59.1445814 43,59.7594169 43,60.3544169 L43,61.0372491 C43,63.1254167 46.342859,64.1666667 53.028577,64.1666667 C59.6771633,64.1666667 63,63.1254167 63,61.0372491 L63,60.3544169 C63,59.7395847 62.6500009,59.1148347 61.9542851,58.4730847 L61.954285,58.4730846 C61.2036183,57.7970757 60.3563823,57.234731 59.439999,56.8042525 L59.4399997,56.8042528 C58.4061442,56.3125345 57.3398947,55.8908216 56.2485705,55.5420029 L56.2485767,55.541998 Z" id="路径" fill="#60759C" fill-rule="nonzero"></path>
    </g>
</svg>