<?xml version="1.0" encoding="UTF-8"?>
<svg width="72px" height="72px" viewBox="0 0 72 72" version="1.1" xmlns="http://www.w3.org/2000/svg" xmlns:xlink="http://www.w3.org/1999/xlink">
    <title>管理会计</title>
    <defs>
        <linearGradient x1="50%" y1="-2.48949813e-15%" x2="50%" y2="100%" id="linearGradient-1">
            <stop stop-color="#FD785E" offset="0%"></stop>
            <stop stop-color="#FF8C49" offset="100%"></stop>
        </linearGradient>
    </defs>
    <g id="管理会计" stroke="none" stroke-width="1" fill="none" fill-rule="evenodd">
        <path d="M33.6849281,39.4783888 L34.5041821,39.5039148 C40.6428656,39.7039951 46.5769685,40.1010344 47.1862904,40.8754204 C48.2656728,42.2469923 47.3444165,46.4837399 42.0764118,46.9529619 C38.2727922,47.2915579 33.5908852,47.2399951 31.0522742,47.377496 C30.5899272,47.4049962 30.4593014,48.1681264 30.8735229,48.4242219 C32.8724428,49.6548553 36.8307511,51.6159624 41.555627,51.4148673 C45.4950289,51.2447099 49.2333357,49.2114148 52.1878871,45.9921741 C54.6319662,43.3349684 58.341054,39.6207244 60.0099717,39.6207244 C61.2371675,39.6207244 62.041548,39.8836949 62.5485827,40.1586968 C62.9920233,40.4010422 63.1432743,41.0851094 62.8459285,41.5594876 C60.9329467,44.6326335 53.3583638,56.1002118 45.0275257,59.1458575 C38.100916,61.6810311 30.4197698,60.8182127 26.6402128,60.1324268 C25.0606708,59.8453936 23.4673787,60.3025842 22.1542447,61.4180605 L20.6211093,62.7243194 C19.4214136,63.7452639 17.8057776,63.5699502 16.764208,62.3135354 L8.91977945,52.8294082 L8.91977945,52.8259707 C7.60836425,51.2395536 7.70977119,48.5806292 9.15696856,47.1884322 C12.4655849,43.994973 18.1185922,39.3095749 21.7933048,39.3095749 L22.2184037,39.3096314 C24.6820482,39.3117015 29.1773081,39.3442408 33.6849281,39.4783888 Z M32.6352537,9.2467672 C40.2292208,9.2467672 46.3853475,15.4028939 46.3853475,22.996861 L46.3870662,22.996861 C46.3870662,27.9096034 43.7661495,32.4491647 39.5115897,34.9055359 C35.25703,37.3619072 30.0151962,37.3619072 25.7606364,34.9055359 C21.5060767,32.4491647 18.8851599,27.9096034 18.8851599,22.996861 C18.8851599,15.4028939 25.0412866,9.2467672 32.6352537,9.2467672 Z M39.4537531,9.17279017 C41.375957,8.85234094 43.3461345,8.97878517 45.2116049,9.54232394 C51.0674261,11.316086 55.8387086,17.9642564 55.2663609,24.0538292 C54.5946518,31.1112133 48.6674207,36.5011016 41.5781426,36.5011016 C40.6964178,36.5011016 39.8353182,36.411726 39,36.2518811 C45.3594184,35.0435916 50.1719512,29.4627723 50.1719512,22.7510078 C50.1719512,16.2025256 45.5880137,10.7265508 39.4537531,9.34466635 C39.3592212,9.32404121 39.3575024,9.18825903 39.4537531,9.17279017 Z M37.1826087,16 C36.8904348,16.0342466 36.6286957,16.1255708 36.3973913,16.2739726 C36.223913,16.385274 36.0744022,16.5094178 35.9488587,16.6464041 L35.8313043,16.7876712 L32.7817391,21.5821918 L30.006087,16.8219178 C29.86,16.6278539 29.6713043,16.4480594 29.44,16.2825342 C29.2086957,16.1170091 28.9469565,16.0228311 28.6547826,16 C28.1556522,16.0570776 27.8147826,16.1855023 27.6321739,16.385274 C27.4495652,16.5850457 27.3278261,16.8447489 27.2669565,17.1643836 C27.2547826,17.4155251 27.3034783,17.6466895 27.4130435,17.8578767 C27.4952174,18.0162671 27.5808152,18.1537885 27.669837,18.2704409 L27.76,18.380137 L30.2069565,22.4212329 L27.5773913,22.4212329 C27.2486957,22.4440639 26.996087,22.5468037 26.8195652,22.7294521 C26.6430435,22.9121005 26.5365217,23.1461187 26.5,23.4315068 C26.5365217,23.7283105 26.6430435,23.9737443 26.8195652,24.1678082 C26.9666667,24.3295282 27.1666063,24.4317922 27.4193841,24.4746005 L27.5773913,24.4931507 L31.1017391,24.510274 L31.1017391,25.5890411 L27.5773913,25.5890411 C27.2486957,25.6118721 26.996087,25.7146119 26.8195652,25.8972603 C26.6430435,26.0799087 26.5365217,26.3139269 26.5,26.5993151 C26.5365217,26.8847032 26.6430435,27.1444064 26.8195652,27.3784247 C26.9708696,27.5790117 27.1780745,27.7020198 27.4411801,27.747449 L27.5773913,27.7636986 L31.1017391,27.7636986 L31.1017391,29.5445205 C31.126087,30.0353881 31.2873913,30.4006849 31.5856522,30.640411 C31.883913,30.880137 32.3008696,31 32.8365217,31 C33.8598068,31 34.4215915,30.5672494 34.521876,29.7017483 L34.5347826,29.5445205 L34.5347826,27.7294521 L38.0408696,27.7465753 C38.3573913,27.7237443 38.6069565,27.6124429 38.7895652,27.4126712 C38.9721739,27.2128995 39.0756522,26.9646119 39.1,26.6678082 C39.0756522,26.3824201 38.9721739,26.1369863 38.7895652,25.9315068 C38.6373913,25.760274 38.4387198,25.6524607 38.1935507,25.608067 L38.0408696,25.5890411 L34.5347826,25.5890411 L34.5347826,24.5445205 L38.0226087,24.5273973 C38.3391304,24.5045662 38.5917391,24.390411 38.7804348,24.1849315 C38.9691304,23.9794521 39.0756522,23.7283105 39.1,23.4315068 C39.0756522,23.1461187 38.9721739,22.9121005 38.7895652,22.7294521 C38.6373913,22.5772451 38.4387198,22.4805302 38.1935507,22.4393075 L38.0408696,22.4212329 L35.3565217,22.4212329 L38.1869565,18.1061644 C38.4304348,17.8093607 38.5521739,17.4954338 38.5521739,17.1643836 C38.5156522,16.9246575 38.4578261,16.7305936 38.3786957,16.5821918 C38.2995652,16.43379 38.2021739,16.3196347 38.0865217,16.239726 C37.9708696,16.1598174 37.8369565,16.1027397 37.6847826,16.0684932 C37.5326087,16.0342466 37.3652174,16.0114155 37.1826087,16 Z" id="形状结合" fill="url(#linearGradient-1)"></path>
    </g>
</svg>