<?xml version="1.0" encoding="UTF-8"?>
<svg width="72px" height="72px" viewBox="0 0 72 72" version="1.1" xmlns="http://www.w3.org/2000/svg" xmlns:xlink="http://www.w3.org/1999/xlink">
    <title>供应链控制塔</title>
    <defs>
        <linearGradient x1="50%" y1="-5.81532713%" x2="50%" y2="94.1846729%" id="linearGradient-1">
            <stop stop-color="#0077FF" offset="0%"></stop>
            <stop stop-color="#5B92FF" offset="100%"></stop>
        </linearGradient>
    </defs>
    <g id="供应链控制塔" stroke="none" stroke-width="1" fill="none" fill-rule="evenodd">
        <g id="编组" transform="translate(10.000000, 7.000000)" fill="url(#linearGradient-1)">
            <path d="M26,0 C40.3594035,0 52,11.6405965 52,26 C52,38.1395965 43.6802373,48.3360083 32.4315405,51.1984067 C30.3746405,51.7218155 26.0239193,57.5939441 26.0239193,57.5939441 C26,57.5939441 21.4218502,51.694903 19.2775211,51.1225659 C8.17660279,48.1596501 0,38.034699 0,26 C0,11.6405965 11.6405965,0 26,0 Z M29.9046201,10.1820993 L24.110158,10.1820993 C24.0357788,10.1879123 23.9620244,10.2000117 23.8896863,10.2182677 C23.1818034,10.3969178 22.7527732,11.115594 22.9314215,11.8234778 L22.9314215,11.8234778 L23.4601913,14.7647634 L22.358588,14.0927829 C22.2716116,14.0425719 22.1729631,14.0161098 22.0725342,14.0160497 C21.7561646,14.0158604 21.4995443,14.2721748 21.4993551,14.5885425 L21.4993551,14.5885425 L21.4993551,17.0120484 C21.4994195,17.1124777 21.5258862,17.2111248 21.5761006,17.2980988 C21.7342833,17.5720813 22.0846249,17.6659547 22.3586074,17.5077706 L22.3586074,17.5077706 L23.8898383,16.6264861 L24.5948631,20.140605 C24.6699783,20.5612721 24.9454116,20.9189274 25.332937,21.0990023 L25.332937,21.0990023 L20.3977395,41.3134697 C20.3737913,41.411706 20.3617949,41.5124756 20.3620081,41.6135889 C20.3634926,42.3071635 20.9269444,42.8682159 21.620519,42.8667369 L21.620519,42.8667369 L32.3942586,42.8667369 C32.4953719,42.8667369 32.5961411,42.8549096 32.6943778,42.8309614 C33.3682172,42.6666915 33.781307,41.9872699 33.6170376,41.3134291 L33.6170376,41.3134291 L28.68184,21.0549405 C29.0693644,20.8748656 29.3447991,20.5172103 29.4199138,20.0965432 L29.4199138,20.0965432 L30.1469729,16.6264882 L31.6671891,17.5077728 C31.7575707,17.5613674 31.8611709,17.5885413 31.9662219,17.5862076 C32.2764305,17.5793157 32.5223171,17.3222558 32.5154261,17.0120487 L32.5154261,17.0120487 L32.5154261,14.5885185 C32.5386385,14.4387988 32.5015916,14.2859805 32.4123943,14.1635117 C32.2261375,13.907782 31.8678385,13.8514609 31.6121087,14.0377158 L31.6121087,14.0377158 L30.5105053,14.6986769 L31.0833388,11.8234896 C31.1015953,11.7511524 31.1136953,11.6773999 31.1195093,11.6030217 C31.1764008,10.8751627 30.6324791,10.2389945 29.9046201,10.1820993 L29.9046201,10.1820993 Z M28.1090243,33.3157999 C28.8434297,33.3157999 29.2106277,33.6830016 29.2106277,34.4174033 L29.2106277,41.0270141 C29.2106277,41.7614195 28.8434259,42.1286175 28.1090243,42.1286175 L25.9058128,42.1286175 C25.1714074,42.1286175 24.8042094,41.7614157 24.8042094,41.0270141 L24.8042094,34.4174033 C24.8042094,33.6829978 25.1714112,33.3157999 25.9058128,33.3157999 L28.1090243,33.3157999 Z M13.2703683,11.3388304 C9.87670644,14.6019341 7.75941239,18.969325 7.29967958,23.6547664 L7.29967958,23.6547664 L20.9815968,15.7452487 Z M40.8325199,11.3608444 L33.2755081,15.7672632 L46.7481586,23.4784959 C46.2597131,18.8701436 44.1655841,14.5805044 40.8325199,11.3608444 L40.8325199,11.3608444 Z M29.2106277,14.5885423 L29.2106277,18.9949606 L28.1090195,18.9949606 C27.9901283,18.759243 27.7987617,18.5678764 27.5630436,18.4489847 C26.9546476,18.1421194 26.2126776,18.3865599 25.9058128,18.9949606 L25.9058128,18.9949606 L24.8042094,18.9949606 L24.8042094,14.5885423 L29.2106277,14.5885423 Z" id="形状结合"></path>
        </g>
    </g>
</svg>