<?xml version="1.0" encoding="UTF-8"?>
<svg width="72px" height="72px" viewBox="0 0 72 72" version="1.1" xmlns="http://www.w3.org/2000/svg" xmlns:xlink="http://www.w3.org/1999/xlink">
    <title>库存设置</title>
    <g id="库存设置" stroke="none" stroke-width="1" fill="none" fill-rule="evenodd">
        <g id="编组-2" transform="translate(9.000000, 9.000000)" fill="#60759C" fill-rule="nonzero">
            <path d="M18,0.5 L8,0.5 C3.85786438,0.5 0.5,3.85786438 0.5,8 L0.5,18 C0.5,22.1421356 3.85786438,25.5 8,25.5 L18,25.5 C22.1421356,25.5 25.5,22.1421356 25.5,18 L25.5,8 C25.5,3.85786438 22.1421356,0.5 18,0.5 Z M8,5.5 L18,5.5 C19.3807119,5.5 20.5,6.61928813 20.5,8 L20.5,18 C20.5,19.3807119 19.3807119,20.5 18,20.5 L8,20.5 C6.61928813,20.5 5.5,19.3807119 5.5,18 L5.5,8 C5.5,6.61928813 6.61928813,5.5 8,5.5 Z" id="Rectangle-5"></path>
            <path d="M46,0.5 L36,0.5 C31.8578644,0.5 28.5,3.85786438 28.5,8 L28.5,18 C28.5,22.1421356 31.8578644,25.5 36,25.5 L46,25.5 C50.1421356,25.5 53.5,22.1421356 53.5,18 L53.5,8 C53.5,3.85786438 50.1421356,0.5 46,0.5 Z M36,5.5 L46,5.5 C47.3807119,5.5 48.5,6.61928813 48.5,8 L48.5,18 C48.5,19.3807119 47.3807119,20.5 46,20.5 L36,20.5 C34.6192881,20.5 33.5,19.3807119 33.5,18 L33.5,8 C33.5,6.61928813 34.6192881,5.5 36,5.5 Z" id="Rectangle-5"></path>
            <path d="M18,28.5 L8,28.5 C3.85786438,28.5 0.5,31.8578644 0.5,36 L0.5,46 C0.5,50.1421356 3.85786438,53.5 8,53.5 L18,53.5 C22.1421356,53.5 25.5,50.1421356 25.5,46 L25.5,36 C25.5,31.8578644 22.1421356,28.5 18,28.5 Z M8,33.5 L18,33.5 C19.3807119,33.5 20.5,34.6192881 20.5,36 L20.5,46 C20.5,47.3807119 19.3807119,48.5 18,48.5 L8,48.5 C6.61928813,48.5 5.5,47.3807119 5.5,46 L5.5,36 C5.5,34.6192881 6.61928813,33.5 8,33.5 Z" id="Rectangle-5"></path>
        </g>
        <path d="M58.09,55.5497382 C58.895,54.1675393 60.275,53.4764398 61.655,53.5916231 C61.885,52.7853403 62,51.8638744 62,50.9424084 C62,50.1361256 61.885,49.3298429 61.77,48.6387435 C60.39,48.8691099 58.895,48.0628272 58.09,46.6806283 C57.285,45.2984293 57.4,43.5706806 58.32,42.5340314 C57.055,41.382199 55.675,40.5759162 54.065,40 C53.605,41.382199 52.225,42.3036649 50.5,42.3036649 C48.775,42.3036649 47.51,41.382199 46.935,40 C45.325,40.5759162 43.945,41.4973822 42.68,42.6492147 C43.6,43.8010471 43.715,45.4136126 42.91,46.7958115 C42.105,48.1780105 40.61,48.8691099 39.23,48.6387435 C39.115,49.4450262 39,50.2513089 39,51.0575916 C39,51.9790576 39.115,52.7853403 39.345,53.5916231 C40.725,53.4764398 42.105,54.1675393 42.91,55.5497382 C43.6,56.9319372 43.6,58.4293194 42.795,59.5811518 C44.06,60.7329843 45.44,61.539267 47.05,62 C47.625,60.7329843 48.89,59.9267016 50.5,59.9267016 C52.11,59.9267016 53.375,60.7329843 53.95,62 C55.56,61.539267 56.94,60.617801 58.205,59.5811518 C57.4,58.4293194 57.285,56.9319372 58.09,55.5497382 Z M50.5,56.0104712 C47.74,56.0104712 45.555,53.8219895 45.555,51.0575916 C45.555,48.2931937 47.74,46.104712 50.5,46.104712 C53.26,46.104712 55.445,48.2931937 55.445,51.0575916 C55.445,53.8219895 53.26,56.0104712 50.5,56.0104712 Z" id="形状" fill="#60759C" fill-rule="nonzero"></path>
    </g>
</svg>