<?xml version="1.0" encoding="UTF-8"?>
<svg width="72px" height="72px" viewBox="0 0 72 72" version="1.1" xmlns="http://www.w3.org/2000/svg" xmlns:xlink="http://www.w3.org/1999/xlink">
    <title>计量器具</title>
    <g id="计量器具" stroke="none" stroke-width="1" fill="none" fill-rule="evenodd">
        <g id="超计量设置" transform="translate(10.000000, 10.000000)" fill="#60759C" fill-rule="nonzero">
            <path d="M28.3970771,2.42537313 L28.3970771,49.3159204 C28.3970771,50.9328358 27.5886194,51.7412935 25.971704,51.7412935 L25.971704,51.7412935 C24.3547886,51.7412935 23.5463308,50.9328358 23.5463308,49.3159204 L23.5463308,2.42537313 C23.5463308,0.808457711 24.3547886,0 25.971704,0 L25.971704,0 C27.5886194,0 28.3970771,0.808457711 28.3970771,2.42537313 Z" id="路径"></path>
            <path d="M1.88490182,16.7319948 L48.8019856,4.16060008 C50.363806,3.74211158 51.3539604,4.31377752 51.7724489,5.87559789 L51.7724489,5.87559789 C52.1909374,7.43741827 51.6192715,8.42757271 50.0574512,8.84606121 L3.14036732,21.4174559 C1.57854695,21.8359444 0.588392508,21.2642785 0.169904007,19.7024581 L0.169904007,19.7024581 C-0.248584493,18.1406377 0.323081446,17.1504833 1.88490182,16.7319948 Z" id="路径"></path>
            <path d="M4.95180348,26.2263682 L11.6781716,26.2263682 C14.2142852,26.2263682 16.2702114,28.2822944 16.2702114,30.818408 L16.2702114,31.0771144 L0.101057214,31.0771144 C0.101057214,28.3981212 2.27281029,26.2263682 4.95180348,26.2263682 Z M40.5239428,16.5248756 L47.2503109,16.5248756 C49.7864245,16.5248756 51.8423507,18.5808019 51.8423507,21.1169154 L51.8423507,21.3756219 L35.6731965,21.3756219 C35.6731965,18.6966287 37.8449496,16.5248756 40.5239428,16.5248756 L40.5239428,16.5248756 Z" id="形状"></path>
            <path d="M10.6110075,14.0995025 L10.6110075,28.6517413 C10.6110075,30.2686567 9.80254975,31.0771144 8.18563433,31.0771144 L8.18563433,31.0771144 C6.56871891,31.0771144 5.76026119,30.2686567 5.76026119,28.6517413 L5.76026119,14.0995025 C5.76026119,12.4825871 6.56871891,11.6741294 8.18563433,11.6741294 L8.18563433,11.6741294 C9.80254975,11.6741294 10.6110075,12.4825871 10.6110075,14.0995025 Z" id="路径"></path>
            <path d="M46.1831468,4.39800995 L46.1831468,18.9502488 C46.1831468,20.5671642 45.3746891,21.3756219 43.7577736,21.3756219 L43.7577736,21.3756219 C42.1408582,21.3756219 41.3324005,20.5671642 41.3324005,18.9502488 L41.3324005,4.39800995 C41.3324005,2.78109453 42.1408582,1.97263682 43.7577736,1.97263682 L43.7577736,1.97263682 C45.3746891,1.97263682 46.1831468,2.78109453 46.1831468,4.39800995 Z" id="路径"></path>
            <path d="M14.653296,45.2736318 L37.2901119,45.2736318 C39.0761074,45.2736318 40.5239428,46.7214672 40.5239428,48.5074627 L40.5239428,51.7412935 L11.4194652,51.7412935 L11.4194652,48.5074627 C11.4194652,46.7214672 12.8673006,45.2736318 14.653296,45.2736318 Z" id="路径"></path>
        </g>
    </g>
</svg>