<?xml version="1.0" encoding="UTF-8"?>
<svg width="72px" height="72px" viewBox="0 0 72 72" version="1.1" xmlns="http://www.w3.org/2000/svg" xmlns:xlink="http://www.w3.org/1999/xlink">
    <title>包装设置</title>
    <g id="包装设置" stroke="none" stroke-width="1" fill="none" fill-rule="evenodd">
        <g id="编组" transform="translate(10.000000, 10.000000)" fill="#60759C" fill-rule="nonzero">
            <g id="编组-2">
                <path d="M49.7777212,52.0005092 C33.9259142,52.0005092 18.0741001,52.0005092 2.22227874,52.0005092 C1.60872975,52.0005092 1.05314695,51.7527284 0.650958396,51.3529778 C0.269945771,50.9742747 0.0266121354,50.4587377 0.0020535052,49.88701 L0,49.7912155 L0,14.6853372 C0.000947856166,14.3371789 0.085312703,13.9941299 0.244112598,13.6858656 L0.293976635,13.5944596 L7.4199807,1.11763004 C7.61782809,0.772093363 7.90137274,0.492706829 8.23545587,0.299691389 C8.54174658,0.122732933 8.89051922,0.0183742986 9.25467236,0.00221007107 L9.35434782,3.55271368e-15 L42.6465431,3.55271368e-15 C42.9131394,3.55271368e-15 46.0309584,4.89539978 52,14.6861993 C52,37.6829982 52,49.3846702 52,49.7912155 C52,50.4010335 51.7512216,50.9532357 51.3490416,51.3529778 C50.9468616,51.7527199 50.4493277,51.973549 49.8741017,51.9979589 M46.9210848,18.9140403 L5.08069712,18.9140403 L5.08069712,46.9501477 L46.9210848,46.9501477 L46.9210848,18.9140403 Z M23.9354197,5.05162358 L11.0165547,5.05162358 L5.97684679,13.8659591 L23.9354197,13.8659591 L23.9354197,5.05162358 Z M40.9834453,5.05162358 L29.0161168,5.05162358 L29.0161168,13.8659591 L46.0231532,13.8659591 L40.9834453,5.05162358 Z" id="形状"></path>
            </g>
            <path d="M31.94,36.0157068 C32.57,34.947644 33.65,34.4136126 34.73,34.5026178 C34.91,33.8795812 35,33.1675393 35,32.4554974 C35,31.8324607 34.91,31.2094241 34.82,30.6753927 C33.74,30.8534031 32.57,30.2303665 31.94,29.1623037 C31.31,28.0942408 31.4,26.7591623 32.12,25.9581152 C31.13,25.0680628 30.05,24.4450262 28.79,24 C28.43,25.0680628 27.35,25.7801047 26,25.7801047 C24.65,25.7801047 23.66,25.0680628 23.21,24 C21.95,24.4450262 20.87,25.1570681 19.88,26.0471204 C20.6,26.9371728 20.69,28.1832461 20.06,29.2513089 C19.43,30.3193717 18.26,30.8534031 17.18,30.6753927 C17.09,31.2984293 17,31.921466 17,32.5445026 C17,33.2565445 17.09,33.8795812 17.27,34.5026178 C18.35,34.4136126 19.43,34.947644 20.06,36.0157068 C20.6,37.0837696 20.6,38.2408377 19.97,39.1308901 C20.96,40.0209424 22.04,40.6439791 23.3,41 C23.75,40.0209424 24.74,39.3979058 26,39.3979058 C27.26,39.3979058 28.25,40.0209424 28.7,41 C29.96,40.6439791 31.04,39.9319372 32.03,39.1308901 C31.4,38.2408377 31.31,37.0837696 31.94,36.0157068 Z M26,36.3717278 C23.84,36.3717278 22.13,34.6806283 22.13,32.5445026 C22.13,30.408377 23.84,28.7172775 26,28.7172775 C28.16,28.7172775 29.87,30.408377 29.87,32.5445026 C29.87,34.6806283 28.16,36.3717278 26,36.3717278 Z" id="形状"></path>
        </g>
    </g>
</svg>