<?xml version="1.0" encoding="UTF-8"?>
<svg width="72px" height="72px" viewBox="0 0 72 72" version="1.1" xmlns="http://www.w3.org/2000/svg" xmlns:xlink="http://www.w3.org/1999/xlink">
    <title>质量设置</title>
    <g id="质量设置" stroke="none" stroke-width="1" fill="none" fill-rule="evenodd">
        <path d="M37.2250924,6.82074588 L36.1168533,6.1977367 L34.9605934,6.72631711 C30.1876556,8.90824981 26.4826821,10.375642 23.8833526,11.1226858 C21.606412,11.7770755 18.4408553,12.3771655 14.408471,12.9118644 C12.1714081,13.2085049 10.5,15.1161751 10.5,17.3728167 L10.5,41.757935 C10.5,46.8649711 12.7309128,51.7171902 16.6075661,55.0418511 C18.4034955,56.5820601 20.0507508,57.8343641 21.5573286,58.8002614 C24.0850261,60.4208191 27.8624681,62.2874856 32.9213261,64.4270154 L34.6455759,65.1464483 C35.5400279,65.5147771 36.5426399,65.4982108 37.4208367,65.1021591 L38.5554358,64.5865155 C43.3845042,62.3743606 47.0762613,60.4516529 49.6520525,58.8002614 C51.1719174,57.8258454 52.9177468,56.5523362 54.8973397,54.9769094 C59.0692717,51.6567485 61.5,46.6157597 61.5,41.2839207 L61.5,17.4596166 C61.5,15.1689545 59.7792582,13.2438631 57.5029819,12.9878299 L56.3466878,12.8525925 C52.3781142,12.3699864 49.2339399,11.7903218 46.9335258,11.1241002 C44.1270047,10.3113051 40.8856134,8.87854928 37.2250924,6.82074588 Z M35.89,11.794 L36.0848276,11.8996736 C39.5396516,13.7566344 42.6885688,15.1001831 45.5426339,15.9267473 L45.9176323,16.0329338 C48.4475553,16.7334862 51.6996248,17.3227167 55.6904406,17.8096288 L56.5,17.905 L56.5,41.2839207 C56.5,45.092377 54.7637658,48.6930827 51.7838144,51.0646262 C49.9280926,52.5414721 48.3153684,53.7178867 46.95344,54.5910464 L46.6771477,54.7663069 L46.0686146,55.1404848 C43.7558182,56.5348456 40.5468697,58.174957 36.4563852,60.0484037 L35.954,60.276 L34.887759,59.829888 C30.061627,57.7893226 26.5062242,56.0337482 24.255941,54.5910464 C22.9609112,53.7607767 21.4937811,52.6454106 19.8625473,51.2464464 L19.5895774,51.0053672 C16.9890459,48.6404283 15.5,45.2842215 15.5,41.7579346 L15.5,17.809 L16.3167995,17.6967782 C19.9923607,17.1745354 22.9696137,16.5876917 25.26444,15.9281616 L25.951465,15.7230941 C28.3031576,14.9964454 31.2715215,13.8388055 34.8739571,12.2474923 L35.89,11.794 Z" id="路径-4" fill="#60759C" fill-rule="nonzero"></path>
        <path d="M43.9642424,40.34198 C44.7639394,38.9782485 46.1348485,38.2963827 47.5057576,38.410027 C47.7342424,37.6145169 47.8484848,36.7053625 47.8484848,35.7962082 C47.8484848,35.0006981 47.7342424,34.205188 47.62,33.5233222 C46.2490909,33.7506108 44.7639394,32.9551008 43.9642424,31.5913692 C43.1645454,30.2276376 43.2787879,28.5229732 44.1927273,27.5001745 C42.9360606,26.3637316 41.5651515,25.5682215 39.9657576,25 C39.5087879,26.3637316 38.1378788,27.2728859 36.4242424,27.2728859 C34.7106061,27.2728859 33.4539394,26.3637316 32.8827273,25 C31.2833333,25.5682215 29.9124242,26.4773759 28.6557576,27.6138188 C29.569697,28.7502618 29.6839394,30.3412819 28.8842424,31.7050135 C28.0845455,33.068745 26.599394,33.7506108 25.2284849,33.5233222 C25.1142424,34.3188323 25,35.1143424 25,35.9098525 C25,36.8190068 25.1142424,37.6145169 25.3427273,38.410027 C26.7136364,38.2963827 28.0845455,38.9782485 28.8842424,40.34198 C29.569697,41.7057116 29.569697,43.1830874 28.77,44.3195304 C30.0266667,45.4559734 31.3975757,46.2514834 32.9969697,46.7060606 C33.5681818,45.4559734 34.8248485,44.6604633 36.4242424,44.6604633 C38.0236364,44.6604633 39.280303,45.4559734 39.8515151,46.7060606 C41.4509091,46.2514834 42.8218182,45.342329 44.0784849,44.3195304 C43.2787879,43.1830874 43.1645455,41.7057116 43.9642424,40.34198 Z M36.4242424,40.7965572 C33.6824242,40.7965572 31.5118182,38.6373156 31.5118182,35.9098525 C31.5118182,33.1823893 33.6824242,31.0231477 36.4242424,31.0231477 C39.1660606,31.0231477 41.3366667,33.1823893 41.3366667,35.9098525 C41.3366667,38.6373156 39.1660606,40.7965572 36.4242424,40.7965572 Z" id="形状" fill="#60759C" fill-rule="nonzero"></path>
    </g>
</svg>