<?xml version="1.0" encoding="UTF-8"?>
<svg width="72px" height="73px" viewBox="0 0 72 73" version="1.1" xmlns="http://www.w3.org/2000/svg" xmlns:xlink="http://www.w3.org/1999/xlink">
    <title>购销协同设置</title>
    <g id="购销协同设置" stroke="none" stroke-width="1" fill="none" fill-rule="evenodd" transform="translate(0.000000, 0.000000)">
        <g id="编组" transform="translate(12.000000, 14.000000)" fill-rule="nonzero">
            <path d="M14.5958127,-2.5 L5,-2.5 C0.857864376,-2.5 -2.5,0.857864376 -2.5,5 L-2.5,39 C-2.5,43.1421356 0.857864376,46.5 5,46.5 L43,46.5 C47.1421356,46.5 50.5,43.1421356 50.5,39 L50.5,18.2405797 L50.4956328,18.0193726 C50.3795391,15.0843597 47.9634791,12.7405797 45,12.7405797 L25.487,12.74 L19.5356872,0.581810707 C18.6124094,-1.30426021 16.6957425,-2.5 14.5958127,-2.5 Z M5,2.5 L14.5958127,2.5 C14.7867154,2.5 14.9609578,2.60870362 15.0448922,2.78016461 L22.3683809,17.7405797 L45,17.7405797 C45.2761424,17.7405797 45.5,17.9644373 45.5,18.2405797 L45.5,39 C45.5,40.3807119 44.3807119,41.5 43,41.5 L5,41.5 C3.61928813,41.5 2.5,40.3807119 2.5,39 L2.5,5 C2.5,3.61928813 3.61928813,2.5 5,2.5 Z" id="路径-13" fill="#60759C"></path>
            <g id="设置" transform="translate(5.000000, 17.000000)">
                <rect id="矩形" fill="#000000" opacity="0" x="0" y="0" width="24" height="24"></rect>
                <path d="M18.6,15.4293194 C19.3,14.2356021 20.5,13.6387435 21.7,13.7382199 C21.9,13.0418848 22,12.2460733 22,11.4502618 C22,10.7539267 21.9,10.0575916 21.8,9.46073299 C20.6,9.65968586 19.3,8.9633508 18.6,7.76963352 C17.9,6.57591624 18,5.08376964 18.8,4.18848168 C17.7,3.19371728 16.5,2.49738221 15.1,2 C14.7,3.19371728 13.5,3.98952879 12,3.98952879 C10.5,3.98952879 9.40000001,3.19371728 8.89999999,2 C7.5,2.49738219 6.3,3.29319373 5.20000001,4.28795811 C6,5.28272251 6.10000001,6.67539266 5.40000001,7.86910994 C4.7,9.06282722 3.40000001,9.65968586 2.20000002,9.46073299 C2.10000001,10.1570681 2,10.8534031 2,11.5497382 C2,12.3455497 2.10000001,13.0418848 2.3,13.7382199 C3.5,13.6387435 4.7,14.2356021 5.40000001,15.4293194 C6,16.6230367 6,17.9162304 5.3,18.9109948 C6.39999999,19.9057592 7.59999999,20.6020942 9,21 C9.5,19.9057592 10.6,19.2094241 12,19.2094241 C13.4,19.2094241 14.5,19.9057592 15,21 C16.4,20.6020942 17.6,19.8062827 18.7,18.9109948 C18,17.9162304 17.9,16.6230367 18.6,15.4293194 Z M12,15.8272251 C9.6,15.8272251 7.7,13.9371728 7.7,11.5497382 C7.7,9.16230367 9.6,7.2722513 12,7.2722513 C14.4,7.2722513 16.3,9.16230367 16.3,11.5497382 C16.3,13.9371728 14.4,15.8272251 12,15.8272251 Z" id="形状" fill="#60759C"></path>
            </g>
        </g>
        <path d="M50.2738662,15.1686771 C52.6881395,15.1686771 54.6583553,17.0699137 54.7689682,19.4568414 L54.7738662,19.6686771 L54.7738662,28.6686771 L49.7738662,28.6686771 L49.773,20.168 L31.2738662,20.1686771 L31.2738662,15.1686771 L50.2738662,15.1686771 Z" id="路径-14" fill="#60759C" fill-rule="nonzero"></path>
    </g>
</svg>