<?xml version="1.0" encoding="UTF-8"?>
<svg width="72px" height="72px" viewBox="0 0 72 72" version="1.1" xmlns="http://www.w3.org/2000/svg" xmlns:xlink="http://www.w3.org/1999/xlink">
    <title>计划调整</title>
    <g id="计划调整" stroke="none" stroke-width="1" fill="none" fill-rule="evenodd">
        <path d="M30,7.5 C31.3807119,7.5 32.5,8.61928813 32.5,10 C32.5,11.3254834 31.4684641,12.4100387 30.1643757,12.4946823 L30,12.5 L17.7037037,12.5 C14.9034679,12.5 12.6198335,14.7118335 12.5045651,17.4837358 L12.5,17.7037037 L12.5,54.2962963 C12.5,57.0965321 14.7118335,59.3801665 17.4837358,59.4954349 L17.7037037,59.5 L54.2962963,59.5 C57.0965321,59.5 59.3801665,57.2881665 59.4954349,54.5162642 L59.5,54.2962963 L59.5,41.6045476 C59.5,40.2238358 60.6192881,39.1045476 62,39.1045476 C63.3254834,39.1045476 64.4100387,40.1360836 64.4946823,41.440172 L64.5,41.6045476 L64.5,54.2962963 C64.5,59.8377237 60.0826557,64.3474252 54.5771584,64.4962092 L54.2962963,64.5 L17.7037037,64.5 C12.1622763,64.5 7.65257485,60.0826557 7.50379075,54.5771584 L7.5,54.2962963 L7.5,17.7037037 C7.5,12.1622763 11.9173443,7.65257485 17.4228416,7.50379075 L17.7037037,7.5 L30,7.5 Z" id="路径" fill="#60759C" fill-rule="nonzero" transform="translate(36.000000, 36.000000) scale(1, -1) translate(-36.000000, -36.000000) "></path>
        <path d="M33.5,40.0933449 C34.8807119,40.0933449 36,41.212633 36,42.5933449 C36,43.9740567 34.8807119,45.0933449 33.5,45.0933449 L22.5,45.0933449 C21.1192881,45.0933449 20,43.9740567 20,42.5933449 C20,41.212633 21.1192881,40.0933449 22.5,40.0933449 L33.5,40.0933449 Z" id="矩形" fill="#60759C" fill-rule="nonzero" transform="translate(28.000000, 42.593345) scale(1, -1) translate(-28.000000, -42.593345) "></path>
        <path d="M49.5,25.0933449 C50.8807119,25.0933449 52,26.212633 52,27.5933449 C52,28.9740567 50.8807119,30.0933449 49.5,30.0933449 L22.5,30.0933449 C21.1192881,30.0933449 20,28.9740567 20,27.5933449 C20,26.212633 21.1192881,25.0933449 22.5,25.0933449 L49.5,25.0933449 Z" id="矩形备份" fill="#60759C" fill-rule="nonzero" transform="translate(36.000000, 27.593345) scale(1, -1) translate(-36.000000, -27.593345) "></path>
        <g id="编组-3" transform="translate(38.000000, 40.000000)" fill="#60759C" fill-rule="nonzero">
            <g id="编组">
                <path d="M13.2951801,1.55414537 L13.3980469,1.7149542 C13.9788422,2.72092111 13.6341725,4.00724602 12.6282056,4.58804128 L10.0938678,6.05045768 L24.8182995,6.05087614 C25.97989,6.05087614 26.9215452,6.99253133 26.9215452,8.15412186 C26.9215452,9.3157124 25.97989,10.2573676 24.8182995,10.2573676 L2.8151135,10.2573676 C1.65352296,10.2573676 0.711867782,9.3157124 0.711867782,8.15412186 C0.711867782,7.83886682 0.781227904,7.53981171 0.905520499,7.27138417 C1.02059136,6.8950668 1.25523546,6.55206693 1.59975445,6.30544931 C1.64183252,6.27532849 1.68515498,6.24698513 1.72960769,6.2204939 L10.539679,0.970204772 C11.4769465,0.411647954 12.6764404,0.677462876 13.2951801,1.55414537 Z" id="形状结合"></path>
            </g>
            <g id="编组" transform="translate(13.583333, 20.321386) scale(-1, -1) translate(-13.583333, -20.321386) translate(0.083333, 14.821386)">
                <path d="M13.2951801,1.55414537 L13.3980469,1.7149542 C13.9788422,2.72092111 13.6341725,4.00724602 12.6282056,4.58804128 L10.0938678,6.05045768 L24.8182995,6.05087614 C25.97989,6.05087614 26.9215452,6.99253133 26.9215452,8.15412186 C26.9215452,9.3157124 25.97989,10.2573676 24.8182995,10.2573676 L2.8151135,10.2573676 C1.65352296,10.2573676 0.711867782,9.3157124 0.711867782,8.15412186 C0.711867782,7.83886682 0.781227904,7.53981171 0.905520499,7.27138417 C1.02059136,6.8950668 1.25523546,6.55206693 1.59975445,6.30544931 C1.64183252,6.27532849 1.68515498,6.24698513 1.72960769,6.2204939 L10.539679,0.970204772 C11.4769465,0.411647954 12.6764404,0.677462876 13.2951801,1.55414537 Z" id="形状结合"></path>
            </g>
        </g>
    </g>
</svg>