<?xml version="1.0" encoding="UTF-8"?>
<svg width="72px" height="72px" viewBox="0 0 72 72" version="1.1" xmlns="http://www.w3.org/2000/svg" xmlns:xlink="http://www.w3.org/1999/xlink">
    <title>计划监控</title>
    <g id="计划监控" stroke="none" stroke-width="1" fill="none" fill-rule="evenodd">
        <path d="M30,7.5 C31.3807119,7.5 32.5,8.61928813 32.5,10 C32.5,11.3254834 31.4684641,12.4100387 30.1643757,12.4946823 L30,12.5 L17.7037037,12.5 C14.9034679,12.5 12.6198335,14.7118335 12.5045651,17.4837358 L12.5,17.7037037 L12.5,54.2962963 C12.5,57.0965321 14.7118335,59.3801665 17.4837358,59.4954349 L17.7037037,59.5 L54.2962963,59.5 C57.0965321,59.5 59.3801665,57.2881665 59.4954349,54.5162642 L59.5,54.2962963 L59.5,41.6045476 C59.5,40.2238358 60.6192881,39.1045476 62,39.1045476 C63.3254834,39.1045476 64.4100387,40.1360836 64.4946823,41.440172 L64.5,41.6045476 L64.5,54.2962963 C64.5,59.8377237 60.0826557,64.3474252 54.5771584,64.4962092 L54.2962963,64.5 L17.7037037,64.5 C12.1622763,64.5 7.65257485,60.0826557 7.50379075,54.5771584 L7.5,54.2962963 L7.5,17.7037037 C7.5,12.1622763 11.9173443,7.65257485 17.4228416,7.50379075 L17.7037037,7.5 L30,7.5 Z" id="路径" fill="#60759C" fill-rule="nonzero" transform="translate(36.000000, 36.000000) scale(1, -1) translate(-36.000000, -36.000000) "></path>
        <path d="M33.5,40.0933449 C34.8807119,40.0933449 36,41.212633 36,42.5933449 C36,43.9740567 34.8807119,45.0933449 33.5,45.0933449 L22.5,45.0933449 C21.1192881,45.0933449 20,43.9740567 20,42.5933449 C20,41.212633 21.1192881,40.0933449 22.5,40.0933449 L33.5,40.0933449 Z" id="矩形" fill="#60759C" fill-rule="nonzero" transform="translate(28.000000, 42.593345) scale(1, -1) translate(-28.000000, -42.593345) "></path>
        <path d="M49.5,25.0933449 C50.8807119,25.0933449 52,26.212633 52,27.5933449 C52,28.9740567 50.8807119,30.0933449 49.5,30.0933449 L22.5,30.0933449 C21.1192881,30.0933449 20,28.9740567 20,27.5933449 C20,26.212633 21.1192881,25.0933449 22.5,25.0933449 L49.5,25.0933449 Z" id="矩形备份" fill="#60759C" fill-rule="nonzero" transform="translate(36.000000, 27.593345) scale(1, -1) translate(-36.000000, -27.593345) "></path>
        <g id="编组" transform="translate(43.000000, 39.000000)" fill="#60759C">
            <path d="M7.21647059,20.46 L10.8635294,20.46 C11.7894186,20.46 12.54,21.2105814 12.54,22.1364706 C12.54,23.0623597 11.7894186,23.8129412 10.8635294,23.8129412 L7.21647059,23.8129412 C6.29058145,23.8129412 5.54,23.0623597 5.54,22.1364706 C5.54,21.2105814 6.29058145,20.46 7.21647059,20.46 Z" id="矩形备份-4" transform="translate(9.040000, 22.136471) scale(1, -1) rotate(90.000000) translate(-9.040000, -22.136471) "></path>
            <path d="M13.7317647,23 C14.6596031,23 15.4117647,23.7521616 15.4117647,24.68 C15.4117647,25.6078384 14.6596031,26.36 13.7317647,26.36 L3.68,26.36 C2.75216162,26.36 2,25.6078384 2,24.68 C2,23.7521616 2.75216162,23 3.68,23 L13.7317647,23 Z" id="矩形备份-4" fill-rule="nonzero" transform="translate(8.705882, 24.680000) scale(1, -1) translate(-8.705882, -24.680000) "></path>
            <path d="M9,-2 C2.92486775,-2 -2,2.92486775 -2,9 C-2,15.0751322 2.92486775,20 9,20 C15.0751322,20 20,15.0751322 20,9 C20,2.92486775 15.0751322,-2 9,-2 Z M9,2 C12.8659932,2 16,5.13400675 16,9 C16,12.8659932 12.8659932,16 9,16 C5.13400675,16 2,12.8659932 2,9 C2,5.13400675 5.13400675,2 9,2 Z" id="椭圆形" fill-rule="nonzero"></path>
            <path d="M9,5.955 C7.3178004,5.955 5.955,7.32066945 5.955,9.00421053 C5.955,10.6877516 7.3178004,12.0534211 9,12.0534211 C10.6821996,12.0534211 12.045,10.6877516 12.045,9.00421053 C12.045,7.32066945 10.6821996,5.955 9,5.955 Z M9,8.045 C9.5269394,8.045 9.955,8.47396178 9.955,9.00421053 C9.955,9.53445927 9.5269394,9.96342105 9,9.96342105 C8.4730606,9.96342105 8.045,9.53445927 8.045,9.00421053 C8.045,8.47396178 8.4730606,8.045 9,8.045 Z" id="椭圆形" fill-rule="nonzero"></path>
        </g>
    </g>
</svg>