<?xml version="1.0" encoding="UTF-8"?>
<svg width="72px" height="72px" viewBox="0 0 72 72" version="1.1" xmlns="http://www.w3.org/2000/svg" xmlns:xlink="http://www.w3.org/1999/xlink">
    <title>采购统计报表</title>
    <g id="采购统计报表" stroke="none" stroke-width="1" fill="none" fill-rule="evenodd">
        <g id="编组-3" transform="translate(10.000000, 8.000000)">
            <g id="编组-2" fill="#60759C" fill-rule="nonzero">
                <path d="M34.32,0 C36.6785256,0 38.7314356,1.30849598 39.7923856,3.23914356 L44,3.24 C48.418278,3.24 52,6.821722 52,11.24 L52,47.24 C52,51.658278 48.418278,55.24 44,55.24 L8,55.24 C3.581722,55.24 0,51.658278 0,47.24 L0,11.24 C0,6.821722 3.581722,3.24 8,3.24 L13.2476144,3.23914356 C14.3085644,1.30849598 16.3614744,0 18.72,0 L34.32,0 Z M34.32,5 L18.72,5 C18.3060972,5 17.9313103,5.20147616 17.7008809,5.53222112 L17.6295621,5.64715812 L16.2054519,8.23866089 L8,8.24 C6.40231912,8.24 5.09633912,9.48891996 5.00509269,11.0637272 L5,11.24 L5,47.24 C5,48.8376809 6.24891996,50.1436609 7.82372721,50.2349073 L8,50.24 L44,50.24 C45.5976809,50.24 46.9036609,48.99108 46.9949073,47.4162728 L47,47.24 L47,11.24 C47,9.64231912 45.75108,8.33633912 44.1753603,8.2450926 L43.9989823,8.2399999 L36.8344826,8.23854159 L35.4104379,5.64715812 C35.2133873,5.28857822 34.8602856,5.05124406 34.4563745,5.00736303 L34.32,5 Z" id="形状结合"></path>
            </g>
            <g id="编组" transform="translate(13.500000, 19.000000)">
                <path d="M30,7 C31.6568542,7 33,8.34314575 33,10 C33,11.6568542 31.6568542,13 30,13 L16,13 C14.3431458,13 13,11.6568542 13,10 C13,8.34314575 14.3431458,7 16,7 L30,7 Z" id="矩形备份" fill="#60759C" fill-rule="nonzero" transform="translate(23.000000, 10.000000) rotate(-270.000000) translate(-23.000000, -10.000000) "></path>
                <path d="M16.5,10.5 C18.1568542,10.5 19.5,11.8431458 19.5,13.5 C19.5,15.1568542 18.1568542,16.5 16.5,16.5 L9.5,16.5 C7.84314575,16.5 6.5,15.1568542 6.5,13.5 C6.5,11.8431458 7.84314575,10.5 9.5,10.5 L16.5,10.5 Z" id="矩形备份-3" fill="#60759C" fill-rule="nonzero" transform="translate(13.000000, 13.500000) rotate(-270.000000) translate(-13.000000, -13.500000) "></path>
                <rect id="矩形备份-4" stroke="#60759C" stroke-width="4" fill="#D8D8D8" transform="translate(3.000000, 12.000000) rotate(-270.000000) translate(-3.000000, -12.000000) " x="-3" y="11" width="12" height="2" rx="1"></rect>
            </g>
        </g>
    </g>
</svg>