<?xml version="1.0" encoding="UTF-8"?>
<svg width="72px" height="72px" viewBox="0 0 72 72" version="1.1" xmlns="http://www.w3.org/2000/svg" xmlns:xlink="http://www.w3.org/1999/xlink">
    <title>需求汇总平衡</title>
    <g id="需求汇总平衡" stroke="none" stroke-width="1" fill="none" fill-rule="evenodd">
        <g id="编组-2" transform="translate(11.000000, 11.000000)" fill="#60759C">
            <g id="编组" transform="translate(10.185185, 13.888889)">
                <path d="M27.3148148,1.85185185 C28.5932517,1.85185185 29.6296296,2.88822975 29.6296296,4.16666667 C29.6296296,5.44510359 28.5932517,6.48148148 27.3148148,6.48148148 L2.31481481,6.48148148 C1.03637789,6.48148148 0,5.44510359 0,4.16666667 C0,2.88822975 1.03637789,1.85185185 2.31481481,1.85185185 L27.3148148,1.85185185 Z" id="矩形" fill-rule="nonzero"></path>
                <circle id="椭圆形" cx="22.6851852" cy="4.16666667" r="4.16666667"></circle>
                <path d="M27.3148148,16.6666667 C28.5932517,16.6666667 29.6296296,17.7030446 29.6296296,18.9814815 C29.6296296,20.2599184 28.5932517,21.2962963 27.3148148,21.2962963 L2.31481481,21.2962963 C1.03637789,21.2962963 0,20.2599184 0,18.9814815 C0,17.7030446 1.03637789,16.6666667 2.31481481,16.6666667 L27.3148148,16.6666667 Z" id="矩形备份" fill-rule="nonzero"></path>
                <circle id="椭圆形备份" cx="7.87037037" cy="18.9814815" r="4.16666667"></circle>
            </g>
            <path d="M42,-2.5 L8,-2.5 C2.20101013,-2.5 -2.5,2.20101013 -2.5,8 L-2.5,42 C-2.5,47.7989899 2.20101013,52.5 8,52.5 L42,52.5 C47.7989899,52.5 52.5,47.7989899 52.5,42 L52.5,8 C52.5,2.20101013 47.7989899,-2.5 42,-2.5 Z M8,2.5 L42,2.5 C45.0375661,2.5 47.5,4.96243388 47.5,8 L47.5,42 C47.5,45.0375661 45.0375661,47.5 42,47.5 L8,47.5 C4.96243388,47.5 2.5,45.0375661 2.5,42 L2.5,8 C2.5,4.96243388 4.96243388,2.5 8,2.5 Z" id="Rectangle-5" fill-rule="nonzero"></path>
        </g>
    </g>
</svg>