<?xml version="1.0" encoding="UTF-8"?>
<svg width="72px" height="72px" viewBox="0 0 72 72" version="1.1" xmlns="http://www.w3.org/2000/svg" xmlns:xlink="http://www.w3.org/1999/xlink">
    <title>采购订单状态维护</title>
    <g id="采购订单状态维护" stroke="none" stroke-width="1" fill="none" fill-rule="evenodd">
        <g id="编组-3" transform="translate(9.491525, 10.000000)" fill="#60759C" fill-rule="nonzero">
            <g id="编组" transform="translate(0.000000, 1.000000)">
                <g id="编组-2" transform="translate(0.508475, 0.000000)">
                    <path d="M27.2986002,-1.75423729 C28.6793121,-1.75423729 29.7986002,-0.634949163 29.7986002,0.745762712 C29.7986002,2.07124611 28.7670643,3.15580138 27.4629759,3.24044503 L27.2986002,3.24576271 L7.31198996,3.24576271 C4.72622801,3.24576271 2.61682168,5.28528358 2.50468851,7.84340778 L2.5,8.05775267 L2.5,42.789705 C2.5,45.3754669 4.53952087,47.4848732 7.09764507,47.5970064 L7.31198996,47.6016949 L42.0439422,47.6016949 C44.6297042,47.6016949 46.7391105,45.562174 46.8512437,43.0040498 L46.8559322,42.789705 L46.8559322,23.8079505 C46.8559322,22.4272386 47.9752203,21.3079505 49.3559322,21.3079505 C50.6814156,21.3079505 51.7659709,22.3394864 51.8506145,23.6435748 L51.8559322,23.8079505 L51.8559322,42.789705 C51.8559322,48.1168697 47.6106072,52.4524857 42.3185846,52.5979253 L42.0439422,52.6016949 L7.31198996,52.6016949 C1.98482521,52.6016949 -2.35079075,48.3563699 -2.49623043,43.0643473 L-2.5,42.789705 L-2.5,8.05775267 C-2.5,2.73058792 1.74532503,-1.60502804 7.0373476,-1.75046772 L7.31198996,-1.75423729 L27.2986002,-1.75423729 Z" id="路径"></path>
                </g>
                <path d="M19.8135593,16.7927574 C21.1240655,16.7927574 22.1864407,17.8551326 22.1864407,19.1656388 C22.1864407,20.4761449 21.1240655,21.5385201 19.8135593,21.5385201 L12.3728814,21.5385201 C11.0623752,21.5385201 10,20.4761449 10,19.1656388 C10,17.8551326 11.0623752,16.7927574 12.3728814,16.7927574 L19.8135593,16.7927574 Z" id="矩形"></path>
                <path d="M38,31.0300455 C39.3105062,31.0300455 40.3728814,32.0924207 40.3728814,33.4029269 C40.3728814,34.7134331 39.3105062,35.7758083 38,35.7758083 L12.3728814,35.7758083 C11.0623752,35.7758083 10,34.7134331 10,33.4029269 C10,32.0924207 11.0623752,31.0300455 12.3728814,31.0300455 L38,31.0300455 Z" id="矩形备份"></path>
            </g>
            <path d="M37.5216042,0.0642048171 C39.2187922,0.28005445 40.8601361,1.03967018 42.1635589,2.34337463 C44.1207641,4.30102761 44.8517801,7.0207993 44.3562363,9.54768505 L44.3357604,9.64865534 L51.2522402,16.6831087 C52.0804743,17.5115501 52.4990739,18.5945508 52.5083365,19.6803573 C52.5170343,20.7680026 52.1148924,21.858364 51.3018125,22.6984246 C50.438425,23.5625464 49.335824,23.9905124 48.2395754,23.9998701 C47.1905808,24.0082618 46.146381,23.6333405 45.3247061,22.8800358 L45.2548269,22.8145403 L38.250651,15.8101422 C35.6696007,16.38417 32.8593919,15.6666677 30.851255,13.6581033 C29.5614908,12.3680276 28.8043786,10.7469748 28.5795929,9.06834141 C28.3597974,7.42697268 28.649471,5.73056069 29.4486027,4.23325294 L29.5051826,4.12911585 L29.5626019,4.02709128 L29.9907226,3.29034245 L34.604996,7.90553162 C34.8544952,8.1551092 35.1815164,8.27990016 35.508544,8.27990016 C35.8355843,8.27990016 36.1626266,8.15510057 36.4121559,7.90551419 C36.6589852,7.65862849 36.7837514,7.33587639 36.7864272,7.01229873 C36.7887875,6.726882 36.6962419,6.44076889 36.5085649,6.20558245 L36.469761,6.15923948 L31.8269786,1.51122634 C33.5066535,0.296397159 35.5517249,-0.186325892 37.5216042,0.0642048171 Z M37.3580378,2.96187561 L38.5631613,4.17031135 L38.6282365,4.24211224 C39.3332408,5.03816943 39.6811068,6.03830275 39.6729364,7.03572994 C39.6642934,8.09085835 39.2572676,9.14291687 38.453335,9.94703333 C37.6489589,10.7515935 36.5974019,11.1582212 35.5431779,11.1669457 C34.5209936,11.175405 33.4938363,10.8128428 32.5731836,9.95620236 L32.5731836,9.95620236 L31.4841413,8.9528728 L31.5036978,9.05085823 C31.7019974,9.99639472 32.1685276,10.8924993 32.8924625,11.6165817 C34.1664203,12.8908583 35.9867094,13.3806338 37.8379414,12.9393668 L37.8379414,12.9393668 L39.1202779,12.5968335 L47.2713738,20.7481003 L47.3193606,20.7903395 C47.5791577,21.0087856 47.8995769,21.1179635 48.2199755,21.1179635 C48.5786754,21.1179635 48.9373756,20.9810868 49.2110567,20.707343 C49.4817676,20.4365593 49.6185962,20.0825637 49.6216224,19.7276649 C49.6243563,19.3858765 49.4993553,19.045946 49.2052255,18.7187908 L49.2052255,18.7187908 L41.1024799,10.6141915 L41.4677037,9.2432711 L41.4884842,9.15669247 C41.882084,7.45224848 41.3864813,5.6492845 40.1223798,4.38489376 C39.3507938,3.61313129 38.3838157,3.13439109 37.3580378,2.96187561 L37.3580378,2.96187561 Z" id="形状备份" transform="translate(40.508475, 12.000000) scale(-1, 1) translate(-40.508475, -12.000000) "></path>
        </g>
    </g>
</svg>