<?xml version="1.0" encoding="UTF-8"?>
<svg width="72px" height="72px" viewBox="0 0 72 72" version="1.1" xmlns="http://www.w3.org/2000/svg" xmlns:xlink="http://www.w3.org/1999/xlink">
    <title>采购到货</title>
    <g id="采购到货" stroke="none" stroke-width="1" fill="none" fill-rule="evenodd">
        <g id="编组" transform="translate(10.000000, 12.000000)" fill="#60759C" fill-rule="nonzero">
            <g id="编组-19">
                <path d="M51.7058403,22.5574028 L46.4307832,8.05068598 C46.1270236,7.21526131 45.3330559,6.65913747 44.4441216,6.65915587 L38.630907,6.65915587 L38.630907,4.80935595 C38.630907,2.18669017 36.4974752,0.0532583841 33.8748095,0.0532583841 L4.80997523,0.0532583841 C2.18730945,0.0532583841 0.0538776677,2.18669017 0.0538776677,4.80935595 L0.0538776677,37.8382241 C0.0538776677,40.4608899 2.18730945,42.5943216 4.80997523,42.5943216 L5.64662729,42.5943216 C6.55821265,45.6467702 9.39143483,47.8786681 12.7368045,47.8786681 C16.0821742,47.8786681 18.9153963,45.6467702 19.8269817,42.5943216 L32.0695979,42.5943216 C32.9811833,45.6467702 35.8144055,47.8786681 39.1597752,47.8786681 C42.5051448,47.8786681 45.338367,45.6467702 46.2499524,42.5943216 L47.0866044,42.5943216 C49.7092702,42.5943216 51.842702,40.4608899 51.842702,37.8382241 L51.842702,23.3054973 C51.8420827,23.0423018 51.7937786,22.7902534 51.7058403,22.5574028 Z M42.9634146,10.8870046 L46.7106993,21.1918826 L38.630907,21.1918826 L38.630907,10.8870046 L42.9634146,10.8870046 Z M12.7368045,43.6514386 C10.9885671,43.6514386 9.56607279,42.2289444 9.56607279,40.4807069 C9.56607279,40.42621 9.56731136,40.371713 9.57040777,40.3178354 C9.65524962,38.6451505 11.043064,37.3099752 12.7368045,37.3099752 C14.430545,37.3099752 15.8183594,38.6445312 15.9032012,40.3178354 C15.9056784,40.371713 15.9075362,40.42621 15.9075362,40.4807069 C15.9075362,42.2289444 14.4850419,43.6514386 12.7368045,43.6514386 Z M39.1591559,43.6514386 C37.4109184,43.6514386 35.9884242,42.2289444 35.9884242,40.4807069 C35.9884242,40.42621 35.9896627,40.371713 35.9927591,40.3178354 C36.077601,38.6451505 37.4654154,37.3099752 39.1591559,37.3099752 C40.8528963,37.3099752 42.2407107,38.6445312 42.3255526,40.3178354 C42.3280297,40.371713 42.3298876,40.42621 42.3298876,40.4807069 C42.3298876,42.2289444 40.9080126,43.6514386 39.1591559,43.6514386 Z M47.6148533,37.8382241 C47.6148533,38.1299066 47.3776677,38.3664729 47.0866044,38.3664729 L46.2505716,38.3664729 C46.2480945,38.3584223 46.2449981,38.3503716 46.242521,38.3417016 C46.2171303,38.257479 46.1905011,38.1738758 46.1620141,38.0915111 C46.1582984,38.0816025 46.155202,38.071694 46.1514863,38.0617854 C46.1242378,37.9831364 46.0957508,37.9051067 46.0654059,37.8276963 C46.0610709,37.8165492 46.0567359,37.8047828 46.0524009,37.7936357 C46.0208175,37.7125095 45.9873761,37.6320027 45.9526963,37.5521151 C45.9458841,37.536633 45.9396913,37.5217702 45.9328792,37.5069074 C45.89758,37.4264005 45.860423,37.3458937 45.8220274,37.2666254 C45.8201696,37.2622904 45.8176925,37.2579554 45.8152153,37.2536204 C45.7780583,37.1768293 45.7390434,37.1006574 45.69879,37.0251048 C45.6919779,37.0127191 45.6857851,37.0003335 45.6795922,36.9885671 C45.6387195,36.9123952 45.5966082,36.8368426 45.5526391,36.7625286 C45.5452077,36.7495236 45.537157,36.7365187 45.5297256,36.7235137 C45.4393102,36.5705507 45.3433213,36.4213034 45.242378,36.2757717 L45.2163681,36.2386147 C45.1668255,36.1680164 45.1160442,36.0986566 45.0640244,36.0299162 L45.0398723,35.9983327 C44.9878525,35.9302115 44.9352134,35.8633289 44.8807165,35.7970655 L44.8726658,35.787157 C44.8169303,35.7196551 44.7599562,35.6527725 44.7017435,35.5871284 C44.6912157,35.575362 44.6813072,35.5635957 44.6707793,35.5518293 C44.613186,35.4874238 44.554354,35.4236376 44.4949028,35.3617092 C44.4874714,35.3536585 44.48004,35.3462271 44.4726086,35.3387957 C44.414396,35.2787252 44.355564,35.2198933 44.2954935,35.1622999 C44.2893007,35.1561071 44.2824886,35.1499143 44.2762957,35.1431021 C44.2137481,35.0830316 44.1499619,35.0241997 44.0855564,34.9666063 C44.07379,34.9560785 44.0620236,34.9455507 44.049638,34.9350229 C43.9846132,34.8774295 43.9183498,34.8204554 43.8508479,34.7653392 C43.8452744,34.7610042 43.8397008,34.7566692 43.8341273,34.7517149 C43.7691025,34.6984566 43.7034585,34.647056 43.6365758,34.5962748 C43.6266673,34.5888434 43.6167588,34.5807927 43.6068502,34.5733613 C43.5381098,34.5213415 43.46875,34.4711795 43.3981517,34.4216368 C43.3851467,34.4123476 43.3721418,34.4036776 43.3591368,34.3943883 C43.2866806,34.3442264 43.2136052,34.2946837 43.1392912,34.2469989 C43.1380526,34.2463796 43.136814,34.245141 43.1349562,34.2445217 C43.0618807,34.1974562 42.9869474,34.1522485 42.9120141,34.1076601 C42.8990091,34.1002287 42.8860042,34.092178 42.8729992,34.0847466 C42.785662,34.0336462 42.6970775,33.9847079 42.6073266,33.9379764 C42.5305354,33.8971037 42.453125,33.8580888 42.3750953,33.8196932 C42.3726181,33.8184546 42.3707603,33.8172161 42.3682832,33.8165968 C42.2890149,33.7782012 42.208508,33.7416635 42.1273819,33.705745 L42.0809356,33.6853087 C42.0016673,33.6512481 41.9217797,33.6178068 41.8412729,33.5868426 L41.802258,33.5719798 C41.7248476,33.5422542 41.6468178,33.5137671 41.5681688,33.4865187 C41.5594989,33.4834223 41.5514482,33.4803258 41.5427782,33.4778487 C41.4597942,33.4493617 41.3761909,33.4227325 41.2919684,33.3973418 C41.2746284,33.3923876 41.2579078,33.386814 41.2405678,33.3818598 C41.1563453,33.3570884 41.0721227,33.3335556 40.9866616,33.3118807 C40.9755145,33.3087843 40.9643674,33.3063072 40.9532203,33.30383 C40.8727134,33.284013 40.7922066,33.2648152 40.7104611,33.2474752 C40.6974562,33.2443788 40.6844512,33.2419017 40.670827,33.2388053 C40.5847466,33.220846 40.4980469,33.2047447 40.4107279,33.1898819 L40.3562309,33.1805926 C40.2676734,33.1663491 40.1784966,33.1527248 40.0893197,33.1415777 C40.0818883,33.1409585 40.0750762,33.1397199 40.0676448,33.1391006 C39.9821837,33.1285728 39.8961033,33.1199028 39.8100229,33.1124714 C39.7939215,33.1112329 39.7772008,33.109375 39.7610995,33.1081364 C39.6719226,33.100705 39.5827458,33.0951315 39.4929497,33.0914158 L39.4384527,33.0895579 C39.3455602,33.0858422 39.2520484,33.0839844 39.1585366,33.0839844 C39.0650248,33.0839844 38.971513,33.0864615 38.8786204,33.0895579 L38.8241235,33.0914158 C38.7343274,33.0951315 38.6451505,33.100705 38.5559737,33.1081364 C38.539253,33.109375 38.5231517,33.1112329 38.5070503,33.1124714 C38.4209699,33.1199028 38.3348895,33.1285728 38.2494284,33.1391006 C38.241997,33.1397199 38.2351848,33.1409585 38.2277534,33.1415777 C38.1379573,33.1527248 38.0493998,33.1663491 37.9608422,33.1805926 L37.9063453,33.1898819 C37.8190263,33.2047447 37.7323266,33.220846 37.6462462,33.2388053 C37.6332412,33.2412824 37.6202363,33.2443788 37.606612,33.2474752 C37.5254859,33.2648152 37.4443598,33.2833937 37.3638529,33.30383 C37.3527058,33.3069264 37.3415587,33.3094036 37.3304116,33.3118807 C37.2280085,33.3380516 37.1262133,33.366546 37.0251048,33.3973418 C36.9408822,33.4227325 36.857279,33.4493617 36.774295,33.4778487 C36.765625,33.4809451 36.7575743,33.4840415 36.7489043,33.4865187 C36.6702553,33.5137671 36.5916063,33.5422542 36.5141959,33.5719798 L36.475181,33.5868426 C36.3946742,33.6184261 36.3147866,33.6512481 36.2355183,33.6853087 C36.2200362,33.6921208 36.2051734,33.6989329 36.1896913,33.705745 C36.1085652,33.7416635 36.0280583,33.7782012 35.94879,33.8165968 C35.9469322,33.8178354 35.944455,33.8184546 35.9425972,33.8196932 C35.8643776,33.8575117 35.7869505,33.8969479 35.7103659,33.9379764 C35.6967416,33.9447885 35.6837367,33.9522199 35.6701124,33.959032 C35.5939405,33.9999047 35.5190072,34.042016 35.4446932,34.0853659 C35.4316883,34.0927973 35.4193026,34.1008479 35.4062976,34.1082793 C35.3297114,34.1533627 35.2539402,34.1998164 35.1790206,34.2476181 C35.1047066,34.295303 35.0310118,34.3448457 34.9585556,34.3950076 C34.9455507,34.4036776 34.933165,34.4129668 34.9201601,34.4216368 C34.8495617,34.4711795 34.7795827,34.5219607 34.7108422,34.5739806 C34.7009337,34.581412 34.6910252,34.5888434 34.6811166,34.5968941 C34.614234,34.6476753 34.5485899,34.6996951 34.4835652,34.7529535 C34.4779916,34.7572885 34.4730373,34.7616235 34.4674638,34.7659585 C34.3999619,34.8210747 34.3336986,34.8780488 34.2686738,34.9356421 L34.2333746,34.9672256 C34.1683498,35.024819 34.1045636,35.0836509 34.042016,35.1443407 C34.0358232,35.1505335 34.0296303,35.1567264 34.0228182,35.1629192 C33.9627477,35.2211319 33.9032965,35.2805831 33.8450838,35.3406536 C33.8376524,35.348085 33.830221,35.3555164 33.8234089,35.3629478 C33.7633384,35.4254954 33.7045065,35.4892816 33.6469131,35.5536871 C33.6363853,35.5654535 33.6264768,35.5766006 33.6165682,35.588367 C33.5583556,35.6540111 33.5007622,35.7208937 33.4450267,35.7890149 C33.4425495,35.7921113 33.4400724,35.7952077 33.4375953,35.7976848 C33.3830983,35.8639482 33.3298399,35.9320694 33.2778201,36.0001905 C33.2697694,36.0107184 33.2617187,36.0206269 33.2542873,36.0311547 C33.2022675,36.0998952 33.1514863,36.1698742 33.1019436,36.2404726 C33.0932736,36.2522389 33.0852229,36.2646246 33.076553,36.2770103 C32.9756098,36.4225419 32.8796208,36.5724085 32.7885861,36.7253716 C32.7811547,36.7383765 32.773104,36.7507622 32.7656726,36.7637671 C32.7223228,36.8387005 32.6795922,36.914253 32.6387195,36.9904249 C32.6325267,37.0021913 32.6263338,37.014577 32.6195217,37.0263434 C32.5792683,37.101896 32.5402534,37.1786871 32.5024771,37.2560976 C32.5006193,37.2604325 32.4981421,37.2641482 32.4962843,37.2684832 C32.4578887,37.3477515 32.421351,37.4282584 32.3854325,37.5093845 C32.3786204,37.5242473 32.3724276,37.5391101 32.3656155,37.5545922 C32.3309356,37.6344798 32.2974943,37.7149867 32.2659108,37.7967321 C32.2615758,37.8078792 32.2578601,37.8190263 32.2535252,37.8295541 C32.2237995,37.9075838 32.1946932,37.9856136 32.1674447,38.0648819 C32.163729,38.0747904 32.1606326,38.0846989 32.1569169,38.0939882 C32.1284299,38.1769722 32.1018007,38.2605755 32.0764101,38.344798 C32.0739329,38.3528487 32.0708365,38.3608994 32.0683594,38.3689501 L19.827601,38.3689501 C19.8251239,38.3596608 19.8214082,38.3509909 19.818931,38.3417016 C19.7941597,38.2593369 19.7675305,38.1769722 19.7396627,38.0952268 C19.7353277,38.0834604 19.7309928,38.0710747 19.7272771,38.0593083 C19.7006479,37.9831364 19.6733994,37.9075838 19.6442931,37.8326505 L19.6294303,37.7936357 C19.5978468,37.7137481 19.5650248,37.6344798 19.5309642,37.5558308 C19.5235328,37.5391101 19.5167207,37.5223895 19.5092893,37.5062881 C19.4739901,37.4270198 19.4380716,37.3477515 19.4002954,37.2697218 L19.3910061,37.2511433 C19.3544684,37.17621 19.3166921,37.1025152 19.2776772,37.0294398 C19.2702458,37.0158155 19.2634337,37.0021913 19.2560023,36.9885671 C19.2157489,36.9136338 19.1736376,36.8393197 19.130907,36.765625 C19.1228563,36.7513815 19.1141864,36.737138 19.1055164,36.7228944 C19.0160092,36.5714594 18.9209888,36.4233515 18.820646,36.2788681 C18.8113567,36.2652439 18.8020675,36.2522389 18.7927782,36.2386147 C18.7438548,36.1686357 18.6936928,36.0998952 18.6422923,36.031774 C18.6336223,36.0200076 18.6249524,36.0088605 18.6156631,35.9970941 C18.5648819,35.9302115 18.512862,35.8645675 18.4596037,35.7995427 C18.455888,35.7952077 18.4527915,35.7908727 18.4490758,35.7865377 C18.3939596,35.7196551 18.3369855,35.6533918 18.2793921,35.588367 C18.268245,35.5759813 18.2577172,35.5635957 18.2465701,35.55121 C18.189596,35.4874238 18.1313834,35.4242569 18.0719322,35.3623285 C18.0638815,35.3536585 18.0558308,35.3456079 18.0477801,35.3375572 C17.990806,35.2787252 17.9325934,35.2205126 17.8731421,35.1635385 C17.8657107,35.1567264 17.8588986,35.1499143 17.8520865,35.1424829 C17.7901582,35.0830316 17.726372,35.024819 17.6619665,34.9672256 C17.6495808,34.9560785 17.6371951,34.9455507 17.6248095,34.9344036 C17.5541702,34.8717049 17.4823198,34.8103843 17.4092988,34.7504764 C17.3448933,34.6978373 17.2798685,34.647056 17.2142245,34.5962748 C17.2036966,34.5882241 17.1937881,34.5801734 17.1832603,34.5721227 C17.1151391,34.5207222 17.0451601,34.4699409 16.975181,34.4210175 C16.9621761,34.4117283 16.9485518,34.402439 16.9355469,34.3931498 C16.8630907,34.3429878 16.7906345,34.2940644 16.7163205,34.2463796 C16.7144627,34.245141 16.7126048,34.2445217 16.7113662,34.2432832 C16.6382908,34.1968369 16.564596,34.1516292 16.4896627,34.1076601 C16.4766578,34.0996094 16.4636528,34.092178 16.4500286,34.0841273 C16.3757146,34.0407774 16.3007812,33.9992854 16.2252287,33.9584127 C16.2116044,33.9509813 16.1979802,33.9441692 16.1843559,33.9367378 C16.1081841,33.8964844 16.0307736,33.8568502 15.9527439,33.8190739 L15.9453125,33.8153582 C15.8660442,33.7769627 15.7855373,33.7404249 15.7050305,33.7051258 L15.6585842,33.6846894 C15.5793159,33.6506288 15.4994284,33.6178068 15.4189215,33.5862233 C15.4059165,33.5812691 15.3922923,33.5763148 15.3792873,33.5713605 C15.3018769,33.5416349 15.2238472,33.5131479 15.1451982,33.4858994 C15.1365282,33.482803 15.1278582,33.4797066 15.1198075,33.4766101 C15.0368236,33.4481231 14.9532203,33.4221132 14.8689977,33.3967226 C14.8516578,33.3917683 14.8343178,33.3861947 14.8175972,33.3812405 C14.7333746,33.3564691 14.6491521,33.3329364 14.5643102,33.3112614 C14.5531631,33.308165 14.542016,33.3056879 14.5308689,33.3032107 C14.450362,33.2833937 14.3698552,33.2641959 14.288729,33.2468559 C14.2757241,33.2437595 14.2627191,33.2412824 14.2490949,33.238186 C14.1630145,33.2202268 14.0763148,33.2041254 13.9896151,33.1892626 L13.9351181,33.1799733 C13.8465606,33.1657298 13.7573838,33.1521056 13.6682069,33.1409585 C13.6607755,33.1403392 13.6539634,33.1391006 13.646532,33.1384813 C13.5610709,33.1279535 13.4749905,33.1192835 13.3889101,33.1118521 C13.3728087,33.1106136 13.356088,33.1087557 13.3399867,33.1075171 C13.2508098,33.1000857 13.161633,33.0945122 13.0718369,33.0907965 L13.0173399,33.0889386 C12.9244474,33.0852229 12.8309356,33.0833651 12.7374238,33.0833651 C12.643912,33.0833651 12.5504002,33.0858422 12.4575076,33.0889386 L12.4030107,33.0907965 C12.3132146,33.0945122 12.2240377,33.1000857 12.1348609,33.1075171 C12.1181402,33.1087557 12.1020389,33.1106136 12.0859375,33.1118521 C11.9998571,33.1192835 11.9137767,33.1279535 11.8283155,33.1384813 C11.8208841,33.1391006 11.814072,33.1403392 11.8066406,33.1409585 C11.7168445,33.1521056 11.628287,33.1657298 11.5397294,33.1799733 C11.5217702,33.1830697 11.503811,33.1861662 11.4852325,33.1892626 C11.3979135,33.2041254 11.3112138,33.2202268 11.2251334,33.238186 C11.2121284,33.2406631 11.1991235,33.2437595 11.1861185,33.2468559 C11.1049924,33.2641959 11.0238662,33.2827744 10.9433594,33.3032107 C10.9322123,33.3056879 10.9210652,33.3087843 10.9099181,33.3112614 C10.807515,33.3374323 10.7057198,33.3659267 10.6046113,33.3967226 C10.5203887,33.4221132 10.4367854,33.4487424 10.3538014,33.4772294 C10.3451315,33.4803258 10.3370808,33.4834223 10.3290301,33.4858994 C10.2503811,33.5131479 10.1717321,33.5416349 10.0943216,33.5713605 L10.0553068,33.5862233 C9.97479992,33.6178068 9.89491235,33.6506288 9.81564405,33.6846894 C9.80016197,33.6915015 9.78529916,33.6983136 9.76981707,33.7045065 C9.68869093,33.7404249 9.60818407,33.7769627 9.52891578,33.8153582 C9.52705793,33.8165968 9.52458079,33.8172161 9.52272294,33.8184546 C9.44469322,33.8562309 9.36728277,33.8958651 9.29049162,33.9367378 C9.27686738,33.9435499 9.26386242,33.9509813 9.25023819,33.9577934 C9.17406631,33.9986662 9.099133,34.0407774 9.02481898,34.0841273 C9.01181402,34.0915587 8.99880907,34.0996094 8.9864234,34.1070408 C8.91149009,34.1516292 8.83717607,34.1968369 8.76348133,34.2439024 C8.76224276,34.2445217 8.76038491,34.2457603 8.75914634,34.2463796 C8.68483232,34.2940644 8.61175686,34.3429878 8.53930069,34.3931498 C8.52629573,34.402439 8.51329078,34.411109 8.50028582,34.4203982 C8.4296875,34.4699409 8.36032774,34.5201029 8.29158727,34.5721227 C8.28167873,34.5795541 8.27115091,34.5876048 8.26124238,34.5956555 C8.19497904,34.6464367 8.12933498,34.6978373 8.0649295,34.7504764 C8.05935595,34.7554306 8.05316311,34.7597656 8.04758956,34.7647199 C7.98070694,34.8198361 7.9144436,34.8761909 7.84941883,34.9337843 C7.83703316,34.9443121 7.82526677,34.9554592 7.8128811,34.965987 C7.74847561,35.0235804 7.68468941,35.0817931 7.62276105,35.1418636 C7.61594893,35.1486757 7.60913681,35.1554878 7.6023247,35.1616806 C7.54287348,35.219274 7.48466082,35.2774867 7.42706745,35.3369379 C7.41901677,35.3449886 7.41158537,35.3530393 7.40353468,35.3610899 C7.34408346,35.4230183 7.28587081,35.4861852 7.22827744,35.5505907 C7.21774962,35.5623571 7.20660252,35.5747428 7.1960747,35.5871284 C7.13848133,35.6527725 7.08150724,35.7184165 7.02577172,35.7859184 C7.0226753,35.7896341 7.01957889,35.7939691 7.01586319,35.7976848 C6.9626048,35.8627096 6.9099657,35.9289729 6.85918445,35.9964748 L6.83317454,36.0299162 C6.78177401,36.0980373 6.73161204,36.1673971 6.68206936,36.2373761 C6.67278011,36.2503811 6.66411014,36.2633861 6.65482088,36.2770103 C6.55449695,36.4213034 6.45912729,36.5699314 6.36933117,36.7216559 C6.36128049,36.7358994 6.35261052,36.7495236 6.34455983,36.7637671 C6.30120998,36.8374619 6.25971799,36.9117759 6.21884527,36.9873285 C6.21141387,37.0009527 6.20460175,37.0139577 6.19778963,37.0275819 C6.15877477,37.1012767 6.12099848,37.1755907 6.08446075,37.250524 C6.08136433,37.2567168 6.07826791,37.2622904 6.07579078,37.2684832 C6.03801448,37.346513 6.00147675,37.4257812 5.96679687,37.5056688 C5.95936547,37.5223895 5.95255335,37.5384909 5.94512195,37.5552115 C5.91106136,37.6338605 5.87823933,37.7131288 5.84665587,37.7936357 C5.8417016,37.8066406 5.83674733,37.8196456 5.83179306,37.8320312 C5.80268674,37.9069646 5.77481898,37.9831364 5.74880907,38.0593083 C5.74447409,38.0710747 5.7401391,38.0828411 5.7364234,38.0946075 C5.70855564,38.1763529 5.68254573,38.2580983 5.65715511,38.3410823 C5.65467797,38.3503716 5.65096227,38.3590415 5.64848514,38.3677115 L4.81245236,38.3677115 C4.52076982,38.3677115 4.28420351,38.1305259 4.28420351,37.8394627 L4.28420351,4.80997523 C4.28420351,4.51829268 4.5213891,4.28172637 4.81245236,4.28172637 L33.8748095,4.28172637 C34.166492,4.28172637 34.4030583,4.51891197 34.4030583,4.80997523 L34.4030583,23.3061166 C34.4030583,24.4734661 35.3493236,25.4197313 36.516673,25.4197313 L47.614234,25.4197313 L47.614234,37.8382241 L47.6148533,37.8382241 Z" id="形状结合"></path>
            </g>
            <g id="编组-23" transform="translate(11.000000, 10.000000)">
                <path d="M9,-1.5 C3.20101013,-1.5 -1.5,3.20101013 -1.5,9 C-1.5,14.7989899 3.20101013,19.5 9,19.5 C14.7989899,19.5 19.5,14.7989899 19.5,9 C19.5,3.20101013 14.7989899,-1.5 9,-1.5 Z M9,1.5 C13.1421356,1.5 16.5,4.85786438 16.5,9 C16.5,13.1421356 13.1421356,16.5 9,16.5 C4.85786438,16.5 1.5,13.1421356 1.5,9 C1.5,4.85786438 4.85786438,1.5 9,1.5 Z" id="椭圆形"></path>
                <path d="M8.25,4.5 C9.02969612,4.5 9.67044868,5.09488808 9.74313342,5.85553999 L9.75,6 L9.75,8.874 L12,8.875 C12.7796961,8.875 13.4204487,9.46988808 13.4931334,10.23054 L13.5,10.375 C13.5,11.1546961 12.9051119,11.7954487 12.14446,11.8681334 L12,11.875 L9,11.875 C7.80913601,11.875 6.83435508,10.9498384 6.75519081,9.77904881 L6.75,9.625 L6.75,6 C6.75,5.17157288 7.42157288,4.5 8.25,4.5 Z" id="路径-9"></path>
            </g>
        </g>
    </g>
</svg>