<?xml version="1.0" encoding="UTF-8"?>
<svg width="72px" height="72px" viewBox="0 0 72 72" version="1.1" xmlns="http://www.w3.org/2000/svg" xmlns:xlink="http://www.w3.org/1999/xlink">
    <title>请购单安排</title>
    <g id="请购单安排" stroke="none" stroke-width="1" fill="none" fill-rule="evenodd">
        <path d="M31,8.5 C32.3807119,8.5 33.5,9.61928813 33.5,11 C33.5,12.3254834 32.4684641,13.4100387 31.1643757,13.4946823 L31,13.5 L18.8148148,13.5 C16.5018968,13.5 14.6140261,15.3198437 14.5049757,17.6057581 L14.5,17.8148148 L14.5,50.1851852 C14.5,52.4981032 16.3198437,54.3859739 18.6057581,54.4950243 L18.8148148,54.5 L51.1851852,54.5 C53.4981032,54.5 55.3859739,52.6801563 55.4950243,50.3942419 L55.5,50.1851852 L55.5,39.2307692 C55.5,37.8500574 56.6192881,36.7307692 58,36.7307692 C59.3254834,36.7307692 60.4100387,37.7623052 60.4946823,39.0663935 L60.5,39.2307692 L60.5,50.1851852 C60.5,55.2393622 56.4746611,59.3533709 51.455028,59.4961665 L51.1851852,59.5 L18.8148148,59.5 C13.7606378,59.5 9.64662908,55.4746611 9.50383351,50.455028 L9.5,50.1851852 L9.5,17.8148148 C9.5,12.7606378 13.5253389,8.64662908 18.544972,8.50383351 L18.8148148,8.5 L31,8.5 Z" id="路径" fill="#60759C" fill-rule="nonzero" transform="translate(35.000000, 34.000000) scale(1, -1) translate(-35.000000, -34.000000) "></path>
        <path d="M48.5,22 C49.8807119,22 51,23.1192881 51,24.5 C51,25.8807119 49.8807119,27 48.5,27 L23.5,27 C22.1192881,27 21,25.8807119 21,24.5 C21,23.1192881 22.1192881,22 23.5,22 L48.5,22 Z" id="矩形" fill="#60759C" fill-rule="nonzero"></path>
        <path d="M36.5,35 C37.8807119,35 39,36.1192881 39,37.5 C39,38.8807119 37.8807119,40 36.5,40 L23.5,40 C22.1192881,40 21,38.8807119 21,37.5 C21,36.1192881 22.1192881,35 23.5,35 L36.5,35 Z" id="矩形备份" fill="#60759C" fill-rule="nonzero"></path>
        <path d="M53.5,34 C46.0441559,34 40,40.0441559 40,47.5 C40,54.9558441 46.0441559,61 53.5,61 C60.9558441,61 67,54.9558441 67,47.5 C67,40.0441559 60.9558441,34 53.5,34 Z M53.5,38 C58.7467051,38 63,42.2532949 63,47.5 C63,52.7467051 58.7467051,57 53.5,57 C48.2532949,57 44,52.7467051 44,47.5 C44,42.2532949 48.2532949,38 53.5,38 Z" id="椭圆形" fill="#60759C" fill-rule="nonzero"></path>
        <path d="M56.8682693,44.0559787 C57.3926547,43.414643 58.3376584,43.319836 58.9789941,43.8442214 C59.5802463,44.3358327 59.701151,45.197128 59.2818352,45.8313139 L59.1907513,45.9549462 L54.9031032,51.1974563 C54.0403491,52.197383 52.5584891,52.3472237 51.5163958,51.5690002 L51.3771175,51.457119 L47.9837617,48.5292729 C47.3565349,47.9880908 47.2867819,47.0409082 47.827964,46.4136815 C48.3353222,45.8256564 49.1995168,45.7275985 49.8223782,46.1635585 L49.9435554,46.2578838 L52.948,48.85 L56.8682693,44.0559787 Z" id="路径-2" fill="#60759C" fill-rule="nonzero"></path>
    </g>
</svg>