<?xml version="1.0" encoding="UTF-8"?>
<svg width="72px" height="72px" viewBox="0 0 72 72" version="1.1" xmlns="http://www.w3.org/2000/svg" xmlns:xlink="http://www.w3.org/1999/xlink">
    <title>供应商价目表</title>
    <g id="供应商价目表" stroke="none" stroke-width="1" fill="none" fill-rule="evenodd">
        <g id="编组-3" transform="translate(10.000000, 8.000000)" fill="#60759C" fill-rule="nonzero">
            <g id="编组-2">
                <path d="M34.32,0 C36.6785256,0 38.7314356,1.30849598 39.7923856,3.23914356 L44,3.24 C48.418278,3.24 52,6.821722 52,11.24 L52,47.24 C52,51.658278 48.418278,55.24 44,55.24 L8,55.24 C3.581722,55.24 0,51.658278 0,47.24 L0,11.24 C0,6.821722 3.581722,3.24 8,3.24 L13.2476144,3.23914356 C14.3085644,1.30849598 16.3614744,0 18.72,0 L34.32,0 Z M34.32,5 L18.72,5 C18.3060972,5 17.9313103,5.20147616 17.7008809,5.53222112 L17.6295621,5.64715812 L16.2054519,8.23866089 L8,8.24 C6.40231912,8.24 5.09633912,9.48891996 5.00509269,11.0637272 L5,11.24 L5,47.24 C5,48.8376809 6.24891996,50.1436609 7.82372721,50.2349073 L8,50.24 L44,50.24 C45.5976809,50.24 46.9036609,48.99108 46.9949073,47.4162728 L47,47.24 L47,11.24 C47,9.64231912 45.75108,8.33633912 44.1753603,8.2450926 L43.9989823,8.2399999 L36.8344826,8.23854159 L35.4104379,5.64715812 C35.2133873,5.28857822 34.8602856,5.05124406 34.4563745,5.00736303 L34.32,5 Z" id="形状结合"></path>
            </g>
            <path d="M35.3460654,33.5666551 C35.6177657,33.9088144 35.7734699,34.3175354 35.8079554,34.7928155 C35.7734704,35.286816 35.6177652,35.699696 35.3460654,36.0304169 C35.073319,36.3632173 34.7023436,36.547297 34.2279141,36.5868176 L28.9945398,36.5587375 L28.9945398,39.5789051 C28.9234797,41.1929865 28.0770282,42.0000284 26.4593659,42.0000284 C25.6599399,42.0000284 25.0381642,41.8024282 24.5929927,41.4020277 C24.1457316,41.0037068 23.9053813,40.3963471 23.8708958,39.5789051 L23.8708958,36.6149017 L18.6082584,36.6149017 C18.1191974,36.5774616 17.7409074,36.3632214 17.4786111,35.9742599 L17.4786111,35.9742598 C17.2155162,35.5874967 17.051227,35.1426854 17,34.6784173 C17.0553851,34.2041757 17.2142252,33.8152163 17.4786111,33.5104954 C17.7398614,33.2068156 18.1191973,33.0352154 18.6082584,32.9967359 L23.8708958,32.9967359 L23.8708958,30.1616915 L18.6082584,30.1336115 C18.1191973,30.0951315 17.7409074,29.9152113 17.4786111,29.5928109 C17.2142252,29.268331 17.0553856,28.85961 17,28.3656094 C17.0553851,27.8913679 17.2142252,27.5024084 17.4786111,27.1976876 C17.7398614,26.8940077 18.1191973,26.723446 18.6082584,26.6849665 L22.5343351,26.6849665 L18.8810149,19.9624098 L18.881015,19.9624098 C18.6746711,19.6937666 18.5007095,19.4019594 18.3626933,19.0929678 L18.3626933,19.0929677 C18.1977525,18.7312448 18.1231785,18.335181 18.145333,17.9385663 C18.2352031,17.4060862 18.4180793,16.9744857 18.6887336,16.6416853 C18.9625235,16.3099259 19.4724846,16.0956847 20.2165249,16.0010436 C20.6522899,16.0384836 21.0441654,16.1965638 21.3890158,16.4721646 C21.7338662,16.7467239 22.0160165,17.0462448 22.2354667,17.3686451 L26.3778403,25.2903262 L30.9298718,17.312481 C31.147232,16.9900806 31.4304263,16.7040803 31.7763227,16.4576005 C32.1211732,16.2080005 32.5109591,16.0572001 32.9467241,16 C33.2205139,16.01872 33.4692247,16.0572001 33.6970355,16.1133601 C33.9217108,16.1716002 34.1233965,16.2662403 34.2968652,16.4004015 C34.4682454,16.5324816 34.6145445,16.7228019 34.7326302,16.9692816 C34.8507153,17.2157619 34.9353604,17.5392028 34.990745,17.9385623 C34.990745,18.4897629 34.8099597,19.011843 34.4462983,19.5058436 L30.2213655,26.686016 L34.2289554,26.686016 C34.7012954,26.723456 35.0743604,26.8950562 35.3450172,27.1987371 C35.6167175,27.503458 35.7724217,27.8924174 35.8089967,28.366659 C35.7724217,28.8617006 35.6135815,29.2797805 35.3324752,29.6209014 C35.0503248,29.9620223 34.6741244,30.1513021 34.2007383,30.1908226 L28.9934891,30.2189026 L28.9934891,32.9967418 L34.2268634,32.9967418 C34.7012929,33.0352219 35.0722683,33.2255421 35.3450147,33.566663 L35.3460654,33.5666551 Z" id="路径"></path>
        </g>
    </g>
</svg>