<?xml version="1.0" encoding="UTF-8"?>
<svg width="72px" height="72px" viewBox="0 0 72 72" version="1.1" xmlns="http://www.w3.org/2000/svg" xmlns:xlink="http://www.w3.org/1999/xlink">
    <title>优质优价</title>
    <g id="优质优价" stroke="none" stroke-width="1" fill="none" fill-rule="evenodd">
        <g id="编组" transform="translate(10.000000, 8.000000)" fill="#60759C" fill-rule="nonzero">
            <g id="编组-2">
                <path d="M34.32,0 C36.6785256,0 38.7314356,1.30849598 39.7923856,3.23914356 L44,3.24 C48.418278,3.24 52,6.821722 52,11.24 L52,47.24 C52,51.658278 48.418278,55.24 44,55.24 L8,55.24 C3.581722,55.24 0,51.658278 0,47.24 L0,11.24 C0,6.821722 3.581722,3.24 8,3.24 L13.2476144,3.23914356 C14.3085644,1.30849598 16.3614744,0 18.72,0 L34.32,0 Z M34.32,5 L18.72,5 C18.3060972,5 17.9313103,5.20147616 17.7008809,5.53222112 L17.6295621,5.64715812 L16.2054519,8.23866089 L8,8.24 C6.40231912,8.24 5.09633912,9.48891996 5.00509269,11.0637272 L5,11.24 L5,47.24 C5,48.8376809 6.24891996,50.1436609 7.82372721,50.2349073 L8,50.24 L44,50.24 C45.5976809,50.24 46.9036609,48.99108 46.9949073,47.4162728 L47,47.24 L47,11.24 C47,9.64231912 45.75108,8.33633912 44.1753603,8.2450926 L43.9989823,8.2399999 L36.8344826,8.23854159 L35.4104379,5.64715812 C35.2133873,5.28857822 34.8602856,5.05124406 34.4563745,5.00736303 L34.32,5 Z" id="形状结合"></path>
            </g>
            <path d="M27.2151629,20.446508 L38.5644859,31.9683964 C39.1708054,32.583935 39.3133038,33.5192356 38.9178004,34.2874075 L34.8715706,42.1462542 C34.5286967,42.812206 33.8424483,43.2307464 33.0934127,43.2307464 L18.4872262,43.2307464 C17.7381907,43.2307464 17.0519423,42.812206 16.7090684,42.1462542 L12.6628385,34.2874075 C12.2673352,33.5192356 12.4098336,32.583935 13.0161531,31.9683964 L24.3654761,20.446508 C25.099813,19.7010055 26.2749699,19.6531935 27.0657301,20.3092982 L27.2151629,20.446508 Z M25.79,24.7 L16.882,33.743 L19.706,39.23 L31.874,39.23 L34.698,33.744 L25.79,24.7 Z" id="多边形" transform="translate(25.790319, 31.540379) rotate(-180.000000) translate(-25.790319, -31.540379) "></path>
        </g>
    </g>
</svg>