<?xml version="1.0" encoding="UTF-8"?>
<svg width="72px" height="72px" viewBox="0 0 72 72" version="1.1" xmlns="http://www.w3.org/2000/svg" xmlns:xlink="http://www.w3.org/1999/xlink">
    <title>材料核销</title>
    <g id="材料核销" stroke="none" stroke-width="1" fill="none" fill-rule="evenodd">
        <g id="编组-3" transform="translate(10.000000, 10.000000)" fill="#60759C" fill-rule="nonzero">
            <g id="编组-2">
                <path d="M49.7777212,52.0005092 C33.9259142,52.0005092 18.0741001,52.0005092 2.22227874,52.0005092 C1.60872975,52.0005092 1.05314695,51.7527284 0.650958396,51.3529778 C0.269945771,50.9742747 0.0266121354,50.4587377 0.0020535052,49.88701 L0,49.7912155 L0,14.6853372 C0.000947856166,14.3371789 0.085312703,13.9941299 0.244112598,13.6858656 L0.293976635,13.5944596 L7.4199807,1.11763004 C7.61782809,0.772093363 7.90137274,0.492706829 8.23545587,0.299691389 C8.54174658,0.122732933 8.89051922,0.0183742986 9.25467236,0.00221007107 L9.35434782,3.55271368e-15 L42.6465431,3.55271368e-15 C42.9131394,3.55271368e-15 46.0309584,4.89539978 52,14.6861993 C52,37.6829982 52,49.3846702 52,49.7912155 C52,50.4010335 51.7512216,50.9532357 51.3490416,51.3529778 C50.9468616,51.7527199 50.4493277,51.973549 49.8741017,51.9979589 M46.9210848,18.9140403 L5.08069712,18.9140403 L5.08069712,46.9501477 L46.9210848,46.9501477 L46.9210848,18.9140403 Z M23.9354197,5.05162358 L11.0165547,5.05162358 L5.97684679,13.8659591 L23.9354197,13.8659591 L23.9354197,5.05162358 Z M40.9834453,5.05162358 L29.0161168,5.05162358 L29.0161168,13.8659591 L46.0231532,13.8659591 L40.9834453,5.05162358 Z" id="形状"></path>
                <g id="编组" transform="translate(17.000000, 24.000000)">
                    <path d="M9,-1.56521739 C3.16499156,-1.56521739 -1.56521739,3.16499156 -1.56521739,9 C-1.56521739,14.8350084 3.16499156,19.5652174 9,19.5652174 C14.8350084,19.5652174 19.5652174,14.8350084 19.5652174,9 C19.5652174,3.16499156 14.8350084,-1.56521739 9,-1.56521739 Z M9,1.56521739 C13.1061171,1.56521739 16.4347826,4.89388295 16.4347826,9 C16.4347826,13.1061171 13.1061171,16.4347826 9,16.4347826 C4.89388295,16.4347826 1.56521739,13.1061171 1.56521739,9 C1.56521739,4.89388295 4.89388295,1.56521739 9,1.56521739 Z" id="椭圆形"></path>
                    <path d="M11.6360369,6.30467897 C12.0464254,5.80276408 12.7859935,5.72856734 13.2879084,6.1389559 C13.7563623,6.52198523 13.8522262,7.19176648 13.5292649,7.68744369 L13.4536315,7.79082742 L10.0980808,11.8936614 C9.42934313,12.6687243 8.28531655,12.7911742 7.4711209,12.20172 L7.33861367,12.0968757 L4.68294391,9.80551792 C4.19207078,9.3819841 4.13748149,8.6407108 4.56101532,8.14983768 C4.95631356,7.69168943 5.62839818,7.61359287 6.11535061,7.9495649 L6.21669557,8.02790909 L8.567,10.056 L11.6360369,6.30467897 Z" id="路径-2"></path>
                </g>
            </g>
        </g>
    </g>
</svg>