<?xml version="1.0" encoding="UTF-8"?>
<svg width="72px" height="72px" viewBox="0 0 72 72" version="1.1" xmlns="http://www.w3.org/2000/svg" xmlns:xlink="http://www.w3.org/1999/xlink">
    <title>委外订单</title>
    <g id="委外订单" stroke="none" stroke-width="1" fill="none" fill-rule="evenodd">
        <g id="编组-2" transform="translate(10.000000, 11.000000)" fill="#60759C" fill-rule="nonzero">
            <path d="M34.2986002,-1.75423729 C35.6793121,-1.75423729 36.7986002,-0.634949163 36.7986002,0.745762712 C36.7986002,2.07124611 35.7670643,3.15580138 34.4629759,3.24044503 L34.2986002,3.24576271 L7.31198996,3.24576271 C4.72622801,3.24576271 2.61682168,5.28528358 2.50468851,7.84340778 L2.5,8.05775267 L2.5,42.789705 C2.5,45.3754669 4.53952087,47.4848732 7.09764507,47.5970064 L7.31198996,47.6016949 L42.0439422,47.6016949 C44.6297042,47.6016949 46.7391105,45.562174 46.8512437,43.0040498 L46.8559322,42.789705 L46.8559322,17.8079505 C46.8559322,16.4272386 47.9752203,15.3079505 49.3559322,15.3079505 C50.6814156,15.3079505 51.7659709,16.3394864 51.8506145,17.6435748 L51.8559322,17.8079505 L51.8559322,42.789705 C51.8559322,48.1168697 47.6106072,52.4524857 42.3185846,52.5979253 L42.0439422,52.6016949 L7.31198996,52.6016949 C1.98482521,52.6016949 -2.35079075,48.3563699 -2.49623043,43.0643473 L-2.5,42.789705 L-2.5,8.05775267 C-2.5,2.73058792 1.74532503,-1.60502804 7.0373476,-1.75046772 L7.31198996,-1.75423729 L34.2986002,-1.75423729 Z" id="路径"></path>
            <path d="M22.3050847,16.7927574 C23.6155909,16.7927574 24.6779661,17.8551326 24.6779661,19.1656388 C24.6779661,20.4761449 23.6155909,21.5385201 22.3050847,21.5385201 L11.8644068,21.5385201 C10.5539006,21.5385201 9.49152542,20.4761449 9.49152542,19.1656388 C9.49152542,17.8551326 10.5539006,16.7927574 11.8644068,16.7927574 L22.3050847,16.7927574 Z" id="矩形"></path>
            <path d="M37.4915254,31.0300455 C38.8020316,31.0300455 39.8644068,32.0924207 39.8644068,33.4029269 C39.8644068,34.7134331 38.8020316,35.7758083 37.4915254,35.7758083 L11.8644068,35.7758083 C10.5539006,35.7758083 9.49152542,34.7134331 9.49152542,33.4029269 C9.49152542,32.0924207 10.5539006,31.0300455 11.8644068,31.0300455 L37.4915254,31.0300455 Z" id="矩形备份"></path>
            <path d="M51.1149883,8.68249463 C52.4254945,8.68249463 53.4878696,9.7448698 53.4878696,11.055376 C53.4878696,12.3658822 52.4254945,13.4282573 51.1149883,13.4282573 L31.860751,13.4282573 C30.5502448,13.4282573 29.4878696,12.3658822 29.4878696,11.055376 C29.4878696,9.7448698 30.5502448,8.68249463 31.860751,8.68249463 L51.1149883,8.68249463 Z" id="矩形备份-2" transform="translate(41.487870, 11.055376) scale(-1, 1) rotate(47.000000) translate(-41.487870, -11.055376) "></path>
        </g>
    </g>
</svg>