<?xml version="1.0" encoding="UTF-8"?>
<svg width="72px" height="72px" viewBox="0 0 72 72" version="1.1" xmlns="http://www.w3.org/2000/svg" xmlns:xlink="http://www.w3.org/1999/xlink">
    <title>计划定义与执行</title>
    <g id="计划定义与执行" stroke="none" stroke-width="1" fill="none" fill-rule="evenodd">
        <path d="M27.8020247,8.5 C29.1827366,8.5 30.3020247,9.61928813 30.3020247,11 C30.3020247,12.3254834 29.2704888,13.4100387 27.9664004,13.4946823 L27.8020247,13.5 L18.8148148,13.5 C16.5018968,13.5 14.6140261,15.3198437 14.5049757,17.6057581 L14.5,17.8148148 L14.5,50.1851852 C14.5,52.4981032 16.3198437,54.3859739 18.6057581,54.4950243 L18.8148148,54.5 L51.1851852,54.5 C53.4981032,54.5 55.3859739,52.6801563 55.4950243,50.3942419 L55.5,50.1851852 L55.5,43.5 C55.5,42.1192881 56.6192881,41 58,41 C59.3254834,41 60.4100387,42.0315359 60.4946823,43.3356243 L60.5,43.5 L60.5,50.1851852 C60.5,55.2393622 56.4746611,59.3533709 51.455028,59.4961665 L51.1851852,59.5 L18.8148148,59.5 C13.7606378,59.5 9.64662908,55.4746611 9.50383351,50.455028 L9.5,50.1851852 L9.5,17.8148148 C9.5,12.7606378 13.5253389,8.64662908 18.544972,8.50383351 L18.8148148,8.5 L27.8020247,8.5 Z" id="路径" fill="#60759C" fill-rule="nonzero" transform="translate(35.000000, 34.000000) scale(1, -1) translate(-35.000000, -34.000000) "></path>
        <path d="M47.5,20 C48.8807119,20 50,21.1192881 50,22.5 C50,23.8807119 48.8807119,25 47.5,25 L43.5,25 C42.1192881,25 41,23.8807119 41,22.5 C41,21.1192881 42.1192881,20 43.5,20 L47.5,20 Z" id="矩形备份" fill="#60759C" fill-rule="nonzero"></path>
        <g id="编组" transform="translate(38.000000, 35.000000)" fill="#60759C" fill-rule="nonzero">
            <path d="M12,-2 C4.2680135,-2 -2,4.2680135 -2,12 C-2,19.7319865 4.2680135,26 12,26 C19.7319865,26 26,19.7319865 26,12 C26,4.2680135 19.7319865,-2 12,-2 Z M12,2 C17.5228475,2 22,6.4771525 22,12 C22,17.5228475 17.5228475,22 12,22 C6.4771525,22 2,17.5228475 2,12 C2,6.4771525 6.4771525,2 12,2 Z" id="椭圆形"></path>
            <path d="M11,6 C12.0543618,6 12.9181651,6.81587779 12.9945143,7.85073766 L13,8 L13,11.833 L16,11.8333333 C17.0543618,11.8333333 17.9181651,12.6492111 17.9945143,13.684071 L18,13.8333333 C18,14.8876951 17.1841222,15.7514985 16.1492623,15.8278476 L16,15.8333333 L12,15.8333333 C10.4023191,15.8333333 9.09633912,14.5844134 9.00509269,13.0096061 L9,12.8333333 L9,8 C9,6.8954305 9.8954305,6 11,6 Z" id="路径-9"></path>
        </g>
        <path d="M31.9100044,18.6308572 C32.6661611,17.8256859 33.9318675,17.7859517 34.7370388,18.5421084 C35.4998327,19.2584674 35.5756414,20.4321507 34.9385712,21.2383248 L34.8257876,21.3691428 L27.6961391,28.9609402 C26.6359786,30.089821 24.9010164,30.2198364 23.6877098,29.2909993 L23.53885,29.1693755 L19.6863656,25.8136581 C18.8534651,25.0881578 18.7664001,23.8248245 19.4919003,22.991924 C20.1792164,22.2028604 21.3492414,22.0831893 22.178688,22.689649 L22.3136344,22.7974588 L25.439,25.52 L31.9100044,18.6308572 Z" id="路径-2" fill="#60759C" fill-rule="nonzero"></path>
        <path d="M31.9100044,32.6308572 C32.6661611,31.8256859 33.9318675,31.7859517 34.7370388,32.5421084 C35.4998327,33.2584674 35.5756414,34.4321507 34.9385712,35.2383248 L34.8257876,35.3691428 L27.6961391,42.9609402 C26.6359786,44.089821 24.9010164,44.2198364 23.6877098,43.2909993 L23.53885,43.1693755 L19.6863656,39.8136581 C18.8534651,39.0881578 18.7664001,37.8248245 19.4919003,36.991924 C20.1792164,36.2028604 21.3492414,36.0831893 22.178688,36.689649 L22.3136344,36.7974588 L25.439,39.52 L31.9100044,32.6308572 Z" id="路径-2" fill="#60759C" fill-rule="nonzero"></path>
    </g>
</svg>