<?xml version="1.0" encoding="UTF-8"?>
<svg width="72px" height="72px" viewBox="0 0 72 72" version="1.1" xmlns="http://www.w3.org/2000/svg" xmlns:xlink="http://www.w3.org/1999/xlink">
    <title>库存存量查询</title>
    <g id="库存存量查询" stroke="none" stroke-width="1" fill="none" fill-rule="evenodd">
        <g id="编组-3" transform="translate(13.000000, 9.000000)" fill="#60759C">
            <g id="编组" transform="translate(0.000000, 0.000000)" fill-rule="nonzero">
                <path d="M25.5732775,-1.15419267 L4,-1.15419267 C0.410149126,-1.15419267 -2.5,1.75595646 -2.5,5.34580733 L-2.5,48.486486 C-2.5,52.0763369 0.410149126,54.986486 4,54.986486 L39.5135135,54.986486 C43.1033644,54.986486 46.0135135,52.0763369 46.0135135,48.486486 L46.0135135,13.3593112 C46.0135135,11.8114218 45.2179695,10.3721776 43.9072448,9.54879281 L27.9670087,-0.464711096 C27.2498748,-0.915207778 26.4201708,-1.15419267 25.5732775,-1.15419267 Z M25.428,3.845 L41.013,13.635 L41.0135135,48.486486 C41.0135135,49.3149131 40.3419406,49.986486 39.5135135,49.986486 L4,49.986486 C3.17157288,49.986486 2.5,49.3149131 2.5,48.486486 L2.5,5.34580733 C2.5,4.51738021 3.17157288,3.84580733 4,3.84580733 L25.428,3.845 Z" id="路径-5"></path>
                <path d="M28.6081081,-1.42108547e-14 L28.6081081,10 C28.6081081,11.3254834 29.639644,12.4100387 30.9437324,12.4946823 L31.1081081,12.5 L43.1081081,12.5 L43.1081081,17.5 L31.1081081,17.5 C27.0471908,17.5 23.7400906,14.2725256 23.6119617,10.2427311 L23.6081081,10 L23.6081081,-1.42108547e-14 L28.6081081,-1.42108547e-14 Z" id="路径-6"></path>
            </g>
            <path d="M13.8555556,14 C15.2362674,14 16.3555556,15.1192881 16.3555556,16.5 C16.3555556,17.8807119 15.2362674,19 13.8555556,19 L9.65555556,19 C8.27484368,19 7.15555556,17.8807119 7.15555556,16.5 C7.15555556,15.1192881 8.27484368,14 9.65555556,14 L13.8555556,14 Z" id="矩形备份" fill-rule="nonzero"></path>
            <g id="编组-2" transform="translate(8.177778, 20.000000)">
                <g id="编组" transform="translate(14.799257, 16.659613) rotate(-17.000000) translate(-14.799257, -16.659613) translate(4.299257, 2.659613)">
                    <path d="M16.2505283,15.9707249 C17.4254962,15.9816113 18.3753636,16.9313755 18.3863775,18.1063422 L18.4539444,25.314406 C18.4646967,26.4614659 17.5435374,27.4000581 16.3964775,27.4108104 C16.3835737,27.4109314 16.3706691,27.4109321 16.3577653,27.4108125 C15.1827974,27.3999261 14.2329301,26.4501619 14.2219162,25.2751951 L14.1543493,18.0671314 C14.143597,16.9200715 15.0647563,15.9814793 16.2118162,15.970727 C16.2247199,15.970606 16.2376245,15.9706053 16.2505283,15.9707249 Z" id="矩形" transform="translate(16.304147, 21.690769) rotate(-29.000000) translate(-16.304147, -21.690769) "></path>
                    <path d="M9.23538389,-1.40785408 C3.32175987,-1.40785408 -1.4897774,3.29908455 -1.4897774,9.12762979 C-1.4897774,14.956175 3.32175987,19.6631137 9.23538389,19.6631137 C15.1490079,19.6631137 19.9605452,14.956175 19.9605452,9.12762979 C19.9605452,3.29908455 15.1490079,-1.40785408 9.23538389,-1.40785408 Z M9.23538389,2.59214592 C12.9593069,2.59214592 15.9605452,5.52813988 15.9605452,9.12762979 C15.9605452,12.7271197 12.9593069,15.6631137 9.23538389,15.6631137 C5.51146087,15.6631137 2.5102226,12.7271197 2.5102226,9.12762979 C2.5102226,5.52813988 5.51146087,2.59214592 9.23538389,2.59214592 Z" id="椭圆形" fill-rule="nonzero"></path>
                </g>
            </g>
        </g>
    </g>
</svg>