<?xml version="1.0" encoding="UTF-8"?>
<svg width="72px" height="72px" viewBox="0 0 72 72" version="1.1" xmlns="http://www.w3.org/2000/svg" xmlns:xlink="http://www.w3.org/1999/xlink">
    <title>库存基础设置</title>
    <g id="库存基础设置" stroke="none" stroke-width="1" fill="none" fill-rule="evenodd">
        <g id="编组" transform="translate(7.000000, 8.000000)" fill-rule="nonzero">
            <path d="M21.9090909,0.5 C23.2898028,0.5 24.4090909,1.61928813 24.4090909,3 C24.4090909,4.3254834 23.377555,5.41003867 22.0734666,5.49468232 L21.9090909,5.5 L10.2835017,5.5 C7.71304814,5.5 5.61613007,7.52744636 5.50466076,10.0704258 L5.5,10.2835017 L5.5,44.8801347 C5.5,47.4505882 7.52744636,49.5475063 10.0704258,49.6589756 L10.2835017,49.6636364 L44.8801347,49.6636364 C47.4505882,49.6636364 49.5475063,47.63619 49.6589756,45.0932106 L49.6636364,44.8801347 L49.6636364,32.8806632 C49.6636364,31.4999514 50.7829245,30.3806632 52.1636364,30.3806632 C53.4891198,30.3806632 54.573675,31.4121992 54.6583187,32.7162875 L54.6636364,32.8806632 L54.6636364,44.8801347 C54.6636364,50.1918325 50.4306373,54.5148603 45.1539796,54.6598777 L44.8801347,54.6636364 L10.2835017,54.6636364 C4.9718039,54.6636364 0.648776029,50.4306373 0.503758623,45.1539796 L0.5,44.8801347 L0.5,10.2835017 C0.5,4.9718039 4.73299909,0.648776029 10.0096567,0.503758623 L10.2835017,0.5 L21.9090909,0.5 Z" id="路径" fill="#60759C" transform="translate(27.581818, 27.581818) scale(1, -1) translate(-27.581818, -27.581818) "></path>
            <path d="M25.2181818,31.4518897 C26.5235821,31.4518897 27.5818182,32.5101257 27.5818182,33.8155261 C27.5818182,35.1209264 26.5235821,36.1791624 25.2181818,36.1791624 L14.8181818,36.1791624 C13.5127815,36.1791624 12.4545455,35.1209264 12.4545455,33.8155261 C12.4545455,32.5101257 13.5127815,31.4518897 14.8181818,31.4518897 L25.2181818,31.4518897 Z" id="矩形" fill="#60759C" transform="translate(20.018182, 33.815526) scale(1, -1) translate(-20.018182, -33.815526) "></path>
            <path d="M40.3454545,17.2700715 C41.6508549,17.2700715 42.7090909,18.3283076 42.7090909,19.6337079 C42.7090909,20.9391082 41.6508549,21.9973442 40.3454545,21.9973442 L14.8181818,21.9973442 C13.5127815,21.9973442 12.4545455,20.9391082 12.4545455,19.6337079 C12.4545455,18.3283076 13.5127815,17.2700715 14.8181818,17.2700715 L40.3454545,17.2700715 Z" id="矩形备份" fill="#60759C" transform="translate(27.581818, 19.633708) scale(1, -1) translate(-27.581818, -19.633708) "></path>
            <g id="设置备份" transform="translate(27.581818, 29.472727)">
                <rect id="矩形" fill="#000000" opacity="0" x="0" y="0" width="27.4181818" height="27.4181818"></rect>
                <path d="M21.2490909,17.6268285 C22.0487879,16.2630969 23.419697,15.5812312 24.7906061,15.6948755 C25.0190909,14.8993654 25.1333333,13.990211 25.1333333,13.0810566 C25.1333333,12.2855466 25.0190909,11.4900365 24.9048485,10.8081707 C23.5339394,11.0354593 22.0487879,10.2399492 21.2490909,8.87621769 C20.4493939,7.51248613 20.5636364,5.80782168 21.4775757,4.78502301 C20.2209091,3.64858004 18.85,2.85306998 17.2506061,2.28484848 C16.7936364,3.64858004 15.4227273,4.5577344 13.7090909,4.5577344 C11.9954545,4.5577344 10.7387879,3.64858004 10.1675758,2.28484848 C8.56818182,2.85306996 7.19727273,3.76222435 5.94060608,4.89866729 C6.85454546,6.03511027 6.96878789,7.62613041 6.16909091,8.98986196 C5.36939394,10.3535935 3.88424244,11.0354593 2.51333335,10.8081707 C2.39909092,11.6036808 2.28484848,12.3991909 2.28484848,13.1947009 C2.28484848,14.1038553 2.39909092,14.8993654 2.62757576,15.6948755 C3.99848485,15.5812312 5.36939394,16.2630969 6.16909091,17.6268285 C6.85454546,18.9905601 6.85454546,20.4679359 6.05484848,21.6043789 C7.31151514,22.7408218 8.68242423,23.5363319 10.2818182,23.9909091 C10.8530303,22.7408218 12.109697,21.9453118 13.7090909,21.9453118 C15.3084848,21.9453118 16.5651515,22.7408218 17.1363636,23.9909091 C18.7357576,23.5363319 20.1066667,22.6271775 21.3633333,21.6043789 C20.5636364,20.4679359 20.449394,18.9905601 21.2490909,17.6268285 Z M13.7090909,18.0814057 C10.9672727,18.0814057 8.79666666,15.9221641 8.79666666,13.1947009 C8.79666666,10.4672378 10.9672727,8.30799619 13.7090909,8.30799619 C16.4509091,8.30799619 18.6215152,10.4672378 18.6215152,13.1947009 C18.6215152,15.9221641 16.4509091,18.0814057 13.7090909,18.0814057 Z" id="形状" fill="#60759C"></path>
            </g>
        </g>
    </g>
</svg>