<?xml version="1.0" encoding="UTF-8"?>
<svg width="72px" height="72px" viewBox="0 0 72 72" version="1.1" xmlns="http://www.w3.org/2000/svg" xmlns:xlink="http://www.w3.org/1999/xlink">
    <title>供应商寄存</title>
    <g id="供应商寄存" stroke="none" stroke-width="1" fill="none" fill-rule="evenodd">
        <g id="编组-36" fill="#60759C" fill-rule="nonzero">
            <g id="编组-2">
                <path d="M9.12676056,33.5 C10.5074724,33.5 11.6267606,34.6192881 11.6267606,36 C11.6267606,49.4609684 22.5390316,60.3732394 36,60.3732394 C42.4718999,60.3732394 48.5379949,57.8428691 53.066364,53.4009887 C54.0520422,52.4341362 55.6348811,52.4493975 56.6017335,53.4350757 C57.568586,54.4207539 57.5533247,56.0035928 56.5676465,56.9704453 C51.1137159,62.3202097 43.7946416,65.3732394 36,65.3732394 C19.7776078,65.3732394 6.62676056,52.2223922 6.62676056,36 C6.62676056,34.6192881 7.74604869,33.5 9.12676056,33.5 Z M36,6.62676056 C52.2223922,6.62676056 65.3732394,19.7776078 65.3732394,36 C65.3732394,38.8020798 65.1086781,41.0784066 64.4618963,43.4547258 C64.0992882,44.7869722 62.7253371,45.5730194 61.3930906,45.2104113 C60.0608442,44.8478031 59.274797,43.473852 59.6374051,42.1416056 C60.1592549,40.2242948 60.3732394,38.3831387 60.3732394,36 C60.3732394,22.5390316 49.4609684,11.6267606 36,11.6267606 C27.4072283,11.6267606 19.5903172,16.1071511 15.1889829,23.305725 C14.4687479,24.4837007 12.9299441,24.8547729 11.7519684,24.1345379 C10.5739926,23.4143029 10.2029205,21.875499 10.9231555,20.6975233 C16.2237243,12.0282121 25.6476052,6.62676056 36,6.62676056 Z" id="形状" transform="translate(36.000000, 36.000000) rotate(-23.000000) translate(-36.000000, -36.000000) "></path>
            </g>
            <path d="M45.2794491,35.7768941 L45.4147606,35.765326 C45.8122817,35.7085373 46.1246197,35.5097767 46.3517746,35.1690443 C46.5978592,34.7904528 46.6593803,34.421326 46.536338,34.061664 C46.4132958,33.7020021 46.0772958,33.3707345 45.528338,33.0678612 C44.7332958,32.6514105 43.9761127,32.272819 43.2567887,31.9320866 C42.5374648,31.5913542 41.8370704,31.2600866 41.1556056,30.9382838 L41.1556056,30.9382838 L45.0740282,30.9382838 C45.6229859,30.9382838 45.9826479,30.8389035 46.1530141,30.6401429 C46.3233803,30.4413823 46.4085634,30.1337767 46.4085634,29.717326 C46.4085634,29.3387345 46.3139155,29.0358612 46.1246197,28.8087063 C45.9353239,28.5815514 45.5851268,28.4679739 45.0740282,28.4679739 L45.0740282,28.4679739 L38.3445634,28.4679739 C38.3824225,28.3543964 38.4060845,28.2502838 38.4155493,28.1556359 C38.4250141,28.060988 38.4392113,27.9663401 38.4581408,27.8716922 C38.496,27.568819 38.4865352,27.341664 38.4297465,27.1902274 L38.4297465,27.1902274 L46.2381972,27.1902274 C46.6546479,27.1902274 46.9007324,27.2517485 46.9764507,27.3747908 C47.052169,27.497833 46.9953803,27.7770443 46.8060845,28.2124246 C46.5789296,28.7613823 46.5079437,29.1541711 46.5931268,29.3907908 C46.6783099,29.6274105 46.9669859,29.849833 47.4591549,30.0580584 C48.083831,30.3230725 48.5665352,30.3751288 48.9072676,30.2142274 C49.248,30.053326 49.560338,29.6605373 49.8442817,29.0358612 C49.9767887,28.7519176 50.0950986,28.3875232 50.1992113,27.9426781 C50.3033239,27.497833 50.3648451,27.1429035 50.3837746,26.8778894 C50.4027042,26.5182274 50.3601127,26.201157 50.256,25.9266781 C50.1518873,25.6521992 49.9483944,25.4203119 49.6455211,25.2310161 C49.3426479,25.0417204 48.9309296,24.8950161 48.4103662,24.7909035 C47.8898028,24.6867908 47.2225352,24.6347345 46.4085634,24.6347345 L46.4085634,24.6347345 L39.5087324,24.6347345 C39.2058592,24.0100584 38.9219155,23.5178894 38.6569014,23.1582274 C38.4486761,22.8932133 38.1647324,22.661326 37.8050704,22.4625654 C37.4454085,22.2638049 36.9532394,22.2590725 36.3285634,22.4483683 C35.7228169,22.637664 35.3489577,22.9121429 35.2069859,23.2718049 C35.0650141,23.6314668 35.1170704,23.9721992 35.3631549,24.2940021 L35.3631549,24.2940021 L35.5903099,24.6347345 L27.2139718,24.6347345 C26.0214085,24.6347345 25.1695775,24.8713542 24.6584789,25.3445936 C24.1473803,25.817833 23.891831,26.4519739 23.891831,27.2470161 L23.891831,27.2470161 L23.891831,28.9222838 C23.891831,29.6794668 24.4407887,30.0580584 25.5387042,30.0580584 C26.0498028,30.0580584 26.4520563,29.9539457 26.7454648,29.7457204 C27.0388732,29.537495 27.1855775,29.2440866 27.1855775,28.865495 L27.1855775,28.865495 L27.1855775,27.9568753 C27.1855775,27.6540021 27.2612958,27.4505091 27.4127324,27.3463964 C27.564169,27.2422838 27.8481127,27.1902274 28.2645634,27.1902274 L28.2645634,27.1902274 L35.675493,27.1902274 C35.6376338,27.2659457 35.6092394,27.3463964 35.5903099,27.4315795 C35.5713803,27.5167626 35.5524507,27.6066781 35.5335211,27.701326 C35.495662,27.8527626 35.472,27.9805373 35.4625352,28.0846499 C35.4530704,28.1887626 35.4294085,28.3165373 35.3915493,28.4679739 L35.3915493,28.4679739 L28.7472676,28.4679739 C28.2550986,28.4679739 27.9049014,28.576819 27.6966761,28.7945091 C27.4884507,29.0121992 27.384338,29.3103401 27.384338,29.6889316 C27.384338,30.1053823 27.4789859,30.4177204 27.6682817,30.6259457 C27.8575775,30.8341711 28.2172394,30.9382838 28.7472676,30.9382838 L28.7472676,30.9382838 L33.8298592,30.9382838 C33.1862535,31.4493823 32.3486197,31.8611007 31.3169577,32.1734387 C30.2852958,32.4857767 29.0312113,32.764988 27.5547042,33.0110725 C26.892169,33.1246499 26.4283944,33.2997485 26.1633803,33.5363683 C25.8983662,33.772988 25.7942535,34.1373823 25.8510423,34.6295514 C25.8889014,34.9892133 26.0356056,35.2778894 26.2911549,35.4955795 C26.5467042,35.7132697 27.0057465,35.7842556 27.6682817,35.7085373 C30.072338,35.405664 32.0126197,34.913495 33.4891268,34.2320302 C34.9656338,33.5505654 36.120338,32.6514105 36.9532394,31.5345654 C37.1425352,31.6670725 37.4170141,31.8185091 37.7766761,31.9888753 C38.4581408,32.3106781 39.347831,32.7507908 40.4457465,33.3092133 C41.543662,33.8676359 42.7267606,34.5443683 43.9950423,35.3394105 C44.544,35.6801429 45.0172394,35.8221147 45.4147606,35.765326 L45.2794491,35.7768941 Z M42.0926197,49.6785654 C43.6827042,49.6785654 44.8326761,49.4230161 45.5425352,48.9119176 C46.2523944,48.400819 46.6073239,47.5773823 46.6073239,46.4416077 L46.6073239,46.4416077 L46.6073239,38.7467345 L49.0208451,38.7467345 C49.5698028,38.7467345 49.9483944,38.5952978 50.1566197,38.2924246 C50.3648451,37.9895514 50.4689577,37.6204246 50.4689577,37.1850443 C50.4689577,36.7685936 50.3648451,36.4562556 50.1566197,36.2480302 C49.9483944,36.0398049 49.5698028,35.9356922 49.0208451,35.9356922 L49.0208451,35.9356922 L24.6584789,35.9356922 C24.1284507,35.9356922 23.7735211,36.0350725 23.5936901,36.233833 C23.4138592,36.4325936 23.3239437,36.7401992 23.3239437,37.1566499 C23.3239437,37.5920302 23.4138592,37.9658894 23.5936901,38.2782274 C23.7735211,38.5905654 24.1284507,38.7467345 24.6584789,38.7467345 L24.6584789,38.7467345 L43.3703662,38.7467345 L43.3703662,45.9305091 C43.3703662,46.2712415 43.2567887,46.540988 43.0296338,46.7397485 C42.8024789,46.9385091 42.4049577,47.0378894 41.8370704,47.0378894 C41.363831,47.0378894 40.871662,47.0000302 40.3605634,46.9243119 C39.8494648,46.8485936 39.1869296,46.7160866 38.3729577,46.5267908 C37.7104225,46.3942838 37.2371831,46.3800866 36.9532394,46.4841992 C36.6692958,46.5883119 36.4516056,46.8485936 36.300169,47.2650443 C35.9594366,48.3061711 36.347493,48.9403119 37.464338,49.1674668 C38.316169,49.3756922 39.1396056,49.5129316 39.9346479,49.5791852 C40.7296901,49.6454387 41.4490141,49.6785654 42.0926197,49.6785654 Z M37.7198873,46.0440866 C38.6852958,46.0440866 39.3809577,45.8973823 39.8068732,45.6039739 C40.2327887,45.3105654 40.4457465,44.7474105 40.4457465,43.9145091 L40.4457465,43.9145091 L40.4457465,42.0120866 C40.4457465,41.1981147 40.2375211,40.6349598 39.8210704,40.3226218 C39.4046197,40.0102838 38.7136901,39.8541147 37.7482817,39.8541147 L37.7482817,39.8541147 L28.1509859,39.8541147 C27.1855775,39.8541147 26.5041127,40.0102838 26.1065915,40.3226218 C25.7090704,40.6349598 25.5103099,41.1981147 25.5103099,42.0120866 L25.5103099,42.0120866 L25.5103099,43.9145091 C25.5103099,44.7474105 25.7090704,45.3105654 26.1065915,45.6039739 C26.5041127,45.8973823 27.1855775,46.0440866 28.1509859,46.0440866 L28.1509859,46.0440866 L37.7198873,46.0440866 Z M36.8680563,43.6305654 L28.9744225,43.6305654 C28.7094085,43.6305654 28.5343099,43.5974387 28.4491268,43.5311852 C28.3639437,43.4649316 28.3213521,43.3560866 28.3213521,43.2046499 L28.3213521,43.2046499 L28.3213521,42.6935514 C28.3213521,42.4096077 28.5390423,42.2676359 28.9744225,42.2676359 L28.9744225,42.2676359 L36.8680563,42.2676359 C37.3223662,42.2676359 37.5495211,42.4096077 37.5495211,42.6935514 L37.5495211,42.6935514 L37.5495211,43.2046499 C37.5495211,43.4885936 37.3223662,43.6305654 36.8680563,43.6305654 L36.8680563,43.6305654 Z" id="寄"></path>
        </g>
    </g>
</svg>