<?xml version="1.0" encoding="UTF-8"?>
<svg width="72px" height="72px" viewBox="0 0 72 72" version="1.1" xmlns="http://www.w3.org/2000/svg" xmlns:xlink="http://www.w3.org/1999/xlink">
    <title>入库业务</title>
    <g id="入库业务" stroke="none" stroke-width="1" fill="none" fill-rule="evenodd">
        <g id="编组" transform="translate(7.000000, 7.000000)" fill="#60759C">
            <path d="M23,0.5 C24.3807119,0.5 25.5,1.61928813 25.5,3 C25.5,4.3254834 24.4684641,5.41003867 23.1643757,5.49468232 L23,5.5 L10.7037037,5.5 C7.90346792,5.5 5.61983353,7.71183348 5.50456512,10.4837358 L5.5,10.7037037 L5.5,47.2962963 C5.5,50.0965321 7.71183348,52.3801665 10.4837358,52.4954349 L10.7037037,52.5 L47.2962963,52.5 C50.0965321,52.5 52.3801665,50.2881665 52.4954349,47.5162642 L52.5,47.2962963 L52.5,34.6045476 C52.5,33.2238358 53.6192881,32.1045476 55,32.1045476 C56.3254834,32.1045476 57.4100387,33.1360836 57.4946823,34.440172 L57.5,34.6045476 L57.5,47.2962963 C57.5,52.8377237 53.0826557,57.3474252 47.5771584,57.4962092 L47.2962963,57.5 L10.7037037,57.5 C5.16227626,57.5 0.652574846,53.0826557 0.503790751,47.5771584 L0.5,47.2962963 L0.5,10.7037037 C0.5,5.16227626 4.91734428,0.652574846 10.4228416,0.503790751 L10.7037037,0.5 L23,0.5 Z" id="路径" fill-rule="nonzero" transform="translate(29.000000, 29.000000) scale(1, -1) translate(-29.000000, -29.000000) "></path>
            <path d="M26.5,33.0933449 C27.8807119,33.0933449 29,34.212633 29,35.5933449 C29,36.9740567 27.8807119,38.0933449 26.5,38.0933449 L15.5,38.0933449 C14.1192881,38.0933449 13,36.9740567 13,35.5933449 C13,34.212633 14.1192881,33.0933449 15.5,33.0933449 L26.5,33.0933449 Z" id="矩形" fill-rule="nonzero" transform="translate(21.000000, 35.593345) scale(1, -1) translate(-21.000000, -35.593345) "></path>
            <path d="M42.5,18.0933449 C43.8807119,18.0933449 45,19.212633 45,20.5933449 C45,21.9740567 43.8807119,23.0933449 42.5,23.0933449 L15.5,23.0933449 C14.1192881,23.0933449 13,21.9740567 13,20.5933449 C13,19.212633 14.1192881,18.0933449 15.5,18.0933449 L42.5,18.0933449 Z" id="矩形备份" fill-rule="nonzero" transform="translate(29.000000, 20.593345) scale(1, -1) translate(-29.000000, -20.593345) "></path>
            <path d="M56,44.4039439 C56,45.169807 55.6576754,45.8639291 55.1183239,46.3394478 L46.3179182,54.1389313 C45.848553,54.5498456 45.227424,54.8 44.5500016,54.8 C43.087895,54.8 41.9038321,53.6386225 41.9038321,52.2030518 C41.9038321,51.4285498 42.2461568,50.7430666 42.7855083,50.2675479 L46.4731053,47.0012677 L34.6381819,47.0012677 C33.1806396,47.0012677 32,45.8398902 32,44.3960561 C32,42.9604854 33.1806396,41.7991079 34.6381819,41.7991079 L46.4731053,41.7991079 L42.7855083,38.5324521 C42.2461568,38.0565578 41.9038321,37.366943 41.9038321,36.5973238 C41.9038321,35.1613775 43.087895,34 44.5500016,34 C45.227424,34 45.848553,34.2501544 46.3179182,34.669332 L55.1183239,42.46844 C55.657295,42.9439587 56,43.6377052 56,44.4039439" id="路径" transform="translate(44.000000, 44.400000) scale(-1, 1) translate(-44.000000, -44.400000) "></path>
        </g>
    </g>
</svg>