<?xml version="1.0" encoding="UTF-8"?>
<svg width="72px" height="72px" viewBox="0 0 72 72" version="1.1" xmlns="http://www.w3.org/2000/svg" xmlns:xlink="http://www.w3.org/1999/xlink">
    <title>备料计划</title>
    <g id="备料计划" stroke="none" stroke-width="1" fill="none" fill-rule="evenodd">
        <g id="编组-35" transform="translate(10.000000, 10.000000)" fill="#60759C" fill-rule="nonzero">
            <g id="物资备料@3x">
                <path d="M43.7649724,0.299714376 C44.0710314,0.4766342 44.3346732,0.726130292 44.5289033,1.03279023 L44.5801339,1.11783046 L51.7106115,13.5920367 C51.8837107,13.8957097 51.9812481,14.2344061 51.9975516,14.5817599 L52,14.6861993 C52,37.6829982 52,49.3846702 52,49.7912155 C52,50.4010335 51.7512216,50.9532357 51.3490416,51.3529778 C50.9468616,51.7527199 50.4493277,51.973549 49.8741017,51.9979589 C49.2988758,52.0223688 73.5554316,51.9989815 49.7777212,52 C33.9259142,52.000679 18.0741001,52.000679 2.22227874,52 C1.60872975,52 1.05314695,51.7527284 0.650958396,51.3529778 C0.269945771,50.9742747 0.0266121354,50.4587377 0.0020535052,49.88701 L0,49.7912155 L0,14.6853372 C0.000947856166,14.3371789 0.085312703,13.9941299 0.244112598,13.6858656 L0.293976635,13.5944596 L7.4199807,1.11763004 C7.61782809,0.772093363 7.90137274,0.492706829 8.23545587,0.299691389 C8.54174658,0.122732933 8.89051922,0.0183742986 9.25467236,0.00221007107 L9.35434782,0 L42.6465431,0 C43.0464375,0 43.4309663,0.10663952 43.7649724,0.299714376 Z M46.9210848,18.9140403 L5.08069712,18.9140403 L5.08069712,46.9501477 L46.9210848,46.9501477 L46.9210848,18.9140403 Z M23.9354197,5.05162358 L11.0165547,5.05162358 L5.97684679,13.8659591 L23.9354197,13.8659591 L23.9354197,5.05162358 Z M40.9834453,5.05162358 L29.0161168,5.05162358 L29.0161168,13.8659591 L46.0231532,13.8659591 L40.9834453,5.05162358 Z" id="形状"></path>
            </g>
            <g id="编组" transform="translate(9.000000, 26.000000)">
                <path d="M13.5990895,0.0114440792 C14.1549145,-0.0467417026 14.7320021,0.116350423 15.1986227,0.514458609 C15.6340698,0.885970438 15.8963775,1.39649994 15.9749342,1.93434675 C16.0546153,2.47989172 15.9450833,3.05352279 15.6354697,3.53887828 L15.6354697,3.53887828 L15.5109384,3.71525492 L10.0024667,10.7431182 C9.40627204,11.4655569 8.59623083,11.8819597 7.75459797,11.9783043 C6.90658268,12.0753795 6.02656187,11.8473845 5.30087553,11.2803344 L5.30087553,11.2803344 L5.11512259,11.1246371 L0.757088622,7.20106631 C0.300577743,6.79006612 0.0469735935,6.22488525 0.00593396748,5.64338975 C-0.035107695,5.06186538 0.136431694,4.46399142 0.530335052,3.9876231 C0.897685209,3.54336697 1.39357726,3.28328057 1.91080635,3.21559546 C2.43534373,3.14695398 2.98175784,3.27637131 3.43834737,3.61202988 L3.43834737,3.61202988 L3.60399016,3.74656994 L7.26355791,7.04078069 L12.1271076,0.83605023 C12.5086613,0.34912469 13.0432271,0.069633763 13.5990895,0.0114440792 Z" id="路径-2"></path>
            </g>
            <g id="编组-34" transform="translate(28.000000, 25.000000)">
                <path d="M12.5,0 C13.8807119,0 15,1.11928813 15,2.5 C15,3.88071187 13.8807119,5 12.5,5 L2.5,5 C1.11928813,5 0,3.88071187 0,2.5 C0,1.11928813 1.11928813,0 2.5,0 L12.5,0 Z" id="矩形备份"></path>
                <path d="M12.5,9 C13.8807119,9 15,10.1192881 15,11.5 C15,12.8807119 13.8807119,14 12.5,14 L2.5,14 C1.11928813,14 0,12.8807119 0,11.5 C0,10.1192881 1.11928813,9 2.5,9 L12.5,9 Z" id="矩形备份"></path>
            </g>
        </g>
    </g>
</svg>