<?xml version="1.0" encoding="UTF-8"?>
<svg width="72px" height="72px" viewBox="0 0 72 72" version="1.1" xmlns="http://www.w3.org/2000/svg" xmlns:xlink="http://www.w3.org/1999/xlink">
    <title>销售订单管理</title>
    <g id="销售订单管理" stroke="none" stroke-width="1" fill="none" fill-rule="evenodd">
        <g id="编组-2" transform="translate(10.000000, 9.000000)" fill="#60759C">
            <g id="编组" transform="translate(13.000000, 14.000000)">
                <path d="M2.40740741,10 L5.81877664,10 C7.14835104,10 8.22618405,11.077833 8.22618405,12.4074074 C8.22618405,13.7369818 7.14835104,14.8148148 5.81877664,14.8148148 L2.40740741,14.8148148 C1.07783301,14.8148148 1.62825903e-16,13.7369818 0,12.4074074 C-1.62825903e-16,11.077833 1.07783301,10 2.40740741,10 Z" id="矩形"></path>
                <path d="M15.9251998,-1.59872116e-14 C17.2547742,-1.59872116e-14 18.3326072,1.07783301 18.3326072,2.40740741 C18.3326072,3.73698181 17.2547742,4.81481481 15.9251998,4.81481481 L2.40740741,4.81481481 C1.07783301,4.81481481 0,3.73698181 0,2.40740741 C0,1.07783301 1.07783301,-1.59872116e-14 2.40740741,-1.59872116e-14 L15.9251998,-1.59872116e-14 Z" id="矩形备份" fill-rule="nonzero"></path>
            </g>
            <path d="M34.32,-3.55271368e-15 C36.6789352,-3.55271368e-15 38.7321486,1.30895044 39.7929382,3.24014933 L44,3.24 C48.418278,3.24 52,6.821722 52,11.24 L52,47.24 C52,51.658278 48.418278,55.24 44,55.24 L8,55.24 C3.581722,55.24 0,51.658278 0,47.24 L0,11.24 C0,6.821722 3.581722,3.24 8,3.24 L13.2470618,3.24014933 C14.3078514,1.30895044 16.3610648,-3.55271368e-15 18.72,-3.55271368e-15 L34.32,-3.55271368e-15 Z M34.32,5 L18.72,5 C18.3060257,5 17.9311777,5.2015505 17.7007639,5.53238792 L17.6294532,5.64735634 L16.2052098,8.24023353 L8,8.24 C6.40231912,8.24 5.09633912,9.48891996 5.00509269,11.0637272 L5,11.24 L5,47.24 C5,48.8376809 6.24891996,50.1436609 7.82372721,50.2349073 L8,50.24 L44,50.24 C45.5976809,50.24 46.9036609,48.99108 46.9949073,47.4162728 L47,47.24 L47,11.24 C47,9.64231912 45.75108,8.33633912 44.1764319,8.24509269 L44.0001775,8.24 L36.8348017,8.24025434 L35.4105468,5.64735634 C35.2135296,5.28868064 34.8603773,5.05126256 34.4563979,5.00736571 L34.32,5 Z" id="形状结合" fill-rule="nonzero"></path>
            <g id="销售" transform="translate(35.000000, 36.000000) scale(-1, 1) translate(-35.000000, -36.000000) translate(27.000000, 28.000000)" fill-rule="nonzero">
                <path d="M8.035616,5.056 C8.03620214,3.71080067 9.1256186,2.61995265 10.470816,2.6176 C11.8164301,2.619365 12.9064955,3.71038492 12.9070827,5.056 C12.9059074,6.40119858 11.8160139,7.49156926 10.470816,7.49333333 C9.12603468,7.49098179 8.03678997,6.40078286 8.035616,5.056 M15.9022827,1.4784 C15.9022827,0.712533328 15.280416,0.0896 14.5401493,0.0896 L14.5390827,0.0896 C14.515616,0.0885333281 12.1102827,0 10.2937493,0 C8.20308266,0 8.01428266,0.101333328 7.78814933,0.327466672 L4.55508267,3.56266667 L0.405749328,7.7152 C-0.136905581,8.26174655 -0.134997272,9.14433849 0.410016,9.68853333 L6.30974933,15.5914667 C6.57428266,15.8549333 6.92414933,16 7.29854933,16 C7.67188266,16 8.019616,15.856 8.27988267,15.5946667 L12.8974827,10.976 L15.6633493,8.20693333 C15.907616,7.96373333 16.1369493,7.73333333 15.9022827,1.4784" id="形状"></path>
            </g>
        </g>
    </g>
</svg>