<?xml version="1.0" encoding="UTF-8"?>
<svg width="72px" height="72px" viewBox="0 0 72 72" version="1.1" xmlns="http://www.w3.org/2000/svg" xmlns:xlink="http://www.w3.org/1999/xlink">
    <title>销售发票</title>
    <g id="销售发票" stroke="none" stroke-width="1" fill="none" fill-rule="evenodd">
        <g id="编组-2" transform="translate(10.000000, 13.000000)" fill="#60759C" fill-rule="nonzero">
            <path d="M49,-2.5 C52.0830015,-2.5 54.390556,0.214968993 54.4962168,3.41359167 L54.5,3.64285714 L54.5,13.3571429 C54.5,16.5775317 52.2641432,19.3673935 49.2188764,19.4954128 L49,19.5 L45,19.5 C43.6192881,19.5 42.5,18.3807119 42.5,17 C42.5,15.6745166 43.5315359,14.5899613 44.8356243,14.5053177 L45,14.5 L49,14.5 C49.145202,14.5 49.4483743,14.1454251 49.494157,13.5192869 L49.5,13.3571429 L49.5,3.64285714 C49.5,2.97203492 49.2079971,2.56585829 49.0393512,2.50733894 L49,2.5 L3,2.5 C2.85479799,2.5 2.55162573,2.85457492 2.50584302,3.48071308 L2.5,3.64285714 L2.5,13.3571429 C2.5,14.0279651 2.79200287,14.4341417 2.96064882,14.4926611 L3,14.5 L5.95228833,14.5 C7.33300021,14.5 8.45228833,15.6192881 8.45228833,17 C8.45228833,18.3254834 7.4207524,19.4100387 6.11666402,19.4946823 L5.95228833,19.5 L3,19.5 C-0.0830015192,19.5 -2.39055605,16.785031 -2.49621678,13.5864083 L-2.5,13.3571429 L-2.5,3.64285714 C-2.5,0.422468255 -0.264143182,-2.3673935 2.78112365,-2.49541282 L3,-2.5 L49,-2.5 Z" id="形状结合"></path>
            <path d="M41,7.5 L11,7.5 C7.41014913,7.5 4.5,10.4101491 4.5,14 L4.5,42.4175219 C4.5,45.232649 6.3121746,47.7278163 8.98921285,48.5986822 L9.69691862,48.8246473 C11.6302661,49.4291606 12.9611789,49.7301432 13.8943047,49.7301432 C15.5073735,49.7301432 17.3065026,48.9004671 19.5723926,47.3219872 C20.5604755,46.6557544 21.3982589,46.1755328 22.0294888,45.9053348 L22.1735845,45.8459127 C22.3109505,45.7915534 22.4278548,45.7522716 22.5218379,45.7270705 L22.583,45.712 L22.4450317,45.6817064 C23.4711207,45.8794226 24.4637014,46.4953362 25.5146093,47.5217669 C25.9048188,47.9028879 27.5819232,49.8207679 28.0481239,50.1833343 C30.2161679,51.8694321 33.3615855,51.8694321 37.5018806,50.600073 L37.609822,50.5642741 L43.1859279,48.5730735 C45.7730161,47.6492367 47.5,45.198748 47.5,42.4516587 L47.5,14 C47.5,10.4101491 44.5898509,7.5 41,7.5 Z M11,12.5 L41,12.5 C41.8284271,12.5 42.5,13.1715729 42.5,14 L42.5,42.4516587 L42.4930165,42.5966092 C42.4375125,43.1705173 42.0555406,43.6674992 41.5044449,43.8642929 L35.992,45.832 L36.0362805,45.8196947 C34.5375281,46.2791922 33.3152466,46.5 32.3953935,46.5 C31.7136112,46.5 31.3111809,46.3869455 31.117647,46.2364333 L30.1420307,45.146248 C29.7448917,44.7085637 29.3094526,44.2390177 29.0082416,43.9448223 C27.3187396,42.2946713 25.5286966,41.1839184 23.3910747,40.7720218 C21.5953645,40.4260079 19.5683755,41.2936609 16.7452569,43.1981659 C15.8886559,43.7945555 15.1877218,44.2118238 14.6277815,44.4700427 C14.219972,44.6581058 13.9581564,44.7301432 13.8943047,44.7301432 L13.7687327,44.7212492 C13.3142156,44.6678959 12.1672023,44.3745965 10.5359713,43.8439437 C9.91819468,43.6429751 9.5,43.0671665 9.5,42.4175219 L9.5,14 C9.5,13.1715729 10.1715729,12.5 11,12.5 Z" id="形状结合"></path>
        </g>
        <path d="M43.5,44 C44.8807119,44 46,45.1192881 46,46.5 C46,47.8807119 44.8807119,49 43.5,49 L28.5,49 C27.1192881,49 26,47.8807119 26,46.5 C26,45.1192881 27.1192881,44 28.5,44 L43.5,44 Z" id="矩形" fill="#60759C" fill-rule="nonzero" transform="translate(36.000000, 46.500000) scale(1, -1) translate(-36.000000, -46.500000) "></path>
        <path d="M43.5,34 C44.8807119,34 46,35.1192881 46,36.5 C46,37.8807119 44.8807119,39 43.5,39 L28.5,39 C27.1192881,39 26,37.8807119 26,36.5 C26,35.1192881 27.1192881,34 28.5,34 L43.5,34 Z" id="矩形备份" fill="#60759C" fill-rule="nonzero" transform="translate(36.000000, 36.500000) scale(1, -1) translate(-36.000000, -36.500000) "></path>
    </g>
</svg>