<?xml version="1.0" encoding="UTF-8"?>
<svg width="72px" height="72px" viewBox="0 0 72 72" version="1.1" xmlns="http://www.w3.org/2000/svg" xmlns:xlink="http://www.w3.org/1999/xlink">
    <title>销售绩效</title>
    <g id="销售绩效" stroke="none" stroke-width="1" fill="none" fill-rule="evenodd">
        <g id="编组-25" transform="translate(34.500000, 35.000000) scale(1, -1) rotate(90.000000) translate(-34.500000, -35.000000) translate(8.500000, 8.500000)" fill="#60759C" fill-rule="nonzero">
            <path d="M49,47 C50.6568542,47 52,48.3431458 52,50 C52,51.6568542 50.6568542,53 49,53 L3,53 C1.34314575,53 0,51.6568542 0,50 C0,48.3431458 1.34314575,47 3,47 L49,47 Z" id="矩形备份-2"></path>
            <path d="M26,23 C27.6568542,23 29,24.3431458 29,26 C29,27.6568542 27.6568542,29 26,29 L-20,29 C-21.6568542,29 -23,27.6568542 -23,26 C-23,24.3431458 -21.6568542,23 -20,23 L26,23 Z" id="矩形备份-2" transform="translate(3.000000, 26.000000) rotate(90.000000) translate(-3.000000, -26.000000) "></path>
            <path d="M26,31 C27.6568542,31 29,32.3431458 29,34 C29,35.6568542 27.6568542,37 26,37 L3,37 C1.34314575,37 0,35.6568542 0,34 C0,32.3431458 1.34314575,31 3,31 L26,31 Z" id="矩形备份"></path>
            <path d="M17.5,16.5 C19.1568542,16.5 20.5,17.8431458 20.5,19.5 C20.5,21.1568542 19.1568542,22.5 17.5,22.5 L4.5,22.5 C2.84314575,22.5 1.5,21.1568542 1.5,19.5 C1.5,17.8431458 2.84314575,16.5 4.5,16.5 L17.5,16.5 Z" id="矩形备份-3"></path>
            <path d="M23.5,2.5 C25.1568542,2.5 26.5,3.84314575 26.5,5.5 C26.5,7.15685425 25.1568542,8.5 23.5,8.5 L6.5,8.5 C4.84314575,8.5 3.5,7.15685425 3.5,5.5 C3.5,3.84314575 4.84314575,2.5 6.5,2.5 L23.5,2.5 Z" id="矩形备份-4"></path>
        </g>
        <path d="M55.749306,18.377201 C56.9448162,17.6864618 58.4739235,18.0956595 59.1646627,19.2911697 C59.8266211,20.4368669 59.4783944,21.8889407 58.3960147,22.6159022 L58.250694,22.7065264 L44.2668965,30.7860538 C42.5495081,31.7783226 40.4376255,31.7661414 38.7373134,30.7706563 L38.5179338,30.6352358 L27.5017826,23.4747374 C27.394001,23.4046795 27.2645373,23.3794771 27.1403501,23.4019263 L27.0486202,23.4277415 L12.9033409,28.9093039 C11.6159161,29.4082053 10.1678125,28.7689808 9.66891115,27.481556 C9.19079731,26.2477739 9.75794149,24.866424 10.9391425,24.3143524 L11.0966591,24.2471262 L25.2419384,18.7655638 C26.8076637,18.1588157 28.5597789,18.3020655 30.0017024,19.1438144 L30.2267243,19.2825194 L41.2428756,26.4430177 C41.374338,26.5284683 41.536501,26.5463894 41.6811827,26.4955171 L41.7655085,26.4567284 L55.749306,18.377201 Z" id="路径-12" fill="#60759C" fill-rule="nonzero" transform="translate(34.499872, 24.782623) scale(-1, -1) translate(-34.499872, -24.782623) "></path>
    </g>
</svg>