<?xml version="1.0" encoding="UTF-8"?>
<svg width="72px" height="72px" viewBox="0 0 72 72" version="1.1" xmlns="http://www.w3.org/2000/svg" xmlns:xlink="http://www.w3.org/1999/xlink">
    <title>销售查询</title>
    <g id="销售查询" stroke="none" stroke-width="1" fill="none" fill-rule="evenodd">
        <g id="编组-25" transform="translate(34.500000, 33.000000) scale(1, -1) rotate(90.000000) translate(-34.500000, -33.000000) translate(8.500000, 6.500000)" fill="#60759C" fill-rule="nonzero">
            <path d="M49,47 C50.6568542,47 52,48.3431458 52,50 C52,51.6568542 50.6568542,53 49,53 L3,53 C1.34314575,53 0,51.6568542 0,50 C0,48.3431458 1.34314575,47 3,47 L49,47 Z" id="矩形备份-2"></path>
            <path d="M26,23 C27.6568542,23 29,24.3431458 29,26 C29,27.6568542 27.6568542,29 26,29 L-20,29 C-21.6568542,29 -23,27.6568542 -23,26 C-23,24.3431458 -21.6568542,23 -20,23 L26,23 Z" id="矩形备份-2" transform="translate(3.000000, 26.000000) rotate(90.000000) translate(-3.000000, -26.000000) "></path>
            <path d="M19,31 C20.6568542,31 22,32.3431458 22,34 C22,35.6568542 20.6568542,37 19,37 L3,37 C1.34314575,37 0,35.6568542 0,34 C0,32.3431458 1.34314575,31 3,31 L19,31 Z" id="矩形备份"></path>
        </g>
        <path d="M55.749306,15.377201 C56.9448162,14.6864618 58.4739235,15.0956595 59.1646627,16.2911697 C59.8266211,17.4368669 59.4783944,18.8889407 58.3960147,19.6159022 L58.250694,19.7065264 L44.2668965,27.7860538 C42.5495081,28.7783226 40.4376255,28.7661414 38.7373134,27.7706563 L38.5179338,27.6352358 L27.5017826,20.4747374 C27.394001,20.4046795 27.2645373,20.3794771 27.1403501,20.4019263 L27.0486202,20.4277415 L12.9033409,25.9093039 C11.6159161,26.4082053 10.1678125,25.7689808 9.66891115,24.481556 C9.19079731,23.2477739 9.75794149,21.866424 10.9391425,21.3143524 L11.0966591,21.2471262 L25.2419384,15.7655638 C26.8076637,15.1588157 28.5597789,15.3020655 30.0017024,16.1438144 L30.2267243,16.2825194 L41.2428756,23.4430177 C41.374338,23.5284683 41.536501,23.5463894 41.6811827,23.4955171 L41.7655085,23.4567284 L55.749306,15.377201 Z" id="路径-12" fill="#60759C" fill-rule="nonzero" transform="translate(34.499872, 21.782623) scale(-1, -1) translate(-34.499872, -21.782623) "></path>
        <g id="编组-2" transform="translate(36.000000, 27.000000)" fill="#60759C">
            <g id="编组" transform="translate(13.381967, 15.303617) rotate(-17.000000) translate(-13.381967, -15.303617) translate(3.881967, 2.803617)">
                <path d="M14.9528152,15.6205432 C16.0884858,15.6281322 17.0092624,16.5431136 17.0240217,17.6787136 L17.074497,21.5623728 C17.0888864,22.6695188 16.2030321,23.5787029 15.0958861,23.5930923 C15.0827364,23.5932632 15.0695853,23.5933048 15.0564348,23.5932169 C13.9207643,23.5856278 12.9999876,22.6706464 12.9852284,21.5350465 L12.9347531,17.6513873 C12.9203637,16.5442412 13.806218,15.6350571 14.913364,15.6206677 C14.9265137,15.6204968 14.9396647,15.6204553 14.9528152,15.6205432 Z" id="矩形" transform="translate(15.004625, 19.606880) rotate(-29.000000) translate(-15.004625, -19.606880) "></path>
                <path d="M8.92384532,-1.42782903 C3.1727737,-1.42782903 -1.50698881,3.15019952 -1.50698881,8.8197261 C-1.50698881,14.4892527 3.1727737,19.0672812 8.92384532,19.0672812 C14.6749169,19.0672812 19.3546794,14.4892527 19.3546794,8.8197261 C19.3546794,3.15019952 14.6749169,-1.42782903 8.92384532,-1.42782903 Z M8.92384532,2.57217097 C12.4852159,2.57217097 15.3546794,5.37925484 15.3546794,8.8197261 C15.3546794,12.2601974 12.4852159,15.0672812 8.92384532,15.0672812 C5.3624747,15.0672812 2.49301119,12.2601974 2.49301119,8.8197261 C2.49301119,5.37925484 5.3624747,2.57217097 8.92384532,2.57217097 Z" id="椭圆形" fill-rule="nonzero"></path>
            </g>
        </g>
    </g>
</svg>