<?xml version="1.0" encoding="UTF-8"?>
<svg width="72px" height="72px" viewBox="0 0 72 72" version="1.1" xmlns="http://www.w3.org/2000/svg" xmlns:xlink="http://www.w3.org/1999/xlink">
    <title>销售结算管理</title>
    <g id="销售结算管理" stroke="none" stroke-width="1" fill="none" fill-rule="evenodd">
        <g id="编组-2" transform="translate(9.000000, 14.000000)" fill="#60759C" fill-rule="nonzero">
            <path d="M44.5,-2.5 L8.5,-2.5 C2.70101013,-2.5 -2.00003806,2.20101013 -2.00003806,8 L-2.00003806,16.10274 L-1.02913312,16.8533627 C0.556283747,18.0790748 1.5,19.9590632 1.5,22 C1.5,24.0409368 0.556283747,25.9209252 -1.02913312,27.1466373 L-2.00003806,27.89726 L-2.00003806,36.0000117 C-2.00003806,41.7989899 2.70101013,46.5 8.5,46.5 L44.5,46.5 C50.2989899,46.5 55,41.7989899 55,36 L55.0007726,27.221395 L54.3058157,26.4960875 C53.1527413,25.2926552 52.5,23.7008762 52.5,22 C52.5,20.2991238 53.1527413,18.7073448 54.3058157,17.5039125 L55.0007726,16.778605 L55,7.99977999 C55,2.20101013 50.2989899,-2.5 44.5,-2.5 Z M8.5,2.5 L44.5,2.5 C47.5375661,2.5 50,4.96243388 50,8 L50.000879,14.8391957 C48.397776,16.8509256 47.5,19.357364 47.5,22 L47.5055467,22.3594816 C47.5793815,24.7499485 48.3879506,27.0143878 49.786664,28.8834448 L50,29.16 L50,35.99978 C50,39.0375661 47.5375661,41.5 44.5,41.5 L8.5,41.5 L8.27879286,41.4956328 C5.34378001,41.3795391 3,38.9634791 3,36 L2.999,30.26 L3.05461442,30.2085738 C5.23047716,28.0747257 6.5,25.1404719 6.5,22 L6.49479408,21.6519375 C6.40471801,18.6432739 5.14988965,15.8462429 3.05461442,13.7914262 L2.999,13.738 L3,8.00001174 C3,4.96243388 5.46243388,2.5 8.5,2.5 Z" id="形状结合"></path>
        </g>
        <path d="M27.5,22 C28.3284271,22 29,22.6715729 29,23.5 L29,27 L32.5,27 C33.3284271,27 34,27.6715729 34,28.5 C34,29.3284271 33.3284271,30 32.5,30 L29,30 L29,33.5 C29,34.3284271 28.3284271,35 27.5,35 C26.6715729,35 26,34.3284271 26,33.5 L26,30 L22.5,30 C21.6715729,30 21,29.3284271 21,28.5 C21,27.6715729 21.6715729,27 22.5,27 L26,27 L26,23.5 C26,22.6715729 26.6715729,22 27.5,22 Z" id="形状结合" fill="#60759C"></path>
        <path d="M43.5,37 C44.3284271,37 45,37.6715729 45,38.5 L45,42 L48.5,42 C49.3284271,42 50,42.6715729 50,43.5 C50,44.3284271 49.3284271,45 48.5,45 L45,45 L45,48.5 C45,49.3284271 44.3284271,50 43.5,50 C42.6715729,50 42,49.3284271 42,48.5 L42,45 L38.5,45 C37.6715729,45 37,44.3284271 37,43.5 C37,42.6715729 37.6715729,42 38.5,42 L42,42 L42,38.5 C42,37.6715729 42.6715729,37 43.5,37 Z" id="形状结合" fill="#60759C" transform="translate(43.500000, 43.500000) rotate(45.000000) translate(-43.500000, -43.500000) "></path>
        <rect id="矩形备份" fill="#60759C" x="37" y="27" width="13" height="3" rx="1.5"></rect>
        <rect id="矩形备份-2" fill="#60759C" x="21" y="44" width="13" height="3" rx="1.5"></rect>
        <rect id="矩形备份-3" fill="#60759C" x="21" y="39" width="13" height="3" rx="1.5"></rect>
    </g>
</svg>