<?xml version="1.0" encoding="UTF-8"?>
<svg width="72px" height="72px" viewBox="0 0 72 72" version="1.1" xmlns="http://www.w3.org/2000/svg" xmlns:xlink="http://www.w3.org/1999/xlink">
    <title>代垫运费发票</title>
    <g id="代垫运费发票" stroke="none" stroke-width="1" fill="none" fill-rule="evenodd">
        <path d="M30,7.5 C31.3807119,7.5 32.5,8.61928813 32.5,10 C32.5,11.3254834 31.4684641,12.4100387 30.1643757,12.4946823 L30,12.5 L17.7037037,12.5 C14.9034679,12.5 12.6198335,14.7118335 12.5045651,17.4837358 L12.5,17.7037037 L12.5,54.2962963 C12.5,57.0965321 14.7118335,59.3801665 17.4837358,59.4954349 L17.7037037,59.5 L54.2962963,59.5 C57.0965321,59.5 59.3801665,57.2881665 59.4954349,54.5162642 L59.5,54.2962963 L59.5,41.6045476 C59.5,40.2238358 60.6192881,39.1045476 62,39.1045476 C63.3254834,39.1045476 64.4100387,40.1360836 64.4946823,41.440172 L64.5,41.6045476 L64.5,54.2962963 C64.5,59.8377237 60.0826557,64.3474252 54.5771584,64.4962092 L54.2962963,64.5 L17.7037037,64.5 C12.1622763,64.5 7.65257485,60.0826557 7.50379075,54.5771584 L7.5,54.2962963 L7.5,17.7037037 C7.5,12.1622763 11.9173443,7.65257485 17.4228416,7.50379075 L17.7037037,7.5 L30,7.5 Z" id="路径" fill="#60759C" fill-rule="nonzero" transform="translate(36.000000, 36.000000) scale(1, -1) translate(-36.000000, -36.000000) "></path>
        <g id="现金" transform="translate(20.000000, 19.000000)" fill="#60759C" fill-rule="nonzero">
            <g id="时间轴-羊角标">
                <path d="M20.3822151,16.8910109 C20.6825154,17.2200103 20.8546095,17.6130112 20.8927251,18.0700113 C20.8546101,18.5450118 20.6825149,18.9420118 20.3822151,19.2600126 C20.0807586,19.580013 19.6707331,19.7570127 19.1463636,19.7950133 L13.3621079,19.7680132 L13.3621079,22.6720205 C13.2835678,24.2240218 12.3480161,25.0000237 10.5600735,25.0000237 C9.67649746,25.0000237 8.98927166,24.8100235 8.49723996,24.4250231 C8.00289882,24.0420221 7.73724851,23.4580224 7.6991329,22.6720205 L7.6991329,19.8220172 L1.88253373,19.8220172 C1.34199253,19.7860172 0.92388261,19.5800169 0.633976145,19.2060155 L0.633976093,19.2060154 C0.343187021,18.8341278 0.16160423,18.4064247 0.104984913,17.960013 C0.166199984,17.5040115 0.341760189,17.1300121 0.633976093,16.8370112 C0.922726429,16.5450114 1.34199248,16.3800112 1.88253367,16.3430116 L7.69913285,16.3430116 L7.69913285,13.6170075 L1.88253367,13.5900074 C1.34199248,13.5530074 0.923882558,13.3800072 0.633976093,13.0700068 C0.341760189,12.758007 0.166200548,12.365006 0.104984913,11.8900055 C0.166199984,11.434004 0.341760189,11.0600045 0.633976093,10.7670037 C0.922726429,10.4750038 1.34199248,10.3110022 1.88253367,10.2740026 L6.22188162,10.2740026 L2.18400143,3.81000583 L2.18400145,3.81000585 C1.95593718,3.551695 1.76366386,3.27111118 1.61111965,2.9740039 L1.61111957,2.97400375 C1.4288166,2.62619329 1.34639276,2.24536276 1.37087929,1.86400246 C1.47020941,1.35200235 1.67233577,0.937001867 1.97147999,0.617001494 C2.27408978,0.2980021 2.837731,0.0920008836 3.66009139,0.000999801124 C4.14172639,0.036999843 4.57485189,0.18900002 4.95600234,0.454000817 C5.33715278,0.718000147 5.64900314,1.00600097 5.89155343,1.31600133 L10.4699663,8.93300238 L15.501159,1.26199736 C15.7413992,0.951997001 16.0544035,0.676996681 16.4367101,0.439996894 C16.8178605,0.199996859 17.2486766,0.054996446 17.7303116,-3.61801237e-06 C18.0329214,0.0179964029 18.3078122,0.054996446 18.5596031,0.108996509 C18.8079284,0.164996574 19.0308442,0.25599668 19.2225727,0.384997807 C19.411993,0.511997954 19.573692,0.694998167 19.7042077,0.931997955 C19.8347229,1.16899823 19.928278,1.47999908 19.9894925,1.86399855 C19.9894925,2.39399917 19.7896773,2.89599926 19.3877357,3.37099982 L14.7180731,10.2750118 L19.1475146,10.2750118 C19.6695746,10.3110118 20.0819095,10.476012 20.3810566,10.7680128 C20.6813569,11.0610136 20.853451,11.4350131 20.893876,11.8910146 C20.853451,12.3670161 20.6778908,12.7690161 20.3671943,13.097017 C20.0553439,13.4250179 19.6395434,13.6070176 19.1163273,13.6450181 L13.3609466,13.6720182 L13.3609466,16.3430174 L19.1452023,16.3430174 C19.6695718,16.3800174 20.0795973,16.5630176 20.3810537,16.8910185 L20.3822151,16.8910109 Z" id="路径"></path>
            </g>
        </g>
        <g id="编组" transform="translate(40.000000, 39.000000)" fill="#60759C" fill-rule="nonzero">
            <path d="M12,-2 C4.2680135,-2 -2,4.2680135 -2,12 C-2,19.7319865 4.2680135,26 12,26 C19.7319865,26 26,19.7319865 26,12 C26,4.2680135 19.7319865,-2 12,-2 Z M12,2 C17.5228475,2 22,6.4771525 22,12 C22,17.5228475 17.5228475,22 12,22 C6.4771525,22 2,17.5228475 2,12 C2,6.4771525 6.4771525,2 12,2 Z" id="椭圆形"></path>
            <path d="M11,6 C12.0543618,6 12.9181651,6.81587779 12.9945143,7.85073766 L13,8 L13,11.833 L16,11.8333333 C17.0543618,11.8333333 17.9181651,12.6492111 17.9945143,13.684071 L18,13.8333333 C18,14.8876951 17.1841222,15.7514985 16.1492623,15.8278476 L16,15.8333333 L12,15.8333333 C10.4023191,15.8333333 9.09633912,14.5844134 9.00509269,13.0096061 L9,12.8333333 L9,8 C9,6.8954305 9.8954305,6 11,6 Z" id="路径-9"></path>
        </g>
    </g>
</svg>