<?xml version="1.0" encoding="UTF-8"?>
<svg width="72px" height="72px" viewBox="0 0 72 72" version="1.1" xmlns="http://www.w3.org/2000/svg" xmlns:xlink="http://www.w3.org/1999/xlink">
    <title>销售大屏</title>
    <g id="销售大屏" stroke="none" stroke-width="1" fill="none" fill-rule="evenodd">
        <g id="编组-2" transform="translate(11.000000, 12.000000)" fill="#60759C">
            <path d="M45,-2.5 L5,-2.5 C0.857864376,-2.5 -2.5,0.857864376 -2.5,5 L-2.5,33 C-2.5,37.1421356 0.857864376,40.5 5,40.5 L45,40.5 C49.1421356,40.5 52.5,37.1421356 52.5,33 L52.5,5 C52.5,0.857864376 49.1421356,-2.5 45,-2.5 Z M5,2.5 L45,2.5 C46.3807119,2.5 47.5,3.61928813 47.5,5 L47.5,33 C47.5,34.3807119 46.3807119,35.5 45,35.5 L5,35.5 C3.61928813,35.5 2.5,34.3807119 2.5,33 L2.5,5 C2.5,3.61928813 3.61928813,2.5 5,2.5 Z" id="Rectangle-5" fill-rule="nonzero"></path>
            <rect id="Rectangle-5" transform="translate(25.000000, 41.500000) scale(1, -1) rotate(90.000000) translate(-25.000000, -41.500000) " x="19" y="39" width="12" height="5" rx="2.5"></rect>
            <path d="M24.9612513,42.0078131 C25.7397494,41.946239 26.5353936,42.2492799 27.0756137,42.8930892 C27.3071367,43.1690074 27.4688737,43.4802589 27.5627021,43.8053877 L33.7674717,49.0128232 C34.8251583,49.9003277 34.9631182,51.4772167 34.0756137,52.5349033 C33.1881093,53.59259 31.6112203,53.7305499 30.5535336,52.8430454 L24.83,48.04 L19.1070272,52.8430454 C18.0953269,53.6919627 16.6085909,53.602648 15.7045188,52.6676379 L15.5849471,52.5349033 C14.6974426,51.4772167 14.8354025,49.9003277 15.8930892,49.0128232 L15.8930892,49.0128232 L22.0975729,43.806379 C22.1913585,43.4808916 22.3531889,43.1692878 22.5849471,42.8930892 C23.1556185,42.2129895 24.0113213,41.9131579 24.8307452,42.0217055 Z" id="形状结合"></path>
        </g>
        <path d="M52.5362736,22.9733019 C53.6555881,22.1649082 55.2183043,22.4169592 56.0266981,23.5362736 C56.8014088,24.60895 56.602204,26.0888478 55.5991097,26.9218067 L55.4637264,27.0266981 L44.8660477,34.6805771 C42.9194993,36.0864176 40.2959578,36.0622328 38.3800907,34.6473794 L38.1775902,34.4904683 L30.3666422,28.144073 C30.2410901,28.042062 30.0757897,28.0082936 29.9230738,28.0488454 L29.833373,28.0821435 L19.0898641,33.2862839 C17.8472607,33.8881992 16.3519828,33.3688189 15.7500675,32.1262155 C15.173232,30.9353872 15.6261975,29.5125021 16.7586061,28.8662284 L16.9101359,28.7864189 L27.6536449,23.5822785 C29.4985458,22.6886112 31.6799499,22.8976248 33.3177723,24.1071135 L33.5196053,24.263503 L41.3305534,30.6098983 C41.4809514,30.7320968 41.6855948,30.7547596 41.8564126,30.6753837 L41.938595,30.627181 L52.5362736,22.9733019 Z" id="路径-12" fill="#60759C" fill-rule="nonzero" transform="translate(35.999806, 29.110832) scale(-1, -1) translate(-35.999806, -29.110832) "></path>
    </g>
</svg>