<?xml version="1.0" encoding="UTF-8"?>
<svg width="72px" height="72px" viewBox="0 0 72 72" version="1.1" xmlns="http://www.w3.org/2000/svg" xmlns:xlink="http://www.w3.org/1999/xlink">
    <title>营销费用</title>
    <g id="营销费用" stroke="none" stroke-width="1" fill="none" fill-rule="evenodd">
        <g id="融资" transform="translate(12.000000, 10.000000)" fill="#60759C" fill-rule="nonzero">
            <path d="M24.638,0.67 L24.5410586,0.559410873 C22.394979,-1.81204455 18.9101456,-2.40854824 14.4421607,-1.34161242 L14.2040509,-1.28193959 C8.40838933,0.240630694 8.0241914,5.5851161 12.0838929,13.5317807 L12.422,14.181 L12.3777276,14.2223268 C-1.40996532,26.8857135 -5.43791177,38.596068 0.923408835,49.0267039 C2.71446221,51.9634881 6.24826405,53.52633 11.7096901,54.2956758 L12.1567363,54.3563278 C16.3093917,54.8986574 20.1880356,55 30.2627889,55 L30.7952309,54.9984112 C40.8443459,54.937987 47.058267,53.1512588 49.4213915,49.1577365 L49.472,49.068 L49.3860923,49.1875724 C50.4441593,47.7808957 51,46.2610295 51,44.6706601 C51,42.946499 50.0930195,36.8427908 49.6985276,35.5668015 L48.7593631,32.561339 C46.9011813,26.6963474 45.9626544,24.3405017 44.5482587,21.8465807 L44.2994172,21.413051 C41.9737048,17.4103695 39.5541107,14.6297863 36.6601819,13.1893204 L36.57,13.146 L36.8059557,12.8892084 C40.5225139,8.78224282 41.4571238,4.8421957 39.1602831,1.25883959 C36.4733859,-2.933053 31.6021149,-2.98379643 25.0587924,0.446900333 L24.638,0.67 Z M35.7926886,3.41738252 C37.1916028,5.59986207 36.1085831,8.42213323 31.7991343,12.1985098 L28.5908802,14.9547627 L32.3336284,15.8978468 L32.7750359,16.0166812 C33.1604312,16.1265423 33.5910684,16.2639924 34.0770887,16.4328419 C36.4215848,17.2473488 38.621961,19.6080025 40.8394135,23.4203185 L41.0688726,23.8198705 C42.5142152,26.3683582 43.444521,28.8804093 45.8769975,36.7482869 C46.152207,37.6384559 47,43.3438495 47,44.6706601 C47,45.3510182 46.7476824,46.0409444 46.1894327,46.783125 L46.1026354,46.8985201 L46.0333143,47.0251865 C44.680316,49.4974411 39.4292419,51 30.2627889,51 L26.5369666,50.9874253 C11.5303229,50.8780216 6.31807604,50.019386 4.40177752,47.045055 L4.33842228,46.9439934 C-0.935745748,38.2959578 2.70262819,28.2329192 15.9223987,16.4077789 L20.3229697,12.5153606 L16.076,12.537 L15.7223635,11.8787053 C12.5513158,5.86717699 12.7630989,3.17180618 15.3712219,2.54899749 C19.2200484,1.62991404 21.2724668,2.24752234 22.1914479,4.19392339 L23.1361929,6.1948925 L25.0317839,5.05333416 C30.9037933,1.5171065 34.2466593,1.21117822 35.7117595,3.29678102 L35.7926886,3.41738252 Z" id="形状结合"></path>
        </g>
        <g id="现金" transform="translate(26.000000, 32.000000)" fill="#60759C" fill-rule="nonzero">
            <g id="时间轴-羊角标">
                <path d="M20.3822151,16.8910109 C20.6825154,17.2200103 20.8546095,17.6130112 20.8927251,18.0700113 C20.8546101,18.5450118 20.6825149,18.9420118 20.3822151,19.2600126 C20.0807586,19.580013 19.6707331,19.7570127 19.1463636,19.7950133 L13.3621079,19.7680132 L13.3621079,22.6720205 C13.2835678,24.2240218 12.3480161,25.0000237 10.5600735,25.0000237 C9.67649746,25.0000237 8.98927166,24.8100235 8.49723996,24.4250231 C8.00289882,24.0420221 7.73724851,23.4580224 7.6991329,22.6720205 L7.6991329,19.8220172 L1.88253373,19.8220172 C1.34199253,19.7860172 0.92388261,19.5800169 0.633976145,19.2060155 L0.633976093,19.2060154 C0.343187021,18.8341278 0.16160423,18.4064247 0.104984913,17.960013 C0.166199984,17.5040115 0.341760189,17.1300121 0.633976093,16.8370112 C0.922726429,16.5450114 1.34199248,16.3800112 1.88253367,16.3430116 L7.69913285,16.3430116 L7.69913285,13.6170075 L1.88253367,13.5900074 C1.34199248,13.5530074 0.923882558,13.3800072 0.633976093,13.0700068 C0.341760189,12.758007 0.166200548,12.365006 0.104984913,11.8900055 C0.166199984,11.434004 0.341760189,11.0600045 0.633976093,10.7670037 C0.922726429,10.4750038 1.34199248,10.3110022 1.88253367,10.2740026 L6.22188162,10.2740026 L2.18400143,3.81000583 L2.18400145,3.81000585 C1.95593718,3.551695 1.76366386,3.27111118 1.61111965,2.9740039 L1.61111957,2.97400375 C1.4288166,2.62619329 1.34639276,2.24536276 1.37087929,1.86400246 C1.47020941,1.35200235 1.67233577,0.937001867 1.97147999,0.617001494 C2.27408978,0.2980021 2.837731,0.0920008836 3.66009139,0.000999801124 C4.14172639,0.036999843 4.57485189,0.18900002 4.95600234,0.454000817 C5.33715278,0.718000147 5.64900314,1.00600097 5.89155343,1.31600133 L10.4699663,8.93300238 L15.501159,1.26199736 C15.7413992,0.951997001 16.0544035,0.676996681 16.4367101,0.439996894 C16.8178605,0.199996859 17.2486766,0.054996446 17.7303116,-3.61801237e-06 C18.0329214,0.0179964029 18.3078122,0.054996446 18.5596031,0.108996509 C18.8079284,0.164996574 19.0308442,0.25599668 19.2225727,0.384997807 C19.411993,0.511997954 19.573692,0.694998167 19.7042077,0.931997955 C19.8347229,1.16899823 19.928278,1.47999908 19.9894925,1.86399855 C19.9894925,2.39399917 19.7896773,2.89599926 19.3877357,3.37099982 L14.7180731,10.2750118 L19.1475146,10.2750118 C19.6695746,10.3110118 20.0819095,10.476012 20.3810566,10.7680128 C20.6813569,11.0610136 20.853451,11.4350131 20.893876,11.8910146 C20.853451,12.3670161 20.6778908,12.7690161 20.3671943,13.097017 C20.0553439,13.4250179 19.6395434,13.6070176 19.1163273,13.6450181 L13.3609466,13.6720182 L13.3609466,16.3430174 L19.1452023,16.3430174 C19.6695718,16.3800174 20.0795973,16.5630176 20.3810537,16.8910185 L20.3822151,16.8910109 Z" id="路径"></path>
            </g>
        </g>
    </g>
</svg>