<?xml version="1.0" encoding="UTF-8"?>
<svg width="72px" height="72px" viewBox="0 0 72 72" version="1.1" xmlns="http://www.w3.org/2000/svg" xmlns:xlink="http://www.w3.org/1999/xlink">
    <title>定价策略</title>
    <g id="定价策略" stroke="none" stroke-width="1" fill="none" fill-rule="evenodd">
        <path d="M30,12.5 C31.3807119,12.5 32.5,13.6192881 32.5,15 C32.5,16.3254834 31.4684641,17.4100387 30.1643757,17.4946823 L30,17.5 L17.7037037,17.5 C14.9034679,17.5 12.6198335,19.7118335 12.5045651,22.4837358 L12.5,22.7037037 L12.5,54.2962963 C12.5,57.0965321 14.7118335,59.3801665 17.4837358,59.4954349 L17.7037037,59.5 L54.2962963,59.5 C57.0965321,59.5 59.3801665,57.2881665 59.4954349,54.5162642 L59.5,54.2962963 L59.5,46.6045476 C59.5,45.2238358 60.6192881,44.1045476 62,44.1045476 C63.3254834,44.1045476 64.4100387,45.1360836 64.4946823,46.440172 L64.5,46.6045476 L64.5,54.2962963 C64.5,59.8377237 60.0826557,64.3474252 54.5771584,64.4962092 L54.2962963,64.5 L17.7037037,64.5 C12.1622763,64.5 7.65257485,60.0826557 7.50379075,54.5771584 L7.5,54.2962963 L7.5,22.7037037 C7.5,17.1622763 11.9173443,12.6525748 17.4228416,12.5037908 L17.7037037,12.5 L30,12.5 Z" id="路径" fill="#60759C" fill-rule="nonzero" transform="translate(36.000000, 38.500000) scale(1, -1) translate(-36.000000, -38.500000) "></path>
        <path d="M33.5,40.0933449 C34.8807119,40.0933449 36,41.212633 36,42.5933449 C36,43.9740567 34.8807119,45.0933449 33.5,45.0933449 L22.5,45.0933449 C21.1192881,45.0933449 20,43.9740567 20,42.5933449 C20,41.212633 21.1192881,40.0933449 22.5,40.0933449 L33.5,40.0933449 Z" id="矩形" fill="#60759C" fill-rule="nonzero" transform="translate(28.000000, 42.593345) scale(1, -1) translate(-28.000000, -42.593345) "></path>
        <path d="M29.5,12 C30.8807119,12 32,13.1192881 32,14.5 C32,15.8807119 30.8807119,17 29.5,17 L20.5,17 C19.1192881,17 18,15.8807119 18,14.5 C18,13.1192881 19.1192881,12 20.5,12 L29.5,12 Z" id="矩形备份-2" fill="#60759C" fill-rule="nonzero" transform="translate(25.000000, 14.500000) scale(1, -1) rotate(90.000000) translate(-25.000000, -14.500000) "></path>
        <path d="M51.5,12 C52.8807119,12 54,13.1192881 54,14.5 C54,15.8807119 52.8807119,17 51.5,17 L42.5,17 C41.1192881,17 40,15.8807119 40,14.5 C40,13.1192881 41.1192881,12 42.5,12 L51.5,12 Z" id="矩形备份-3" fill="#60759C" fill-rule="nonzero" transform="translate(47.000000, 14.500000) scale(1, -1) rotate(90.000000) translate(-47.000000, -14.500000) "></path>
        <path d="M59.5,25.0933449 C60.8807119,25.0933449 62,26.212633 62,27.5933449 C62,28.9740567 60.8807119,30.0933449 59.5,30.0933449 L12.5,30.0933449 C11.1192881,30.0933449 10,28.9740567 10,27.5933449 C10,26.212633 11.1192881,25.0933449 12.5,25.0933449 L59.5,25.0933449 Z" id="矩形备份" fill="#60759C" fill-rule="nonzero" transform="translate(36.000000, 27.593345) scale(1, -1) translate(-36.000000, -27.593345) "></path>
        <path d="M53,38 C45.2680135,38 39,44.2680135 39,52 C39,59.7319865 45.2680135,66 53,66 C60.7319865,66 67,59.7319865 67,52 C67,44.2680135 60.7319865,38 53,38 Z M53,42 C58.5228475,42 63,46.4771525 63,52 C63,57.5228475 58.5228475,62 53,62 C47.4771525,62 43,57.5228475 43,52 C43,46.4771525 47.4771525,42 53,42 Z" id="椭圆形" fill="#60759C" fill-rule="nonzero"></path>
        <g id="现金" transform="translate(48.000000, 45.000000)" fill="#60759C" fill-rule="nonzero">
            <g id="时间轴-羊角标">
                <path d="M9.7058167,8.78332565 C9.84881686,8.95440534 9.93076642,9.15876583 9.94891671,9.39640586 C9.93076669,9.64340614 9.8488166,9.84984613 9.7058167,10.0152066 C9.56226599,10.1816068 9.36701577,10.2736466 9.11731601,10.2934069 L6.36290851,10.2793669 L6.36290851,11.7894507 C6.32550847,12.5964914 5.88000768,13.0000123 5.02860642,13.0000123 C4.60785593,13.0000123 4.28060555,12.9012122 4.04630474,12.701012 C3.8109042,12.5018515 3.68440405,12.1981717 3.66625376,11.7894507 L3.66625376,10.3074489 L0.896444631,10.3074489 C0.639044063,10.2887289 0.4399441,10.1816088 0.301893402,9.98712807 L0.301893378,9.98712803 C0.163422391,9.79374646 0.0769543951,9.57134083 0.0499928158,9.33920677 C0.0791428498,9.10208599 0.162742947,8.90760627 0.301893378,8.75524584 C0.439393538,8.60340591 0.639044038,8.51760581 0.896444606,8.49836605 L3.66625374,8.49836605 L3.66625374,7.08084389 L0.896444606,7.06680387 C0.639044038,7.04756385 0.439944075,6.95760375 0.301893378,6.79640356 C0.162742947,6.63416362 0.0791431183,6.42980313 0.0499928158,6.18280284 C0.0791428498,5.94568206 0.162742947,5.75120234 0.301893378,5.59884191 C0.439393538,5.44700199 0.639044038,5.36172113 0.896444606,5.34248136 L2.96280077,5.34248136 L1.04000068,1.98120303 L1.04000069,1.98120304 C0.931398658,1.8468814 0.839839934,1.70097781 0.767199835,1.54648203 L0.767199797,1.54648195 C0.680388856,1.36562051 0.641139408,1.16758864 0.652799664,0.969281278 C0.700099719,0.703041222 0.796350368,0.487240971 0.938799997,0.320840777 C1.0828999,0.154961092 1.35130048,0.0478404595 1.74290066,0.000519896584 C1.97225066,0.0192399184 2.1785009,0.0982800103 2.36000111,0.236080425 C2.54150132,0.373360077 2.6900015,0.523120505 2.80550163,0.684320692 L4.98569826,4.64516124 L7.38150427,0.656238628 C7.4959044,0.495038441 7.64495404,0.352038274 7.82700479,0.228798385 C8.008505,0.103998367 8.21365551,0.0285981519 8.44300551,-1.88136643e-06 C8.58710541,0.00935812953 8.71800583,0.0285981519 8.83790623,0.0566781846 C8.95615637,0.0857982185 9.06230676,0.133118274 9.15360606,0.200198859 C9.24380617,0.266238936 9.32080572,0.361399047 9.38295606,0.484638936 C9.44510613,0.60787908 9.48965619,0.769599522 9.51880595,0.969279247 C9.51880595,1.24487957 9.42365584,1.50591962 9.23225508,1.7529199 L7.00860625,5.34300611 L9.11786408,5.34300611 C9.3664641,5.36172614 9.56281406,5.44752623 9.70526503,5.59936667 C9.8482652,5.7517271 9.93021476,5.94620682 9.94946478,6.1833276 C9.93021476,6.43084839 9.84661466,6.63988838 9.69866395,6.81044884 C9.55016378,6.98100929 9.35216355,7.07564915 9.10301299,7.09540942 L6.3623555,7.10944944 L6.3623555,8.49836902 L9.116763,8.49836902 C9.36646276,8.51760905 9.56171298,8.61276916 9.70526369,8.78332961 L9.7058167,8.78332565 Z" id="路径"></path>
            </g>
        </g>
    </g>
</svg>