<?xml version="1.0" encoding="UTF-8"?>
<svg width="72px" height="72px" viewBox="0 0 72 72" version="1.1" xmlns="http://www.w3.org/2000/svg" xmlns:xlink="http://www.w3.org/1999/xlink">
    <title>制定基价</title>
    <g id="制定基价" stroke="none" stroke-width="1" fill="none" fill-rule="evenodd">
        <g id="编组" transform="translate(42.000000, 36.000000)" fill="#60759C" fill-rule="nonzero">
            <path d="M11.5,-2 C4.04415588,-2 -2,4.04415588 -2,11.5 C-2,18.9558441 4.04415588,25 11.5,25 C18.9558441,25 25,18.9558441 25,11.5 C25,4.04415588 18.9558441,-2 11.5,-2 Z M11.5,2 C16.7467051,2 21,6.25329488 21,11.5 C21,16.7467051 16.7467051,21 11.5,21 C6.25329488,21 2,16.7467051 2,11.5 C2,6.25329488 6.25329488,2 11.5,2 Z" id="椭圆形"></path>
            <path d="M14.8682693,8.05597868 C15.3926547,7.41464299 16.3376584,7.31983604 16.9789941,7.84422143 C17.5802463,8.33583273 17.701151,9.19712805 17.2818352,9.83131393 L17.1907513,9.95494615 L12.9031032,15.1974563 C12.0403491,16.197383 10.5584891,16.3472237 9.51639583,15.5690002 L9.37711747,15.457119 L5.98376166,12.5292729 C5.35653489,11.9880908 5.28678191,11.0409082 5.82796402,10.4136815 C6.33532225,9.82565638 7.1995168,9.72759848 7.82237818,10.1635585 L7.94355545,10.2578838 L10.948,12.85 L14.8682693,8.05597868 Z" id="路径-2"></path>
        </g>
        <path d="M32.1510945,7.5 C33.5318063,7.5 34.6510945,8.61928813 34.6510945,10 C34.6510945,11.3254834 33.6195585,12.4100387 32.3154702,12.4946823 L32.1510945,12.5 L18.2592593,12.5 C15.7018326,12.5 13.6155415,14.5171714 13.5046371,17.0472632 L13.5,17.2592593 L13.5,51.7407407 C13.5,54.2981674 15.5171714,56.3844585 18.0472632,56.4953629 L18.2592593,56.5 L52.7407407,56.5 C55.2981674,56.5 57.3844585,54.4828286 57.4953629,51.9527368 L57.5,51.7407407 L57.5,43.4808652 C57.5,42.1001534 58.6192881,40.9808652 60,40.9808652 C61.3254834,40.9808652 62.4100387,42.0124012 62.4946823,43.3164895 L62.5,43.4808652 L62.5,51.7407407 C62.5,57.0392767 58.2774898,61.3515926 53.0139071,61.4962507 L52.7407407,61.5 L18.2592593,61.5 C12.9607233,61.5 8.64840738,57.2774898 8.50374931,52.0139071 L8.5,51.7407407 L8.5,17.2592593 C8.5,11.9607233 12.7225102,7.64840738 17.9860929,7.50374931 L18.2592593,7.5 L32.1510945,7.5 Z" id="路径" fill="#60759C" fill-rule="nonzero" transform="translate(35.500000, 34.500000) scale(1, -1) translate(-35.500000, -34.500000) "></path>
        <rect id="矩形" fill="#60759C" x="21" y="23" width="21" height="5" rx="2.5"></rect>
        <rect id="矩形备份" fill="#60759C" x="21" y="36" width="9" height="5" rx="2.5"></rect>
    </g>
</svg>