<?xml version="1.0" encoding="UTF-8"?>
<svg width="72px" height="72px" viewBox="0 0 72 72" version="1.1" xmlns="http://www.w3.org/2000/svg" xmlns:xlink="http://www.w3.org/1999/xlink">
    <title>销售信用</title>
    <g id="销售信用" stroke="none" stroke-width="1" fill="none" fill-rule="evenodd">
        <g id="编组" transform="translate(10.000000, 9.000000)" fill="#60759C">
            <path d="M34.32,3.55271368e-15 C36.6789352,3.55271368e-15 38.7321486,1.30895044 39.7929382,3.24014933 L44,3.24 C48.418278,3.24 52,6.821722 52,11.24 L52,47.24 C52,51.658278 48.418278,55.24 44,55.24 L8,55.24 C3.581722,55.24 0,51.658278 0,47.24 L0,11.24 C0,6.821722 3.581722,3.24 8,3.24 L13.2470618,3.24014933 C14.3078514,1.30895044 16.3610648,3.55271368e-15 18.72,3.55271368e-15 L34.32,3.55271368e-15 Z M34.32,5 L18.72,5 C18.3060257,5 17.9311777,5.2015505 17.7007639,5.53238792 L17.6294532,5.64735634 L16.2052098,8.24023353 L8,8.24 C6.40231912,8.24 5.09633912,9.48891996 5.00509269,11.0637272 L5,11.24 L5,47.24 C5,48.8376809 6.24891996,50.1436609 7.82372721,50.2349073 L8,50.24 L44,50.24 C45.5976809,50.24 46.9036609,48.99108 46.9949073,47.4162728 L47,47.24 L47,11.24 C47,9.64231912 45.75108,8.33633912 44.1764319,8.24509269 L44.0001775,8.24 L36.8348017,8.24025434 L35.4105468,5.64735634 C35.2135296,5.28868064 34.8603773,5.05126256 34.4563979,5.00736571 L34.32,5 Z" id="形状结合" fill-rule="nonzero"></path>
            <g id="编组-28" transform="translate(12.000000, 12.000000)">
                <path d="M14.9524001,0.757772228 L25.9673002,7.11722777 C26.779478,7.58613886 27.2798002,8.45272228 27.2798002,9.39054446 L27.2798002,22.1094555 C27.2798002,23.0472777 26.779478,23.9138611 25.9673002,24.3827722 L14.9524001,30.7422278 C14.1402223,31.2111389 13.1395779,31.2111389 12.3274001,30.7422278 L1.3125,24.3827722 C0.500322174,23.9138611 -9.9475983e-14,23.0472777 -9.9475983e-14,22.1094555 L-9.9475983e-14,9.39054446 C-9.9475983e-14,8.45272228 0.500322174,7.58613886 1.3125,7.11722777 L12.3274001,0.757772228 C13.1395779,0.288861142 14.1402223,0.288861142 14.9524001,0.757772228 Z M13.64,4.041 L3.499,9.896 L3.499,21.603 L13.64,27.458 L23.779,21.604 L23.779,9.895 L13.64,4.041 Z" id="多边形" fill-rule="nonzero"></path>
                <rect id="矩形" transform="translate(10.198514, 13.781250) rotate(-60.000000) translate(-10.198514, -13.781250) " x="8.886014" y="8.96875" width="2.625" height="9.625" rx="1.3125"></rect>
                <rect id="矩形备份-19" transform="translate(16.702400, 13.781250) scale(-1, 1) rotate(-60.000000) translate(-16.702400, -13.781250) " x="15.3899001" y="8.96875" width="2.625" height="9.625" rx="1.3125"></rect>
                <rect id="矩形备份-20" transform="translate(13.202400, 18.812500) scale(-1, 1) translate(-13.202400, -18.812500) " x="11.8899001" y="14" width="2.625" height="9.625" rx="1.3125"></rect>
            </g>
        </g>
    </g>
</svg>