<?xml version="1.0" encoding="UTF-8"?>
<svg width="72px" height="72px" viewBox="0 0 72 72" version="1.1" xmlns="http://www.w3.org/2000/svg" xmlns:xlink="http://www.w3.org/1999/xlink">
    <title>调入需求</title>
    <g id="调入需求" stroke="none" stroke-width="1" fill="none" fill-rule="evenodd">
        <g id="编组-3" transform="translate(13.000000, 9.000000)" fill="#60759C" fill-rule="nonzero">
            <g id="编组" transform="translate(0.000000, 0.000000)">
                <path d="M25.5732775,-1.15419267 L4,-1.15419267 C0.410149126,-1.15419267 -2.5,1.75595646 -2.5,5.34580733 L-2.5,48.486486 C-2.5,52.0763369 0.410149126,54.986486 4,54.986486 L39.5135135,54.986486 C43.1033644,54.986486 46.0135135,52.0763369 46.0135135,48.486486 L46.0135135,13.3593112 C46.0135135,11.8114218 45.2179695,10.3721776 43.9072448,9.54879281 L27.9670087,-0.464711096 C27.2498748,-0.915207778 26.4201708,-1.15419267 25.5732775,-1.15419267 Z M25.428,3.845 L41.013,13.635 L41.0135135,48.486486 C41.0135135,49.3149131 40.3419406,49.986486 39.5135135,49.986486 L4,49.986486 C3.17157288,49.986486 2.5,49.3149131 2.5,48.486486 L2.5,5.34580733 C2.5,4.51738021 3.17157288,3.84580733 4,3.84580733 L25.428,3.845 Z" id="路径-5"></path>
                <path d="M28.6081081,-1.42108547e-14 L28.6081081,10 C28.6081081,11.3254834 29.639644,12.4100387 30.9437324,12.4946823 L31.1081081,12.5 L43.1081081,12.5 L43.1081081,17.5 L31.1081081,17.5 C27.0471908,17.5 23.7400906,14.2725256 23.6119617,10.2427311 L23.6081081,10 L23.6081081,-1.42108547e-14 L28.6081081,-1.42108547e-14 Z" id="路径-6"></path>
            </g>
            <path d="M13.8555556,14 C15.2362674,14 16.3555556,15.1192881 16.3555556,16.5 C16.3555556,17.8807119 15.2362674,19 13.8555556,19 L9.65555556,19 C8.27484368,19 7.15555556,17.8807119 7.15555556,16.5 C7.15555556,15.1192881 8.27484368,14 9.65555556,14 L13.8555556,14 Z" id="矩形备份"></path>
        </g>
        <path d="M46,43.5369486 C46,44.2389897 45.6862024,44.8752683 45.1917969,45.3111605 L37.1247583,52.460687 C36.694507,52.8373585 36.1251387,53.0666667 35.5041681,53.0666667 C34.1639038,53.0666667 33.0785128,52.0020707 33.0785128,50.6861308 C33.0785128,49.9761706 33.3923104,49.3478111 33.8867159,48.9119189 L37.2670132,45.9178287 L26.4183334,45.9178287 C25.082253,45.9178287 24,44.8532327 24,43.5297181 C24,42.2137783 25.082253,41.1491823 26.4183334,41.1491823 L37.2670132,41.1491823 L33.8867159,38.1547478 C33.3923104,37.7185113 33.0785128,37.0863644 33.0785128,36.3808801 C33.0785128,35.064596 34.1639038,34 35.5041681,34 C36.1251387,34 36.694507,34.2293082 37.1247583,34.6135544 L45.1917969,41.7627366 C45.6858538,42.1986288 46,42.8345631 46,43.5369486" id="路径" fill="#60759C"></path>
    </g>
</svg>