<?xml version="1.0" encoding="UTF-8"?>
<svg width="72px" height="72px" viewBox="0 0 72 72" version="1.1" xmlns="http://www.w3.org/2000/svg" xmlns:xlink="http://www.w3.org/1999/xlink">
    <title>运输业务</title>
    <g id="运输业务" stroke="none" stroke-width="1" fill="none" fill-rule="evenodd">
        <g id="编组-19" transform="translate(10.000000, 12.000000)" fill="#60759C" fill-rule="nonzero">
            <path d="M33.8748095,0.0532583841 C36.4974752,0.0532583841 38.630907,2.18669017 38.630907,4.80935595 L38.630907,4.80935595 L38.630907,6.65915587 L44.4441216,6.65915587 C45.3330559,6.65913747 46.1270236,7.21526131 46.4307832,8.05068598 L46.4307832,8.05068598 L51.7058403,22.5574028 C51.7937786,22.7902534 51.8420827,23.0423018 51.842702,23.3054973 L51.842702,23.3054973 L51.842702,37.8382241 C51.842702,40.4608899 49.7092702,42.5943216 47.0866044,42.5943216 L47.0866044,42.5943216 L46.2499524,42.5943216 C45.338367,45.6467702 42.5051448,47.8786681 39.1597752,47.8786681 C35.8144055,47.8786681 32.9811833,45.6467702 32.0695979,42.5943216 L32.0695979,42.5943216 L19.8269817,42.5943216 C18.9153963,45.6467702 16.0821742,47.8786681 12.7368045,47.8786681 C9.39143483,47.8786681 6.55821265,45.6467702 5.64662729,42.5943216 L5.64662729,42.5943216 L4.80997523,42.5943216 C2.18730945,42.5943216 0.0538776677,40.4608899 0.0538776677,37.8382241 L0.0538776677,37.8382241 L0.0538776677,4.80935595 C0.0538776677,2.18669017 2.18730945,0.0532583841 4.80997523,0.0532583841 L4.80997523,0.0532583841 Z M12.7368045,37.3099752 C11.043064,37.3099752 9.65524962,38.6451505 9.57040777,40.3178354 C9.56731136,40.371713 9.56607279,40.42621 9.56607279,40.4807069 C9.56607279,42.2289444 10.9885671,43.6514386 12.7368045,43.6514386 C14.4850419,43.6514386 15.9075362,42.2289444 15.9075362,40.4807069 C15.9075362,40.42621 15.9056784,40.371713 15.9032012,40.3178354 C15.8183594,38.6445312 14.430545,37.3099752 12.7368045,37.3099752 Z M39.1591559,37.3099752 C37.4654154,37.3099752 36.077601,38.6451505 35.9927591,40.3178354 C35.9896627,40.371713 35.9884242,40.42621 35.9884242,40.4807069 C35.9884242,42.2289444 37.4109184,43.6514386 39.1591559,43.6514386 C40.9080126,43.6514386 42.3298876,42.2289444 42.3298876,40.4807069 C42.3298876,40.42621 42.3280297,40.371713 42.3255526,40.3178354 C42.2407107,38.6445312 40.8528963,37.3099752 39.1591559,37.3099752 Z M33.8748095,4.28172637 L4.81245236,4.28172637 C4.5213891,4.28172637 4.28420351,4.51829268 4.28420351,4.80997523 L4.28420351,4.80997523 L4.28420351,37.8394627 C4.28420351,38.1305259 4.52076982,38.3677115 4.81245236,38.3677115 L4.81245236,38.3677115 L5.64848514,38.3677115 C5.65096227,38.3590415 5.65467797,38.3503716 5.65715511,38.3410823 C5.68254573,38.2580983 5.70855564,38.1763529 5.7364234,38.0946075 L5.742384,38.0769579 L5.742384,38.0769579 L5.74880907,38.0593083 C5.77481898,37.9831364 5.80268674,37.9069646 5.83179306,37.8320312 C5.83674733,37.8196456 5.8417016,37.8066406 5.84665587,37.7936357 C5.87823933,37.7131288 5.91106136,37.6338605 5.94512195,37.5552115 C5.95255335,37.5384909 5.95936547,37.5223895 5.96679687,37.5056688 C6.00147675,37.4257812 6.03801448,37.346513 6.07579078,37.2684832 C6.07826791,37.2622904 6.08136433,37.2567168 6.08446075,37.250524 C6.12099848,37.1755907 6.15877477,37.1012767 6.19778963,37.0275819 C6.20460175,37.0139577 6.21141387,37.0009527 6.21884527,36.9873285 C6.25971799,36.9117759 6.30120998,36.8374619 6.34455983,36.7637671 C6.35261052,36.7495236 6.36128049,36.7358994 6.36933117,36.7216559 C6.45912729,36.5699314 6.55449695,36.4213034 6.65482088,36.2770103 C6.66411014,36.2633861 6.67278011,36.2503811 6.68206936,36.2373761 C6.73161204,36.1673971 6.78177401,36.0980373 6.83317454,36.0299162 L6.83317454,36.0299162 L6.85918445,35.9964748 C6.9099657,35.9289729 6.9626048,35.8627096 7.01586319,35.7976848 C7.01957889,35.7939691 7.0226753,35.7896341 7.02577172,35.7859184 C7.08150724,35.7184165 7.13848133,35.6527725 7.1960747,35.5871284 L7.1960747,35.5871284 L7.22827744,35.5505907 C7.28587081,35.4861852 7.34408346,35.4230183 7.40353468,35.3610899 L7.40353468,35.3610899 L7.42706745,35.3369379 C7.48466082,35.2774867 7.54287348,35.219274 7.6023247,35.1616806 L7.6023247,35.1616806 L7.62276105,35.1418636 C7.68468941,35.0817931 7.74847561,35.0235804 7.8128811,34.965987 L7.8128811,34.965987 L7.84941883,34.9337843 C7.9144436,34.8761909 7.98070694,34.8198361 8.04758956,34.7647199 L8.04758956,34.7647199 L8.0649295,34.7504764 C8.12933498,34.6978373 8.19497904,34.6464367 8.26124238,34.5956555 L8.26124238,34.5956555 L8.29158727,34.5721227 C8.36032774,34.5201029 8.4296875,34.4699409 8.50028582,34.4203982 C8.51329078,34.411109 8.52629573,34.402439 8.53930069,34.3931498 C8.61175686,34.3429878 8.68483232,34.2940644 8.75914634,34.2463796 C8.76038491,34.2457603 8.76224276,34.2445217 8.76348133,34.2439024 C8.83717607,34.1968369 8.91149009,34.1516292 8.9864234,34.1070408 C8.99880907,34.0996094 9.01181402,34.0915587 9.02481898,34.0841273 C9.099133,34.0407774 9.17406631,33.9986662 9.25023819,33.9577934 C9.26386242,33.9509813 9.27686738,33.9435499 9.29049162,33.9367378 C9.36728277,33.8958651 9.44469322,33.8562309 9.52272294,33.8184546 C9.52458079,33.8172161 9.52705793,33.8165968 9.52891578,33.8153582 C9.60818407,33.7769627 9.68869093,33.7404249 9.76981707,33.7045065 L9.76981707,33.7045065 L9.81564405,33.6846894 C9.89491235,33.6506288 9.97479992,33.6178068 10.0553068,33.5862233 L10.0553068,33.5862233 L10.0943216,33.5713605 C10.1717321,33.5416349 10.2503811,33.5131479 10.3290301,33.4858994 C10.3370808,33.4834223 10.3451315,33.4803258 10.3538014,33.4772294 C10.4367854,33.4487424 10.5203887,33.4221132 10.6046113,33.3967226 C10.7057198,33.3659267 10.807515,33.3374323 10.9099181,33.3112614 C10.9210652,33.3087843 10.9322123,33.3056879 10.9433594,33.3032107 C11.0238662,33.2827744 11.1049924,33.2641959 11.1861185,33.2468559 C11.1991235,33.2437595 11.2121284,33.2406631 11.2251334,33.238186 C11.3112138,33.2202268 11.3979135,33.2041254 11.4852325,33.1892626 L11.4852325,33.1892626 L11.5397294,33.1799733 C11.628287,33.1657298 11.7168445,33.1521056 11.8066406,33.1409585 L11.8066406,33.1409585 L11.8283155,33.1384813 C11.9137767,33.1279535 11.9998571,33.1192835 12.0859375,33.1118521 L12.0859375,33.1118521 L12.1348609,33.1075171 C12.2240377,33.1000857 12.3132146,33.0945122 12.4030107,33.0907965 L12.4030107,33.0907965 L12.4575076,33.0889386 C12.5504002,33.0858422 12.643912,33.0833651 12.7374238,33.0833651 C12.8309356,33.0833651 12.9244474,33.0852229 13.0173399,33.0889386 L13.0173399,33.0889386 L13.0718369,33.0907965 C13.161633,33.0945122 13.2508098,33.1000857 13.3399867,33.1075171 C13.356088,33.1087557 13.3728087,33.1106136 13.3889101,33.1118521 C13.4749905,33.1192835 13.5610709,33.1279535 13.646532,33.1384813 L13.646532,33.1384813 L13.6682069,33.1409585 C13.7573838,33.1521056 13.8465606,33.1657298 13.9351181,33.1799733 L13.9351181,33.1799733 L13.9896151,33.1892626 C14.0763148,33.2041254 14.1630145,33.2202268 14.2490949,33.238186 C14.2627191,33.2412824 14.2757241,33.2437595 14.288729,33.2468559 C14.3698552,33.2641959 14.450362,33.2833937 14.5308689,33.3032107 C14.542016,33.3056879 14.5531631,33.308165 14.5643102,33.3112614 C14.6491521,33.3329364 14.7333746,33.3564691 14.8175972,33.3812405 L14.8175972,33.3812405 L14.8689977,33.3967226 C14.9532203,33.4221132 15.0368236,33.4481231 15.1198075,33.4766101 C15.1278582,33.4797066 15.1365282,33.482803 15.1451982,33.4858994 C15.2238472,33.5131479 15.3018769,33.5416349 15.3792873,33.5713605 L15.3792873,33.5713605 L15.4189215,33.5862233 C15.4994284,33.6178068 15.5793159,33.6506288 15.6585842,33.6846894 L15.6585842,33.6846894 L15.7050305,33.7051258 C15.7855373,33.7404249 15.8660442,33.7769627 15.9453125,33.8153582 L15.9453125,33.8153582 C16.0307736,33.8568502 16.1081841,33.8964844 16.1843559,33.9367378 C16.1979802,33.9441692 16.2116044,33.9509813 16.2252287,33.9584127 C16.3007812,33.9992854 16.3757146,34.0407774 16.4500286,34.0841273 C16.4636528,34.092178 16.4766578,34.0996094 16.4896627,34.1076601 C16.564596,34.1516292 16.6382908,34.1968369 16.7113662,34.2432832 C16.7126048,34.2445217 16.7144627,34.245141 16.7163205,34.2463796 C16.7906345,34.2940644 16.8630907,34.3429878 16.9355469,34.3931498 L16.9355469,34.3931498 L16.975181,34.4210175 C17.0451601,34.4699409 17.1151391,34.5207222 17.1832603,34.5721227 C17.1937881,34.5801734 17.2036966,34.5882241 17.2142245,34.5962748 C17.2798685,34.647056 17.3448933,34.6978373 17.4092988,34.7504764 C17.4823198,34.8103843 17.5541702,34.8717049 17.6248095,34.9344036 L17.6248095,34.9344036 L17.6619665,34.9672256 C17.726372,35.024819 17.7901582,35.0830316 17.8520865,35.1424829 L17.8520865,35.1424829 L17.8731421,35.1635385 C17.9325934,35.2205126 17.990806,35.2787252 18.0477801,35.3375572 L18.0477801,35.3375572 L18.0719322,35.3623285 C18.1313834,35.4242569 18.189596,35.4874238 18.2465701,35.55121 C18.2577172,35.5635957 18.268245,35.5759813 18.2793921,35.588367 C18.3369855,35.6533918 18.3939596,35.7196551 18.4490758,35.7865377 C18.4527915,35.7908727 18.455888,35.7952077 18.4596037,35.7995427 C18.512862,35.8645675 18.5648819,35.9302115 18.6156631,35.9970941 L18.6292099,36.0144341 L18.6292099,36.0144341 L18.6422923,36.031774 C18.6936928,36.0998952 18.7438548,36.1686357 18.7927782,36.2386147 L18.7927782,36.2386147 L18.820646,36.2788681 C18.9209888,36.4233515 19.0160092,36.5714594 19.1055164,36.7228944 C19.1141864,36.737138 19.1228563,36.7513815 19.130907,36.765625 C19.1736376,36.8393197 19.2157489,36.9136338 19.2560023,36.9885671 C19.2634337,37.0021913 19.2702458,37.0158155 19.2776772,37.0294398 C19.3166921,37.1025152 19.3544684,37.17621 19.3910061,37.2511433 L19.3910061,37.2511433 L19.4002954,37.2697218 C19.4380716,37.3477515 19.4739901,37.4270198 19.5092893,37.5062881 C19.5167207,37.5223895 19.5235328,37.5391101 19.5309642,37.5558308 C19.5650248,37.6344798 19.5978468,37.7137481 19.6294303,37.7936357 L19.6294303,37.7936357 L19.6442931,37.8326505 C19.6733994,37.9075838 19.7006479,37.9831364 19.7272771,38.0593083 C19.7309928,38.0710747 19.7353277,38.0834604 19.7396627,38.0952268 C19.7675305,38.1769722 19.7941597,38.2593369 19.818931,38.3417016 C19.8214082,38.3509909 19.8251239,38.3596608 19.827601,38.3689501 L19.827601,38.3689501 L32.0683594,38.3689501 L32.0683594,38.3689501 L32.0764101,38.344798 C32.1018007,38.2605755 32.1284299,38.1769722 32.1569169,38.0939882 C32.1606326,38.0846989 32.163729,38.0747904 32.1674447,38.0648819 C32.1946932,37.9856136 32.2237995,37.9075838 32.2535252,37.8295541 C32.2578601,37.8190263 32.2615758,37.8078792 32.2659108,37.7967321 C32.2974943,37.7149867 32.3309356,37.6344798 32.3656155,37.5545922 C32.3724276,37.5391101 32.3786204,37.5242473 32.3854325,37.5093845 C32.421351,37.4282584 32.4578887,37.3477515 32.4962843,37.2684832 C32.4981421,37.2641482 32.5006193,37.2604325 32.5024771,37.2560976 C32.5402534,37.1786871 32.5792683,37.101896 32.6195217,37.0263434 C32.6263338,37.014577 32.6325267,37.0021913 32.6387195,36.9904249 C32.6795922,36.914253 32.7223228,36.8387005 32.7656726,36.7637671 C32.773104,36.7507622 32.7811547,36.7383765 32.7885861,36.7253716 C32.8796208,36.5724085 32.9756098,36.4225419 33.076553,36.2770103 L33.076553,36.2770103 L33.1019436,36.2404726 C33.1514863,36.1698742 33.2022675,36.0998952 33.2542873,36.0311547 C33.2617187,36.0206269 33.2697694,36.0107184 33.2778201,36.0001905 C33.3298399,35.9320694 33.3830983,35.8639482 33.4375953,35.7976848 C33.4400724,35.7952077 33.4425495,35.7921113 33.4450267,35.7890149 C33.5007622,35.7208937 33.5583556,35.6540111 33.6165682,35.588367 C33.6264768,35.5766006 33.6363853,35.5654535 33.6469131,35.5536871 C33.7045065,35.4892816 33.7633384,35.4254954 33.8234089,35.3629478 L33.8234089,35.3629478 L33.8450838,35.3406536 C33.9032965,35.2805831 33.9627477,35.2211319 34.0228182,35.1629192 L34.0228182,35.1629192 L34.042016,35.1443407 C34.1045636,35.0836509 34.1683498,35.024819 34.2333746,34.9672256 L34.2333746,34.9672256 L34.2686738,34.9356421 C34.3336986,34.8780488 34.3999619,34.8210747 34.4674638,34.7659585 C34.4730373,34.7616235 34.4779916,34.7572885 34.4835652,34.7529535 C34.5485899,34.6996951 34.614234,34.6476753 34.6811166,34.5968941 C34.6910252,34.5888434 34.7009337,34.581412 34.7108422,34.5739806 C34.7795827,34.5219607 34.8495617,34.4711795 34.9201601,34.4216368 C34.933165,34.4129668 34.9455507,34.4036776 34.9585556,34.3950076 C35.0310118,34.3448457 35.1047066,34.295303 35.1790206,34.2476181 C35.2539402,34.1998164 35.3297114,34.1533627 35.4062976,34.1082793 C35.4193026,34.1008479 35.4316883,34.0927973 35.4446932,34.0853659 C35.5190072,34.042016 35.5939405,33.9999047 35.6701124,33.959032 C35.6837367,33.9522199 35.6967416,33.9447885 35.7103659,33.9379764 C35.7869505,33.8969479 35.8643776,33.8575117 35.9425972,33.8196932 C35.944455,33.8184546 35.9469322,33.8178354 35.94879,33.8165968 C36.0280583,33.7782012 36.1085652,33.7416635 36.1896913,33.705745 L36.1896913,33.705745 L36.2355183,33.6853087 C36.3147866,33.6512481 36.3946742,33.6184261 36.475181,33.5868426 L36.475181,33.5868426 L36.5141959,33.5719798 C36.5916063,33.5422542 36.6702553,33.5137671 36.7489043,33.4865187 C36.7575743,33.4840415 36.765625,33.4809451 36.774295,33.4778487 C36.857279,33.4493617 36.9408822,33.4227325 37.0251048,33.3973418 C37.1262133,33.366546 37.2280085,33.3380516 37.3304116,33.3118807 C37.3415587,33.3094036 37.3527058,33.3069264 37.3638529,33.30383 C37.4443598,33.2833937 37.5254859,33.2648152 37.606612,33.2474752 C37.6202363,33.2443788 37.6332412,33.2412824 37.6462462,33.2388053 C37.7323266,33.220846 37.8190263,33.2047447 37.9063453,33.1898819 L37.9063453,33.1898819 L37.9608422,33.1805926 C38.0493998,33.1663491 38.1379573,33.1527248 38.2277534,33.1415777 C38.2351848,33.1409585 38.241997,33.1397199 38.2494284,33.1391006 C38.3348895,33.1285728 38.4209699,33.1199028 38.5070503,33.1124714 C38.5231517,33.1112329 38.539253,33.109375 38.5559737,33.1081364 C38.6451505,33.100705 38.7343274,33.0951315 38.8241235,33.0914158 L38.8241235,33.0914158 L38.8786204,33.0895579 C38.971513,33.0864615 39.0650248,33.0839844 39.1585366,33.0839844 C39.2520484,33.0839844 39.3455602,33.0858422 39.4384527,33.0895579 L39.4384527,33.0895579 L39.4929497,33.0914158 C39.5827458,33.0951315 39.6719226,33.100705 39.7610995,33.1081364 C39.7772008,33.109375 39.7939215,33.1112329 39.8100229,33.1124714 C39.8961033,33.1199028 39.9821837,33.1285728 40.0676448,33.1391006 C40.0750762,33.1397199 40.0818883,33.1409585 40.0893197,33.1415777 C40.1784966,33.1527248 40.2676734,33.1663491 40.3562309,33.1805926 L40.3562309,33.1805926 L40.4107279,33.1898819 C40.4980469,33.2047447 40.5847466,33.220846 40.670827,33.2388053 C40.6844512,33.2419017 40.6974562,33.2443788 40.7104611,33.2474752 C40.7922066,33.2648152 40.8727134,33.284013 40.9532203,33.30383 C40.9643674,33.3063072 40.9755145,33.3087843 40.9866616,33.3118807 C41.0721227,33.3335556 41.1563453,33.3570884 41.2405678,33.3818598 L41.2405678,33.3818598 L41.2919684,33.3973418 C41.3761909,33.4227325 41.4597942,33.4493617 41.5427782,33.4778487 C41.5514482,33.4803258 41.5594989,33.4834223 41.5681688,33.4865187 C41.6468178,33.5137671 41.7248476,33.5422542 41.802258,33.5719798 L41.802258,33.5719798 L41.8412729,33.5868426 C41.9217797,33.6178068 42.0016673,33.6512481 42.0809356,33.6853087 L42.0809356,33.6853087 L42.1273819,33.705745 C42.208508,33.7416635 42.2890149,33.7782012 42.3682832,33.8165968 C42.3707603,33.8172161 42.3726181,33.8184546 42.3750953,33.8196932 L42.4916754,33.8779059 L42.4916754,33.8779059 L42.6073266,33.9379764 C42.6970775,33.9847079 42.785662,34.0336462 42.8729992,34.0847466 C42.8860042,34.092178 42.8990091,34.1002287 42.9120141,34.1076601 C42.9869474,34.1522485 43.0618807,34.1974562 43.1349562,34.2445217 L43.1349562,34.2445217 C43.2136052,34.2946837 43.2866806,34.3442264 43.3591368,34.3943883 C43.3721418,34.4036776 43.3851467,34.4123476 43.3981517,34.4216368 C43.46875,34.4711795 43.5381098,34.5213415 43.6068502,34.5733613 C43.6167588,34.5807927 43.6266673,34.5888434 43.6365758,34.5962748 C43.7034585,34.647056 43.7691025,34.6984566 43.8341273,34.7517149 L43.8341273,34.7517149 L43.8508479,34.7653392 C43.9183498,34.8204554 43.9846132,34.8774295 44.049638,34.9350229 L44.049638,34.9350229 L44.0855564,34.9666063 C44.1499619,35.0241997 44.2137481,35.0830316 44.2762957,35.1431021 C44.2824886,35.1499143 44.2893007,35.1561071 44.2954935,35.1622999 C44.355564,35.2198933 44.414396,35.2787252 44.4726086,35.3387957 L44.4726086,35.3387957 L44.4949028,35.3617092 C44.554354,35.4236376 44.613186,35.4874238 44.6707793,35.5518293 C44.6813072,35.5635957 44.6912157,35.575362 44.7017435,35.5871284 C44.7599562,35.6527725 44.8169303,35.7196551 44.8726658,35.787157 L44.8726658,35.787157 L44.8807165,35.7970655 C44.9352134,35.8633289 44.9878525,35.9302115 45.0398723,35.9983327 L45.0398723,35.9983327 L45.0640244,36.0299162 C45.1160442,36.0986566 45.1668255,36.1680164 45.2163681,36.2386147 L45.2163681,36.2386147 L45.242378,36.2757717 C45.3433213,36.4213034 45.4393102,36.5705507 45.5297256,36.7235137 C45.537157,36.7365187 45.5452077,36.7495236 45.5526391,36.7625286 C45.5966082,36.8368426 45.6387195,36.9123952 45.6795922,36.9885671 C45.6857851,37.0003335 45.6919779,37.0127191 45.69879,37.0251048 C45.7390434,37.1006574 45.7780583,37.1768293 45.8152153,37.2536204 C45.8176925,37.2579554 45.8201696,37.2622904 45.8220274,37.2666254 C45.860423,37.3458937 45.89758,37.4264005 45.9328792,37.5069074 C45.9396913,37.5217702 45.9458841,37.536633 45.9526963,37.5521151 C45.9873761,37.6320027 46.0208175,37.7125095 46.0524009,37.7936357 C46.0567359,37.8047828 46.0610709,37.8165492 46.0654059,37.8276963 C46.0957508,37.9051067 46.1242378,37.9831364 46.1514863,38.0617854 C46.155202,38.071694 46.1582984,38.0816025 46.1620141,38.0915111 C46.1905011,38.1738758 46.2171303,38.257479 46.242521,38.3417016 C46.2449981,38.3503716 46.2480945,38.3584223 46.2505716,38.3664729 L46.2505716,38.3664729 L47.0866044,38.3664729 C47.3776677,38.3664729 47.6148533,38.1299066 47.6148533,37.8382241 L47.614234,37.8382241 L47.614234,25.4197313 L36.516673,25.4197313 C35.3493236,25.4197313 34.4030583,24.4734661 34.4030583,23.3061166 L34.4030583,23.3061166 L34.4030583,4.80997523 C34.4030583,4.51891197 34.166492,4.28172637 33.8748095,4.28172637 L33.8748095,4.28172637 Z M18.7368603,16.0469691 C19.3895604,14.9164593 20.8351378,14.529118 21.9656476,15.1818182 L21.9656476,15.1818182 L27.3979888,18.3181818 C27.6839321,18.4832713 27.9223311,18.6990851 28.1083819,18.9476953 C28.6516792,19.3804606 29,20.0480375 29,20.7969691 C29,22.1023695 27.941764,23.1606055 26.6363636,23.1606055 L26.6363636,23.1606055 L13.3636364,23.1606055 C12.058236,23.1606055 11,22.1023695 11,20.7969691 C11,19.4915688 12.058236,18.4333328 13.3636364,18.4333328 L13.3636364,18.4333328 L18.7501999,18.4342364 C18.3298436,17.7235964 18.294615,16.8129604 18.7368603,16.0469691 Z M42.9634146,10.8870046 L38.630907,10.8870046 L38.630907,21.1918826 L46.7106993,21.1918826 L42.9634146,10.8870046 Z" id="形状结合"></path>
        </g>
    </g>
</svg>