<?xml version="1.0" encoding="UTF-8"?>
<svg width="72px" height="72px" viewBox="0 0 72 72" version="1.1" xmlns="http://www.w3.org/2000/svg" xmlns:xlink="http://www.w3.org/1999/xlink">
    <title>应收运费</title>
    <g id="应收运费" stroke="none" stroke-width="1" fill="none" fill-rule="evenodd">
        <g id="编组" transform="translate(9.000000, 9.000000)" fill="#60759C" fill-rule="nonzero">
            <path d="M27,-2.5 C43.2924001,-2.5 56.5,10.7075999 56.5,27 C56.5,43.2924001 43.2924001,56.5 27,56.5 C16.0494524,56.5 6.15853172,50.4797394 1.04033689,41.0232801 C0.383129595,39.8090133 0.834715545,38.2918838 2.04898234,37.6346765 C3.26324914,36.9774692 4.78037864,37.4290552 5.43758594,38.643322 C9.69053104,46.5011319 17.9033662,51.5 27,51.5 C40.5309764,51.5 51.5,40.5309764 51.5,27 C51.5,13.4690236 40.5309764,2.5 27,2.5 C14.7100517,2.5 4.50917794,11.5586035 2.76364487,23.3914143 L2.73,23.624 L4.11409067,23.1115272 C4.47838674,22.9743357 4.86345522,22.827979 5.26922339,22.6724797 L7.4307255,21.8343701 C8.716361,21.3308757 10.1667374,21.9649263 10.6702318,23.2505618 C11.1737263,24.5361973 10.5396756,25.9865737 9.25404015,26.4900681 L7.90548016,27.0151746 C5.75443031,27.8474792 4.0855821,28.4655887 2.89070112,28.8720446 L2.35041368,29.051975 C1.84235028,29.2170071 1.42947748,29.3376069 1.09846142,29.4161343 C0.774543538,29.4929778 0.500382947,29.5392038 0.208724879,29.5483518 C-0.135528854,29.5591495 -0.466602578,29.5240959 -0.856204853,29.3759043 C-1.77736263,29.025527 -2.5,28.1555945 -2.5,27 L-2.49486708,26.4445707 C-2.19785874,10.3863375 10.9147705,-2.5 27,-2.5 Z" id="路径"></path>
        </g>
        <path d="M31.7384908,49.16 C32.1708875,49.16 32.5402264,49.0519008 32.8465074,48.8357025 C33.1527884,48.6195041 33.3059289,48.2231405 33.3059289,47.6466116 L33.3059289,47.6466116 L33.3059289,35.5124793 C33.3599784,35.6205785 33.4320446,35.7286777 33.5221272,35.8367769 C33.6122098,35.944876 33.7383255,36.0529752 33.9004743,36.1610744 C34.3869206,36.4673554 34.8688627,36.5619421 35.3463008,36.4448347 C35.8237388,36.3277273 36.2516313,35.8908264 36.6299784,35.1341322 C36.6660115,35.0440496 36.7020446,34.9629752 36.7380776,34.8909091 L36.7380776,34.8909091 L36.8461768,34.6747107 C37.2065074,35.9178512 37.6434082,37.1249587 38.1568793,38.2960331 C38.6703503,39.4671074 39.2693999,40.5931405 39.954028,41.6741322 C39.3594826,42.448843 38.6658462,43.1740083 37.8731189,43.8496281 C37.0803917,44.5252479 36.1885735,45.1693388 35.1976644,45.7819008 C34.1527057,46.4304959 33.7743586,47.2232231 34.0626231,48.1600826 C34.1527057,48.3582645 34.265309,48.5429339 34.400433,48.7140909 C34.535557,48.8852479 34.7202264,49.0068595 34.9544413,49.0789256 C35.1886561,49.1509917 35.4724165,49.1554959 35.8057222,49.092438 C36.139028,49.0293802 36.5489041,48.8447107 37.0353503,48.5384298 C38.9811355,47.3313223 40.5936148,45.9350413 41.8727884,44.3495868 C42.575433,45.2143802 43.2780776,45.9890909 43.9807222,46.673719 C44.6833669,47.3583471 45.4130363,47.9709091 46.1697305,48.511405 C46.800309,48.9618182 47.3543173,49.1554959 47.8317553,49.092438 C48.3091933,49.0293802 48.6650198,48.7906612 48.8992346,48.376281 C49.2415487,47.9078512 49.354152,47.457438 49.2370446,47.0250413 C49.1199371,46.5926446 48.7370859,46.1512397 48.0884908,45.7008264 C47.4038627,45.2323967 46.7192346,44.696405 46.0346065,44.0928512 C45.3499784,43.4892975 44.5932842,42.6560331 43.7645239,41.5930579 C44.7013834,39.8995041 45.4220446,38.0618182 45.9265074,36.08 C46.4309702,34.0981818 46.7913008,31.8821488 47.0074991,29.4319008 L47.0074991,29.4319008 L47.6560941,29.4319008 C48.19659,29.4319008 48.5884495,29.301281 48.8316727,29.0400413 C49.0748958,28.7788017 49.1965074,28.3869421 49.1965074,27.8644628 C49.1965074,27.3239669 49.0748958,26.9321074 48.8316727,26.6888843 C48.5884495,26.4456612 48.19659,26.3240496 47.6560941,26.3240496 L47.6560941,26.3240496 L39.6027057,26.3240496 C39.6567553,25.9997521 39.7108049,25.6484298 39.7648545,25.2700826 C39.8909702,24.4233058 39.8143999,23.851281 39.5351437,23.5540083 C39.2558875,23.2567355 38.827995,23.0900826 38.251466,23.0540496 C37.7289867,23.0540496 37.3461355,23.1801653 37.1029123,23.4323967 C36.8596892,23.6846281 36.684028,24.1980992 36.5759289,24.9728099 C36.3957636,26.4141322 36.1255156,27.8284298 35.7651851,29.2157025 C35.4048545,30.6029752 34.8013008,31.9632231 33.9545239,33.2964463 C33.5941933,33.8189256 33.377995,34.242314 33.3059289,34.5666116 L33.3059289,34.5666116 L33.3059289,24.5133884 C33.3059289,23.9368595 33.1527884,23.5404959 32.8465074,23.3242975 C32.5402264,23.1080992 32.1708875,23 31.7384908,23 C31.234028,23 30.8421685,23.0990909 30.5629123,23.2972727 C30.2836561,23.4954545 30.144028,23.9008264 30.144028,24.5133884 L30.144028,24.5133884 L30.144028,38.2149587 C29.7476644,38.4491736 29.3738214,38.6608678 29.0224991,38.8500413 C28.6711768,39.0392149 28.3423751,39.2238843 28.0360941,39.4040496 C27.7838627,39.5481818 27.5811768,39.5797107 27.4280363,39.4986364 C27.2748958,39.417562 27.1983255,39.2779339 27.1983255,39.0797521 L27.1983255,39.0797521 L27.1983255,27.9185124 C27.1983255,27.3059504 27.0496892,26.9005785 26.7524165,26.7023967 C26.4551437,26.5042149 26.0722925,26.405124 25.6038627,26.405124 C25.0993999,26.405124 24.7075404,26.5042149 24.4282842,26.7023967 C24.149028,26.9005785 24.0093999,27.3059504 24.0093999,27.9185124 L24.0093999,27.9185124 L24.0093999,41.1066116 C23.9733669,41.7191736 24.0409289,42.2146281 24.2120859,42.5929752 C24.3832429,42.9713223 24.6174578,43.2460744 24.9147305,43.4172314 C25.2120032,43.5883884 25.5633255,43.6649587 25.9686974,43.6469421 C26.3740693,43.6289256 26.7929536,43.5208264 27.2253503,43.3226446 C27.7117966,43.1064463 28.1982429,42.8767355 28.6846892,42.6335124 C29.1711355,42.3902893 29.6575817,42.1245455 30.144028,41.836281 L30.144028,41.836281 L30.144028,47.6466116 C30.144028,48.2771901 30.2836561,48.6870661 30.5629123,48.8762397 C30.8421685,49.0654132 31.234028,49.16 31.7384908,49.16 Z M41.791714,38.6473554 C41.2692346,37.6204132 40.7332429,36.3592562 40.1837388,34.8638843 C39.6342346,33.3685124 39.1522925,31.7470248 38.7379123,29.9994215 L38.7379123,29.9994215 L38.9000611,29.4319008 L43.7915487,29.4319008 C43.6474165,31.2876033 43.4222098,32.9721488 43.1159289,34.4855372 C42.8096479,35.9989256 42.3682429,37.3861983 41.791714,38.6473554 Z" id="收" fill="#60759C" fill-rule="nonzero"></path>
    </g>
</svg>