<?xml version="1.0" encoding="UTF-8"?>
<svg width="72px" height="72px" viewBox="0 0 72 72" version="1.1" xmlns="http://www.w3.org/2000/svg" xmlns:xlink="http://www.w3.org/1999/xlink">
    <title>应付运费</title>
    <g id="应付运费" stroke="none" stroke-width="1" fill="none" fill-rule="evenodd">
        <g id="编组" transform="translate(9.000000, 9.000000)" fill="#60759C" fill-rule="nonzero">
            <path d="M27,-2.5 C43.2924001,-2.5 56.5,10.7075999 56.5,27 C56.5,43.2924001 43.2924001,56.5 27,56.5 C16.0494524,56.5 6.15853172,50.4797394 1.04033689,41.0232801 C0.383129595,39.8090133 0.834715545,38.2918838 2.04898234,37.6346765 C3.26324914,36.9774692 4.78037864,37.4290552 5.43758594,38.643322 C9.69053104,46.5011319 17.9033662,51.5 27,51.5 C40.5309764,51.5 51.5,40.5309764 51.5,27 C51.5,13.4690236 40.5309764,2.5 27,2.5 C14.7100517,2.5 4.50917794,11.5586035 2.76364487,23.3914143 L2.73,23.624 L4.11409067,23.1115272 C4.47838674,22.9743357 4.86345522,22.827979 5.26922339,22.6724797 L7.4307255,21.8343701 C8.716361,21.3308757 10.1667374,21.9649263 10.6702318,23.2505618 C11.1737263,24.5361973 10.5396756,25.9865737 9.25404015,26.4900681 L7.90548016,27.0151746 C5.75443031,27.8474792 4.0855821,28.4655887 2.89070112,28.8720446 L2.35041368,29.051975 C1.84235028,29.2170071 1.42947748,29.3376069 1.09846142,29.4161343 C0.774543538,29.4929778 0.500382947,29.5392038 0.208724879,29.5483518 C-0.135528854,29.5591495 -0.466602578,29.5240959 -0.856204853,29.3759043 C-1.77736263,29.025527 -2.5,28.1555945 -2.5,27 L-2.49486708,26.4445707 C-2.19785874,10.3863375 10.9147705,-2.5 27,-2.5 Z" id="路径"></path>
        </g>
        <path d="M29.1978718,49.1576275 C29.7071762,49.1576275 30.1027965,49.0212067 30.3847328,48.7483651 C30.6666691,48.4755235 30.8076373,48.0480716 30.8076373,47.4660095 L30.8076373,47.4660095 L30.8076373,30.849956 C31.1168578,30.0678101 31.4169835,29.25838 31.7080146,28.4216658 C31.9990456,27.5849515 32.2809819,26.6754795 32.5538235,25.6932498 C33.026749,24.0743896 32.6265813,23.183107 31.3533205,23.0194021 C30.6803112,22.9466443 30.2119331,23.0785177 29.9481862,23.4150224 C29.6844394,23.751527 29.4798082,24.2835682 29.3342926,25.0111458 L29.3342926,25.0111458 L29.3342926,24.9565774 C28.8795566,26.8300898 28.3020419,28.5808234 27.6017485,30.2087783 C26.901455,31.8367331 25.9783409,33.4237618 24.8324062,34.9698642 C24.286723,35.7338207 24.0093341,36.3477143 24.0002393,36.811545 C23.9911446,37.2753757 24.2412494,37.6709961 24.7505537,37.998406 L24.7505537,37.998406 L24.6959854,37.9711218 C24.9142587,38.1348268 25.132532,38.2530581 25.3508053,38.3258159 C25.5690785,38.3985737 25.7964465,38.4076684 26.0329093,38.3531001 C26.269372,38.2985317 26.5149294,38.1712057 26.7695816,37.9711218 C27.0242337,37.771038 27.2788859,37.4618175 27.5335381,37.0434604 C27.569917,37.0070815 27.5972011,36.9616079 27.6153906,36.9070396 L27.6153906,36.9070396 L27.6153906,47.4660095 C27.6153906,48.0480716 27.7245272,48.4755235 27.9428005,48.7483651 C28.1610738,49.0212067 28.5794309,49.1576275 29.1978718,49.1576275 Z M41.9941429,49.1576275 C42.9581833,49.1758169 43.7494239,49.0894171 44.3678649,48.8984279 C44.9863058,48.7074388 45.4728733,48.4300499 45.8275674,48.0662611 C46.1822615,47.7024723 46.427819,47.2704731 46.5642398,46.7702635 C46.7006606,46.2700539 46.768871,45.7198233 46.768871,45.1195718 L46.768871,45.1195718 L46.768871,31.6139125 L48.7878988,31.6139125 C49.4245292,31.6139125 49.8428863,31.4820391 50.0429702,31.2182922 C50.243054,30.9545453 50.3430959,30.558925 50.3430959,30.0314312 C50.3430959,29.5039375 50.243054,29.1083171 50.0429702,28.8445703 C49.8428863,28.5808234 49.4245292,28.4489499 48.7878988,28.4489499 L48.7878988,28.4489499 L46.768871,28.4489499 L46.768871,24.6018834 C46.768871,23.9834424 46.6279028,23.5650853 46.3459665,23.346812 C46.0640302,23.1285387 45.6593151,23.0194021 45.1318213,23.0194021 C44.5679487,23.0194021 44.1495916,23.1285387 43.87675,23.346812 C43.6039084,23.5650853 43.4674876,23.9834424 43.4674876,24.6018834 L43.4674876,24.6018834 L43.4674876,28.4489499 L34.2727256,28.4489499 C33.6360952,28.4489499 33.1722645,28.5808234 32.8812335,28.8445703 C32.5902024,29.1083171 32.4446869,29.5039375 32.4446869,30.0314312 C32.4446869,30.558925 32.5902024,30.9545453 32.8812335,31.2182922 C33.1722645,31.4820391 33.6360952,31.6139125 34.2727256,31.6139125 L34.2727256,31.6139125 L43.4674876,31.6139125 L43.4674876,44.655741 C43.4674876,45.0740982 43.3310668,45.387866 43.0582252,45.5970446 C42.7853836,45.8062231 42.3306476,45.9108124 41.6940172,45.9108124 C41.3666073,45.9108124 41.0619341,45.892623 40.7799978,45.8562441 C40.4980615,45.8198652 40.2161252,45.7652969 39.9341888,45.6925391 C39.6522525,45.6197814 39.343032,45.5197394 39.0065274,45.3924134 C38.6700228,45.2650873 38.2834972,45.110477 37.8469506,44.9285826 C37.2285096,44.7284988 36.714658,44.6739305 36.3053955,44.7648777 C35.8961331,44.8558249 35.5732706,45.1923295 35.3368079,45.7743916 C35.1912923,46.2655065 35.2322186,46.7247899 35.4595866,47.1522417 C35.6869546,47.5796935 36.046196,47.8843667 36.5373109,48.0662611 C37.1011836,48.2481555 37.6195826,48.4073131 38.092508,48.5437339 C38.5654335,48.6801547 39.0156221,48.7938387 39.443074,48.8847859 C39.8705258,48.9757331 40.2934303,49.0439435 40.7117874,49.0894171 C41.1301445,49.1348907 41.5575964,49.1576275 41.9941429,49.1576275 Z M39.1565903,42.6367132 C39.4658108,42.8731759 39.9205468,42.8731759 40.5207983,42.6367132 C41.048292,42.4548188 41.3893441,42.1592404 41.5439543,41.749978 C41.6985645,41.3407156 41.5939753,40.7541061 41.2301865,39.9901497 C40.920966,39.3535193 40.6208402,38.7669098 40.3298092,38.2303213 C40.0387781,37.6937329 39.7295576,37.1662391 39.4021477,36.64784 C39.0747378,36.129441 38.7200437,35.5973999 38.3380655,35.0517167 C37.9560872,34.5060335 37.5195407,33.8966872 37.0284258,33.223678 C36.6100687,32.6416159 36.1962589,32.327848 35.7869965,32.2823744 C35.3777341,32.2369008 34.9366402,32.4142479 34.4637147,32.8144156 C34.1181154,33.0508783 33.9544104,33.3873829 33.9725999,33.8239295 C33.9907893,34.260476 34.1726837,34.7334015 34.5182831,35.2427058 C34.8638824,35.7520101 35.186745,36.2294829 35.4868707,36.6751242 C35.7869965,37.1207655 36.0871223,37.5800489 36.387248,38.0529743 C36.6873738,38.5258997 36.9874996,39.0261093 37.2876253,39.5536031 C37.5877511,40.0810969 37.9015189,40.6722537 38.2289288,41.3270735 C38.5381493,41.9637039 38.8473698,42.4002505 39.1565903,42.6367132 Z" id="付" fill="#60759C" fill-rule="nonzero"></path>
    </g>
</svg>