<?xml version="1.0" encoding="UTF-8"?>
<svg width="72px" height="72px" viewBox="0 0 72 72" version="1.1" xmlns="http://www.w3.org/2000/svg" xmlns:xlink="http://www.w3.org/1999/xlink">
    <title>返利政策</title>
    <g id="返利政策" stroke="none" stroke-width="1" fill="none" fill-rule="evenodd">
        <g id="编组" transform="translate(9.000000, 9.000000)" fill="#60759C" fill-rule="nonzero">
            <path d="M27,-2.5 C43.2924001,-2.5 56.5,10.7075999 56.5,27 C56.5,43.2924001 43.2924001,56.5 27,56.5 C16.0494524,56.5 6.15853172,50.4797394 1.04033689,41.0232801 C0.383129595,39.8090133 0.834715545,38.2918838 2.04898234,37.6346765 C3.26324914,36.9774692 4.78037864,37.4290552 5.43758594,38.643322 C9.69053104,46.5011319 17.9033662,51.5 27,51.5 C40.5309764,51.5 51.5,40.5309764 51.5,27 C51.5,13.4690236 40.5309764,2.5 27,2.5 C14.7100517,2.5 4.50917794,11.5586035 2.76364487,23.3914143 L2.73,23.624 L4.11409067,23.1115272 C4.47838674,22.9743357 4.86345522,22.827979 5.26922339,22.6724797 L7.4307255,21.8343701 C8.716361,21.3308757 10.1667374,21.9649263 10.6702318,23.2505618 C11.1737263,24.5361973 10.5396756,25.9865737 9.25404015,26.4900681 L7.90548016,27.0151746 C5.75443031,27.8474792 4.0855821,28.4655887 2.89070112,28.8720446 L2.35041368,29.051975 C1.84235028,29.2170071 1.42947748,29.3376069 1.09846142,29.4161343 C0.774543538,29.4929778 0.500382947,29.5392038 0.208724879,29.5483518 C-0.135528854,29.5591495 -0.466602578,29.5240959 -0.856204853,29.3759043 C-1.77736263,29.025527 -2.5,28.1555945 -2.5,27 L-2.49486708,26.4445707 C-2.19785874,10.3863375 10.9147705,-2.5 27,-2.5 Z" id="路径"></path>
            <path d="M18.5065086,24.1622191 C19.9137799,24.1622191 20.6715413,24.9199805 20.3467864,26.543755 L20.3467864,26.543755 L20.3467864,33.363608 C20.3467864,35.8533956 22.9448256,37.0441635 28.0326524,37.0441635 L28.0326524,37.0441635 L38.7495642,37.0441635 C39.6155773,37.0441635 40.0485838,37.4771701 40.1568354,38.2349315 C40.1568354,39.2091962 39.7238289,39.7504544 38.8578158,39.858706 L38.8578158,39.858706 L26.6253812,39.858706 C23.8108387,39.858706 21.4293028,39.1009446 19.589025,37.4771701 C19.2642701,37.1524152 19.0477668,37.0441635 18.9395152,37.0441635 C18.7230119,37.0441635 18.2900054,37.3689184 17.5322439,38.1266799 C17.207489,38.5596864 16.9909858,38.8844413 16.8827341,38.992693 C16.2332243,39.5339511 15.5837145,39.7504544 14.8259531,39.4256995 C13.7434368,38.7761897 13.7434368,37.9101766 14.7177015,36.8276603 C14.8259531,36.7194086 15.150708,36.2864021 15.8002178,35.5286407 C16.6662309,34.6626276 17.1901153,34.053211 17.2958426,33.9284766 L17.3157407,33.9048662 L17.3157407,27.8427747 L16.9909858,27.5180198 L15.3672113,27.5180198 C14.5011982,27.5180198 14.0681917,26.86851 14.0681917,25.7859936 C14.1764433,24.8117289 14.7177015,24.2704707 15.6919662,24.1622191 L15.6919662,24.1622191 Z M37.5587962,15.0690818 C38.5330609,15.0690818 39.1825707,15.5020884 39.399074,16.3681015 C39.399074,17.4506178 38.9660675,18.1001276 38.1000544,18.2083792 C34.4194988,18.5331341 30.52244,18.6413858 26.4088779,18.6413858 C25.8676198,18.6413858 25.6511165,18.7496374 25.6511165,19.2908956 L25.6511165,19.2908956 L25.6511165,20.5899152 L35.8267701,20.5899152 C38.208306,20.4816635 39.0743191,21.5641799 38.4248093,23.6209609 C37.7752995,26.0024969 36.8010348,28.0592779 35.7185185,29.7913041 C37.4505446,31.3068269 38.6413126,32.3893433 39.1825707,33.0388531 C39.8320805,34.0131178 39.8320805,34.8791309 39.1825707,35.6368923 C38.4248093,36.2864021 37.6670479,36.2864021 36.8010348,35.5286407 C36.5845315,35.3121374 36.151525,34.9873825 35.7185185,34.6626276 C34.7442537,33.6883629 33.9864923,33.0388531 33.4452341,32.4975949 C31.0636982,34.4461243 29.1151688,35.7451439 27.8161492,36.1781505 C26.6253812,36.611157 25.8676198,36.3946537 25.3263616,35.7451439 C24.8933551,34.8791309 25.21811,34.2296211 26.084123,33.5801113 C26.084123,33.5801113 26.4088779,33.4718596 26.7336328,33.1471047 C28.5739106,32.0645884 29.8729302,31.0903237 30.52244,30.4408139 C30.0894335,30.0078073 29.0069171,29.2500459 27.3831426,28.0592779 C26.5171296,27.4097681 26.3006263,26.7602583 26.9501361,25.8942452 C27.5996459,25.3529871 28.465659,25.2447354 29.5481753,25.5694903 C30.3059368,26.0024969 31.3884531,26.6520067 32.7957243,27.734523 C33.5534858,26.7602583 34.2029956,25.5694903 34.6360021,24.1622191 C34.7442537,23.8374642 34.6360021,23.7292126 34.3112472,23.6209609 L34.3112472,23.6209609 L25.4346132,23.6209609 C25.4346132,28.0592779 25.0016067,31.4150786 24.2438452,34.0131178 C23.8108387,34.9873825 23.1613289,35.5286407 22.1870642,35.420389 C21.3210511,35.0956341 20.9962962,34.3378727 21.2127995,33.2553564 C21.9705609,29.8995557 22.4035675,26.543755 22.5118191,23.0797028 L22.5118191,23.0797028 L22.5118191,17.8836243 C22.5118191,16.3681015 23.1613289,15.61034 24.7851034,15.61034 C27.9244008,15.61034 32.2544662,15.3938367 37.5587962,15.0690818 Z M14.5011982,15.61034 C15.150708,14.9608302 15.9084694,14.8525786 16.9909858,15.1773335 C18.1817537,15.8268433 19.4807734,16.5846047 20.5632897,17.5588694 C21.3210511,18.3166309 21.4293028,19.0743923 20.9962962,19.9404054 C20.2385348,20.8064184 19.589025,20.9146701 18.8312635,20.2651603 C17.5322439,19.2908956 16.2332243,18.4248825 15.0424564,17.6671211 C14.2846949,17.1258629 14.0681917,16.4763531 14.5011982,15.61034 Z" id="形状结合"></path>
        </g>
    </g>
</svg>