<?xml version="1.0" encoding="UTF-8"?>
<svg width="72px" height="72px" viewBox="0 0 72 72" version="1.1" xmlns="http://www.w3.org/2000/svg" xmlns:xlink="http://www.w3.org/1999/xlink">
    <title>返利政策-关联指标</title>
    <g id="返利政策-关联指标" stroke="none" stroke-width="1" fill="none" fill-rule="evenodd">
        <g id="编组-2" transform="translate(1.000000, 1.000000)" fill="#60759C" fill-rule="nonzero">
            <path d="M9,33 C10.3807119,33 11.5,34.1192881 11.5,35.5 C11.5,48.754834 22.245166,59.5 35.5,59.5 C41.8728267,59.5 47.8459692,57.0084033 52.3050167,52.6345204 C53.2906949,51.6676679 54.8735338,51.6829292 55.8403862,52.6686074 C56.8072387,53.6542856 56.7919774,55.2371245 55.8062992,56.203977 C50.4216902,61.4857439 43.1955684,64.5 35.5,64.5 C19.4837423,64.5 6.5,51.5162577 6.5,35.5 C6.5,34.1192881 7.61928813,33 9,33 Z M35.5,6.5 C51.5162577,6.5 64.5,19.4837423 64.5,35.5 C64.5,38.2660713 64.2387619,40.5138045 63.6000956,42.8603068 C63.2374875,44.1925533 61.8635364,44.9786004 60.5312899,44.6159923 C59.1990435,44.2533842 58.4129963,42.8794331 58.7756044,41.5471866 C59.2893387,39.6596927 59.5,37.8471303 59.5,35.5 C59.5,22.245166 48.754834,11.5 35.5,11.5 C27.0387919,11.5 19.3416086,15.9117666 15.0076486,23.0001469 C14.2874136,24.1781226 12.7486098,24.5491948 11.5706341,23.8289598 C10.3926583,23.1087248 10.0215862,21.5699209 10.7418212,20.3919452 C15.9750157,11.8328276 25.2791688,6.5 35.5,6.5 Z" id="形状" transform="translate(35.500000, 35.500000) rotate(-23.000000) translate(-35.500000, -35.500000) "></path>
            <g id="编组-3" transform="translate(19.592593, 20.444444)">
                <g id="编组">
                    <path d="M15.2270675,1.79202739 L15.3356106,1.96296296 C16.0003978,3.11440817 15.6058836,4.58675544 14.4544384,5.25154264 L11.5538148,6.92542848 L28.4074074,6.92592593 C29.7369818,6.92592593 30.8148148,8.00375894 30.8148148,9.33333333 C30.8148148,10.6629077 29.7369818,11.7407407 28.4074074,11.7407407 L3.22222222,11.7407407 C1.89264782,11.7407407 0.814814815,10.6629077 0.814814815,9.33333333 C0.814814815,8.96920464 0.89565662,8.62395756 1.04037128,8.31456104 C1.17163062,7.88717422 1.43928788,7.49778838 1.83110355,7.21731429 C1.87926676,7.18283753 1.92885432,7.15039529 1.97973557,7.12007302 L12.0638787,1.11051131 C13.1413539,0.468398874 14.5215931,0.778067358 15.2270675,1.79202739 Z" id="形状结合"></path>
                </g>
                <g id="编组" transform="translate(15.500000, 23.555556) scale(-1, -1) translate(-15.500000, -23.555556) translate(0.000000, 17.555556)">
                    <path d="M15.2270675,1.79202739 L15.3356106,1.96296296 C16.0003978,3.11440817 15.6058836,4.58675544 14.4544384,5.25154264 L11.5538148,6.92542848 L28.4074074,6.92592593 C29.7369818,6.92592593 30.8148148,8.00375894 30.8148148,9.33333333 C30.8148148,10.6629077 29.7369818,11.7407407 28.4074074,11.7407407 L3.22222222,11.7407407 C1.89264782,11.7407407 0.814814815,10.6629077 0.814814815,9.33333333 C0.814814815,8.96920464 0.89565662,8.62395756 1.04037128,8.31456104 C1.17163062,7.88717422 1.43928788,7.49778838 1.83110355,7.21731429 C1.87926676,7.18283753 1.92885432,7.15039529 1.97973557,7.12007302 L12.0638787,1.11051131 C13.1413539,0.468398874 14.5215931,0.778067358 15.2270675,1.79202739 Z" id="形状结合"></path>
                </g>
            </g>
        </g>
    </g>
</svg>