<?xml version="1.0" encoding="UTF-8"?>
<svg width="72px" height="72px" viewBox="0 0 72 72" version="1.1" xmlns="http://www.w3.org/2000/svg" xmlns:xlink="http://www.w3.org/1999/xlink">
    <title>返利计算</title>
    <g id="返利计算" stroke="none" stroke-width="1" fill="none" fill-rule="evenodd">
        <g id="编组" transform="translate(1.000000, 1.000000)" fill="#60759C" fill-rule="nonzero">
            <g id="时间轴-羊角标" transform="translate(26.000000, 22.000000)">
                <path d="M18.4410517,17.5666513 C18.712752,17.9088107 18.8684562,18.3175317 18.9029418,18.7928117 C18.8684567,19.2868123 18.7127515,19.6996923 18.4410517,20.0304132 C18.1683054,20.3632135 17.79733,20.5472932 17.3229004,20.5868138 L12.0895262,20.5587338 L12.0895262,23.5789013 C12.0184661,25.1929827 11.1720146,26.0000247 9.5543522,26.0000247 C8.75492627,26.0000247 8.13315055,25.8024244 7.68797901,25.402024 C7.24071798,25.003703 7.0003677,24.3963433 6.96588215,23.5789013 L6.96588215,20.6148979 L1.7032448,20.6148979 C1.21418372,20.5774579 0.83589379,20.3632176 0.573597464,19.9742561 L0.573597417,19.9742561 C0.310502543,19.5874929 0.146213351,19.1426817 0.0949863501,18.6784135 C0.150371415,18.204172 0.309211599,17.8152125 0.573597417,17.5104917 C0.834847721,17.2068118 1.21418367,17.0352116 1.70324475,16.9967321 L6.9658821,16.9967321 L6.9658821,14.1616878 L1.70324475,14.1336077 C1.21418367,14.0951277 0.835893743,13.9152075 0.573597417,13.5928071 C0.309211599,13.2683272 0.150371925,12.8596063 0.0949863501,12.3656057 C0.150371415,11.8913641 0.309211599,11.5024047 0.573597417,11.1976838 C0.834847721,10.894004 1.21418367,10.7234423 1.70324475,10.6849627 L5.62932146,10.6849627 L1.9760013,3.96240607 L1.97600131,3.96240608 C1.76965745,3.6937628 1.59569587,3.40195563 1.45767969,3.09296406 L1.45767961,3.0929639 C1.29273883,2.73124102 1.21816488,2.33517727 1.24031936,1.93856256 C1.33018947,1.40608244 1.5130657,0.974481942 1.78371999,0.641681554 C2.0575098,0.309922184 2.56747091,0.0956809189 3.31151126,0.00103979317 C3.74727626,0.0384798367 4.13915171,0.196560021 4.48400212,0.472160849 C4.82885252,0.746720153 5.11100284,1.04624101 5.3304531,1.36864138 L9.47282669,9.29032248 L14.0248581,1.31247726 C14.2422184,0.990076882 14.5254127,0.704076549 14.8713091,0.45759677 C15.2161595,0.207996733 15.6059455,0.0571963038 16.0417105,-3.76273286e-06 C16.3155003,0.0187162591 16.5642111,0.0571963038 16.7920218,0.113356369 C17.0166971,0.171596437 17.2183829,0.266236547 17.3918515,0.400397719 C17.5632317,0.532477873 17.7095309,0.722798094 17.8276165,0.969277873 C17.9457017,1.21575816 18.0303468,1.53919904 18.0857313,1.93855849 C18.0857313,2.48975913 17.9049461,3.01183923 17.5412847,3.50583981 L13.3163519,10.6860122 L17.3239418,10.6860122 C17.7962818,10.7234523 18.1693467,10.8950525 18.4400036,11.1987333 C18.7117039,11.5034542 18.867408,11.8924136 18.9039831,12.3666552 C18.867408,12.8616968 18.7085679,13.2797768 18.4274615,13.6208977 C18.1453112,13.9620186 17.7691107,14.1512983 17.2957247,14.1908188 L12.0884755,14.2188989 L12.0884755,16.996738 L17.3218497,16.996738 C17.7962792,17.0352181 18.1672547,17.2255383 18.440001,17.5666592 L18.4410517,17.5666513 Z" id="路径"></path>
            </g>
            <path d="M9,33 C10.3807119,33 11.5,34.1192881 11.5,35.5 C11.5,48.754834 22.245166,59.5 35.5,59.5 C41.8728267,59.5 47.8459692,57.0084033 52.3050167,52.6345204 C53.2906949,51.6676679 54.8735338,51.6829292 55.8403862,52.6686074 C56.8072387,53.6542856 56.7919774,55.2371245 55.8062992,56.203977 C50.4216902,61.4857439 43.1955684,64.5 35.5,64.5 C19.4837423,64.5 6.5,51.5162577 6.5,35.5 C6.5,34.1192881 7.61928813,33 9,33 Z M35.5,6.5 C51.5162577,6.5 64.5,19.4837423 64.5,35.5 C64.5,38.2660713 64.2387619,40.5138045 63.6000956,42.8603068 C63.2374875,44.1925533 61.8635364,44.9786004 60.5312899,44.6159923 C59.1990435,44.2533842 58.4129963,42.8794331 58.7756044,41.5471866 C59.2893387,39.6596927 59.5,37.8471303 59.5,35.5 C59.5,22.245166 48.754834,11.5 35.5,11.5 C27.0387919,11.5 19.3416086,15.9117666 15.0076486,23.0001469 C14.2874136,24.1781226 12.7486098,24.5491948 11.5706341,23.8289598 C10.3926583,23.1087248 10.0215862,21.5699209 10.7418212,20.3919452 C15.9750157,11.8328276 25.2791688,6.5 35.5,6.5 Z" id="形状" transform="translate(35.500000, 35.500000) rotate(-23.000000) translate(-35.500000, -35.500000) "></path>
        </g>
    </g>
</svg>