<?xml version="1.0" encoding="UTF-8"?>
<svg width="72px" height="72px" viewBox="0 0 72 72" version="1.1" xmlns="http://www.w3.org/2000/svg" xmlns:xlink="http://www.w3.org/1999/xlink">
    <title>费用申请单</title>
    <g id="费用申请单" stroke="none" stroke-width="1" fill="none" fill-rule="evenodd">
        <g id="编组-2" transform="translate(13.000000, 9.000000)" fill-rule="nonzero">
            <g id="编组" fill="#60759C" transform="translate(0.000000, 0.000000)">
                <path d="M25.5732775,-1.15419267 L4,-1.15419267 C0.410149126,-1.15419267 -2.5,1.75595646 -2.5,5.34580733 L-2.5,48.486486 C-2.5,52.0763369 0.410149126,54.986486 4,54.986486 L39.5135135,54.986486 C43.1033644,54.986486 46.0135135,52.0763369 46.0135135,48.486486 L46.0135135,13.3593112 C46.0135135,11.8114218 45.2179695,10.3721776 43.9072448,9.54879281 L27.9670087,-0.464711096 C27.2498748,-0.915207778 26.4201708,-1.15419267 25.5732775,-1.15419267 Z M25.428,3.845 L41.013,13.635 L41.0135135,48.486486 C41.0135135,49.3149131 40.3419406,49.986486 39.5135135,49.986486 L4,49.986486 C3.17157288,49.986486 2.5,49.3149131 2.5,48.486486 L2.5,5.34580733 C2.5,4.51738021 3.17157288,3.84580733 4,3.84580733 L25.428,3.845 Z" id="路径-5"></path>
                <path d="M28.6081081,-1.42108547e-14 L28.6081081,10 C28.6081081,11.3254834 29.639644,12.4100387 30.9437324,12.4946823 L31.1081081,12.5 L43.1081081,12.5 L43.1081081,17.5 L31.1081081,17.5 C27.0471908,17.5 23.7400906,14.2725256 23.6119617,10.2427311 L23.6081081,10 L23.6081081,-1.42108547e-14 L28.6081081,-1.42108547e-14 Z" id="路径-6"></path>
            </g>
            <g id="编辑" transform="translate(12.000000, 20.000000)">
                <rect id="矩形" fill="#000000" opacity="0" x="0" y="0" width="27" height="27"></rect>
                <path d="M6.64571932,16.7024978 L17.6839807,5.55751488 C18.4612628,4.77271782 19.7275781,4.7666257 20.5123751,5.54390774 C20.5169167,5.54840581 20.5214366,5.55292563 20.5259349,5.55746703 L22.4574427,7.50751803 C23.2295049,8.28699224 23.2295049,9.54292675 22.4574427,10.322401 L11.3922865,21.4937865 L11.3922865,21.4937865 L6.64571932,16.7024978 Z M3,25 L10.2075326,22.6916086 L5.46264355,17.9011671 L3,25 Z" id="形状" fill="#60759C"></path>
            </g>
            <g id="时间轴-羊角标" transform="translate(7.000000, 11.000000)" fill="#60759C">
                <path d="M12.6175617,11.4858874 C12.8034619,11.709607 12.9099964,11.9768476 12.9335917,12.2876077 C12.9099967,12.610608 12.8034616,12.880568 12.6175617,13.0968086 C12.4309458,13.3144089 12.1771205,13.4347687 11.8525108,13.460609 L8.27178107,13.442249 L8.27178107,15.416974 C8.22316101,16.4723349 7.64400999,17.0000161 6.53718835,17.0000161 C5.99021271,17.0000161 5.56478722,16.870816 5.26019616,16.6090157 C4.95417546,16.348575 4.78972527,15.9514552 4.76612989,15.416974 L4.76612989,13.4789717 L1.16537802,13.4789717 C0.830757282,13.4544917 0.57192733,13.3144115 0.392461423,13.0600905 L0.392461391,13.0600905 C0.212449109,12.8072069 0.100040714,12.5163688 0.0649906606,12.2128089 C0.102885705,11.9027278 0.211565831,11.6484082 0.392461391,11.4491676 C0.571211599,11.2506077 0.83075725,11.1384076 1.16537799,11.1132479 L4.76612986,11.1132479 L4.76612986,9.25956509 L1.16537799,9.24120506 C0.83075725,9.21604503 0.571927298,9.0984049 0.392461391,8.88760465 C0.211565831,8.67544474 0.102886054,8.40820409 0.0649906606,8.08520372 C0.102885705,7.77512269 0.211565831,7.52080306 0.392461391,7.3215625 C0.571211599,7.1230026 0.83075725,7.01148147 1.16537799,6.98632178 L3.851641,6.98632178 L1.35200089,2.59080397 L1.3520009,2.59080398 C1.21081826,2.4151526 1.09179191,2.2243556 0.997359785,2.02232265 L0.997359736,2.02232255 C0.884505513,1.78581143 0.833481231,1.52684668 0.848639563,1.26752167 C0.910129634,0.919361598 1.03525548,0.637161269 1.22044,0.419561016 C1.40776986,0.202641428 1.75669062,0.0625606008 2.26577086,0.000679864764 C2.56392586,0.0251598933 2.83205117,0.128520014 3.06800145,0.308720555 C3.30395172,0.4882401 3.49700195,0.68408066 3.64715212,0.894880905 L6.48140774,6.07444162 L9.59595555,0.858158206 C9.74467573,0.647357961 9.93844025,0.460357743 10.1751062,0.299197888 C10.4110565,0.135997864 10.6777522,0.0373975833 10.9759072,-2.46024841e-06 C11.163237,0.012237554 11.3334076,0.0373975833 11.4892781,0.074117626 C11.6430033,0.11219767 11.7809988,0.174077742 11.8996879,0.261798508 C12.016948,0.348158609 12.1170474,0.472598754 12.1978429,0.633758609 C12.278638,0.794918797 12.336553,1.00639937 12.3744477,1.26751901 C12.3744477,1.62791943 12.2507526,1.9692795 12.0019316,2.29227988 L9.11118813,6.98700799 L11.8532233,6.98700799 C12.1764033,7.01148802 12.4316583,7.12368815 12.6168445,7.32224872 C12.8027448,7.52148928 12.9092792,7.77580891 12.9343042,8.08588994 C12.9092792,8.40957098 12.8005991,8.68293096 12.6082631,8.90597156 C12.4152129,9.12901215 12.1578126,9.25277196 11.8339169,9.27861232 L8.27106215,9.29697234 L8.27106215,11.1132518 L11.8517919,11.1132518 C12.1764016,11.1384118 12.4302269,11.262852 12.6168428,11.4858926 L12.6175617,11.4858874 Z" id="路径"></path>
            </g>
        </g>
    </g>
</svg>