<?xml version="1.0" encoding="UTF-8"?>
<svg width="72px" height="72px" viewBox="0 0 72 72" version="1.1" xmlns="http://www.w3.org/2000/svg" xmlns:xlink="http://www.w3.org/1999/xlink">
    <title>营销费用归集</title>
    <g id="营销费用归集" stroke="none" stroke-width="1" fill="none" fill-rule="evenodd">
        <g id="编组" transform="translate(10.000000, 10.000000)" fill="#60759C">
            <path d="M18.3,32.5 L13.3905608,25.5 L5,25.5 C0.857864376,25.5 -2.5,28.8578644 -2.5,33 L-2.5,47 C-2.5,51.1421356 0.857864376,54.5 5,54.5 L47,54.5 C51.1421356,54.5 54.5,51.1421356 54.5,47 L54.5,33 C54.5,28.8578644 51.1421356,25.5 47,25.5 L38.7413806,25.5 L33.717,32.5 L18.3,32.5 Z M36.2829187,37.5 L41.306,30.5 L47,30.5 C48.3807119,30.5 49.5,31.6192881 49.5,33 L49.5,47 C49.5,48.3807119 48.3807119,49.5 47,49.5 L5,49.5 C3.61928813,49.5 2.5,48.3807119 2.5,47 L2.5,33 L2.50531768,32.8356243 C2.58996133,31.5315359 3.6745166,30.5 5,30.5 L10.79,30.5 L15.6998245,37.5 L36.2829187,37.5 Z" id="矩形" fill-rule="nonzero"></path>
            <path d="M46.0454545,14.5 C47.8897509,14.5 49.3964884,15.945261 49.4948884,17.7650042 L49.5,17.9545455 L49.5,27.0227273 L44.5,27.0227273 L44.5,19.499 L7.5,19.499 L7.5,27.0227273 L2.5,27.0227273 L2.5,17.9545455 C2.5,16.1102491 3.94526101,14.6035116 5.76500422,14.5051116 L5.95454545,14.5 L46.0454545,14.5 Z" id="路径" fill-rule="nonzero"></path>
            <rect id="Rectangle-5" transform="translate(26.000000, 9.400000) scale(1, -1) translate(-26.000000, -9.400000) " x="6" y="7" width="40" height="4.8" rx="2.4"></rect>
            <rect id="Rectangle-5备份" transform="translate(26.000000, 2.400000) scale(1, -1) translate(-26.000000, -2.400000) " x="8" y="7.10542736e-15" width="36" height="4.8" rx="2.4"></rect>
        </g>
    </g>
</svg>