<?xml version="1.0" encoding="UTF-8"?>
<svg width="72px" height="72px" viewBox="0 0 72 72" version="1.1" xmlns="http://www.w3.org/2000/svg" xmlns:xlink="http://www.w3.org/1999/xlink">
    <title>营销费用报表</title>
    <g id="营销费用报表" stroke="none" stroke-width="1" fill="none" fill-rule="evenodd">
        <g id="编组" transform="translate(12.000000, 12.000000)" fill="#60759C">
            <g id="编组-2">
                <path d="M43,-2.5 L5,-2.5 C0.857864376,-2.5 -2.5,0.857864376 -2.5,5 L-2.5,31.48 C-2.5,35.6221356 0.857864376,38.98 5,38.98 L43,38.98 C47.1421356,38.98 50.5,35.6221356 50.5,31.48 L50.5,5 C50.5,0.857864376 47.1421356,-2.5 43,-2.5 Z M5,2.5 L43,2.5 C44.3807119,2.5 45.5,3.61928813 45.5,5 L45.5,31.48 C45.5,32.8607119 44.3807119,33.98 43,33.98 L5,33.98 C3.61928813,33.98 2.5,32.8607119 2.5,31.48 L2.5,5 C2.5,3.61928813 3.61928813,2.5 5,2.5 Z" id="Rectangle-5" fill-rule="nonzero"></path>
                <rect id="Rectangle-5" transform="translate(24.000000, 45.600000) scale(1, -1) translate(-24.000000, -45.600000) " x="4.8" y="43.2" width="38.4" height="4.8" rx="2.4"></rect>
            </g>
            <path d="M38.6334629,11.5945753 C39.6526628,10.6631265 41.233976,10.7342629 42.1654247,11.7534629 C43.0563757,12.7283498 43.0300276,14.2175331 42.1340952,15.1603456 L42.0065371,15.2854247 L32.8548026,23.649212 C30.7243462,25.5962402 27.465884,25.5577868 25.3824757,23.6016148 L25.2017536,23.4240363 L18.8591471,16.9029514 C18.7165146,16.7563053 18.501625,16.7132751 18.3165964,16.7866602 L18.2394244,16.8252758 L8.98649188,22.496946 C7.80932457,23.2185015 6.27010558,22.8491552 5.54855003,21.6719879 C4.8570593,20.5438692 5.16745587,19.0832413 6.23059008,18.3284138 L6.37350812,18.2340461 L15.6264407,12.5623759 C17.7483282,11.2617454 20.4683003,11.5521296 22.2666804,13.2430533 L22.4433901,13.4168071 L28.7859966,19.937892 C28.9507735,20.1073056 29.2072145,20.1354216 29.4023153,20.017738 L29.4817284,19.9583626 L38.6334629,11.5945753 Z" id="路径-12" fill-rule="nonzero"></path>
        </g>
    </g>
</svg>