<?xml version="1.0" encoding="UTF-8"?>
<svg width="72px" height="72px" viewBox="0 0 72 72" version="1.1" xmlns="http://www.w3.org/2000/svg" xmlns:xlink="http://www.w3.org/1999/xlink">
    <title>无线设备接口</title>
    <g id="无线设备接口" stroke="none" stroke-width="1" fill="none" fill-rule="evenodd">
        <g id="无线" transform="translate(14.000000, 11.000000)" fill="#60759C" fill-rule="nonzero">
            <path d="M16.5236044,22.2363003 C16.5236044,24.4458356 17.7828971,26.3560586 19.6210047,27.2952279 L19.6210047,42.3693465 C19.6210047,43.5051638 18.6913506,44.4343728 17.5560341,44.4343728 L11.877504,44.4343728 C10.45278,44.4343728 9.29631855,45.5907786 9.29631855,47.0154469 C9.29631855,48.4401709 10.45278,49.596688 11.8774484,49.596688 L32.5268207,49.596688 C33.951489,49.596688 35.1079505,48.4401153 35.1079505,47.0154469 C35.1079505,45.5907786 33.951489,44.4343728 32.5268207,44.4343728 L26.848235,44.4343728 C25.7129184,44.4343728 24.7832643,43.5051082 24.7832643,42.3693465 L24.7832643,27.2952279 C26.6203147,26.3559473 27.8806646,24.4458356 27.8806646,22.2363003 C27.8806646,19.0975561 25.3408231,16.5577702 22.2020789,16.5577702 C19.0633347,16.5577702 16.5235488,19.0975561 16.5235488,22.2363003 L16.5236044,22.2363003 Z M8.26388889,22.4429643 C8.26388889,25.0241498 8.9555511,27.4400151 10.1534121,29.5255743 L10.3087162,29.7629541 C10.7310586,30.6094752 11.5992811,31.1876224 12.6004941,31.1876224 C14.0251625,31.1876224 15.1816239,30.0210893 15.1816239,28.5756655 C15.1816239,28.0801505 15.0464632,27.6153512 14.8095286,27.2232795 L14.5301928,26.748186 C13.8285145,25.467804 13.4262041,24.0017361 13.4262041,22.4429643 C13.4262041,17.5488003 17.3603877,13.4602586 22.2021902,13.4602586 C27.0439926,13.4602586 30.9781762,17.5488003 30.9781762,22.4429643 C30.9781762,24.0017361 30.5749199,25.467804 29.8730747,26.748186 L29.5948518,27.2232795 C29.3568599,27.6154069 29.2227564,28.0802061 29.2227564,28.5756655 C29.2227564,30.0210337 30.3792179,31.1876224 31.8038862,31.1876224 C32.8050993,31.1876224 33.6722645,30.6094752 34.0956642,29.7629541 L34.2509126,29.5255743 C35.4488292,27.4400151 36.1404915,25.0241498 36.1404915,22.4429643 C36.1404915,14.6683026 29.9044026,8.29799902 22.2021902,8.29799902 C14.4999777,8.29799902 8.26388889,14.6681913 8.26388889,22.4429643 L8.26388889,22.4429643 Z M0.00411769943,22.4429643 C0.00411769943,27.4913194 1.65564904,32.1481593 4.45457176,35.8958222 L4.64009081,36.1539574 C5.10399973,36.7942041 5.86816684,37.2071982 6.7151331,37.2071982 C8.13980146,37.2071982 9.29631855,36.0406651 9.29631855,34.6052573 C9.29631855,34.0064103 9.10067219,33.4489071 8.75990474,33.0051416 L8.56325677,32.7363782 C6.42572561,29.8662861 5.16637731,26.3040865 5.16637731,22.4430199 C5.16637731,12.9442107 12.7959179,5.20059874 22.2020789,5.20059874 C31.6071826,5.20059874 39.2378361,12.9441551 39.2378361,22.4430199 C39.2378361,26.3041978 37.9774862,29.8663973 35.8409566,32.7363782 L35.6443087,33.0051416 C35.3035412,33.4489071 35.1078949,34.0064659 35.1078949,34.6052573 C35.1078949,36.0406094 36.2644119,37.2071982 37.6890803,37.2071982 C38.5349893,37.2071982 39.3002137,36.7942041 39.7641226,36.1539574 L39.9496416,35.8958222 C42.7485644,32.1481593 44.4000957,27.4913194 44.4000957,22.4429643 C44.4000957,10.0634905 34.4575209,0.0382278312 22.2020232,0.0382278312 C9.94652555,0.0382278312 0.00411769943,10.0634348 0.00411769943,22.4429643 Z" id="形状"></path>
        </g>
    </g>
</svg>