<?xml version="1.0" encoding="UTF-8"?>
<svg width="72px" height="72px" viewBox="0 0 72 72" version="1.1" xmlns="http://www.w3.org/2000/svg" xmlns:xlink="http://www.w3.org/1999/xlink">
    <title>WMS集成接口</title>
    <g id="WMS集成接口" stroke="none" stroke-width="1" fill="none" fill-rule="evenodd">
        <g id="编组-3" transform="translate(9.500000, 10.000000)" fill="#60759C">
            <path d="M38.5,6.125 L14.5,6.125 C10.1507576,6.125 6.625,9.6507576 6.625,14 L6.625,38 C6.625,42.3492424 10.1507576,45.875 14.5,45.875 L38.5,45.875 C42.8492424,45.875 46.375,42.3492424 46.375,38 L46.375,14 C46.375,9.6507576 42.8492424,6.125 38.5,6.125 Z M14.5,9.875 L38.5,9.875 C40.7781746,9.875 42.625,11.7218254 42.625,14 L42.625,38 C42.625,40.2781746 40.7781746,42.125 38.5,42.125 L14.5,42.125 C12.2218254,42.125 10.375,40.2781746 10.375,38 L10.375,14 C10.375,11.7218254 12.2218254,9.875 14.5,9.875 Z" id="Rectangle-5" fill-rule="nonzero"></path>
            <g id="编组-2" transform="translate(12.500000, 0.000000)">
                <g id="编组">
                    <rect id="矩形备份-5" transform="translate(25.003333, 4.222222) rotate(-90.000000) translate(-25.003333, -4.222222) " x="21.0033333" y="2" width="8" height="4.44444444" rx="2.22222222"></rect>
                    <rect id="矩形备份-6" transform="translate(17.668889, 4.222222) rotate(-90.000000) translate(-17.668889, -4.222222) " x="13.6688889" y="2" width="8" height="4.44444444" rx="2.22222222"></rect>
                    <rect id="矩形备份-7" transform="translate(3.000000, 4.222222) rotate(-90.000000) translate(-3.000000, -4.222222) " x="-1" y="2" width="8" height="4.44444444" rx="2.22222222"></rect>
                    <rect id="矩形备份-8" transform="translate(10.334444, 4.222222) rotate(-90.000000) translate(-10.334444, -4.222222) " x="6.33444444" y="2" width="8" height="4.44444444" rx="2.22222222"></rect>
                </g>
                <g id="编组备份" transform="translate(0.000000, 42.000000)">
                    <rect id="矩形备份-5" transform="translate(25.003333, 4.722222) rotate(-90.000000) translate(-25.003333, -4.722222) " x="20.5033333" y="2.5" width="9" height="4.44444444" rx="2.22222222"></rect>
                    <rect id="矩形备份-6" transform="translate(17.668889, 4.722222) rotate(-90.000000) translate(-17.668889, -4.722222) " x="13.1688889" y="2.5" width="9" height="4.44444444" rx="2.22222222"></rect>
                    <rect id="矩形备份-7" transform="translate(3.000000, 4.722222) rotate(-90.000000) translate(-3.000000, -4.722222) " x="-1.5" y="2.5" width="9" height="4.44444444" rx="2.22222222"></rect>
                    <rect id="矩形备份-8" transform="translate(10.334444, 4.722222) rotate(-90.000000) translate(-10.334444, -4.722222) " x="5.83444444" y="2.5" width="9" height="4.44444444" rx="2.22222222"></rect>
                </g>
            </g>
            <g id="编组" transform="translate(5.000000, 26.000000) rotate(-90.000000) translate(-5.000000, -26.000000) translate(-9.000000, 21.500000)">
                <rect id="矩形备份-5" transform="translate(25.003333, 4.222222) rotate(-90.000000) translate(-25.003333, -4.222222) " x="21.0033333" y="2" width="8" height="4.44444444" rx="2.22222222"></rect>
                <rect id="矩形备份-6" transform="translate(17.668889, 4.222222) rotate(-90.000000) translate(-17.668889, -4.222222) " x="13.6688889" y="2" width="8" height="4.44444444" rx="2.22222222"></rect>
                <rect id="矩形备份-7" transform="translate(3.000000, 4.222222) rotate(-90.000000) translate(-3.000000, -4.222222) " x="-1" y="2" width="8" height="4.44444444" rx="2.22222222"></rect>
                <rect id="矩形备份-8" transform="translate(10.334444, 4.222222) rotate(-90.000000) translate(-10.334444, -4.222222) " x="6.33444444" y="2" width="8" height="4.44444444" rx="2.22222222"></rect>
            </g>
            <g id="编组备份" transform="translate(47.500000, 26.000000) rotate(-90.000000) translate(-47.500000, -26.000000) translate(33.500000, 21.000000)">
                <rect id="矩形备份-5" transform="translate(25.003333, 4.722222) rotate(-90.000000) translate(-25.003333, -4.722222) " x="20.5033333" y="2.5" width="9" height="4.44444444" rx="2.22222222"></rect>
                <rect id="矩形备份-6" transform="translate(17.668889, 4.722222) rotate(-90.000000) translate(-17.668889, -4.722222) " x="13.1688889" y="2.5" width="9" height="4.44444444" rx="2.22222222"></rect>
                <rect id="矩形备份-7" transform="translate(3.000000, 4.722222) rotate(-90.000000) translate(-3.000000, -4.722222) " x="-1.5" y="2.5" width="9" height="4.44444444" rx="2.22222222"></rect>
                <rect id="矩形备份-8" transform="translate(10.334444, 4.722222) rotate(-90.000000) translate(-10.334444, -4.722222) " x="5.83444444" y="2.5" width="9" height="4.44444444" rx="2.22222222"></rect>
            </g>
            <path d="M16.4726562,30 L18.1777344,23.578125 L19.8886719,30 L21.7285156,30 L23.8144531,21.4101562 L22.0683594,21.4101562 L20.75,27.4101562 L19.2441406,21.4101562 L17.1816406,21.4101562 L15.6113281,27.3105469 L14.3164062,21.4101562 L12.5410156,21.4101562 L14.5917969,30 L16.4726562,30 Z M25.6871094,30 L25.6871094,23.2382812 L27.3863281,30 L29.05625,30 L30.7613281,23.2382812 L30.7613281,30 L32.3726562,30 L32.3726562,21.4101562 L29.7710937,21.4101562 L28.2300781,27.2695312 L26.6714844,21.4101562 L24.0757812,21.4101562 L24.0757812,30 L25.6871094,30 Z M36.6007812,30.1523438 C37.346875,30.1523438 37.9699219,30.0478516 38.4699219,29.8388672 C38.9699219,29.6298828 39.3566406,29.3105469 39.6300781,28.8808594 C39.9035156,28.4511719 40.0402344,27.9902344 40.0402344,27.4980469 C40.0402344,26.9550781 39.9259766,26.4990234 39.6974609,26.1298828 C39.4689453,25.7607422 39.1525391,25.4697266 38.7482422,25.2568359 C38.3439453,25.0439453 37.7199219,24.8378906 36.8761719,24.6386719 C36.0324219,24.4394531 35.5011719,24.2480469 35.2824219,24.0644531 C35.1105469,23.9199219 35.0246094,23.7460938 35.0246094,23.5429688 C35.0246094,23.3203125 35.1164062,23.1425781 35.3,23.0097656 C35.5851562,22.8027344 35.9796875,22.6992188 36.4835937,22.6992188 C36.971875,22.6992188 37.3380859,22.7958984 37.5822266,22.9892578 C37.8263672,23.1826172 37.9855469,23.5 38.0597656,23.9414062 L38.0597656,23.9414062 L39.7941406,23.8652344 C39.7667969,23.0761719 39.4806641,22.4453125 38.9357422,21.9726562 C38.3908203,21.5 37.5792969,21.2636719 36.5011719,21.2636719 C35.8410156,21.2636719 35.2775391,21.3632812 34.8107422,21.5625 C34.3439453,21.7617188 33.9865234,22.0517578 33.7384766,22.4326172 C33.4904297,22.8134766 33.3664062,23.2226562 33.3664062,23.6601562 C33.3664062,24.3398438 33.6300781,24.9160156 34.1574219,25.3886719 C34.5324219,25.7246094 35.1847656,26.0078125 36.1144531,26.2382812 C36.8371094,26.4179688 37.3,26.5429688 37.503125,26.6132812 C37.8,26.71875 38.0080078,26.8427734 38.1271484,26.9853516 C38.2462891,27.1279297 38.3058594,27.3007812 38.3058594,27.5039062 C38.3058594,27.8203125 38.1642578,28.0966797 37.8810547,28.3330078 C37.5978516,28.5693359 37.1769531,28.6875 36.6183594,28.6875 C36.0910156,28.6875 35.6720703,28.5546875 35.3615234,28.2890625 C35.0509766,28.0234375 34.8449219,27.6074219 34.7433594,27.0410156 L34.7433594,27.0410156 L33.0558594,27.2050781 C33.1691406,28.1660156 33.5167969,28.8974609 34.0988281,29.3994141 C34.6808594,29.9013672 35.5148437,30.1523438 36.6007812,30.1523438 Z" id="WMS" fill-rule="nonzero"></path>
        </g>
    </g>
</svg>