<?xml version="1.0" encoding="UTF-8"?>
<svg width="72px" height="72px" viewBox="0 0 72 72" version="1.1" xmlns="http://www.w3.org/2000/svg" xmlns:xlink="http://www.w3.org/1999/xlink">
    <title>序列号应用</title>
    <g id="序列号应用" stroke="none" stroke-width="1" fill="none" fill-rule="evenodd">
        <g id="编组" transform="translate(8.000000, 8.000000)" fill="#60759C" fill-rule="nonzero">
            <path d="M45,0.5 L11,0.5 C5.20101013,0.5 0.5,5.20101013 0.5,11 L0.5,45 C0.5,50.7989899 5.20101013,55.5 11,55.5 L45,55.5 C50.7989899,55.5 55.5,50.7989899 55.5,45 L55.5,11 C55.5,5.20101013 50.7989899,0.5 45,0.5 Z M11,5.5 L45,5.5 C48.0375661,5.5 50.5,7.96243388 50.5,11 L50.5,45 C50.5,48.0375661 48.0375661,50.5 45,50.5 L11,50.5 C7.96243388,50.5 5.5,48.0375661 5.5,45 L5.5,11 C5.5,7.96243388 7.96243388,5.5 11,5.5 Z" id="Rectangle-5"></path>
            <g id="序列号" transform="translate(13.000000, 13.000000)">
                <path d="M0,0 L2.5,0 L2.5,23.75 L0,23.75 L0,0 Z M3.75,0 L5,0 L5,23.75 L3.75,23.75 L3.75,0 Z M6.25,0 L7.5,0 L7.5,23.75 L6.25,23.75 L6.25,0 Z M8.75,0 L11.25,0 L11.25,23.75 L8.75,23.75 L8.75,0 Z M12.5,0 L13.75,0 L13.75,23.75 L12.5,23.75 L12.5,0 Z M15,0 L18.75,0 L18.75,23.75 L15,23.75 L15,0 Z M20,0 L21.25,0 L21.25,23.75 L20,23.75 L20,0 Z M22.5,0 L23.75,0 L23.75,23.75 L22.5,23.75 L22.5,0 Z M25,0 L27.5,0 L27.5,23.75 L25,23.75 L25,0 Z M28.75,0 L30,0 L30,23.75 L28.75,23.75 L28.75,0 Z" id="形状"></path>
                <path d="M0.65375,29.978125 L0.65375,27.0675 L-3.55271368e-15,27.0675 L-3.55271368e-15,26.715 L1.0625,26.715 L1.0625,29.978125 L0.65375,29.978125 Z M4.873125,27.699375 L4.873125,28.376875 C4.873125,28.49625 4.8725,28.61125 4.87125,28.72375 L4.869375,29.015 C4.86826642,29.1494402 4.8463398,29.2828974 4.804375,29.410625 C4.73266606,29.6414337 4.56170645,29.8282059 4.338125,29.92 C4.21038326,29.9704335 4.07421131,29.9960983 3.936875,29.995625 C3.82875,29.99875 3.710625,30 3.580625,30 C3.46361856,30.0004892 3.34664242,29.9961104 3.23,29.986875 C2.96125,29.96625 2.75,29.873125 2.59625,29.7075 C2.441875,29.541875 2.365,29.325625 2.365,29.05875 C2.365,28.96875 2.364375,28.8675 2.361875,28.755 L2.354375,28.403125 C2.35124742,28.1668689 2.35270603,27.9305744 2.35875,27.694375 C2.365625,27.549375 2.3875,27.418125 2.42375,27.301875 C2.46,27.185 2.51375,27.08375 2.585625,26.998125 C2.6575,26.9125 2.749375,26.844375 2.860625,26.794375 C2.971875,26.744375 3.104375,26.716875 3.256875,26.710625 C3.37125,26.705 3.4925,26.70125 3.62,26.7 C3.7475,26.698125 3.8775,26.701875 4.009375,26.710625 C4.306875,26.733125 4.525,26.831875 4.6625,27.00625 C4.8,27.1825 4.87,27.413125 4.873125,27.699375 L4.873125,27.699375 Z M4.481875,29.0675 C4.4875,28.96 4.49125,28.83875 4.4925,28.703125 C4.49375,28.5675 4.49375,28.431875 4.4925,28.296875 L4.488125,27.905625 C4.48698191,27.7955609 4.48343941,27.6855347 4.4775,27.575625 C4.46875,27.4025 4.413125,27.2725 4.310625,27.184375 C4.226875,27.1125 4.098125,27.070625 3.923125,27.059375 C3.87444079,27.0558502 3.82567518,27.0535578 3.776875,27.0525 C3.66293173,27.0498794 3.54894327,27.0498794 3.435,27.0525 C3.38578315,27.0535453 3.3366007,27.0558377 3.2875,27.059375 C2.951875,27.076875 2.778125,27.249375 2.76625,27.57625 C2.754375,27.845 2.7475,28.098125 2.744375,28.33625 C2.741875,28.575 2.745625,28.823125 2.7575,29.08125 C2.76625,29.25875 2.81375,29.39375 2.899375,29.486875 C2.985,29.580625 3.11625,29.63375 3.291875,29.64875 C3.49150266,29.6678259 3.69229801,29.6715869 3.8925,29.66 C4.2675,29.63125 4.46375,29.434375 4.481875,29.0675 L4.481875,29.0675 Z M6.2375,29.978125 L6.2375,27.0675 L5.58375,27.0675 L5.58375,26.715 L6.64625,26.715 L6.64625,29.978125 L6.2375,29.978125 Z M10.456875,27.699375 L10.456875,28.376875 C10.456875,28.49625 10.45625,28.61125 10.455,28.72375 L10.453125,29.015 C10.4520164,29.1494402 10.4300898,29.2828974 10.388125,29.410625 C10.3164161,29.6414337 10.1454564,29.8282059 9.921875,29.92 C9.79413326,29.9704335 9.65796131,29.9960983 9.520625,29.995625 C9.4125,29.99875 9.294375,30 9.164375,30 C9.04736856,30.0004892 8.93039242,29.9961104 8.81375,29.986875 C8.545,29.96625 8.33375,29.873125 8.18,29.7075 C8.025625,29.541875 7.94875,29.325625 7.94875,29.05875 C7.94875,28.96875 7.948125,28.8675 7.945625,28.755 L7.938125,28.403125 C7.93499742,28.1668689 7.93645603,27.9305744 7.9425,27.694375 C7.949375,27.549375 7.97125,27.418125 8.0075,27.301875 C8.04375,27.185625 8.0975,27.08375 8.169375,26.998125 C8.24125,26.9125 8.333125,26.844375 8.444375,26.794375 C8.555625,26.745 8.688125,26.716875 8.840625,26.710625 C8.955,26.705 9.07625,26.70125 9.20375,26.7 C9.33125,26.698125 9.46125,26.701875 9.593125,26.710625 C9.890625,26.733125 10.10875,26.831875 10.24625,27.00625 C10.38375,27.1825 10.454375,27.413125 10.456875,27.699375 L10.456875,27.699375 Z M10.065625,29.0675 C10.07125,28.96 10.075,28.83875 10.07625,28.703125 C10.0775,28.5675 10.0775,28.431875 10.07625,28.296875 L10.071875,27.905625 C10.0707319,27.7955609 10.0671894,27.6855347 10.06125,27.575625 C10.0525,27.4025 9.996875,27.2725 9.894375,27.184375 C9.810625,27.1125 9.681875,27.070625 9.506875,27.059375 C9.45819079,27.0558502 9.40942518,27.0535578 9.360625,27.0525 C9.24668173,27.0498794 9.13269327,27.0498794 9.01875,27.0525 C8.96953315,27.0535453 8.9203507,27.0558377 8.87125,27.059375 C8.535625,27.076875 8.361875,27.249375 8.35,27.57625 C8.338125,27.845 8.33125,28.098125 8.328125,28.33625 C8.325625,28.575 8.329375,28.823125 8.34125,29.08125 C8.35,29.25875 8.3975,29.39375 8.483125,29.486875 C8.56875,29.580625 8.7,29.63375 8.875625,29.64875 C9.07525266,29.6678259 9.27604801,29.6715869 9.47625,29.66 C9.85125,29.63125 10.048125,29.434375 10.065625,29.0675 L10.065625,29.0675 Z M13.24875,27.699375 L13.24875,28.376875 C13.24875,28.49625 13.248125,28.61125 13.246875,28.72375 L13.245,29.015 C13.2438914,29.1494402 13.2219648,29.2828974 13.18,29.410625 C13.1082911,29.6414337 12.9373314,29.8282059 12.71375,29.92 C12.5860083,29.9704335 12.4498363,29.9960983 12.3125,29.995625 C12.204375,29.99875 12.08625,30 11.95625,30 C11.8392436,30.0004892 11.7222674,29.9961104 11.605625,29.986875 C11.336875,29.96625 11.125625,29.873125 10.971875,29.7075 C10.8175,29.541875 10.740625,29.325625 10.740625,29.05875 C10.740625,28.96875 10.74,28.8675 10.7375,28.755 L10.73,28.403125 C10.7268724,28.1668689 10.728331,27.9305744 10.734375,27.694375 C10.74125,27.549375 10.763125,27.418125 10.799375,27.301875 C10.835625,27.185625 10.889375,27.08375 10.96125,26.998125 C11.033125,26.9125 11.125,26.844375 11.23625,26.794375 C11.3475,26.745 11.48,26.716875 11.6325,26.710625 C11.746875,26.705 11.868125,26.70125 11.995625,26.7 C12.123125,26.698125 12.253125,26.701875 12.385,26.710625 C12.6825,26.733125 12.900625,26.831875 13.038125,27.00625 C13.175625,27.1825 13.24625,27.413125 13.24875,27.699375 L13.24875,27.699375 Z M12.8575,29.0675 C12.863125,28.96 12.866875,28.83875 12.868125,28.703125 C12.869375,28.5675 12.869375,28.431875 12.868125,28.296875 L12.86375,27.905625 C12.8626069,27.7955609 12.8590644,27.6855347 12.853125,27.575625 C12.844375,27.4025 12.78875,27.2725 12.68625,27.184375 C12.6025,27.1125 12.47375,27.070625 12.29875,27.059375 C12.2500658,27.0558502 12.2013002,27.0535578 12.1525,27.0525 C12.0385567,27.0498794 11.9245683,27.0498794 11.810625,27.0525 C11.7614082,27.0535453 11.7122257,27.0558377 11.663125,27.059375 C11.3275,27.076875 11.15375,27.249375 11.141875,27.57625 C11.13,27.845 11.123125,28.098125 11.12,28.33625 C11.1175,28.575 11.12125,28.823125 11.133125,29.08125 C11.141875,29.25875 11.189375,29.39375 11.275,29.486875 C11.360625,29.580625 11.491875,29.63375 11.6675,29.64875 C11.8671277,29.6678259 12.067923,29.6715869 12.268125,29.66 C12.643125,29.63125 12.839375,29.434375 12.8575,29.0675 L12.8575,29.0675 Z M14.613125,29.978125 L14.613125,27.0675 L13.959375,27.0675 L13.959375,26.715 L15.021875,26.715 L15.021875,29.978125 L14.613125,29.978125 L14.613125,29.978125 Z M18.8325,27.699375 L18.8325,28.376875 C18.8325,28.49625 18.831875,28.61125 18.830625,28.72375 C18.82875,28.83625 18.828125,28.9325 18.828125,29.015 C18.8266042,29.149355 18.8049036,29.2827189 18.76375,29.410625 C18.7225,29.53125 18.66375,29.63375 18.585,29.719375 C18.5048892,29.8066344 18.406508,29.8751385 18.296875,29.92 C18.1689125,29.9704233 18.032538,29.9960863 17.895,29.995625 C17.78875,29.99875 17.67,30 17.540625,30 C17.410625,30 17.29375,29.995625 17.189375,29.986875 C16.920625,29.96625 16.71,29.873125 16.555625,29.7075 C16.401875,29.541875 16.325,29.325625 16.325,29.05875 C16.325,28.96875 16.32375,28.8675 16.321875,28.755 L16.31375,28.403125 C16.3109392,28.281271 16.3103141,28.1593764 16.311875,28.0375 C16.3131961,27.9231124 16.3152795,27.8087348 16.318125,27.694375 C16.325625,27.549375 16.3475,27.418125 16.383125,27.301875 C16.41875,27.185625 16.473125,27.08375 16.545,26.998125 C16.616875,26.9125 16.708125,26.844375 16.82,26.794375 C16.931875,26.744375 17.06375,26.716875 17.215625,26.710625 C17.330625,26.705 17.45125,26.70125 17.579375,26.7 C17.70625,26.698125 17.836875,26.701875 17.968125,26.710625 C18.265625,26.733125 18.48375,26.831875 18.621875,27.00625 C18.759375,27.1825 18.829375,27.413125 18.8325,27.699375 L18.8325,27.699375 Z M18.44125,29.0675 C18.446875,28.96 18.450625,28.83875 18.4525,28.703125 C18.45375,28.5675 18.45375,28.431875 18.4525,28.296875 L18.448125,27.905625 C18.4468036,27.7955556 18.4430527,27.6855288 18.436875,27.575625 C18.428125,27.4025 18.3725,27.2725 18.269375,27.184375 C18.18625,27.1125 18.056875,27.070625 17.8825,27.059375 C17.8338158,27.0558502 17.7850502,27.0535578 17.73625,27.0525 C17.6223069,27.0498617 17.5083181,27.0498617 17.394375,27.0525 C17.3451582,27.0535453 17.2959757,27.0558377 17.246875,27.059375 C16.91125,27.076875 16.736875,27.249375 16.725625,27.57625 C16.71375,27.845 16.70625,28.098125 16.703125,28.33625 C16.7001693,28.5846584 16.7045462,28.8330999 16.71625,29.08125 C16.725625,29.25875 16.7725,29.39375 16.858125,29.486875 C16.94375,29.580625 17.074375,29.63375 17.250625,29.64875 C17.450044,29.6678209 17.6506313,29.6715819 17.850625,29.66 C18.2275,29.63125 18.42375,29.434375 18.44125,29.0675 L18.44125,29.0675 Z M20.19625,29.978125 L20.19625,27.0675 L19.543125,27.0675 L19.543125,26.715 L20.605625,26.715 L20.605625,29.978125 L20.19625,29.978125 Z M24.41625,27.699375 L24.41625,28.376875 C24.41625,28.49625 24.415625,28.61125 24.414375,28.72375 C24.4125,28.83625 24.411875,28.9325 24.411875,29.015 C24.4103542,29.149355 24.3886536,29.2827189 24.3475,29.410625 C24.30625,29.53125 24.2475,29.63375 24.16875,29.719375 C24.0886392,29.8066344 23.990258,29.8751385 23.880625,29.92 C23.7526625,29.9704233 23.616288,29.9960863 23.47875,29.995625 C23.3725,29.99875 23.25375,30 23.124375,30 C22.994375,30 22.8775,29.995625 22.773125,29.986875 C22.504375,29.96625 22.29375,29.873125 22.139375,29.7075 C21.985625,29.541875 21.90875,29.325625 21.90875,29.05875 C21.90875,28.96875 21.9075,28.8675 21.905625,28.755 L21.8975,28.403125 C21.8946892,28.281271 21.8940641,28.1593764 21.895625,28.0375 C21.8969461,27.9231124 21.8990295,27.8087348 21.901875,27.694375 C21.909375,27.549375 21.93125,27.418125 21.966875,27.301875 C22.0025,27.185625 22.056875,27.08375 22.12875,26.998125 C22.200625,26.9125 22.291875,26.844375 22.40375,26.794375 C22.515625,26.744375 22.6475,26.716875 22.799375,26.710625 C22.914375,26.705 23.035,26.70125 23.163125,26.7 C23.29,26.698125 23.420625,26.701875 23.551875,26.710625 C23.849375,26.733125 24.0675,26.831875 24.205625,27.00625 C24.343125,27.1825 24.413125,27.413125 24.41625,27.699375 L24.41625,27.699375 Z M24.025,29.0675 C24.030625,28.96 24.034375,28.83875 24.03625,28.703125 C24.0375,28.5675 24.0375,28.431875 24.03625,28.296875 L24.031875,27.905625 C24.0305536,27.7955556 24.0268027,27.6855288 24.020625,27.575625 C24.011875,27.4025 23.95625,27.2725 23.853125,27.184375 C23.77,27.1125 23.640625,27.070625 23.46625,27.059375 C23.4175658,27.0558502 23.3688002,27.0535578 23.32,27.0525 C23.2060569,27.0498617 23.0920681,27.0498617 22.978125,27.0525 C22.9289082,27.0535453 22.8797257,27.0558377 22.830625,27.059375 C22.495,27.076875 22.320625,27.249375 22.309375,27.57625 C22.2975,27.845 22.29,28.098125 22.286875,28.33625 C22.2839193,28.5846584 22.2882962,28.8330999 22.3,29.08125 C22.309375,29.25875 22.35625,29.39375 22.441875,29.486875 C22.5275,29.580625 22.658125,29.63375 22.834375,29.64875 C23.033794,29.6678209 23.2343813,29.6715819 23.434375,29.66 C23.810625,29.63125 24.0075,29.434375 24.025,29.0675 L24.025,29.0675 Z M25.780625,29.978125 L25.780625,27.0675 L25.1275,27.0675 L25.1275,26.715 L26.19,26.715 L26.19,29.978125 L25.780625,29.978125 Z M30,27.699375 L30,28.376875 C30,28.49625 29.999375,28.61125 29.998125,28.72375 C29.99625,28.83625 29.995625,28.9325 29.995625,29.015 C29.9941042,29.149355 29.9724036,29.2827189 29.93125,29.410625 C29.89,29.53125 29.83125,29.63375 29.7525,29.719375 C29.6723892,29.8066344 29.574008,29.8751385 29.464375,29.92 C29.3364125,29.9704233 29.200038,29.9960863 29.0625,29.995625 C28.95625,29.99875 28.8375,30 28.708125,30 C28.578125,30 28.46125,29.995625 28.356875,29.986875 C28.088125,29.96625 27.8775,29.873125 27.723125,29.7075 C27.569375,29.541875 27.4925,29.325625 27.4925,29.05875 C27.4925,28.96875 27.49125,28.8675 27.489375,28.755 L27.48125,28.403125 C27.4784392,28.281271 27.4778141,28.1593764 27.479375,28.0375 C27.4806961,27.9231124 27.4827795,27.8087348 27.485625,27.694375 C27.493125,27.549375 27.515,27.418125 27.550625,27.301875 C27.58625,27.185625 27.640625,27.08375 27.7125,26.998125 C27.784375,26.9125 27.875625,26.844375 27.9875,26.794375 C28.099375,26.745 28.23125,26.716875 28.383125,26.710625 C28.498125,26.705 28.61875,26.70125 28.746875,26.7 C28.87375,26.698125 29.004375,26.701875 29.135625,26.710625 C29.433125,26.733125 29.65125,26.831875 29.789375,27.00625 C29.926875,27.1825 29.996875,27.413125 30,27.699375 L30,27.699375 Z M29.60875,29.0675 C29.614375,28.96 29.618125,28.83875 29.62,28.703125 C29.62125,28.5675 29.62125,28.431875 29.62,28.296875 L29.615625,27.905625 C29.6143036,27.7955556 29.6105527,27.6855288 29.604375,27.575625 C29.595625,27.4025 29.54,27.2725 29.436875,27.184375 C29.35375,27.1125 29.224375,27.070625 29.05,27.059375 C29.0013158,27.0558502 28.9525502,27.0535578 28.90375,27.0525 C28.7898069,27.0498617 28.6758181,27.0498617 28.561875,27.0525 C28.5126582,27.0535453 28.4634757,27.0558377 28.414375,27.059375 C28.07875,27.076875 27.904375,27.249375 27.893125,27.57625 C27.88125,27.845 27.87375,28.098125 27.870625,28.33625 C27.8676693,28.5846584 27.8720462,28.8330999 27.88375,29.08125 C27.893125,29.25875 27.94,29.39375 28.025625,29.486875 C28.11125,29.580625 28.241875,29.63375 28.418125,29.64875 C28.617544,29.6678209 28.8181313,29.6715819 29.018125,29.66 C29.394375,29.63125 29.59125,29.434375 29.60875,29.0675 L29.60875,29.0675 Z" id="形状"></path>
            </g>
        </g>
    </g>
</svg>