<?xml version="1.0" encoding="UTF-8"?>
<svg width="72px" height="72px" viewBox="0 0 72 72" version="1.1" xmlns="http://www.w3.org/2000/svg" xmlns:xlink="http://www.w3.org/1999/xlink">
    <title>基础设置</title>
    <g id="基础设置" stroke="none" stroke-width="1" fill="none" fill-rule="evenodd">
        <g id="编组" transform="translate(7.000000, 7.000000)" fill-rule="nonzero">
            <path d="M23,0.5 C24.3807119,0.5 25.5,1.61928813 25.5,3 C25.5,4.3254834 24.4684641,5.41003867 23.1643757,5.49468232 L23,5.5 L10.7037037,5.5 C7.90346792,5.5 5.61983353,7.71183348 5.50456512,10.4837358 L5.5,10.7037037 L5.5,47.2962963 C5.5,50.0965321 7.71183348,52.3801665 10.4837358,52.4954349 L10.7037037,52.5 L47.2962963,52.5 C50.0965321,52.5 52.3801665,50.2881665 52.4954349,47.5162642 L52.5,47.2962963 L52.5,34.6045476 C52.5,33.2238358 53.6192881,32.1045476 55,32.1045476 C56.3254834,32.1045476 57.4100387,33.1360836 57.4946823,34.440172 L57.5,34.6045476 L57.5,47.2962963 C57.5,52.8377237 53.0826557,57.3474252 47.5771584,57.4962092 L47.2962963,57.5 L10.7037037,57.5 C5.16227626,57.5 0.652574846,53.0826557 0.503790751,47.5771584 L0.5,47.2962963 L0.5,10.7037037 C0.5,5.16227626 4.91734428,0.652574846 10.4228416,0.503790751 L10.7037037,0.5 L23,0.5 Z" id="路径" fill="#60759C" transform="translate(29.000000, 29.000000) scale(1, -1) translate(-29.000000, -29.000000) "></path>
            <path d="M26.5,33.0933449 C27.8807119,33.0933449 29,34.212633 29,35.5933449 C29,36.9740567 27.8807119,38.0933449 26.5,38.0933449 L15.5,38.0933449 C14.1192881,38.0933449 13,36.9740567 13,35.5933449 C13,34.212633 14.1192881,33.0933449 15.5,33.0933449 L26.5,33.0933449 Z" id="矩形" fill="#60759C" transform="translate(21.000000, 35.593345) scale(1, -1) translate(-21.000000, -35.593345) "></path>
            <path d="M42.5,18.0933449 C43.8807119,18.0933449 45,19.212633 45,20.5933449 C45,21.9740567 43.8807119,23.0933449 42.5,23.0933449 L15.5,23.0933449 C14.1192881,23.0933449 13,21.9740567 13,20.5933449 C13,19.212633 14.1192881,18.0933449 15.5,18.0933449 L42.5,18.0933449 Z" id="矩形备份" fill="#60759C" transform="translate(29.000000, 20.593345) scale(1, -1) translate(-29.000000, -20.593345) "></path>
            <g id="设置备份" transform="translate(29.000000, 31.000000)">
                <rect id="矩形" fill="#000000" opacity="0" x="0" y="0" width="29" height="29"></rect>
                <path d="M22.475,18.6437609 C23.3208333,17.2013525 24.7708333,16.4801483 26.2208333,16.6003491 C26.4625,15.7589442 26.5833333,14.7973386 26.5833333,13.835733 C26.5833333,12.9943281 26.4625,12.1529232 26.3416666,11.431719 C24.8916666,11.6721204 23.3208333,10.8307155 22.475,9.38830717 C21.6291667,7.94589879 21.75,6.14288832 22.7166667,5.06108203 C21.3875,3.85907504 19.9375,3.01767018 18.2458333,2.41666667 C17.7625,3.85907504 16.3125,4.82068062 14.5,4.82068062 C12.6875,4.82068062 11.3583333,3.85907504 10.7541667,2.41666667 C9.0625,3.01767015 7.61250001,3.97927575 6.28333335,5.18128271 C7.25000001,6.3832897 7.37083335,8.06609947 6.52500001,9.50850785 C5.67916666,10.9509162 4.10833335,11.6721204 2.65833335,11.431719 C2.53750001,12.2731239 2.41666667,13.1145288 2.41666667,13.9559337 C2.41666667,14.9175393 2.53750001,15.7589442 2.77916667,16.6003491 C4.22916667,16.4801483 5.67916666,17.2013525 6.52500001,18.6437609 C7.25000001,20.0861693 7.25000001,21.6487784 6.40416666,22.8507853 C7.73333332,24.0527923 9.18333332,24.8941972 10.875,25.375 C11.4791667,24.0527923 12.8083333,23.2113874 14.5,23.2113874 C16.1916667,23.2113874 17.5208333,24.0527923 18.125,25.375 C19.8166667,24.8941972 21.2666667,23.9325916 22.5958333,22.8507853 C21.75,21.6487783 21.6291667,20.0861693 22.475,18.6437609 Z M14.5,19.1245637 C11.6,19.1245637 9.30416666,16.8407504 9.30416666,13.9559337 C9.30416666,11.0711169 11.6,8.78730366 14.5,8.78730366 C17.4,8.78730366 19.6958333,11.0711169 19.6958333,13.9559337 C19.6958333,16.8407504 17.4,19.1245637 14.5,19.1245637 Z" id="形状" fill="#60759C"></path>
            </g>
        </g>
    </g>
</svg>