<?xml version="1.0" encoding="UTF-8"?>
<svg width="72px" height="72px" viewBox="0 0 72 72" version="1.1" xmlns="http://www.w3.org/2000/svg" xmlns:xlink="http://www.w3.org/1999/xlink">
    <title>供应链</title>
    <defs>
        <linearGradient x1="50%" y1="-5.81532713%" x2="50%" y2="94.1846729%" id="linearGradient-1">
            <stop stop-color="#F99432" offset="0%"></stop>
            <stop stop-color="#FFB940" offset="100%"></stop>
        </linearGradient>
    </defs>
    <g id="供应链" stroke="none" stroke-width="1" fill="none" fill-rule="evenodd">
        <g id="编组-2" transform="translate(37.872358, 34.467069) rotate(4.000000) translate(-37.872358, -34.467069) translate(5.027287, -1.731555)">
            <g id="编组" transform="translate(-0.000000, 11.704186)" fill="url(#linearGradient-1)">
                <path d="M57.4632778,24.9341996 L57.3277837,26.5919899 C56.6044971,35.4415075 51.4439633,43.3367677 43.4432057,47.4133574 C43.0797963,47.5985237 42.7104881,47.7756748 42.3345214,47.9454308 L41.996,48.093 L42.1758352,48.0152241 C41.7206776,51.2975517 39.7216126,54.3119538 36.545145,55.9304448 C31.3828489,58.5607661 25.0656844,56.5081949 22.4353632,51.3458988 C19.8050419,46.1836027 21.8576131,39.8664382 27.0199092,37.2361169 C31.4845032,34.9612927 36.8128919,36.1890826 39.8731164,39.9018512 C40.1824226,39.9480944 40.477411,40.095917 40.7414352,40.3297668 L40.8707899,40.4537886 L41.1375201,40.2985363 C45.6082264,37.6477946 48.6863142,33.2526817 49.7256385,28.1940258 L49.803443,27.7932993 L49.8695261,27.4096698 L50.0087185,26.5485572 L50.8807562,26.5695302 C52.4854331,26.6081237 54.0774621,26.3270765 55.5657353,25.7440965 L55.9355893,25.5920715 L57.4632778,24.9341996 Z M10.4905673,5.45693798 C16.2843477,5.45693798 20.9811347,10.153725 20.9811347,15.9475053 C20.9811347,20.9582362 17.468128,25.1484605 12.7707141,26.1895788 C12.589089,26.4441786 12.3234562,26.6399051 11.9952301,26.7689868 L11.826,26.827938 L11.8432379,27.1360794 C12.1754078,32.3229195 14.6940595,37.0608553 18.7295115,40.2834818 L19.0512389,40.534732 L19.3630542,40.7677767 L20.0671191,41.282735 L19.6525352,42.0502047 C18.8896401,43.4624612 18.4172889,45.0085622 18.261066,46.5992907 L18.2286111,46.997851 L18.1212232,48.6576989 L16.7056342,47.7843517 C9.14902153,43.1223018 4.45712652,34.9398594 4.45712652,25.9603992 C4.45712652,25.5525353 4.46694617,25.1430543 4.48637774,24.730998 L4.49623346,24.557922 C1.77829539,22.6622281 -4.99156272e-13,19.5125383 -4.99156272e-13,15.9475053 C-4.99156272e-13,10.153725 4.69678698,5.45693798 10.4905673,5.45693798 Z M42.9945116,3.19797415 C43.3512374,3.39571049 43.7046169,3.60281926 44.0555888,3.81958336 L44.2021864,3.91211227 C47.1778802,2.45400074 50.7947956,2.42566845 53.9128437,4.15403072 C58.9801982,6.96291118 60.8110531,13.3478611 58.0021727,18.4152156 C55.1932922,23.4825701 48.8083422,25.3134251 43.7409878,22.5045446 C39.3585038,20.075294 37.3967905,14.9712882 38.7635594,10.3580932 C38.6289349,10.0758079 38.58653,9.74859012 38.6327598,9.39893698 L38.6632443,9.22234495 L38.3853807,9.08803162 C33.6981306,6.86880144 28.3463976,6.77021263 23.5792947,8.72400324 L23.1721468,8.89649564 L22.8171503,9.05623319 L22.0254201,9.42236549 L21.5551703,8.68768556 C20.6898418,7.33576687 19.5665918,6.17307465 18.2510477,5.26523851 L17.9181935,5.04362696 L16.5185204,4.14499311 L17.9686582,3.33029823 C25.7096976,-1.01865748 35.1408988,-1.15535453 42.9945116,3.19797415 Z" id="形状结合"></path>
            </g>
            <g id="编组备份" transform="translate(39.110054, 19.647329) rotate(119.000000) translate(-39.110054, -19.647329) translate(28.619487, -1.953051)"></g>
            <g id="编组备份-2" transform="translate(41.681443, 53.243717) rotate(-117.000000) translate(-41.681443, -53.243717) translate(31.190876, 31.643337)"></g>
        </g>
    </g>
</svg>