<?xml version="1.0" encoding="UTF-8"?>
<svg width="72px" height="72px" viewBox="0 0 72 72" version="1.1" xmlns="http://www.w3.org/2000/svg" xmlns:xlink="http://www.w3.org/1999/xlink">
    <title>维修设置</title>
    <g id="维修设置" stroke="none" stroke-width="1" fill="none" fill-rule="evenodd">
        <path d="M37.2250924,6.82074588 L36.1168533,6.1977367 L34.9605934,6.72631711 C30.1876556,8.90824981 26.4826821,10.375642 23.8833526,11.1226858 C21.606412,11.7770755 18.4408553,12.3771655 14.408471,12.9118644 C12.1714081,13.2085049 10.5,15.1161751 10.5,17.3728167 L10.5,41.757935 C10.5,46.8649711 12.7309128,51.7171902 16.6075661,55.0418511 C18.4034955,56.5820601 20.0507508,57.8343641 21.5573286,58.8002614 C24.0850261,60.4208191 27.8624681,62.2874856 32.9213261,64.4270154 L34.6455759,65.1464483 C35.5400279,65.5147771 36.5426399,65.4982108 37.4208367,65.1021591 L38.5554358,64.5865155 C43.3845042,62.3743606 47.0762613,60.4516529 49.6520525,58.8002614 C51.1719174,57.8258454 52.9177468,56.5523362 54.8973397,54.9769094 C59.0692717,51.6567485 61.5,46.6157597 61.5,41.2839207 L61.5,17.4596166 C61.5,15.1689545 59.7792582,13.2438631 57.5029819,12.9878299 L56.3466878,12.8525925 C52.3781142,12.3699864 49.2339399,11.7903218 46.9335258,11.1241002 C44.1270047,10.3113051 40.8856134,8.87854928 37.2250924,6.82074588 Z M35.89,11.794 L36.0848276,11.8996736 C39.5396516,13.7566344 42.6885688,15.1001831 45.5426339,15.9267473 L45.9176323,16.0329338 C48.4475553,16.7334862 51.6996248,17.3227167 55.6904406,17.8096288 L56.5,17.905 L56.5,41.2839207 C56.5,45.092377 54.7637658,48.6930827 51.7838144,51.0646262 C49.9280926,52.5414721 48.3153684,53.7178867 46.95344,54.5910464 L46.6771477,54.7663069 L46.0686146,55.1404848 C43.7558182,56.5348456 40.5468697,58.174957 36.4563852,60.0484037 L35.954,60.276 L34.887759,59.829888 C30.061627,57.7893226 26.5062242,56.0337482 24.255941,54.5910464 C22.9609112,53.7607767 21.4937811,52.6454106 19.8625473,51.2464464 L19.5895774,51.0053672 C16.9890459,48.6404283 15.5,45.2842215 15.5,41.7579346 L15.5,17.809 L16.3167995,17.6967782 C19.9923607,17.1745354 22.9696137,16.5876917 25.26444,15.9281616 L25.951465,15.7230941 C28.3031576,14.9964454 31.2715215,13.8388055 34.8739571,12.2474923 L35.89,11.794 Z" id="路径-4" fill="#60759C" fill-rule="nonzero"></path>
        <path d="M33.0131296,24.0642048 C34.7103176,24.2800545 36.3516615,25.0396702 37.6550843,26.3433746 C39.6122895,28.3010276 40.3433056,31.0207993 39.8477617,33.547685 L39.8272858,33.6486553 L46.7437656,40.6831087 C47.5719997,41.5115501 47.9905993,42.5945508 47.9998619,43.6803573 C48.0085597,44.7680026 47.6064179,45.858364 46.7933379,46.6984246 C45.9299504,47.5625464 44.8273494,47.9905124 43.7311009,47.9998701 C42.6821063,48.0082618 41.6379065,47.6333405 40.8162315,46.8800358 L40.7463523,46.8145403 L33.7421764,39.8101422 C31.1611261,40.38417 28.3509174,39.6666677 26.3427804,37.6581033 C25.0530163,36.3680276 24.295904,34.7469748 24.0711184,33.0683414 C23.8513228,31.4269727 24.1409964,29.7305607 24.9401281,28.2332529 L24.9967081,28.1291159 L25.0541273,28.0270913 L25.482248,27.2903424 L30.0965214,31.9055316 C30.3460206,32.1551092 30.6730418,32.2799002 31.0000695,32.2799002 C31.3271097,32.2799002 31.6541521,32.1551006 31.9036814,31.9055142 C32.1505106,31.6586285 32.2752768,31.3358764 32.2779527,31.0122987 C32.2803129,30.726882 32.1877673,30.4407689 32.0000903,30.2055825 L31.9612864,30.1592395 L27.318504,25.5112263 C28.9981789,24.2963972 31.0432504,23.8136741 33.0131296,24.0642048 Z M32.8495632,26.9618756 L34.0546867,28.1703113 L34.1197619,28.2421122 C34.8247662,29.0381694 35.1726322,30.0383027 35.1644618,31.0357299 C35.1558188,32.0908584 34.748793,33.1429169 33.9448604,33.9470333 C33.1404843,34.7515935 32.0889273,35.1582212 31.0347034,35.1669457 C30.012519,35.175405 28.9853617,34.8128428 28.064709,33.9562024 L28.064709,33.9562024 L26.9756667,32.9528728 L26.9952232,33.0508582 C27.1935228,33.9963947 27.660053,34.8924993 28.383988,35.6165817 C29.6579457,36.8908583 31.4782349,37.3806338 33.3294668,36.9393668 L33.3294668,36.9393668 L34.6118033,36.5968335 L42.7628992,44.7481003 L42.810886,44.7903395 C43.0706831,45.0087856 43.3911023,45.1179635 43.7115009,45.1179635 C44.0702009,45.1179635 44.428901,44.9810868 44.7025822,44.707343 C44.973293,44.4365593 45.1101216,44.0825637 45.1131479,43.7276649 C45.1158817,43.3858765 44.9908807,43.045946 44.6967509,42.7187908 L44.6967509,42.7187908 L36.5940053,34.6141915 L36.9592292,33.2432711 L36.9800096,33.1566925 C37.3736094,31.4522485 36.8780067,29.6492845 35.6139052,28.3848938 C34.8423192,27.6131313 33.8753412,27.1343911 32.8495632,26.9618756 L32.8495632,26.9618756 Z" id="形状备份" fill="#60759C" fill-rule="nonzero"></path>
    </g>
</svg>