<?xml version="1.0" encoding="UTF-8"?>
<svg width="72px" height="72px" viewBox="0 0 72 72" version="1.1" xmlns="http://www.w3.org/2000/svg" xmlns:xlink="http://www.w3.org/1999/xlink">
    <title>故障设置</title>
    <g id="故障设置" stroke="none" stroke-width="1" fill="none" fill-rule="evenodd">
        <path d="M44.32,9 C46.6789352,9 48.7321486,10.3089504 49.7929382,12.2401493 L54,12.24 C58.418278,12.24 62,15.821722 62,20.24 L62,56.24 C62,60.658278 58.418278,64.24 54,64.24 L18,64.24 C13.581722,64.24 10,60.658278 10,56.24 L10,20.24 C10,15.821722 13.581722,12.24 18,12.24 L23.2470618,12.2401493 C24.3078514,10.3089504 26.3610648,9 28.72,9 L44.32,9 Z M44.32,14 L28.72,14 C28.3060257,14 27.9311777,14.2015505 27.7007639,14.5323879 L27.6294532,14.6473563 L26.2052098,17.2402335 L18,17.24 C16.4023191,17.24 15.0963391,18.48892 15.0050927,20.0637272 L15,20.24 L15,56.24 C15,57.8376809 16.24892,59.1436609 17.8237272,59.2349073 L18,59.24 L54,59.24 C55.5976809,59.24 56.9036609,57.99108 56.9949073,56.4162728 L57,56.24 L57,20.24 C57,18.6423191 55.75108,17.3363391 54.1764319,17.2450927 L54.0001775,17.24 L46.8348017,17.2402543 L45.4105468,14.6473563 C45.2135296,14.2886806 44.8603773,14.0512626 44.4563979,14.0073657 L44.32,14 Z" id="形状结合" fill="#60759C" fill-rule="nonzero"></path>
        <g id="编组" transform="translate(21.000000, 22.000000)" fill="#60759C" fill-rule="nonzero">
            <path d="M14.9997153,19.3368383 C15.5548511,19.3368383 16.0588809,19.5435983 16.4231851,19.8814772 C16.77842,20.2109445 17,20.6656255 17,21.1684191 C17,21.6714557 16.7784658,22.1260617 16.4233339,22.4554336 C16.0590225,22.7933192 15.5549374,23 14.9997153,23 C14.4447713,23 13.9407725,22.7932949 13.576505,22.4553378 C13.221503,22.1259771 13,21.6714083 13,21.1684191 C13,20.6656729 13.2215489,20.2110292 13.5766537,19.881573 C13.9409141,19.5436226 14.4448575,19.3368383 14.9997153,19.3368383 Z M14.9997153,9 C15.5549511,9 16.0590302,9.20668512 16.4233357,9.54457219 C16.7784699,9.87395309 17,10.3285722 17,10.8316139 L17,10.8316139 L17,16.79553 C17,17.2984144 16.7784539,17.7529051 16.4232919,18.0821954 C16.0589891,18.4199607 15.5549224,18.6265826 14.9997153,18.6265826 C14.4447812,18.6265826 13.9407975,18.4199411 13.5765383,18.0821039 C13.2215123,17.7528303 13,17.2983813 13,16.79553 L13,16.79553 L13,10.8316139 C13,10.3286241 13.221504,9.87404542 13.5765079,9.54467606 C13.9407756,9.20671172 14.4447735,9 14.9997153,9 Z" id="形状"></path>
            <path d="M14.9997435,0 C15.3661007,0 15.7142225,0.108712919 16.0226679,0.313094455 C16.2994221,0.496476848 16.5446038,0.757658655 16.7398935,1.08803778 L16.7876659,1.1720692 L29.6763308,24.7417541 C30.0865484,25.4911951 30.1039477,26.2968297 29.7449615,26.9533332 C29.562247,27.2870663 29.2995285,27.5499456 28.9786257,27.7292729 C28.6891103,27.8910602 28.3515005,27.984842 27.9819891,27.9983126 L27.888956,28 L2.11106116,28 C1.70513216,28 1.33504175,27.9045406 1.02140194,27.7292716 C0.700501683,27.5499453 0.437792605,27.2870705 0.25506347,26.9532614 C-0.0919111672,26.3187902 -0.0872229875,25.5448661 0.283484772,24.8170034 L0.323140098,24.7418792 L13.2122678,1.17194207 C13.4144226,0.801663778 13.6770593,0.511726859 13.9768418,0.313071954 C14.2852178,0.108722383 14.633357,0 14.9997435,0 Z M14.9997478,3.80148115 L3.37632152,25.0576184 L26.6239734,25.0582259 L14.9997478,3.80148115 Z" id="形状"></path>
        </g>
    </g>
</svg>