<?xml version="1.0" encoding="UTF-8"?>
<svg width="72px" height="72px" viewBox="0 0 72 72" version="1.1" xmlns="http://www.w3.org/2000/svg" xmlns:xlink="http://www.w3.org/1999/xlink">
    <title>规则设置</title>
    <g id="规则设置" stroke="none" stroke-width="1" fill="none" fill-rule="evenodd">
        <path d="M30,7.5 C31.3807119,7.5 32.5,8.61928813 32.5,10 C32.5,11.3254834 31.4684641,12.4100387 30.1643757,12.4946823 L30,12.5 L17.7037037,12.5 C14.9034679,12.5 12.6198335,14.7118335 12.5045651,17.4837358 L12.5,17.7037037 L12.5,54.2962963 C12.5,57.0965321 14.7118335,59.3801665 17.4837358,59.4954349 L17.7037037,59.5 L54.2962963,59.5 C57.0965321,59.5 59.3801665,57.2881665 59.4954349,54.5162642 L59.5,54.2962963 L59.5,41.6045476 C59.5,40.2238358 60.6192881,39.1045476 62,39.1045476 C63.3254834,39.1045476 64.4100387,40.1360836 64.4946823,41.440172 L64.5,41.6045476 L64.5,54.2962963 C64.5,59.8377237 60.0826557,64.3474252 54.5771584,64.4962092 L54.2962963,64.5 L17.7037037,64.5 C12.1622763,64.5 7.65257485,60.0826557 7.50379075,54.5771584 L7.5,54.2962963 L7.5,17.7037037 C7.5,12.1622763 11.9173443,7.65257485 17.4228416,7.50379075 L17.7037037,7.5 L30,7.5 Z" id="路径" fill="#60759C" fill-rule="nonzero" transform="translate(36.000000, 36.000000) scale(1, -1) translate(-36.000000, -36.000000) "></path>
        <path d="M33.5,40.0933449 C34.8807119,40.0933449 36,41.212633 36,42.5933449 C36,43.9740567 34.8807119,45.0933449 33.5,45.0933449 L22.5,45.0933449 C21.1192881,45.0933449 20,43.9740567 20,42.5933449 C20,41.212633 21.1192881,40.0933449 22.5,40.0933449 L33.5,40.0933449 Z" id="矩形" fill="#60759C" fill-rule="nonzero" transform="translate(28.000000, 42.593345) scale(1, -1) translate(-28.000000, -42.593345) "></path>
        <path d="M49.5,25.0933449 C50.8807119,25.0933449 52,26.212633 52,27.5933449 C52,28.9740567 50.8807119,30.0933449 49.5,30.0933449 L22.5,30.0933449 C21.1192881,30.0933449 20,28.9740567 20,27.5933449 C20,26.212633 21.1192881,25.0933449 22.5,25.0933449 L49.5,25.0933449 Z" id="矩形备份" fill="#60759C" fill-rule="nonzero" transform="translate(36.000000, 27.593345) scale(1, -1) translate(-36.000000, -27.593345) "></path>
        <g id="设置备份" transform="translate(36.000000, 38.000000)" fill-rule="nonzero">
            <rect id="矩形" fill="#000000" opacity="0" x="0" y="0" width="29" height="29"></rect>
            <path d="M22.475,18.6437609 C23.3208333,17.2013525 24.7708333,16.4801483 26.2208333,16.6003491 C26.4625,15.7589442 26.5833333,14.7973386 26.5833333,13.835733 C26.5833333,12.9943281 26.4625,12.1529232 26.3416666,11.431719 C24.8916666,11.6721204 23.3208333,10.8307155 22.475,9.38830717 C21.6291667,7.94589879 21.75,6.14288832 22.7166667,5.06108203 C21.3875,3.85907504 19.9375,3.01767018 18.2458333,2.41666667 C17.7625,3.85907504 16.3125,4.82068062 14.5,4.82068062 C12.6875,4.82068062 11.3583333,3.85907504 10.7541667,2.41666667 C9.0625,3.01767015 7.61250001,3.97927575 6.28333335,5.18128271 C7.25000001,6.3832897 7.37083335,8.06609947 6.52500001,9.50850785 C5.67916666,10.9509162 4.10833335,11.6721204 2.65833335,11.431719 C2.53750001,12.2731239 2.41666667,13.1145288 2.41666667,13.9559337 C2.41666667,14.9175393 2.53750001,15.7589442 2.77916667,16.6003491 C4.22916667,16.4801483 5.67916666,17.2013525 6.52500001,18.6437609 C7.25000001,20.0861693 7.25000001,21.6487784 6.40416666,22.8507853 C7.73333332,24.0527923 9.18333332,24.8941972 10.875,25.375 C11.4791667,24.0527923 12.8083333,23.2113874 14.5,23.2113874 C16.1916667,23.2113874 17.5208333,24.0527923 18.125,25.375 C19.8166667,24.8941972 21.2666667,23.9325916 22.5958333,22.8507853 C21.75,21.6487783 21.6291667,20.0861693 22.475,18.6437609 Z M14.5,19.1245637 C11.6,19.1245637 9.30416666,16.8407504 9.30416666,13.9559337 C9.30416666,11.0711169 11.6,8.78730366 14.5,8.78730366 C17.4,8.78730366 19.6958333,11.0711169 19.6958333,13.9559337 C19.6958333,16.8407504 17.4,19.1245637 14.5,19.1245637 Z" id="形状" fill="#60759C"></path>
        </g>
    </g>
</svg>