<?xml version="1.0" encoding="UTF-8"?>
<svg width="72px" height="72px" viewBox="0 0 72 72" version="1.1" xmlns="http://www.w3.org/2000/svg" xmlns:xlink="http://www.w3.org/1999/xlink">
    <title>期初数据导入</title>
    <g id="期初数据导入" stroke="none" stroke-width="1" fill="none" fill-rule="evenodd">
        <g id="编组" transform="translate(28.000000, 48.000000)" fill="#60759C">
            <rect id="矩形" x="0" y="1.15463195e-14" width="17" height="4.81481481" rx="2.40740741"></rect>
        </g>
        <path d="M44.32,9 C46.6789352,9 48.7321486,10.3089504 49.7929382,12.2401493 L54,12.24 C58.418278,12.24 62,15.821722 62,20.24 L62,56.24 C62,60.658278 58.418278,64.24 54,64.24 L18,64.24 C13.581722,64.24 10,60.658278 10,56.24 L10,20.24 C10,15.821722 13.581722,12.24 18,12.24 L23.2470618,12.2401493 C24.3078514,10.3089504 26.3610648,9 28.72,9 L44.32,9 Z M44.32,14 L28.72,14 C28.3060257,14 27.9311777,14.2015505 27.7007639,14.5323879 L27.6294532,14.6473563 L26.2052098,17.2402335 L18,17.24 C16.4023191,17.24 15.0963391,18.48892 15.0050927,20.0637272 L15,20.24 L15,56.24 C15,57.8376809 16.24892,59.1436609 17.8237272,59.2349073 L18,59.24 L54,59.24 C55.5976809,59.24 56.9036609,57.99108 56.9949073,56.4162728 L57,56.24 L57,20.24 C57,18.6423191 55.75108,17.3363391 54.1764319,17.2450927 L54.0001775,17.24 L46.8348017,17.2402543 L45.4105468,14.6473563 C45.2135296,14.2886806 44.8603773,14.0512626 44.4563979,14.0073657 L44.32,14 Z" id="形状结合" fill="#60759C" fill-rule="nonzero"></path>
        <path d="M47,33.5369486 C47,34.2389897 46.6862024,34.8752683 46.1917969,35.3111605 L38.1247583,42.460687 C37.694507,42.8373585 37.1251387,43.0666667 36.5041681,43.0666667 C35.1639038,43.0666667 34.0785128,42.0020707 34.0785128,40.6861308 C34.0785128,39.9761706 34.3923104,39.3478111 34.8867159,38.9119189 L38.2670132,35.9178287 L27.4183334,35.9178287 C26.082253,35.9178287 25,34.8532327 25,33.5297181 C25,32.2137783 26.082253,31.1491823 27.4183334,31.1491823 L38.2670132,31.1491823 L34.8867159,28.1547478 C34.3923104,27.7185113 34.0785128,27.0863644 34.0785128,26.3808801 C34.0785128,25.064596 35.1639038,24 36.5041681,24 C37.1251387,24 37.694507,24.2293082 38.1247583,24.6135544 L46.1917969,31.7627366 C46.6858538,32.1986288 47,32.8345631 47,33.5369486" id="路径" fill="#60759C" transform="translate(36.000000, 33.533333) rotate(-270.000000) translate(-36.000000, -33.533333) "></path>
    </g>
</svg>