<?xml version="1.0" encoding="UTF-8"?>
<svg width="72px" height="72px" viewBox="0 0 72 72" version="1.1" xmlns="http://www.w3.org/2000/svg" xmlns:xlink="http://www.w3.org/1999/xlink">
    <title>使用信息设置</title>
    <g id="使用信息设置" stroke="none" stroke-width="1" fill="none" fill-rule="evenodd">
        <g id="编组-2" transform="translate(12.000000, 14.000000)" fill="#60759C" fill-rule="nonzero">
            <path d="M44,-2.5 L5,-2.5 C0.857864376,-2.5 -2.5,0.857864376 -2.5,5 L-2.5,39 C-2.5,43.1421356 0.857864376,46.5 5,46.5 L44,46.5 C48.1421356,46.5 51.5,43.1421356 51.5,39 L51.5,5 C51.5,0.857864376 48.1421356,-2.5 44,-2.5 Z M5,2.5 L44,2.5 C45.3807119,2.5 46.5,3.61928813 46.5,5 L46.5,39 C46.5,40.3807119 45.3807119,41.5 44,41.5 L5,41.5 C3.61928813,41.5 2.5,40.3807119 2.5,39 L2.5,5 C2.5,3.61928813 3.61928813,2.5 5,2.5 Z" id="Rectangle-5"></path>
        </g>
        <path d="M34,28.9359626 C34,29.446538 33.7717836,29.909286 33.4122159,30.2262985 L27.5452788,35.4259542 C27.2323687,35.6998971 26.8182827,35.8666667 26.3666677,35.8666667 C25.39193,35.8666667 24.6025548,35.092415 24.6025548,34.1353679 C24.6025548,33.6190332 24.8307712,33.1620444 25.1903388,32.8450319 L27.6487369,30.6675118 L19.7587879,30.6675118 C18.7870931,30.6675118 18,29.8932601 18,28.9307041 C18,27.9736569 18.7870931,27.1994053 19.7587879,27.1994053 L27.6487369,27.1994053 L25.1903388,25.0216347 C24.8307712,24.7043719 24.6025548,24.2446286 24.6025548,23.7315492 C24.6025548,22.7742516 25.39193,22 26.3666677,22 C26.8182827,22 27.2323687,22.1667696 27.5452788,22.4462214 L33.4122159,27.6456266 C33.77153,27.9626391 34,28.4251368 34,28.9359626" id="路径" fill="#60759C"></path>
        <g id="设置" transform="translate(31.000000, 29.000000)" fill-rule="nonzero">
            <rect id="矩形" fill="#000000" opacity="0" x="0" y="0" width="24" height="24"></rect>
            <path d="M18.6,15.4293194 C19.3,14.2356021 20.5,13.6387435 21.7,13.7382199 C21.9,13.0418848 22,12.2460733 22,11.4502618 C22,10.7539267 21.9,10.0575916 21.8,9.46073299 C20.6,9.65968586 19.3,8.9633508 18.6,7.76963352 C17.9,6.57591624 18,5.08376964 18.8,4.18848168 C17.7,3.19371728 16.5,2.49738221 15.1,2 C14.7,3.19371728 13.5,3.98952879 12,3.98952879 C10.5,3.98952879 9.40000001,3.19371728 8.89999999,2 C7.5,2.49738219 6.3,3.29319373 5.20000001,4.28795811 C6,5.28272251 6.10000001,6.67539266 5.40000001,7.86910994 C4.7,9.06282722 3.40000001,9.65968586 2.20000002,9.46073299 C2.10000001,10.1570681 2,10.8534031 2,11.5497382 C2,12.3455497 2.10000001,13.0418848 2.3,13.7382199 C3.5,13.6387435 4.7,14.2356021 5.40000001,15.4293194 C6,16.6230367 6,17.9162304 5.3,18.9109948 C6.39999999,19.9057592 7.59999999,20.6020942 9,21 C9.5,19.9057592 10.6,19.2094241 12,19.2094241 C13.4,19.2094241 14.5,19.9057592 15,21 C16.4,20.6020942 17.6,19.8062827 18.7,18.9109948 C18,17.9162304 17.9,16.6230367 18.6,15.4293194 Z M12,15.8272251 C9.6,15.8272251 7.7,13.9371728 7.7,11.5497382 C7.7,9.16230367 9.6,7.2722513 12,7.2722513 C14.4,7.2722513 16.3,9.16230367 16.3,11.5497382 C16.3,13.9371728 14.4,15.8272251 12,15.8272251 Z" id="形状" fill="#60759C"></path>
        </g>
    </g>
</svg>