<?xml version="1.0" encoding="UTF-8"?>
<svg width="72px" height="72px" viewBox="0 0 72 72" version="1.1" xmlns="http://www.w3.org/2000/svg" xmlns:xlink="http://www.w3.org/1999/xlink">
    <title>特种设备管理</title>
    <g id="特种设备管理" stroke="none" stroke-width="1" fill="none" fill-rule="evenodd">
        <g id="特种医学与军事医学科" transform="translate(9.000000, 9.000000)" fill="#60759C" fill-rule="nonzero">
            <path d="M1.23901488,20.7953381 C1.67474724,20.4870738 2.22807851,20.3450357 2.79572889,20.4422905 C3.36337927,20.5395452 3.83786995,20.8576787 4.14613434,21.2934111 C4.45439872,21.7291434 4.59643682,22.2824747 4.49918204,22.8501251 C4.27246147,24.1273705 4.15989582,25.4185649 4.1621801,26.7115792 C4.17853368,32.9115997 6.69990302,38.5214825 10.7671931,42.5833997 C14.8344833,46.6453169 20.4476941,49.1592685 26.646928,49.1674259 L26.646928,49.1674259 L27.0834122,49.1674264 C33.2825681,49.1592595 38.8945979,46.6449377 42.9602466,42.5828711 C47.0258952,38.5208045 49.5451627,32.9109931 49.5587931,26.7122895 C49.5607153,25.407665 49.4513525,24.1052538 49.231894,22.8192185 C49.1741638,22.2316656 49.3359604,21.7147164 49.6450663,21.3103827 C49.9541723,20.9060489 50.4105878,20.6143307 50.9480321,20.521928 C51.4854764,20.4295253 52.0131135,20.5520555 52.4395121,20.8299341 C52.8659108,21.1078126 53.1910709,21.5410395 53.3235612,22.07003 C54.6812434,29.894827 52.5372686,37.8440327 47.4756766,43.8649589 C42.4215315,49.8770268 34.9735051,53.3534482 27.1216696,53.3673872 C27.0345048,53.3767143 26.9466818,53.377851 26.8593427,53.3707973 C26.7762066,53.3771651 26.6926126,53.3760049 26.60951,53.3673154 C18.7612872,53.3383189 11.3223598,49.858326 6.27010815,43.8508923 C1.21013558,37.8342781 -0.941750533,29.8938009 0.387894237,22.1457436 C0.485149037,21.5780932 0.803282508,21.1036025 1.23901488,20.7953381 Z M27.082317,0.0386152436 C34.1542032,0.0166041607 40.9401817,2.82847374 45.9245399,7.84654479 C46.2177743,8.14263974 46.4087431,8.51183256 46.4873073,8.90356856 C46.5658716,9.29530457 46.5320314,9.70958376 46.3756477,10.0958515 C46.219264,10.4821192 45.9553645,10.803257 45.6264028,11.0300027 C45.2974411,11.2567484 44.903417,11.389102 44.4867842,11.3978014 C43.9251369,11.3857558 43.414399,11.1712459 43.0311154,10.7975056 C38.8089886,6.54818629 33.0663526,4.17645109 27.0858014,4.20810389 L27.0858014,4.20810389 L26.4426096,4.20806507 C20.5357194,4.23373359 14.8762012,6.5991128 10.70665,10.7909497 C10.2077667,11.154717 9.71280834,11.2764915 9.23300184,11.2326067 C8.75319534,11.1887218 8.28854066,10.9791775 7.9306644,10.6123543 C7.57278813,10.2455311 7.37477893,9.77584493 7.3427527,9.29510125 C7.31072648,8.81435758 7.44468323,8.32255643 7.75073886,7.91150338 C12.7909623,2.82847374 19.5769409,0.0166041607 26.646928,0.0386122881 L26.646928,0.0386122881 L27.082317,0.0386152436 Z" id="形状"></path>
            <polygon id="路径" points="26.8808263 20.8148835 28.7825212 24.6589513 33.0231992 25.2792903 29.9520127 28.2792902 30.6740466 32.5097987 26.8808263 30.5064089 23.0774365 32.5097987 23.7994703 28.2792902 20.7282839 25.2792903 24.9791313 24.6589513"></polygon>
            <path d="M26.8749641,9.2013805 C30.2184795,9.26672865 33.5390285,9.6075074 36.8147096,10.2201177 C38.0156276,10.2986664 39.1013031,10.9446369 39.7448598,11.9490617 L39.8004885,12.0386123 L49.7546664,12.0386123 C50.1861788,12.0456598 50.5870042,12.2628622 50.8285377,12.62036 C51.0335619,13.0069355 51.0470497,13.433077 50.8834229,13.8011741 L50.8506709,13.8694883 L49.1031565,17.7912358 C48.9941227,18.0163844 48.8262278,18.2011083 48.6230571,18.3303987 C48.4431709,18.4448718 48.2356311,18.5158893 48.0168077,18.5330338 L47.9342521,18.5369174 L40.4367585,18.5369174 L40.4367585,20.8759004 L46.8258529,20.8759004 C47.2573653,20.8829479 47.6581907,21.1001503 47.8997241,21.4576481 C48.1202146,21.8125217 48.1633849,22.236779 48.0252946,22.6164932 L47.9972776,22.6871398 L46.215223,26.617843 C46.1080315,26.8443939 45.9413959,27.0308883 45.7389141,27.1620413 C45.5587589,27.2787328 45.3502268,27.3516143 45.1299388,27.3699201 L45.0468122,27.3742055 L40.4367585,27.3742055 L40.4367585,29.6623411 L43.9386825,29.6623411 C44.3730961,29.6720172 44.7749028,29.8945123 45.013653,30.2573546 C45.2322005,30.609314 45.2752565,31.0333999 45.1371595,31.413104 L45.109142,31.48375 L43.3270875,35.4144531 C43.219896,35.6410041 43.0532603,35.8274985 42.8507785,35.9586515 C42.6706233,36.075343 42.4620912,36.1482245 42.2418032,36.1665303 L42.1586766,36.1708157 L40.2431521,36.1708157 C40.0435056,36.8338068 39.683026,37.4381378 39.1916874,37.9309339 L39.0980353,38.0220132 L29.3363038,47.0414424 C28.5750924,47.7509813 27.6025289,48.0996856 26.6336399,48.0899645 C25.7020159,48.0802131 24.7737892,47.7390928 24.0416866,47.0698677 L23.954788,46.987986 L14.5447283,37.9950209 C14.0833801,37.5276128 13.7405676,36.9589587 13.5421587,36.3366555 L13.50441,36.2114936 L11.2165353,36.2114936 C10.9656971,36.2064383 10.727108,36.1306073 10.5244334,35.9993295 C10.3444495,35.882749 10.1927886,35.722442 10.0860242,35.5291435 L10.0481244,35.4551311 L8.26469929,31.5214049 C8.10285825,31.1229768 8.14495244,30.6709344 8.37720224,30.3093637 C8.59663795,29.9677422 8.96011179,29.7469152 9.36193393,29.7079879 L9.43322029,29.7030191 L13.2943856,29.7030191 L13.2943856,27.3742055 L8.2877217,27.3742055 C8.03688353,27.3691502 7.79829443,27.2933192 7.59561981,27.1620413 C7.41563598,27.0454609 7.26397505,26.8851539 7.15721062,26.6918554 L7.11931086,26.617843 L5.33725631,22.6871398 C5.16644532,22.2900822 5.20053862,21.8347013 5.42838407,21.4675679 C5.6625677,21.1205624 6.03310426,20.9075451 6.43706739,20.8790106 L6.50868104,20.8759004 L13.324894,20.8759004 L13.324894,18.5369174 L5.43079031,18.5369174 C5.18172835,18.5329647 4.94435728,18.459181 4.74198525,18.3303987 C4.56164193,18.2156348 4.40909288,18.0571942 4.30083329,17.8655737 L4.26234423,17.7921812 L2.48000846,13.8608577 C2.30500652,13.4603095 2.33931436,12.9992264 2.57153439,12.6290337 C2.80498374,12.283205 3.17547951,12.0702531 3.57944037,12.0417223 L3.65105388,12.0386123 L13.9510341,12.0386123 C14.5888637,10.9795772 15.7085114,10.296775 16.9494334,10.2197943 C20.2240202,9.60604236 23.5439482,9.26539762 26.8749641,9.2013805 Z M26.9117223,12.7506005 C23.755893,12.8367656 20.6121912,13.1750148 17.4858218,13.7657309 C17.3772765,13.7772206 17.26788,13.777959 17.1592253,13.7679462 C17.1030538,13.7739016 17.0544237,13.8302746 17.013821,13.8868154 C16.9469788,13.9798958 16.9044247,14.1078156 16.9044247,14.2555614 L16.9044247,14.2555614 L16.9044247,35.0040119 L16.9056732,35.0584851 C16.9151327,35.2030016 16.9732696,35.3406 17.0713534,35.4483313 L17.0713534,35.4483313 L26.4855982,44.4355802 L26.5141857,44.4622194 C26.5741023,44.5118614 26.6497541,44.5393837 26.7282839,44.5393837 C26.8204831,44.5393837 26.9087152,44.501446 26.9721725,44.4343143 L26.9721725,44.4343143 L36.7052758,35.3928003 L36.7413045,35.3522181 C36.8321627,35.2402164 36.8808594,35.0989941 36.8774317,34.953459 L36.8774317,34.953459 L36.9079452,14.2551117 L36.9060349,14.200141 C36.8971913,14.0741643 36.8581408,13.9647279 36.7993108,13.882786 C36.7593415,13.8271145 36.7108741,13.7737849 36.6538436,13.7679529 C36.5480318,13.7779682 36.4414473,13.7771889 36.3122238,13.7621035 C33.2106678,13.1750506 30.0671605,12.836807 26.9117223,12.7506005 Z M13.1277617,32.2759004 L11.3981274,32.2759004 L12.0428626,33.6284428 L13.1557937,33.6284428 L13.1277617,32.2759004 Z M41.9657407,32.2759004 L40.4367585,32.2759004 L40.4367585,33.6284428 L41.3490374,33.6284428 L41.9657407,32.2759004 Z M13.1621822,23.4487818 L8.54167459,23.4487818 L9.15837781,24.8013241 L13.1621822,24.8013241 L13.1621822,23.4487818 Z M44.8561097,23.4487818 L40.4367585,23.4487818 L40.4367585,24.8013241 L44.2464145,24.8013241 L44.8561097,23.4487818 Z M13.1621822,14.6114936 L5.6513055,14.6114936 L6.26100077,15.964036 L13.1621822,15.964036 L13.1621822,14.6114936 Z M47.7270061,14.6114936 L40.4367585,14.6114936 L40.4367585,15.964036 L47.1593587,15.964036 L47.7270061,14.6114936 Z" id="形状"></path>
        </g>
    </g>
</svg>