<?xml version="1.0" encoding="UTF-8"?>
<svg width="72px" height="72px" viewBox="0 0 72 72" version="1.1" xmlns="http://www.w3.org/2000/svg" xmlns:xlink="http://www.w3.org/1999/xlink">
    <title>测量设置</title>
    <g id="测量设置" stroke="none" stroke-width="1" fill="none" fill-rule="evenodd">
        <g id="测量" transform="translate(10.000000, 10.000000)" fill="#60759C" fill-rule="nonzero">
            <path d="M48.0364274,0 C49.062128,0 49.9907256,0.415747301 50.662898,1.08791975 C51.2903224,1.71534414 51.6942869,2.56619196 51.7453308,3.51085987 L51.7494435,3.61242739 L51.7508178,48.0344478 C51.7508178,49.0195653 51.3594814,49.9643351 50.662898,50.6609184 C50.0127097,51.3111067 49.1462941,51.6953531 48.2326671,51.7436553 L48.1346056,51.7475419 L36.2177454,51.7488382 C35.2326278,51.7488382 34.2878581,51.3575017 33.5912748,50.6609184 C32.9410841,50.0107277 32.5568373,49.1443081 32.5085374,48.2306775 L32.5046511,48.1326155 L32.5033551,3.71439035 C32.5033551,2.68868978 32.9191024,1.76009219 33.5912748,1.08791975 C34.2186969,0.460497695 35.0695407,0.0565339038 36.0142043,0.00548750227 L36.1157714,0.00137459152 L48.0364274,0 Z M47.2767075,4.47411022 L36.9774653,4.47411022 L36.9774653,47.2747279 L47.2767075,47.2747279 L47.2767075,4.47411022 Z M26.0278256,0.000252315958 C27.314541,0.000252315958 28.6012587,0.488741338 29.5864253,1.4659477 C30.4801479,2.35315153 31.0053262,3.54196177 31.0628422,4.79456639 L31.0667799,4.90860867 L31.0681238,46.7271035 C31.0653566,48.0617197 30.5325281,49.3405744 29.5868541,50.2823326 C28.6411672,51.2241036 27.3600895,51.7516061 26.0270869,51.7488683 C24.7715561,51.7488683 23.5639706,51.2813764 22.6372359,50.4421835 L22.5511844,50.3624231 L1.48252632,29.4321032 C0.533713286,28.4913454 -6.71294758e-06,27.2105596 -6.71294758e-06,25.8744191 C-6.71294758e-06,24.6147594 0.474368265,23.4043045 1.32337746,22.4818914 L1.40158939,22.3988358 L22.4694394,1.4657357 C23.4543869,0.488746777 24.7411062,0.000252315958 26.0278256,0.000252315958 Z M26.0278256,4.47375894 C25.8897472,4.47375894 25.7541133,4.52641339 25.6149836,4.64685187 L25.6149836,4.64685187 L4.60717445,25.5237997 L4.57739977,25.5615683 C4.5121151,25.6524075 4.47644596,25.7615403 4.47644596,25.8744191 C4.47644596,26.0090945 4.5305254,26.1361453 4.64179252,26.2616887 L4.64179252,26.2616887 L25.6548829,47.1389965 L25.6951287,47.1700035 C25.7919743,47.2379485 25.9086842,47.2747995 26.0304337,47.2747995 C26.180165,47.2757668 26.3225426,47.2179271 26.4279276,47.1139503 C26.5263543,47.0168389 26.5810326,46.8861506 26.5940137,46.7144863 L26.5940137,46.7144863 L26.5922542,4.97984766 L26.5862519,4.93230409 C26.5673601,4.82237819 26.5145726,4.72021926 26.4343697,4.64059429 C26.3221809,4.52949745 26.1749826,4.47375894 26.0278256,4.47375894 Z" id="形状"></path>
            <path d="M22.5665485,15.8201119 C23.1221783,16.0501773 23.5812429,16.4361736 23.9015323,16.9149976 C24.1849387,17.3386827 24.3596875,17.8350476 24.3965462,18.3607085 L24.4020708,18.4662184 L24.4038649,31.716471 C24.4033358,32.317848 24.2218216,32.8894999 23.9015322,33.368324 C23.5812428,33.847148 23.1221782,34.2331442 22.5665484,34.4632097 C22.0109186,34.6932752 21.4133571,34.7447882 20.8483275,34.6325415 C20.3483756,34.5332229 19.8738975,34.30569 19.4763301,33.9600674 L19.3978574,33.8893713 L12.7507409,27.2462355 C12.1699067,26.6652258 11.8794896,25.9038126 11.8794896,25.1423995 C11.8794896,24.4405771 12.1262604,23.7387823 12.6197408,23.1781811 L12.6855069,23.1058715 L19.3252979,16.4640066 C19.7508001,16.0390331 20.2832978,15.7630267 20.8483275,15.65078 C21.4133571,15.5385333 22.0109186,15.5900464 22.5665485,15.8201119 Z M19.9312321,22.1858661 L16.9744428,25.1417436 L19.9312321,28.098533 L19.9312321,22.1858661 Z" id="形状"></path>
            <path d="M34.9945119,11.1010666 L40.9038529,11.1010666 C41.888743,11.1010666 42.3811881,11.5935117 42.3811881,12.5784019 L42.3811881,12.5784019 C42.3811881,13.563292 41.888743,14.0557371 40.9038529,14.0557371 L34.9945119,14.0557371 C34.0096217,14.0557371 33.5171766,13.563292 33.5171766,12.5784019 L33.5171766,12.5784019 C33.5171766,11.5935117 34.0096217,11.1010666 34.9945119,11.1010666 Z" id="路径"></path>
            <path d="M34.9945119,30.3064248 L40.9038529,30.3064248 C41.888743,30.3064248 42.3811881,30.7988699 42.3811881,31.7837601 L42.3811881,31.7837601 C42.3811881,32.7686502 41.888743,33.2610953 40.9038529,33.2610953 L34.9945119,33.2610953 C34.0096217,33.2610953 33.5171766,32.7686502 33.5171766,31.7837601 L33.5171766,31.7837601 C33.5171766,30.7988699 34.0096217,30.3064248 34.9945119,30.3064248 Z" id="路径"></path>
            <path d="M34.9945119,21.4424133 L37.9491823,21.4424133 C38.9340725,21.4424133 39.4265176,21.9348584 39.4265176,22.9197486 L39.4265176,22.9197486 C39.4265176,23.9046387 38.9340725,24.3970838 37.9491823,24.3970838 L34.9945119,24.3970838 C34.0096217,24.3970838 33.5171766,23.9046387 33.5171766,22.9197486 L33.5171766,22.9197486 C33.5171766,21.9348584 34.0096217,21.4424133 34.9945119,21.4424133 Z" id="路径"></path>
            <path d="M34.9945119,40.6477715 L37.9491823,40.6477715 C38.9340725,40.6477715 39.4265176,41.1402166 39.4265176,42.1251068 L39.4265176,42.1251068 C39.4265176,43.109997 38.9340725,43.6024421 37.9491823,43.6024421 L34.9945119,43.6024421 C34.0096217,43.6024421 33.5171766,43.109997 33.5171766,42.1251068 L33.5171766,42.1251068 C33.5171766,41.1402167 34.0096217,40.6477715 34.9945119,40.6477715 L34.9945119,40.6477715 Z" id="路径"></path>
        </g>
    </g>
</svg>