<?xml version="1.0" encoding="UTF-8"?>
<svg width="72px" height="72px" viewBox="0 0 72 72" version="1.1" xmlns="http://www.w3.org/2000/svg" xmlns:xlink="http://www.w3.org/1999/xlink">
    <title>资产变动</title>
    <g id="资产变动" stroke="none" stroke-width="1" fill="none" fill-rule="evenodd">
        <g id="融资" transform="translate(12.000000, 10.000000)" fill="#60759C" fill-rule="nonzero">
            <path d="M24.638,0.67 L24.5410586,0.559410873 C22.394979,-1.81204455 18.9101456,-2.40854824 14.4421607,-1.34161242 L14.2040509,-1.28193959 C8.40838933,0.240630694 8.0241914,5.5851161 12.0838929,13.5317807 L12.422,14.181 L12.3777276,14.2223268 C-1.40996532,26.8857135 -5.43791177,38.596068 0.923408835,49.0267039 C2.71446221,51.9634881 6.24826405,53.52633 11.7096901,54.2956758 L12.1567363,54.3563278 C16.3093917,54.8986574 20.1880356,55 30.2627889,55 L30.7952309,54.9984112 C40.8443459,54.937987 47.058267,53.1512588 49.4213915,49.1577365 L49.472,49.068 L49.3860923,49.1875724 C50.4441593,47.7808957 51,46.2610295 51,44.6706601 C51,42.946499 50.0930195,36.8427908 49.6985276,35.5668015 L48.7593631,32.561339 C46.9011813,26.6963474 45.9626544,24.3405017 44.5482587,21.8465807 L44.2994172,21.413051 C41.9737048,17.4103695 39.5541107,14.6297863 36.6601819,13.1893204 L36.57,13.146 L36.8059557,12.8892084 C40.5225139,8.78224282 41.4571238,4.8421957 39.1602831,1.25883959 C36.4733859,-2.933053 31.6021149,-2.98379643 25.0587924,0.446900333 L24.638,0.67 Z M35.7926886,3.41738252 C37.1916028,5.59986207 36.1085831,8.42213323 31.7991343,12.1985098 L28.5908802,14.9547627 L32.3336284,15.8978468 L32.7750359,16.0166812 C33.1604312,16.1265423 33.5910684,16.2639924 34.0770887,16.4328419 C36.4215848,17.2473488 38.621961,19.6080025 40.8394135,23.4203185 L41.0688726,23.8198705 C42.5142152,26.3683582 43.444521,28.8804093 45.8769975,36.7482869 C46.152207,37.6384559 47,43.3438495 47,44.6706601 C47,45.3510182 46.7476824,46.0409444 46.1894327,46.783125 L46.1026354,46.8985201 L46.0333143,47.0251865 C44.680316,49.4974411 39.4292419,51 30.2627889,51 L26.5369666,50.9874253 C11.5303229,50.8780216 6.31807604,50.019386 4.40177752,47.045055 L4.33842228,46.9439934 C-0.935745748,38.2959578 2.70262819,28.2329192 15.9223987,16.4077789 L20.3229697,12.5153606 L16.076,12.537 L15.7223635,11.8787053 C12.5513158,5.86717699 12.7630989,3.17180618 15.3712219,2.54899749 C19.2200484,1.62991404 21.2724668,2.24752234 22.1914479,4.19392339 L23.1361929,6.1948925 L25.0317839,5.05333416 C30.9037933,1.5171065 34.2466593,1.21117822 35.7117595,3.29678102 L35.7926886,3.41738252 Z" id="形状结合"></path>
        </g>
        <g id="编组-3" transform="translate(22.000000, 32.000000)" fill="#60759C" fill-rule="nonzero">
            <g id="编组">
                <path d="M13.2951801,1.55414537 L13.3980469,1.7149542 C13.9788422,2.72092111 13.6341725,4.00724602 12.6282056,4.58804128 L10.0938678,6.05045768 L24.8182995,6.05087614 C25.97989,6.05087614 26.9215452,6.99253133 26.9215452,8.15412186 C26.9215452,9.3157124 25.97989,10.2573676 24.8182995,10.2573676 L2.8151135,10.2573676 C1.65352296,10.2573676 0.711867782,9.3157124 0.711867782,8.15412186 C0.711867782,7.83886682 0.781227904,7.53981171 0.905520499,7.27138417 C1.02059136,6.8950668 1.25523546,6.55206693 1.59975445,6.30544931 C1.64183252,6.27532849 1.68515498,6.24698513 1.72960769,6.2204939 L10.539679,0.970204772 C11.4769465,0.411647954 12.6764404,0.677462876 13.2951801,1.55414537 Z" id="形状结合"></path>
            </g>
            <g id="编组" transform="translate(13.583333, 20.321386) scale(-1, -1) translate(-13.583333, -20.321386) translate(0.083333, 14.821386)">
                <path d="M13.2951801,1.55414537 L13.3980469,1.7149542 C13.9788422,2.72092111 13.6341725,4.00724602 12.6282056,4.58804128 L10.0938678,6.05045768 L24.8182995,6.05087614 C25.97989,6.05087614 26.9215452,6.99253133 26.9215452,8.15412186 C26.9215452,9.3157124 25.97989,10.2573676 24.8182995,10.2573676 L2.8151135,10.2573676 C1.65352296,10.2573676 0.711867782,9.3157124 0.711867782,8.15412186 C0.711867782,7.83886682 0.781227904,7.53981171 0.905520499,7.27138417 C1.02059136,6.8950668 1.25523546,6.55206693 1.59975445,6.30544931 C1.64183252,6.27532849 1.68515498,6.24698513 1.72960769,6.2204939 L10.539679,0.970204772 C11.4769465,0.411647954 12.6764404,0.677462876 13.2951801,1.55414537 Z" id="形状结合"></path>
            </g>
        </g>
    </g>
</svg>