<?xml version="1.0" encoding="UTF-8"?>
<svg width="72px" height="72px" viewBox="0 0 72 72" version="1.1" xmlns="http://www.w3.org/2000/svg" xmlns:xlink="http://www.w3.org/1999/xlink">
    <title>借用管理</title>
    <g id="借用管理" stroke="none" stroke-width="1" fill="none" fill-rule="evenodd">
        <g id="编组" transform="translate(10.000000, 10.000000)" fill="#60759C">
            <path d="M20,-2.5 C21.3807119,-2.5 22.5,-1.38071187 22.5,0 C22.5,1.3254834 21.4684641,2.41003867 20.1643757,2.49468232 L20,2.5 L7.7037037,2.5 C4.90346792,2.5 2.61983353,4.71183348 2.50456512,7.48373583 L2.5,7.7037037 L2.5,44.2962963 C2.5,47.0965321 4.71183348,49.3801665 7.48373583,49.4954349 L7.7037037,49.5 L44.2962963,49.5 C47.0965321,49.5 49.3801665,47.2881665 49.4954349,44.5162642 L49.5,44.2962963 L49.5,31.6045476 C49.5,30.2238358 50.6192881,29.1045476 52,29.1045476 C53.3254834,29.1045476 54.4100387,30.1360836 54.4946823,31.440172 L54.5,31.6045476 L54.5,44.2962963 C54.5,49.8377237 50.0826557,54.3474252 44.5771584,54.4962092 L44.2962963,54.5 L7.7037037,54.5 C2.16227626,54.5 -2.34742515,50.0826557 -2.49620925,44.5771584 L-2.5,44.2962963 L-2.5,7.7037037 C-2.5,2.16227626 1.91734428,-2.34742515 7.42284158,-2.49620925 L7.7037037,-2.5 L20,-2.5 Z" id="路径" fill-rule="nonzero" transform="translate(26.000000, 26.000000) scale(1, -1) translate(-26.000000, -26.000000) "></path>
            <path d="M23.5,30.0933449 C24.8807119,30.0933449 26,31.212633 26,32.5933449 C26,33.9740567 24.8807119,35.0933449 23.5,35.0933449 L12.5,35.0933449 C11.1192881,35.0933449 10,33.9740567 10,32.5933449 C10,31.212633 11.1192881,30.0933449 12.5,30.0933449 L23.5,30.0933449 Z" id="矩形" fill-rule="nonzero" transform="translate(18.000000, 32.593345) scale(1, -1) translate(-18.000000, -32.593345) "></path>
            <path d="M39.5,15.0933449 C40.8807119,15.0933449 42,16.212633 42,17.5933449 C42,18.9740567 40.8807119,20.0933449 39.5,20.0933449 L12.5,20.0933449 C11.1192881,20.0933449 10,18.9740567 10,17.5933449 C10,16.212633 11.1192881,15.0933449 12.5,15.0933449 L39.5,15.0933449 Z" id="矩形备份" fill-rule="nonzero" transform="translate(26.000000, 17.593345) scale(1, -1) translate(-26.000000, -17.593345) "></path>
            <path d="M53,41.4039439 C53,42.169807 52.6576754,42.8639291 52.1183239,43.3394478 L43.3179182,51.1389313 C42.848553,51.5498456 42.227424,51.8 41.5500016,51.8 C40.087895,51.8 38.9038321,50.6386225 38.9038321,49.2030518 C38.9038321,48.4285498 39.2461568,47.7430666 39.7855083,47.2675479 L43.4731053,44.0012677 L31.6381819,44.0012677 C30.1806396,44.0012677 29,42.8398902 29,41.3960561 C29,39.9604854 30.1806396,38.7991079 31.6381819,38.7991079 L43.4731053,38.7991079 L39.7855083,35.5324521 C39.2461568,35.0565578 38.9038321,34.366943 38.9038321,33.5973238 C38.9038321,32.1613775 40.087895,31 41.5500016,31 C42.227424,31 42.848553,31.2501544 43.3179182,31.669332 L52.1183239,39.46844 C52.657295,39.9439587 53,40.6377052 53,41.4039439" id="路径" transform="translate(41.000000, 41.400000) scale(-1, 1) translate(-41.000000, -41.400000) "></path>
        </g>
    </g>
</svg>