<?xml version="1.0" encoding="UTF-8"?>
<svg width="72px" height="72px" viewBox="0 0 72 72" version="1.1" xmlns="http://www.w3.org/2000/svg" xmlns:xlink="http://www.w3.org/1999/xlink">
    <title>保险管理</title>
    <g id="保险管理" stroke="none" stroke-width="1" fill="none" fill-rule="evenodd">
        <path d="M37.2250924,6.82074588 L36.1168533,6.1977367 L34.9605934,6.72631711 C30.1876556,8.90824981 26.4826821,10.375642 23.8833526,11.1226858 C21.606412,11.7770755 18.4408553,12.3771655 14.408471,12.9118644 C12.1714081,13.2085049 10.5,15.1161751 10.5,17.3728167 L10.5,41.757935 C10.5,46.8649711 12.7309128,51.7171902 16.6075661,55.0418511 C18.4034955,56.5820601 20.0507508,57.8343641 21.5573286,58.8002614 C24.0850261,60.4208191 27.8624681,62.2874856 32.9213261,64.4270154 L34.6455759,65.1464483 C35.5400279,65.5147771 36.5426399,65.4982108 37.4208367,65.1021591 L38.5554358,64.5865155 C43.3845042,62.3743606 47.0762613,60.4516529 49.6520525,58.8002614 C51.1719174,57.8258454 52.9177468,56.5523362 54.8973397,54.9769094 C59.0692717,51.6567485 61.5,46.6157597 61.5,41.2839207 L61.5,17.4596166 C61.5,15.1689545 59.7792582,13.2438631 57.5029819,12.9878299 L56.3466878,12.8525925 C52.3781142,12.3699864 49.2339399,11.7903218 46.9335258,11.1241002 C44.1270047,10.3113051 40.8856134,8.87854928 37.2250924,6.82074588 Z M35.89,11.794 L36.0848276,11.8996736 C39.5396516,13.7566344 42.6885688,15.1001831 45.5426339,15.9267473 L45.9176323,16.0329338 C48.4475553,16.7334862 51.6996248,17.3227167 55.6904406,17.8096288 L56.5,17.905 L56.5,41.2839207 C56.5,45.092377 54.7637658,48.6930827 51.7838144,51.0646262 C49.9280926,52.5414721 48.3153684,53.7178867 46.95344,54.5910464 L46.6771477,54.7663069 L46.0686146,55.1404848 C43.7558182,56.5348456 40.5468697,58.174957 36.4563852,60.0484037 L35.954,60.276 L34.887759,59.829888 C30.061627,57.7893226 26.5062242,56.0337482 24.255941,54.5910464 C22.9609112,53.7607767 21.4937811,52.6454106 19.8625473,51.2464464 L19.5895774,51.0053672 C16.9890459,48.6404283 15.5,45.2842215 15.5,41.7579346 L15.5,17.809 L16.3167995,17.6967782 C19.9923607,17.1745354 22.9696137,16.5876917 25.26444,15.9281616 L25.951465,15.7230941 C28.3031576,14.9964454 31.2715215,13.8388055 34.8739571,12.2474923 L35.89,11.794 Z" id="路径-4" fill="#60759C" fill-rule="nonzero"></path>
        <g id="现金" transform="translate(27.000000, 24.000000)" fill="#60759C" fill-rule="nonzero">
            <g id="时间轴-羊角标">
                <path d="M17.4704701,16.6420907 C17.7278704,16.9662417 17.8753796,17.3534511 17.9080501,17.8037164 C17.87538,18.2717169 17.7278699,18.6628664 17.4704701,18.9761809 C17.2120788,19.2914655 16.8606284,19.4658568 16.4111688,19.5032973 L11.4532353,19.4766951 L11.4532353,22.3379065 C11.3859152,23.8670363 10.5840138,24.6316023 9.05149156,24.6316023 C8.29414068,24.6316023 7.70508999,24.4444021 7.28334854,24.0650753 C6.85962756,23.6877186 6.63192729,23.1123252 6.59925677,22.3379065 L6.59925677,19.5299033 L1.61360034,19.5299033 C1.15027931,19.4944338 0.79189938,19.2914693 0.543408124,18.9229795 L0.54340808,18.9229794 C0.294160304,18.5565722 0.138517911,18.1351721 0.0899870685,17.6953391 C0.14245713,17.2460577 0.292937305,16.8775698 0.54340808,16.5888868 C0.790908368,16.3011902 1.15027927,16.1386215 1.61360029,16.1021672 L6.59925673,16.1021672 L6.59925673,13.4163358 L1.61360029,13.3897337 C1.15027927,13.3532789 0.791899335,13.1828281 0.54340808,12.8773962 C0.292937305,12.5699942 0.142457613,12.1827849 0.0899870685,11.7147843 C0.14245713,11.2655029 0.292937305,10.897015 0.54340808,10.608332 C0.790908368,10.3206353 1.15027927,10.1590506 1.61360029,10.1225963 L5.33304139,10.1225963 L1.87200123,3.75385838 L1.87200124,3.75385839 C1.67651759,3.49935423 1.51171188,3.22290533 1.3809597,2.93017647 L1.38095963,2.93017633 C1.22469994,2.58749149 1.15405094,2.21227321 1.17503939,1.83653295 C1.26017949,1.3320781 1.43343066,0.923193418 1.68983999,0.607908841 C1.94921981,0.29361049 2.43234086,0.0906450811 3.13722119,0.000985067213 C3.55005119,0.0364545822 3.92130162,0.186214756 4.248002,0.447310278 C4.57470238,0.707419092 4.84200269,0.991175693 5.04990294,1.29660763 L8.97425687,8.80135814 L13.2867077,1.24339951 C13.4926279,0.937967572 13.7609173,0.667019888 14.0886086,0.433512729 C14.415309,0.197049537 14.7845799,0.054185972 15.1974099,-3.56469429e-06 C15.4567897,0.0177311928 15.6924105,0.054185972 15.9082312,0.107390244 C16.1210815,0.162565046 16.3121522,0.252224097 16.4764909,0.379324155 C16.6388511,0.504452721 16.7774503,0.684756089 16.8893209,0.918263248 C17.001191,1.15177089 17.0813811,1.45818857 17.1338507,1.8365291 C17.1338507,2.35871918 16.9625805,2.85332138 16.6180591,3.32132192 L12.6154913,10.1235905 L16.4121553,10.1235905 C16.8596354,10.15906 17.2130653,10.3216287 17.4694771,10.6093263 C17.7268774,10.8980092 17.8743866,11.2664971 17.9090366,11.7157786 C17.8743866,12.1847654 17.7239064,12.5808411 17.4575951,12.9040083 C17.1902948,13.2271755 16.8338944,13.4064931 16.3854234,13.4439336 L11.4522399,13.4705358 L11.4522399,16.1021729 L16.4101734,16.1021729 C16.859633,16.1386277 17.2110834,16.318931 17.4694746,16.6420982 L17.4704701,16.6420907 Z" id="路径"></path>
            </g>
        </g>
    </g>
</svg>