<?xml version="1.0" encoding="UTF-8"?>
<svg width="72px" height="72px" viewBox="0 0 72 72" version="1.1" xmlns="http://www.w3.org/2000/svg" xmlns:xlink="http://www.w3.org/1999/xlink">
    <title>抵押管理</title>
    <g id="抵押管理" stroke="none" stroke-width="1" fill="none" fill-rule="evenodd">
        <g id="编组" transform="translate(7.000000, 12.000000)" fill="#60759C" fill-rule="nonzero">
            <path d="M26.5,-2.5 C20.9771525,-2.5 16.5,1.9771525 16.5,7.5 C16.5,13.0228475 20.9771525,17.5 26.5,17.5 C32.0228475,17.5 36.5,13.0228475 36.5,7.5 C36.5,1.9771525 32.0228475,-2.5 26.5,-2.5 Z M26.5,2.5 C29.2614237,2.5 31.5,4.73857625 31.5,7.5 C31.5,10.2614237 29.2614237,12.5 26.5,12.5 C23.7385763,12.5 21.5,10.2614237 21.5,7.5 C21.5,4.73857625 23.7385763,2.5 26.5,2.5 Z" id="形状结合"></path>
            <path d="M4,42 L30.0797801,42.0007568 C31.0040302,44.25327 32.4788915,46.2216233 34.3369077,47.7383608 L34.6687362,48.0012982 L4,48 C2.34314575,48 1,46.6568542 1,45 C1,43.4023191 2.24891996,42.0963391 3.82372721,42.0050927 L4,42 Z M36.1482168,23.9992742 C31.8703489,26.5205569 29,31.1750755 29,36.5 C29,37.1822364 29.047117,37.853468 29.1382745,38.5106184 L29.2148521,39.0007928 L5,39 C2.23857625,39 -5.32907052e-14,36.7614237 -5.32907052e-14,34 L-5.32907052e-14,29 C-5.32907052e-14,26.2385763 2.23857625,24 5,24 L36.1482168,23.9992742 Z M27.066,27.999 L5,28 C4.48716416,28 4.06449284,28.3860402 4.00672773,28.8833789 L4,29 L4,34 C4,34.5128358 4.38604019,34.9355072 4.88348373,34.9932723 L5.00013096,35 L25.06,35 L25.0617536,34.9827464 C25.2562769,32.6005025 25.9054549,30.320842 26.9395753,28.2467981 L27.066,27.999 Z" id="形状结合"></path>
            <path d="M44.5,25 C38.1487254,25 33,30.1487254 33,36.5 C33,42.8512746 38.1487254,48 44.5,48 C50.8512746,48 56,42.8512746 56,36.5 C56,30.1487254 50.8512746,25 44.5,25 Z M44.5,29 C48.6421356,29 52,32.3578644 52,36.5 C52,40.6421356 48.6421356,44 44.5,44 C40.3578644,44 37,40.6421356 37,36.5 C37,32.3578644 40.3578644,29 44.5,29 Z" id="椭圆形"></path>
            <path d="M47.0805284,33.4898113 C47.6049138,32.8484756 48.5499175,32.7536687 49.1912531,33.2780541 C49.7925054,33.7696654 49.91341,34.6309607 49.4940942,35.2651466 L49.4030104,35.3887788 L45.9666748,39.5901136 C45.1039207,40.5900403 43.6220608,40.739881 42.5799675,39.9616575 L42.4406891,39.8497763 L39.7726906,37.547781 C39.1454638,37.0065989 39.0757109,36.0594164 39.616893,35.4321896 C40.1242512,34.8441645 40.9884457,34.7461066 41.6113071,35.1820666 L41.7324844,35.2763919 L44.011,37.242 L47.0805284,33.4898113 Z" id="路径-2"></path>
        </g>
    </g>
</svg>