<?xml version="1.0" encoding="UTF-8"?>
<svg width="72px" height="72px" viewBox="0 0 72 72" version="1.1" xmlns="http://www.w3.org/2000/svg" xmlns:xlink="http://www.w3.org/1999/xlink">
    <title>安装调试</title>
    <g id="安装调试" stroke="none" stroke-width="1" fill="none" fill-rule="evenodd">
        <g id="编组" transform="translate(10.000000, 10.000000)" fill="#60759C" fill-rule="nonzero">
            <g id="编组-2">
                <path d="M49.7777212,52.0005092 C33.9259142,52.0005092 18.0741001,52.0005092 2.22227874,52.0005092 C1.60872975,52.0005092 1.05314695,51.7527284 0.650958396,51.3529778 C0.269945771,50.9742747 0.0266121354,50.4587377 0.0020535052,49.88701 L0,49.7912155 L0,14.6853372 C0.000947856166,14.3371789 0.085312703,13.9941299 0.244112598,13.6858656 L0.293976635,13.5944596 L7.4199807,1.11763004 C7.61782809,0.772093363 7.90137274,0.492706829 8.23545587,0.299691389 C8.54174658,0.122732933 8.89051922,0.0183742986 9.25467236,0.00221007107 L9.35434782,3.55271368e-15 L42.6465431,3.55271368e-15 C42.9131394,3.55271368e-15 46.0309584,4.89539978 52,14.6861993 C52,37.6829982 52,49.3846702 52,49.7912155 C52,50.4010335 51.7512216,50.9532357 51.3490416,51.3529778 C50.9468616,51.7527199 50.4493277,51.973549 49.8741017,51.9979589 M46.9210848,18.9140403 L5.08069712,18.9140403 L5.08069712,46.9501477 L46.9210848,46.9501477 L46.9210848,18.9140403 Z M23.9354197,5.05162358 L11.0165547,5.05162358 L5.97684679,13.8659591 L23.9354197,13.8659591 L23.9354197,5.05162358 Z M40.9834453,5.05162358 L29.0161168,5.05162358 L29.0161168,13.8659591 L46.0231532,13.8659591 L40.9834453,5.05162358 Z" id="形状"></path>
            </g>
        </g>
        <g id="维修" transform="translate(25.000000, 32.000000)" fill="#60759C" fill-rule="nonzero">
            <path d="M6.53842636,22.7199346 L6.12428946,22.7199346 C4.31415464,22.7199346 2.84136313,21.2471431 2.84136313,19.4370082 L2.84136313,11.2447769 C0.803590153,9.89266103 -0.287975993,7.46269217 0.0959919978,4.99158389 C0.433335304,2.80296634 1.94178098,0.932493693 4.03440654,0.10970514 C4.38272036,-0.0274262851 4.77765886,0.0164557711 5.09031851,0.227638166 C5.40023553,0.438820561 5.58673427,0.78987701 5.58673427,1.16561712 L5.58673427,4.38272036 L7.08146681,4.38272036 L7.08146681,1.173845 C7.08146681,0.798104896 7.26796555,0.447048447 7.57788257,0.235866052 C7.88779959,0.0246836566 8.2827381,-0.0191983996 8.63105192,0.115190397 C11.0692487,1.06962512 12.6435174,3.37343307 12.6435174,5.98715803 C12.6435174,8.12640827 11.5766349,10.0819024 9.81861006,11.2447769 L9.81861006,19.4370082 C9.82135269,21.2471431 8.34856118,22.7199346 6.53842636,22.7199346 Z M3.31309524,3.2993821 C2.80296634,3.8671062 2.45739514,4.57196172 2.33946212,5.33715508 C2.07068452,7.07872418 2.93735513,8.78738174 4.49516813,9.58274401 C4.87365086,9.77747063 5.11225954,10.1669239 5.11225954,10.5947739 L5.11225954,19.4370082 C5.11225954,19.9937618 5.56479324,20.4462955 6.12154683,20.4462955 L6.53568374,20.4462955 C7.09243732,20.4462955 7.54771365,19.9937618 7.54771365,19.4370082 L7.54771365,10.5947739 C7.54771365,10.1696665 7.78632234,9.77747063 8.16480507,9.58274401 C9.52514881,8.88611637 10.3698784,7.50931686 10.3698784,5.98715803 C10.3698784,4.96690023 9.99413828,4.02069339 9.34687796,3.2993821 L9.34687796,5.51816856 C9.34687796,6.14623049 8.83949168,6.65361676 8.21142975,6.65361676 L4.44854344,6.65361676 C3.82048151,6.65361676 3.31309524,6.14623049 3.31309524,5.51816856 L3.31309524,3.2993821 Z M17.7064096,22.7199346 L16.1348835,22.7199346 C14.256183,22.7199346 12.7257963,21.1895479 12.7257963,19.3108473 L12.7257963,11.7027958 C12.7257963,11.0747339 13.2331826,10.5673476 13.8612445,10.5673476 L19.9800487,10.5673476 C20.6081106,10.5673476 21.1154969,11.0747339 21.1154969,11.7027958 L21.1154969,19.3108473 C21.1154969,21.1895479 19.5851102,22.7199346 17.7064096,22.7199346 L17.7064096,22.7199346 Z M14.9966927,12.838244 L14.9966927,19.3108473 C14.9966927,19.9389093 15.5068216,20.4490382 16.1348835,20.4490382 L17.7064096,20.4490382 C18.3344716,20.4490382 18.8446005,19.9389093 18.8446005,19.3108473 L18.8446005,12.838244 L14.9966927,12.838244 L14.9966927,12.838244 Z" id="形状"></path>
            <path d="M16.9192753,12.7779062 C16.2912133,12.7779062 15.7838271,12.2705199 15.7838271,11.642458 L15.7838271,1.14093346 C15.7838271,0.512871531 16.2912133,0.00548525702 16.9192753,0.00548525702 C17.5473372,0.00548525702 18.0547345,0.512871531 18.0547345,1.14093346 L18.0547345,11.642458 C18.0574661,12.2705199 17.5473372,12.7779062 16.9192753,12.7779062 Z" id="路径"></path>
        </g>
    </g>
</svg>