<?xml version="1.0" encoding="UTF-8"?>
<svg width="72px" height="72px" viewBox="0 0 72 72" version="1.1" xmlns="http://www.w3.org/2000/svg" xmlns:xlink="http://www.w3.org/1999/xlink">
    <title>调拨管理</title>
    <g id="调拨管理" stroke="none" stroke-width="1" fill="none" fill-rule="evenodd">
        <g id="编组-2" transform="translate(10.000000, 9.000000)" fill="#60759C" fill-rule="nonzero">
            <path d="M34.32,0 C36.6785256,0 38.7314356,1.30849598 39.7923856,3.23914356 L44,3.24 C48.418278,3.24 52,6.821722 52,11.24 L52,47.24 C52,51.658278 48.418278,55.24 44,55.24 L8,55.24 C3.581722,55.24 0,51.658278 0,47.24 L0,11.24 C0,6.821722 3.581722,3.24 8,3.24 L13.2476144,3.23914356 C14.3085644,1.30849598 16.3614744,0 18.72,0 L34.32,0 Z M34.32,5 L18.72,5 C18.3060972,5 17.9313103,5.20147616 17.7008809,5.53222112 L17.6295621,5.64715812 L16.2054519,8.23866089 L8,8.24 C6.40231912,8.24 5.09633912,9.48891996 5.00509269,11.0637272 L5,11.24 L5,47.24 C5,48.8376809 6.24891996,50.1436609 7.82372721,50.2349073 L8,50.24 L44,50.24 C45.5976809,50.24 46.9036609,48.99108 46.9949073,47.4162728 L47,47.24 L47,11.24 C47,9.64231912 45.75108,8.33633912 44.1753603,8.2450926 L43.9989823,8.2399999 L36.8344826,8.23854159 L35.4104379,5.64715812 C35.2133873,5.28857822 34.8602856,5.05124406 34.4563745,5.00736303 L34.32,5 Z" id="形状结合"></path>
            <g id="编组-3" transform="translate(13.000000, 15.460000)">
                <g id="编组">
                    <path d="M13.2951801,1.55414537 L13.3980469,1.7149542 C13.9788422,2.72092111 13.6341725,4.00724602 12.6282056,4.58804128 L10.0938678,6.05045768 L24.8182995,6.05087614 C25.97989,6.05087614 26.9215452,6.99253133 26.9215452,8.15412186 C26.9215452,9.3157124 25.97989,10.2573676 24.8182995,10.2573676 L2.8151135,10.2573676 C1.65352296,10.2573676 0.711867782,9.3157124 0.711867782,8.15412186 C0.711867782,7.83886682 0.781227904,7.53981171 0.905520499,7.27138417 C1.02059136,6.8950668 1.25523546,6.55206693 1.59975445,6.30544931 C1.64183252,6.27532849 1.68515498,6.24698513 1.72960769,6.2204939 L10.539679,0.970204772 C11.4769465,0.411647954 12.6764404,0.677462876 13.2951801,1.55414537 Z" id="形状结合"></path>
                </g>
                <g id="编组" transform="translate(13.583333, 20.321386) scale(-1, -1) translate(-13.583333, -20.321386) translate(0.083333, 14.821386)">
                    <path d="M13.2951801,1.55414537 L13.3980469,1.7149542 C13.9788422,2.72092111 13.6341725,4.00724602 12.6282056,4.58804128 L10.0938678,6.05045768 L24.8182995,6.05087614 C25.97989,6.05087614 26.9215452,6.99253133 26.9215452,8.15412186 C26.9215452,9.3157124 25.97989,10.2573676 24.8182995,10.2573676 L2.8151135,10.2573676 C1.65352296,10.2573676 0.711867782,9.3157124 0.711867782,8.15412186 C0.711867782,7.83886682 0.781227904,7.53981171 0.905520499,7.27138417 C1.02059136,6.8950668 1.25523546,6.55206693 1.59975445,6.30544931 C1.64183252,6.27532849 1.68515498,6.24698513 1.72960769,6.2204939 L10.539679,0.970204772 C11.4769465,0.411647954 12.6764404,0.677462876 13.2951801,1.55414537 Z" id="形状结合"></path>
                </g>
            </g>
        </g>
    </g>
</svg>