<?xml version="1.0" encoding="UTF-8"?>
<svg width="72px" height="72px" viewBox="0 0 72 72" version="1.1" xmlns="http://www.w3.org/2000/svg" xmlns:xlink="http://www.w3.org/1999/xlink">
    <title>报废管理</title>
    <g id="报废管理" stroke="none" stroke-width="1" fill="none" fill-rule="evenodd">
        <g id="编组-2" transform="translate(10.000000, 9.000000)" fill="#60759C" fill-rule="nonzero">
            <path d="M34.32,0 C36.6785256,0 38.7314356,1.30849598 39.7923856,3.23914356 L44,3.24 C48.418278,3.24 52,6.821722 52,11.24 L52,47.24 C52,51.658278 48.418278,55.24 44,55.24 L8,55.24 C3.581722,55.24 0,51.658278 0,47.24 L0,11.24 C0,6.821722 3.581722,3.24 8,3.24 L13.2476144,3.23914356 C14.3085644,1.30849598 16.3614744,0 18.72,0 L34.32,0 Z M34.32,5 L18.72,5 C18.3060972,5 17.9313103,5.20147616 17.7008809,5.53222112 L17.6295621,5.64715812 L16.2054519,8.23866089 L8,8.24 C6.40231912,8.24 5.09633912,9.48891996 5.00509269,11.0637272 L5,11.24 L5,47.24 C5,48.8376809 6.24891996,50.1436609 7.82372721,50.2349073 L8,50.24 L44,50.24 C45.5976809,50.24 46.9036609,48.99108 46.9949073,47.4162728 L47,47.24 L47,11.24 C47,9.64231912 45.75108,8.33633912 44.1753603,8.2450926 L43.9989823,8.2399999 L36.8344826,8.23854159 L35.4104379,5.64715812 C35.2133873,5.28857822 34.8602856,5.05124406 34.4563745,5.00736303 L34.32,5 Z" id="形状结合"></path>
        </g>
        <g id="编组-40" transform="translate(23.000000, 24.000000)" fill="#60759C" fill-rule="nonzero">
            <path d="M13,0 C20.1797017,0 26,5.82029825 26,13 C26,20.1797017 20.1797017,26 13,26 C5.82029825,26 0,20.1797017 0,13 C0,5.82029825 5.82029825,0 13,0 Z M13,4 C8.02943725,4 4,8.02943725 4,13 C4,17.9705627 8.02943725,22 13,22 C17.9705627,22 22,17.9705627 22,13 C22,8.02943725 17.9705627,4 13,4 Z" id="椭圆形"></path>
            <path d="M17.6358594,6.13362086 C18.4436163,5.38022681 19.7091792,5.42429659 20.4625732,6.23205348 C21.176315,6.99729684 21.1743274,8.17342426 20.4853298,8.93569551 L20.3641406,9.0587673 L8.3641406,20.2511555 C7.55638371,21.0045495 6.29082083,20.9604797 5.53742678,20.1527228 C4.82368505,19.3874795 4.82567263,18.211352 5.51467019,17.4490808 L5.6358594,17.326009 L17.6358594,6.13362086 Z" id="直线"></path>
        </g>
    </g>
</svg>