<?xml version="1.0" encoding="UTF-8"?>
<svg width="72px" height="72px" viewBox="0 0 72 72" version="1.1" xmlns="http://www.w3.org/2000/svg" xmlns:xlink="http://www.w3.org/1999/xlink">
    <title>处置管理</title>
    <g id="处置管理" stroke="none" stroke-width="1" fill="none" fill-rule="evenodd">
        <g id="编组-2" transform="translate(10.000000, 9.000000)" fill="#60759C" fill-rule="nonzero">
            <path d="M34.32,0 C36.6785256,0 38.7314356,1.30849598 39.7923856,3.23914356 L44,3.24 C48.418278,3.24 52,6.821722 52,11.24 L52,47.24 C52,51.658278 48.418278,55.24 44,55.24 L8,55.24 C3.581722,55.24 0,51.658278 0,47.24 L0,11.24 C0,6.821722 3.581722,3.24 8,3.24 L13.2476144,3.23914356 C14.3085644,1.30849598 16.3614744,0 18.72,0 L34.32,0 Z M34.32,5 L18.72,5 C18.3060972,5 17.9313103,5.20147616 17.7008809,5.53222112 L17.6295621,5.64715812 L16.2054519,8.23866089 L8,8.24 C6.40231912,8.24 5.09633912,9.48891996 5.00509269,11.0637272 L5,11.24 L5,47.24 C5,48.8376809 6.24891996,50.1436609 7.82372721,50.2349073 L8,50.24 L44,50.24 C45.5976809,50.24 46.9036609,48.99108 46.9949073,47.4162728 L47,47.24 L47,11.24 C47,9.64231912 45.75108,8.33633912 44.1753603,8.2450926 L43.9989823,8.2399999 L36.8344826,8.23854159 L35.4104379,5.64715812 C35.2133873,5.28857822 34.8602856,5.05124406 34.4563745,5.00736303 L34.32,5 Z" id="形状结合"></path>
        </g>
        <g id="编组" transform="translate(25.000000, 26.000000)" fill="#60759C" fill-rule="nonzero">
            <path d="M11,-1.91304348 C3.86832301,-1.91304348 -1.91304348,3.86832301 -1.91304348,11 C-1.91304348,18.131677 3.86832301,23.9130435 11,23.9130435 C18.131677,23.9130435 23.9130435,18.131677 23.9130435,11 C23.9130435,3.86832301 18.131677,-1.91304348 11,-1.91304348 Z M11,1.91304348 C16.0185875,1.91304348 20.0869565,5.98141249 20.0869565,11 C20.0869565,16.0185875 16.0185875,20.0869565 11,20.0869565 C5.98141249,20.0869565 1.91304348,16.0185875 1.91304348,11 C1.91304348,5.98141249 5.98141249,1.91304348 11,1.91304348 Z" id="椭圆形"></path>
            <path d="M14.2218229,7.70571874 C14.7234089,7.09226721 15.6273254,7.0015823 16.2407769,7.50316832 C16.8158877,7.97340522 16.9315357,8.79725292 16.530451,9.4038655 L16.4433274,9.52212241 L12.3420987,14.5366973 C11.5168557,15.493149 10.0994244,15.6364748 9.10263948,14.8920871 L8.96941671,14.7850704 L5.72359811,11.9845219 C5.12364206,11.4668695 5.05692182,10.5608688 5.57457428,9.96091271 C6.05987346,9.39845393 6.88649433,9.30465941 7.48227478,9.72166468 L7.59818347,9.81188889 L10.472,12.291 L14.2218229,7.70571874 Z" id="路径-2"></path>
        </g>
    </g>
</svg>