<?xml version="1.0" encoding="UTF-8"?>
<svg width="72px" height="72px" viewBox="0 0 72 72" version="1.1" xmlns="http://www.w3.org/2000/svg" xmlns:xlink="http://www.w3.org/1999/xlink">
    <title>临时租赁</title>
    <g id="临时租赁" stroke="none" stroke-width="1" fill="none" fill-rule="evenodd">
        <g id="编组" transform="translate(-0.636081, -0.636081)" fill="#60759C" fill-rule="nonzero">
            <path d="M27.9222979,49.1272558 C28.4076312,49.1272558 28.7669645,49.0245891 29.0002979,48.8192558 C29.2336312,48.6139225 29.3502979,48.2125891 29.3502979,47.6152558 L29.3502979,47.6152558 L29.3502979,38.3472558 C29.4622979,38.5339225 29.5649645,38.7299225 29.6582979,38.9352558 C29.7516312,39.1405891 29.8636312,39.3552558 29.9942979,39.5792558 C30.1436312,39.9339225 30.4376312,40.1485891 30.8762979,40.2232558 C31.3149645,40.2979225 31.7396312,40.1765891 32.1502979,39.8592558 C32.4302979,39.6352558 32.5889645,39.3039225 32.6262979,38.8652558 C32.6636312,38.4265891 32.5796312,38.0205891 32.3742979,37.6472558 C32.1689645,37.2552558 31.9589645,36.9005891 31.7442979,36.5832558 C31.5296312,36.2659225 31.3056312,35.9439225 31.0722979,35.6172558 C30.8389645,35.2905891 30.5916312,34.9545891 30.3302979,34.6092558 C30.0689645,34.2639225 29.7796312,33.8765891 29.4622979,33.4472558 L29.4622979,33.4472558 L31.3382979,33.4472558 C31.8422979,33.4472558 32.1922979,33.3072558 32.3882979,33.0272558 C32.5842979,32.7472558 32.6822979,32.3925891 32.6822979,31.9632558 C32.6822979,31.4965891 32.5936312,31.1232558 32.4162979,30.8432558 C32.2389645,30.5632558 31.8796312,30.4232558 31.3382979,30.4232558 L31.3382979,30.4232558 L29.3502979,30.4232558 L29.3502979,26.6432558 C29.6676312,26.5499225 29.9616312,26.4519225 30.2322979,26.3492558 C30.5029645,26.2465891 30.7689645,26.1485891 31.0302979,26.0552558 C31.6649645,25.8125891 32.0662979,25.5512558 32.2342979,25.2712558 C32.4022979,24.9912558 32.4116312,24.5805891 32.2622979,24.0392558 C32.0942979,23.5352558 31.8049645,23.2132558 31.3942979,23.0732558 C30.9836312,22.9332558 30.5076312,22.9939225 29.9662979,23.2552558 C29.2569645,23.5912558 28.4449645,23.8852558 27.5302979,24.1372558 C26.6156312,24.3892558 25.6262979,24.5992558 24.5622979,24.7672558 C23.3676312,24.9539225 22.8262979,25.5419225 22.9382979,26.5312558 C22.9569645,27.5019225 23.6102979,27.9032558 24.8982979,27.7352558 C25.1409645,27.6979225 25.3929645,27.6605891 25.6542979,27.6232558 C25.9156312,27.5859225 26.1956312,27.5299225 26.4942979,27.4552558 L26.4942979,27.4552558 L26.4942979,30.4232558 L23.8622979,30.4232558 C23.3209645,30.4232558 22.9522979,30.5632558 22.7562979,30.8432558 C22.5602979,31.1232558 22.4622979,31.4965891 22.4622979,31.9632558 C22.4622979,32.3925891 22.5742979,32.7472558 22.7982979,33.0272558 C23.0222979,33.3072558 23.3769645,33.4472558 23.8622979,33.4472558 L23.8622979,33.4472558 L26.0462979,33.4472558 C25.5796312,34.8099225 25.0429645,36.0512558 24.4362979,37.1712558 C23.8296312,38.2912558 23.1716312,39.4485891 22.4622979,40.6432558 C22.1636312,41.1285891 22.0096312,41.6092558 22.0002979,42.0852558 C21.9909645,42.5612558 22.2009645,42.9485891 22.6302979,43.2472558 C23.1156312,43.5645891 23.5776312,43.6392558 24.0162979,43.4712558 C24.4549645,43.3032558 24.8236312,42.9765891 25.1222979,42.4912558 C25.4396312,41.9499225 25.6916312,41.4879225 25.8782979,41.1052558 C26.0649645,40.7225891 26.2702979,40.2605891 26.4942979,39.7192558 L26.4942979,39.7192558 L26.4942979,47.6152558 C26.4942979,48.2125891 26.6156312,48.6139225 26.8582979,48.8192558 C27.1009645,49.0245891 27.4556312,49.1272558 27.9222979,49.1272558 Z M47.3262979,48.6232558 C47.8862979,48.6232558 48.2829645,48.4925891 48.5162979,48.2312558 C48.7496312,47.9699225 48.8662979,47.5872558 48.8662979,47.0832558 C48.8662979,46.5979225 48.7496312,46.2105891 48.5162979,45.9212558 C48.2829645,45.6319225 47.8862979,45.4872558 47.3262979,45.4872558 L47.3262979,45.4872558 L46.7662979,45.4872558 L46.7662979,26.1112558 C46.7662979,25.4952558 46.7242979,25.0005891 46.6402979,24.6272558 C46.5562979,24.2539225 46.4162979,23.9599225 46.2202979,23.7452558 C46.0242979,23.5305891 45.7629645,23.3859225 45.4362979,23.3112558 C45.1096312,23.2365891 44.6942979,23.1992558 44.1902979,23.1992558 L44.1902979,23.1992558 L36.1262979,23.1992558 C35.6409645,23.1992558 35.2302979,23.2365891 34.8942979,23.3112558 C34.5582979,23.3859225 34.2922979,23.5305891 34.0962979,23.7452558 C33.9002979,23.9599225 33.7602979,24.2539225 33.6762979,24.6272558 C33.5922979,25.0005891 33.5502979,25.4859225 33.5502979,26.0832558 L33.5502979,26.0832558 L33.5502979,45.4872558 L32.6542979,45.4872558 C31.6276312,45.4872558 31.1142979,46.0192558 31.1142979,47.0832558 C31.1142979,47.6245891 31.2356312,48.0165891 31.4782979,48.2592558 C31.7209645,48.5019225 32.1129645,48.6232558 32.6542979,48.6232558 L32.6542979,48.6232558 L47.3262979,48.6232558 Z M43.5462979,30.8712558 L36.7142979,30.8712558 L36.7142979,26.9232558 C36.7142979,26.6805891 36.7469645,26.5265891 36.8122979,26.4612558 C36.8776312,26.3959225 37.0689645,26.3632558 37.3862979,26.3632558 L37.3862979,26.3632558 L42.8182979,26.3632558 C43.1356312,26.3632558 43.3362979,26.4005891 43.4202979,26.4752558 C43.5042979,26.5499225 43.5462979,26.7459225 43.5462979,27.0632558 L43.5462979,27.0632558 L43.5462979,30.8712558 Z M43.5462979,38.2072558 L36.7142979,38.2072558 L36.7142979,33.8952558 L43.5462979,33.8952558 L43.5462979,38.2072558 Z M43.5462979,45.4872558 L36.7142979,45.4872558 L36.7142979,41.2312558 L43.5462979,41.2312558 L43.5462979,45.4872558 Z" id="租"></path>
            <path d="M9,33.3732394 C10.3807119,33.3732394 11.5,34.4925276 11.5,35.8732394 C11.5,49.3342079 22.412271,60.2464789 35.8732394,60.2464789 C42.3451393,60.2464789 48.4112344,57.7161085 52.9396034,53.2742281 C53.9252816,52.3073756 55.5081205,52.3226369 56.474973,53.3083151 C57.4418255,54.2939934 57.4265642,55.8768322 56.4408859,56.8436847 C50.9869554,62.1934491 43.667881,65.2464789 35.8732394,65.2464789 C19.6508472,65.2464789 6.5,52.0956316 6.5,35.8732394 C6.5,34.4925276 7.61928813,33.3732394 9,33.3732394 Z M35.8732394,6.5 C52.0956316,6.5 65.2464789,19.6508472 65.2464789,35.8732394 C65.2464789,38.6753192 64.9819175,40.951646 64.3351358,43.3279652 C63.9725276,44.6602117 62.5985765,45.4462588 61.2663301,45.0836507 C59.9340836,44.7210426 59.1480364,43.3470915 59.5106446,42.014845 C60.0324943,40.0975343 60.2464789,38.2563782 60.2464789,35.8732394 C60.2464789,22.412271 49.3342079,11.5 35.8732394,11.5 C27.2804677,11.5 19.4635566,15.9803905 15.0622224,23.1789644 C14.3419874,24.3569402 12.8031835,24.7280123 11.6252078,24.0077773 C10.4472321,23.2875423 10.0761599,21.7487385 10.7963949,20.5707627 C16.0969637,11.9014515 25.5208446,6.5 35.8732394,6.5 Z" id="形状备份" transform="translate(35.873239, 35.873239) rotate(-23.000000) translate(-35.873239, -35.873239) "></path>
        </g>
    </g>
</svg>