<?xml version="1.0" encoding="UTF-8"?>
<svg width="72px" height="72px" viewBox="0 0 72 72" version="1.1" xmlns="http://www.w3.org/2000/svg" xmlns:xlink="http://www.w3.org/1999/xlink">
    <title>使用权资产</title>
    <g id="使用权资产" stroke="none" stroke-width="1" fill="none" fill-rule="evenodd">
        <path d="M58.9158154,11.6494956 C60.7843751,11.6458105 62.3138284,13.107069 62.4171657,14.9505556 L62.422724,15.1425802 L62.498169,53.3226183 C62.5017773,55.152374 61.0953971,56.6761222 59.2712153,56.8188669 L57.0654284,56.9986621 C53.3601014,57.313749 50.4682441,57.6310062 48.4019699,57.9477816 L48.1124054,57.9930317 C45.7252511,58.3734203 42.4411021,59.0859688 38.275951,60.1295487 L36.4893676,60.5828334 L34.265691,60.0015063 C30.4758726,59.0288124 27.5085928,58.374719 25.383086,58.0405019 L25.0984636,57.9969097 C22.8023933,57.6549718 19.0262434,57.3361538 13.8067873,57.0475792 C12.0156958,56.9485529 10.6006612,55.5149988 10.5051421,53.743938 L10.5,53.5529355 L10.5,15.2774641 C10.5,14.9942405 10.5343776,14.7120639 10.6023787,14.437125 C11.051015,12.623219 12.838984,11.4928781 14.6526777,11.8387632 L14.8403391,11.8798428 L27.4285379,14.9933023 C28.7688625,15.3248069 29.5866727,16.6800922 29.255168,18.0204168 C28.9369236,19.3071284 27.6751628,20.1122907 26.3888978,19.8813509 L26.2280535,19.8470469 L15.5,17.193 L15.499,52.136 L17.8316861,52.2838897 C20.9774301,52.4966389 23.4566016,52.7255207 25.2806908,52.9727607 L25.8349568,53.0514494 C28.2716738,53.4143328 31.660454,54.1606132 36.026269,55.2919472 L36.509,55.417 L38.2779994,54.9776723 C41.8194715,54.1093607 44.7142539,53.4879786 46.9724864,53.1128102 L47.981247,52.9548686 C49.9063528,52.6708775 52.4047747,52.3922801 55.483856,52.1174686 L57.495,51.945 L57.425,16.873 L38,19.594 L38,37.4042553 C38,38.7297387 36.9684641,39.814294 35.6643757,39.8989376 L35.5,39.9042553 C34.1745166,39.9042553 33.0899613,38.8727194 33.0053177,37.568631 L33,37.4042553 L33,18.2898808 C33,16.6067871 34.195774,15.1717594 35.8310793,14.8543361 L36.0145502,14.8237103 L58.437281,11.6833251 C58.5958312,11.6611196 58.7557181,11.6494956 58.9158154,11.6494956 Z" id="路径-3" fill="#60759C" fill-rule="nonzero"></path>
        <path d="M46,17 L53,17 L53,31 C51.4583688,29.9645789 50.2917021,29.4468684 49.5,29.4468684 C48.7082979,29.4468684 47.5416312,29.9645789 46,31 L46,17 Z" id="矩形" fill="#60759C"></path>
    </g>
</svg>