<?xml version="1.0" encoding="UTF-8"?>
<svg width="72px" height="72px" viewBox="0 0 72 72" version="1.1" xmlns="http://www.w3.org/2000/svg" xmlns:xlink="http://www.w3.org/1999/xlink">
    <title>租赁合同管理</title>
    <g id="租赁合同管理" stroke="none" stroke-width="1" fill="none" fill-rule="evenodd">
        <g id="编组" transform="translate(23.000000, 23.000000)" fill="#60759C">
            <path d="M2.40740741,10 L8.59259259,10 C9.92216699,10 11,11.077833 11,12.4074074 C11,13.7369818 9.92216699,14.8148148 8.59259259,14.8148148 L2.40740741,14.8148148 C1.07783301,14.8148148 1.62825903e-16,13.7369818 0,12.4074074 C-1.62825903e-16,11.077833 1.07783301,10 2.40740741,10 Z" id="矩形"></path>
            <path d="M23.5925926,-1.59872116e-14 C24.922167,-1.59872116e-14 26,1.07783301 26,2.40740741 C26,3.73698181 24.922167,4.81481481 23.5925926,4.81481481 L2.40740741,4.81481481 C1.07783301,4.81481481 0,3.73698181 0,2.40740741 C0,1.07783301 1.07783301,-1.59872116e-14 2.40740741,-1.59872116e-14 L23.5925926,-1.59872116e-14 Z" id="矩形备份" fill-rule="nonzero"></path>
        </g>
        <path d="M44.32,9 C46.6789352,9 48.7321486,10.3089504 49.7929382,12.2401493 L54,12.24 C58.418278,12.24 62,15.821722 62,20.24 L62,56.24 C62,60.658278 58.418278,64.24 54,64.24 L18,64.24 C13.581722,64.24 10,60.658278 10,56.24 L10,20.24 C10,15.821722 13.581722,12.24 18,12.24 L23.2470618,12.2401493 C24.3078514,10.3089504 26.3610648,9 28.72,9 L44.32,9 Z M44.32,14 L28.72,14 C28.3060257,14 27.9311777,14.2015505 27.7007639,14.5323879 L27.6294532,14.6473563 L26.2052098,17.2402335 L18,17.24 C16.4023191,17.24 15.0963391,18.48892 15.0050927,20.0637272 L15,20.24 L15,56.24 C15,57.8376809 16.24892,59.1436609 17.8237272,59.2349073 L18,59.24 L54,59.24 C55.5976809,59.24 56.9036609,57.99108 56.9949073,56.4162728 L57,56.24 L57,20.24 C57,18.6423191 55.75108,17.3363391 54.1764319,17.2450927 L54.0001775,17.24 L46.8348017,17.2402543 L45.4105468,14.6473563 C45.2135296,14.2886806 44.8603773,14.0512626 44.4563979,14.0073657 L44.32,14 Z" id="形状结合" fill="#60759C" fill-rule="nonzero"></path>
        <path d="M43.8702681,36.6798614 C44.25807,36.871253 44.5719641,37.1851471 44.7633558,37.572949 L46.0613704,40.2030139 C46.3526944,40.7933009 46.9158256,41.2024396 47.5672459,41.2970965 L50.4696949,41.7188471 C51.5444292,41.8750151 52.2890743,42.8728586 52.1329062,43.9475929 C52.0707193,44.3755577 51.8691869,44.7710873 51.5595086,45.072949 L49.4592769,47.120169 C48.9879047,47.5796434 48.7728077,48.2416438 48.8840836,48.8904319 L49.3798811,51.7811529 C49.5634676,52.8515446 48.84457,53.8680948 47.7741784,54.0516813 C47.3479428,54.1247864 46.9094949,54.0553431 46.5267115,53.854102 L43.9306823,52.4892886 C43.3480342,52.1829724 42.6519658,52.1829724 42.0693177,52.4892886 L39.4732885,53.854102 C38.5120169,54.3594723 37.3230687,53.9898914 36.8176983,53.0286198 C36.6164571,52.6458364 36.5470138,52.2073885 36.6201189,51.7811529 L37.1159164,48.8904319 C37.2271923,48.2416438 37.0120953,47.5796434 36.5407231,47.120169 L34.4404914,45.072949 C33.6628063,44.3148934 33.6468935,43.0699297 34.404949,42.2922446 C34.7068107,41.9825664 35.1023403,41.781034 35.5303051,41.7188471 L38.4327541,41.2970965 C39.0841744,41.2024396 39.6473056,40.7933009 39.9386296,40.2030139 L41.2366442,37.572949 C41.71728,36.5990745 42.8963936,36.1992256 43.8702681,36.6798614 Z M43,40.777 L42.6288378,41.5307111 C41.9369433,42.9326426 40.6317838,43.9258584 39.1067189,44.2245664 L38.864149,44.2659176 L38.034,44.386 L38.6347582,44.97191 C39.7542671,46.0631614 40.2955551,47.6113624 40.1083722,49.1540912 L40.0727414,49.3975671 L39.93,50.224 L40.6732944,49.8338943 C42.0532503,49.1084086 43.6876951,49.0702251 45.0944393,49.719344 L45.3267056,49.8338943 L46.069,50.224 L45.9272586,49.3975671 C45.6629784,47.8566952 46.1350769,46.2860132 47.1933043,45.1479428 L47.3652418,44.97191 L47.965,44.386 L47.135851,44.2659176 C45.5887277,44.0411074 44.2408068,43.1067476 43.4854477,41.7486305 L43.3711622,41.5307111 L43,40.777 Z" id="星形" fill="#60759C" fill-rule="nonzero"></path>
    </g>
</svg>