<?xml version="1.0" encoding="UTF-8"?>
<svg width="72px" height="72px" viewBox="0 0 72 72" version="1.1" xmlns="http://www.w3.org/2000/svg" xmlns:xlink="http://www.w3.org/1999/xlink">
    <title>业务查询</title>
    <g id="业务查询" stroke="none" stroke-width="1" fill="none" fill-rule="evenodd">
        <g id="编组-3" transform="translate(38.000000, 33.500000) scale(-1, -1) translate(-38.000000, -33.500000) translate(10.000000, 3.000000)" fill="#60759C">
            <g id="编组" transform="translate(6.000000, 0.000000)" fill-rule="nonzero">
                <path d="M34.5732775,0.795022151 C35.3119724,0.795022151 36.0389114,0.973756596 36.689978,1.31489842 L36.9304463,1.45040756 L37.0547463,1.52554511 L47.029,9.263 L47.0656262,9.28628453 C48.2119776,10.0621473 48.9345371,11.3216816 49.0074205,12.6999158 L49.0135135,12.930658 L49.0135135,48.6568073 C49.0135135,52.1085625 46.2083648,54.8828948 42.7453334,55.0018866 L42.5135135,55.0058639 L27.9500072,55.0058639 C26.5692953,55.0058639 25.4500072,53.8865758 25.4500072,52.5058639 C25.4500072,51.1803805 26.4815431,50.0958252 27.7856315,50.0111816 L27.9500072,50.0058639 L42.5135135,50.0058639 C43.3130291,50.0058639 43.9362939,49.4513741 44.0068527,48.7832955 L44.0135135,48.6568073 L44.013,13.251 L34.401,5.795 L7,5.79502215 C6.20048446,5.79502215 5.57721963,6.34951196 5.50666084,7.01759054 L5.5,7.14407875 L5.5,27.0188679 C5.5,28.3995798 4.38071187,29.5188679 3,29.5188679 C1.6745166,29.5188679 0.589961328,28.487332 0.50531768,27.1832436 L0.5,27.0188679 L0.5,7.14407875 C0.5,3.69232349 3.30514873,0.917991275 6.76818016,0.7989994 L7,0.795022151 L34.5732775,0.795022151 Z" id="路径"></path>
                <path d="M34.6081081,2 L34.6081081,8.54716981 C34.6081081,9.87265321 35.639644,10.9572085 36.9437324,11.0418521 L37.1081081,11.0471698 L46.1081081,11.0471698 L46.1081081,16.0471698 L37.1081081,16.0471698 C33.0471908,16.0471698 29.7400906,12.8196954 29.6119617,8.78990087 L29.6081081,8.54716981 L29.6081081,2 L34.6081081,2 Z" id="路径-6"></path>
            </g>
            <path d="M40.5,35 C41.8807119,35 43,36.1192881 43,37.5 C43,38.8807119 41.8807119,40 40.5,40 L36.3,40 C34.9192881,40 33.8,38.8807119 33.8,37.5 C33.8,36.1192881 34.9192881,35 36.3,35 L40.5,35 Z" id="矩形备份" fill-rule="nonzero"></path>
            <path d="M40.5,23 C41.8807119,23 43,24.1192881 43,25.5 C43,26.8807119 41.8807119,28 40.5,28 L23.5,28 C22.1192881,28 21,26.8807119 21,25.5 C21,24.1192881 22.1192881,23 23.5,23 L40.5,23 Z" id="矩形备份" fill-rule="nonzero"></path>
            <g id="编组-2" transform="translate(15.500000, 43.353073) scale(-1, -1) translate(-15.500000, -43.353073) translate(-0.000000, 25.853073)">
                <g id="编组" transform="translate(15.381967, 17.303617) rotate(-17.000000) translate(-15.381967, -17.303617) translate(3.881967, 2.803617)">
                    <path d="M17.7023468,17.431982 C18.8376794,17.4425012 19.7555047,18.3602269 19.7661471,19.4955583 L19.8314347,26.4604713 C19.8418243,27.5688373 18.9517386,28.4757679 17.8433727,28.4861575 C17.8309042,28.4862743 17.8184349,28.486275 17.8059664,28.4861595 C16.6706339,28.4756404 15.7528085,27.5579146 15.7421662,26.4225832 L15.6768785,19.4576702 C15.6664889,18.3493042 16.5565746,17.4423737 17.6649406,17.4319841 C17.677409,17.4318672 17.6898783,17.4318665 17.7023468,17.431982 Z" id="矩形" transform="translate(17.754157, 22.959071) rotate(-29.000000) translate(-17.754157, -22.959071) "></path>
                    <path d="M10.9238453,0.572170973 C5.1727737,0.572170973 0.493011186,5.15019952 0.493011186,10.8197261 C0.493011186,16.4892527 5.1727737,21.0672812 10.9238453,21.0672812 C16.6749169,21.0672812 21.3546794,16.4892527 21.3546794,10.8197261 C21.3546794,5.15019952 16.6749169,0.572170973 10.9238453,0.572170973 Z M10.9238453,4.57217097 C14.4852159,4.57217097 17.3546794,7.37925484 17.3546794,10.8197261 C17.3546794,14.2601974 14.4852159,17.0672812 10.9238453,17.0672812 C7.3624747,17.0672812 4.49301119,14.2601974 4.49301119,10.8197261 C4.49301119,7.37925484 7.3624747,4.57217097 10.9238453,4.57217097 Z" id="椭圆形" fill-rule="nonzero"></path>
                </g>
            </g>
        </g>
    </g>
</svg>