<?xml version="1.0" encoding="UTF-8"?>
<svg width="72px" height="72px" viewBox="0 0 72 72" version="1.1" xmlns="http://www.w3.org/2000/svg" xmlns:xlink="http://www.w3.org/1999/xlink">
    <title>租赁结算</title>
    <g id="租赁结算" stroke="none" stroke-width="1" fill="none" fill-rule="evenodd">
        <g id="编组-2" fill="#60759C" fill-rule="nonzero">
            <g id="编组">
                <path d="M9.12676056,33.5 C10.5074724,33.5 11.6267606,34.6192881 11.6267606,36 C11.6267606,49.4609684 22.5390316,60.3732394 36,60.3732394 C42.4718999,60.3732394 48.5379949,57.8428691 53.066364,53.4009887 C54.0520422,52.4341362 55.6348811,52.4493975 56.6017335,53.4350757 C57.568586,54.4207539 57.5533247,56.0035928 56.5676465,56.9704453 C51.1137159,62.3202097 43.7946416,65.3732394 36,65.3732394 C19.7776078,65.3732394 6.62676056,52.2223922 6.62676056,36 C6.62676056,34.6192881 7.74604869,33.5 9.12676056,33.5 Z M36,6.62676056 C52.2223922,6.62676056 65.3732394,19.7776078 65.3732394,36 C65.3732394,38.8020798 65.1086781,41.0784066 64.4618963,43.4547258 C64.0992882,44.7869722 62.7253371,45.5730194 61.3930906,45.2104113 C60.0608442,44.8478031 59.274797,43.473852 59.6374051,42.1416056 C60.1592549,40.2242948 60.3732394,38.3831387 60.3732394,36 C60.3732394,22.5390316 49.4609684,11.6267606 36,11.6267606 C27.4072283,11.6267606 19.5903172,16.1071511 15.1889829,23.305725 C14.4687479,24.4837007 12.9299441,24.8547729 11.7519684,24.1345379 C10.5739926,23.4143029 10.2029205,21.875499 10.9231555,20.6975233 C16.2237243,12.0282121 25.6476052,6.62676056 36,6.62676056 Z" id="形状" transform="translate(36.000000, 36.000000) rotate(-23.000000) translate(-36.000000, -36.000000) "></path>
                <path d="M24.9146686,42.4752964 C25.7097109,42.4752964 26.6514574,42.4090429 27.7399081,42.2765358 C28.8283588,42.1440288 29.9310067,41.9736626 31.0478517,41.7654372 C32.1836264,41.5761414 32.7231193,40.9893245 32.6663306,40.0049865 C32.5906123,39.3424513 32.3776546,38.9260006 32.0274574,38.7556344 C31.6772602,38.5852682 31.2466123,38.5379443 30.7355137,38.6136626 C30.2244151,38.6893809 29.7038517,38.7698316 29.1738236,38.8550147 C28.6437954,38.9401978 28.1894855,39.0017189 27.810894,39.0395781 C27.2997954,39.0963668 27.2524715,38.8313527 27.6689222,38.2445358 C28.1610912,37.5062823 28.6012039,36.8437471 28.9892602,36.2569302 C29.3773165,35.6701133 29.7559081,35.0880288 30.1250348,34.5106767 C30.4941616,33.9333245 30.8632884,33.3417752 31.2324151,32.7360288 C31.6015419,32.1302823 32.0132602,31.4488175 32.4675701,30.6916344 C32.8650912,30.0290992 33.0449222,29.4470147 33.007063,28.9453809 C32.9692039,28.4437471 32.7515137,28.0888175 32.3539926,27.8805921 C31.9186123,27.6534372 31.4879644,27.6013809 31.0620489,27.7244231 C30.6361334,27.8474654 30.2149503,28.2875781 29.7984996,29.0447612 C29.5902743,29.4233527 29.3915137,29.7830147 29.2022179,30.1237471 C29.0129222,30.4644795 28.8141616,30.8052119 28.6059362,31.1459443 L28.6059362,31.1459443 L27.2997954,31.202733 C26.9779926,31.2216626 26.7886968,31.1648738 26.7319081,31.0323668 C26.6751193,30.8998598 26.7886968,30.6159161 27.0726405,30.1805358 C27.4323024,29.6505076 27.7493729,29.1678034 28.0238517,28.7324231 C28.2983306,28.2970429 28.5491475,27.8900569 28.7763024,27.5114654 C29.0034574,27.1328738 29.2211475,26.7495499 29.4293729,26.3614936 C29.6375982,25.9734372 29.8552884,25.5522541 30.0824433,25.0979443 C30.4231757,24.4354091 30.5272884,23.8911837 30.3947813,23.4652682 C30.2622743,23.0393527 29.9499362,22.7222823 29.4577672,22.5140569 C28.9088095,22.2679724 28.4450348,22.2443105 28.0664433,22.443071 C27.6878517,22.6418316 27.3376546,23.0819443 27.0158517,23.7634091 C26.7697672,24.2745076 26.5236827,24.7714091 26.2775982,25.2541133 C26.0315137,25.7368175 25.7475701,26.2621133 25.4257672,26.8300006 C25.1039644,27.3978879 24.7253729,28.046226 24.2899926,28.7750147 C23.8546123,29.5038034 23.3245841,30.3792964 22.6999081,31.4014936 C22.4727532,31.7800851 22.3449785,32.1681414 22.3165841,32.5656626 C22.2881898,32.9631837 22.3497109,33.3181133 22.5011475,33.6304513 C22.6525841,33.9427893 22.8892039,34.1936062 23.2110067,34.382902 C23.5328095,34.5721978 23.9397954,34.6479161 24.4319644,34.6100569 L24.4319644,34.6100569 L26.4763588,34.4964795 C26.0409785,35.102226 25.5630067,35.7647612 25.0424433,36.4840851 C24.5218799,37.2034091 23.9397954,37.9984513 23.2961898,38.8692119 C23.0122461,39.2478034 22.8418799,39.6500569 22.7850912,40.0759724 C22.7283024,40.5018879 22.7756264,40.8899443 22.927063,41.2401414 C23.0784996,41.5903386 23.3245841,41.8837471 23.6653165,42.1203668 C24.0060489,42.3569865 24.4224996,42.4752964 24.9146686,42.4752964 Z M46.8635137,35.5186767 C48.0750067,35.5186767 48.6807532,35.0075781 48.6807532,33.9853809 C48.6807532,32.8874654 48.0750067,32.3385076 46.8635137,32.3385076 L46.8635137,32.3385076 L42.6327532,32.3385076 L42.6327532,29.4138879 L47.9141053,29.4138879 C49.0877391,29.4138879 49.674556,28.8838598 49.674556,27.8238034 C49.674556,26.7069583 49.0877391,26.1485358 47.9141053,26.1485358 L47.9141053,26.1485358 L42.6327532,26.1485358 L42.6327532,23.9621696 C42.6327532,23.318564 42.4860489,22.8831837 42.1926405,22.6560288 C41.899232,22.4288738 41.5159081,22.3152964 41.0426686,22.3152964 C40.5315701,22.3152964 40.1293165,22.4288738 39.8359081,22.6560288 C39.5424996,22.8831837 39.3957954,23.318564 39.3957954,23.9621696 L39.3957954,23.9621696 L39.3957954,26.1485358 L34.8243024,26.1485358 C33.5938799,26.1485358 32.9786686,26.7069583 32.9786686,27.8238034 C32.9786686,28.8838598 33.5938799,29.4138879 34.8243024,29.4138879 L34.8243024,29.4138879 L39.3957954,29.4138879 L39.3957954,32.3385076 L35.4489785,32.3385076 C34.8243024,32.3385076 34.351063,32.4662823 34.0292602,32.7218316 C33.7074574,32.9773809 33.546556,33.3890992 33.546556,33.9569865 C33.546556,34.9981133 34.1806968,35.5186767 35.4489785,35.5186767 L35.4489785,35.5186767 L46.8635137,35.5186767 Z M45.0746686,48.9776062 C46.1725841,48.9776062 46.9344996,48.7457189 47.3604151,48.2819443 C47.7863306,47.8181696 47.9992884,47.018395 47.9992884,45.8826203 L47.9992884,45.8826203 L47.9992884,40.5160851 C47.9992884,39.4181696 47.791063,38.618395 47.3746123,38.1167612 C46.9581616,37.6151274 46.1915137,37.3643105 45.0746686,37.3643105 L45.0746686,37.3643105 L36.9538799,37.3643105 C35.8370348,37.3643105 35.0751193,37.6151274 34.6681334,38.1167612 C34.2611475,38.618395 34.0576546,39.4181696 34.0576546,40.5160851 L34.0576546,40.5160851 L34.0576546,45.8826203 C34.0576546,46.4694372 34.1049785,46.9616062 34.1996264,47.3591274 C34.2942743,47.7566485 34.4551757,48.0737189 34.6823306,48.3103386 C34.9094855,48.5469583 35.2076264,48.7173245 35.5767532,48.8214372 C35.9458799,48.9255499 36.4049222,48.9776062 36.9538799,48.9776062 L36.9538799,48.9776062 L45.0746686,48.9776062 Z M44.1092602,45.8258316 L37.890894,45.8258316 C37.5880208,45.8258316 37.3892602,45.7785076 37.2946123,45.6838598 C37.1999644,45.5892119 37.1526405,45.3904513 37.1526405,45.0875781 L37.1526405,45.0875781 L37.1526405,41.3395217 C37.1526405,41.1123668 37.195232,40.9372682 37.2804151,40.814226 C37.3655982,40.6911837 37.5690912,40.6296626 37.890894,40.6296626 L37.890894,40.6296626 L44.1092602,40.6296626 C44.4121334,40.6296626 44.6203588,40.6817189 44.7339362,40.7858316 C44.8475137,40.8899443 44.9043024,41.0745076 44.9043024,41.3395217 L44.9043024,41.3395217 L44.9043024,45.0875781 C44.9043024,45.3336626 44.8522461,45.518226 44.7481334,45.6412682 C44.6440208,45.7643105 44.431063,45.8258316 44.1092602,45.8258316 L44.1092602,45.8258316 Z M23.0264433,48.651071 C23.3766405,48.8119724 23.8924715,48.8167048 24.5739362,48.6652682 C25.7475701,48.4381133 26.9448658,48.1305076 28.1658236,47.7424513 C29.3867813,47.354395 30.6219362,46.8858879 31.8712884,46.3369302 C32.4770348,46.0719161 32.8650912,45.7879724 33.0354574,45.4850992 C33.2058236,45.182226 33.2058236,44.7468457 33.0354574,44.1789583 C32.6757954,43.0810429 31.8334292,42.8254936 30.5083588,43.4123105 C29.959401,43.6394654 29.4293729,43.8524231 28.9182743,44.0511837 C28.4071757,44.2499443 27.8866123,44.4345076 27.3565841,44.6048738 C26.826556,44.77524 26.2775982,44.9361414 25.7097109,45.0875781 C25.1418236,45.2390147 24.5171475,45.3904513 23.8356827,45.5418879 C23.1731475,45.6933245 22.7377672,45.9346767 22.5295419,46.2659443 C22.3213165,46.5972119 22.2645278,47.0373245 22.3591757,47.5862823 C22.4538236,48.13524 22.6762461,48.4901696 23.0264433,48.651071 Z" id="结"></path>
            </g>
        </g>
    </g>
</svg>