<?xml version="1.0" encoding="UTF-8"?>
<svg width="72px" height="72px" viewBox="0 0 72 72" version="1.1" xmlns="http://www.w3.org/2000/svg" xmlns:xlink="http://www.w3.org/1999/xlink">
    <title>运行数据管理</title>
    <g id="运行数据管理" stroke="none" stroke-width="1" fill="none" fill-rule="evenodd">
        <g id="编组" transform="translate(11.000000, 11.417417)" fill="#60759C" fill-rule="nonzero">
            <path d="M38.8974471,-2.5 C44.0221181,-2.5 48.3431377,1.06602753 48.4958257,5.73275462 L48.5,5.98838015 L48.5,16.1759276 C48.5,17.5566395 47.3807119,18.6759276 46,18.6759276 C44.6745166,18.6759276 43.5899613,17.6443917 43.5053177,16.3403033 L43.5,16.1759276 L43.5,5.98838015 C43.5,4.22054304 41.642755,2.60107205 39.1344694,2.50454565 L38.8974471,2.5 L7.10255294,2.5 C4.55475516,2.5 2.62030421,4.06590017 2.50540434,5.82312204 L2.5,5.98838015 L2.5,44.519 L6.753,47.441 L15.2704756,43.5604698 C15.9028679,43.2723478 16.6237904,43.261538 17.2609617,43.5246371 L17.4325298,43.60318 L26.2917639,48.0700975 C27.5246269,48.6917197 28.0201353,50.195077 27.3985131,51.42794 C26.8027918,52.6094336 25.3972825,53.1137389 24.1961039,52.606601 L24.0406706,52.5346891 L16.252,48.607 L7.53915826,52.5773993 C6.79783999,52.9151487 5.94250025,52.8691279 5.2451211,52.4631138 L5.08711529,52.3630387 L-1.41553548,47.8961212 C-2.0421588,47.4656698 -2.43597984,46.7758297 -2.49285986,46.0244801 L-2.5,45.8354758 L-2.5,5.98838015 C-2.5,1.28244261 1.72950759,-2.36761952 6.82384266,-2.49647826 L7.10255294,-2.5 L38.8974471,-2.5 Z" id="路径"></path>
            <path d="M18.5,26.6759276 C19.8807119,26.6759276 21,27.7952157 21,29.1759276 C21,30.5566395 19.8807119,31.6759276 18.5,31.6759276 L10.5,31.6759276 C9.11928813,31.6759276 8,30.5566395 8,29.1759276 C8,27.7952157 9.11928813,26.6759276 10.5,26.6759276 L18.5,26.6759276 Z" id="矩形" transform="translate(14.500000, 29.175928) scale(1, -1) translate(-14.500000, -29.175928) "></path>
            <path d="M30.5,13.6759276 C31.8807119,13.6759276 33,14.7952157 33,16.1759276 C33,17.5566395 31.8807119,18.6759276 30.5,18.6759276 L10.5,18.6759276 C9.11928813,18.6759276 8,17.5566395 8,16.1759276 C8,14.7952157 9.11928813,13.6759276 10.5,13.6759276 L30.5,13.6759276 Z" id="矩形备份" transform="translate(20.500000, 16.175928) scale(1, -1) translate(-20.500000, -16.175928) "></path>
            <path d="M46.8309091,43.6821385 C47.6306061,42.3184069 49.0015152,41.6365412 50.3724242,41.7501855 C50.6009091,40.9546754 50.7151515,40.045521 50.7151515,39.1363666 C50.7151515,38.3408565 50.6009091,37.5453465 50.4866666,36.8634807 C49.1157576,37.0907693 47.630606,36.2952592 46.8309091,34.9315277 C46.0312121,33.5677961 46.1454545,31.8631317 47.0593939,30.840333 C45.8027273,29.70389 44.4318182,28.90838 42.8324242,28.3401585 C42.3754545,29.70389 41.0045455,30.6130444 39.2909091,30.6130444 C37.5772727,30.6130444 36.3206061,29.70389 35.7493939,28.3401585 C34.15,28.90838 32.7790909,29.8175343 31.5224243,30.9539773 C32.4363636,32.0904203 32.5506061,33.6814404 31.7509091,35.045172 C30.9512121,36.4089035 29.4660606,37.0907693 28.0951515,36.8634807 C27.9809091,37.6589908 27.8666667,38.4545008 27.8666667,39.2500109 C27.8666667,40.1591653 27.9809091,40.9546754 28.2093939,41.7501855 C29.580303,41.6365412 30.9512121,42.3184069 31.7509091,43.6821385 C32.4363636,45.04587 32.4363636,46.5232459 31.6366667,47.6596889 C32.8933333,48.7961318 34.2642424,49.5916419 35.8636364,50.0462191 C36.4348485,48.7961318 37.6915152,48.0006217 39.2909091,48.0006217 C40.890303,48.0006217 42.1469697,48.7961318 42.7181818,50.0462191 C44.3175757,49.5916419 45.6884848,48.6824875 46.9451515,47.6596889 C46.1454545,46.5232459 46.0312121,45.04587 46.8309091,43.6821385 Z M39.2909091,44.1367157 C36.5490909,44.1367157 34.3784848,41.977474 34.3784848,39.2500109 C34.3784848,36.5225478 36.5490909,34.3633062 39.2909091,34.3633062 C42.0327273,34.3633062 44.2033333,36.5225478 44.2033333,39.2500109 C44.2033333,41.977474 42.0327273,44.1367157 39.2909091,44.1367157 Z" id="形状"></path>
        </g>
    </g>
</svg>