<?xml version="1.0" encoding="UTF-8"?>
<svg width="72px" height="72px" viewBox="0 0 72 72" version="1.1" xmlns="http://www.w3.org/2000/svg" xmlns:xlink="http://www.w3.org/1999/xlink">
    <title>润滑记录</title>
    <g id="润滑记录" stroke="none" stroke-width="1" fill="none" fill-rule="evenodd">
        <g id="编组" transform="translate(10.000000, 10.000000)" fill="#60759C" fill-rule="nonzero">
            <path d="M20,-2.5 C21.3807119,-2.5 22.5,-1.38071187 22.5,0 C22.5,1.3254834 21.4684641,2.41003867 20.1643757,2.49468232 L20,2.5 L7.7037037,2.5 C4.90346792,2.5 2.61983353,4.71183348 2.50456512,7.48373583 L2.5,7.7037037 L2.5,44.2962963 C2.5,47.0965321 4.71183348,49.3801665 7.48373583,49.4954349 L7.7037037,49.5 L44.2962963,49.5 C47.0965321,49.5 49.3801665,47.2881665 49.4954349,44.5162642 L49.5,44.2962963 L49.5,21.6045476 C49.5,20.2238358 50.6192881,19.1045476 52,19.1045476 C53.3254834,19.1045476 54.4100387,20.1360836 54.4946823,21.440172 L54.5,21.6045476 L54.5,44.2962963 C54.5,49.8377237 50.0826557,54.3474252 44.5771584,54.4962092 L44.2962963,54.5 L7.7037037,54.5 C2.16227626,54.5 -2.34742515,50.0826557 -2.49620925,44.5771584 L-2.5,44.2962963 L-2.5,7.7037037 C-2.5,2.16227626 1.91734428,-2.34742515 7.42284158,-2.49620925 L7.7037037,-2.5 L20,-2.5 Z" id="路径" transform="translate(26.000000, 26.000000) scale(1, -1) translate(-26.000000, -26.000000) "></path>
            <path d="M39.5,15.0933449 C40.8807119,15.0933449 42,16.212633 42,17.5933449 C42,18.9740567 40.8807119,20.0933449 39.5,20.0933449 L12.5,20.0933449 C11.1192881,20.0933449 10,18.9740567 10,17.5933449 C10,16.212633 11.1192881,15.0933449 12.5,15.0933449 L39.5,15.0933449 Z" id="矩形备份" transform="translate(26.000000, 17.593345) scale(1, -1) translate(-26.000000, -17.593345) "></path>
            <g id="润滑系统备份" transform="translate(27.000000, 35.000000)">
                <path d="M20.0224609,11.4912109 L20.9282227,9.54980469 L16.4814453,11.6689453 C15.855957,11.9663086 15.1313477,11.597168 14.9570312,10.8930664 L14.0820312,7.36572266 L7.68017578,7.36572266 L7.25634766,11.3476562 C8.08691406,11.0195312 9.08154297,10.8520508 10.2368164,10.8520508 C13.0600586,10.8520508 13.2856445,12.4892578 16.1738281,12.4892578 C17.6743164,12.4892578 18.9560547,12.1577148 20.0224609,11.4912109 L20.0224609,11.4912109 Z M5.60888672,5.92675781 C5.72167969,5.39355469 6.16601562,5.00732422 6.68896484,5.00732422 L10.0078125,5.00732422 L10.0078125,2.35839844 L8.48339844,2.35839844 C7.87158203,2.35839844 7.37597656,1.82861328 7.37597656,1.17919922 C7.37597656,0.526367188 7.87158203,0 8.48339844,0 L13.7607422,0 C14.3725586,0 14.8681641,0.529785156 14.8681641,1.17919922 C14.8681641,1.83203125 14.3725586,2.35839844 13.7607422,2.35839844 L12.2226562,2.35839844 L12.2226562,5.00732422 L14.9365234,5.00732422 C15.4389648,5.00732422 15.8798828,5.36962891 16.0063477,5.88574219 L16.7651367,8.94824219 L24.8178711,5.10986328 C25.2861328,4.88769531 25.8364258,5.03466797 26.1508789,5.46875 L27.6992187,7.61523437 L25.9423828,9.05078125 L24.9272461,7.64257812 L24.1103516,8.03222656 L19.472168,17.9819336 C19.2841797,18.3818359 18.9013672,18.6381836 18.480957,18.6381836 L5.49267578,18.6381836 C4.83300781,18.6381836 4.31689453,18.0263672 4.39208984,17.3256836 L4.99707031,11.6416016 L0.909179687,10.7973633 C0.30078125,10.6708984 -0.0922851563,10.0419922 0.0375976562,9.39599609 L0.782714844,5.62597656 C0.919433594,4.93896484 1.58251953,4.52880859 2.21142578,4.74755859 L5.60888672,5.92675781 Z M5.05859375,9.24902344 L5.05859375,8.21679688 L2.69677734,7.39648438 L2.43701172,8.70898438 L5.05859375,9.24902344 Z" id="形状"></path>
            </g>
        </g>
        <path d="M33.5,40.0933449 C34.8807119,40.0933449 36,41.212633 36,42.5933449 C36,43.9740567 34.8807119,45.0933449 33.5,45.0933449 L22.5,45.0933449 C21.1192881,45.0933449 20,43.9740567 20,42.5933449 C20,41.212633 21.1192881,40.0933449 22.5,40.0933449 L33.5,40.0933449 Z" id="矩形" fill="#60759C" fill-rule="nonzero" transform="translate(28.000000, 42.593345) scale(1, -1) translate(-28.000000, -42.593345) "></path>
    </g>
</svg>