<?xml version="1.0" encoding="UTF-8"?>
<svg width="72px" height="72px" viewBox="0 0 72 72" version="1.1" xmlns="http://www.w3.org/2000/svg" xmlns:xlink="http://www.w3.org/1999/xlink">
    <title>油品记录</title>
    <g id="油品记录" stroke="none" stroke-width="1" fill="none" fill-rule="evenodd">
        <path d="M30,7.5 C31.3807119,7.5 32.5,8.61928813 32.5,10 C32.5,11.3254834 31.4684641,12.4100387 30.1643757,12.4946823 L30,12.5 L17.7037037,12.5 C14.9034679,12.5 12.6198335,14.7118335 12.5045651,17.4837358 L12.5,17.7037037 L12.5,54.2962963 C12.5,57.0965321 14.7118335,59.3801665 17.4837358,59.4954349 L17.7037037,59.5 L54.2962963,59.5 C57.0965321,59.5 59.3801665,57.2881665 59.4954349,54.5162642 L59.5,54.2962963 L59.5,41.6045476 C59.5,40.2238358 60.6192881,39.1045476 62,39.1045476 C63.3254834,39.1045476 64.4100387,40.1360836 64.4946823,41.440172 L64.5,41.6045476 L64.5,54.2962963 C64.5,59.8377237 60.0826557,64.3474252 54.5771584,64.4962092 L54.2962963,64.5 L17.7037037,64.5 C12.1622763,64.5 7.65257485,60.0826557 7.50379075,54.5771584 L7.5,54.2962963 L7.5,17.7037037 C7.5,12.1622763 11.9173443,7.65257485 17.4228416,7.50379075 L17.7037037,7.5 L30,7.5 Z" id="路径" fill="#60759C" fill-rule="nonzero" transform="translate(36.000000, 36.000000) scale(1, -1) translate(-36.000000, -36.000000) "></path>
        <path d="M33.5,40.0933449 C34.8807119,40.0933449 36,41.212633 36,42.5933449 C36,43.9740567 34.8807119,45.0933449 33.5,45.0933449 L22.5,45.0933449 C21.1192881,45.0933449 20,43.9740567 20,42.5933449 C20,41.212633 21.1192881,40.0933449 22.5,40.0933449 L33.5,40.0933449 Z" id="矩形" fill="#60759C" fill-rule="nonzero" transform="translate(28.000000, 42.593345) scale(1, -1) translate(-28.000000, -42.593345) "></path>
        <path d="M49.5,25.0933449 C50.8807119,25.0933449 52,26.212633 52,27.5933449 C52,28.9740567 50.8807119,30.0933449 49.5,30.0933449 L22.5,30.0933449 C21.1192881,30.0933449 20,28.9740567 20,27.5933449 C20,26.212633 21.1192881,25.0933449 22.5,25.0933449 L49.5,25.0933449 Z" id="矩形备份" fill="#60759C" fill-rule="nonzero" transform="translate(36.000000, 27.593345) scale(1, -1) translate(-36.000000, -27.593345) "></path>
        <g id="油品管理" transform="translate(44.000000, 40.000000)" fill="#60759C" fill-rule="nonzero">
            <path d="M0.0294117513,15.2892157 C0.171195022,20.6920773 4.59184696,24.9982433 9.99656862,24.9982433 C15.4012903,24.9982433 19.8219422,20.6920773 19.9637255,15.2892157 C19.9637255,7.31568626 9.99607842,0.0931372396 9.99607842,0.0931372396 C9.99607842,0.0931372396 0.0284313802,7.31960781 0.0284313802,15.2892157 L0.0294117513,15.2892157 Z M3.01960785,14.7911765 C2.99165863,13.9332027 3.16209433,13.0803533 3.51764707,12.2990196 C5.79213372,11.7801514 8.17899757,12.330994 9.99607842,13.7941176 C12.0044606,15.2658576 14.6925723,15.412377 16.8490196,14.1676471 L16.8490196,14.7901961 C16.8204547,16.6090735 16.0681404,18.3415601 14.7585949,19.6041849 C13.4490495,20.8668098 11.6902777,21.5554378 9.87156862,21.5176471 C8.06577325,21.5510691 6.3223595,20.8570998 5.03350451,19.5918462 C3.74464953,18.3265926 3.01858135,16.5963007 3.01862744,14.7901961 L3.01960785,14.7911765 Z" id="形状"></path>
        </g>
    </g>
</svg>