<?xml version="1.0" encoding="UTF-8"?>
<svg width="72px" height="72px" viewBox="0 0 72 72" version="1.1" xmlns="http://www.w3.org/2000/svg" xmlns:xlink="http://www.w3.org/1999/xlink">
    <title>润滑记录备份</title>
    <g id="润滑记录备份" stroke="none" stroke-width="1" fill="none" fill-rule="evenodd">
        <g id="润滑系统" transform="translate(9.000000, 12.000000)" fill="#60759C" fill-rule="nonzero">
            <path d="M38.6147461,22.1616211 L40.3615723,18.4174805 L31.7856445,22.5043945 C30.5793457,23.0778809 29.1818848,22.3659668 28.8457031,21.0080566 L27.1582031,14.2053223 L14.8117676,14.2053223 L13.9943848,21.8847656 C15.5961914,21.2519531 17.5144043,20.9289551 19.7424316,20.9289551 C25.1872559,20.9289551 25.6223145,24.0864258 31.1923828,24.0864258 C34.0861816,24.0864258 36.5581055,23.4470215 38.6147461,22.1616211 L38.6147461,22.1616211 Z M10.8171387,11.4301758 C11.034668,10.4018555 11.8916016,9.65698242 12.9001465,9.65698242 L19.3007812,9.65698242 L19.3007812,4.54833984 L16.3608398,4.54833984 C15.1809082,4.54833984 14.2250977,3.52661133 14.2250977,2.27416992 C14.2250977,1.01513672 15.1809082,0 16.3608398,0 L26.5385742,0 C27.7185059,0 28.6743164,1.02172852 28.6743164,2.27416992 C28.6743164,3.53320312 27.7185059,4.54833984 26.5385742,4.54833984 L23.5722656,4.54833984 L23.5722656,9.65698242 L28.8061523,9.65698242 C29.7751465,9.65698242 30.6254883,10.3557129 30.8693848,11.3510742 L32.3327637,17.2573242 L47.8630371,9.85473633 C48.7661133,9.42626953 49.8273926,9.7097168 50.4338379,10.546875 L53.4199219,14.6865234 L50.0317383,17.4550781 L48.0739746,14.7392578 L46.4985352,15.4907227 L37.5534668,34.6794434 C37.190918,35.4506836 36.4526367,35.9450684 35.6418457,35.9450684 L10.5930176,35.9450684 C9.32080078,35.9450684 8.32543945,34.7651367 8.47045898,33.4138184 L9.63720703,22.4516602 L1.75341797,20.8234863 C0.580078125,20.5795898 -0.177978516,19.3666992 0.0725097656,18.1208496 L1.50952148,10.8500977 C1.77319336,9.52514648 3.05200195,8.73413086 4.26489258,9.15600586 L10.8171387,11.4301758 Z M9.75585937,17.8374023 L9.75585937,15.8466797 L5.20092773,14.2646484 L4.69995117,16.7958984 L9.75585937,17.8374023 Z M53.3408203,26.2880859 C53.677002,26.7692871 53.8747559,27.3625488 53.8747559,28.0085449 C53.8747559,29.8410645 52.2861328,31.2780762 50.4931641,30.8430176 C49.5043945,30.5991211 48.7001953,29.7421875 48.4760742,28.6875 C48.2849121,27.7712402 48.4958496,26.9143066 48.9572754,26.2683105 C49.5769043,25.3981934 50.4931641,20.2565855 51.1391602,20.2565855 C51.7851562,20.25 52.7211914,25.4047852 53.3408203,26.2880859 Z" id="形状"></path>
            <path d="M0.0197753906,43.1564941 C0.0197753906,43.1564941 2.7421875,41.4492188 4.6472168,41.4492188 C8.25292969,41.5612793 8.31884766,43.4992676 10.0129395,43.4992676 C11.7070313,43.4992676 12.3662109,41.4492188 15.6027832,41.4492188 C18.8393555,41.4492188 19.1293945,43.4992676 21.192627,43.4992676 C23.2558594,43.4992676 23.269043,41.4492188 26.4924316,41.4492188 C29.7224121,41.4492188 29.8674316,43.4992676 32.2866211,43.4992676 C34.7124023,43.4992676 33.4599609,41.4492188 37.3557129,41.4492188 C41.2514648,41.4492188 41.2514648,43.4992676 43.0905762,43.4992676 C44.9296875,43.4992676 45.2988281,41.4492188 48.2387695,41.4492188 C51.1787109,41.4492188 52.1345215,43.4992676 53.7495117,43.4992676 C53.8945312,44.5605469 53.8945312,45.628418 53.7495117,46.6831055 C52.279541,47.3093262 49.78125,44.8044434 48.6013184,44.8044434 C47.4279785,44.8044434 45.3647461,46.7819824 43.0114746,46.7819824 C40.6582031,46.7819824 38.8916016,44.3364258 37.5007324,44.3364258 C36.1032715,44.3364258 35.7341309,46.7819824 31.9899902,46.7819824 C28.2392578,46.7819824 28.9248047,44.8044434 26.4858398,44.8044434 C24.046875,44.8044434 24.7126465,46.7819824 21.2585449,46.7819824 C17.8044434,46.7819824 17.7319336,44.8044434 15.4511719,44.8044434 C13.1704102,44.8044434 13.532959,46.7819824 10.6721191,46.7819824 C7.8046875,46.7819824 6.70385742,44.8044434 4.56811523,44.8044434 C2.43896484,44.8044434 1.55566406,46.7819824 0.00659179687,46.7819824 C0.0988769531,45.8261719 0.0197753906,43.1564941 0.0197753906,43.1564941 Z" id="路径"></path>
        </g>
    </g>
</svg>