<?xml version="1.0" encoding="UTF-8"?>
<svg width="72px" height="72px" viewBox="0 0 72 72" version="1.1" xmlns="http://www.w3.org/2000/svg" xmlns:xlink="http://www.w3.org/1999/xlink">
    <title>工单</title>
    <g id="工单" stroke="none" stroke-width="1" fill="none" fill-rule="evenodd">
        <g id="编组" transform="translate(12.000000, 11.000000)" fill="#60759C" fill-rule="nonzero">
            <path d="M26.568119,-1.2027027 L4,-1.2027027 C0.410149126,-1.2027027 -2.5,1.70744642 -2.5,5.2972973 L-2.5,46.5945946 C-2.5,50.1844455 0.410149126,53.0945946 4,53.0945946 L41.4054054,53.0945946 C44.9952563,53.0945946 47.9054054,50.1844455 47.9054054,46.5945946 L47.9054054,17.1790403 C47.9054054,15.8352524 47.3048567,14.5617811 46.268022,13.7069478 L29.4307356,-0.174795185 C28.6247565,-0.839296206 27.6127069,-1.2027027 26.568119,-1.2027027 Z M26.388,3.797 L42.905,17.414 L42.9054054,46.5945946 C42.9054054,47.4230217 42.2338325,48.0945946 41.4054054,48.0945946 L4,48.0945946 C3.17157288,48.0945946 2.5,47.4230217 2.5,46.5945946 L2.5,5.2972973 C2.5,4.46887017 3.17157288,3.797 4,3.797 L26.388,3.797 Z" id="路径-5"></path>
            <path d="M29.7432432,0 L29.7432432,14.4594595 C29.7432432,15.7849429 30.7747792,16.8694981 32.0788676,16.9541418 L32.2432432,16.9594595 L48,16.9594595 L48,21.9594595 L32.2432432,21.9594595 C28.182326,21.9594595 24.8752257,18.731985 24.7470968,14.7021905 L24.7432432,14.4594595 L24.7432432,0 L29.7432432,0 Z" id="路径-6"></path>
        </g>
        <path d="M42.5,42 C43.8807119,42 45,43.1192881 45,44.5 C45,45.8807119 43.8807119,47 42.5,47 L25.5,47 C24.1192881,47 23,45.8807119 23,44.5 C23,43.1192881 24.1192881,42 25.5,42 L42.5,42 Z" id="矩形" fill="#60759C" fill-rule="nonzero"></path>
        <path d="M29.5,30 C30.8807119,30 32,31.1192881 32,32.5 C32,33.8807119 30.8807119,35 29.5,35 L25.5,35 C24.1192881,35 23,33.8807119 23,32.5 C23,31.1192881 24.1192881,30 25.5,30 L29.5,30 Z" id="矩形备份" fill="#60759C" fill-rule="nonzero"></path>
    </g>
</svg>