<?xml version="1.0" encoding="UTF-8"?>
<svg width="72px" height="72px" viewBox="0 0 72 72" version="1.1" xmlns="http://www.w3.org/2000/svg" xmlns:xlink="http://www.w3.org/1999/xlink">
    <title>维修计划管理</title>
    <g id="维修计划管理" stroke="none" stroke-width="1" fill="none" fill-rule="evenodd">
        <path d="M32.1510945,7.5 C33.5318063,7.5 34.6510945,8.61928813 34.6510945,10 C34.6510945,11.3254834 33.6195585,12.4100387 32.3154702,12.4946823 L32.1510945,12.5 L18.2592593,12.5 C15.7018326,12.5 13.6155415,14.5171714 13.5046371,17.0472632 L13.5,17.2592593 L13.5,51.7407407 C13.5,54.2981674 15.5171714,56.3844585 18.0472632,56.4953629 L18.2592593,56.5 L52.7407407,56.5 C55.2981674,56.5 57.3844585,54.4828286 57.4953629,51.9527368 L57.5,51.7407407 L57.5,43.4808652 C57.5,42.1001534 58.6192881,40.9808652 60,40.9808652 C61.3254834,40.9808652 62.4100387,42.0124012 62.4946823,43.3164895 L62.5,43.4808652 L62.5,51.7407407 C62.5,57.0392767 58.2774898,61.3515926 53.0139071,61.4962507 L52.7407407,61.5 L18.2592593,61.5 C12.9607233,61.5 8.64840738,57.2774898 8.50374931,52.0139071 L8.5,51.7407407 L8.5,17.2592593 C8.5,11.9607233 12.7225102,7.64840738 17.9860929,7.50374931 L18.2592593,7.5 L32.1510945,7.5 Z" id="路径" fill="#60759C" fill-rule="nonzero" transform="translate(35.500000, 34.500000) scale(1, -1) translate(-35.500000, -34.500000) "></path>
        <rect id="矩形" fill="#60759C" x="21" y="23" width="21" height="5" rx="2.5"></rect>
        <rect id="矩形备份" fill="#60759C" x="21" y="36" width="9" height="5" rx="2.5"></rect>
        <g id="维修" transform="translate(39.000000, 37.000000)" fill="#60759C" fill-rule="nonzero">
            <path d="M7.09230132,24.6445571 L6.64308257,24.6445571 C4.67960989,24.6445571 3.08205712,23.0470043 3.08205712,21.0835317 L3.08205712,12.1973303 C0.871662873,10.7306757 -0.312370654,8.09486238 0.104123551,5.41442467 C0.47004346,3.0404077 2.1062707,1.01148593 4.37616411,0.118998344 C4.75398386,-0.0297495861 5.1823779,0.0178497517 5.52152635,0.246921565 C5.8576935,0.475993377 6.05999069,0.856788079 6.05999069,1.26435741 L6.05999069,4.75398386 L7.68134313,4.75398386 L7.68134313,1.27328228 C7.68134313,0.865712955 7.88364031,0.484918253 8.21981064,0.25584644 C8.55598096,0.0267746275 8.984375,-0.0208247103 9.36219474,0.124948262 C12.0069329,1.16023386 13.7145592,3.65919909 13.7145592,6.49433464 C13.7145592,8.81480236 12.5573003,10.9359478 10.6503518,12.1973303 L10.6503518,21.0835317 C10.6533268,23.0470043 9.05577401,24.6445571 7.09230132,24.6445571 Z M3.59375,3.57887521 C3.0404077,4.19469164 2.66556291,4.959256 2.53763969,5.78926945 C2.24609375,7.67836817 3.18618067,9.53176738 4.87595716,10.3945054 C5.28650145,10.6057274 5.54532285,11.0281716 5.54532285,11.4922651 L5.54532285,21.0835317 C5.54532285,21.6874483 6.03619102,22.1783164 6.64010762,22.1783164 L7.08932637,22.1783164 C7.69324296,22.1783164 8.18708609,21.6874483 8.18708609,21.0835317 L8.18708609,11.4922651 C8.18708609,11.0311465 8.44590749,10.6057274 8.85645178,10.3945054 C10.3320313,9.63886589 11.2483185,8.14543667 11.2483185,6.49433464 C11.2483185,5.38765004 10.8407492,4.36128932 10.1386589,3.57887521 L10.1386589,5.98561672 C10.1386589,6.66688224 9.5882916,7.21724959 8.90702608,7.21724959 L4.82538286,7.21724959 C4.14411734,7.21724959 3.59375,6.66688224 3.59375,5.98561672 L3.59375,3.57887521 Z M19.2063328,24.6445571 L17.5016815,24.6445571 C15.4638349,24.6445571 13.8038079,22.9845302 13.8038079,20.9466836 L13.8038079,12.6941484 C13.8038079,12.0128829 14.3541753,11.4625155 15.0354408,11.4625155 L21.6725735,11.4625155 C22.353839,11.4625155 22.9042063,12.0128829 22.9042063,12.6941484 L22.9042063,20.9466836 C22.9042063,22.9845302 21.2441794,24.6445571 19.2063328,24.6445571 L19.2063328,24.6445571 Z M16.2670737,13.9257812 L16.2670737,20.9466836 C16.2670737,21.6279491 16.820416,22.1812914 17.5016815,22.1812914 L19.2063328,22.1812914 C19.8875983,22.1812914 20.4409406,21.6279491 20.4409406,20.9466836 L20.4409406,13.9257812 L16.2670737,13.9257812 L16.2670737,13.9257812 Z" id="形状"></path>
            <path d="M18.3525197,13.8603322 C17.6712541,13.8603322 17.1208868,13.3099648 17.1208868,12.6286993 L17.1208868,1.23758278 C17.1208868,0.55631726 17.6712541,0.00594991722 18.3525197,0.00594991722 C19.0337852,0.00594991722 19.5841645,0.55631726 19.5841645,1.23758278 L19.5841645,12.6286993 C19.5871275,13.3099648 19.0337852,13.8603322 18.3525197,13.8603322 Z" id="路径"></path>
        </g>
    </g>
</svg>