<?xml version="1.0" encoding="UTF-8"?>
<svg width="72px" height="72px" viewBox="0 0 72 72" version="1.1" xmlns="http://www.w3.org/2000/svg" xmlns:xlink="http://www.w3.org/1999/xlink">
    <title>易耗品领用</title>
    <g id="易耗品领用" stroke="none" stroke-width="1" fill="none" fill-rule="evenodd">
        <g id="编组" transform="translate(10.000000, 10.000000)" fill="#60759C" fill-rule="nonzero">
            <g id="编组-2">
                <path d="M49.7777212,52.0005092 C33.9259142,52.0005092 18.0741001,52.0005092 2.22227874,52.0005092 C1.60872975,52.0005092 1.05314695,51.7527284 0.650958396,51.3529778 C0.269945771,50.9742747 0.0266121354,50.4587377 0.0020535052,49.88701 L0,49.7912155 L0,14.6853372 C0.000947856166,14.3371789 0.085312703,13.9941299 0.244112598,13.6858656 L0.293976635,13.5944596 L7.4199807,1.11763004 C7.61782809,0.772093363 7.90137274,0.492706829 8.23545587,0.299691389 C8.54174658,0.122732933 8.89051922,0.0183742986 9.25467236,0.00221007107 L9.35434782,3.55271368e-15 L42.6465431,3.55271368e-15 C42.9131394,3.55271368e-15 46.0309584,4.89539978 52,14.6861993 C52,37.6829982 52,49.3846702 52,49.7912155 C52,50.4010335 51.7512216,50.9532357 51.3490416,51.3529778 C50.9468616,51.7527199 50.4493277,51.973549 49.8741017,51.9979589 M46.9210848,18.9140403 L5.08069712,18.9140403 L5.08069712,46.9501477 L46.9210848,46.9501477 L46.9210848,18.9140403 Z M23.9354197,5.05162358 L11.0165547,5.05162358 L5.97684679,13.8659591 L23.9354197,13.8659591 L23.9354197,5.05162358 Z M40.9834453,5.05162358 L29.0161168,5.05162358 L29.0161168,13.8659591 L46.0231532,13.8659591 L40.9834453,5.05162358 Z" id="形状"></path>
            </g>
        </g>
        <path d="M47,42.5369486 C47,43.2389897 46.6862024,43.8752683 46.1917969,44.3111605 L38.1247583,51.460687 C37.694507,51.8373585 37.1251387,52.0666667 36.5041681,52.0666667 C35.1639038,52.0666667 34.0785128,51.0020707 34.0785128,49.6861308 C34.0785128,48.9761706 34.3923104,48.3478111 34.8867159,47.9119189 L38.2670132,44.9178287 L27.4183334,44.9178287 C26.082253,44.9178287 25,43.8532327 25,42.5297181 C25,41.2137783 26.082253,40.1491823 27.4183334,40.1491823 L38.2670132,40.1491823 L34.8867159,37.1547478 C34.3923104,36.7185113 34.0785128,36.0863644 34.0785128,35.3808801 C34.0785128,34.064596 35.1639038,33 36.5041681,33 C37.1251387,33 37.694507,33.2293082 38.1247583,33.6135544 L46.1917969,40.7627366 C46.6858538,41.1986288 47,41.8345631 47,42.5369486" id="路径" fill="#60759C" transform="translate(36.000000, 42.533333) rotate(-270.000000) translate(-36.000000, -42.533333) "></path>
    </g>
</svg>