<?xml version="1.0" encoding="UTF-8"?>
<svg width="72px" height="72px" viewBox="0 0 72 72" version="1.1" xmlns="http://www.w3.org/2000/svg" xmlns:xlink="http://www.w3.org/1999/xlink">
    <title>易耗品新增</title>
    <g id="易耗品新增" stroke="none" stroke-width="1" fill="none" fill-rule="evenodd">
        <g id="编组" transform="translate(10.000000, 10.000000)" fill="#60759C" fill-rule="nonzero">
            <g id="编组-2">
                <path d="M49.7777212,52.0005092 C33.9259142,52.0005092 18.0741001,52.0005092 2.22227874,52.0005092 C1.60872975,52.0005092 1.05314695,51.7527284 0.650958396,51.3529778 C0.269945771,50.9742747 0.0266121354,50.4587377 0.0020535052,49.88701 L0,49.7912155 L0,14.6853372 C0.000947856166,14.3371789 0.085312703,13.9941299 0.244112598,13.6858656 L0.293976635,13.5944596 L7.4199807,1.11763004 C7.61782809,0.772093363 7.90137274,0.492706829 8.23545587,0.299691389 C8.54174658,0.122732933 8.89051922,0.0183742986 9.25467236,0.00221007107 L9.35434782,3.55271368e-15 L42.6465431,3.55271368e-15 C42.9131394,3.55271368e-15 46.0309584,4.89539978 52,14.6861993 C52,37.6829982 52,49.3846702 52,49.7912155 C52,50.4010335 51.7512216,50.9532357 51.3490416,51.3529778 C50.9468616,51.7527199 50.4493277,51.973549 49.8741017,51.9979589 M46.9210848,18.9140403 L5.08069712,18.9140403 L5.08069712,46.9501477 L46.9210848,46.9501477 L46.9210848,18.9140403 Z M23.9354197,5.05162358 L11.0165547,5.05162358 L5.97684679,13.8659591 L23.9354197,13.8659591 L23.9354197,5.05162358 Z M40.9834453,5.05162358 L29.0161168,5.05162358 L29.0161168,13.8659591 L46.0231532,13.8659591 L40.9834453,5.05162358 Z" id="形状"></path>
            </g>
        </g>
        <path d="M36,32 C37.2150264,32 38.2,32.9849736 38.2,34.2 L38.2,40.8 L44.8,40.8 C46.0150264,40.8 47,41.7849736 47,43 C47,44.2150264 46.0150264,45.2 44.8,45.2 L38.2,45.2 L38.2,51.8 C38.2,53.0150264 37.2150264,54 36,54 C34.7849736,54 33.8,53.0150264 33.8,51.8 L33.8,45.2 L27.2,45.2 C25.9849736,45.2 25,44.2150264 25,43 C25,41.7849736 25.9849736,40.8 27.2,40.8 L33.799,40.8 L33.8,34.2 C33.8,32.9849736 34.7849736,32 36,32 Z" id="形状结合" fill="#60759C" fill-rule="nonzero"></path>
    </g>
</svg>