<?xml version="1.0" encoding="UTF-8"?>
<svg width="72px" height="72px" viewBox="0 0 72 72" version="1.1" xmlns="http://www.w3.org/2000/svg" xmlns:xlink="http://www.w3.org/1999/xlink">
    <title>其他业务</title>
    <g id="其他业务" stroke="none" stroke-width="1" fill="none" fill-rule="evenodd">
        <g id="编组-2" transform="translate(7.000000, 9.000000)" fill="#60759C" fill-rule="nonzero">
            <path d="M37.2986002,0.245762712 C38.6793121,0.245762712 39.7986002,1.36505084 39.7986002,2.74576271 C39.7986002,4.07124611 38.7670643,5.15580138 37.4629759,5.24044503 L37.2986002,5.24576271 L10.31199,5.24576271 C7.72622801,5.24576271 5.61682168,7.28528358 5.50468851,9.84340778 L5.5,10.0577527 L5.5,44.789705 C5.5,47.3754669 7.53952087,49.4848732 10.0976451,49.5970064 L10.31199,49.6016949 L45.0439422,49.6016949 C47.6297042,49.6016949 49.7391105,47.562174 49.8512437,45.0040498 L49.8559322,44.789705 L49.8559322,19.8079505 C49.8559322,18.4272386 50.9752203,17.3079505 52.3559322,17.3079505 C53.6814156,17.3079505 54.7659709,18.3394864 54.8506145,19.6435748 L54.8559322,19.8079505 L54.8559322,44.789705 C54.8559322,50.1168697 50.6106072,54.4524857 45.3185846,54.5979253 L45.0439422,54.6016949 L10.31199,54.6016949 C4.98482521,54.6016949 0.649209246,50.3563699 0.503769568,45.0643473 L0.5,44.789705 L0.5,10.0577527 C0.5,4.73058792 4.74532503,0.394971958 10.0373476,0.24953228 L10.31199,0.245762712 L37.2986002,0.245762712 Z" id="路径"></path>
            <path d="M25.3050847,18.7927574 C26.6155909,18.7927574 27.6779661,19.8551326 27.6779661,21.1656388 C27.6779661,22.4761449 26.6155909,23.5385201 25.3050847,23.5385201 L14.8644068,23.5385201 C13.5539006,23.5385201 12.4915254,22.4761449 12.4915254,21.1656388 C12.4915254,19.8551326 13.5539006,18.7927574 14.8644068,18.7927574 L25.3050847,18.7927574 Z" id="矩形"></path>
            <path d="M40.4915254,33.0300455 C41.8020316,33.0300455 42.8644068,34.0924207 42.8644068,35.4029269 C42.8644068,36.7134331 41.8020316,37.7758083 40.4915254,37.7758083 L14.8644068,37.7758083 C13.5539006,37.7758083 12.4915254,36.7134331 12.4915254,35.4029269 C12.4915254,34.0924207 13.5539006,33.0300455 14.8644068,33.0300455 L40.4915254,33.0300455 Z" id="矩形备份"></path>
            <path d="M54.1149883,10.6824946 C55.4254945,10.6824946 56.4878696,11.7448698 56.4878696,13.055376 C56.4878696,14.3658822 55.4254945,15.4282573 54.1149883,15.4282573 L34.860751,15.4282573 C33.5502448,15.4282573 32.4878696,14.3658822 32.4878696,13.055376 C32.4878696,11.7448698 33.5502448,10.6824946 34.860751,10.6824946 L54.1149883,10.6824946 Z" id="矩形备份-2" transform="translate(44.487870, 13.055376) scale(-1, 1) rotate(47.000000) translate(-44.487870, -13.055376) "></path>
        </g>
    </g>
</svg>