<?xml version="1.0" encoding="UTF-8"?>
<svg width="72px" height="72px" viewBox="0 0 72 72" version="1.1" xmlns="http://www.w3.org/2000/svg" xmlns:xlink="http://www.w3.org/1999/xlink">
    <title>易耗品借用</title>
    <g id="易耗品借用" stroke="none" stroke-width="1" fill="none" fill-rule="evenodd">
        <g id="融资" transform="translate(35.000000, 54.500000) scale(-1, 1) translate(-35.000000, -54.500000) translate(6.000000, 41.000000)" fill="#60759C" fill-rule="nonzero">
            <path d="M10.3819193,1.57290923 C9.68647484,1.75273434 8.91882428,1.98653191 8.08423546,2.26772927 L7.66138725,2.4122475 C7.23613811,2.55957103 6.7980219,2.7171864 6.34934657,2.8837219 C5.42311849,3.2275114 4.49309168,3.59362725 3.60082848,3.95966294 L2.41594163,4.45637335 L0.0809774275,5.46745447 L0.00317955836,8.19834362 L-5.73452799e-05,8.77962569 C0.00184646409,9.29531163 0.0159649046,9.88654144 0.0476346642,10.533315 C0.113807139,11.8847178 0.245798515,13.2243796 0.463345594,14.5062863 C1.18175914,18.7395729 2.59186622,21.7751798 5.77085964,23.0717 C6.48299348,23.37002 7.04544162,23.4719884 8.32499813,23.5781339 L10.7608902,23.7551317 C11.2783443,23.7934121 11.7252426,23.8304414 12.1416156,23.8706099 L12.4487972,23.9013934 C13.3029417,23.990302 14.0180171,24.0944408 14.6006616,24.2179986 L17.6776271,24.8461927 L22.5924292,25.8098535 C23.1091444,25.9134402 23.5927653,26.0121886 24.1053399,26.1187416 L26.1280031,26.5723625 C26.9825297,26.7592924 27.6406424,26.8746441 28.3324083,26.9418065 C29.788136,27.0831406 31.1820397,26.9702168 32.7372103,26.56496 C35.427963,25.8686271 40.9604769,22.8291315 43.3488443,21.1134673 L44.4932979,20.2664799 C45.712406,19.3556511 47.2976828,18.1497804 48.7745707,17.0001413 L49.7043981,16.2722903 C53.820788,13.0303345 55.6871258,11.4116066 56.4282894,9.98317326 C57.8525561,7.08767359 56.5617261,4.44452499 54.2651962,2.88747514 C52.7820229,1.88188198 50.8425923,1.31396745 49.0276101,1.37847445 C47.2333146,1.42992969 44.5583668,2.1396181 40.813049,3.3924985 L39.7117028,3.76669383 L39.1460728,3.96301172 C37.9226725,4.39043033 36.6766639,4.84312716 35.3960806,5.32127517 L33.0195544,6.22069577 L31.539,6.783 L30.9891106,6.7087104 L30.1045739,6.59938147 C29.8584395,6.56816813 29.6586839,6.54059288 29.4756435,6.51208812 C29.1386354,6.45960608 28.872401,6.4056478 28.6681462,6.34932297 C27.1534488,5.93884648 26.0485699,5.40249853 24.5833756,4.16880985 L24.2853044,3.91260491 C21.004666,1.01302374 15.3791789,0.383886406 10.7288163,1.48694071 L10.3819193,1.57290923 Z M11.3832877,5.44553902 C14.3256936,4.68470409 19.1713657,4.73109646 21.6488934,6.92081651 C24.1209518,9.08734037 26.0296873,9.77858674 27.6048042,10.2053966 C29.1525753,10.6322064 31.0886565,10.6322064 31.914499,10.9662315 C32.7403416,11.3048958 34.6764228,14.2508116 31.4496208,15.1693806 C28.2228188,16.0833103 22.9888366,14.9884503 21.3371515,14.6544252 C19.6854664,14.3157609 18.3181774,13.8240017 18.0337813,13.7358562 L17.9842623,13.7311425 C17.6763102,13.7381122 17.1876247,14.376568 22.2395622,16.5982657 C26.1390704,18.0271508 31.0613107,17.3776576 32.6364276,16.7977529 C34.4412491,16.1297027 35.6280559,15.0116465 35.7811923,13.6245145 C36.016366,11.4997438 35.1631777,10.9430353 34.4412491,9.959517 L36.9470686,9.01195883 C40.6382781,7.63670607 46.8195781,5.44346617 49.169686,5.37595046 C51.1276438,5.3063619 53.5778257,6.71669006 52.8777737,8.14093594 C52.1339685,9.57446029 42.5137232,16.7699175 41.0151745,17.8647775 L40.766479,18.0370306 C39.182976,19.104306 34.1624784,22.0643477 31.7285477,22.6942236 C29.1471061,23.366913 27.7579405,22.8055653 24.9194486,22.2024645 L23.2370202,21.8596094 C21.2595903,21.4641845 19.5110111,21.1384568 17.3274943,20.6964148 L15.4304631,20.3050164 C12.3896124,19.6601624 8.13460904,19.7251117 7.28142071,19.3678904 C3.7210002,17.9158091 4.0053963,8.12701823 4.0053963,8.12701823 L4.67970998,7.84195635 C6.03289054,7.27817455 9.1414546,6.02522278 11.3832877,5.44553902 Z" id="形状"></path>
        </g>
        <g id="编组" transform="translate(13.000000, 8.000000)" fill="#60759C" fill-rule="nonzero">
            <path d="M26.7257983,0.662162162 C27.5962882,0.662162162 28.4441821,0.914527785 29.1690562,1.38319886 L29.298,1.473 L44.3117128,8.82890445 L44.5382923,9.01571114 C45.5103248,9.81711731 46.0989028,10.9864671 46.1686781,12.2367525 L46.1756757,12.4878036 L46.1756757,37 C46.1756757,38.3807119 45.0563876,39.5 43.6756757,39.5 C42.3501923,39.5 41.265637,38.4684641 41.1809934,37.1643757 L41.1756757,37 L41.175,12.86 L26.6343093,5.7347569 L26.547,5.662 L7,5.66216216 C6.22030388,5.66216216 5.57955132,6.25705025 5.50686658,7.01770215 L5.5,7.16216216 L5.5,34.2753718 C5.5,35.6560837 4.38071187,36.7753718 3,36.7753718 C1.6745166,36.7753718 0.589961328,35.7438359 0.50531768,34.4397475 L0.5,34.2753718 L0.5,7.16216216 C0.5,3.65035152 3.28499621,0.789011605 6.76686587,0.666265168 L7,0.662162162 L26.7257983,0.662162162 Z" id="路径"></path>
            <path d="M29.9054054,2 L29.9054054,9 C29.9054054,10.3254834 30.9369413,11.4100387 32.2410297,11.4946823 L32.4054054,11.5 L46,11.5 L46,16.5 L32.4054054,16.5 C28.3444881,16.5 25.0373879,13.2725256 24.909259,9.24273106 L24.9054054,9 L24.9054054,2 L29.9054054,2 Z" id="路径-6"></path>
        </g>
        <path d="M46,32.5369486 C46,33.2389897 45.6862024,33.8752683 45.1917969,34.3111605 L37.1247583,41.460687 C36.694507,41.8373585 36.1251387,42.0666667 35.5041681,42.0666667 C34.1639038,42.0666667 33.0785128,41.0020707 33.0785128,39.6861308 C33.0785128,38.9761706 33.3923104,38.3478111 33.8867159,37.9119189 L37.2670132,34.9178287 L26.4183334,34.9178287 C25.082253,34.9178287 24,33.8532327 24,32.5297181 C24,31.2137783 25.082253,30.1491823 26.4183334,30.1491823 L37.2670132,30.1491823 L33.8867159,27.1547478 C33.3923104,26.7185113 33.0785128,26.0863644 33.0785128,25.3808801 C33.0785128,24.064596 34.1639038,23 35.5041681,23 C36.1251387,23 36.694507,23.2293082 37.1247583,23.6135544 L45.1917969,30.7627366 C45.6858538,31.1986288 46,31.8345631 46,32.5369486" id="路径" fill="#60759C"></path>
    </g>
</svg>