<?xml version="1.0" encoding="UTF-8"?>
<svg width="72px" height="72px" viewBox="0 0 72 72" version="1.1" xmlns="http://www.w3.org/2000/svg" xmlns:xlink="http://www.w3.org/1999/xlink">
    <title>租金结算</title>
    <g id="租金结算" stroke="none" stroke-width="1" fill="none" fill-rule="evenodd">
        <g id="编组-2" transform="translate(-3.000000, -3.000000)" fill="#60759C" fill-rule="nonzero">
            <g id="编组">
                <path d="M12.1267606,36.5 C13.5074724,36.5 14.6267606,37.6192881 14.6267606,39 C14.6267606,52.4609684 25.5390316,63.3732394 39,63.3732394 C45.4718999,63.3732394 51.5379949,60.8428691 56.066364,56.4009887 C57.0520422,55.4341362 58.6348811,55.4493975 59.6017335,56.4350757 C60.568586,57.4207539 60.5533247,59.0035928 59.5676465,59.9704453 C54.1137159,65.3202097 46.7946416,68.3732394 39,68.3732394 C22.7776078,68.3732394 9.62676056,55.2223922 9.62676056,39 C9.62676056,37.6192881 10.7460487,36.5 12.1267606,36.5 Z M39,9.62676056 C55.2223922,9.62676056 68.3732394,22.7776078 68.3732394,39 C68.3732394,41.8020798 68.1086781,44.0784066 67.4618963,46.4547258 C67.0992882,47.7869722 65.7253371,48.5730194 64.3930906,48.2104113 C63.0608442,47.8478031 62.274797,46.473852 62.6374051,45.1416056 C63.1592549,43.2242948 63.3732394,41.3831387 63.3732394,39 C63.3732394,25.5390316 52.4609684,14.6267606 39,14.6267606 C30.4072283,14.6267606 22.5903172,19.1071511 18.1889829,26.305725 C17.4687479,27.4837007 15.9299441,27.8547729 14.7519684,27.1345379 C13.5739926,26.4143029 13.2029205,24.875499 13.9231555,23.6975233 C19.2237243,15.0282121 28.6476052,9.62676056 39,9.62676056 Z" id="形状" transform="translate(39.000000, 39.000000) rotate(-23.000000) translate(-39.000000, -39.000000) "></path>
                <path d="M27.9146686,45.4752964 C28.7097109,45.4752964 29.6514574,45.4090429 30.7399081,45.2765358 C31.8283588,45.1440288 32.9310067,44.9736626 34.0478517,44.7654372 C35.1836264,44.5761414 35.7231193,43.9893245 35.6663306,43.0049865 C35.5906123,42.3424513 35.3776546,41.9260006 35.0274574,41.7556344 C34.6772602,41.5852682 34.2466123,41.5379443 33.7355137,41.6136626 C33.2244151,41.6893809 32.7038517,41.7698316 32.1738236,41.8550147 C31.6437954,41.9401978 31.1894855,42.0017189 30.810894,42.0395781 C30.2997954,42.0963668 30.2524715,41.8313527 30.6689222,41.2445358 C31.1610912,40.5062823 31.6012039,39.8437471 31.9892602,39.2569302 C32.3773165,38.6701133 32.7559081,38.0880288 33.1250348,37.5106767 C33.4941616,36.9333245 33.8632884,36.3417752 34.2324151,35.7360288 C34.6015419,35.1302823 35.0132602,34.4488175 35.4675701,33.6916344 C35.8650912,33.0290992 36.0449222,32.4470147 36.007063,31.9453809 C35.9692039,31.4437471 35.7515137,31.0888175 35.3539926,30.8805921 C34.9186123,30.6534372 34.4879644,30.6013809 34.0620489,30.7244231 C33.6361334,30.8474654 33.2149503,31.2875781 32.7984996,32.0447612 C32.5902743,32.4233527 32.3915137,32.7830147 32.2022179,33.1237471 C32.0129222,33.4644795 31.8141616,33.8052119 31.6059362,34.1459443 L31.6059362,34.1459443 L30.2997954,34.202733 C29.9779926,34.2216626 29.7886968,34.1648738 29.7319081,34.0323668 C29.6751193,33.8998598 29.7886968,33.6159161 30.0726405,33.1805358 C30.4323024,32.6505076 30.7493729,32.1678034 31.0238517,31.7324231 C31.2983306,31.2970429 31.5491475,30.8900569 31.7763024,30.5114654 C32.0034574,30.1328738 32.2211475,29.7495499 32.4293729,29.3614936 C32.6375982,28.9734372 32.8552884,28.5522541 33.0824433,28.0979443 C33.4231757,27.4354091 33.5272884,26.8911837 33.3947813,26.4652682 C33.2622743,26.0393527 32.9499362,25.7222823 32.4577672,25.5140569 C31.9088095,25.2679724 31.4450348,25.2443105 31.0664433,25.443071 C30.6878517,25.6418316 30.3376546,26.0819443 30.0158517,26.7634091 C29.7697672,27.2745076 29.5236827,27.7714091 29.2775982,28.2541133 C29.0315137,28.7368175 28.7475701,29.2621133 28.4257672,29.8300006 C28.1039644,30.3978879 27.7253729,31.046226 27.2899926,31.7750147 C26.8546123,32.5038034 26.3245841,33.3792964 25.6999081,34.4014936 C25.4727532,34.7800851 25.3449785,35.1681414 25.3165841,35.5656626 C25.2881898,35.9631837 25.3497109,36.3181133 25.5011475,36.6304513 C25.6525841,36.9427893 25.8892039,37.1936062 26.2110067,37.382902 C26.5328095,37.5721978 26.9397954,37.6479161 27.4319644,37.6100569 L27.4319644,37.6100569 L29.4763588,37.4964795 C29.0409785,38.102226 28.5630067,38.7647612 28.0424433,39.4840851 C27.5218799,40.2034091 26.9397954,40.9984513 26.2961898,41.8692119 C26.0122461,42.2478034 25.8418799,42.6500569 25.7850912,43.0759724 C25.7283024,43.5018879 25.7756264,43.8899443 25.927063,44.2401414 C26.0784996,44.5903386 26.3245841,44.8837471 26.6653165,45.1203668 C27.0060489,45.3569865 27.4224996,45.4752964 27.9146686,45.4752964 Z M49.8635137,38.5186767 C51.0750067,38.5186767 51.6807532,38.0075781 51.6807532,36.9853809 C51.6807532,35.8874654 51.0750067,35.3385076 49.8635137,35.3385076 L49.8635137,35.3385076 L45.6327532,35.3385076 L45.6327532,32.4138879 L50.9141053,32.4138879 C52.0877391,32.4138879 52.674556,31.8838598 52.674556,30.8238034 C52.674556,29.7069583 52.0877391,29.1485358 50.9141053,29.1485358 L50.9141053,29.1485358 L45.6327532,29.1485358 L45.6327532,26.9621696 C45.6327532,26.318564 45.4860489,25.8831837 45.1926405,25.6560288 C44.899232,25.4288738 44.5159081,25.3152964 44.0426686,25.3152964 C43.5315701,25.3152964 43.1293165,25.4288738 42.8359081,25.6560288 C42.5424996,25.8831837 42.3957954,26.318564 42.3957954,26.9621696 L42.3957954,26.9621696 L42.3957954,29.1485358 L37.8243024,29.1485358 C36.5938799,29.1485358 35.9786686,29.7069583 35.9786686,30.8238034 C35.9786686,31.8838598 36.5938799,32.4138879 37.8243024,32.4138879 L37.8243024,32.4138879 L42.3957954,32.4138879 L42.3957954,35.3385076 L38.4489785,35.3385076 C37.8243024,35.3385076 37.351063,35.4662823 37.0292602,35.7218316 C36.7074574,35.9773809 36.546556,36.3890992 36.546556,36.9569865 C36.546556,37.9981133 37.1806968,38.5186767 38.4489785,38.5186767 L38.4489785,38.5186767 L49.8635137,38.5186767 Z M48.0746686,51.9776062 C49.1725841,51.9776062 49.9344996,51.7457189 50.3604151,51.2819443 C50.7863306,50.8181696 50.9992884,50.018395 50.9992884,48.8826203 L50.9992884,48.8826203 L50.9992884,43.5160851 C50.9992884,42.4181696 50.791063,41.618395 50.3746123,41.1167612 C49.9581616,40.6151274 49.1915137,40.3643105 48.0746686,40.3643105 L48.0746686,40.3643105 L39.9538799,40.3643105 C38.8370348,40.3643105 38.0751193,40.6151274 37.6681334,41.1167612 C37.2611475,41.618395 37.0576546,42.4181696 37.0576546,43.5160851 L37.0576546,43.5160851 L37.0576546,48.8826203 C37.0576546,49.4694372 37.1049785,49.9616062 37.1996264,50.3591274 C37.2942743,50.7566485 37.4551757,51.0737189 37.6823306,51.3103386 C37.9094855,51.5469583 38.2076264,51.7173245 38.5767532,51.8214372 C38.9458799,51.9255499 39.4049222,51.9776062 39.9538799,51.9776062 L39.9538799,51.9776062 L48.0746686,51.9776062 Z M47.1092602,48.8258316 L40.890894,48.8258316 C40.5880208,48.8258316 40.3892602,48.7785076 40.2946123,48.6838598 C40.1999644,48.5892119 40.1526405,48.3904513 40.1526405,48.0875781 L40.1526405,48.0875781 L40.1526405,44.3395217 C40.1526405,44.1123668 40.195232,43.9372682 40.2804151,43.814226 C40.3655982,43.6911837 40.5690912,43.6296626 40.890894,43.6296626 L40.890894,43.6296626 L47.1092602,43.6296626 C47.4121334,43.6296626 47.6203588,43.6817189 47.7339362,43.7858316 C47.8475137,43.8899443 47.9043024,44.0745076 47.9043024,44.3395217 L47.9043024,44.3395217 L47.9043024,48.0875781 C47.9043024,48.3336626 47.8522461,48.518226 47.7481334,48.6412682 C47.6440208,48.7643105 47.431063,48.8258316 47.1092602,48.8258316 L47.1092602,48.8258316 Z M26.0264433,51.651071 C26.3766405,51.8119724 26.8924715,51.8167048 27.5739362,51.6652682 C28.7475701,51.4381133 29.9448658,51.1305076 31.1658236,50.7424513 C32.3867813,50.354395 33.6219362,49.8858879 34.8712884,49.3369302 C35.4770348,49.0719161 35.8650912,48.7879724 36.0354574,48.4850992 C36.2058236,48.182226 36.2058236,47.7468457 36.0354574,47.1789583 C35.6757954,46.0810429 34.8334292,45.8254936 33.5083588,46.4123105 C32.959401,46.6394654 32.4293729,46.8524231 31.9182743,47.0511837 C31.4071757,47.2499443 30.8866123,47.4345076 30.3565841,47.6048738 C29.826556,47.77524 29.2775982,47.9361414 28.7097109,48.0875781 C28.1418236,48.2390147 27.5171475,48.3904513 26.8356827,48.5418879 C26.1731475,48.6933245 25.7377672,48.9346767 25.5295419,49.2659443 C25.3213165,49.5972119 25.2645278,50.0373245 25.3591757,50.5862823 C25.4538236,51.13524 25.6762461,51.4901696 26.0264433,51.651071 Z" id="结"></path>
            </g>
        </g>
    </g>
</svg>