<?xml version="1.0" encoding="UTF-8"?>
<svg width="72px" height="72px" viewBox="0 0 72 72" version="1.1" xmlns="http://www.w3.org/2000/svg" xmlns:xlink="http://www.w3.org/1999/xlink">
    <title>日常业务</title>
    <g id="日常业务" stroke="none" stroke-width="1" fill="none" fill-rule="evenodd">
        <g id="编组" transform="translate(23.000000, 28.000000)" fill="#60759C">
            <rect id="矩形" x="0" y="0.925925926" width="17" height="4.81481481" rx="2.40740741"></rect>
            <path d="M23.5925926,14.3333333 C24.922167,14.3333333 26,15.4111663 26,16.7407407 C26,18.0703151 24.922167,19.1481481 23.5925926,19.1481481 L2.40740741,19.1481481 C1.07783301,19.1481481 0,18.0703151 0,16.7407407 C0,15.4111663 1.07783301,14.3333333 2.40740741,14.3333333 L23.5925926,14.3333333 Z" id="矩形备份" fill-rule="nonzero"></path>
        </g>
        <path d="M44.32,9 C46.6789352,9 48.7321486,10.3089504 49.7929382,12.2401493 L54,12.24 C58.418278,12.24 62,15.821722 62,20.24 L62,56.24 C62,60.658278 58.418278,64.24 54,64.24 L18,64.24 C13.581722,64.24 10,60.658278 10,56.24 L10,20.24 C10,15.821722 13.581722,12.24 18,12.24 L23.2470618,12.2401493 C24.3078514,10.3089504 26.3610648,9 28.72,9 L44.32,9 Z M44.32,14 L28.72,14 C28.3060257,14 27.9311777,14.2015505 27.7007639,14.5323879 L27.6294532,14.6473563 L26.2052098,17.2402335 L18,17.24 C16.4023191,17.24 15.0963391,18.48892 15.0050927,20.0637272 L15,20.24 L15,56.24 C15,57.8376809 16.24892,59.1436609 17.8237272,59.2349073 L18,59.24 L54,59.24 C55.5976809,59.24 56.9036609,57.99108 56.9949073,56.4162728 L57,56.24 L57,20.24 C57,18.6423191 55.75108,17.3363391 54.1764319,17.2450927 L54.0001775,17.24 L46.8348017,17.2402543 L45.4105468,14.6473563 C45.2135296,14.2886806 44.8603773,14.0512626 44.4563979,14.0073657 L44.32,14 Z" id="形状结合" fill="#60759C" fill-rule="nonzero"></path>
    </g>
</svg>