<?xml version="1.0" encoding="UTF-8"?>
<svg width="72px" height="72px" viewBox="0 0 72 72" version="1.1" xmlns="http://www.w3.org/2000/svg" xmlns:xlink="http://www.w3.org/1999/xlink">
    <title>业务查询</title>
    <g id="业务查询" stroke="none" stroke-width="1" fill="none" fill-rule="evenodd">
        <g id="编组-3" transform="translate(39.500000, 33.000000) scale(-1, -1) translate(-39.500000, -33.000000) translate(13.000000, 4.000000)" fill="#60759C">
            <g id="编组" transform="translate(9.000000, 0.000000)" fill-rule="nonzero">
                <path d="M31.5732775,-1.20497785 C32.3119724,-1.20497785 33.0389114,-1.0262434 33.689978,-0.685101584 L33.9304463,-0.549592444 L34.0547463,-0.474454892 L44.029,7.263 L44.0656262,7.28628453 C45.2119776,8.06214728 45.9345371,9.32168164 46.0074205,10.6999158 L46.0135135,10.930658 L46.0135135,46.6568073 C46.0135135,50.1085625 43.2083648,52.8828948 39.7453334,53.0018866 L39.5135135,53.0058639 L24.9500072,53.0058639 C23.5692953,53.0058639 22.4500072,51.8865758 22.4500072,50.5058639 C22.4500072,49.1803805 23.4815431,48.0958252 24.7856315,48.0111816 L24.9500072,48.0058639 L39.5135135,48.0058639 C40.3130291,48.0058639 40.9362939,47.4513741 41.0068527,46.7832955 L41.0135135,46.6568073 L41.013,11.251 L31.401,3.795 L4,3.79502215 C3.20048446,3.79502215 2.57721963,4.34951196 2.50666084,5.01759054 L2.5,5.14407875 L2.5,25.0188679 C2.5,26.3995798 1.38071187,27.5188679 0,27.5188679 C-1.3254834,27.5188679 -2.41003867,26.487332 -2.49468232,25.1832436 L-2.5,25.0188679 L-2.5,5.14407875 C-2.5,1.69232349 0.305148727,-1.08200872 3.76818016,-1.2010006 L4,-1.20497785 L31.5732775,-1.20497785 Z" id="路径"></path>
                <path d="M31.6081081,0 L31.6081081,6.54716981 C31.6081081,7.87265321 32.639644,8.95720848 33.9437324,9.04185213 L34.1081081,9.04716981 L43.1081081,9.04716981 L43.1081081,14.0471698 L34.1081081,14.0471698 C30.0471908,14.0471698 26.7400906,10.8196954 26.6119617,6.78990087 L26.6081081,6.54716981 L26.6081081,0 L31.6081081,0 Z" id="路径-6"></path>
            </g>
            <path d="M40.5,33 C41.8807119,33 43,34.1192881 43,35.5 C43,36.8807119 41.8807119,38 40.5,38 L36.3,38 C34.9192881,38 33.8,36.8807119 33.8,35.5 C33.8,34.1192881 34.9192881,33 36.3,33 L40.5,33 Z" id="矩形备份" fill-rule="nonzero"></path>
            <path d="M40.5,21 C41.8807119,21 43,22.1192881 43,23.5 C43,24.8807119 41.8807119,26 40.5,26 L23.5,26 C22.1192881,26 21,24.8807119 21,23.5 C21,22.1192881 22.1192881,21 23.5,21 L40.5,21 Z" id="矩形备份" fill-rule="nonzero"></path>
            <g id="编组-2" transform="translate(14.500000, 41.353073) scale(-1, -1) translate(-14.500000, -41.353073) translate(-0.000000, 24.853073)">
                <g id="编组" transform="translate(14.630644, 16.967551) rotate(-17.000000) translate(-14.630644, -16.967551) translate(4.130644, 3.467551)">
                    <path d="M15.7023468,15.431982 C16.8376794,15.4425012 17.7555047,16.3602269 17.7661471,17.4955583 L17.8314347,24.4604713 C17.8418243,25.5688373 16.9517386,26.4757679 15.8433727,26.4861575 C15.8309042,26.4862743 15.8184349,26.486275 15.8059664,26.4861595 C14.6706339,26.4756404 13.7528085,25.5579146 13.7421662,24.4225832 L13.6768785,17.4576702 C13.6664889,16.3493042 14.5565746,15.4423737 15.6649406,15.4319841 C15.677409,15.4318672 15.6898783,15.4318665 15.7023468,15.431982 Z" id="矩形" transform="translate(15.754157, 20.959071) rotate(-29.000000) translate(-15.754157, -20.959071) "></path>
                    <path d="M8.92384532,-1.42782903 C3.1727737,-1.42782903 -1.50698881,3.15019952 -1.50698881,8.8197261 C-1.50698881,14.4892527 3.1727737,19.0672812 8.92384532,19.0672812 C14.6749169,19.0672812 19.3546794,14.4892527 19.3546794,8.8197261 C19.3546794,3.15019952 14.6749169,-1.42782903 8.92384532,-1.42782903 Z M8.92384532,2.57217097 C12.4852159,2.57217097 15.3546794,5.37925484 15.3546794,8.8197261 C15.3546794,12.2601974 12.4852159,15.0672812 8.92384532,15.0672812 C5.3624747,15.0672812 2.49301119,12.2601974 2.49301119,8.8197261 C2.49301119,5.37925484 5.3624747,2.57217097 8.92384532,2.57217097 Z" id="椭圆形" fill-rule="nonzero"></path>
                </g>
            </g>
        </g>
    </g>
</svg>