<?xml version="1.0" encoding="UTF-8"?>
<svg width="72px" height="72px" viewBox="0 0 72 72" version="1.1" xmlns="http://www.w3.org/2000/svg" xmlns:xlink="http://www.w3.org/1999/xlink">
    <title>资产管理</title>
    <defs>
        <linearGradient x1="43.1212151%" y1="0%" x2="43.1212151%" y2="100%" id="linearGradient-1">
            <stop stop-color="#00C0D0" offset="0%"></stop>
            <stop stop-color="#00DAD5" offset="100%"></stop>
        </linearGradient>
        <linearGradient x1="43.1212151%" y1="0%" x2="43.1212151%" y2="100%" id="linearGradient-2">
            <stop stop-color="#00C0D0" offset="0%"></stop>
            <stop stop-color="#00DAD5" offset="100%"></stop>
        </linearGradient>
    </defs>
    <g id="资产管理" stroke="none" stroke-width="1" fill="none" fill-rule="evenodd">
        <g id="编组" transform="translate(8.130263, 7.289286)">
            <path d="M0.190868617,29.1437143 C0.190868617,36.2819074 9.32966419,41.9902209 21.4618459,43.0423148 L21.8862661,43.077122 L26.9779289,43.0770561 C26.947745,43.485357 26.9323849,43.8977817 26.9323849,44.3137939 C26.9323849,45.8583506 27.1441178,47.3534545 27.5401417,48.7716639 L22.9360434,48.7713686 C12.3065161,48.1910967 3.66709371,44.0242621 1.02508227,38.4105124 C1.82136542,45.8474142 12.7319917,51.5675216 26.2367869,51.5981447 C27.0220805,51.5992792 27.8071027,51.5795084 28.5910209,51.5388793 C29.5665825,53.546482 30.9367863,55.3261348 32.6003399,56.7781717 C31.5301438,56.933255 30.4533592,57.0451954 29.3732579,57.116341 L28.4953987,57.1651456 L23.9463637,57.1651456 C11.1728498,56.5359084 1.19978681,50.7102789 0.982141119,43.4119335 L0.978508921,43.1681149 L0.978119994,38.3091893 C0.515396509,37.2952549 0.247901682,36.2348252 0.199029951,35.1403915 L0.190868617,34.774338 L0.19,29.159 L0.190868617,29.1437143 Z M1.60137182e-13,19.28217 C0.190868618,27.0123483 11.4203045,33.4064464 25.4491466,33.3746349 C27.5133761,33.3699541 29.5169965,33.2316577 31.4337599,32.9741363 C29.817912,34.6867952 28.56475,36.7452987 27.7955856,39.0264885 C27.0150244,39.0713923 26.2322923,39.0956817 25.4491466,39.1006929 C11.8229073,39.1006929 0.873933506,33.3103279 0.0241221382,25.8254996 L1.60137182e-13,25.5808338 L1.60137182e-13,19.28217 Z M50.8982932,19.28217 L50.8982932,25.6444567 C50.7536832,26.8462878 50.4030431,28.0002179 49.873147,29.0608908 C48.5060273,28.4858405 47.0475229,28.0902437 45.5248523,27.9016223 C48.8301139,25.5319087 50.8189101,22.5501078 50.8982932,19.28217 Z M26.2367869,-1.77801351e-14 C40.3928747,-1.77801351e-14 51.6859335,6.17141799 51.6859335,14.0606535 C51.6859335,21.949889 40.0747604,28.1531184 26.2367869,28.1531184 C12.2715677,28.1531184 0.787640304,21.7590203 0.787640304,14.0606535 C0.787640304,6.36228666 12.0806991,-1.77801351e-14 26.2367869,-1.77801351e-14 Z" id="形状结合" fill="url(#linearGradient-1)" opacity="0.857500349"></path>
            <path d="M42.9696898,30.782318 C50.1661314,30.782318 56,36.6161865 56,43.8126282 C56,51.0090698 50.1661314,56.8429383 42.9696898,56.8429383 C35.7732482,56.8429383 29.9393796,51.0090698 29.9393796,43.8126282 C29.9393796,36.6161865 35.7732482,30.782318 42.9696898,30.782318 Z M42.9696898,36.7963073 C39.0952154,36.7963073 35.9533689,39.9369387 35.9533689,43.8118453 C35.9533689,47.686752 39.0952154,50.828949 42.9696898,50.828949 C46.8441642,50.828949 49.9860107,47.686752 49.9860107,43.8118453 C49.9860107,39.9369387 46.8441642,36.7963073 42.9696898,36.7963073 Z M43.4205377,40.6555577 L46.1271907,43.3625127 C46.3760964,43.6114461 46.3760964,44.0138102 46.1271907,44.2643092 L43.4205377,46.9696986 C43.1716321,47.218632 42.7677475,47.218632 42.5188419,46.9696986 L39.8121889,44.2643092 C39.5632832,44.0153758 39.5632832,43.6114461 39.8121889,43.3625127 L42.5188419,40.6555577 C42.7677475,40.4066243 43.1716321,40.4066243 43.4205377,40.6555577 Z" id="形状结合" fill="url(#linearGradient-2)" opacity="0.857500349"></path>
            <g id="资产" opacity="0.95" transform="translate(35.953369, 36.796307)"></g>
        </g>
    </g>
</svg>