<?xml version="1.0" encoding="UTF-8"?>
<svg width="72px" height="72px" viewBox="0 0 72 72" version="1.1" xmlns="http://www.w3.org/2000/svg" xmlns:xlink="http://www.w3.org/1999/xlink">
    <title>项目管理</title>
    <defs>
        <linearGradient x1="50%" y1="-5.81532713%" x2="50%" y2="94.1846729%" id="linearGradient-1">
            <stop stop-color="#0077FF" offset="0%"></stop>
            <stop stop-color="#5B92FF" offset="100%"></stop>
        </linearGradient>
    </defs>
    <g id="项目管理" stroke="none" stroke-width="1" fill="none" fill-rule="evenodd">
        <rect id="矩形备份-4" fill="#FFFFFF" fill-rule="nonzero" opacity="0.95" x="21" y="45" width="18" height="3" rx="1.5"></rect>
        <g id="业务设置5备份" transform="translate(8.000000, 12.000000)" fill="url(#linearGradient-1)">
            <g id="编组-42" transform="translate(-0.000000, -0.000000)">
                <path d="M55,11 L55,44 C55,46.209139 53.209139,48 51,48 L4,48 C1.790861,48 -8.14418731e-14,46.209139 -8.17124146e-14,44 L-8.17124146e-14,11 L55,11 Z M39.7385792,22.6305556 L36.9193594,22.6305556 C36.4024184,22.6305556 35.9813005,23.060553 35.9813005,23.5883942 L35.4164479,25.668861 C34.9978518,25.8619736 34.6019506,26.0988584 34.2337877,26.3666413 L32.186197,25.8285008 C31.7373408,25.5632927 31.1649232,25.7229325 30.9051919,26.1812532 L29.503147,28.6711187 C29.2434156,29.1294394 29.3997588,29.7139269 29.8486149,29.979135 L31.3288314,31.5188864 C31.3061364,31.7454718 31.2960497,31.9797818 31.2960497,32.2166667 C31.2960497,32.4509767 31.3061364,32.6827118 31.3288314,32.914447 L29.8486149,34.4541984 C29.3997588,34.7194064 29.2459373,35.303894 29.503147,35.7622146 L30.9102352,38.2520802 C31.1699666,38.7104008 31.7423842,38.8674658 32.1912403,38.6048326 L34.2388311,38.066692 C34.6095156,38.3370497 35.0054168,38.5713597 35.4214912,38.7644723 L35.9863439,40.8449391 C35.9863439,41.3727803 36.4074617,41.8027778 36.9244027,41.8027778 L39.7411009,41.8027778 C40.2580419,41.8027778 40.6791597,41.3727803 40.6791597,40.8449391 L41.2440123,38.7644723 C41.6626085,38.5713597 42.0585096,38.3344749 42.4266725,38.066692 L44.4717416,38.6048326 C44.9205977,38.8700406 45.4930153,38.7104008 45.7527467,38.2520802 L47.1598349,35.7622146 C47.4170446,35.3013191 47.2657448,34.7142567 46.8168887,34.4490487 L45.3341505,32.9092973 C45.3568455,32.6827118 45.3669322,32.4484018 45.3669322,32.211517 C45.3669322,31.9746322 45.3568455,31.7454718 45.3341505,31.5137367 L46.814367,29.9739853 C47.2632231,29.7087773 47.4170446,29.1242897 47.1598349,28.6659691 L45.7527467,26.1761035 C45.4930153,25.7177829 44.9205977,25.5607179 44.4717416,25.8233511 L42.4241508,26.3614916 C42.0534663,26.0911339 41.6575651,25.8568239 41.2414907,25.6637113 L40.676638,23.5883942 C40.676638,23.060553 40.2555202,22.6305556 39.7385792,22.6305556 Z M38.3314909,28.8565068 C40.144567,28.8565068 41.6172185,30.3602106 41.6172185,32.211517 C41.6121752,34.0653983 40.144567,35.5665271 38.3314909,35.5665271 C36.5184149,35.5665271 35.0457634,34.0628234 35.0457634,32.211517 C35.0457634,30.3602106 36.5184149,28.8565068 38.3314909,28.8565068 Z M19.5511416,-7.10542736e-15 L24.4953968,3.9066266 L53,3.9066266 C54.1045695,3.9066266 55,4.8020571 55,5.9066266 L55,9 L-1.63424829e-13,9 L-1.63424829e-13,2 C-1.635601e-13,0.8954305 0.8954305,-6.90252123e-15 2,-7.10542736e-15 L19.5511416,-7.10542736e-15 Z" id="形状结合"></path>
            </g>
        </g>
    </g>
</svg>