<?xml version="1.0" encoding="UTF-8"?>
<svg width="72px" height="72px" viewBox="0 0 72 72" version="1.1" xmlns="http://www.w3.org/2000/svg" xmlns:xlink="http://www.w3.org/1999/xlink">
    <!-- Generator: Sketch 63.1 (92452) - https://sketch.com -->
    <title>投资管理</title>
    <desc>Created with Sketch.</desc>
    <defs>
        <linearGradient x1="50%" y1="100%" x2="50%" y2="0%" id="linearGradient-1">
            <stop stop-color="#FD785E" offset="0%"></stop>
            <stop stop-color="#FB9E68" offset="100%"></stop>
        </linearGradient>
    </defs>
    <g id="投资管理" stroke="none" stroke-width="1" fill="none" fill-rule="evenodd">
        <g id="项目管理" transform="translate(13.000000, 9.000000)" fill="url(#linearGradient-1)">
            <path d="M29.3464624,5.32907052e-14 L29.3464624,12.4651412 C29.3464624,12.7412836 29.5703201,12.9651412 29.8464624,12.9651412 L46.3125,12.9651412 L46.3125,45.4375 C46.3125,49.855778 42.730778,53.4375 38.3125,53.4375 L8,53.4375 C3.581722,53.4375 2.49231041e-13,49.855778 2.48689958e-13,45.4375 L2.48689958e-13,8 C2.48148875e-13,3.581722 3.581722,5.41023297e-14 8,5.32907052e-14 L29.3464624,5.32907052e-14 Z M22.6681034,35.8033231 L9.58189655,35.8033231 C8.22499005,35.8033231 7.125,36.9033132 7.125,38.2602197 C7.125,39.5628499 8.13875083,40.628706 9.42035493,40.7118902 L9.58189655,40.7171162 L22.6681034,40.7171162 C24.0250099,40.7171162 25.125,39.6171262 25.125,38.2602197 C25.125,36.9033132 24.0250099,35.8033231 22.6681034,35.8033231 Z M16.5,27 L9.5,27 C8.11928813,27 7,28.1192881 7,29.5 C7,30.8254834 8.03153594,31.9100387 9.33562431,31.9946823 L9.5,32 L16.5,32 C17.8807119,32 19,30.8807119 19,29.5 C19,28.1192881 17.8807119,27 16.5,27 Z M33.1681034,17.7490962 L9.58189655,17.7490962 C8.22499005,17.7490962 7.125,18.8490863 7.125,20.2059928 C7.125,21.508623 8.13875083,22.5744791 9.42035493,22.6576633 L9.58189655,22.6628893 L33.1681034,22.6628893 C34.5250099,22.6628893 35.625,21.5628993 35.625,20.2059928 C35.625,18.8490863 34.5250099,17.7490962 33.1681034,17.7490962 Z M33.9143324,0.140451371 C33.9475862,0.0963563464 34.0102898,0.0875677728 34.0543848,0.120821543 L34.0543848,0.120821543 L45.4728518,8.73193071 C45.4979081,8.75082664 45.5126405,8.7803891 45.5126405,8.81177181 C45.5126405,8.86700029 45.467869,8.91177181 45.4126405,8.91177181 L45.4126405,8.91177181 L34.1941735,8.91177181 C34.0284881,8.91177181 33.8941735,8.77745724 33.8941735,8.61177181 L33.8941735,8.61177181 L33.8941735,0.200662648 C33.8941735,0.178935177 33.90125,0.157798825 33.9143324,0.140451371 Z" id="形状结合"></path>
        </g>
    </g>
</svg>