<?xml version="1.0" encoding="UTF-8"?>
<svg width="72px" height="72px" viewBox="0 0 72 72" version="1.1" xmlns="http://www.w3.org/2000/svg" xmlns:xlink="http://www.w3.org/1999/xlink">
    <title>生产制造</title>
    <defs>
        <linearGradient x1="50%" y1="100%" x2="52.160432%" y2="0%" id="linearGradient-1">
            <stop stop-color="#749FC4" offset="0%"></stop>
            <stop stop-color="#366A90" offset="100%"></stop>
        </linearGradient>
    </defs>
    <g id="生产制造" stroke="none" stroke-width="1" fill="none" fill-rule="evenodd">
        <path d="M31.6814951,7.69077184 C34.1242042,6.31011609 37.1116904,6.3101186 39.5543972,7.69077845 L39.5543972,7.69077845 L58.6511791,18.4846076 C61.1621314,19.903841 62.7147222,22.5648251 62.7147222,25.449111 L62.7147222,25.449111 L62.7147222,46.7445903 C62.7147222,49.6288906 61.162116,52.2898857 58.651144,53.7091135 L58.651144,53.7091135 L39.5543776,64.502807 C37.1116805,65.8834451 34.124217,65.8834426 31.6815222,64.5028004 L31.6815222,64.5028004 L12.5847403,53.7090559 C10.0737748,52.2898262 8.52117381,49.6288348 8.52117381,46.7445393 L8.52117381,46.7445393 L8.52117381,25.4490599 C8.52117381,22.5647693 10.0737697,19.9037815 12.5847286,18.48455 L12.5847286,18.48455 Z M42.1636671,39.4230087 C42.0620536,39.4197078 41.9659279,39.4454687 41.8795812,39.4991363 C41.7932345,39.5528038 41.726652,39.6170481 41.6040364,39.8294352 L41.6040364,39.8294352 L41.1565546,40.6044926 C41.1148254,40.6772092 41.0850345,40.7353468 41.0638536,40.7843931 C40.7049944,40.7495346 40.3432912,40.7567262 39.9861013,40.8058216 C39.9664195,40.7650689 39.9414838,40.7184708 39.9098774,40.6637305 L39.9098774,40.6637305 L39.4667006,39.8961139 C39.3425033,39.6822276 39.2764847,39.6188636 39.1911421,39.565815 C39.1047953,39.5121474 39.0086834,39.4864002 38.9070699,39.4897011 C38.8054564,39.4930021 38.7156712,39.5153521 38.5032841,39.6379677 L38.5032841,39.6379677 L36.4730771,40.8101128 C36.2591909,40.9342964 36.1958269,41.0003149 36.142792,41.0856576 C36.0891244,41.1720043 36.0633772,41.2681162 36.0666781,41.3697435 C36.0699791,41.471357 36.0923153,41.5611422 36.2149447,41.7735293 L36.2149447,41.7735293 L36.6581215,42.5411321 L36.6629354,42.5494394 C36.7186935,42.6454001 36.7628021,42.7103733 36.8026333,42.7577416 C36.7300853,42.8626716 36.6618417,42.9705133 36.5980722,43.0809985 C36.4953613,43.2587658 36.4044982,43.4431199 36.3260759,43.6328583 C36.2600299,43.618403 36.1731192,43.6109347 36.0404633,43.6109347 L36.0404633,43.6109347 L35.1541096,43.6109347 C34.9088646,43.6109347 34.8199459,43.6364756 34.7302845,43.6844215 C34.6406369,43.7323675 34.5702721,43.8027322 34.5223262,43.8923799 C34.4743802,43.9820413 34.4488531,44.0709737 34.4488531,44.316205 L34.4488531,44.316205 L34.4488531,46.6690775 C34.4494445,46.9078032 34.4749441,46.9956904 34.5223262,47.0843065 C34.5702721,47.1739541 34.6406369,47.2443051 34.7302845,47.2922648 C34.8199459,47.3402107 34.9088784,47.3657379 35.1541096,47.3657379 L35.1541096,47.3657379 L36.0404633,47.3657379 C36.2250125,47.3657379 36.3210557,47.3512826 36.3954228,47.3237061 C36.5270056,47.6126991 36.6880002,47.887373 36.8758589,48.143381 C36.8475259,48.1832122 36.8163322,48.2323823 36.780242,48.2945497 L36.780242,48.2945497 L36.3327465,49.0695796 C36.2101309,49.2819667 36.1877808,49.3717519 36.1844799,49.4733654 C36.181179,49.5749789 36.20694,49.6710908 36.2606075,49.7574513 C36.3142751,49.843798 36.3785193,49.9103804 36.5908927,50.0329961 L36.5908927,50.0329961 L38.6210997,51.2051411 C38.8355911,51.3282794 38.9244685,51.3501343 39.0248717,51.3534077 C39.1264989,51.3567086 39.2226109,51.3309477 39.3089576,51.2772801 C39.3953181,51.2236126 39.4618867,51.1593683 39.5845161,50.9469812 L39.5845161,50.9469812 L40.027693,50.1793784 L40.0325618,50.170906 C40.0694909,50.106538 40.0969986,50.0536269 40.1174919,50.0082666 C40.4468213,50.0433744 40.778968,50.0430286 41.1082236,50.0072351 C41.1274239,50.0465574 41.1514657,50.0912712 41.1815454,50.1433708 L41.1815454,50.1433708 L41.6247222,50.9109874 C41.7489195,51.1248736 41.814938,51.1882376 41.9002807,51.2412725 C41.9866274,51.2949401 42.0827394,51.3206873 42.1843529,51.3173864 C42.2859664,51.3140854 42.3757654,51.2917354 42.5881387,51.1691198 L42.5881387,51.1691198 L44.6183457,49.9969885 C44.8322319,49.8728049 44.8955959,49.8067726 44.9486308,49.7214437 C45.0022984,49.6350832 45.0280593,49.5389713 45.0247447,49.4373578 C45.0214437,49.3357443 44.9991075,49.2459591 44.8764781,49.033572 L44.8764781,49.033572 L44.4333013,48.2659692 L44.4277722,48.2564102 C44.400292,48.2091795 44.3756451,48.1694721 44.3529512,48.1357064 L44.3529512,48.1357064 L44.4952474,47.9295833 L44.4952474,47.9295833 L44.6262129,47.7160487 C44.717021,47.5588769 44.798569,47.396534 44.8704401,47.2298498 C44.9291829,47.2381846 45.0033299,47.2424483 45.1036368,47.2424483 L45.1036368,47.2424483 L45.9899904,47.2424483 C46.2352355,47.2424483 46.3241541,47.2169212 46.4138155,47.1689615 C46.5034769,47.1210293 46.5738279,47.0506645 46.6217739,46.9610031 C46.6697336,46.8713555 46.6952607,46.782423 46.6952607,46.5371917 L46.6952607,46.5371917 L46.6952607,44.1929017 C46.6952607,43.9476704 46.6697336,43.8587379 46.6217739,43.7690765 C46.5738279,43.6794289 46.5034769,43.6090641 46.4138155,43.5611182 C46.3241541,43.5131722 46.2352217,43.4876313 45.9899904,43.4876313 L45.9899904,43.4876313 L45.1036368,43.4876313 C44.9869628,43.4876313 44.9056638,43.4934217 44.8428224,43.5046448 L44.8428224,43.5046448 L44.7315326,43.2725493 C44.6137313,43.043791 44.4769598,42.8251371 44.3225827,42.6189101 C44.3494027,42.5800555 44.378891,42.5328385 44.4126017,42.4744259 L44.4126017,42.4744259 L44.8557923,41.7068231 C44.9784079,41.494436 45.0007579,41.4046508 45.0040589,41.3030373 C45.0073598,41.2014238 44.9816126,41.1053118 44.927945,41.0189514 C44.8742774,40.9326046 44.8100194,40.8660222 44.5976323,40.7434066 L44.5976323,40.7434066 L42.5599983,39.5669841 C42.3529477,39.4481232 42.264084,39.4262683 42.1636534,39.4230087 Z M40.5976116,43.2139433 C41.797787,43.2139433 42.7707211,44.1868775 42.7707211,45.3870529 C42.7707211,46.5872283 41.797787,47.5601624 40.5976116,47.5601624 C39.3974362,47.5601624 38.424502,46.5872283 38.424502,45.3870529 C38.424502,44.1868775 39.3974362,43.2139433 40.5976116,43.2139433 Z M30.3498641,21.6022392 C27.9484106,23.9695541 27.2081129,27.3849931 28.128971,30.4209389 C28.2734193,30.9088588 28.1831391,31.4509919 27.8220183,31.8124141 L23.0010552,36.6193282 C22.3329816,37.2879591 22.3329816,38.3902966 23.0010552,39.0589275 L25.4566768,41.4985268 C26.1247504,42.1671577 27.2261689,42.1671577 27.9122985,41.4985268 L32.7693737,36.6554704 C33.1304945,36.2940483 33.6541197,36.1856217 34.1596889,36.3301905 C37.1750478,37.2156747 40.5515276,36.4747594 42.9349251,34.0893734 C45.047482,31.975054 45.8600038,29.0294638 45.3544347,26.2826557 C45.2099863,25.5055981 44.2169041,25.2164604 43.6571668,25.7766647 L38.9084278,30.5112944 C38.2403543,31.1799254 37.1389357,31.1799254 36.4528062,30.5112944 L34.0152405,28.0716951 C33.329111,27.3849931 33.329111,26.3007268 34.0152405,25.6320959 L38.8000916,20.8613239 C39.3598289,20.3011196 39.0889882,19.3072088 38.3125784,19.16264 C35.513892,18.6205068 32.5165891,19.4337065 30.3498641,21.6022392 Z" id="形状结合" fill="url(#linearGradient-1)" fill-rule="nonzero"></path>
    </g>
</svg>