<?xml version="1.0" encoding="UTF-8"?>
<svg width="72px" height="72px" viewBox="0 0 72 72" version="1.1" xmlns="http://www.w3.org/2000/svg" xmlns:xlink="http://www.w3.org/1999/xlink">
    <title>人力云资本</title>
    <defs>
        <linearGradient x1="50%" y1="-5.81532713%" x2="50%" y2="94.1846729%" id="linearGradient-1">
            <stop stop-color="#F99432" offset="0%"></stop>
            <stop stop-color="#FFB940" offset="100%"></stop>
        </linearGradient>
    </defs>
    <g id="人力云资本" stroke="none" stroke-width="1" fill="none" fill-rule="evenodd">
        <path d="M62,11 C64.209139,11 66,12.790861 66,15 L66,15 L66,57 C66,59.209139 64.209139,61 62,61 L62,61 L10,61 C7.790861,61 6,59.209139 6,57 L6,57 L6,15 C6,12.790861 7.790861,11 10,11 L10,11 Z M30.4752475,38.1037205 L26.3168317,38.1037205 L27.980198,40.5926123 L27.980198,41.2148353 L26.3168317,47.2296572 L23.8217822,38.1037205 C20.4950495,38.3111281 18,41.0074276 18,44.3259501 L18,44.3259501 L18,46.6074343 C18,47.8518802 18.8316832,48.8889184 20.0792079,48.8889184 L20.0792079,48.8889184 L36.7128713,48.8889184 C37.7524752,48.8889184 38.7920792,47.8518802 38.7920792,46.6074343 L38.7920792,46.6074343 L39,46.6074343 L39,44.3259501 C39,41.0074276 36.2970297,38.3111281 33.1782178,38.1037205 L33.1782178,38.1037205 L30.6831683,47.2296572 L29.019802,41.2148353 L29.019802,40.5926123 L30.4752475,38.1037205 Z M28.3960396,24 C25.2772277,24 22.5742574,26.6962995 22.5742574,30.2222296 C22.5742574,33.5407521 25.2772277,36.4444592 28.3960396,36.4444592 C31.5148515,36.4444592 34.2178218,33.5407521 34.2178218,30.2222296 C34.2178218,26.6962995 31.7227723,24 28.3960396,24 Z M48.6590909,24 C47.303994,24 46.0738574,24.5068596 45.1690977,25.3310109 C44.5892895,25.005221 43.9123979,24.8181818 43.1893939,24.8181818 C41.0430146,24.8181818 39.3030303,26.466588 39.3030303,28.5 C39.3030303,28.5764568 39.3054903,28.6523694 39.3116077,28.7272231 C37.945349,29.3383529 37,30.655497 37,32.1818182 C37,34.1052455 38.5012459,35.6964925 40.4542323,35.9612909 L40.4542323,35.9612909 L40.4545455,36 L51.969697,36 L51.9694445,35.9896483 C52.0645389,35.9965076 52.1606268,36 52.2575758,36 C54.3244596,36 56,34.4126459 56,32.4545455 C56,30.9730831 55.0408949,29.7038417 53.6793605,29.1746291 C53.6910219,29.0421257 53.6969697,28.9080845 53.6969697,28.7727273 C53.6969697,26.1368228 51.4414345,24 48.6590909,24 Z" id="形状结合" fill="url(#linearGradient-1)"></path>
        <g id="编组" transform="translate(18.000000, 24.000000)">
            <g id="营销云" transform="translate(19.000000, 0.000000)"></g>
        </g>
    </g>
</svg>