<?xml version="1.0" encoding="UTF-8"?>
<svg width="72px" height="72px" viewBox="0 0 72 72" version="1.1" xmlns="http://www.w3.org/2000/svg" xmlns:xlink="http://www.w3.org/1999/xlink">
    <title>移动应用</title>
    <defs>
        <linearGradient x1="50%" y1="-2.48949813e-15%" x2="50%" y2="100%" id="linearGradient-1">
            <stop stop-color="#FD785E" offset="0%"></stop>
            <stop stop-color="#FF8C49" offset="100%"></stop>
        </linearGradient>
    </defs>
    <g id="移动应用" stroke="none" stroke-width="1" fill="none" fill-rule="evenodd">
        <path d="M57,6 C59.209139,6 61,7.790861 61,10 L61,62 C61,64.209139 59.209139,66 57,66 L15,66 C12.790861,66 11,64.209139 11,62 L11,10 C11,7.790861 12.790861,6 15,6 L57,6 Z M36,58 C34.8954305,58 34,58.8954305 34,60 C34,61.1045695 34.8954305,62 36,62 C37.1045695,62 38,61.1045695 38,60 C38,58.8954305 37.1045695,58 36,58 Z M25.5150225,33.6424548 L20,33.6424548 C19.4477153,33.6424548 19,34.09017 19,34.6424548 L19,34.6424548 L19,40.2849095 C19,40.8371943 19.4477153,41.2849095 20,41.2849095 L20,41.2849095 L25.5150225,41.2849095 C26.0673073,41.2849095 26.5150225,40.8371943 26.5150225,40.2849095 L26.5150225,40.2849095 L26.5150225,34.6424548 C26.5150225,34.09017 26.0673073,33.6424548 25.5150225,33.6424548 L25.5150225,33.6424548 Z M25.5150225,23 L20,23 C19.4477153,23 19,23.4477153 19,24 L19,24 L19,29.6424548 C19,30.1947395 19.4477153,30.6424548 20,30.6424548 L20,30.6424548 L25.5150225,30.6424548 C26.0673073,30.6424548 26.5150225,30.1947395 26.5150225,29.6424548 L26.5150225,29.6424548 L26.5150225,24 C26.5150225,23.4477153 26.0673073,23 25.5150225,23 L25.5150225,23 Z M36.030045,23 L30.5150225,23 C29.9627378,23 29.5150225,23.4477153 29.5150225,24 L29.5150225,24 L29.5150225,29.6424548 C29.5150225,30.1947395 29.9627378,30.6424548 30.5150225,30.6424548 L30.5150225,30.6424548 L36.030045,30.6424548 C36.5823298,30.6424548 37.030045,30.1947395 37.030045,29.6424548 L37.030045,29.6424548 L37.030045,24 C37.030045,23.4477153 36.5823298,23 36.030045,23 L36.030045,23 Z M42.5,13 L29.5,13 C28.6715729,13 28,13.6715729 28,14.5 C28,15.3284271 28.6715729,16 29.5,16 L29.5,16 L42.5,16 C43.3284271,16 44,15.3284271 44,14.5 C44,13.6715729 43.3284271,13 42.5,13 L42.5,13 Z" id="形状结合" fill="url(#linearGradient-1)"></path>
    </g>
</svg>