<?xml version="1.0" encoding="UTF-8"?>
<svg width="72px" height="72px" viewBox="0 0 72 72" version="1.1" xmlns="http://www.w3.org/2000/svg" xmlns:xlink="http://www.w3.org/1999/xlink">
    <title>资产云</title>
    <defs>
        <linearGradient x1="50%" y1="-2.48949813e-15%" x2="50%" y2="100%" id="linearGradient-1">
            <stop stop-color="#FD785E" offset="0%"></stop>
            <stop stop-color="#FF8C49" offset="100%"></stop>
        </linearGradient>
        <linearGradient x1="50%" y1="-2.48949813e-15%" x2="50%" y2="100%" id="linearGradient-2">
            <stop stop-color="#FD785E" offset="0%"></stop>
            <stop stop-color="#FF8C49" offset="100%"></stop>
        </linearGradient>
        <linearGradient x1="50%" y1="-2.48949813e-15%" x2="50%" y2="100%" id="linearGradient-3">
            <stop stop-color="#FD785E" offset="0%"></stop>
            <stop stop-color="#FF8C49" offset="100%"></stop>
        </linearGradient>
        <linearGradient x1="50%" y1="-2.48949813e-15%" x2="50%" y2="100%" id="linearGradient-4">
            <stop stop-color="#FD785E" offset="0%"></stop>
            <stop stop-color="#FF8C49" offset="100%"></stop>
        </linearGradient>
        <linearGradient x1="50%" y1="-2.48949813e-15%" x2="50%" y2="100%" id="linearGradient-5">
            <stop stop-color="#FD785E" offset="0%"></stop>
            <stop stop-color="#FF8C49" offset="100%"></stop>
        </linearGradient>
        <linearGradient x1="50%" y1="-2.48949813e-15%" x2="50%" y2="100%" id="linearGradient-6">
            <stop stop-color="#FD785E" offset="0%"></stop>
            <stop stop-color="#FF8C49" offset="100%"></stop>
        </linearGradient>
        <linearGradient x1="50%" y1="-2.48949813e-15%" x2="50%" y2="100%" id="linearGradient-7">
            <stop stop-color="#FD785E" offset="0%"></stop>
            <stop stop-color="#FF8C49" offset="100%"></stop>
        </linearGradient>
    </defs>
    <g id="资产云" stroke="none" stroke-width="1" fill="none" fill-rule="evenodd">
        <g id="编组" transform="translate(12.000000, 11.000000)">
            <path d="M24.5000479,44.1582411 C12.789507,44.1582411 3.01353826,40.2953608 0.590294515,35.1355384 C0.213398699,35.9385125 0,36.7692803 0,37.6251007 C0,43.9822646 10.9689613,49.1355384 24.5000479,49.1355384 C38.0309429,49.1355384 49,43.9822646 49,37.6251007 C49,36.7692803 48.7867929,35.9388932 48.4097534,35.1355384 C45.9864617,40.295437 36.2102536,44.1582411 24.5000479,44.1582411 L24.5000479,44.1582411 Z" id="路径" fill="url(#linearGradient-1)"></path>
            <path d="M24.5000479,21 C38.0309429,21 49,16.2987277 49,10.4999155 C49,4.70093428 38.0309429,0 24.5000479,0 C10.9689613,0 0,4.70093428 0,10.5000845 C0,16.2994037 10.9689613,21 24.5000479,21 Z" id="路径" fill="url(#linearGradient-2)"></path>
            <path d="M13.6825633,30.9400347 L13.6825633,25.5014224 C7.11720098,23.8352651 2.2091267,20.7076613 0.590294515,16.9400347 C0.213398699,17.8179849 0,18.7261546 0,19.66188 C0,24.6146478 5.58442748,28.8868501 13.6825633,30.9400347 Z" id="路径" fill="url(#linearGradient-3)" opacity="0.8"></path>
            <path d="M35.3173888,25.5014224 L35.3173888,30.9400347 C43.4154767,28.8868501 49,24.614065 49,19.66188 C49,18.7261546 48.7867929,17.8174021 48.4097534,16.9400347 C46.7911128,20.7076613 41.8824159,23.8352651 35.3173888,25.5014224 L35.3173888,25.5014224 Z" id="路径" fill="url(#linearGradient-4)" opacity="0.8"></path>
            <path d="M35.3173888,39.745914 C43.4154767,37.8389216 49,33.8722631 49,29.2728779 C49,28.4045312 48.7867929,27.5606896 48.4097534,26.7459913 C46.7911128,30.2445017 41.8824159,33.1481641 35.3173888,34.6963151 L35.3173888,39.745914 Z" id="路径" fill="url(#linearGradient-5)" opacity="0.7"></path>
            <path d="M13.6825633,39.7459913 L13.6825633,34.6963924 C7.11715309,33.1481641 2.2091267,30.2445017 0.590294515,26.7459913 C0.213398699,27.5606896 0,28.4045312 0,29.2728779 C0,33.8722631 5.58442748,37.8389989 13.6825633,39.7459913 Z" id="路径" fill="url(#linearGradient-6)" opacity="0.7"></path>
            <path d="M27.7264332,23.407928 L24.0194687,27.222875 L20.2735668,23.3678366 C19.752045,22.8655051 18.9376375,22.8793418 18.4324958,23.3991161 C17.9273542,23.9188905 17.9133865,24.757425 18.40092,25.2947293 L22.6901207,29.7097944 C22.6889039,29.7373572 22.6755192,29.7599087 22.6755192,29.7880979 L22.6755192,30.6049601 L19.3646212,30.6049601 C18.8820765,30.5898955 18.4297914,30.8463573 18.1841963,31.2743029 C17.9386012,31.7022485 17.9386012,32.2338867 18.1841963,32.6618323 C18.4297914,33.089778 18.8820765,33.3462397 19.3646212,33.3311751 L22.6755192,33.3311751 L22.6755192,35.0939437 L19.3646212,35.0939437 C18.8820765,35.0788791 18.4297914,35.3353408 18.1841963,35.7632865 C17.9386012,36.1912321 17.9386012,36.7228703 18.1841963,37.1508159 C18.4297914,37.5787615 18.8820765,37.8352233 19.3646212,37.8201587 L22.6755192,37.8201587 L22.6755192,40.6365793 C22.6755192,41.3895758 23.2683732,42 23.9996958,42 C24.7310184,42 25.3238724,41.3895758 25.3238724,40.6365793 L25.3238724,37.8201587 L28.6353788,37.8201587 C29.1179235,37.8352233 29.5702086,37.5787615 29.8158037,37.1508159 C30.0613988,36.7228703 30.0613988,36.1912321 29.8158037,35.7632865 C29.5702086,35.3353408 29.1179235,35.0788791 28.6353788,35.0939437 L25.3238724,35.0939437 L25.3238724,33.3311751 L28.6353788,33.3311751 C29.3665333,33.3311751 29.9592512,32.7208911 29.9592512,31.9680676 C29.9592512,31.2152441 29.3665333,30.6049601 28.6353788,30.6049601 L25.3238724,30.6049601 L25.3238724,29.7887243 C25.3238724,29.7787015 26.7493472,28.294067 29.59908,25.3360736 C30.1162177,24.8036097 30.1162177,23.9410183 29.59908,23.4085544 C29.0818898,22.8756669 28.2436235,22.8756669 27.7264332,23.407928 Z" id="路径" fill="url(#linearGradient-7)" opacity="0.9"></path>
        </g>
    </g>
</svg>