<?xml version="1.0" encoding="UTF-8"?>
<svg width="72px" height="72px" viewBox="0 0 72 72" version="1.1" xmlns="http://www.w3.org/2000/svg" xmlns:xlink="http://www.w3.org/1999/xlink">
    <title>企业自定义</title>
    <defs>
        <linearGradient x1="49.038706%" y1="5.34038586%" x2="50%" y2="89.9678644%" id="linearGradient-1">
            <stop stop-color="#00C2D1" offset="0%"></stop>
            <stop stop-color="#00DDD8" offset="100%"></stop>
        </linearGradient>
        <linearGradient x1="50%" y1="-5.81532713%" x2="50%" y2="92.2886592%" id="linearGradient-2">
            <stop stop-color="#00C2D1" offset="0%"></stop>
            <stop stop-color="#00DFDA" offset="100%"></stop>
        </linearGradient>
        <linearGradient x1="6.176324%" y1="49.7152011%" x2="50%" y2="50.2516749%" id="linearGradient-3">
            <stop stop-color="#00C2D1" offset="0%"></stop>
            <stop stop-color="#00D0CA" offset="100%"></stop>
        </linearGradient>
    </defs>
    <g id="企业自定义" stroke="none" stroke-width="1" fill="none" fill-rule="evenodd">
        <g id="编组备份" transform="translate(10.000000, 10.648034)">
            <path d="M45.0664073,14.6286986 L47.2012465,16.4538311 C47.8679309,17.0237978 48.2517862,17.8569807 48.2517862,18.7340953 L48.2517862,48.3519663 C48.2517862,50.0088206 46.9086405,51.3519663 45.2517862,51.3519663 L44.8810284,51.3519663 C43.2241742,51.3519663 41.8810284,50.0088206 41.8810284,48.3519663 L41.8810284,16.0962334 C41.8810284,15.0299133 42.7454516,14.1654902 43.8117716,14.1654902 C44.2718126,14.1654902 44.7167357,14.3297547 45.0664073,14.6286986 Z" id="形状结合" fill="url(#linearGradient-1)" opacity="0.8"></path>
            <path d="M8.40587702,0.0280608599 L8.57981055,0.0571324604 L38.1156541,5.87522721 C39.4633505,6.14070212 40.4506709,7.28424897 40.5306078,8.64059686 L40.5358436,8.81866393 L40.5358436,48.3519663 C40.5358436,49.9496472 39.2869236,51.2556272 37.7121164,51.3468736 L37.5358436,51.3519663 L8,51.3519663 C6.40231912,51.3519663 5.09633912,50.1030464 5.00509269,48.5282391 L5,48.3519663 L5,3.00056918 C5,2.80592167 5.01894372,2.61173617 5.05656328,2.42075863 C5.36534736,0.853201103 6.84312665,-0.186776398 8.40587702,0.0280608599 Z M27.9752636,28.3257548 L20.0655165,35.7902665 L18.4591708,40.6660542 C18.3845864,40.894133 18.589566,41.116677 18.8239589,41.0579781 L23.910986,39.8092684 L31.9107653,32.4042574 L27.9752636,28.3257548 Z M31.3661624,25.2475077 L28.8748812,27.4669094 L32.7049493,31.6730532 L35.1749974,29.3782905 C36.1369813,28.4844007 36.1712781,26.9723798 35.2475162,26.0356978 L34.5711567,25.3517471 C33.7000616,24.4680613 32.2919559,24.423721 31.3661624,25.2475077 Z M20,21.7049075 L12,21.7049075 C11.4871642,21.7049075 11.0644928,22.0909477 11.0067277,22.5882864 L11,22.7049075 L11,26.0578487 C11,26.5706845 11.3860402,26.9933558 11.8833789,27.0511209 L12,27.0578487 L20,27.0578487 C20.5128358,27.0578487 20.9355072,26.6718085 20.9932723,26.1744698 L21,26.0578487 L21,22.7049075 C21,22.1526227 20.5522847,21.7049075 20,21.7049075 Z M26,10.3519663 L12,10.3519663 C11.4871642,10.3519663 11.0644928,10.7380065 11.0067277,11.2353452 L11,11.3519663 L11,14.7049075 C11,15.2177433 11.3860402,15.6404147 11.8833789,15.6981798 L12,15.7049075 L26,15.7049075 C26.5128358,15.7049075 26.9355072,15.3188673 26.9932723,14.8215286 L27,14.7049075 L27,11.3519663 C27,10.7996816 26.5522847,10.3519663 26,10.3519663 Z" id="形状结合" fill="url(#linearGradient-2)"></path>
            <rect id="矩形" fill="url(#linearGradient-3)" x="0" y="47.3519663" width="53" height="4" rx="2"></rect>
        </g>
        <g id="自定义区域" transform="translate(37.500000, 43.974633) rotate(17.000000) translate(-37.500000, -43.974633) translate(31.000000, 34.000000)"></g>
    </g>
</svg>