<?xml version="1.0" encoding="UTF-8"?>
<svg width="72px" height="72px" viewBox="0 0 72 72" version="1.1" xmlns="http://www.w3.org/2000/svg" xmlns:xlink="http://www.w3.org/1999/xlink">
    <!-- Generator: Sketch 63.1 (92452) - https://sketch.com -->
    <title>默认15</title>
    <desc>Created with Sketch.</desc>
    <g id="默认15" stroke="none" stroke-width="1" fill="none" fill-rule="evenodd">
        <g id="编组" transform="translate(9.000000, 8.000000)" fill="#60759C" fill-rule="nonzero">
            <path d="M19.4385965,0.635964912 L35.1885965,0.635964912 C37.3977355,0.635964912 39.1885965,2.42682591 39.1885965,4.63596491 L39.1885965,9.17982456 C39.1885965,11.3889636 37.3977355,13.1798246 35.1885965,13.1798246 L19.4385965,13.1798246 C17.2294575,13.1798246 15.4385965,11.3889636 15.4385965,9.17982456 L15.4385965,4.63596491 C15.4385965,2.42682591 17.2294575,0.635964912 19.4385965,0.635964912 Z M20.4385965,8.17982456 L34.1885965,8.17982456 L34.1885965,5.63596491 L20.4385965,5.63596491 L20.4385965,8.17982456 Z" id="矩形备份-5"></path>
            <path d="M7,9.64912281 L48,9.64912281 C51.8659932,9.64912281 55,12.7831296 55,16.6491228 L55,47.6491228 C55,51.5151161 51.8659932,54.6491228 48,54.6491228 L7,54.6491228 C3.13400675,54.6491228 0,51.5151161 0,47.6491228 L0,16.6491228 C0,12.7831296 3.13400675,9.64912281 7,9.64912281 Z M7,14.6491228 C5.8954305,14.6491228 5,15.5445533 5,16.6491228 L5,47.6491228 C5,48.7536923 5.8954305,49.6491228 7,49.6491228 L48,49.6491228 C49.1045695,49.6491228 50,48.7536923 50,47.6491228 L50,16.6491228 C50,15.5445533 49.1045695,14.6491228 48,14.6491228 L7,14.6491228 Z" id="矩形"></path>
            <path d="M19.143555,23.1915084 L19.6868496,22.0526316 L34.9842031,22.0526316 L35.5274977,23.1915084 C36.1043502,24.4007309 36.4078948,25.7278096 36.4078948,27.0939905 C36.4078948,32.1045212 32.3460571,36.1663589 27.3355264,36.1663589 C22.3249956,36.1663589 18.2631579,32.1045212 18.2631579,27.0939905 C18.2631579,25.7278096 18.5667025,24.4007309 19.143555,23.1915084 Z M22.2631579,27.0939905 C22.2631579,29.8953822 24.5341346,32.1663589 27.3355264,32.1663589 C30.1369181,32.1663589 32.4078948,29.8953822 32.4078948,27.0939905 C32.4078948,26.7396817 32.3718283,26.3913515 32.301319,26.0526316 L22.3697337,26.0526316 C22.2992244,26.3913515 22.2631579,26.7396817 22.2631579,27.0939905 Z" id="形状结合"></path>
            <polygon id="路径-3" points="0 25.8257206 55 25.8257206 55 21.8257206 0 21.8257206"></polygon>
        </g>
    </g>
</svg>