<?xml version="1.0" encoding="UTF-8"?>
<svg width="72px" height="72px" viewBox="0 0 72 72" version="1.1" xmlns="http://www.w3.org/2000/svg" xmlns:xlink="http://www.w3.org/1999/xlink">
    <title>商旅云</title>
    <defs>
        <linearGradient x1="50%" y1="-5.81532713%" x2="50%" y2="82.2639093%" id="linearGradient-1">
            <stop stop-color="#0077FF" offset="0%"></stop>
            <stop stop-color="#5B92FF" offset="100%"></stop>
        </linearGradient>
        <linearGradient x1="50%" y1="-5.81532713%" x2="50%" y2="78.4606632%" id="linearGradient-2">
            <stop stop-color="#0077FF" offset="0%"></stop>
            <stop stop-color="#5B92FF" offset="100%"></stop>
        </linearGradient>
        <linearGradient x1="50%" y1="-5.81532713%" x2="50%" y2="94.1846729%" id="linearGradient-3">
            <stop stop-color="#0077FF" offset="0%"></stop>
            <stop stop-color="#5B92FF" offset="100%"></stop>
        </linearGradient>
        <linearGradient x1="50%" y1="-5.81532713%" x2="50%" y2="94.1846729%" id="linearGradient-4">
            <stop stop-color="#0077FF" offset="0%"></stop>
            <stop stop-color="#5B92FF" offset="100%"></stop>
        </linearGradient>
        <linearGradient x1="50%" y1="-5.81532713%" x2="50%" y2="94.1846729%" id="linearGradient-5">
            <stop stop-color="#0077FF" offset="0%"></stop>
            <stop stop-color="#5B92FF" offset="100%"></stop>
        </linearGradient>
    </defs>
    <g id="商旅云" stroke="none" stroke-width="1" fill="none" fill-rule="evenodd">
        <rect id="矩形" fill="url(#linearGradient-1)" x="18" y="9" width="8" height="6" rx="1"></rect>
        <rect id="矩形备份" fill="url(#linearGradient-2)" x="40" y="9" width="8" height="6" rx="1"></rect>
        <g id="编组" transform="translate(8.000000, 14.094970)">
            <path d="M47.5951425,0 C48.9786199,0 50.10015,1.14054782 50.10015,2.54748488 L50.10015,24.4748492 C50.10015,25.0271339 49.6524348,25.4748492 49.10015,25.4748492 L46.090135,25.4748492 C45.5378503,25.4748492 45.090135,25.0271339 45.090135,24.4748492 L45.090135,12.7374246 L45.090135,12.7374246 L5.01001498,12.7374246 L5.01001498,40.7597587 L16.5350525,40.7597587 C17.0873372,40.7597587 17.5350525,41.2074739 17.5350525,41.7597587 L17.5350525,44.8547285 C17.5350525,45.4070133 17.0873372,45.8547285 16.5350525,45.8547285 L2.50500746,45.8547285 L2.50500746,45.8547285 C1.12153003,45.8547285 -3.55271368e-15,44.7141807 -3.55271368e-15,43.3072436 L-3.55271368e-15,2.54748488 C-3.55271368e-15,1.14054784 1.12153006,0 2.50500746,0 L47.5951425,0 Z" id="路径" fill="url(#linearGradient-3)"></path>
            <path d="M10.02003,24.4748492 L10.02003,18.8323944 C10.02003,18.2801096 10.4677452,17.8323944 11.02003,17.8323944 L16.5350525,17.8323944 C17.0873372,17.8323944 17.5350525,18.2801096 17.5350525,18.8323944 L17.5350525,24.4748492 C17.5350525,25.0271339 17.0873372,25.4748492 16.5350525,25.4748492 L11.02003,25.4748492 C10.4677452,25.4748492 10.02003,25.0271339 10.02003,24.4748492 Z" id="路径" fill="url(#linearGradient-4)"></path>
            <path d="M20.5350525,24.4748492 L20.5350525,18.8323944 C20.5350525,18.2801096 20.9827677,17.8323944 21.5350525,17.8323944 L27.050075,17.8323944 C27.6023597,17.8323944 28.050075,18.2801096 28.050075,18.8323944 L28.050075,24.4748492 C28.050075,25.0271339 27.6023597,25.4748492 27.050075,25.4748492 C25.241746,25.4748492 23.433417,25.4748492 21.625088,25.4748492 C21.5950762,25.4748492 21.5650643,25.4748492 21.5350525,25.4748492 C20.9827677,25.4748492 20.5350525,25.0271339 20.5350525,24.4748492 Z" id="路径" fill="url(#linearGradient-4)" opacity="0.7"></path>
            <path d="M10.02003,35.1173039 L10.02003,29.4748492 C10.02003,28.9225644 10.4677452,28.4748492 11.02003,28.4748492 L16.5350525,28.4748492 C17.0873372,28.4748492 17.5350525,28.9225644 17.5350525,29.4748492 L17.5350525,35.1173039 C17.5350525,35.6695887 17.0873372,36.1173039 16.5350525,36.1173039 L11.02003,36.1173039 C10.4677452,36.1173039 10.02003,35.6695887 10.02003,35.1173039 Z" id="路径" fill="url(#linearGradient-4)" opacity="0.409714472"></path>
            <path d="M50.1803102,29.466758 L42.1191961,34.1974375 L31.1276355,27.9920703 C30.8172482,27.8168389 30.437053,27.8200653 30.1296843,28.0005392 L27.4277337,29.5870101 C26.9514764,29.8666482 26.7920851,30.4794224 27.0717232,30.9556797 C27.1183345,31.0350644 27.1756842,31.1076326 27.2421476,31.1713285 L34.8521693,38.4644748 L34.8521693,38.4644748 L28.4518752,42.2245625 L23.3866136,39.822398 C23.0874036,39.6804998 22.7373511,39.6959283 22.4517854,39.8636003 L21.0263551,40.7005526 C20.5500978,40.9801907 20.3907064,41.592965 20.6703445,42.0692222 C20.7463725,42.1987071 20.8505842,42.3094084 20.9752458,42.3931107 L30.05007,48.4862804 L30.05007,48.4862804 C30.8420153,49.0156998 31.8599506,49.0452768 32.6803278,48.562705 L36.7634901,46.1680692 L54.1206871,35.9781295 C55.0143124,35.4536475 55.6565492,34.5785502 55.8967452,33.5581127 C56.1369412,32.5376753 55.9539606,31.4616905 55.3907259,30.5825564 C54.2810076,28.8477192 51.9413305,28.4324791 50.1803102,29.466758 Z" id="路径" fill-opacity="0.7" fill="url(#linearGradient-5)"></path>
        </g>
    </g>
</svg>