<?xml version="1.0" encoding="UTF-8"?>
<svg width="72px" height="72px" viewBox="0 0 72 72" version="1.1" xmlns="http://www.w3.org/2000/svg" xmlns:xlink="http://www.w3.org/1999/xlink">
    <title>检验设置备份</title>
    <g id="检验设置备份" stroke="none" stroke-width="1" fill="none" fill-rule="evenodd">
        <path d="M41.6050678,23.6655166 C39.6552739,20.801293 36.7069491,18.8623432 33.2977639,18.2081687 C32.4823956,18.0549386 31.6552103,17.9724301 30.8339334,17.9724301 C24.6182267,17.9724301 19.2592476,22.3984218 18.0834628,28.4922639 C17.427623,31.8927928 18.1425474,35.3404694 20.0864329,38.2105865 C22.0362268,41.0748102 24.9845516,43.0137599 28.3937368,43.6679345 C29.2091051,43.827058 30.0362904,43.903673 30.8634758,43.903673 C32.8191782,43.903673 34.7748806,43.4498763 36.5356036,42.595324 C36.5828713,42.6955129 39.6789077,40.6092265 39.5961892,40.526718 C41.6877863,38.6290225 43.076276,36.1655544 43.6080379,33.3838393 C44.2638777,29.9833104 43.5548617,26.5356338 41.6050678,23.6655166 Z M37.1973518,28.8930195 C37.0023724,28.6985352 36.718766,28.5688789 36.3997088,28.5394116 C36.3406242,28.5335182 36.2815395,28.5276247 36.2165464,28.5335182 C35.9211231,28.5335182 35.6493336,28.6101332 35.4307203,28.7515763 C35.1943817,28.8989129 35.0407615,29.1169711 35.0053108,29.3586032 L33.729082,32.352483 L31.6670272,25.9639677 C31.525224,25.5514252 31.0407297,25.2626455 30.4853339,25.2626455 L30.4439746,25.2626455 C29.9476634,25.2626455 29.5104369,25.4865971 29.321366,25.8343115 L29.3154575,25.8460984 L26.6034714,32.1933595 L24.1396409,30.295664 C23.9092107,30.11886 23.6078789,30.0245646 23.2829133,30.0245646 L21.658085,30.0245646 C21.6876273,29.7534653 21.7230781,29.4764724 21.7762543,29.2053731 C22.6093481,24.8736768 26.420309,21.7265669 30.8398419,21.7265669 C31.4247801,21.7265669 32.0156267,21.7855015 32.5946564,21.8915839 C35.0171277,22.3571676 37.1146333,23.7303447 38.4972144,25.7694834 C39.3716675,27.0542586 39.897521,28.5099443 40.0452327,30.0127777 L38.6331092,30.0127777 L37.1973518,28.8930195 Z M26.2548719,34.5978929 C26.4853021,34.7746968 26.7925424,34.8689923 27.117508,34.8689923 L27.1529588,34.8689923 C27.6433615,34.8689923 28.080588,34.6450406 28.269659,34.2973262 L28.2755674,34.2855393 L30.3080799,29.5295136 L32.3819516,35.9533897 C32.5178464,36.3659322 33.0023406,36.654712 33.5577365,36.654712 L33.5813703,36.654712 C34.1663085,36.654712 34.6626197,36.3364649 34.7689721,35.8944551 L36.7542168,31.2386183 L37.2387111,31.6158 C37.339155,31.692415 37.4573243,31.7572431 37.5814021,31.7984974 C37.7586561,31.8692189 37.9477271,31.9045797 38.1427064,31.9045797 L40.0334157,31.9045797 C40.0038734,32.1638922 39.9684226,32.4173111 39.9211549,32.6766236 C39.0880611,37.0083198 35.2771002,40.1554297 30.8634758,40.1554297 C30.2785376,40.1554297 29.6876909,40.0964951 29.1086612,39.9904127 C26.68619,39.5248291 24.5886844,38.1516519 23.2061032,36.1125132 C22.3434671,34.839525 21.8176136,33.4015197 21.6639935,31.9163667 L22.7688767,31.9104732 L26.2548719,34.5978929 Z" id="形状" fill="#60759C" fill-rule="nonzero" transform="translate(30.846145, 30.938052) rotate(-5.000000) translate(-30.846145, -30.938052) "></path>
        <g id="编组" transform="translate(7.000000, 8.000000)" fill-rule="nonzero">
            <path d="M21.9090909,0.5 C23.2898028,0.5 24.4090909,1.61928813 24.4090909,3 C24.4090909,4.3254834 23.377555,5.41003867 22.0734666,5.49468232 L21.9090909,5.5 L10.2835017,5.5 C7.71304814,5.5 5.61613007,7.52744636 5.50466076,10.0704258 L5.5,10.2835017 L5.5,44.8801347 C5.5,47.4505882 7.52744636,49.5475063 10.0704258,49.6589756 L10.2835017,49.6636364 L44.8801347,49.6636364 C47.4505882,49.6636364 49.5475063,47.63619 49.6589756,45.0932106 L49.6636364,44.8801347 L49.6636364,32.8806632 C49.6636364,31.4999514 50.7829245,30.3806632 52.1636364,30.3806632 C53.4891198,30.3806632 54.573675,31.4121992 54.6583187,32.7162875 L54.6636364,32.8806632 L54.6636364,44.8801347 C54.6636364,50.1918325 50.4306373,54.5148603 45.1539796,54.6598777 L44.8801347,54.6636364 L10.2835017,54.6636364 C4.9718039,54.6636364 0.648776029,50.4306373 0.503758623,45.1539796 L0.5,44.8801347 L0.5,10.2835017 C0.5,4.9718039 4.73299909,0.648776029 10.0096567,0.503758623 L10.2835017,0.5 L21.9090909,0.5 Z" id="路径" fill="#60759C" transform="translate(27.581818, 27.581818) scale(1, -1) translate(-27.581818, -27.581818) "></path>
            <g id="设置备份" transform="translate(29.581818, 31.472727)">
                <rect id="矩形" fill="#000000" opacity="0" x="0" y="0" width="27.4181818" height="27.4181818"></rect>
                <path d="M21.2490909,17.6268285 C22.0487879,16.2630969 23.419697,15.5812312 24.7906061,15.6948755 C25.0190909,14.8993654 25.1333333,13.990211 25.1333333,13.0810566 C25.1333333,12.2855466 25.0190909,11.4900365 24.9048485,10.8081707 C23.5339394,11.0354593 22.0487879,10.2399492 21.2490909,8.87621769 C20.4493939,7.51248613 20.5636364,5.80782168 21.4775757,4.78502301 C20.2209091,3.64858004 18.85,2.85306998 17.2506061,2.28484848 C16.7936364,3.64858004 15.4227273,4.5577344 13.7090909,4.5577344 C11.9954545,4.5577344 10.7387879,3.64858004 10.1675758,2.28484848 C8.56818182,2.85306996 7.19727273,3.76222435 5.94060608,4.89866729 C6.85454546,6.03511027 6.96878789,7.62613041 6.16909091,8.98986196 C5.36939394,10.3535935 3.88424244,11.0354593 2.51333335,10.8081707 C2.39909092,11.6036808 2.28484848,12.3991909 2.28484848,13.1947009 C2.28484848,14.1038553 2.39909092,14.8993654 2.62757576,15.6948755 C3.99848485,15.5812312 5.36939394,16.2630969 6.16909091,17.6268285 C6.85454546,18.9905601 6.85454546,20.4679359 6.05484848,21.6043789 C7.31151514,22.7408218 8.68242423,23.5363319 10.2818182,23.9909091 C10.8530303,22.7408218 12.109697,21.9453118 13.7090909,21.9453118 C15.3084848,21.9453118 16.5651515,22.7408218 17.1363636,23.9909091 C18.7357576,23.5363319 20.1066667,22.6271775 21.3633333,21.6043789 C20.5636364,20.4679359 20.449394,18.9905601 21.2490909,17.6268285 Z M13.7090909,18.0814057 C10.9672727,18.0814057 8.79666666,15.9221641 8.79666666,13.1947009 C8.79666666,10.4672378 10.9672727,8.30799619 13.7090909,8.30799619 C16.4509091,8.30799619 18.6215152,10.4672378 18.6215152,13.1947009 C18.6215152,15.9221641 16.4509091,18.0814057 13.7090909,18.0814057 Z" id="形状" fill="#60759C"></path>
            </g>
        </g>
    </g>
</svg>