<?xml version="1.0" encoding="UTF-8"?>
<svg width="72px" height="72px" viewBox="0 0 72 72" version="1.1" xmlns="http://www.w3.org/2000/svg" xmlns:xlink="http://www.w3.org/1999/xlink">
    <title>检验项目备份</title>
    <g id="检验项目备份" stroke="none" stroke-width="1" fill="none" fill-rule="evenodd">
        <g id="编组-2" transform="translate(9.000000, 14.000000)" fill="#60759C" fill-rule="nonzero">
            <path d="M44.5,-2.5 L8.5,-2.5 C2.70101013,-2.5 -2.00003806,2.20101013 -2.00003806,8 L-2.00003806,16.10274 L-1.02913312,16.8533627 C0.556283747,18.0790748 1.5,19.9590632 1.5,22 C1.5,24.0409368 0.556283747,25.9209252 -1.02913312,27.1466373 L-2.00003806,27.89726 L-2.00003806,36.0000117 C-2.00003806,41.7989899 2.70101013,46.5 8.5,46.5 L44.5,46.5 C50.2989899,46.5 55,41.7989899 55,36 L55.0007726,27.221395 L54.3058157,26.4960875 C53.1527413,25.2926552 52.5,23.7008762 52.5,22 C52.5,20.2991238 53.1527413,18.7073448 54.3058157,17.5039125 L55.0007726,16.778605 L55,7.99977999 C55,2.20101013 50.2989899,-2.5 44.5,-2.5 Z M8.5,2.5 L44.5,2.5 C47.5375661,2.5 50,4.96243388 50,8 L50.000879,14.8391957 C48.397776,16.8509256 47.5,19.357364 47.5,22 L47.5055467,22.3594816 C47.5793815,24.7499485 48.3879506,27.0143878 49.786664,28.8834448 L50,29.16 L50,35.99978 C50,39.0375661 47.5375661,41.5 44.5,41.5 L8.5,41.5 L8.27879286,41.4956328 C5.34378001,41.3795391 3,38.9634791 3,36 L2.999,30.26 L3.05461442,30.2085738 C5.23047716,28.0747257 6.5,25.1404719 6.5,22 L6.49479408,21.6519375 C6.40471801,18.6432739 5.14988965,15.8462429 3.05461442,13.7914262 L2.999,13.738 L3,8.00001174 C3,4.96243388 5.46243388,2.5 8.5,2.5 Z" id="形状结合"></path>
        </g>
        <path d="M41.5001281,25 L41.12749,25.6135458 C42.7200438,28.184595 44.6775471,30.1057058 47,31.3763659 L47,31.3763659 L45.4002703,34.1160504 C44.88285,33.7851796 44.3786065,33.4341413 43.8887025,33.063745 L43.8887025,33.063745 L43.8887025,34.2908367 L34.9043825,34.2908367 L34.9043825,33.1949628 C34.4059889,33.6201266 33.894363,34.0295299 33.3702616,34.422567 C32.8443652,33.3564223 32.3399967,32.4358473 31.8581813,31.6613546 L31.8581813,31.6613546 L30.5434403,31.6613546 L30.5434403,33.1734349 C31.5777334,33.9889938 32.5862795,34.8366854 33.5676009,35.7152676 L33.5676009,35.7152676 L31.749004,37.9280306 C31.3691899,37.4318632 30.9673353,36.9500478 30.5439528,36.4825843 L30.5439528,36.4825843 L30.5439528,46.5837935 L27.7606999,46.5837935 L27.7606999,37.3365252 C27.174655,38.7718603 26.4863866,40.1632999 25.7011952,41.5001281 C25.4674635,40.0100883 25.2337317,38.6733068 25,37.4902961 C26.0738492,35.6513113 26.9340528,33.6956465 27.5638732,31.6613546 L27.5638732,31.6613546 L25.2188672,31.6613546 L25.2188672,28.8130053 L27.7606999,28.8130053 L27.7606999,25.0435684 L30.5439528,25.0435684 L30.5439528,28.8130053 L32.8007968,28.8130053 L32.8007968,30.9606719 C34.8900305,29.3537662 36.6209781,27.3665339 37.994152,25 L37.994152,25 L41.5001281,25 Z M42.7713008,35.4743599 L45.6857715,36.1755551 C45.1737145,37.9874886 44.4361268,40.3171175 43.4719834,43.1654668 L43.4719834,43.1654668 L46.3864542,43.1654668 L46.3864542,45.8395424 L32.4501992,45.8395424 L32.4501992,43.1654668 L40.6887305,43.1654668 C41.62417,40.4924163 42.3176767,37.9285431 42.7713008,35.4743599 L42.7713008,35.4743599 Z M35.1012092,36.0658652 C35.938263,37.9471825 36.6770171,39.8707147 37.3144848,41.8286853 L37.3144848,41.8286853 L34.7290837,42.6836514 C34.2175392,40.8425013 33.5527364,38.943431 32.7346753,36.9864402 L32.7346753,36.9864402 Z M39.6810186,35.0361129 C40.2507168,36.9768135 40.7260841,38.9439683 41.1054495,40.9306633 L41.1054495,40.9306633 L38.5200485,41.5221686 C38.3155332,40.0905617 37.9065026,38.1253699 37.2929568,35.6276182 L37.2929568,35.6276182 Z M39.4406235,28.0897696 C38.5651157,29.3555003 37.590568,30.5497755 36.5261527,31.6613546 L36.5261527,31.6613546 L42.3110133,31.6613546 C41.3027888,30.6531302 40.3458214,29.4629435 39.4406235,28.0897696 Z" id="形状结合" fill="#60759C" fill-rule="nonzero"></path>
    </g>
</svg>