<?xml version="1.0" encoding="UTF-8"?>
<svg width="72px" height="72px" viewBox="0 0 72 72" version="1.1" xmlns="http://www.w3.org/2000/svg" xmlns:xlink="http://www.w3.org/1999/xlink">
    <title>检验方案备份</title>
    <g id="检验方案备份" stroke="none" stroke-width="1" fill="none" fill-rule="evenodd">
        <path d="M50.8974471,8.91741728 C56.0221181,8.91741728 60.3431377,12.4834448 60.4958257,17.1501719 L60.5,17.4057974 L60.5,27.5933449 C60.5,28.9740567 59.3807119,30.0933449 58,30.0933449 C56.6745166,30.0933449 55.5899613,29.0618089 55.5053177,27.7577206 L55.5,27.5933449 L55.5,17.4057974 C55.5,15.6379603 53.642755,14.0184893 51.1344694,13.9219629 L50.8974471,13.9174173 L19.1025529,13.9174173 C16.5547552,13.9174173 14.6203042,15.4833174 14.5054043,17.2405393 L14.5,17.4057974 L14.5,55.937 L18.752,58.858 L27.2704756,54.9778871 C27.9028679,54.6897651 28.6237904,54.6789553 29.2609617,54.9420544 L29.4325298,55.0205972 L37.039,58.856 L39.6819359,57.2167655 C40.8062773,56.5191499 42.2685717,56.8215985 43.0291697,57.8806119 L43.1243133,58.0230146 C43.8219289,59.1473561 43.5194803,60.6096505 42.4604669,61.3702485 L42.3180641,61.4653921 L38.4842814,63.8441239 C37.797035,64.2705369 36.9497084,64.3362689 36.2094718,64.0295137 L36.0406706,63.9521064 L28.251,60.025 L19.5391583,63.9948166 C18.79784,64.332566 17.9425003,64.2865452 17.2451211,63.8805311 L17.0871153,63.7804559 L10.5844645,59.3135384 C9.9578412,58.8830871 9.56402016,58.193247 9.50714014,57.4418974 L9.5,57.2528931 L9.5,17.4057974 C9.5,12.6998599 13.7295076,9.04979776 18.8238427,8.92093902 L19.1025529,8.91741728 L50.8974471,8.91741728 Z" id="路径" fill="#60759C" fill-rule="nonzero"></path>
        <rect id="矩形" stroke="#60759C" stroke-width="4" fill="#D8D8D8" transform="translate(26.500000, 40.593345) scale(1, -1) translate(-26.500000, -40.593345) " x="22" y="40.0933449" width="9" height="1" rx="0.5"></rect>
        <rect id="矩形备份" stroke="#60759C" stroke-width="4" fill="#D8D8D8" transform="translate(32.500000, 27.593345) scale(1, -1) translate(-32.500000, -27.593345) " x="22" y="27.0933449" width="21" height="1" rx="0.5"></rect>
        <path d="M57.0001165,36 L56.6613546,36.5577689 C58.1091307,38.8950863 59.8886792,40.6415508 62,41.7966963 L62,41.7966963 L60.5457002,44.2873186 C60.0753181,43.9865269 59.616915,43.6674012 59.1715477,43.3306773 L59.1715477,43.3306773 L59.1715477,44.4462151 L51.0039841,44.4462151 L51.0039841,43.4499662 C50.550899,43.8364788 50.0857845,44.2086636 49.6093288,44.56597 C49.1312411,43.5967475 48.6727243,42.7598611 48.2347103,42.0557769 L48.2347103,42.0557769 L47.0394912,42.0557769 L47.0394912,43.4303954 C47.9797576,44.1718126 48.8966177,44.9424412 49.7887281,45.7411523 L49.7887281,45.7411523 L48.1354582,47.7527551 C47.7901726,47.3016938 47.4248503,46.8636798 47.0399571,46.438713 L47.0399571,46.438713 L47.0399571,55.6216304 L44.5097272,55.6216304 L44.5097272,47.2150229 C43.9769591,48.519873 43.3512605,49.7848181 42.6374502,51.0001165 C42.4249668,49.6455348 42.2124834,48.4302789 42,47.3548147 C42.9762266,45.6830102 43.7582298,43.9051332 44.3307938,42.0557769 L44.3307938,42.0557769 L42.1989702,42.0557769 L42.1989702,39.4663684 L44.5097272,39.4663684 L44.5097272,36.0396077 L47.0399571,36.0396077 L47.0399571,39.4663684 L49.0916335,39.4663684 L49.0916335,41.4187927 C50.9909368,39.9579693 52.5645255,38.1513944 53.8128655,36 L53.8128655,36 L57.0001165,36 Z M58.155728,45.5221453 L60.8052468,46.1595955 C60.3397405,47.8068079 59.6692062,49.9246523 58.7927122,52.5140607 L58.7927122,52.5140607 L61.4422311,52.5140607 L61.4422311,54.9450386 L48.7729084,54.9450386 L48.7729084,52.5140607 L56.2624822,52.5140607 C57.1128818,50.0840148 57.7433424,47.753221 58.155728,45.5221453 L58.155728,45.5221453 Z M51.1829175,46.0598774 C51.9438755,47.7701659 52.6154701,49.5188315 53.1949861,51.2988048 L53.1949861,51.2988048 L50.8446215,52.0760467 C50.3795811,50.4022739 49.7752149,48.6758463 49.031523,46.8967638 L49.031523,46.8967638 Z M55.3463806,45.123739 C55.864288,46.8880123 56.29644,48.6763349 56.6413178,50.4824212 L56.6413178,50.4824212 L54.2909531,51.0201533 C54.1050302,49.7186925 53.7331842,47.9321544 53.1754153,45.6614711 L53.1754153,45.6614711 Z M55.1278395,38.8088814 C54.3319234,39.9595457 53.4459709,41.0452504 52.4783206,42.0557769 L52.4783206,42.0557769 L57.7372848,42.0557769 C56.8207171,41.1392092 55.9507467,40.0572214 55.1278395,38.8088814 Z" id="形状结合" fill="#60759C" fill-rule="nonzero"></path>
    </g>
</svg>