<?xml version="1.0" encoding="UTF-8"?>
<svg width="72px" height="72px" viewBox="0 0 72 72" version="1.1" xmlns="http://www.w3.org/2000/svg" xmlns:xlink="http://www.w3.org/1999/xlink">
    <title>取样备份</title>
    <g id="取样备份" stroke="none" stroke-width="1" fill="none" fill-rule="evenodd">
        <g id="编组-3" transform="translate(35.000000, 36.000000) scale(-1, -1) translate(-35.000000, -36.000000) translate(10.000000, 8.000000)" fill="#60759C" fill-rule="nonzero">
            <g id="编组">
                <path d="M34.5732775,0.795022151 C35.3119724,0.795022151 36.0389114,0.973756596 36.689978,1.31489842 L36.9304463,1.45040756 L37.0547463,1.52554511 L47.029,9.263 L47.0656262,9.28628453 C48.2119776,10.0621473 48.9345371,11.3216816 49.0074205,12.6999158 L49.0135135,12.930658 L49.0135135,48.6568073 C49.0135135,52.1085625 46.2083648,54.8828948 42.7453334,55.0018866 L42.5135135,55.0058639 L27.9500072,55.0058639 C26.5692953,55.0058639 25.4500072,53.8865758 25.4500072,52.5058639 C25.4500072,51.1803805 26.4815431,50.0958252 27.7856315,50.0111816 L27.9500072,50.0058639 L42.5135135,50.0058639 C43.3130291,50.0058639 43.9362939,49.4513741 44.0068527,48.7832955 L44.0135135,48.6568073 L44.013,13.251 L34.401,5.795 L7,5.79502215 C6.20048446,5.79502215 5.57721963,6.34951196 5.50666084,7.01759054 L5.5,7.14407875 L5.5,27.0188679 C5.5,28.3995798 4.38071187,29.5188679 3,29.5188679 C1.6745166,29.5188679 0.589961328,28.487332 0.50531768,27.1832436 L0.5,27.0188679 L0.5,7.14407875 C0.5,3.69232349 3.30514873,0.917991275 6.76818016,0.7989994 L7,0.795022151 L34.5732775,0.795022151 Z" id="路径"></path>
                <path d="M34.6081081,2 L34.6081081,8.54716981 C34.6081081,9.87265321 35.639644,10.9572085 36.9437324,11.0418521 L37.1081081,11.0471698 L46.1081081,11.0471698 L46.1081081,16.0471698 L37.1081081,16.0471698 C33.0471908,16.0471698 29.7400906,12.8196954 29.6119617,8.78990087 L29.6081081,8.54716981 L29.6081081,2 L34.6081081,2 Z" id="路径-6"></path>
            </g>
        </g>
        <g id="编组" transform="translate(25.000000, 11.000000)" fill="#60759C" fill-rule="nonzero">
            <path d="M30.0004881,2.76976127 L28.1283607,0.895596817 C26.935187,-0.296841922 25.0014496,-0.296841922 23.8082759,0.895596817 L19.4623873,5.24488064 L17.3617613,3.14323607 L13.2060053,7.30238727 L14.9375703,9.03395225 L3.07261538,20.9036605 C2.31258465,21.662925 1.85977327,22.6761585 1.80110345,23.7488594 L1.11017507,24.4380902 C-0.358804498,25.9182363 -0.35473565,28.3074543 1.11927677,29.7825885 C2.59328919,31.2577227 4.98250337,31.2636091 6.46376658,29.795756 L7.15401592,29.10313 C8.22756107,29.0477347 9.2421556,28.5951365 10.0005729,27.8333156 L21.8655279,15.9636074 L23.5970928,17.6951724 L27.7531883,13.5394164 L25.6529019,11.4377719 L29.9987905,7.09188329 C30.5722869,6.51902437 30.8946684,5.74176966 30.8949871,4.93117395 C30.8953052,4.12057824 30.5735343,3.34307052 30.0004881,2.76976127 Z M8.08159151,25.911618 C7.58340173,26.4110332 6.82315693,26.539218 6.18875332,26.2307692 L4.54512467,27.8740584 C4.27462629,28.1447993 3.88023688,28.2506652 3.51051912,28.1517772 C3.14080136,28.0528892 2.85192417,27.7642709 2.7527048,27.3946419 C2.65348542,27.0250129 2.75899764,26.6305288 3.02949602,26.3597878 L4.67244562,24.7131034 C4.36496324,24.0792367 4.49279278,23.3201636 4.99091777,22.8219629 L16.8558727,10.9522546 L19.9455279,14.045305 L8.08159151,25.911618 Z" id="形状"></path>
        </g>
    </g>
</svg>