<?xml version="1.0" encoding="UTF-8"?>
<svg width="72px" height="72px" viewBox="0 0 72 72" version="1.1" xmlns="http://www.w3.org/2000/svg" xmlns:xlink="http://www.w3.org/1999/xlink">
    <title>取样单备份</title>
    <g id="取样单备份" stroke="none" stroke-width="1" fill="none" fill-rule="evenodd">
        <g id="编组-3" transform="translate(35.000000, 36.500000) scale(-1, -1) translate(-35.000000, -36.500000) translate(13.000000, 11.000000)" fill="#60759C" fill-rule="nonzero">
            <g id="编组">
                <path d="M31.5732775,-1.20497785 C32.3119724,-1.20497785 33.0389114,-1.0262434 33.689978,-0.685101584 L33.9304463,-0.549592444 L34.0547463,-0.474454892 L44.029,7.263 L44.0656262,7.28628453 C45.2119776,8.06214728 45.9345371,9.32168164 46.0074205,10.6999158 L46.0135135,10.930658 L46.0135135,46.6568073 C46.0135135,50.1085625 43.2083648,52.8828948 39.7453334,53.0018866 L39.5135135,53.0058639 L24.9500072,53.0058639 C23.5692953,53.0058639 22.4500072,51.8865758 22.4500072,50.5058639 C22.4500072,49.1803805 23.4815431,48.0958252 24.7856315,48.0111816 L24.9500072,48.0058639 L39.5135135,48.0058639 C40.3130291,48.0058639 40.9362939,47.4513741 41.0068527,46.7832955 L41.0135135,46.6568073 L41.013,11.251 L31.401,3.795 L4,3.79502215 C3.20048446,3.79502215 2.57721963,4.34951196 2.50666084,5.01759054 L2.5,5.14407875 L2.5,25.0188679 C2.5,26.3995798 1.38071187,27.5188679 0,27.5188679 C-1.3254834,27.5188679 -2.41003867,26.487332 -2.49468232,25.1832436 L-2.5,25.0188679 L-2.5,5.14407875 C-2.5,1.69232349 0.305148727,-1.08200872 3.76818016,-1.2010006 L4,-1.20497785 L31.5732775,-1.20497785 Z" id="路径"></path>
                <path d="M31.6081081,0 L31.6081081,6.54716981 C31.6081081,7.87265321 32.639644,8.95720848 33.9437324,9.04185213 L34.1081081,9.04716981 L43.1081081,9.04716981 L43.1081081,14.0471698 L34.1081081,14.0471698 C30.0471908,14.0471698 26.7400906,10.8196954 26.6119617,6.78990087 L26.6081081,6.54716981 L26.6081081,0 L31.6081081,0 Z" id="路径-6"></path>
            </g>
        </g>
        <g id="编组" transform="translate(25.000000, 11.000000)" fill="#60759C" fill-rule="nonzero">
            <path d="M30.0004881,2.76976127 L28.1283607,0.895596817 C26.935187,-0.296841922 25.0014496,-0.296841922 23.8082759,0.895596817 L19.4623873,5.24488064 L17.3617613,3.14323607 L13.2060053,7.30238727 L14.9375703,9.03395225 L3.07261538,20.9036605 C2.31258465,21.662925 1.85977327,22.6761585 1.80110345,23.7488594 L1.11017507,24.4380902 C-0.358804498,25.9182363 -0.35473565,28.3074543 1.11927677,29.7825885 C2.59328919,31.2577227 4.98250337,31.2636091 6.46376658,29.795756 L7.15401592,29.10313 C8.22756107,29.0477347 9.2421556,28.5951365 10.0005729,27.8333156 L21.8655279,15.9636074 L23.5970928,17.6951724 L27.7531883,13.5394164 L25.6529019,11.4377719 L29.9987905,7.09188329 C30.5722869,6.51902437 30.8946684,5.74176966 30.8949871,4.93117395 C30.8953052,4.12057824 30.5735343,3.34307052 30.0004881,2.76976127 Z M8.08159151,25.911618 C7.58340173,26.4110332 6.82315693,26.539218 6.18875332,26.2307692 L4.54512467,27.8740584 C4.27462629,28.1447993 3.88023688,28.2506652 3.51051912,28.1517772 C3.14080136,28.0528892 2.85192417,27.7642709 2.7527048,27.3946419 C2.65348542,27.0250129 2.75899764,26.6305288 3.02949602,26.3597878 L4.67244562,24.7131034 C4.36496324,24.0792367 4.49279278,23.3201636 4.99091777,22.8219629 L16.8558727,10.9522546 L19.9455279,14.045305 L8.08159151,25.911618 Z" id="形状"></path>
        </g>
    </g>
</svg>