<?xml version="1.0" encoding="UTF-8"?>
<svg width="72px" height="72px" viewBox="0 0 72 72" version="1.1" xmlns="http://www.w3.org/2000/svg" xmlns:xlink="http://www.w3.org/1999/xlink">
    <title>质检报告备份</title>
    <g id="质检报告备份" stroke="none" stroke-width="1" fill="none" fill-rule="evenodd">
        <path d="M50.8974471,8.91741728 C56.0221181,8.91741728 60.3431377,12.4834448 60.4958257,17.1501719 L60.5,17.4057974 L60.5,27.5933449 C60.5,28.9740567 59.3807119,30.0933449 58,30.0933449 C56.6745166,30.0933449 55.5899613,29.0618089 55.5053177,27.7577206 L55.5,27.5933449 L55.5,17.4057974 C55.5,15.6379603 53.642755,14.0184893 51.1344694,13.9219629 L50.8974471,13.9174173 L19.1025529,13.9174173 C16.5547552,13.9174173 14.6203042,15.4833174 14.5054043,17.2405393 L14.5,17.4057974 L14.5,55.937 L18.752,58.858 L27.2704756,54.9778871 C27.9028679,54.6897651 28.6237904,54.6789553 29.2609617,54.9420544 L29.4325298,55.0205972 L37.039,58.856 L39.6819359,57.2167655 C40.8062773,56.5191499 42.2685717,56.8215985 43.0291697,57.8806119 L43.1243133,58.0230146 C43.8219289,59.1473561 43.5194803,60.6096505 42.4604669,61.3702485 L42.3180641,61.4653921 L38.4842814,63.8441239 C37.797035,64.2705369 36.9497084,64.3362689 36.2094718,64.0295137 L36.0406706,63.9521064 L28.251,60.025 L19.5391583,63.9948166 C18.79784,64.332566 17.9425003,64.2865452 17.2451211,63.8805311 L17.0871153,63.7804559 L10.5844645,59.3135384 C9.9578412,58.8830871 9.56402016,58.193247 9.50714014,57.4418974 L9.5,57.2528931 L9.5,17.4057974 C9.5,12.6998599 13.7295076,9.04979776 18.8238427,8.92093902 L19.1025529,8.91741728 L50.8974471,8.91741728 Z" id="路径" fill="#60759C" fill-rule="nonzero"></path>
        <path d="M66,49.5369486 C66,50.2389897 65.6862024,50.8752683 65.1917969,51.3111605 L57.1247583,58.460687 C56.694507,58.8373585 56.1251387,59.0666667 55.5041681,59.0666667 C54.1639038,59.0666667 53.0785128,58.0020707 53.0785128,56.6861308 C53.0785128,55.9761706 53.3923104,55.3478111 53.8867159,54.9119189 L57.2670132,51.9178287 L46.4183334,51.9178287 C45.082253,51.9178287 44,50.8532327 44,49.5297181 C44,48.2137783 45.082253,47.1491823 46.4183334,47.1491823 L57.2670132,47.1491823 L53.8867159,44.1547478 C53.3923104,43.7185113 53.0785128,43.0863644 53.0785128,42.3808801 C53.0785128,41.064596 54.1639038,40 55.5041681,40 C56.1251387,40 56.694507,40.2293082 57.1247583,40.6135544 L65.1917969,47.7627366 C65.6858538,48.1986288 66,48.8345631 66,49.5369486" id="路径" fill="#60759C" transform="translate(55.000000, 49.533333) scale(1, -1) rotate(90.000000) translate(-55.000000, -49.533333) "></path>
        <g id="编组" transform="translate(22.000000, 21.000000)" fill="#60759C" fill-rule="nonzero">
            <path d="M12.8914742,11.7572181 C12.8914742,11.3648268 12.5610394,11.034392 12.1686481,11.034392 L11.0327785,11.034392 C10.6403872,11.034392 10.3099524,11.3648268 10.3099524,11.7572181 L10.3099524,12.583305 C10.3099524,13.884392 9.97951766,15.8050442 4.85777853,17.2300442 C4.34147418,17.3746094 4.15560462,18.0148268 4.50669158,18.4278702 C4.69256114,18.634392 4.87843071,18.8409137 5.02299592,19.0474355 C5.20886549,19.2746094 5.5186481,19.3778702 5.78712636,19.2952615 C12.0034307,17.4365659 12.8914742,14.6691746 12.8914742,12.6659137 L12.8914742,11.7572181 L12.8914742,11.7572181 Z M18.1784307,17.333305 C16.8773437,16.7137398 15.2251698,15.9909137 13.8001698,15.4539572 C13.5523437,15.3506963 13.2838655,15.4126529 13.0979959,15.5778702 C12.9534307,15.6811311 12.7882133,15.8256963 12.6229959,15.9702615 C12.2099524,16.3213485 12.2925611,17.0028702 12.8088655,17.209392 C14.2751698,17.808305 15.8447351,18.5724355 16.9393003,19.1713485 C17.2077785,19.3159137 17.5588655,19.2746094 17.8686481,18.9854789 L18.3643003,18.5311311 C18.7360394,18.159392 18.6327785,17.5398268 18.1784307,17.333305 Z" id="形状"></path>
            <path d="M1.90451766,2.19526155 L1.90451766,7.33765285 C1.90451766,10.2496094 1.75995245,14.3180876 0.169735054,17.3126529 C-0.0161345109,17.6637398 0.128430707,18.0974355 0.479517663,18.283305 C0.768648098,18.4278702 1.05777853,18.5930876 1.32625679,18.7789572 C1.67734375,19.0061311 2.15234375,18.8615659 2.35886549,18.4898268 C4.05234375,15.2061311 4.32082201,10.559392 4.32082201,7.33765285 L4.32082201,7.15178329 C4.32082201,6.63547894 4.32082201,6.63547894 4.83712636,6.63547894 L9.33930027,6.63547894 C9.85560462,6.63547894 9.85560462,6.69743546 9.85560462,7.19308764 C9.85560462,7.44091372 9.81430027,7.64743546 9.7936481,7.87460937 C9.77299592,7.99852242 9.66973505,8.10178329 9.54582201,8.10178329 L6.09690897,8.10178329 C5.70451766,8.10178329 5.37408288,8.43221807 5.37408288,8.82460937 L5.37408288,14.5659137 C5.37408288,14.958305 5.70451766,15.2887398 6.09690897,15.2887398 L7.10886549,15.2887398 C7.50125679,15.2887398 7.83169158,14.958305 7.83169158,14.5659137 L7.83169158,10.6213485 C7.83169158,10.4767833 7.95560462,10.3528702 8.10016984,10.3528702 L14.8947351,10.3528702 C15.0393003,10.3528702 15.1632133,10.4767833 15.1632133,10.6213485 L15.1632133,14.7517833 C15.1632133,15.1441746 15.4936481,15.4746094 15.8860394,15.4746094 L17.0012568,15.4746094 C17.3936481,15.4746094 17.7240829,15.1441746 17.7240829,14.7517833 L17.7240829,8.76265285 C17.7240829,8.39091372 17.4349524,8.10178329 17.0632133,8.10178329 L12.4577785,8.10178329 C12.271909,8.10178329 12.1066916,7.9365659 12.1479959,7.73004416 L12.2925611,6.80069633 C12.3132133,6.69743546 12.395822,6.63547894 12.4990829,6.63547894 L18.2403872,6.63547894 C18.6327785,6.63547894 18.9632133,6.30504416 18.9632133,5.91265285 L18.9632133,5.25178329 C18.9632133,4.85939198 18.6327785,4.5289572 18.2403872,4.5289572 L12.7882133,4.5289572 C12.6643003,4.5289572 12.5610394,4.42569633 12.5610394,4.30178329 C12.6023438,3.88873981 12.6436481,3.45504416 12.6643003,3.06265285 C12.6643003,2.93873981 12.7675611,2.83547894 12.8914742,2.81482677 C14.1306046,2.64960937 15.3490829,2.48439198 16.4643003,2.27787024 C17.0425611,2.17460937 17.2697351,1.47243546 16.8566916,1.05939198 C16.6088655,0.790913723 16.3403872,0.543087636 16.1545177,0.357218071 C15.9893003,0.192000679 15.7414742,0.109391984 15.5143003,0.171348505 C12.2925611,0.832218071 7.19147418,1.30721807 2.5860394,1.51373981 C2.21430027,1.47243546 1.90451766,1.80287024 1.90451766,2.19526155 L1.90451766,2.19526155 Z M4.5686481,3.49634851 C6.26212636,3.39308764 8.01756114,3.28982677 9.73169158,3.12460937 C9.89690897,3.1039572 10.0621264,3.24852242 10.0414742,3.41373981 C10.0414742,3.70287024 10.020822,3.97134851 10.020822,4.26047894 C10.020822,4.38439198 9.91756114,4.48765285 9.77299592,4.48765285 L4.67190897,4.48765285 C4.4860394,4.48765285 4.32082201,4.32243546 4.32082201,4.1365659 L4.32082201,3.74417459 C4.32082201,3.62026155 4.42408288,3.51700068 4.5686481,3.49634851 Z" id="形状"></path>
        </g>
    </g>
</svg>