<?xml version="1.0" encoding="UTF-8"?>
<svg width="72px" height="72px" viewBox="0 0 72 72" version="1.1" xmlns="http://www.w3.org/2000/svg" xmlns:xlink="http://www.w3.org/1999/xlink">
    <title>报检单备份</title>
    <g id="报检单备份" stroke="none" stroke-width="1" fill="none" fill-rule="evenodd">
        <g id="编组-3" transform="translate(10.000000, 7.000000)">
            <g id="编组" fill="#60759C" fill-rule="nonzero">
                <path d="M28.5732775,0.845807333 L7,0.845807333 C3.41014913,0.845807333 0.5,3.75595646 0.5,7.34580733 L0.5,50.486486 C0.5,54.0763369 3.41014913,56.986486 7,56.986486 L42.5135135,56.986486 C46.1033644,56.986486 49.0135135,54.0763369 49.0135135,50.486486 L49.0135135,15.3593112 C49.0135135,13.8114218 48.2179695,12.3721776 46.9072448,11.5487928 L30.9670087,1.5352889 C30.2498748,1.08479222 29.4201708,0.845807333 28.5732775,0.845807333 Z M28.428,5.845 L44.013,15.635 L44.0135135,50.486486 C44.0135135,51.3149131 43.3419406,51.986486 42.5135135,51.986486 L7,51.986486 C6.17157288,51.986486 5.5,51.3149131 5.5,50.486486 L5.5,7.34580733 C5.5,6.51738021 6.17157288,5.84580733 7,5.84580733 L28.428,5.845 Z" id="路径-5"></path>
                <path d="M31.6081081,2 L31.6081081,12 C31.6081081,13.3254834 32.639644,14.4100387 33.9437324,14.4946823 L34.1081081,14.5 L46.1081081,14.5 L46.1081081,19.5 L34.1081081,19.5 C30.0471908,19.5 26.7400906,16.2725256 26.6119617,12.2427311 L26.6081081,12 L26.6081081,2 L31.6081081,2 Z" id="路径-6"></path>
            </g>
            <rect id="矩形备份" stroke="#60759C" stroke-width="4" fill="#D8D8D8" x="12.1555556" y="18" width="5.2" height="1" rx="0.5"></rect>
        </g>
        <path d="M46,43.5369486 C46,44.2389897 45.6862024,44.8752683 45.1917969,45.3111605 L37.1247583,52.460687 C36.694507,52.8373585 36.1251387,53.0666667 35.5041681,53.0666667 C34.1639038,53.0666667 33.0785128,52.0020707 33.0785128,50.6861308 C33.0785128,49.9761706 33.3923104,49.3478111 33.8867159,48.9119189 L37.2670132,45.9178287 L26.4183334,45.9178287 C25.082253,45.9178287 24,44.8532327 24,43.5297181 C24,42.2137783 25.082253,41.1491823 26.4183334,41.1491823 L37.2670132,41.1491823 L33.8867159,38.1547478 C33.3923104,37.7185113 33.0785128,37.0863644 33.0785128,36.3808801 C33.0785128,35.064596 34.1639038,34 35.5041681,34 C36.1251387,34 36.694507,34.2293082 37.1247583,34.6135544 L45.1917969,41.7627366 C45.6858538,42.1986288 46,42.8345631 46,43.5369486" id="路径" fill="#60759C"></path>
    </g>
</svg>