<?xml version="1.0" encoding="UTF-8"?>
<svg width="72px" height="72px" viewBox="0 0 72 72" version="1.1" xmlns="http://www.w3.org/2000/svg" xmlns:xlink="http://www.w3.org/1999/xlink">
    <title>不合格处理单备份</title>
    <g id="不合格处理单备份" stroke="none" stroke-width="1" fill="none" fill-rule="evenodd">
        <path d="M31,8.5 C32.3807119,8.5 33.5,9.61928813 33.5,11 C33.5,12.3254834 32.4684641,13.4100387 31.1643757,13.4946823 L31,13.5 L18.8148148,13.5 C16.5018968,13.5 14.6140261,15.3198437 14.5049757,17.6057581 L14.5,17.8148148 L14.5,50.1851852 C14.5,52.4981032 16.3198437,54.3859739 18.6057581,54.4950243 L18.8148148,54.5 L51.1851852,54.5 C53.4981032,54.5 55.3859739,52.6801563 55.4950243,50.3942419 L55.5,50.1851852 L55.5,39.2307692 C55.5,37.8500574 56.6192881,36.7307692 58,36.7307692 C59.3254834,36.7307692 60.4100387,37.7623052 60.4946823,39.0663935 L60.5,39.2307692 L60.5,50.1851852 C60.5,55.2393622 56.4746611,59.3533709 51.455028,59.4961665 L51.1851852,59.5 L18.8148148,59.5 C13.7606378,59.5 9.64662908,55.4746611 9.50383351,50.455028 L9.5,50.1851852 L9.5,17.8148148 C9.5,12.7606378 13.5253389,8.64662908 18.544972,8.50383351 L18.8148148,8.5 L31,8.5 Z" id="路径" fill="#60759C" fill-rule="nonzero" transform="translate(35.000000, 34.000000) scale(1, -1) translate(-35.000000, -34.000000) "></path>
        <rect id="矩形" stroke="#60759C" stroke-width="4" fill="#D8D8D8" x="22" y="22" width="26" height="1" rx="0.5"></rect>
        <rect id="矩形备份" stroke="#60759C" stroke-width="4" fill="#D8D8D8" x="22" y="34" width="16" height="1" rx="0.5"></rect>
        <path d="M50.1464466,38.1464466 C50.6380712,38 50.7630712,38.0559644 50.8535534,38.1464466 C50.9440356,38.2369288 51,38.3619288 51,38.5 L51,38.5 L51,48 L60.5,48 C60.6380712,48 60.7630712,48.0559644 60.8535534,48.1464466 C60.9440356,48.2369288 61,48.3619288 61,48.5 C61,48.6380712 60.9440356,48.7630712 60.8535534,48.8535534 C60.7630712,48.9440356 60.6380712,49 60.5,49 L60.5,49 L51,49 L51,58.5 C51,58.6380712 50.9440356,58.7630712 50.8535534,58.8535534 C50.7630712,58.9440356 50.6380712,59 50.5,59 C50.3619288,59 50.2369288,58.9440356 50.1464466,58.8535534 C50.0559644,58.7630712 50,58.6380712 50,58.5 L50,58.5 L50,49 L40.5,49 C40.3619288,49 40.2369288,48.9440356 40.1464466,48.8535534 C40.0559644,48.7630712 40,48.6380712 40,48.5 C40,48.3619288 40.0559644,48.2369288 40.1464466,48.1464466 C40.2369288,48.0559644 40.3619288,48 40.5,48 L40.5,48 L50,48 L50,38.5 C50,38.3619288 50.0559644,38.2369288 50.1464466,38.1464466 Z" id="形状结合" stroke="#60759C" stroke-width="4" fill="#D8D8D8" transform="translate(50.500000, 48.500000) rotate(-45.000000) translate(-50.500000, -48.500000) "></path>
    </g>
</svg>