<?xml version="1.0" encoding="UTF-8"?>
<svg width="72px" height="72px" viewBox="0 0 72 72" version="1.1" xmlns="http://www.w3.org/2000/svg" xmlns:xlink="http://www.w3.org/1999/xlink">
    <title>紧急放行单备份</title>
    <g id="紧急放行单备份" stroke="none" stroke-width="1" fill="none" fill-rule="evenodd">
        <g id="编组" transform="translate(10.000000, 11.000000)" fill="#60759C" fill-rule="nonzero">
            <path d="M18.9090909,-2.5 C20.2898028,-2.5 21.4090909,-1.38071187 21.4090909,0 C21.4090909,1.3254834 20.377555,2.41003867 19.0734666,2.49468232 L18.9090909,2.5 L7.28350168,2.5 C4.71304814,2.5 2.61613007,4.52744636 2.50466076,7.07042577 L2.5,7.28350168 L2.5,41.8801347 C2.5,44.4505882 4.52744636,46.5475063 7.07042577,46.6589756 L7.28350168,46.6636364 L41.8801347,46.6636364 C44.4505882,46.6636364 46.5475063,44.63619 46.6589756,42.0932106 L46.6636364,41.8801347 L46.6636364,29.8806632 C46.6636364,28.4999514 47.7829245,27.3806632 49.1636364,27.3806632 C50.4891198,27.3806632 51.573675,28.4121992 51.6583187,29.7162875 L51.6636364,29.8806632 L51.6636364,41.8801347 C51.6636364,47.1918325 47.4306373,51.5148603 42.1539796,51.6598777 L41.8801347,51.6636364 L7.28350168,51.6636364 C1.9718039,51.6636364 -2.35122397,47.4306373 -2.49624138,42.1539796 L-2.5,41.8801347 L-2.5,7.28350168 C-2.5,1.9718039 1.73299909,-2.35122397 7.00965673,-2.49624138 L7.28350168,-2.5 L18.9090909,-2.5 Z" id="路径" transform="translate(24.581818, 24.581818) scale(1, -1) translate(-24.581818, -24.581818) "></path>
        </g>
        <path d="M62,52.6699532 C62,53.3081725 61.7147295,53.8866076 61.2652699,54.2828732 L53.9315985,60.7824428 C53.5404609,61.1248713 53.0228533,61.3333333 52.4583347,61.3333333 C51.2399125,61.3333333 50.2531934,60.3655188 50.2531934,59.1692098 C50.2531934,58.5237915 50.538464,57.9525555 50.9879235,57.5562899 L54.0609211,54.8343897 L44.1984849,54.8343897 C42.9838664,54.8343897 42,53.8665752 42,52.6633801 C42,51.4670712 42.9838664,50.4992566 44.1984849,50.4992566 L54.0609211,50.4992566 L50.9879235,47.7770434 C50.538464,47.3804648 50.2531934,46.8057858 50.2531934,46.1644365 C50.2531934,44.9678146 51.2399125,44 52.4583347,44 C53.0228533,44 53.5404609,44.208462 53.9315985,44.5577767 L61.2652699,51.0570333 C61.7144125,51.4532989 62,52.031421 62,52.6699532" id="路径" fill="#60759C"></path>
        <g id="编组" transform="translate(19.000000, 20.000000)" fill="#60759C" fill-rule="nonzero">
            <path d="M14.9670852,0.669504468 C15.7081824,1.09205958 16.3278975,1.6972955 16.7675721,2.42644394 L16.8291516,2.5314446 L24.3008772,15.6159312 C24.9852336,16.8110511 25.1189078,18.174821 24.7813835,19.4099906 C24.4440567,20.6444376 23.6362132,21.7501154 22.4408377,22.4293734 C21.7224016,22.8426332 20.9071236,23.0684122 20.081392,23.0889779 L19.9574646,23.0905214 L5.00741681,23.0905214 C3.62944236,23.0905214 2.37979488,22.5302061 1.4747251,21.6251363 C0.569655319,20.7200665 0.0093399459,19.4704191 0.0093399459,18.0924447 C0.0093399459,17.2644667 0.215956442,16.4502583 0.609353377,15.7245067 L0.669761291,15.6163167 L8.14783232,2.53118684 C8.83282558,1.33321291 9.93831349,0.525933806 11.1722256,0.189083049 C12.4061377,-0.147767708 13.768474,-0.0141901164 14.9670852,0.669504468 Z M12.4914072,3.4420474 C12.2084173,3.44137684 11.9373533,3.5164142 11.7018002,3.65278786 C11.4662483,3.78916074 11.266207,3.98686928 11.1265061,4.23153901 L11.1265061,4.23153901 L3.64839276,17.316743 L3.60974869,17.3880687 C3.4996335,17.60493 3.44205795,17.8469457 3.44205795,18.0924447 C3.44205795,18.5255801 3.61835977,18.9182053 3.9020812,19.2027397 C4.18561429,19.4870852 4.57672698,19.6637812 5.00741681,19.6637812 L5.00741681,19.6637812 L19.9634423,19.6637812 L20.0440001,19.6616329 C20.2854697,19.6487735 20.5242727,19.5784583 20.737999,19.4580851 C21.1137208,19.2421188 21.3676187,18.8931841 21.4743439,18.5045739 C21.5806813,18.1173759 21.5409347,17.6902814 21.3279316,17.3158444 L21.3279316,17.3158444 L13.8504312,4.23171508 L13.8111859,4.16702729 C13.6752873,3.95475759 13.4891465,3.77662748 13.2697857,3.64993675 C13.0223346,3.51043967 12.7570201,3.4420474 12.4914072,3.4420474 Z" id="形状"></path>
            <path d="M13.7002961,15.9468044 C14.0101782,16.2566865 14.2017887,16.6853812 14.2017887,17.1616708 L14.2017887,17.0941808 C14.2017887,17.5661795 14.0092591,17.995601 13.6980545,18.3068056 C13.3868499,18.6180101 12.9574284,18.8105397 12.4854296,18.8105397 C12.0134309,18.8105397 11.5840094,18.6180101 11.2728048,18.3068056 C10.9616002,17.995601 10.7690706,17.5661795 10.7690706,17.0941808 L10.7690706,17.1616708 C10.7690706,16.6896721 10.9616002,16.2602506 11.2728048,15.949046 C11.5840094,15.6378415 12.0134309,15.4453118 12.4854296,15.4453118 C12.9617193,15.4453118 13.390414,15.6369224 13.7002961,15.9468044 Z M13.6990788,7.19503812 C14.0096787,7.505638 14.2017887,7.93472775 14.2017887,8.40868719 L14.2017887,12.3061007 C14.2017887,12.7780994 14.0092591,13.2075209 13.6980545,13.5187255 C13.3868499,13.82993 12.9574284,14.0224596 12.4854296,14.0224596 C12.0134309,14.0224596 11.5840094,13.82993 11.2728048,13.5187255 C10.9616002,13.2075209 10.7690706,12.7780994 10.7690706,12.3061007 L10.7690706,8.40868719 C10.7690706,7.93668847 10.9616002,7.50726701 11.2728048,7.19606242 C11.5840094,6.88485785 12.0134309,6.69232823 12.4854296,6.69232823 C12.9593891,6.69232823 13.3884789,6.88443825 13.6990788,7.19503812 Z" id="形状"></path>
        </g>
    </g>
</svg>