<?xml version="1.0" encoding="UTF-8"?>
<svg width="72px" height="72px" viewBox="0 0 72 72" version="1.1" xmlns="http://www.w3.org/2000/svg" xmlns:xlink="http://www.w3.org/1999/xlink">
    <title>质检查询备份</title>
    <g id="质检查询备份" stroke="none" stroke-width="1" fill="none" fill-rule="evenodd">
        <g id="编组-2" transform="translate(11.000000, 10.000000)" fill="#60759C">
            <path d="M14.4967608,-2.5 C15.8774727,-2.5 16.9967608,-1.38071187 16.9967608,0 C16.9967608,1.3254834 15.9652249,2.41003867 14.6611365,2.49468232 L14.4967608,2.5 L7.25925926,2.5 C4.70183258,2.5 2.61554153,4.51717141 2.50463714,7.0472632 L2.5,7.25925926 L2.5,41.7407407 C2.5,44.2981674 4.51717141,46.3844585 7.0472632,46.4953629 L7.25925926,46.5 L41.7407407,46.5 C44.2981674,46.5 46.3844585,44.4828286 46.4953629,41.9527368 L46.5,41.7407407 L46.5,33.2249371 C46.5,31.8442252 47.6192881,30.7249371 49,30.7249371 C50.3254834,30.7249371 51.4100387,31.756473 51.4946823,33.0605614 L51.5,33.2249371 L51.5,41.7407407 C51.5,47.0392767 47.2774898,51.3515926 42.0139071,51.4962507 L41.7407407,51.5 L7.25925926,51.5 C1.96072327,51.5 -2.35159262,47.2774898 -2.49625069,42.0139071 L-2.5,41.7407407 L-2.5,7.25925926 C-2.5,1.96072327 1.7225102,-2.35159262 6.98609287,-2.49625069 L7.25925926,-2.5 L14.4967608,-2.5 Z" id="路径" fill-rule="nonzero" transform="translate(24.500000, 24.500000) scale(1, -1) translate(-24.500000, -24.500000) "></path>
            <g id="编组" transform="translate(36.995958, 41.000604) rotate(-17.000000) translate(-36.995958, -41.000604) translate(24.995958, 24.000604)">
                <path d="M18.918011,19.592383 C19.9869492,19.592383 20.8534949,20.4589286 20.8534949,21.5278669 L20.8534949,31.592383 C20.8534949,32.6613212 19.9869492,33.5278669 18.918011,33.5278669 C17.8490728,33.5278669 16.9825272,32.6613212 16.9825272,31.592383 L16.9825272,21.5278669 C16.9825272,20.4589286 17.8490728,19.592383 18.918011,19.592383 Z" id="矩形" transform="translate(18.918011, 26.560125) rotate(-29.000000) translate(-18.918011, -26.560125) "></path>
                <path d="M11.0627935,-1.77492336 C3.90981519,-1.77492336 -1.88881942,4.02371125 -1.88881942,11.1766895 C-1.88881942,18.3296678 3.90981519,24.1283024 11.0627935,24.1283024 C18.2157718,24.1283024 24.0144064,18.3296678 24.0144064,11.1766895 C24.0144064,4.02371125 18.2157718,-1.77492336 11.0627935,-1.77492336 Z M11.0627935,3.22507664 C15.454348,3.22507664 19.0144064,6.785135 19.0144064,11.1766895 C19.0144064,15.5682441 15.454348,19.1283024 11.0627935,19.1283024 C6.67123894,19.1283024 3.11118058,15.5682441 3.11118058,11.1766895 C3.11118058,6.785135 6.67123894,3.22507664 11.0627935,3.22507664 Z" id="椭圆形" fill-rule="nonzero"></path>
            </g>
        </g>
        <path d="M31.5001048,17 L31.1952191,17.501992 C32.4982177,19.6055777 34.0998113,21.1773957 36,22.2170266 L36,22.2170266 L34.6911302,24.4585867 C34.2677863,24.1878742 33.8552235,23.9006611 33.454393,23.5976096 L33.454393,23.5976096 L33.454393,24.6015936 L26.1035857,24.6015936 L26.1035857,23.7049696 C25.6958091,24.0528309 25.2772061,24.3877972 24.8483959,24.709373 C24.418117,23.8370728 24.0054519,23.083875 23.6112393,22.4501992 L23.6112393,22.4501992 L22.535542,22.4501992 L22.535542,23.6873558 C23.3817819,24.3546313 24.2069559,25.0481971 25.0098553,25.7670371 L25.0098553,25.7670371 L23.5219124,27.5774796 C23.2111554,27.1715244 22.8823653,26.7773118 22.5359614,26.3948417 L22.5359614,26.3948417 L22.5359614,34.6594674 L20.2587545,34.6594674 L20.2587545,27.0935207 C19.7792632,28.2678857 19.2161345,29.4063363 18.5737052,30.5001048 C18.3824701,29.2809813 18.1912351,28.187251 18,27.2193332 C18.8786039,25.7147092 19.5824068,24.1146199 20.0977144,22.4501992 L20.0977144,22.4501992 L18.1790732,22.4501992 L18.1790732,20.1197316 L20.2587545,20.1197316 L20.2587545,17.0356469 L22.5359614,17.0356469 L22.5359614,20.1197316 L24.3824701,20.1197316 L24.3824701,21.8769134 C26.0918432,20.5621724 27.508073,18.936255 28.6315789,17 L28.6315789,17 L31.5001048,17 Z M32.5401552,25.5699308 L34.9247222,26.143636 C34.5057664,27.6261271 33.9022856,29.532187 33.113441,31.8626546 L33.113441,31.8626546 L35.498008,31.8626546 L35.498008,34.0505347 L24.0956175,34.0505347 L24.0956175,31.8626546 L30.836234,31.8626546 C31.6015936,29.6756133 32.1690082,27.5778989 32.5401552,25.5699308 L32.5401552,25.5699308 Z M26.2646257,26.0538897 C26.9494879,27.5931493 27.553923,29.1669484 28.0754875,30.7689243 L28.0754875,30.7689243 L25.9601594,31.468442 C25.541623,29.9620466 24.9976934,28.4082617 24.3283707,26.8070874 L24.3283707,26.8070874 Z M30.0117425,25.2113651 C30.4778592,26.7992111 30.866796,28.4087014 31.177186,30.0341791 L31.177186,30.0341791 L29.0618578,30.518138 C28.8945272,29.3468232 28.5598658,27.738939 28.0578738,25.695324 L28.0578738,25.695324 Z M29.8150556,19.5279933 C29.0987311,20.5635911 28.3013738,21.5407254 27.4304886,22.4501992 L27.4304886,22.4501992 L32.1635563,22.4501992 C31.3386454,21.6252883 30.555672,20.6514993 29.8150556,19.5279933 Z" id="形状结合" fill="#60759C" fill-rule="nonzero"></path>
    </g>
</svg>