<?xml version="1.0" encoding="UTF-8"?>
<svg width="72px" height="72px" viewBox="0 0 72 72" version="1.1" xmlns="http://www.w3.org/2000/svg" xmlns:xlink="http://www.w3.org/1999/xlink">
    <title>检验单备份</title>
    <g id="检验单备份" stroke="none" stroke-width="1" fill="none" fill-rule="evenodd">
        <g id="编组-3" transform="translate(38.000000, 34.500000) scale(-1, -1) translate(-38.000000, -34.500000) translate(10.000000, 5.000000)">
            <g id="编组" transform="translate(6.000000, 0.000000)" fill="#60759C" fill-rule="nonzero">
                <path d="M34.5732775,0.795022151 C35.3119724,0.795022151 36.0389114,0.973756596 36.689978,1.31489842 L36.9304463,1.45040756 L37.0547463,1.52554511 L47.029,9.263 L47.0656262,9.28628453 C48.2119776,10.0621473 48.9345371,11.3216816 49.0074205,12.6999158 L49.0135135,12.930658 L49.0135135,48.6568073 C49.0135135,52.1085625 46.2083648,54.8828948 42.7453334,55.0018866 L42.5135135,55.0058639 L27.9500072,55.0058639 C26.5692953,55.0058639 25.4500072,53.8865758 25.4500072,52.5058639 C25.4500072,51.1803805 26.4815431,50.0958252 27.7856315,50.0111816 L27.9500072,50.0058639 L42.5135135,50.0058639 C43.3130291,50.0058639 43.9362939,49.4513741 44.0068527,48.7832955 L44.0135135,48.6568073 L44.013,13.251 L34.401,5.795 L7,5.79502215 C6.20048446,5.79502215 5.57721963,6.34951196 5.50666084,7.01759054 L5.5,7.14407875 L5.5,27.0188679 C5.5,28.3995798 4.38071187,29.5188679 3,29.5188679 C1.6745166,29.5188679 0.589961328,28.487332 0.50531768,27.1832436 L0.5,27.0188679 L0.5,7.14407875 C0.5,3.69232349 3.30514873,0.917991275 6.76818016,0.7989994 L7,0.795022151 L34.5732775,0.795022151 Z" id="路径"></path>
                <path d="M34.6081081,2 L34.6081081,8.54716981 C34.6081081,9.87265321 35.639644,10.9572085 36.9437324,11.0418521 L37.1081081,11.0471698 L46.1081081,11.0471698 L46.1081081,16.0471698 L37.1081081,16.0471698 C33.0471908,16.0471698 29.7400906,12.8196954 29.6119617,8.78990087 L29.6081081,8.54716981 L29.6081081,2 L34.6081081,2 Z" id="路径-6"></path>
            </g>
            <rect id="矩形备份" stroke="#60759C" stroke-width="4" fill="#D8D8D8" x="35.8" y="37" width="5.2" height="1" rx="0.5"></rect>
            <rect id="矩形备份" stroke="#60759C" stroke-width="4" fill="#D8D8D8" x="23" y="25" width="18" height="1" rx="0.5"></rect>
            <g id="编组-2" transform="translate(14.677778, 42.426536) scale(-1, -1) translate(-14.677778, -42.426536) translate(0.355556, 26.000000)">
                <g id="编组" transform="translate(14.515642, 16.031713) rotate(-17.000000) translate(-14.515642, -16.031713) translate(4.144378, 2.503977)">
                    <path d="M15.7023468,15.431982 C16.8376794,15.4425012 17.7555047,16.3602269 17.7661471,17.4955583 L17.8314347,24.4604713 C17.8418243,25.5688373 16.9517386,26.4757679 15.8433727,26.4861575 C15.8309042,26.4862743 15.8184349,26.486275 15.8059664,26.4861595 C14.6706339,26.4756404 13.7528085,25.5579146 13.7421662,24.4225832 L13.6768785,17.4576702 C13.6664889,16.3493042 14.5565746,15.4423737 15.6649406,15.4319841 C15.677409,15.4318672 15.6898783,15.4318665 15.7023468,15.431982 Z" id="矩形" fill="#60759C" transform="translate(15.754157, 20.959071) rotate(-29.000000) translate(-15.754157, -20.959071) "></path>
                    <ellipse id="椭圆形" stroke="#60759C" stroke-width="4" cx="8.92384532" cy="8.8197261" rx="8.43083413" ry="8.24755513"></ellipse>
                </g>
            </g>
        </g>
    </g>
</svg>