<?xml version="1.0" encoding="UTF-8"?>
<svg width="72px" height="72px" viewBox="0 0 72 72" version="1.1" xmlns="http://www.w3.org/2000/svg" xmlns:xlink="http://www.w3.org/1999/xlink">
    <title>质量管理</title>
    <defs>
        <linearGradient x1="50%" y1="-5.81532713%" x2="50%" y2="94.1846729%" id="linearGradient-1">
            <stop stop-color="#19BFCE" offset="0%"></stop>
            <stop stop-color="#03CCC9" offset="100%"></stop>
        </linearGradient>
        <linearGradient x1="50%" y1="-5.81532713%" x2="50%" y2="94.1846729%" id="linearGradient-2">
            <stop stop-color="#19BFCE" offset="0%"></stop>
            <stop stop-color="#03CCC9" offset="100%"></stop>
        </linearGradient>
    </defs>
    <g id="质量管理" stroke="none" stroke-width="1" fill="none" fill-rule="evenodd">
        <path d="M19.1244059,59.3554875 L36,44.1712028 L52.8713972,59.4141161 C53.7869035,60.4476602 53.691215,62.0276777 52.6576709,62.9431841 C51.6690634,63.8188858 50.180469,63.7694111 49.2516857,62.8589432 L49.1286028,62.7294577 L35.8815797,51.5786411 L22.7599616,62.7880863 C21.853288,63.7483681 20.366204,63.8316881 19.3600119,63.0075717 L19.2258843,62.8895647 C18.2656025,61.9828912 18.1822826,60.4958071 19.0063989,59.4896151 L19.1244059,59.3554875 Z" id="路径-15" fill="url(#linearGradient-1)" opacity="0.770560855"></path>
        <path d="M60,11 C62.209139,11 64,12.790861 64,15 L64,49 C64,51.209139 62.209139,53 60,53 L12,53 C9.79086102,53 8.00000002,51.209139 8.00000002,49 L8.00000002,15 C8.00000002,12.790861 9.79086102,11 12,11 L60,11 Z M27,30 L25,30 C23.8954305,30 23,30.8954305 23,32 L23,32 L23,41 C23,42.1045695 23.8954305,43 25,43 L25,43 L27,43 C28.1045695,43 29,42.1045695 29,41 L29,41 L29,32 C29,30.8954305 28.1045695,30 27,30 L27,30 Z M47,18 L45,18 C43.8954305,18 43,18.8954305 43,20 L43,20 L43,41 C43,42.1045695 43.8954305,43 45,43 L45,43 L47,43 C48.1045695,43 49,42.1045695 49,41 L49,41 L49,20 C49,18.8954305 48.1045695,18 47,18 L47,18 Z M37,25.4074074 L35,25.4074074 C33.8954305,25.4074074 33,26.3028379 33,27.4074074 L33,27.4074074 L33,41 C33,42.1045695 33.8954305,43 35,43 L35,43 L37,43 C38.1045695,43 39,42.1045695 39,41 L39,41 L39,27.4074074 C39,26.3028379 38.1045695,25.4074074 37,25.4074074 L37,25.4074074 Z" id="形状结合" fill="url(#linearGradient-2)"></path>
    </g>
</svg>