<?xml version="1.0" encoding="UTF-8"?>
<svg width="72px" height="72px" viewBox="0 0 72 72" version="1.1" xmlns="http://www.w3.org/2000/svg" xmlns:xlink="http://www.w3.org/1999/xlink">
    <title>财务云</title>
    <defs>
        <linearGradient x1="50%" y1="-5.81532713%" x2="50%" y2="94.1846729%" id="linearGradient-1">
            <stop stop-color="#FF8E00" offset="0%"></stop>
            <stop stop-color="#FFB500" offset="100%"></stop>
        </linearGradient>
        <linearGradient x1="50%" y1="50%" x2="0.901895225%" y2="100%" id="linearGradient-2">
            <stop stop-color="#FF8E00" offset="0%"></stop>
            <stop stop-color="#FFBC32" offset="100%"></stop>
        </linearGradient>
    </defs>
    <g id="财务云" stroke="none" stroke-width="1" fill="none" fill-rule="evenodd">
        <g id="编组" transform="translate(10.000000, 8.000000)">
            <path d="M37.1430408,0 C37.672401,-6.59067465e-16 38.1801702,0.209864551 38.5550633,0.583598782 L51.4120225,13.4008116 C51.7884354,13.7760608 52,14.2857069 52,14.8172128 L52,52.9978435 C52,54.649078 50.6533439,56 49.0066284,56 L2.99337157,56 C1.34665617,56 0,54.6490781 0,52.9978435 L0,3.00221352 C0,1.350979 1.34665611,0 2.99337157,0 L37.1430408,0 Z M42.3043478,26 C41.8173913,26.0570776 41.3811594,26.2092846 40.9956522,26.456621 C40.6101449,26.7039574 40.2956522,26.9893455 40.0521739,27.3127854 L40.0521739,27.3127854 L34.9695652,35.303653 L30.3434783,27.369863 C30.1,27.0464231 29.7855072,26.7467656 29.4,26.4708904 C29.0144928,26.1950152 28.5782609,26.0380518 28.0913043,26 C27.2594203,26.0951294 26.6913043,26.3091705 26.3869565,26.6421233 C26.0826087,26.9750761 25.8797101,27.4079148 25.7782609,27.9406393 C25.757971,28.3592085 25.8391304,28.7444825 26.0217391,29.0964612 C26.2043478,29.4484399 26.3971014,29.7385845 26.6,29.966895 L26.6,29.966895 L30.6782609,36.7020548 L26.2956522,36.7020548 C25.7478261,36.7401065 25.3268116,36.9113394 25.0326087,37.2157534 C24.7384058,37.5201674 24.5608696,37.9101979 24.5,38.3858447 C24.5608696,38.8805175 24.7384058,39.2895738 25.0326087,39.6130137 C25.3268116,39.9364536 25.7478261,40.1171994 26.2956522,40.1552511 L26.2956522,40.1552511 L32.1695652,40.18379 L32.1695652,41.9817352 L26.2956522,41.9817352 C25.7478261,42.0197869 25.3268116,42.1910198 25.0326087,42.4954338 C24.7384058,42.7998478 24.5608696,43.1898782 24.5,43.6655251 C24.5608696,44.141172 24.7384058,44.5740107 25.0326087,44.9640411 C25.3268116,45.3540715 25.7478261,45.5681126 26.2956522,45.6061644 L26.2956522,45.6061644 L32.1695652,45.6061644 L32.1695652,48.5742009 C32.2101449,49.3923135 32.4789855,50.0011416 32.976087,50.4006849 C33.4731884,50.8002283 34.1681159,51 35.0608696,51 C36.8666667,51 37.8101449,50.1914003 37.8913043,48.5742009 L37.8913043,48.5742009 L37.8913043,45.5490868 L43.7347826,45.5776256 C44.2623188,45.5395738 44.6782609,45.3540715 44.9826087,45.0211187 C45.2869565,44.6881659 45.4594203,44.2743531 45.5,43.7796804 C45.4594203,43.3040335 45.2869565,42.8949772 44.9826087,42.5525114 C44.6782609,42.2100457 44.2623188,42.0197869 43.7347826,41.9817352 L43.7347826,41.9817352 L37.8913043,41.9817352 L37.8913043,40.2408676 L43.7043478,40.2123288 C44.2318841,40.174277 44.6528986,39.9840183 44.9673913,39.6415525 C45.2818841,39.2990868 45.4594203,38.8805175 45.5,38.3858447 C45.4594203,37.9101979 45.2869565,37.5201674 44.9826087,37.2157534 C44.6782609,36.9113394 44.2623188,36.7401065 43.7347826,36.7020548 L43.7347826,36.7020548 L39.2608696,36.7020548 L43.9782609,29.510274 C44.384058,29.0156012 44.5869565,28.4923896 44.5869565,27.9406393 C44.526087,27.5410959 44.4297101,27.217656 44.2978261,26.9703196 C44.165942,26.7229833 44.0036232,26.5327245 43.8108696,26.3995434 C43.6181159,26.2663623 43.3949275,26.1712329 43.1413043,26.1141553 C42.8876812,26.0570776 42.6086957,26.0190259 42.3043478,26 Z M21.8125,18 L10,18 C8.8954305,18 8,18.8954305 8,20 C8,21.1045695 8.8954305,22 10,22 L10,22 L21.8125,22 C22.9170695,22 23.8125,21.1045695 23.8125,20 C23.8125,18.8954305 22.9170695,18 21.8125,18 L21.8125,18 Z M29,9 L10,9 C8.8954305,9 8,9.8954305 8,11 C8,12.1045695 8.8954305,13 10,13 L10,13 L29,13 C30.1045695,13 31,12.1045695 31,11 C31,9.8954305 30.1045695,9 29,9 L29,9 Z" id="形状结合" fill="url(#linearGradient-1)"></path>
            <path d="M51.6929736,14.0759077 L39.9467793,13.9997845 C38.8511905,13.9926844 37.9652454,13.1054282 37.9597654,12.0098301 L37.9004805,0.157312215 L37.9004805,0.157312215 L51.6929736,14.0759077 Z" id="路径" fill="url(#linearGradient-2)"></path>
        </g>
    </g>
</svg>