<?xml version="1.0" encoding="UTF-8"?>
<svg width="72px" height="72px" viewBox="0 0 72 72" version="1.1" xmlns="http://www.w3.org/2000/svg" xmlns:xlink="http://www.w3.org/1999/xlink">
    <!-- Generator: Sketch 63.1 (92452) - https://sketch.com -->
    <title>默认3</title>
    <desc>Created with Sketch.</desc>
    <g id="默认3" stroke="none" stroke-width="1" fill="none" fill-rule="evenodd">
        <g id="编组" transform="translate(40.000000, 34.000000)" fill="#60759C" fill-rule="nonzero">
            <path d="M13.5,27 C20.9558441,27 27,20.9558441 27,13.5 C27,6.04415588 20.9558441,0 13.5,0 C6.04415588,0 0,6.04415588 0,13.5 C0,20.9558441 6.04415588,27 13.5,27 Z M13.5,23 C8.25329488,23 4,18.7467051 4,13.5 C4,8.25329488 8.25329488,4 13.5,4 C18.7467051,4 23,8.25329488 23,13.5 C23,18.7467051 18.7467051,23 13.5,23 Z" id="椭圆形"></path>
            <path d="M9.94355545,12.2578838 C9.31632868,11.7167017 8.36914613,11.7864547 7.82796402,12.4136815 C7.28678191,13.0409082 7.35653489,13.9880908 7.98376166,14.5292729 L11.3771175,17.457119 C12.4224954,18.3590892 14.001133,18.2428342 14.9031032,17.1974563 C14.9246156,17.1722999 14.9246156,17.1722999 14.9456806,17.1467677 L19.1907513,11.9549462 C19.7151367,11.3136105 19.6203298,10.3686068 18.9789941,9.84422143 C18.3376584,9.31983604 17.3926547,9.41464299 16.8682693,10.0559787 L12.9481869,14.8503319 L9.94355545,12.2578838 Z" id="路径-2"></path>
        </g>
        <path d="M57.5,43.4808652 L57.5,51.7407407 C57.5,54.3692071 55.3692071,56.5 52.7407407,56.5 L18.2592593,56.5 C15.6307929,56.5 13.5,54.3692071 13.5,51.7407407 L13.5,17.2592593 C13.5,14.6307929 15.6307929,12.5 18.2592593,12.5 L32.1510945,12.5 C33.5318063,12.5 34.6510945,11.3807119 34.6510945,10 C34.6510945,8.61928813 33.5318063,7.5 32.1510945,7.5 L18.2592593,7.5 C12.8693692,7.5 8.5,11.8693692 8.5,17.2592593 L8.5,51.7407407 C8.5,57.1306308 12.8693692,61.5 18.2592593,61.5 L52.7407407,61.5 C58.1306308,61.5 62.5,57.1306308 62.5,51.7407407 L62.5,43.4808652 C62.5,42.1001534 61.3807119,40.9808652 60,40.9808652 C58.6192881,40.9808652 57.5,42.1001534 57.5,43.4808652 Z" id="路径" fill="#60759C" fill-rule="nonzero" transform="translate(35.500000, 34.500000) scale(1, -1) translate(-35.500000, -34.500000) "></path>
        <rect id="矩形" fill="#60759C" x="21" y="23" width="21" height="5" rx="2.5"></rect>
        <rect id="矩形备份" fill="#60759C" x="21" y="36" width="9" height="5" rx="2.5"></rect>
    </g>
</svg>