<?xml version="1.0" encoding="UTF-8"?>
<svg width="72px" height="72px" viewBox="0 0 72 72" version="1.1" xmlns="http://www.w3.org/2000/svg" xmlns:xlink="http://www.w3.org/1999/xlink">
    <!-- Generator: Sketch 63.1 (92452) - https://sketch.com -->
    <title>默认5</title>
    <desc>Created with Sketch.</desc>
    <g id="默认5" stroke="none" stroke-width="1" fill="none" fill-rule="evenodd">
        <g id="编组-2" transform="translate(9.000000, 9.000000)" fill="#60759C" fill-rule="nonzero">
            <path d="M8,0.5 L18,0.5 C22.1421356,0.5 25.5,3.85786438 25.5,8 L25.5,18 C25.5,22.1421356 22.1421356,25.5 18,25.5 L8,25.5 C3.85786438,25.5 0.5,22.1421356 0.5,18 L0.5,8 C0.5,3.85786438 3.85786438,0.5 8,0.5 Z M8,5.5 C6.61928813,5.5 5.5,6.61928813 5.5,8 L5.5,18 C5.5,19.3807119 6.61928813,20.5 8,20.5 L18,20.5 C19.3807119,20.5 20.5,19.3807119 20.5,18 L20.5,8 C20.5,6.61928813 19.3807119,5.5 18,5.5 L8,5.5 Z" id="Rectangle-5"></path>
            <path d="M36,0.5 L46,0.5 C50.1421356,0.5 53.5,3.85786438 53.5,8 L53.5,18 C53.5,22.1421356 50.1421356,25.5 46,25.5 L36,25.5 C31.8578644,25.5 28.5,22.1421356 28.5,18 L28.5,8 C28.5,3.85786438 31.8578644,0.5 36,0.5 Z M36,5.5 C34.6192881,5.5 33.5,6.61928813 33.5,8 L33.5,18 C33.5,19.3807119 34.6192881,20.5 36,20.5 L46,20.5 C47.3807119,20.5 48.5,19.3807119 48.5,18 L48.5,8 C48.5,6.61928813 47.3807119,5.5 46,5.5 L36,5.5 Z" id="Rectangle-5"></path>
            <path d="M8,28.5 L18,28.5 C22.1421356,28.5 25.5,31.8578644 25.5,36 L25.5,46 C25.5,50.1421356 22.1421356,53.5 18,53.5 L8,53.5 C3.85786438,53.5 0.5,50.1421356 0.5,46 L0.5,36 C0.5,31.8578644 3.85786438,28.5 8,28.5 Z M8,33.5 C6.61928813,33.5 5.5,34.6192881 5.5,36 L5.5,46 C5.5,47.3807119 6.61928813,48.5 8,48.5 L18,48.5 C19.3807119,48.5 20.5,47.3807119 20.5,46 L20.5,36 C20.5,34.6192881 19.3807119,33.5 18,33.5 L8,33.5 Z" id="Rectangle-5"></path>
        </g>
        <path d="M63,51.4039439 C63,52.169807 62.6576754,52.8639291 62.1183239,53.3394478 L53.3179182,61.1389313 C52.848553,61.5498456 52.227424,61.8 51.5500016,61.8 C50.087895,61.8 48.9038321,60.6386225 48.9038321,59.2030518 C48.9038321,58.4285498 49.2461568,57.7430666 49.7855083,57.2675479 L53.4731053,54.0012677 L41.6381819,54.0012677 C40.1806396,54.0012677 39,52.8398902 39,51.3960561 C39,49.9604854 40.1806396,48.7991079 41.6381819,48.7991079 L53.4731053,48.7991079 L49.7855083,45.5324521 C49.2461568,45.0565578 48.9038321,44.366943 48.9038321,43.5973238 C48.9038321,42.1613775 50.087895,41 51.5500016,41 C52.227424,41 52.848553,41.2501544 53.3179182,41.669332 L62.1183239,49.46844 C62.657295,49.9439587 63,50.6377052 63,51.4039439" id="路径" fill="#60759C"></path>
    </g>
</svg>