<?xml version="1.0" encoding="UTF-8"?>
<svg width="72px" height="72px" viewBox="0 0 72 72" version="1.1" xmlns="http://www.w3.org/2000/svg" xmlns:xlink="http://www.w3.org/1999/xlink">
    <title>随机循环3</title>
    <defs>
        <linearGradient x1="50%" y1="-5.81532713%" x2="50%" y2="94.1846729%" id="linearGradient-1">
            <stop stop-color="#0077FF" offset="0%"></stop>
            <stop stop-color="#5B92FF" offset="100%"></stop>
        </linearGradient>
        <linearGradient x1="50%" y1="-5.81532713%" x2="50%" y2="94.1846729%" id="linearGradient-2">
            <stop stop-color="#0077FF" offset="0%"></stop>
            <stop stop-color="#5B92FF" offset="100%"></stop>
        </linearGradient>
    </defs>
    <g id="随机循环3" stroke="none" stroke-width="1" fill="none" fill-rule="evenodd" transform="translate(0.000000, -0.000000)">
        <g id="编组-13" transform="translate(8.000000, 17.844444)" fill="url(#linearGradient-1)">
            <g id="11备份" transform="translate(0.000000, 0.000000)">
                <g id="编组-25" transform="translate(0.000000, 0.000000)">
                    <path d="M26.443,16 L26.4435693,17.6793657 C25.3645838,18.2203779 24.6061562,19.3063476 24.5293106,20.5762508 L24.5228758,20.7895425 C24.5228758,22.7099051 26.0796373,24.2666667 28,24.2666667 C29.9203627,24.2666667 31.4771242,22.7099051 31.4771242,20.7895425 C31.4771242,19.4999422 30.7750778,18.3743137 29.7323237,17.7739955 L29.5554386,17.6788684 L29.555,16 L56,16 L56,39.4 C56,41.609139 54.209139,43.4 52,43.4 L4,43.4 C1.790861,43.4 7.37596886e-15,41.609139 7.10542736e-15,39.4 L1.77635684e-14,16 L26.443,16 Z M52,0 C54.209139,-4.05812251e-16 56,1.790861 56,4 L56,14 L29.555,14 L29.5554386,12.1877983 C30.6349339,11.6469631 31.3937958,10.5607433 31.4706857,9.29047735 L31.4771242,9.07712418 C31.4771242,7.15676152 29.9203627,5.6 28,5.6 C26.0796373,5.6 24.5228758,7.15676152 24.5228758,9.07712418 C24.5228758,10.3663501 25.2245147,11.4916995 26.2667684,12.0921483 L26.4435693,12.187301 L26.443,14 L1.77635684e-14,14 L7.10542736e-15,4 C6.83488586e-15,1.790861 1.790861,4.05812251e-16 4,0 L52,0 Z" id="形状结合"></path>
                </g>
            </g>
        </g>
        <path d="M46.8888889,9 C48.6071081,9 50,10.3928919 50,12.1111111 L50,16.999 L45.333,16.999 L45.3333333,13.6666667 L26.6666667,13.6666667 L26.666,16.999 L22,16.999 L22,12.1111111 C22,10.3928919 23.3928919,9 25.1111111,9 L46.8888889,9 Z" id="形状结合" fill="url(#linearGradient-2)" opacity="0.8"></path>
    </g>
</svg>