<?xml version="1.0" encoding="UTF-8"?>
<svg width="72px" height="72px" viewBox="0 0 72 72" version="1.1" xmlns="http://www.w3.org/2000/svg" xmlns:xlink="http://www.w3.org/1999/xlink">
    <!-- Generator: Sketch 63.1 (92452) - https://sketch.com -->
    <title>默认13</title>
    <desc>Created with Sketch.</desc>
    <g id="默认13" stroke="none" stroke-width="1" fill="none" fill-rule="evenodd">
        <g id="编组-2" transform="translate(7.000000, 11.000000)" fill="#60759C" fill-rule="nonzero">
            <path d="M0.970890244,19.8533808 L0,19.1027624 L0,11 C0,5.20101013 4.70101013,0.5 10.5,0.5 L46.5,0.5 C52.2989899,0.5 57,5.20101013 57,11 L57,19.7792528 L56.3053204,20.5044295 C55.1525485,21.7078092 54.5,23.2993726 54.5,25 C54.5,26.7006274 55.1525485,28.2921908 56.3053204,29.4955705 L57,30.2207472 L57,39 C57,44.7989899 52.2989899,49.5 46.5,49.5 L10.5,49.5 C4.70101013,49.5 0,44.7989899 0,39 L0,30.8972376 L0.970890244,30.1466192 C2.55629346,28.9209063 3.5,27.0409264 3.5,25 C3.5,22.9590736 2.55629346,21.0790937 0.970890244,19.8533808 Z M5,16.7382188 C7.20921935,18.8763588 8.5,21.833344 8.5,25 C8.5,28.166656 7.20921935,31.1236412 5,33.2617812 L5,39 C5,42.0375661 7.46243388,44.5 10.5,44.5 L46.5,44.5 C49.5375661,44.5 52,42.0375661 52,39 L52,32.1597006 C50.3974411,30.1481486 49.5,27.6421443 49.5,25 C49.5,22.3578557 50.3974411,19.8518514 52,17.8402994 L52,11 C52,7.96243388 49.5375661,5.5 46.5,5.5 L10.5,5.5 C7.46243388,5.5 5,7.96243388 5,11 L5,16.7382188 Z" id="形状结合"></path>
        </g>
        <path d="M28.5,39 L45.5,39 C46.8807119,39 48,40.1192881 48,41.5 C48,42.8807119 46.8807119,44 45.5,44 L28.5,44 C27.1192881,44 26,42.8807119 26,41.5 C26,40.1192881 27.1192881,39 28.5,39 Z" id="矩形" fill="#60759C" fill-rule="nonzero"></path>
        <path d="M28.5,27 L32.5,27 C33.8807119,27 35,28.1192881 35,29.5 C35,30.8807119 33.8807119,32 32.5,32 L28.5,32 C27.1192881,32 26,30.8807119 26,29.5 C26,28.1192881 27.1192881,27 28.5,27 Z" id="矩形备份" fill="#60759C" fill-rule="nonzero"></path>
    </g>
</svg>