<?xml version="1.0" encoding="UTF-8"?>
<svg width="72px" height="72px" viewBox="0 0 72 72" version="1.1" xmlns="http://www.w3.org/2000/svg" xmlns:xlink="http://www.w3.org/1999/xlink">
    <title>随机循环2</title>
    <defs>
        <linearGradient x1="50%" y1="-2.48949813e-15%" x2="50%" y2="100%" id="linearGradient-1">
            <stop stop-color="#FD785E" offset="0%"></stop>
            <stop stop-color="#FF8C49" offset="100%"></stop>
        </linearGradient>
        <linearGradient x1="50%" y1="-2.48949813e-15%" x2="50%" y2="100%" id="linearGradient-2">
            <stop stop-color="#FD785E" offset="0%"></stop>
            <stop stop-color="#FF8C49" offset="100%"></stop>
        </linearGradient>
    </defs>
    <g id="随机循环2" stroke="none" stroke-width="1" fill="none" fill-rule="evenodd" transform="translate(0.000000, -0.000000)">
        <rect id="矩形" fill="#FFFFFF" opacity="0.95" x="14" y="21" width="12" height="3" rx="1.5"></rect>
        <g id="业务处理6" transform="translate(7.000000, 10.000000)">
            <rect id="矩形备份-72" fill="#F0F4FF" opacity="0" x="0" y="0" width="59" height="59"></rect>
            <g id="14" transform="translate(0.277778, 0.277778)">
                <path d="M44.4687843,0 C46.6779233,3.07431771e-15 48.4687843,1.790861 48.4687843,4 L48.4687843,34.1470899 C48.4687843,36.3562289 46.6779233,38.1470899 44.4687843,38.1470899 L9.63910997,38.1470899 L9.80548975e-13,47.6815846 L9.80548975e-13,4 C9.80278434e-13,1.790861 1.790861,4.05812251e-16 4,0 L44.4687843,0 Z M24.7266795,7.72222222 C19.6547825,7.72222222 15.4651884,11.4909392 14.8179121,16.3745686 C14.7549537,16.8273949 14.7222222,17.2904546 14.7222222,17.7611327 C14.7222222,23.2619665 19.1929153,27.7222222 24.7066216,27.7222222 C28.7250855,27.7222222 32.1895329,25.3530718 33.773029,21.9386078 L33.8032913,21.8767959 C34.3931103,20.6048601 34.7222222,19.1879895 34.7222222,17.694429 L24.7266795,17.694429 L24.7266795,7.72222222 Z M26.2198821,7.72222222 L26.2198821,15.5443456 C26.2198821,15.8511828 26.4694921,16.10021 26.7770473,16.10021 L34.6174752,16.10021 C34.6174752,11.473195 30.8577248,7.72222222 26.2198821,7.72222222 Z" id="形状结合" fill="url(#linearGradient-1)"></path>
                <path d="M52.537037,19.1391534 C54.746176,19.1391534 56.537037,20.9300144 56.537037,23.1391534 L56.537037,43.015873 C56.537037,45.225012 54.746176,47.015873 52.537037,47.015873 L27.8465329,47.015873 L20.845679,54.3518519 L20.845,41.147 L49.4687843,41.1470899 C50.5231461,41.1470899 51.3869494,40.3312122 51.4632985,39.2963523 L51.4687843,39.1470899 L51.468,19.139 L52.537037,19.1391534 Z" id="形状结合" fill="url(#linearGradient-2)" opacity="0.8"></path>
            </g>
        </g>
        <g id="统计报表" opacity="0.95" transform="translate(22.000000, 18.077821)"></g>
    </g>
</svg>