<?xml version="1.0" encoding="UTF-8"?>
<svg width="72px" height="72px" viewBox="0 0 72 72" version="1.1" xmlns="http://www.w3.org/2000/svg" xmlns:xlink="http://www.w3.org/1999/xlink">
    <!-- Generator: Sketch 63.1 (92452) - https://sketch.com -->
    <title>默认7</title>
    <desc>Created with Sketch.</desc>
    <g id="默认7" stroke="none" stroke-width="1" fill="none" fill-rule="evenodd">
        <g id="编组" transform="translate(7.000000, 8.000000)" fill-rule="nonzero">
            <path d="M49.6636364,32.8806632 L49.6636364,44.8801347 C49.6636364,47.5219897 47.5219897,49.6636364 44.8801347,49.6636364 L10.2835017,49.6636364 C7.64164665,49.6636364 5.5,47.5219897 5.5,44.8801347 L5.5,10.2835017 C5.5,7.64164665 7.64164665,5.5 10.2835017,5.5 L21.9090909,5.5 C23.2898028,5.5 24.4090909,4.38071187 24.4090909,3 C24.4090909,1.61928813 23.2898028,0.5 21.9090909,0.5 L10.2835017,0.5 C4.8802229,0.5 0.5,4.8802229 0.5,10.2835017 L0.5,44.8801347 C0.5,50.2834135 4.8802229,54.6636364 10.2835017,54.6636364 L44.8801347,54.6636364 C50.2834135,54.6636364 54.6636364,50.2834135 54.6636364,44.8801347 L54.6636364,32.8806632 C54.6636364,31.4999514 53.5443482,30.3806632 52.1636364,30.3806632 C50.7829245,30.3806632 49.6636364,31.4999514 49.6636364,32.8806632 Z" id="路径" fill="#60759C" transform="translate(27.581818, 27.581818) scale(1, -1) translate(-27.581818, -27.581818) "></path>
            <path d="M14.8181818,31.4518897 L25.2181818,31.4518897 C26.5235821,31.4518897 27.5818182,32.5101257 27.5818182,33.8155261 C27.5818182,35.1209264 26.5235821,36.1791624 25.2181818,36.1791624 L14.8181818,36.1791624 C13.5127815,36.1791624 12.4545455,35.1209264 12.4545455,33.8155261 C12.4545455,32.5101257 13.5127815,31.4518897 14.8181818,31.4518897 Z M14.8181818,35.4518897 C15.7219205,35.4518897 16.4545455,34.7192647 16.4545455,33.8155261 C16.4545455,32.9117874 15.7219205,32.1791624 14.8181818,32.1791624 L25.2181818,32.1791624 C24.3144431,32.1791624 23.5818182,32.9117874 23.5818182,33.8155261 C23.5818182,34.7192647 24.3144431,35.4518897 25.2181818,35.4518897 L14.8181818,35.4518897 Z" id="矩形" fill="#60759C" transform="translate(20.018182, 33.815526) scale(1, -1) translate(-20.018182, -33.815526) "></path>
            <path d="M14.8181818,17.2700715 L40.3454545,17.2700715 C41.6508549,17.2700715 42.7090909,18.3283076 42.7090909,19.6337079 C42.7090909,20.9391082 41.6508549,21.9973442 40.3454545,21.9973442 L14.8181818,21.9973442 C13.5127815,21.9973442 12.4545455,20.9391082 12.4545455,19.6337079 C12.4545455,18.3283076 13.5127815,17.2700715 14.8181818,17.2700715 Z M14.8181818,21.2700715 C15.7219205,21.2700715 16.4545455,20.5374466 16.4545455,19.6337079 C16.4545455,18.7299692 15.7219205,17.9973442 14.8181818,17.9973442 L40.3454545,17.9973442 C39.4417159,17.9973442 38.7090909,18.7299692 38.7090909,19.6337079 C38.7090909,20.5374466 39.4417159,21.2700715 40.3454545,21.2700715 L14.8181818,21.2700715 Z" id="矩形备份" fill="#60759C" transform="translate(27.581818, 19.633708) scale(1, -1) translate(-27.581818, -19.633708) "></path>
            <g id="设置备份" transform="translate(27.581818, 29.472727)">
                <rect id="矩形" fill="#000000" opacity="0" x="0" y="0" width="27.4181818" height="27.4181818"></rect>
                <path d="M21.2490909,17.6268285 C22.0487879,16.2630969 23.419697,15.5812312 24.7906061,15.6948755 C25.0190909,14.8993654 25.1333333,13.990211 25.1333333,13.0810566 C25.1333333,12.2855466 25.0190909,11.4900365 24.9048485,10.8081707 C23.5339394,11.0354593 22.0487879,10.2399492 21.2490909,8.87621769 C20.4493939,7.51248613 20.5636364,5.80782168 21.4775757,4.78502301 C20.2209091,3.64858004 18.85,2.85306998 17.2506061,2.28484848 C16.7936364,3.64858004 15.4227273,4.5577344 13.7090909,4.5577344 C11.9954545,4.5577344 10.7387879,3.64858004 10.1675758,2.28484848 C8.56818182,2.85306996 7.19727273,3.76222435 5.94060608,4.89866729 C6.85454546,6.03511027 6.96878789,7.62613041 6.16909091,8.98986196 C5.36939394,10.3535935 3.88424244,11.0354593 2.51333335,10.8081707 C2.39909092,11.6036808 2.28484848,12.3991909 2.28484848,13.1947009 C2.28484848,14.1038553 2.39909092,14.8993654 2.62757576,15.6948755 C3.99848485,15.5812312 5.36939394,16.2630969 6.16909091,17.6268285 C6.85454546,18.9905601 6.85454546,20.4679359 6.05484848,21.6043789 C7.31151514,22.7408218 8.68242423,23.5363319 10.2818182,23.9909091 C10.8530303,22.7408218 12.109697,21.9453118 13.7090909,21.9453118 C15.3084848,21.9453118 16.5651515,22.7408218 17.1363636,23.9909091 C18.7357576,23.5363319 20.1066667,22.6271775 21.3633333,21.6043789 C20.5636364,20.4679359 20.449394,18.9905601 21.2490909,17.6268285 Z M13.7090909,18.0814057 C10.9672727,18.0814057 8.79666666,15.9221641 8.79666666,13.1947009 C8.79666666,10.4672378 10.9672727,8.30799619 13.7090909,8.30799619 C16.4509091,8.30799619 18.6215152,10.4672378 18.6215152,13.1947009 C18.6215152,15.9221641 16.4509091,18.0814057 13.7090909,18.0814057 Z" id="形状" fill="#60759C"></path>
            </g>
        </g>
    </g>
</svg>