<?xml version="1.0" encoding="UTF-8"?>
<svg width="72px" height="72px" viewBox="0 0 72 72" version="1.1" xmlns="http://www.w3.org/2000/svg" xmlns:xlink="http://www.w3.org/1999/xlink">
    <!-- Generator: Sketch 63.1 (92452) - https://sketch.com -->
    <title>默认14</title>
    <desc>Created with Sketch.</desc>
    <g id="默认14" stroke="none" stroke-width="1" fill="none" fill-rule="evenodd">
        <g id="编组-2" transform="translate(7.000000, 7.000000)" fill="#60759C" fill-rule="nonzero">
            <g id="编组" transform="translate(31.254545, 27.418182)">
                <path d="M12.041202,1.18105368 C9.81868459,2.19707015 8.10118981,2.8773013 6.91886147,3.2171009 C5.89560002,3.51118488 4.45146507,3.78577675 2.60357094,4.03213981 C1.11316848,4.23076302 0,5.50216294 0,7.00582832 L0,18.2964812 C0,21.0960392 1.23481759,23.7530691 3.37475452,25.5581212 C4.17312321,26.2315509 4.91436383,26.7887806 5.60369146,27.2307224 C6.9785474,28.1121702 9.06993107,29.1240852 11.9115326,30.2946193 C12.5480049,30.5567783 13.2643496,30.5449387 13.8917617,30.2619005 C16.4671632,29.1000847 18.418828,28.0957139 19.7680159,27.2307224 C20.462596,26.7854131 21.2462774,26.2178302 22.1243326,25.5261066 C24.4109216,23.7247566 25.7454545,20.9745205 25.7454545,18.0636158 L25.7454545,7.04780481 C25.7454545,5.52149767 24.5994792,4.23858208 23.0829579,4.06687998 C21.0114199,3.8323383 19.400065,3.54582737 18.2689036,3.21823236 C17.008343,2.85316212 15.5321115,2.20064002 13.8528012,1.2565967 L12.9662099,0.758189356 L12.041202,1.18105368 Z M12.7886895,5.23150734 C14.3677126,6.06324925 15.8210325,6.67367583 17.1561901,7.06035008 C18.352733,7.4068802 19.8781484,7.69596992 21.7454545,7.9347009 L21.7454545,18.0636158 C21.7454545,19.7488762 20.9728306,21.3411174 19.6490161,22.3840041 C18.8659073,23.0009298 18.1841869,23.4946672 17.609126,23.8633504 C16.550387,24.5421292 14.9541608,25.3747364 12.8368257,26.3472543 C10.5069257,25.3680857 8.80667287,24.5327384 7.7625814,23.8633504 C7.23154631,23.5228931 6.62688234,23.0683353 5.95380457,22.5005894 C4.71489393,21.4555594 4,19.91728 4,18.2964835 L4,7.87535021 C5.62810741,7.63501204 6.96578971,7.36553257 8.02373137,7.06148154 C9.24785057,6.7096713 10.8295866,6.10069463 12.7886895,5.23150734 Z" id="路径-4"></path>
                <path d="M11.4830996,16.9926261 L8.6579531,14.5317744 C8.03327777,13.9876492 7.08577773,14.052948 6.54165253,14.6776233 C5.99752733,15.3022986 6.06282612,16.2497987 6.68750145,16.7939239 L10.2389923,19.8874599 C11.0499354,20.5938342 12.2742958,20.5324481 13.0105183,19.748503 L19.3400607,13.0086753 C19.9071782,12.4047968 19.8773776,11.455517 19.2734991,10.8883995 C18.6696206,10.3212819 17.7203408,10.3510826 17.1532233,10.9549611 L11.4830996,16.9926261 Z" id="路径-2"></path>
            </g>
            <path d="M49.6636364,32.8806632 L49.6636364,44.8801347 C49.6636364,47.5219897 47.5219897,49.6636364 44.8801347,49.6636364 L10.2835017,49.6636364 C7.64164665,49.6636364 5.5,47.5219897 5.5,44.8801347 L5.5,10.2835017 C5.5,7.64164665 7.64164665,5.5 10.2835017,5.5 L21.9090909,5.5 C23.2898028,5.5 24.4090909,4.38071187 24.4090909,3 C24.4090909,1.61928813 23.2898028,0.5 21.9090909,0.5 L10.2835017,0.5 C4.8802229,0.5 0.5,4.8802229 0.5,10.2835017 L0.5,44.8801347 C0.5,50.2834135 4.8802229,54.6636364 10.2835017,54.6636364 L44.8801347,54.6636364 C50.2834135,54.6636364 54.6636364,50.2834135 54.6636364,44.8801347 L54.6636364,32.8806632 C54.6636364,31.4999514 53.5443482,30.3806632 52.1636364,30.3806632 C50.7829245,30.3806632 49.6636364,31.4999514 49.6636364,32.8806632 Z" id="路径" transform="translate(27.581818, 27.581818) scale(1, -1) translate(-27.581818, -27.581818) "></path>
            <path d="M14.8181818,31.4518897 L25.2181818,31.4518897 C26.5235821,31.4518897 27.5818182,32.5101257 27.5818182,33.8155261 C27.5818182,35.1209264 26.5235821,36.1791624 25.2181818,36.1791624 L14.8181818,36.1791624 C13.5127815,36.1791624 12.4545455,35.1209264 12.4545455,33.8155261 C12.4545455,32.5101257 13.5127815,31.4518897 14.8181818,31.4518897 Z" id="矩形" transform="translate(20.018182, 33.815526) scale(1, -1) translate(-20.018182, -33.815526) "></path>
            <path d="M14.8181818,17.2700715 L40.3454545,17.2700715 C41.6508549,17.2700715 42.7090909,18.3283076 42.7090909,19.6337079 C42.7090909,20.9391082 41.6508549,21.9973442 40.3454545,21.9973442 L14.8181818,21.9973442 C13.5127815,21.9973442 12.4545455,20.9391082 12.4545455,19.6337079 C12.4545455,18.3283076 13.5127815,17.2700715 14.8181818,17.2700715 Z M14.8181818,21.2700715 C15.7219205,21.2700715 16.4545455,20.5374466 16.4545455,19.6337079 C16.4545455,18.7299692 15.7219205,17.9973442 14.8181818,17.9973442 L40.3454545,17.9973442 C39.4417159,17.9973442 38.7090909,18.7299692 38.7090909,19.6337079 C38.7090909,20.5374466 39.4417159,21.2700715 40.3454545,21.2700715 L14.8181818,21.2700715 Z" id="矩形备份" transform="translate(27.581818, 19.633708) scale(1, -1) translate(-27.581818, -19.633708) "></path>
        </g>
    </g>
</svg>