<?xml version="1.0" encoding="UTF-8"?>
<svg width="72px" height="72px" viewBox="0 0 72 72" version="1.1" xmlns="http://www.w3.org/2000/svg" xmlns:xlink="http://www.w3.org/1999/xlink">
    <!-- Generator: Sketch 63.1 (92452) - https://sketch.com -->
    <title>默认10</title>
    <desc>Created with Sketch.</desc>
    <g id="默认10" stroke="none" stroke-width="1" fill="none" fill-rule="evenodd">
        <g id="编组-2" transform="translate(9.000000, 9.000000)" fill="#60759C">
            <g id="编组" transform="translate(13.153846, 19.615385)">
                <rect id="矩形" x="0" y="0.854700855" width="8.30769231" height="4.44444444" rx="2.22222222"></rect>
                <path d="M2.22222222,15.0769231 L26.2222222,15.0769231 C27.4495217,15.0769231 28.4444444,16.0718459 28.4444444,17.2991453 C28.4444444,18.5264447 27.4495217,19.5213675 26.2222222,19.5213675 L2.22222222,19.5213675 C0.994922778,19.5213675 0,18.5264447 0,17.2991453 C0,16.0718459 0.994922778,15.0769231 2.22222222,15.0769231 Z" id="矩形备份" fill-rule="nonzero"></path>
            </g>
            <g id="账户-选中" transform="translate(27.000000, 12.230769)" fill-rule="nonzero">
                <path d="M10.3623734,11.168926 C10.3048348,11.1556478 10.2229531,11.0759791 10.1211543,10.9321327 C10.0204618,10.7882863 9.93304764,10.565877 9.85891137,10.2649071 C9.7847751,9.96504196 9.8290356,9.60100098 9.99058599,9.17610108 L9.9905858,9.17610127 C10.6250518,8.54249626 11.1433861,7.80244584 11.5219967,6.98963805 C11.9291916,6.13430656 12.1350025,5.27454817 12.1350025,4.41147024 C12.1350025,3.09693616 11.7189538,2.06788171 10.8879664,1.32098735 C10.0558716,0.572985618 9.04451961,0.201198203 7.84616132,0.201198203 C6.66440846,0.201198203 5.674081,0.570773462 4.86965762,1.30992139 C4.06965078,2.05017669 3.66688021,3.08476282 3.66688021,4.41147802 C3.66688021,5.28672669 3.86162591,6.15423153 4.24669067,7.00955524 L4.24669072,7.00955533 C4.60337427,7.82173034 5.10380127,8.56281292 5.72388178,9.19712593 C5.88543218,9.56670119 5.92084068,9.89754686 5.83342629,10.1929851 C5.74490556,10.4884233 5.63868059,10.7163635 5.51585874,10.8812353 C5.39303611,11.0461052 5.28570454,11.1401586 5.19829118,11.168927 C4.35402307,11.4687922 3.56065528,11.808489 2.82482688,12.1858107 L2.82482699,12.1858107 C2.13150674,12.5330569 1.48771492,12.9714295 0.910565268,13.4892788 C0.371693954,13.9827815 0.100599828,14.4630086 0.100599828,14.9277429 L0.100599828,15.4610799 C0.100599828,17.0920768 2.68983361,17.9053617 7.86830117,17.9053617 C13.0180081,17.9053617 15.5917335,17.0920768 15.5917335,15.4610799 L15.5917335,14.9277429 C15.5917335,14.4475183 15.3206393,13.9595473 14.781768,13.4582982 L14.7817679,13.4582982 C14.200334,12.9302905 13.5441017,12.4910622 12.8343109,12.1548301 L12.8343115,12.1548303 C12.0335318,11.7707658 11.2076611,11.4413802 10.3623686,11.1689298 L10.3623734,11.168926 Z" id="路径"></path>
            </g>
            <path d="M11,0.5 L43,0.5 C48.7989899,0.5 53.5,5.20101013 53.5,11 L53.5,43 C53.5,48.7989899 48.7989899,53.5 43,53.5 L11,53.5 C5.20101013,53.5 0.5,48.7989899 0.5,43 L0.5,11 C0.5,5.20101013 5.20101013,0.5 11,0.5 Z M11,5.5 C7.96243388,5.5 5.5,7.96243388 5.5,11 L5.5,43 C5.5,46.0375661 7.96243388,48.5 11,48.5 L43,48.5 C46.0375661,48.5 48.5,46.0375661 48.5,43 L48.5,11 C48.5,7.96243388 46.0375661,5.5 43,5.5 L11,5.5 Z" id="Rectangle-5" fill-rule="nonzero"></path>
        </g>
    </g>
</svg>