<?xml version="1.0" encoding="UTF-8"?>
<svg width="72px" height="72px" viewBox="0 0 72 72" version="1.1" xmlns="http://www.w3.org/2000/svg" xmlns:xlink="http://www.w3.org/1999/xlink">
    <title>随机循环1</title>
    <defs>
        <linearGradient x1="43.1212151%" y1="0%" x2="43.1212151%" y2="100%" id="linearGradient-1">
            <stop stop-color="#00C0D0" offset="0%"></stop>
            <stop stop-color="#00DAD5" offset="100%"></stop>
        </linearGradient>
    </defs>
    <g id="随机循环1" stroke="none" stroke-width="1" fill="none" fill-rule="evenodd" transform="translate(0.000000, -0.000000)" opacity="0.857500349">
        <g id="编组-2" transform="translate(8.000000, 8.000000)" fill="url(#linearGradient-1)">
            <path d="M50,-9.75392642e-11 C52.1421954,-9.7539133e-11 53.8910789,1.68396847 53.9951047,3.80035966 L54,4 L54,52 C54,54.1421954 52.3160315,55.8910789 50.1996403,55.9951047 L50,56 L7,56 C4.85780461,56 3.10892112,54.3160315 3.00489531,52.1996403 L3,52 L3,37 L1.5,37 C0.671572875,37 -7.00397429e-15,36.3284271 -7.10542736e-15,35.5 C-7.20688042e-15,34.6715729 0.671572875,34 1.5,34 L3,34 L3,27 L1.5,27 C0.671572875,27 -7.00397429e-15,26.3284271 -7.10542736e-15,25.5 C-7.20688042e-15,24.6715729 0.671572875,24 1.5,24 L3,24 L3,17 L1.5,17 C0.671572875,17 -7.00397429e-15,16.3284271 -7.10542736e-15,15.5 C-7.20688042e-15,14.6715729 0.671572875,14 1.5,14 L3,14 L3,4 C3,1.85780461 4.68396847,0.108921124 6.80035966,0.00489530714 L7,-9.75339982e-11 L50,-9.75392642e-11 Z M28.5,35 L13.5,35 C12.6715729,35 12,35.6715729 12,36.5 C12,37.3284271 12.6715729,38 13.5,38 L13.5,38 L28.5,38 C29.3284271,38 30,37.3284271 30,36.5 C30,35.6715729 29.3284271,35 28.5,35 L28.5,35 Z M21.5,26 L13.5,26 C12.6715729,26 12,26.6715729 12,27.5 C12,28.3284271 12.6715729,29 13.5,29 L13.5,29 L21.5,29 C22.3284271,29 23,28.3284271 23,27.5 C23,26.6715729 22.3284271,26 21.5,26 L21.5,26 Z M41.7180232,20.4977102 L39.1206574,20.4977102 L40.1596037,22.0561296 L40.1596037,22.4457345 L39.1206574,26.2119148 L37.562238,20.4977102 C35.4843454,20.6275785 33.9259259,22.3158662 33.9259259,24.3937588 L33.9259259,24.3937588 L33.9259259,25.82231 C33.9259259,26.6015197 34.4453991,27.2508611 35.2246088,27.2508611 L35.2246088,27.2508611 L45.6140718,27.2508611 C46.2634132,27.2508611 46.9127546,26.6015197 46.9127546,25.82231 L46.9127546,25.82231 L47.0426229,25.82231 L47.0426229,24.3937588 C47.0426229,22.3158662 45.3543352,20.6275785 43.4063109,20.4977102 L43.4063109,20.4977102 L41.8478914,26.2119148 L40.8089451,22.4457345 L40.8089451,22.0561296 L41.7180232,20.4977102 Z M27.5,17 L13.5,17 C12.6715729,17 12,17.6715729 12,18.5 C12,19.3284271 12.6715729,20 13.5,20 L13.5,20 L27.5,20 C28.3284271,20 29,19.3284271 29,18.5 C29,17.6715729 28.3284271,17 27.5,17 L27.5,17 Z M40.4193403,11.6666667 C38.471316,11.6666667 36.7830282,13.3549544 36.7830282,15.5627153 C36.7830282,17.6406079 38.471316,19.4587639 40.4193403,19.4587639 C42.3673646,19.4587639 44.0556523,17.6406079 44.0556523,15.5627153 C44.0556523,13.3549544 42.4972329,11.6666667 40.4193403,11.6666667 Z" id="形状结合"></path>
        </g>
    </g>
</svg>