<?xml version="1.0" encoding="UTF-8"?>
<svg width="72px" height="72px" viewBox="0 0 72 72" version="1.1" xmlns="http://www.w3.org/2000/svg" xmlns:xlink="http://www.w3.org/1999/xlink">
    <!-- Generator: Sketch 63.1 (92452) - https://sketch.com -->
    <title>默认9</title>
    <desc>Created with Sketch.</desc>
    <g id="默认9" stroke="none" stroke-width="1" fill="none" fill-rule="evenodd">
        <path d="M55.5,39.2307692 L55.5,50.1851852 C55.5,52.5681916 53.5681916,54.5 51.1851852,54.5 L18.8148148,54.5 C16.4318084,54.5 14.5,52.5681916 14.5,50.1851852 L14.5,17.8148148 C14.5,15.4318084 16.4318084,13.5 18.8148148,13.5 L31,13.5 C32.3807119,13.5 33.5,12.3807119 33.5,11 C33.5,9.61928813 32.3807119,8.5 31,8.5 L18.8148148,8.5 C13.6703846,8.5 9.5,12.6703846 9.5,17.8148148 L9.5,50.1851852 C9.5,55.3296154 13.6703846,59.5 18.8148148,59.5 L51.1851852,59.5 C56.3296154,59.5 60.5,55.3296154 60.5,50.1851852 L60.5,39.2307692 C60.5,37.8500574 59.3807119,36.7307692 58,36.7307692 C56.6192881,36.7307692 55.5,37.8500574 55.5,39.2307692 Z" id="路径" fill="#60759C" fill-rule="nonzero" transform="translate(35.000000, 34.000000) scale(1, -1) translate(-35.000000, -34.000000) "></path>
        <path d="M23.5,22 L48.5,22 C49.8807119,22 51,23.1192881 51,24.5 C51,25.8807119 49.8807119,27 48.5,27 L23.5,27 C22.1192881,27 21,25.8807119 21,24.5 C21,23.1192881 22.1192881,22 23.5,22 Z M23.5,26 C24.3284271,26 25,25.3284271 25,24.5 C25,23.6715729 24.3284271,23 23.5,23 L48.5,23 C47.6715729,23 47,23.6715729 47,24.5 C47,25.3284271 47.6715729,26 48.5,26 L23.5,26 Z" id="矩形" fill="#60759C" fill-rule="nonzero"></path>
        <path d="M23.5,35 L38.5,35 C39.8807119,35 41,36.1192881 41,37.5 C41,38.8807119 39.8807119,40 38.5,40 L23.5,40 C22.1192881,40 21,38.8807119 21,37.5 C21,36.1192881 22.1192881,35 23.5,35 Z M23.5,39 C24.3284271,39 25,38.3284271 25,37.5 C25,36.6715729 24.3284271,36 23.5,36 L38.5,36 C37.6715729,36 37,36.6715729 37,37.5 C37,38.3284271 37.6715729,39 38.5,39 L23.5,39 Z" id="矩形备份" fill="#60759C" fill-rule="nonzero"></path>
        <path d="M50.5,36 C51.8807119,36 53,37.1192881 53,38.5 L53,46 L60.5,46 C61.8807119,46 63,47.1192881 63,48.5 C63,49.8807119 61.8807119,51 60.5,51 L53,51 L53,58.5 C53,59.8807119 51.8807119,61 50.5,61 C49.1192881,61 48,59.8807119 48,58.5 L48,51 L40.5,51 C39.1192881,51 38,49.8807119 38,48.5 C38,47.1192881 39.1192881,46 40.5,46 L48,46 L48,38.5 C48,37.1192881 49.1192881,36 50.5,36 Z" id="形状结合" fill="#60759C" fill-rule="nonzero"></path>
    </g>
</svg>