<?xml version="1.0" encoding="UTF-8"?>
<svg width="72px" height="72px" viewBox="0 0 72 72" version="1.1" xmlns="http://www.w3.org/2000/svg" xmlns:xlink="http://www.w3.org/1999/xlink">
    <!-- Generator: Sketch 63.1 (92452) - https://sketch.com -->
    <title>默认1 </title>
    <desc>Created with Sketch.</desc>
    <g id="默认1-" stroke="none" stroke-width="1" fill="none" fill-rule="evenodd">
        <g id="编组" transform="translate(9.000000, 11.000000)" fill-rule="nonzero">
            <path d="M28.4877018,15.7405797 L22.5356872,3.58181071 C21.6124094,1.69573979 19.6957425,0.5 17.5958127,0.5 L8,0.5 C3.85786438,0.5 0.5,3.85786438 0.5,8 L0.5,42 C0.5,46.1421356 3.85786438,49.5 8,49.5 L46,49.5 C50.1421356,49.5 53.5,46.1421356 53.5,42 L53.5,21.2405797 C53.5,18.2030136 51.0375661,15.7405797 48,15.7405797 L28.4877018,15.7405797 Z M5.5,8 C5.5,6.61928813 6.61928813,5.5 8,5.5 L17.5958127,5.5 C17.7867154,5.5 17.9609578,5.60870362 18.0448922,5.78016461 L25.3683809,20.7405797 L48,20.7405797 C48.2761424,20.7405797 48.5,20.9644373 48.5,21.2405797 L48.5,42 C48.5,43.3807119 47.3807119,44.5 46,44.5 L8,44.5 C6.61928813,44.5 5.5,43.3807119 5.5,42 L5.5,8 Z" id="路径-13" fill="#60759C"></path>
            <g id="设置" transform="translate(8.000000, 23.000000)">
                <rect id="矩形" fill="#000000" opacity="0" x="0" y="0" width="19" height="19"></rect>
                <path d="M14.725,12.2148778 C15.2791667,11.2698517 16.2291667,10.7973386 17.1791667,10.8760908 C17.3375,10.3248255 17.4166667,9.69480804 17.4166667,9.06479057 C17.4166667,8.5135253 17.3375,7.96226004 17.2583333,7.48974695 C16.3083333,7.64725131 15.2791666,7.09598605 14.725,6.15095987 C14.1708333,5.20593369 14.25,4.02465097 14.8833333,3.31588133 C14.0125,2.52835951 13.0625,1.97709425 11.9541667,1.58333333 C11.6375,2.52835951 10.6875,3.15837696 9.5,3.15837696 C8.3125,3.15837696 7.44166667,2.52835951 7.04583333,1.58333333 C5.9375,1.97709423 4.9875,2.6071117 4.11666668,3.3946335 C4.75,4.18215532 4.82916668,5.28468586 4.275,6.22971204 C3.72083333,7.17473822 2.69166668,7.64725131 1.74166668,7.48974695 C1.66250001,8.04101223 1.58333333,8.59227748 1.58333333,9.14354276 C1.58333333,9.77356021 1.66250001,10.3248255 1.82083333,10.8760908 C2.77083333,10.7973386 3.72083333,11.2698517 4.275,12.2148778 C4.75,13.159904 4.75,14.1836824 4.19583333,14.9712042 C5.06666666,15.758726 6.01666666,16.3099913 7.125,16.625 C7.52083333,15.758726 8.39166667,15.2074607 9.5,15.2074607 C10.6083333,15.2074607 11.4791667,15.758726 11.875,16.625 C12.9833333,16.3099913 13.9333333,15.6799738 14.8041667,14.9712042 C14.25,14.1836824 14.1708333,13.159904 14.725,12.2148778 Z M9.5,12.5298866 C7.6,12.5298866 6.09583333,11.0335951 6.09583333,9.14354276 C6.09583333,7.2534904 7.6,5.75719895 9.5,5.75719895 C11.4,5.75719895 12.9041667,7.2534904 12.9041667,9.14354276 C12.9041667,11.0335951 11.4,12.5298866 9.5,12.5298866 Z" id="形状" fill="#60759C"></path>
            </g>
        </g>
        <path d="M49.7738662,28.6686771 L54.7738662,28.6686771 L54.7738662,19.6686771 C54.7738662,17.1833958 52.7591476,15.1686771 50.2738662,15.1686771 L31.2738662,15.1686771 L31.2738662,20.1686771 L49.7738662,20.1686771 L49.7738662,28.6686771 Z" id="路径-14" fill="#60759C" fill-rule="nonzero"></path>
    </g>
</svg>