<?xml version="1.0" encoding="UTF-8"?>
<svg width="72px" height="72px" viewBox="0 0 72 72" version="1.1" xmlns="http://www.w3.org/2000/svg" xmlns:xlink="http://www.w3.org/1999/xlink">
    <!-- Generator: Sketch 63.1 (92452) - https://sketch.com -->
    <title>默认11</title>
    <desc>Created with Sketch.</desc>
    <g id="默认11" stroke="none" stroke-width="1" fill="none" fill-rule="evenodd">
        <g id="证" transform="translate(9.000000, 6.000000)" fill="#60759C" fill-rule="nonzero">
            <path d="M26.4825268,0.795967989 L1.82006657,13.9990708 C1.00733338,14.4341693 0.5,15.2812319 0.5,16.2031028 L0.5,43.857631 C0.5,44.750628 0.976320688,45.5758177 1.74959532,46.0224608 L25.7495614,59.8848298 C26.5232688,60.3317228 27.4766602,60.3317234 28.2503681,59.8848313 L52.250402,46.0224623 C53.0236782,45.5758196 53.5,44.7506291 53.5,43.857631 L53.5,16.2997591 C53.5,15.4015776 53.0181799,14.5724259 52.2378223,14.1277103 L28.9002824,0.82795118 C28.1534561,0.402344582 27.2403501,0.390265593 26.4825268,0.795967989 Z M27.6246805,5.85593742 L48.5,17.7525093 L48.5,42.4145648 L26.9999678,54.8329381 L5.5,42.4145668 L5.5,17.7004342 L27.6246805,5.85593742 Z" id="路径-10"></path>
        </g>
        <path d="M36,22.5 C37.3254834,22.5 38.4100387,23.5315359 38.4946823,24.8356243 L38.5,25 L38.5007612,34.5322818 C38.6341497,34.6216785 38.7608337,34.7252998 38.8786797,34.8431458 L46.6568542,42.6213203 C47.633165,43.5976311 47.633165,45.1805435 46.6568542,46.1568542 C45.6805435,47.133165 44.0976311,47.133165 43.1213203,46.1568542 L35.9999127,39.035 L28.8786797,46.1568542 C27.9448172,47.0907167 26.4559543,47.1313194 25.473831,46.2786624 L25.3431458,46.1568542 C24.4092833,45.2229918 24.3686806,43.7341289 25.2213376,42.7520056 L25.3431458,42.6213203 L33.1213203,34.8431458 C33.2393983,34.7250678 33.3663492,34.6212705 33.5000268,34.5317539 L33.5,25 C33.5,23.6192881 34.6192881,22.5 36,22.5 Z" id="形状结合" fill="#60759C" fill-rule="nonzero"></path>
    </g>
</svg>