<?xml version="1.0" encoding="UTF-8"?>
<svg width="72px" height="72px" viewBox="0 0 72 72" version="1.1" xmlns="http://www.w3.org/2000/svg" xmlns:xlink="http://www.w3.org/1999/xlink">
    <title>随机循环4</title>
    <defs>
        <linearGradient x1="50%" y1="-5.81532713%" x2="50%" y2="94.1846729%" id="linearGradient-1">
            <stop stop-color="#F99432" offset="0%"></stop>
            <stop stop-color="#FFB940" offset="100%"></stop>
        </linearGradient>
    </defs>
    <g id="随机循环4" stroke="none" stroke-width="1" fill="none" fill-rule="evenodd" transform="translate(0.000000, -0.000000)">
        <g id="编组-10" transform="translate(10.000000, 8.000000)">
            <g id="编组-11" fill="url(#linearGradient-1)">
                <path d="M48,0 C50.209139,-4.33003142e-15 52,1.790861 52,4 L52,52 C52,54.209139 50.209139,56 48,56 L4,56 C1.790861,56 2.705415e-16,54.209139 0,52 L0,4 C-2.705415e-16,1.790861 1.790861,4.05812251e-16 4,0 L48,0 Z M43.1013071,29.8335951 L42.5126947,29.8335951 C41.6842675,29.8335951 41.0126947,30.505168 41.0126947,31.3335951 L41.0126947,31.3335951 L41.0126947,47.4728613 C41.0126947,48.3012884 41.6842675,48.9728613 42.5126947,48.9728613 L42.5126947,48.9728613 L43.1013071,48.9728613 C43.9297342,48.9728613 44.6013071,48.3012884 44.6013071,47.4728613 L44.6013071,47.4728613 L44.6013071,31.3335951 C44.6013071,30.505168 43.9297342,29.8335951 43.1013071,29.8335951 L43.1013071,29.8335951 Z M34.7278781,37.0108199 L34.1392657,37.0108199 C33.3108386,37.0108199 32.6392657,37.6823928 32.6392657,38.5108199 L32.6392657,38.5108199 L32.6392657,47.4728613 C32.6392657,48.3012884 33.3108386,48.9728613 34.1392657,48.9728613 L34.1392657,48.9728613 L34.7278781,48.9728613 C35.5563052,48.9728613 36.2278781,48.3012884 36.2278781,47.4728613 L36.2278781,47.4728613 L36.2278781,38.5108199 C36.2278781,37.6823928 35.5563052,37.0108199 34.7278781,37.0108199 L34.7278781,37.0108199 Z M26.3544492,41.7956365 L25.7658368,41.7956365 C24.9374096,41.7956365 24.2658368,42.4672093 24.2658368,43.2956365 L24.2658368,43.2956365 L24.2658368,47.4728613 C24.2658368,48.3012884 24.9374096,48.9728613 25.7658368,48.9728613 L25.7658368,48.9728613 L26.3544492,48.9728613 C27.1828763,48.9728613 27.8544492,48.3012884 27.8544492,47.4728613 L27.8544492,47.4728613 L27.8544492,43.2956365 C27.8544492,42.4672093 27.1828763,41.7956365 26.3544492,41.7956365 L26.3544492,41.7956365 Z M17.9810202,44.1880447 L17.3924078,44.1880447 C16.5639807,44.1880447 15.8924078,44.8596176 15.8924078,45.6880447 L15.8924078,45.6880447 L15.8924078,47.4728613 C15.8924078,48.3012884 16.5639807,48.9728613 17.3924078,48.9728613 L17.3924078,48.9728613 L17.9810202,48.9728613 C18.8094473,48.9728613 19.4810202,48.3012884 19.4810202,47.4728613 L19.4810202,47.4728613 L19.4810202,45.6880447 C19.4810202,44.8596176 18.8094473,44.1880447 17.9810202,44.1880447 L17.9810202,44.1880447 Z M42.0035888,19.8235294 L36.9791159,19.8235294 L36.8652991,19.8290348 C36.2618418,19.8876321 35.8015013,20.3948416 35.8015014,21.0011362 L35.8015014,21.0011362 L35.8054074,21.1140066 C35.8636661,21.7180712 36.3714423,22.1789453 36.9783111,22.1785698 L36.9783111,22.1785698 L38.9127373,22.1785698 C32.3353575,28.3194596 24.4155344,32.1192156 15.1272869,33.588878 C15.1169028,33.5903763 15.1065392,33.5920132 15.0961988,33.5937884 C14.4551988,33.7038327 14.0247731,34.3126739 14.1348167,34.9536751 C14.2448611,35.5946751 14.8537023,36.0251008 15.4947035,35.9150572 L15.4947035,35.9150572 L16.1522894,35.8068808 C25.765522,34.1651311 33.9986435,30.0962997 40.8259563,23.6121175 L40.8259563,23.6121175 L40.8259563,25.9720562 L40.8314519,26.0858921 C40.8898689,26.689515 41.3971483,27.1500726 42.0035901,27.1500726 C42.653968,27.1500726 43.1812042,26.6228363 43.1812042,25.9724584 L43.1812042,25.9724584 L43.1812042,21.0011436 L43.1757087,20.8880926 C43.1174756,20.2843261 42.6101558,19.8235294 42.0035888,19.8235294 L42.0035888,19.8235294 Z M27.4411765,6.44444444 L8.44117647,6.44444444 C7.0604646,6.44444444 5.94117647,7.56373257 5.94117647,8.94444444 C5.94117647,10.2699278 6.97271241,11.3544831 8.27680078,11.4391268 L8.44117647,11.4444444 L27.4411765,11.4444444 C28.8218883,11.4444444 29.9411765,10.3251563 29.9411765,8.94444444 C29.9411765,7.56373257 28.8218883,6.44444444 27.4411765,6.44444444 Z" id="形状结合"></path>
            </g>
            <g id="rise_1" opacity="0.95" transform="translate(14.117647, 19.823529)"></g>
        </g>
    </g>
</svg>