<?xml version="1.0" encoding="UTF-8"?>
<svg width="72px" height="72px" viewBox="0 0 72 72" version="1.1" xmlns="http://www.w3.org/2000/svg" xmlns:xlink="http://www.w3.org/1999/xlink">
    <!-- Generator: Sketch 63.1 (92452) - https://sketch.com -->
    <title>默认2</title>
    <desc>Created with Sketch.</desc>
    <g id="默认2" stroke="none" stroke-width="1" fill="none" fill-rule="evenodd">
        <g id="编组-3" transform="translate(10.000000, 7.000000)" fill="#60759C">
            <g id="编组" transform="translate(0.000000, 0.000000)" fill-rule="nonzero">
                <path d="M7,0.845807333 C3.41014913,0.845807333 0.5,3.75595646 0.5,7.34580733 L0.5,50.486486 C0.5,54.0763369 3.41014913,56.986486 7,56.986486 L42.5135135,56.986486 C46.1033644,56.986486 49.0135135,54.0763369 49.0135135,50.486486 L49.0135135,15.3593112 C49.0135135,13.8114218 48.2179695,12.3721776 46.9072448,11.5487928 L30.9670087,1.5352889 C30.2498748,1.08479222 29.4201708,0.845807333 28.5732775,0.845807333 L7,0.845807333 Z M28.4292593,5.84580733 L44.0135135,15.6356869 L44.0135135,50.486486 C44.0135135,51.3149131 43.3419406,51.986486 42.5135135,51.986486 L7,51.986486 C6.17157288,51.986486 5.5,51.3149131 5.5,50.486486 L5.5,7.34580733 C5.5,6.51738021 6.17157288,5.84580733 7,5.84580733 L28.4292593,5.84580733 Z" id="路径-5"></path>
                <path d="M26.6081081,2 L26.6081081,12 C26.6081081,16.1421356 29.9659725,19.5 34.1081081,19.5 L46.1081081,19.5 L46.1081081,14.5 L34.1081081,14.5 C32.7273962,14.5 31.6081081,13.3807119 31.6081081,12 L31.6081081,2 L26.6081081,2 Z" id="路径-6"></path>
            </g>
            <path d="M12.6555556,16 L16.8555556,16 C18.2362674,16 19.3555556,17.1192881 19.3555556,18.5 C19.3555556,19.8807119 18.2362674,21 16.8555556,21 L12.6555556,21 C11.2748437,21 10.1555556,19.8807119 10.1555556,18.5 C10.1555556,17.1192881 11.2748437,16 12.6555556,16 Z M12.6555556,20 C13.4839827,20 14.1555556,19.3284271 14.1555556,18.5 C14.1555556,17.6715729 13.4839827,17 12.6555556,17 L16.8555556,17 C16.0271284,17 15.3555556,17.6715729 15.3555556,18.5 C15.3555556,19.3284271 16.0271284,20 16.8555556,20 L12.6555556,20 Z" id="矩形备份" fill-rule="nonzero"></path>
            <g id="编组-2" transform="translate(9.177778, 20.000000)">
                <g id="编组" transform="translate(15.550581, 17.995680) rotate(-17.000000) translate(-15.550581, -17.995680) translate(4.050581, 2.995680)">
                    <path d="M18.2505283,17.9707249 C19.4254962,17.9816113 20.3753636,18.9313755 20.3863775,20.1063422 L20.4539444,27.314406 C20.4646967,28.4614659 19.5435374,29.4000581 18.3964775,29.4108104 C18.3835737,29.4109314 18.3706691,29.4109321 18.3577653,29.4108125 C17.1827974,29.3999261 16.2329301,28.4501619 16.2219162,27.2751951 L16.1543493,20.0671314 C16.143597,18.9200715 17.0647563,17.9814793 18.2118162,17.970727 C18.2247199,17.970606 18.2376245,17.9706053 18.2505283,17.9707249 Z" id="矩形" transform="translate(18.304147, 23.690769) rotate(-29.000000) translate(-18.304147, -23.690769) "></path>
                    <path d="M11.2353839,21.6631137 C17.1490079,21.6631137 21.9605452,16.956175 21.9605452,11.1276298 C21.9605452,5.29908455 17.1490079,0.592145919 11.2353839,0.592145919 C5.32175987,0.592145919 0.510222601,5.29908455 0.510222601,11.1276298 C0.510222601,16.956175 5.32175987,21.6631137 11.2353839,21.6631137 Z M11.2353839,17.6631137 C7.51146087,17.6631137 4.5102226,14.7271197 4.5102226,11.1276298 C4.5102226,7.52813988 7.51146087,4.59214592 11.2353839,4.59214592 C14.9593069,4.59214592 17.9605452,7.52813988 17.9605452,11.1276298 C17.9605452,14.7271197 14.9593069,17.6631137 11.2353839,17.6631137 Z" id="椭圆形" fill-rule="nonzero"></path>
                </g>
            </g>
        </g>
    </g>
</svg>