<?xml version="1.0" encoding="UTF-8"?>
<svg width="72px" height="72px" viewBox="0 0 72 72" version="1.1" xmlns="http://www.w3.org/2000/svg" xmlns:xlink="http://www.w3.org/1999/xlink">
    <title>国防工业云</title>
    <defs>
        <linearGradient x1="50%" y1="-5.81532713%" x2="50%" y2="94.1846729%" id="linearGradient-1">
            <stop stop-color="#0079FF" offset="0%"></stop>
            <stop stop-color="#4794FF" offset="100%"></stop>
        </linearGradient>
    </defs>
    <g id="国防工业云" stroke="none" stroke-width="1" fill="none" fill-rule="evenodd">
        <path d="M35.5001115,6 C39.7176038,6 43.9291811,6.84960938 47.8864075,8.54296875 L47.8864075,8.54296875 L61.9999619,14.5957031 L61.9999619,31.8222656 C62.0058385,35.7480469 61.3315129,39.6386719 60.0006072,43.3300781 C58.6992771,46.9570312 56.8360091,50.3554688 54.4758696,53.4023438 C52.109815,56.5019531 49.252804,59.203125 46.0231394,61.3886719 C42.8230505,63.5507812 39.2562232,65.109375 35.4941963,66 C31.7262543,65.1152344 28.1475967,63.5449219 24.9356775,61.3710938 C21.7060129,59.1796875 18.849002,56.484375 16.4829473,53.3847656 C14.1405532,50.34375 12.2891155,46.9570312 10.9996157,43.3417969 C9.66870999,39.6503906 8.98846929,35.7597656 9.00014786,31.8339844 L9.00014786,31.8339844 L9.00014786,14.5957031 L23.1079003,8.54882812 C27.0592115,6.84960938 31.2826191,6 35.5001115,6 Z M31.3737594,23.9416618 C28.6590728,26.6177568 27.8222145,30.4786879 28.8631846,33.9106266 C29.026474,34.4621882 28.9244181,35.0750344 28.5161946,35.4835985 L23.0664102,40.9175015 C22.3111966,41.6733451 22.3111966,42.9194657 23.0664102,43.6753094 L25.8423303,46.4331173 C26.5975439,47.1889609 27.8426257,47.1889609 28.6182505,46.4331173 L34.1088572,40.9583579 C34.5170807,40.5497938 35.1090049,40.4272245 35.6805179,40.5906502 C39.0891845,41.5916323 42.9060747,40.7540758 45.6003501,38.0575525 C47.9884579,35.6674524 48.9069609,32.3376547 48.3354479,29.2325673 C48.1721585,28.3541544 47.0495437,28.0273031 46.4167972,28.6605775 L41.0486575,34.0127676 C40.293444,34.7686113 39.0483621,34.7686113 38.2727374,34.0127676 L35.5172284,31.2549597 C34.7416037,30.4786879 34.7416037,29.2529955 35.5172284,28.4971518 L40.9261905,23.1041053 C41.558937,22.4708309 41.2527693,21.3472795 40.3750887,21.1838539 C37.2113562,20.5710077 33.8231007,21.490277 31.3737594,23.9416618 Z" id="形状结合" fill="url(#linearGradient-1)"></path>
    </g>
</svg>