<?xml version="1.0" encoding="UTF-8"?>
<svg width="72px" height="72px" viewBox="0 0 72 72" version="1.1" xmlns="http://www.w3.org/2000/svg" xmlns:xlink="http://www.w3.org/1999/xlink">
    <title>制造云备份</title>
    <defs>
        <linearGradient x1="83.3191163%" y1="35.8013184%" x2="37.2329044%" y2="56.0065029%" id="linearGradient-1">
            <stop stop-color="#F99432" offset="0%"></stop>
            <stop stop-color="#FFB940" offset="100%"></stop>
        </linearGradient>
        <linearGradient x1="78.2581423%" y1="6.5412385%" x2="34.2333619%" y2="95.6564771%" id="linearGradient-2">
            <stop stop-color="#F99432" offset="0%"></stop>
            <stop stop-color="#FFB940" offset="100%"></stop>
        </linearGradient>
        <path d="M7.967,24.465 L25.52,28.616 L16.3930048,43.2644648 C15.0214026,45.4656744 12.1396796,46.1341559 9.95000838,44.7590651 L0.468314926,38.8046598 C0.00660342314,38.5147097 -0.137760987,37.9083524 0.143755774,37.441451 L7.967,24.465 Z M11.8,18.107 L29.466,22.284 L27.096,26.088 L9.497,21.927 L11.8,18.107 Z M22.7189665,0 L37.9513096,8.66671821 L31.04,19.757 L13.331,15.569 L22.7189665,0 Z" id="path-3"></path>
        <linearGradient x1="50%" y1="-5.81532713%" x2="50%" y2="94.1846729%" id="linearGradient-5">
            <stop stop-color="#F99432" offset="0%"></stop>
            <stop stop-color="#FFB940" offset="100%"></stop>
        </linearGradient>
    </defs>
    <g id="制造云备份" stroke="none" stroke-width="1" fill="none" fill-rule="evenodd">
        <g id="编组" transform="translate(10.780900, 8.000000)">
            <path d="M26.142,8.61662896 L47.0904525,21.4415127 C47.5603815,21.7292086 48.1744888,21.5825637 48.4637283,21.1135831 L52.6819714,14.274012 C52.9718847,13.8039389 52.8258363,13.1878482 52.3557632,12.8979349 C52.3492487,12.8939171 52.3426882,12.8899743 52.3360832,12.8861071 L34.4405498,2.40857702 C32.1502291,1.06763324 29.208676,1.79304235 27.8044159,4.04509757 L25.8155809,7.23465352 C25.5233607,7.70329603 25.6663792,8.32009712 26.1350217,8.61231731 C26.1373419,8.61376406 26.1396681,8.61520129 26.142,8.61662896 Z" id="路径-4" fill="url(#linearGradient-1)"></path>
            <g id="路径-7-+-路径-7备份-蒙版" transform="translate(6.541970, 10.526179)">
                <mask id="mask-4" fill="white">
                    <use xlink:href="#path-3"></use>
                </mask>
                <use id="形状结合" fill="url(#linearGradient-2)" xlink:href="#path-3"></use>
            </g>
            <path d="M14.7176677,10.1304992 C15.0760147,10.1304992 15.4069688,10.3222439 15.5852023,10.6331224 L20.1617898,18.6156978 C20.3384103,18.9237629 20.3384103,19.3023864 20.1617898,19.6104515 L15.5852023,27.5930269 C15.4069688,27.9039053 15.0760147,28.0956501 14.7176677,28.0956501 L5.57658751,28.0956501 C5.2182405,28.0956501 4.88728641,27.9039053 4.70905291,27.5930269 L0.132465395,19.6104515 C-0.0441551315,19.3023864 -0.0441551315,18.9237629 0.132465395,18.6156978 L4.70905291,10.6331224 C4.88728641,10.3222439 5.2182405,10.1304992 5.57658751,10.1304992 L14.7176677,10.1304992 Z M10.1471276,15.3413711 C8.07860645,15.3413711 6.40173874,17.0300203 6.40173874,19.1130746 C6.40173874,21.196129 8.07860645,22.8847782 10.1471276,22.8847782 C12.2156488,22.8847782 13.8925165,21.196129 13.8925165,19.1130746 C13.8925165,17.0300203 12.2156488,15.3413711 10.1471276,15.3413711 Z" id="形状结合" fill="url(#linearGradient-5)" opacity="0.7"></path>
        </g>
    </g>
</svg>