<?xml version="1.0" encoding="UTF-8"?>
<svg width="20px" height="20px" viewBox="0 0 20 20" version="1.1" xmlns="http://www.w3.org/2000/svg" xmlns:xlink="http://www.w3.org/1999/xlink">
    <title>我的收藏</title>
    <defs>
        <linearGradient x1="50%" y1="-2.48949813e-15%" x2="50%" y2="100%" id="linearGradient-1">
            <stop stop-color="#FDBC72" offset="0%"></stop>
            <stop stop-color="#F29136" offset="100%"></stop>
        </linearGradient>
    </defs>
    <g id="最终版本" stroke="none" stroke-width="1" fill="none" fill-rule="evenodd">
        <g id="我的收藏" transform="translate(-20.000000, -62.000000)">
            <g transform="translate(20.000000, 62.000000)">
                <g transform="translate(2.000000, 2.000000)">
                    <rect id="矩形" fill="url(#linearGradient-1)" x="0" y="0" width="16" height="16" rx="5"></rect>
                    <path d="M3.88079309,6.26785017 L6.51735464,5.93155275 L6.51735464,5.93155275 L8.0548836,3.62904399 C8.08555369,3.58311437 8.14765002,3.57074406 8.19357964,3.60141414 C8.20542979,3.60932722 8.21545197,3.61968146 8.22297475,3.63178314 L9.65258148,5.93155275 L9.65258148,5.93155275 L12.0214889,6.2657285 C12.076176,6.27344306 12.1142547,6.32402953 12.1065401,6.37871655 C12.1039254,6.39725162 12.0961609,6.41468072 12.0841299,6.42902093 L10.3566783,8.48804185 L10.3566783,8.48804185 L10.7474196,11.3820302 C10.7548094,11.4367621 10.7164311,11.4871216 10.6616993,11.4945114 C10.6468926,11.4965106 10.6318261,11.4951665 10.6176071,11.4905778 L8.14105434,10.6913616 L8.14105434,10.6913616 L5.34562551,11.4980715 C5.29256239,11.5133846 5.23713255,11.4827821 5.22181949,11.429719 C5.21822924,11.417278 5.21708938,11.4042581 5.21846321,11.3913824 L5.52825089,8.48804185 L5.52825089,8.48804185 L3.8165773,6.43100933 C3.7812516,6.38855608 3.78702963,6.32550377 3.82948288,6.29017807 C3.84411299,6.27800424 3.86191339,6.2702583 3.88079309,6.26785017 Z" id="路径-6" stroke="#FFFFFF" stroke-width="1.1"></path>
                </g>
                <rect id="矩形" x="0" y="0" width="20" height="20"></rect>
            </g>
        </g>
    </g>
</svg>