<?xml version="1.0" encoding="UTF-8"?>
<svg width="72px" height="72px" viewBox="0 0 72 72" version="1.1" xmlns="http://www.w3.org/2000/svg" xmlns:xlink="http://www.w3.org/1999/xlink">
    <title>贸易云</title>
    <defs>
        <linearGradient x1="50%" y1="-5.81532713%" x2="50%" y2="94.1846729%" id="linearGradient-1">
            <stop stop-color="#0079FF" offset="0%"></stop>
            <stop stop-color="#4794FF" offset="100%"></stop>
        </linearGradient>
        <linearGradient x1="50%" y1="50%" x2="0.901895225%" y2="100%" id="linearGradient-2">
            <stop stop-color="#0079FF" offset="0%"></stop>
            <stop stop-color="#67A5FF" offset="100%"></stop>
        </linearGradient>
    </defs>
    <g id="贸易云" stroke="none" stroke-width="1" fill="none" fill-rule="evenodd">
        <g id="编组" transform="translate(10.000000, 8.000000)">
            <path d="M37.1430408,0 C37.672401,-6.59067465e-16 38.1801702,0.209864551 38.5550633,0.583598782 L51.4120225,13.4008116 C51.7884354,13.7760608 52,14.2857069 52,14.8172128 L52,52.9978435 C52,54.649078 50.6533439,56 49.0066284,56 L2.99337157,56 C1.34665617,56 0,54.6490781 0,52.9978435 L0,3.00221352 C0,1.350979 1.34665611,0 2.99337157,0 L37.1430408,0 Z M16,34 L14,34 C12.8954305,34 12,34.8954305 12,36 L12,36 L12,45 C12,46.1045695 12.8954305,47 14,47 L14,47 L16,47 C17.1045695,47 18,46.1045695 18,45 L18,45 L18,36 C18,34.8954305 17.1045695,34 16,34 L16,34 Z M26,29.4074074 L24,29.4074074 C22.8954305,29.4074074 22,30.3028379 22,31.4074074 L22,31.4074074 L22,45 C22,46.1045695 22.8954305,47 24,47 L24,47 L26,47 C27.1045695,47 28,46.1045695 28,45 L28,45 L28,31.4074074 C28,30.3028379 27.1045695,29.4074074 26,29.4074074 L26,29.4074074 Z M36,22 L34,22 C32.8954305,22 32,22.8954305 32,24 L32,24 L32,45 C32,46.1045695 32.8954305,47 34,47 L34,47 L36,47 C37.1045695,47 38,46.1045695 38,45 L38,45 L38,24 C38,22.8954305 37.1045695,22 36,22 L36,22 Z" id="形状结合" fill="url(#linearGradient-1)"></path>
            <path d="M51.6929736,14.0759077 L39.9467793,13.9997845 C38.8511905,13.9926844 37.9652454,13.1054282 37.9597654,12.0098301 L37.9004805,0.157312215 L37.9004805,0.157312215 L51.6929736,14.0759077 Z" id="路径" fill="url(#linearGradient-2)"></path>
        </g>
    </g>
</svg>