<?xml version="1.0" encoding="UTF-8"?>
<svg width="72px" height="72px" viewBox="0 0 72 72" version="1.1" xmlns="http://www.w3.org/2000/svg" xmlns:xlink="http://www.w3.org/1999/xlink">
    <title>采购云</title>
    <defs>
        <linearGradient x1="50%" y1="46.101412%" x2="47.0964547%" y2="53.898588%" id="linearGradient-1">
            <stop stop-color="#FD785E" offset="0%"></stop>
            <stop stop-color="#FFB68B" offset="100%"></stop>
        </linearGradient>
        <linearGradient x1="50%" y1="-2.48949813e-15%" x2="50%" y2="100%" id="linearGradient-2">
            <stop stop-color="#FD785E" offset="0%"></stop>
            <stop stop-color="#FF8C49" offset="100%"></stop>
        </linearGradient>
        <linearGradient x1="50%" y1="-2.48949813e-15%" x2="50%" y2="100%" id="linearGradient-3">
            <stop stop-color="#FD785E" offset="0%"></stop>
            <stop stop-color="#FF8C49" offset="100%"></stop>
        </linearGradient>
        <linearGradient x1="8.74370168%" y1="50%" x2="87.6138223%" y2="54.3730466%" id="linearGradient-4">
            <stop stop-color="#FD785E" offset="0%"></stop>
            <stop stop-color="#FF8C49" offset="100%"></stop>
        </linearGradient>
        <linearGradient x1="-2.97388457%" y1="50%" x2="29.9991568%" y2="50%" id="linearGradient-5">
            <stop stop-color="#FD785E" offset="0%"></stop>
            <stop stop-color="#FF8C49" offset="100%"></stop>
        </linearGradient>
    </defs>
    <g id="采购云" stroke="none" stroke-width="1" fill="none" fill-rule="evenodd">
        <path d="M56.8902293,21.0279037 L37.2127263,21.0279037 C36.8055545,21.0279037 36.472414,20.690085 36.472414,20.2771955 L36.472414,15.8705382 C36.472414,15.4576487 36.8055545,15.11983 37.2127263,15.11983 L56.8902293,15.11983 C57.2974011,15.11983 57.6305417,15.4576487 57.6305417,15.8705382 L57.6305417,20.2771955 C57.6305417,20.690085 57.2974011,21.0279037 56.8902293,21.0279037 Z" id="路径" fill="url(#linearGradient-1)" opacity="0.829589844"></path>
        <path d="M41.3288632,27.1161473 L22.9321006,21.5233711 C22.5397351,21.4032578 22.3176413,20.9828612 22.4360913,20.5849858 L24.8939284,12.2446176 C25.0123784,11.8467422 25.4269533,11.6215297 25.8193189,11.7416431 L44.2160814,17.3344193 C44.608447,17.4545326 44.8305407,17.8749292 44.7120907,18.2728045 L42.2468505,26.6131728 C42.1284005,27.0035411 41.7138256,27.2287535 41.3288632,27.1161473 L41.3288632,27.1161473 Z" id="路径" fill="url(#linearGradient-2)" opacity="0.491048177"></path>
        <path d="M50.3902866,52.1147309 C51.1157928,52.1147309 51.7968801,52.2498584 52.4631613,52.5276204 C53.1220393,52.7978754 53.6920798,53.1882436 54.1658797,53.676204 C54.6396797,54.1641643 55.0246421,54.7497167 55.2985577,55.417847 C55.5872795,56.0934844 55.7279389,56.7991501 55.7279389,57.5348442 C55.7279389,58.2780453 55.5872795,58.983711 55.2985577,59.6518414 C55.0098359,60.3199717 54.6396797,60.9055241 54.1658797,61.3859773 C53.6920798,61.8739377 53.1220393,62.2643059 52.4631613,62.5570822 C51.8042833,62.8498584 51.1157928,63 50.3902866,63 C49.6647805,63 48.9836931,62.8498584 48.3470245,62.5570822 C47.6955496,62.2643059 47.1477184,61.8739377 46.6665154,61.3859773 C46.1927155,60.898017 45.807753,60.3124646 45.5338374,59.6518414 C45.2451156,58.9912181 45.1044563,58.2855524 45.1044563,57.5348442 C45.1044563,56.784136 45.2451156,56.0784703 45.5338374,55.417847 C45.8225593,54.7572238 46.1927155,54.1791785 46.6665154,53.676204 C47.1403153,53.1882436 47.6955496,52.7978754 48.3470245,52.5276204 C48.9984994,52.2498584 49.6795868,52.1147309 50.3902866,52.1147309 Z M26.781725,52.0021246 C27.5072311,52.0021246 28.1883185,52.1372521 28.8249871,52.4150142 C29.476462,52.6852691 30.0316963,53.0756374 30.5277056,53.5635977 C31.0237149,54.0515581 31.3938711,54.6371105 31.6603835,55.3052408 C31.926896,55.9808782 32.0527491,56.6865439 32.0527491,57.422238 C32.0527491,58.1654391 31.9194929,58.8711048 31.6603835,59.5392351 C31.3938711,60.2148725 31.0089086,60.7929178 30.5277056,61.2808782 C30.0316963,61.7688385 29.476462,62.1592068 28.8249871,62.451983 C28.1735122,62.7447592 27.499828,62.8949008 26.781725,62.8949008 C26.0266063,62.8949008 25.3307127,62.7447592 24.7088503,62.451983 C24.0869879,62.1592068 23.5243505,61.7688385 23.0283412,61.2808782 C22.5323319,60.7929178 22.1621757,60.2073654 21.8956633,59.5392351 C21.6291508,58.8635977 21.5032977,58.157932 21.5032977,57.422238 C21.5032977,56.6790368 21.636554,55.965864 21.8956633,55.3052408 C22.1621757,54.6296034 22.5471382,54.0665722 23.0283412,53.5635977 C23.5243505,53.0756374 24.0795848,52.6852691 24.7088503,52.4150142 C25.3381158,52.1447592 26.0266063,52.0021246 26.781725,52.0021246 Z" id="形状" fill="url(#linearGradient-3)" opacity="0.7"></path>
        <path d="M22.6205904,19.427245 L62.1906454,19.427245 C63.2952148,19.427245 64.1906454,20.3226755 64.1906454,21.427245 C64.1906454,21.6604629 64.1498548,21.8918836 64.0701174,22.1110469 L58.1094095,38.494425 C57.8219085,39.2846394 57.0708273,39.8106232 56.2299375,39.8106232 L25.5220643,39.8106232 C24.5520419,39.8106232 23.7218667,39.1145526 23.5527092,38.1593933 L20.6512353,21.7760151 C20.4586149,20.6883704 21.1841755,19.6505104 22.2718203,19.45789 C22.3869576,19.4374993 22.5036614,19.427245 22.6205904,19.427245 Z" id="路径-14" fill="url(#linearGradient-4)"></path>
        <path d="M10,10 L17.6931238,10 C18.6534106,10 19.478157,10.6824996 19.6578116,11.6258314 L25.7909257,43.8296407 C25.9705803,44.7729725 26.7953266,45.4554721 27.7556134,45.4554721 L55.6305417,45.4554721 C56.7351112,45.4554721 57.6305417,46.3509026 57.6305417,47.4554721 L57.6305417,48.4106232 C57.6305417,49.5151927 56.7351112,50.4106232 55.6305417,50.4106232 L23.1547242,50.4106232 C22.1960598,50.4106232 21.3722269,49.7303735 21.1908472,48.789024 L15.3932072,18.6996241 C15.2118275,17.7582746 14.3879946,17.0780249 13.4293302,17.0780249 L10,17.0780249 C8.8954305,17.0780249 8,16.1825944 8,15.0780249 L8,12 C8,10.8954305 8.8954305,10 10,10 Z" id="路径-3" fill="url(#linearGradient-5)"></path>
    </g>
</svg>