<?xml version="1.0" encoding="UTF-8"?>
<svg width="72px" height="72px" viewBox="0 0 72 72" version="1.1" xmlns="http://www.w3.org/2000/svg" xmlns:xlink="http://www.w3.org/1999/xlink">
    <title>项目云</title>
    <defs>
        <linearGradient x1="50%" y1="-5.81532713%" x2="50%" y2="94.1846729%" id="linearGradient-1">
            <stop stop-color="#F99432" offset="0%"></stop>
            <stop stop-color="#FFB940" offset="100%"></stop>
        </linearGradient>
        <linearGradient x1="50%" y1="-5.81532713%" x2="50%" y2="94.1846729%" id="linearGradient-2">
            <stop stop-color="#F99432" offset="0%"></stop>
            <stop stop-color="#FFB940" offset="100%"></stop>
        </linearGradient>
    </defs>
    <g id="项目云" stroke="none" stroke-width="1" fill="none" fill-rule="evenodd">
        <g id="编组" transform="translate(8.771150, 6.922817)">
            <path d="M5.87851003,4.07718286 C4.71615175,4.07718286 3.75832862,5.16085176 3.75832862,6.45373767 L3.75832862,36.851948 C3.75832862,37.4042327 4.20604387,37.851948 4.75832862,37.851948 L12.1904148,37.851948 L12.1904148,37.851948 C12.1904148,37.8527678 21.0306321,37.8527829 38.7110666,37.8519931 C39.263318,37.8519394 39.710993,37.4042444 39.710993,36.8519931 L39.710993,6.45373767 L39.710993,6.45373767 C39.710993,5.11950948 38.7562878,4.07718286 37.5939295,4.07718286 L5.87851003,4.07718286 Z" id="路径" fill="url(#linearGradient-1)" opacity="0.67905971" transform="translate(21.734661, 20.964879) rotate(-15.000000) translate(-21.734661, -20.964879) "></path>
            <path d="M14.87851,4.07718286 C13.7161518,4.07718286 12.7583286,5.16085176 12.7583286,6.45373767 L12.7583286,36.851948 C12.7583286,37.4042327 13.2060439,37.851948 13.7583286,37.851948 L21.1904148,37.851948 L21.1904148,37.851948 C21.1904148,37.8527678 30.0306321,37.8527829 47.7110666,37.8519931 C48.263318,37.8519394 48.710993,37.4042444 48.710993,36.8519931 L48.710993,6.45373767 L48.710993,6.45373767 C48.710993,5.11950948 47.7562878,4.07718286 46.5939295,4.07718286 L14.87851,4.07718286 Z" id="形状" fill="url(#linearGradient-1)"></path>
            <path d="M41.7837821,25.4411202 C42.6480679,25.4411202 43.2878638,26.1508294 43.3252787,26.9895766 C43.3626937,27.8283238 42.5900747,28.538033 41.7837821,28.538033 L23.7329318,28.538033 C22.8686461,28.538033 22.2288502,27.8289502 22.1914352,26.9895766 C22.1540202,26.150203 22.9266393,25.4411202 23.7329318,25.4411202 L41.7837821,25.4411202 Z M41.7650747,14.6225967 C42.6293604,14.6225967 43.2691563,15.3323059 43.3065713,16.1710531 C43.3439862,17.0098003 42.57012,17.7201359 41.7650747,17.7201359 L23.7142243,17.7201359 C22.8499386,17.7201359 22.2101427,17.0104267 22.1727277,16.1710531 C22.1353127,15.3316795 22.9079318,14.6225967 23.7142243,14.6225967 L41.7650747,14.6225967 Z" id="形状结合" fill="#FFFFFF"></path>
            <path d="M52.2288502,37.0771829 C53.8857044,37.0771829 55.2288502,38.4203286 55.2288502,40.0771829 L55.2288502,40.0771829 L55.2288502,53.2625267 C55.2288502,54.919381 53.8857044,56.2625267 52.2288502,56.2625267 L52.2288502,56.2625267 L3.22885016,56.2625267 C1.57199591,56.2625267 0.228850164,54.919381 0.228850164,53.2625267 L0.228850164,53.2625267 L0.228850164,40.0771829 C0.228850164,38.4203286 1.57199591,37.0771829 3.22885016,37.0771829 L3.22885016,37.0771829 Z M27.7288502,40 C26.3326653,40 25.1274203,40.817511 24.5656816,41.9999667 L24.5656816,41.9999667 L18.7716526,42 C17.9653601,42 17.1927411,42.7090828 17.230156,43.5484564 C17.267571,44.38783 17.9073669,45.0969128 18.7716526,45.0969128 L18.7716526,45.0969128 L24.6134096,45.0966202 C25.1937641,46.2267753 26.371009,47 27.7288502,47 C29.0866914,47 30.2639362,46.2267753 30.8442907,45.0966202 L30.8442907,45.0966202 L36.822503,45.0969128 C37.6287955,45.0969128 38.4014145,44.3872036 38.3639996,43.5484564 C38.3265846,42.7097092 37.6867887,42 36.822503,42 L36.822503,42 L30.8920188,41.9999667 C30.33028,40.817511 29.125035,40 27.7288502,40 Z" id="形状结合" fill="url(#linearGradient-2)"></path>
        </g>
    </g>
</svg>