<?xml version="1.0" encoding="UTF-8"?>
<svg width="16px" height="16px" viewBox="0 0 16 16" version="1.1" xmlns="http://www.w3.org/2000/svg" xmlns:xlink="http://www.w3.org/1999/xlink">
    <title>提示</title>
    <g id="最终版本" stroke="none" stroke-width="1" fill="none" fill-rule="evenodd">
        <g id="我的收藏" transform="translate(-436.000000, -87.000000)">
            <g id="提示" transform="translate(436.000000, 87.000000)">
                <g id="编组-4" transform="translate(2.000000, 2.000000)">
                    <g id="省略号备份" fill="#FFFFFF" stroke="#888888">
                        <circle id="椭圆形" cx="6" cy="6" r="5.5"></circle>
                    </g>
                    <g id="问好" transform="translate(3.750000, 2.250000)" fill="#888888" fill-rule="nonzero">
                        <path d="M3.93764633,0.542316428 C4.29566659,0.887579609 4.5,1.33165273 4.5,1.9233663 C4.5,2.36687495 4.34631316,2.76153811 4.0907508,3.05740202 C3.98887528,3.15620911 3.73273055,3.45206875 3.2728333,3.79733264 C3.06791751,3.99438519 2.91481304,4.14259582 2.81293752,4.33964837 C2.65925068,4.53670092 2.60802174,4.78315702 2.60802174,5.07957899 L2.60802174,5.32603509 L1.78952038,5.32603509 L1.78952038,5.07901737 C1.78952038,4.73431581 1.84074925,4.48785972 1.99443617,4.24084556 C2.14754063,3.94498593 2.45433194,3.5503192 3.01727094,3.10680984 L3.37529119,2.76154666 C3.57904223,2.51509057 3.6820825,2.26863447 3.6820825,1.97277341 C3.6820825,1.57810668 3.5796246,1.28224705 3.32406224,1.03522719 C3.06791751,0.78933272 2.76112694,0.690525633 2.30122747,0.690525633 C1.78952038,0.690525633 1.4320862,0.838174641 1.17593777,1.18343782 L1.17593776,1.18343784 C0.936628654,1.51607378 0.811422705,1.91266342 0.817917504,2.31747356 L0,2.31747356 C0,1.6269472 0.204333413,1.08519665 0.613582613,0.641122819 C1.02283181,0.197614174 1.58577007,0 2.35245641,0 C3.01726797,0 3.52839343,0.197052551 3.9376441,0.542315732 L3.93764633,0.542316428 Z M2.65925438,6.213614 C2.7611299,6.31242109 2.81235885,6.46063172 2.81235885,6.60828072 C2.81235885,6.80533328 2.76112997,6.90414036 2.60802543,7.05178937 C2.50556754,7.15059646 2.3518807,7.2 2.14812966,7.2 C1.99444282,7.2 1.84075598,7.15059653 1.68765151,7.05178937 C1.58519362,6.95354391 1.53396467,6.80533328 1.53396467,6.60828072 C1.53396467,6.46007009 1.58519355,6.31242109 1.68765151,6.213614 C1.78952703,6.11480691 1.94321387,6.06540337 2.14754729,6.06540337 C2.35246307,6.01656131 2.50556754,6.06540337 2.65925438,6.213614 Z" id="形状"></path>
                    </g>
                </g>
                <rect id="矩形" x="0" y="0" width="16" height="16"></rect>
            </g>
        </g>
    </g>
</svg>