<?xml version="1.0" encoding="UTF-8"?>
<svg width="72px" height="72px" viewBox="0 0 72 72" version="1.1" xmlns="http://www.w3.org/2000/svg" xmlns:xlink="http://www.w3.org/1999/xlink">
    <title>研发云</title>
    <defs>
        <linearGradient x1="50%" y1="-5.81532713%" x2="50%" y2="94.1846729%" id="linearGradient-1">
            <stop stop-color="#F99432" offset="0%"></stop>
            <stop stop-color="#FFB940" offset="100%"></stop>
        </linearGradient>
        <linearGradient x1="50%" y1="-5.81532713%" x2="50%" y2="94.1846729%" id="linearGradient-2">
            <stop stop-color="#F99432" offset="0%"></stop>
            <stop stop-color="#FFB940" offset="100%"></stop>
        </linearGradient>
    </defs>
    <g id="研发云" stroke="none" stroke-width="1" fill="none" fill-rule="evenodd">
        <path d="M55.632653,14.7894737 C57.4923874,14.7894737 59,16.2970863 59,18.1568207 L59,21.7894737 L12,21.7894737 L12,18.1568207 C12,16.2970863 13.5076126,14.7894737 15.367347,14.7894737 L55.632653,14.7894737 Z M40.3123059,16.9473684 C39.4838787,16.9473684 38.8123059,17.6189413 38.8123059,18.4473684 C38.8123059,19.2757955 39.4838787,19.9473684 40.3123059,19.9473684 C41.140733,19.9473684 41.8123059,19.2757955 41.8123059,18.4473684 C41.8123059,17.6189413 41.140733,16.9473684 40.3123059,16.9473684 Z M46.3123059,16.9473684 C45.4838787,16.9473684 44.8123059,17.6189413 44.8123059,18.4473684 C44.8123059,19.2757955 45.4838787,19.9473684 46.3123059,19.9473684 C47.140733,19.9473684 47.8123059,19.2757955 47.8123059,18.4473684 C47.8123059,17.6189413 47.140733,16.9473684 46.3123059,16.9473684 Z M52.3123059,16.9473684 C51.4838787,16.9473684 50.8123059,17.6189413 50.8123059,18.4473684 C50.8123059,19.2757955 51.4838787,19.9473684 52.3123059,19.9473684 C53.140733,19.9473684 53.8123059,19.2757955 53.8123059,18.4473684 C53.8123059,17.6189413 53.140733,16.9473684 52.3123059,16.9473684 Z" id="形状结合" fill="url(#linearGradient-1)"></path>
        <path d="M59,24.1578947 L59,53.6326531 C59,55.4923874 57.4923874,57 55.6326531,57 L15.3673469,57 C13.5076126,57 12,55.4923874 12,53.6326531 L12,24.1578947 L59,24.1578947 Z M39.0002149,28.0799789 C38.5664007,27.9000131 38.0785564,27.9033447 37.6472239,28.0892189 C37.2158914,28.275093 36.8775859,28.6277741 36.7089649,29.0673474 L36.7089649,29.0673474 L29.9439024,46.0913474 L29.8924483,46.2368601 C29.6228071,47.1149026 30.0516316,48.0700744 30.9074024,48.4404 C31.1247774,48.5317684 31.3480274,48.5759789 31.5712774,48.5759789 C32.2615899,48.5759789 32.9195899,48.1515579 33.1957149,47.4559789 L33.1957149,47.4559789 L39.9607774,30.4290316 L40.012297,30.2836412 C40.282383,29.4063072 39.8549029,28.4513664 39.0002149,28.0799789 Z M26.6669375,31.9473684 C26.1983455,31.9473684 25.7498631,32.1383958 25.424375,32.4766276 L25.424375,32.4766276 L21.3265625,36.6884171 L21.2201653,36.808269 C20.9516726,37.1389651 20.8062378,37.5553781 20.8125,37.9852592 C20.806625,38.4568381 20.977,38.9284171 21.3265625,39.2850487 L21.3265625,39.2850487 L25.424375,43.4968381 L25.5374023,43.6038254 C25.8501507,43.8742903 26.2506407,44.0248053 26.6669375,44.0248053 C27.1352714,44.0248053 27.5835998,43.8343097 27.9095,43.4968381 C28.5967314,42.7857413 28.5967314,41.6555139 27.9095,40.9444171 L27.9095,40.9444171 L25.03075,37.9852592 L27.9095,35.0290487 L28.0236422,34.8993808 C28.5943534,34.1864342 28.556306,33.1458952 27.9095,32.4766276 C27.5840119,32.1383958 27.1355295,31.9473684 26.6669375,31.9473684 Z M44.5702919,31.9473684 C44.1016998,31.9473684 43.6532175,32.1383958 43.3277294,32.4766276 C42.640498,33.1877245 42.640498,34.3179518 43.3277294,35.0290487 L43.3277294,35.0290487 L46.2064794,37.9852592 L43.3277294,40.9444171 L43.2139022,41.0740009 C42.6447663,41.786406 42.6827087,42.8249741 43.3277294,43.4938908 C43.6540384,43.8306062 44.102214,44.0205736 44.5702919,44.0205736 C45.0383698,44.0205736 45.4865453,43.8306062 45.8128544,43.4938908 L45.8128544,43.4938908 L49.9106669,39.2850487 L50.0170641,39.1651967 C50.2855568,38.8345006 50.4309916,38.4180876 50.4247294,37.9882065 C50.4325589,37.5035744 50.2475545,37.0357971 49.9106669,36.6884171 L49.9106669,36.6884171 L45.8128544,32.4766276 L45.6999441,32.3693958 C45.3874553,32.0983036 44.9868181,31.9473684 44.5702919,31.9473684 Z" id="形状结合" fill="url(#linearGradient-2)"></path>
        <g id="编组" transform="translate(20.812306, 27.947368)"></g>
    </g>
</svg>