<?xml version="1.0" encoding="UTF-8"?>
<svg width="72px" height="72px" viewBox="0 0 72 72" version="1.1" xmlns="http://www.w3.org/2000/svg" xmlns:xlink="http://www.w3.org/1999/xlink">
    <title>人力云</title>
    <defs>
        <linearGradient x1="50.9511473%" y1="98.1529324%" x2="50.9511473%" y2="0.951147263%" id="linearGradient-1">
            <stop stop-color="#00D58A" offset="0%"></stop>
            <stop stop-color="#00B97D" offset="100%"></stop>
        </linearGradient>
        <linearGradient x1="50.9511473%" y1="98.1529324%" x2="50.9511473%" y2="0.951147263%" id="linearGradient-2">
            <stop stop-color="#00D58A" offset="0%"></stop>
            <stop stop-color="#00B97D" offset="100%"></stop>
        </linearGradient>
    </defs>
    <g id="人力云" stroke="none" stroke-width="1" fill="none" fill-rule="evenodd">
        <g id="编组" transform="translate(11.456933, 11.089606)">
            <path d="M11.221997,11.5 C11.221997,17.8512746 16.4106723,23 22.8112277,23 C29.2117832,23 34.4004585,17.8512746 34.4004585,11.5 C34.4004585,5.14872538 29.2117832,0 22.8112277,0 C16.4106723,0 11.221997,5.14872538 11.221997,11.5 Z" id="路径" fill="url(#linearGradient-1)"></path>
            <path d="M22.4929,25 C33.6708882,25 40.9864457,32.1213055 44.4395725,46.3639164 C44.4956843,46.5953527 44.5240396,46.8326471 44.5240396,47.0707885 C44.5240396,48.7276429 43.1808938,50.0707888 41.5240394,50.0707885 L41.5240394,50.0707885 L3.0007334,50.0707885 C2.74113344,50.0707885 2.48263147,50.0370929 2.23170586,49.9705461 C0.630222091,49.5458239 -0.323731665,47.9032594 0.100976363,46.3017719 C3.86720663,32.1005906 11.3311812,25 22.4929,25 Z M22.6201837,26.2782757 C22.2541819,26.3594209 21.9643092,26.6384605 21.8692893,27.0011078 L18.3680496,40.3637314 C18.2776485,40.7087508 18.3778524,41.0758024 18.6310262,41.3270269 L21.8520763,44.5232766 C22.241966,44.9101644 22.8709243,44.9101644 23.260814,44.5232766 L26.4996732,41.3093549 C26.7432166,41.0676866 26.845862,40.718035 26.7715978,40.3830696 L23.8129283,27.0381181 C23.6933856,26.4989261 23.1593757,26.1587331 22.6201837,26.2782757 Z" id="形状结合" fill="url(#linearGradient-2)"></path>
        </g>
    </g>
</svg>