<?xml version="1.0" encoding="UTF-8"?>
<svg width="72px" height="72px" viewBox="0 0 72 72" version="1.1" xmlns="http://www.w3.org/2000/svg" xmlns:xlink="http://www.w3.org/1999/xlink">
    <title>供应链云</title>
    <defs>
        <linearGradient x1="57.2869671%" y1="94.5805012%" x2="46.4571042%" y2="47.6199506%" id="linearGradient-1">
            <stop stop-color="#35D190" offset="0%"></stop>
            <stop stop-color="#18B681" offset="100%"></stop>
        </linearGradient>
        <linearGradient x1="41.6381367%" y1="100%" x2="59.7114973%" y2="5.97682441%" id="linearGradient-2">
            <stop stop-color="#35D190" offset="0%"></stop>
            <stop stop-color="#18B681" offset="100%"></stop>
        </linearGradient>
    </defs>
    <g id="供应链云" stroke="none" stroke-width="1" fill="none" fill-rule="evenodd">
        <g id="编组-2" transform="translate(35.576840, 35.545714) rotate(4.000000) translate(-35.576840, -35.545714) translate(5.000000, 1.438293)">
            <g id="编组" transform="translate(0.000000, 15.561707)">
                <path d="M10.3003762,19.532199 L10.3003762,19.5446638 C10.3003762,25.6468716 13.287765,31.0593609 17.8948395,34.4290096 C17.0417645,36.0082052 16.5405525,37.749885 16.4249434,39.536804 C9.68581963,35.3791036 5.2019365,27.9791726 5.2019365,19.5446638 C5.2019365,18.9740534 5.22293502,18.4089828 5.26213229,17.8480672 C8.53689547,13.9539371 13.855475,19.7107186 10.3003762,19.532199 Z" id="路径" fill="url(#linearGradient-1)"></path>
                <circle id="椭圆形" fill="url(#linearGradient-2)" cx="10" cy="10" r="10"></circle>
            </g>
            <g id="编组备份" transform="translate(38.000000, 18.330109) rotate(119.000000) translate(-38.000000, -18.330109) translate(28.000000, -1.438293)">
                <path d="M10.3003762,19.532199 L10.3003762,19.5446638 C10.3003762,25.6468716 13.287765,31.0593609 17.8948395,34.4290096 C17.0417645,36.0082052 16.5405525,37.749885 16.4249434,39.536804 C9.68581963,35.3791036 5.2019365,27.9791726 5.2019365,19.5446638 C5.2019365,18.9740534 5.22293502,18.4089828 5.26213229,17.8480672 C8.53689547,13.9539371 13.855475,19.7107186 10.3003762,19.532199 Z" id="路径" fill="url(#linearGradient-1)"></path>
                <circle id="椭圆形" fill="url(#linearGradient-2)" cx="10" cy="10" r="10"></circle>
            </g>
            <g id="编组备份-2" transform="translate(39.000000, 50.330109) rotate(-117.000000) translate(-39.000000, -50.330109) translate(29.000000, 30.561707)">
                <path d="M10.3003762,19.532199 L10.3003762,19.5446638 C10.3003762,25.6468716 13.287765,31.0593609 17.8948395,34.4290096 C17.0417645,36.0082052 16.5405525,37.749885 16.4249434,39.536804 C9.68581963,35.3791036 5.2019365,27.9791726 5.2019365,19.5446638 C5.2019365,18.9740534 5.22293502,18.4089828 5.26213229,17.8480672 C8.53689547,13.9539371 13.855475,19.7107186 10.3003762,19.532199 Z" id="路径" fill="url(#linearGradient-1)"></path>
                <circle id="椭圆形" fill="url(#linearGradient-2)" cx="10" cy="10" r="10"></circle>
            </g>
        </g>
    </g>
</svg>