<?xml version="1.0" encoding="UTF-8"?>
<svg width="72px" height="72px" viewBox="0 0 72 72" version="1.1" xmlns="http://www.w3.org/2000/svg" xmlns:xlink="http://www.w3.org/1999/xlink">
    <title>国资行业云</title>
    <defs>
        <linearGradient x1="44.270996%" y1="5.34038586%" x2="50%" y2="89.9678644%" id="linearGradient-1">
            <stop stop-color="#19BFCE" offset="0%"></stop>
            <stop stop-color="#27D9D6" offset="100%"></stop>
        </linearGradient>
        <linearGradient x1="50%" y1="-5.81532713%" x2="50%" y2="92.2886592%" id="linearGradient-2">
            <stop stop-color="#19BFCE" offset="0%"></stop>
            <stop stop-color="#02DBD8" offset="100%"></stop>
        </linearGradient>
        <linearGradient x1="6.176324%" y1="49.7152011%" x2="50%" y2="50.2516749%" id="linearGradient-3">
            <stop stop-color="#19BFCE" offset="0%"></stop>
            <stop stop-color="#03CCC9" offset="100%"></stop>
        </linearGradient>
    </defs>
    <g id="国资行业云" stroke="none" stroke-width="1" fill="none" fill-rule="evenodd">
        <g id="编组备份" transform="translate(10.000000, 10.518937)">
            <path d="M34,14.2248065 C34.3288425,14.2248065 34.6554477,14.2788728 34.966748,14.384842 L44.966748,17.7889267 C46.1825165,18.2027846 47,19.3446126 47,20.6288912 L47,49.4810629 C47,51.1379172 45.6568542,52.4810629 44,52.4810629 L34,52.4810629 C32.3431458,52.4810629 31,51.1379172 31,49.4810629 L31,17.2248065 C31,15.5679523 32.3431458,14.2248065 34,14.2248065 Z M40.5,36.8340041 L37.5,36.8340041 C36.9477153,36.8340041 36.5,37.2817194 36.5,37.8340041 L36.5,37.8340041 L36.5,40.8340041 C36.5,41.3862889 36.9477153,41.8340041 37.5,41.8340041 L37.5,41.8340041 L40.5,41.8340041 C41.0522847,41.8340041 41.5,41.3862889 41.5,40.8340041 L41.5,40.8340041 L41.5,37.8340041 C41.5,37.2817194 41.0522847,36.8340041 40.5,36.8340041 L40.5,36.8340041 Z M40.5,25.8340041 L37.5,25.8340041 C36.9477153,25.8340041 36.5,26.2817194 36.5,26.8340041 L36.5,26.8340041 L36.5,29.8340041 C36.5,30.3862889 36.9477153,30.8340041 37.5,30.8340041 L37.5,30.8340041 L40.5,30.8340041 C41.0522847,30.8340041 41.5,30.3862889 41.5,29.8340041 L41.5,29.8340041 L41.5,26.8340041 C41.5,26.2817194 41.0522847,25.8340041 40.5,25.8340041 L40.5,25.8340041 Z" id="形状结合" fill="url(#linearGradient-1)" opacity="0.8"></path>
            <path d="M28.8177421,1.97109327 C28.9383104,2.30101716 29,2.64955203 29,3.00081614 L29,49.4810629 C29,51.1379172 27.6568542,52.4810629 26,52.4810629 L8,52.4810629 C6.34314575,52.4810629 5,51.1379172 5,49.4810629 L5,9.57878199 C5,8.31901534 5.7870446,7.19344335 6.97027713,6.76103984 L24.9702771,0.183073988 C26.5264731,-0.385626248 28.2490419,0.414897251 28.8177421,1.97109327 Z M24,37.1869453 L10,37.1869453 C9.44771525,37.1869453 9,37.6346605 9,38.1869453 L9,38.1869453 L9,41.5398865 C9,42.0921712 9.44771525,42.5398865 10,42.5398865 L10,42.5398865 L24,42.5398865 C24.5522847,42.5398865 25,42.0921712 25,41.5398865 L25,41.5398865 L25,38.1869453 C25,37.6346605 24.5522847,37.1869453 24,37.1869453 L24,37.1869453 Z M24,25.8340041 L10,25.8340041 C9.44771525,25.8340041 9,26.2817194 9,26.8340041 L9,26.8340041 L9,30.1869453 C9,30.73923 9.44771525,31.1869453 10,31.1869453 L10,31.1869453 L24,31.1869453 C24.5522847,31.1869453 25,30.73923 25,30.1869453 L25,30.1869453 L25,26.8340041 C25,26.2817194 24.5522847,25.8340041 24,25.8340041 L24,25.8340041 Z M24,14.4810629 L10,14.4810629 C9.44771525,14.4810629 9,14.9287782 9,15.4810629 L9,15.4810629 L9,18.8340041 C9,19.3862889 9.44771525,19.8340041 10,19.8340041 L10,19.8340041 L24,19.8340041 C24.5522847,19.8340041 25,19.3862889 25,18.8340041 L25,18.8340041 L25,15.4810629 C25,14.9287782 24.5522847,14.4810629 24,14.4810629 L24,14.4810629 Z" id="形状结合" fill="url(#linearGradient-2)"></path>
            <rect id="矩形" fill="url(#linearGradient-3)" x="0" y="48.4810629" width="53" height="4" rx="2"></rect>
        </g>
    </g>
</svg>