<?xml version="1.0" encoding="UTF-8"?>
<svg width="72px" height="72px" viewBox="0 0 72 72" version="1.1" xmlns="http://www.w3.org/2000/svg" xmlns:xlink="http://www.w3.org/1999/xlink">
    <title>数字化建模</title>
    <defs>
        <linearGradient x1="50%" y1="-5.25621213e-14%" x2="50%" y2="97.0412796%" id="linearGradient-1">
            <stop stop-color="#00B4FA" offset="0%"></stop>
            <stop stop-color="#00D0FD" offset="100%"></stop>
        </linearGradient>
        <linearGradient x1="3.73529913%" y1="49.2220686%" x2="100%" y2="50.7779314%" id="linearGradient-2">
            <stop stop-color="#00B4FA" offset="0%"></stop>
            <stop stop-color="#00D0FD" offset="100%"></stop>
        </linearGradient>
    </defs>
    <g id="数字化建模" stroke="none" stroke-width="1" fill="none" fill-rule="evenodd">
        <g id="编组" transform="translate(11.000000, 13.000000)">
            <path d="M47.2909091,2.84217094e-14 C49.3393834,3.1240143e-14 51,1.66061656 51,3.70909091 L51,37.8909091 C51,39.9393834 49.3393834,41.6 47.2909091,41.6 L3.70909091,41.6 C1.66061656,41.6 1.58313338e-15,39.9393834 0,37.8909091 L0,3.70909091 C-6.94954965e-16,1.66061656 1.66061656,2.6577562e-14 3.70909091,2.84217094e-14 L47.2909091,2.84217094e-14 Z M28.2930075,9 C27.7736022,9 27.1899405,9.23426408 26.8284986,9.5856602 C26.3760269,10.0203502 25.4576968,10.6684808 24.911518,10.6684808 C24.3680165,10.6684808 23.447009,10.0229531 22.9945373,9.5856602 C22.6089993,9.21604354 22.0762072,9 21.5300284,9 C21.2435522,9 21.002591,9.07808803 20.7884032,9.14836725 L20.7402109,9.16658779 L17.7281953,10.7517747 L17.7094538,10.7621865 C16.978538,11.2072882 16.6813525,12.2276384 17.0535037,13.037151 L17.0588584,13.0475627 L17.0642131,13.0579744 C17.1231148,13.1855182 17.3051744,13.6176053 17.3051744,13.9950308 C17.3051744,15.2600568 16.2449449,16.2856129 14.9491088,16.2856129 L14.8232735,16.2856129 C14.025424,16.2856129 13.4283756,16.8582584 13.2570253,17.7770942 L13.2463159,17.8291529 L13.2463159,17.8473734 C13.2463159,17.8734027 13.2356066,17.9098438 13.2275745,17.9566966 C13.1606408,18.3497397 13,19.2763843 13,20.0338381 C13,20.791292 13.1579635,21.7179366 13.2275745,22.1109796 C13.2329292,22.1578325 13.2382839,22.1968765 13.2463159,22.2203029 L13.2463159,22.2411264 L13.2570253,22.2983909 C13.447117,23.1990062 14.0602295,23.7794605 14.8232735,23.7794605 L14.8875298,23.7794605 C16.1887206,23.7794605 17.2435954,24.8102224 17.2435954,26.0700426 C17.2435954,26.3615712 17.1043733,26.7754378 17.0454717,26.9212021 C16.6893845,27.7098912 17.0267303,28.7224326 17.8138704,29.2326077 L17.8352891,29.2430194 L20.6732772,30.7787506 L20.7268242,30.7969711 C20.941012,30.8646474 21.1846506,30.9453384 21.4630947,30.9453384 C22.0574658,30.9453384 22.5929352,30.724089 22.9276036,30.3596782 C22.9597318,30.3362518 22.99186,30.3050166 23.0293428,30.2737814 C23.3720433,29.9822527 24.2930507,29.2117842 24.9008086,29.2117842 C25.3532802,29.2117842 26.1109695,29.6725035 26.8740135,30.4143398 C27.2595515,30.7839565 27.7923436,31 28.3385224,31 C28.7079964,31 28.9810858,30.9010885 29.2916581,30.7527212 L29.3023675,30.7475154 L32.2126439,29.1831519 L32.2233533,29.1727402 C32.9542691,28.7276384 33.2514547,27.7072882 32.8793034,26.8977757 L32.8739487,26.8873639 L32.868594,26.8769522 C32.8632393,26.8743493 32.6356648,26.4136299 32.6785023,25.9997634 L32.683857,25.973734 L32.683857,25.9477047 C32.683857,24.6826787 33.7440866,23.6571226 35.0399226,23.6571226 L35.17379,23.6571226 C35.9716395,23.6571226 36.5686879,23.084477 36.7400381,22.1656413 L36.7507475,22.1135826 L36.7507475,22.095362 C36.7561022,22.0745386 36.7614569,22.0433034 36.769489,22.0016564 C36.8391,21.6190251 36.9998736,20.7262186 36.9998736,19.9088973 C37.0050955,19.1540464 36.847132,18.2300047 36.777521,17.8369617 C36.7721663,17.7901088 36.7668116,17.7510648 36.7587796,17.7276384 L36.7587796,17.706815 L36.7480702,17.6495504 C36.5579785,16.7489352 35.944866,16.1684808 35.181822,16.1684808 L35.0559867,16.1684808 C33.7547959,16.1684808 32.6999211,15.1377189 32.6999211,13.8778987 C32.6999211,13.5863701 32.8391432,13.1725035 32.8980448,13.0267392 C33.2675187,12.1885944 32.8739487,11.2333176 31.9609733,10.7465689 L29.0881797,9.16658779 L29.0346327,9.14836725 C28.8204449,9.08069096 28.5714517,9 28.2930075,9 Z M24.9971931,16.3793185 C27.0560731,16.3793185 28.7240604,18.0009465 28.7240604,20.0026029 C28.7240604,22.0042593 27.0560731,23.6258874 24.9971931,23.6258874 C22.938313,23.6258874 21.2703257,22.0042593 21.2703257,20.0026029 C21.2703257,18.0009465 22.938313,16.3793185 24.9971931,16.3793185 Z" id="形状结合" fill="url(#linearGradient-1)"></path>
            <g transform="translate(13.000000, 9.000000)"></g>
            <path d="M37.6704546,43.5301205 L13.3295454,43.5301205 C12.3693231,43.5301205 11.5909091,44.3068795 11.5909091,45.2650602 C11.5909091,46.223241 12.3693231,47 13.3295454,47 L37.6704546,47 C38.6306769,47 39.4090909,46.223241 39.4090909,45.2650602 C39.4090909,44.3068795 38.6306769,43.5301205 37.6704546,43.5301205 Z" id="路径" fill="url(#linearGradient-2)"></path>
        </g>
    </g>
</svg>