<?xml version="1.0" encoding="UTF-8"?>
<svg width="72px" height="72px" viewBox="0 0 72 72" version="1.1" xmlns="http://www.w3.org/2000/svg" xmlns:xlink="http://www.w3.org/1999/xlink">
    <title>协同云</title>
    <defs>
        <linearGradient x1="72.3334075%" y1="12.5502974%" x2="11.0904517%" y2="83.4445302%" id="linearGradient-1">
            <stop stop-color="#FF6D54" offset="0%"></stop>
            <stop stop-color="#FF8433" offset="100%"></stop>
        </linearGradient>
        <linearGradient x1="30.3199963%" y1="12.8252251%" x2="75.3733558%" y2="89.5662348%" id="linearGradient-2">
            <stop stop-color="#FF6D54" offset="0%"></stop>
            <stop stop-color="#FF8433" offset="100%"></stop>
        </linearGradient>
        <linearGradient x1="50%" y1="-2.48949813e-15%" x2="50%" y2="100%" id="linearGradient-3">
            <stop stop-color="#FF6D54" offset="0%"></stop>
            <stop stop-color="#FF8433" offset="100%"></stop>
        </linearGradient>
    </defs>
    <g id="协同云" stroke="none" stroke-width="1" fill="none" fill-rule="evenodd">
        <g id="编组" transform="translate(10.000000, 11.000000)">
            <path d="M37.8661529,31.5217391 L25.3805065,44.0053787 L26.808,40.217 L2.1726388,40.2173913 C0.972723525,40.2173913 4.10227408e-14,39.2446678 4.08562073e-14,38.0447525 C4.08562073e-14,37.9102125 0.0124969597,37.7759634 0.0373298382,37.6437351 L6.7742207,1.77162136 C6.96715212,0.74431397 7.86426272,1.08019084e-15 8.90952967,0 L39.5372364,0 C40.7371517,-1.9967777e-15 41.7098752,0.972723525 41.7098752,2.1726388 C41.7098752,2.44209902 41.6597495,2.70920811 41.5620559,2.96033512 L40.143,6.608 L15.0284858,6.60869565 C14.033199,6.60869565 13.1729908,7.28336737 12.9260214,8.23336539 L12.8906199,8.39417923 L9.16591489,28.9619449 C9.14277945,29.0896985 9.13114188,29.2192687 9.13114188,29.3491002 C9.13114188,30.4968453 10.0211196,31.436725 11.1486198,31.516284 L11.3037808,31.5217391 L37.8661529,31.5217391 Z" id="形状结合" fill="url(#linearGradient-1)"></path>
            <path d="M30.5762279,17.4174117 L29.4071171,21.6514117 L50.8476698,21.6521739 C51.4476274,21.6521739 51.9339892,22.1385357 51.9339892,22.7384934 C51.9339892,22.8342323 51.921333,22.9295511 51.8963496,23.0219728 L44.0097034,52.19716 C43.8816319,52.6709367 43.4518053,53 42.9610236,53 L19.3635475,53 C18.7635898,53 18.277228,52.5136382 18.277228,51.9136806 C18.277228,51.8063738 18.2931272,51.6996591 18.3244077,51.5970128 L19.884228,46.4781739 L35.8289434,46.4782609 C36.6895198,46.4782609 37.4556869,45.9507826 37.7683559,45.1605355 L37.8215792,45.0093495 L42.5993179,29.5815917 C42.6315485,29.4775163 42.6479389,29.3691843 42.6479389,29.2602325 C42.6479389,28.700272 42.2242637,28.2392662 41.6799859,28.1802874 L41.5616194,28.173913 L27.6071171,28.1724117 L27.6077929,28.173913 L17.6161171,28.173913 L30.5762279,17.4174117 Z" id="形状结合" fill="url(#linearGradient-2)" opacity="0.7"></path>
            <rect id="矩形" fill="url(#linearGradient-3)" x="18.9758534" y="9.7826087" width="17.263879" height="5.43478261" rx="2.7157985"></rect>
        </g>
    </g>
</svg>