<?xml version="1.0" encoding="UTF-8"?>
<svg width="72px" height="72px" viewBox="0 0 72 72" version="1.1" xmlns="http://www.w3.org/2000/svg" xmlns:xlink="http://www.w3.org/1999/xlink">
    <title>国资服务</title>
    <defs>
        <linearGradient x1="50%" y1="-5.81532713%" x2="50%" y2="94.1846729%" id="linearGradient-1">
            <stop stop-color="#F99432" offset="0%"></stop>
            <stop stop-color="#FFB940" offset="100%"></stop>
        </linearGradient>
    </defs>
    <g id="国资服务" stroke="none" stroke-width="1" fill="none" fill-rule="evenodd">
        <g id="编组备份" transform="translate(10.000000, 8.000000)">
            <path d="M47.999642,0 C50.208781,-8.49901461e-16 51.999642,1.790861 51.999642,4 L51.999642,51.999932 C51.999642,54.209071 50.208781,55.999932 47.999642,55.999932 L4,55.999932 C1.790861,55.999932 2.12989273e-13,54.209071 2.13162821e-13,51.999932 L2.13162821e-13,4 C2.1244819e-13,1.790861 1.790861,-3.82769592e-17 4,0 L47.999642,0 Z M33.4814058,37.9664206 L13.6571785,37.9664206 C12.7716731,37.9664206 11.9231493,38.7451661 11.9642401,39.6670026 C12.0053308,40.5888392 12.7079825,41.3675846 13.6571785,41.3675846 L13.6571785,41.3675846 L33.4814058,41.3675846 C34.3669113,41.3675846 35.215435,40.5881512 35.1743443,39.6670026 C35.1332536,38.7458541 34.4306019,37.9664206 33.4814058,37.9664206 L33.4814058,37.9664206 Z M33.4814058,27.9664206 L13.6571785,27.9664206 C12.7716731,27.9664206 11.9231493,28.7451661 11.9642401,29.6670026 C12.0053308,30.5888392 12.7079825,31.3675846 13.6571785,31.3675846 L13.6571785,31.3675846 L33.4814058,31.3675846 C34.3669113,31.3675846 35.215435,30.5881512 35.1743443,29.6670026 C35.1332536,28.7458541 34.4306019,27.9664206 33.4814058,27.9664206 L33.4814058,27.9664206 Z M38.4210092,9.28956461 C38.1946534,9.28956461 37.988883,9.4248689 37.8875889,9.63871033 L36.3736118,12.8561163 L32.9871635,13.5059331 C32.7631873,13.540186 32.5772264,13.7064001 32.5083603,13.9335865 C32.43793,14.1599399 32.4964905,14.4096851 32.6587389,14.5758981 L35.1089516,16.9655553 L34.4687019,20.4385302 C34.430713,20.6732357 34.5209264,20.9129783 34.7053365,21.0516263 C34.8813176,21.2373566 35.2442908,21.1485019 35.3305348,21.1009035 L38.4210039,19.5072472 L41.4916887,21.1009035 C41.5779318,21.1485019 41.9190835,21.260387 42.1168724,21.0516263 C42.2997057,20.9129785 42.3930728,20.6732511 42.3543095,20.4385302 L41.7338427,16.9655553 L44.1848393,14.5533352 C44.3462992,14.3879677 44.4040574,14.1382239 44.3336129,13.9118705 C44.2639673,13.6846883 44.0787819,13.5184598 43.854819,13.4842213 L40.4675735,12.8561163 L38.9528258,9.63871033 C38.8539107,9.42488362 38.6473238,9.28956461 38.4210092,9.28956461 Z M22.4784264,16.0850486 L13.6366332,16.0850486 C12.7511277,16.0850486 11.902604,16.8637941 11.9436947,17.7856306 C11.9847855,18.7074671 12.6874371,19.4869005 13.6366332,19.4869005 L13.6366332,19.4869005 L22.4784264,19.4869005 C23.3625622,19.4869005 24.2124557,18.7067792 24.1713649,17.7856306 C24.1302742,16.864482 23.4276225,16.0850486 22.4784264,16.0850486 L22.4784264,16.0850486 Z" id="形状结合" fill="url(#linearGradient-1)"></path>
            <g id="统计报表" opacity="0.95" transform="translate(25.859746, 35.733476)"></g>
        </g>
    </g>
</svg>