<?xml version="1.0" encoding="UTF-8"?>
<svg width="72px" height="72px" viewBox="0 0 72 72" version="1.1" xmlns="http://www.w3.org/2000/svg" xmlns:xlink="http://www.w3.org/1999/xlink">
    <title>营销云</title>
    <defs>
        <linearGradient x1="50.9511473%" y1="98.1529324%" x2="50.9511473%" y2="0.951147263%" id="linearGradient-1">
            <stop stop-color="#00D58A" offset="0%"></stop>
            <stop stop-color="#00B97D" offset="100%"></stop>
        </linearGradient>
        <linearGradient x1="50.9511473%" y1="98.1529324%" x2="50.9511473%" y2="0.951147263%" id="linearGradient-2">
            <stop stop-color="#00D58A" offset="0%"></stop>
            <stop stop-color="#00B97D" offset="100%"></stop>
        </linearGradient>
        <linearGradient x1="7.75209767%" y1="50.2557925%" x2="90.4377017%" y2="50%" id="linearGradient-3">
            <stop stop-color="#00D58A" offset="0%"></stop>
            <stop stop-color="#00B97D" offset="100%"></stop>
        </linearGradient>
    </defs>
    <g id="营销云" stroke="none" stroke-width="1" fill="none" fill-rule="evenodd">
        <g id="编组" transform="translate(9.000000, 9.000000)">
            <path d="M3.01899354,47.4832348 L15.5521196,47.4832348 C16.0945421,47.4832348 16.5342624,47.0435145 16.5342624,46.5010919 L16.5342624,24.985139 C16.5342624,24.662203 16.3755102,24.3599029 16.1096507,24.1765824 L13.1834701,22.1588675 C12.8194126,21.9078357 12.3324841,21.9310633 11.9939748,22.215609 L2.38702937,30.2910594 C2.16502713,30.477671 2.03685068,30.7528591 2.03685068,31.0428744 L2.03685068,46.5010919 C2.03685068,47.0435145 2.47657101,47.4832348 3.01899354,47.4832348 Z M20.9372198,47.4832348 L33.4703458,47.4832348 C34.0127684,47.4832348 34.4524887,47.0435145 34.4524887,46.5010919 L34.4524887,26.6968259 C34.4524887,26.1544034 34.0127684,25.7146831 33.4703458,25.7146831 C33.2410418,25.7146831 33.0189654,25.7949165 32.8426113,25.9414757 L27.9577376,30.0010542 C27.6500103,30.2567913 27.2179062,30.3002828 26.8653875,30.1109998 L21.4018354,27.1773769 C20.9239457,26.9207768 20.3285241,27.1001674 20.0719239,27.5780571 C19.9952202,27.7209095 19.9550769,27.88053 19.9550769,28.0426727 L19.9550769,46.5010919 C19.9550769,47.0435145 20.3947973,47.4832348 20.9372198,47.4832348 Z M37.8733032,22.317019 L37.8733032,46.5010919 C37.8733032,47.0435145 38.3130235,47.4832348 38.855446,47.4832348 L51.3885721,47.4832348 C51.9309946,47.4832348 52.3707149,47.0435145 52.3707149,46.5010919 L52.3707149,22.3894133 C52.3707149,22.1728254 52.2991209,21.9623118 52.1670742,21.790632 L46.8462793,14.8728294 C46.5155815,14.4428745 45.8989508,14.3624107 45.4689959,14.6931085 C45.4420897,14.7138032 45.4162745,14.7358789 45.3916542,14.7592467 L38.1793231,21.6046551 C37.9839424,21.7900959 37.8733032,22.0476458 37.8733032,22.317019 Z" id="形状" fill="url(#linearGradient-1)"></path>
            <path d="M4.43142081,24.1806574 L11.2439268,18.5507522 C11.8862421,18.019938 12.7935723,17.9521456 13.5076366,18.3816159 L26.1107067,25.9616669 C26.8612363,26.413069 27.8199408,26.3130554 28.4611422,25.7164656 L45.2407602,10.10429 L45.2407602,10.10429 C45.305267,10.0444235 45.3580452,9.97490101 45.4127783,9.90827532 L47.3264939,11.8204126 C47.7102028,12.203805 48.3320612,12.2035485 48.7154535,11.8198396 C48.8176145,11.7175943 48.8959492,11.5940607 48.944868,11.4580536 L52.5928676,1.31564175 C52.776451,0.80523082 52.511505,0.242637228 52.0010941,0.0590537873 C51.7979977,-0.0139954566 51.5764937,-0.0181092526 51.370825,0.04734836 L40.9059606,3.37797128 C40.389085,3.54247584 40.1034318,4.09484365 40.2679363,4.6117193 C40.3155862,4.76143592 40.3984594,4.89753588 40.5095985,5.00859306 L42.6937195,7.19110577 L42.6937195,7.19110577 C42.6497376,7.22490141 42.6028235,7.25290351 42.5607964,7.2915271 L27.9499228,20.8865799 C27.3087492,21.4831758 26.350069,21.5832236 25.5995312,21.1318666 L13.1488082,13.644274 C12.4348044,13.2148877 11.5275925,13.2826558 10.8853064,13.813356 L1.92347511,21.218228 L1.92347511,21.218228 C1.09466063,21.9028312 0.98519457,23.1204398 1.67815385,23.9382944 C2.37111312,24.7561489 3.60456109,24.8662261 4.43142081,24.1806574 Z" id="形状" fill="url(#linearGradient-2)" opacity="0.7"></path>
            <path d="M52.0452489,50.137641 L1.95475113,50.137641 C0.875728507,50.137641 0,51.0028094 0,52.0688205 C0,53.1348316 0.875728507,54 1.95475113,54 L52.0452489,54 C53.1242715,54 54,53.1348316 54,52.0688205 C54,51.0028094 53.1242715,50.137641 52.0452489,50.137641 Z" id="路径" fill="url(#linearGradient-3)"></path>
        </g>
    </g>
</svg>