<?xml version="1.0" encoding="UTF-8"?>
<svg width="72px" height="72px" viewBox="0 0 72 72" version="1.1" xmlns="http://www.w3.org/2000/svg" xmlns:xlink="http://www.w3.org/1999/xlink">
    <title>营销云服务</title>
    <defs>
        <linearGradient x1="50%" y1="-5.25621213e-14%" x2="50%" y2="97.0412796%" id="linearGradient-1">
            <stop stop-color="#2EB1F3" offset="0%"></stop>
            <stop stop-color="#33CCF8" offset="100%"></stop>
        </linearGradient>
    </defs>
    <g id="营销云服务" stroke="none" stroke-width="1" fill="none" fill-rule="evenodd">
        <g id="编组备份" transform="translate(5.000000, 13.000000)" fill="url(#linearGradient-1)">
            <path d="M30.8674186,1.56319402e-13 C37.9920265,1.56319402e-13 44.2709302,3.54554569 47.9646079,8.93316749 C55.3946976,10.3624286 61,16.7752491 61,24.4701247 C61,33.2146959 53.7610952,40.3035714 44.8314535,40.3035714 C44.335703,40.3035714 43.8451637,40.2817222 43.3607849,40.2389535 L43.3610698,40.3035714 L30.8674186,40.3035714 C30.3732076,40.3035714 29.8830658,40.2865112 29.397574,40.2529592 L29.3977442,40.3035714 L11.758814,40.3035714 C5.26444186,40.3035714 1.04449782e-12,35.1482373 1.04449782e-12,28.7884638 C1.04449782e-12,22.8489766 4.59163044,17.9593921 10.4885485,17.3390737 C11.8849123,7.54130851 20.4767671,1.56319402e-13 30.8674186,1.56319402e-13 Z M24.0162155,19.5221059 C23.6688886,19.3454275 23.2440106,19.3898509 22.9393523,19.6459421 L22.9393523,19.6459421 L18.9523655,22.9973417 L18.8630663,23.0825262 C18.6963573,23.2628812 18.6021868,23.5005722 18.6021868,23.7491568 L18.6021868,23.7491568 L18.6021868,30.18906 L18.6087944,30.3035986 C18.665528,30.7920562 19.0806516,31.1712028 19.5843297,31.1712028 L19.5843297,31.1712028 L24.3802321,31.1712028 L24.4947707,31.1645952 C24.9832284,31.1078616 25.362375,30.692738 25.362375,30.18906 L25.362375,30.18906 L25.362375,20.9555358 L25.3550343,20.8355942 C25.3210134,20.5588838 25.1703903,20.3073847 24.9377632,20.1469793 L24.9377632,20.1469793 L24.1288476,19.5892006 Z M32.7355567,21.6134487 C32.5062527,21.6134487 32.2841762,21.6936822 32.1078222,21.8402413 L32.1078222,21.8402413 L30.9608939,22.7933971 L30.8539914,22.8707537 C30.558126,23.0559251 30.1818938,23.0715942 29.8685438,22.9033427 L29.8685438,22.9033427 L28.4042699,22.1171092 L28.3002323,22.0687467 C27.8430486,21.8876593 27.31263,22.0740347 27.0743584,22.5177894 C26.9976546,22.6606418 26.9575114,22.8202623 26.9575114,22.9824051 L26.9575114,22.9824051 L26.9575114,30.18906 L26.964119,30.3035986 C27.0208526,30.7920562 27.4359762,31.1712028 27.9396543,31.1712028 L27.9396543,31.1712028 L32.7355567,31.1712028 L32.8500953,31.1645952 C33.3385529,31.1078616 33.7176996,30.692738 33.7176996,30.18906 L33.7176996,30.18906 L33.7176996,22.5955916 L33.711092,22.481053 C33.6543584,21.9925953 33.2392348,21.6134487 32.7355567,21.6134487 Z M39.7703254,16.3328322 C39.4270415,15.9859195 38.8710989,15.9408401 38.4742175,16.2460995 C38.4473114,16.2667943 38.4214962,16.28887 38.3968758,16.3122377 L38.3968758,16.3122377 L35.6188559,18.9489277 L35.5283473,19.0473781 C35.3896688,19.2205469 35.312836,19.4368139 35.312836,19.6612916 L35.312836,19.6612916 L35.312836,30.18906 L35.3194436,30.3035986 C35.3761772,30.7920562 35.7913008,31.1712028 36.2949788,31.1712028 L36.2949788,31.1712028 L41.0908813,31.1712028 L41.2054199,31.1645952 C41.6938775,31.1078616 42.0730241,30.692738 42.0730241,30.18906 L42.0730241,30.18906 L42.0730241,19.6481407 L42.064522,19.519179 C42.0419684,19.3489008 41.9750208,19.1867033 41.8693834,19.0493595 L41.8693834,19.0493595 L39.8515009,16.4258205 Z M41.2255972,9.3853165 C41.0225008,9.31226725 40.8009969,9.30815346 40.5953281,9.37361107 L40.5953281,9.37361107 L37.5479329,10.343497 L37.4407928,10.3845303 C36.9925464,10.5867301 36.7571544,11.097289 36.9099086,11.577245 C36.9575585,11.7269616 37.0404317,11.8630616 37.1515708,11.9741187 L37.1515708,11.9741187 L37.5606111,12.3828579 L37.529278,12.405427 L37.529278,12.405427 L37.4986286,12.4296846 L31.2634443,18.2313678 L31.1311319,18.3440501 C30.4953718,18.8388528 29.6135547,18.8979211 28.9130527,18.4766545 L28.9130527,18.4766545 L24.419678,15.7744372 L24.2744368,15.6951785 C23.58589,15.3561441 22.7556432,15.448199 22.1561762,15.9435192 L22.1561762,15.9435192 L18.5493194,18.9237486 L18.4661041,19.0016316 C18.1572017,19.3292281 18.1366524,19.8400918 18.4349254,20.1921239 C18.7580544,20.573492 19.3332151,20.6248214 19.7187823,20.3051386 L19.7187823,20.3051386 L22.3233612,18.1526954 L22.455222,18.0527163 C23.0857949,17.6150523 23.920611,17.5827201 24.587071,17.9835591 L24.587071,17.9835591 L29.1514198,20.7287629 L29.3041456,20.8117074 C30.0283655,21.1646229 30.9034007,21.0403787 31.5018552,20.4835617 L31.5018552,20.4835617 L38.7483041,13.7412847 L38.7901194,13.6967655 L38.7901194,13.6967655 L38.8285166,13.6498825 L39.1366788,13.9577905 L39.2292376,14.0394554 C39.6146472,14.3388745 40.1717378,14.3114103 40.5256385,13.9572175 C40.6277995,13.8549722 40.7061342,13.7314385 40.7550529,13.5954314 L40.7550529,13.5954314 L41.8173707,10.6419045 L41.8499188,10.5318891 C41.9618524,10.0530567 41.6995502,9.55578684 41.2255972,9.3853165 Z" id="形状结合"></path>
        </g>
        <g id="编组" transform="translate(23.222411, 22.265131)"></g>
    </g>
</svg>